<?xml version="1.0" encoding="UTF-8" standalone="no"?>
<!-- Created with Inkscape (http://www.inkscape.org/) -->

<svg
   width="104.17513mm"
   height="95.106369mm"
   viewBox="0 0 104.17513 95.106369"
   version="1.1"
   id="svg903"
   inkscape:version="1.3 (0e150ed6c4, 2023-07-21)"
   sodipodi:docname="chamallow_corps_attaquereussie.svg"
   xmlns:inkscape="http://www.inkscape.org/namespaces/inkscape"
   xmlns:sodipodi="http://sodipodi.sourceforge.net/DTD/sodipodi-0.dtd"
   xmlns="http://www.w3.org/2000/svg"
   xmlns:svg="http://www.w3.org/2000/svg"
   xmlns:rdf="http://www.w3.org/1999/02/22-rdf-syntax-ns#"
   xmlns:cc="http://creativecommons.org/ns#"
   xmlns:dc="http://purl.org/dc/elements/1.1/">
  <defs
     id="defs897">
    <clipPath
       clipPathUnits="userSpaceOnUse"
       id="clipPath954">
      <rect
         style="fill:#ffffff;fill-opacity:1;stroke:#000000;stroke-width:0.366;stroke-linecap:round;stroke-linejoin:bevel;stroke-miterlimit:4;stroke-dasharray:none;stroke-dashoffset:0;stroke-opacity:1"
         id="rect956"
         width="36.474705"
         height="13.134672"
         x="248.23587"
         y="93.459831"
         rx="13.312986"
         ry="3.9706812" />
    </clipPath>
  </defs>
  <sodipodi:namedview
     id="base"
     pagecolor="#ffffff"
     bordercolor="#666666"
     borderopacity="1.0"
     inkscape:pageopacity="0.0"
     inkscape:pageshadow="2"
     inkscape:zoom="0.3574005"
     inkscape:cx="696.69741"
     inkscape:cy="270.00522"
     inkscape:document-units="mm"
     inkscape:current-layer="layer1"
     showgrid="false"
     inkscape:window-width="1916"
     inkscape:window-height="1037"
     inkscape:window-x="0"
     inkscape:window-y="0"
     inkscape:window-maximized="1"
     inkscape:showpageshadow="2"
     inkscape:pagecheckerboard="0"
     inkscape:deskcolor="#d1d1d1" />
  <metadata
     id="metadata900">
    <rdf:RDF>
      <cc:Work
         rdf:about="">
        <dc:format>image/svg+xml</dc:format>
        <dc:type
           rdf:resource="http://purl.org/dc/dcmitype/StillImage" />
        <dc:title />
      </cc:Work>
    </rdf:RDF>
  </metadata>
  <g
     inkscape:label="Calque 1"
     inkscape:groupmode="layer"
     id="layer1"
     transform="translate(-90.634372,-113.13935)">
    <path
       style="fill:#f9f9f9;fill-opacity:1;stroke:#000000;stroke-width:1.58867;stroke-linejoin:bevel;stroke-miterlimit:10;stroke-dasharray:none;stroke-dashoffset:0;stroke-opacity:1"
       id="path1130-0-2-3-1-3"
       sodipodi:type="arc"
       sodipodi:cx="-29.00713"
       sodipodi:cy="239.79234"
       sodipodi:rx="9.8969059"
       sodipodi:ry="18.451059"
       sodipodi:start="1.0962796e-14"
       sodipodi:end="3.1258055"
       d="m -19.110224,239.79234 a 9.8969059,18.451059 0 0 1 -9.818784,18.45049 9.8969059,18.451059 0 0 1 -9.973794,-18.15921 l 9.895672,-0.29128 z"
       transform="matrix(0.63339746,-0.77382663,0.80707181,0.59045329,0,0)"
       inkscape:transform-center-x="-0.88515969"
       inkscape:transform-center-y="-12.852372"
       sodipodi:arc-type="slice" />
    <path
       style="fill:#f9f9f9;fill-opacity:1;stroke:#000000;stroke-width:1.58867;stroke-linejoin:bevel;stroke-miterlimit:10;stroke-dasharray:none;stroke-dashoffset:0;stroke-opacity:1"
       id="path1130-0-2-0-6"
       sodipodi:type="arc"
       sodipodi:cx="196.1705"
       sodipodi:cy="18.160835"
       sodipodi:rx="9.8969059"
       sodipodi:ry="18.451059"
       sodipodi:start="1.0962796e-14"
       sodipodi:end="3.1258055"
       d="m 206.06741,18.160835 a 9.8969059,18.451059 0 0 1 -9.81879,18.450485 9.8969059,18.451059 0 0 1 -9.97379,-18.159207 l 9.89567,-0.291278 z"
       transform="matrix(0.63170706,0.77520719,-0.73976939,0.6728605,0,0)"
       inkscape:transform-center-x="-11.819262"
       inkscape:transform-center-y="2.599307"
       sodipodi:arc-type="slice" />
    <rect
       style="fill:#f9f9f9;fill-opacity:1;stroke:#000000;stroke-width:1.5875;stroke-linejoin:bevel;stroke-miterlimit:10;stroke-dasharray:none;stroke-dashoffset:0;stroke-opacity:1"
       id="rect829-0-2-7"
       width="77.047516"
       height="86.024605"
       x="104.36253"
       y="113.89654"
       ry="31.030914"
       rx="25.556574"
       clip-path="none" />
    <path
       style="fill:#ffd5d5;fill-opacity:1;stroke:#ffd5d5;stroke-width:0.240124;stroke-linejoin:bevel;stroke-miterlimit:10;stroke-dasharray:none;stroke-dashoffset:0;stroke-opacity:1"
       id="path1100-4-7"
       sodipodi:type="arc"
       sodipodi:cx="123.79018"
       sodipodi:cy="195.70415"
       sodipodi:rx="5.4729886"
       sodipodi:ry="2.3140404"
       sodipodi:start="0"
       sodipodi:end="6.2319075"
       d="m 129.26316,195.70415 a 5.4729886,2.3140404 0 0 1 -5.40282,2.31385 5.4729886,2.3140404 0 0 1 -5.54135,-2.25453 5.4729886,2.3140404 0 0 1 5.26076,-2.37165 5.4729886,2.3140404 0 0 1 5.67622,2.19372 l -5.46579,0.11861 z"
       transform="rotate(-14.533951)"
       sodipodi:arc-type="slice" />
    <path
       style="fill:#ffd5d5;fill-opacity:1;stroke:#ffd5d5;stroke-width:0.240124;stroke-linejoin:bevel;stroke-miterlimit:10;stroke-dasharray:none;stroke-dashoffset:0;stroke-opacity:1"
       id="path1100-2-7-0"
       sodipodi:type="arc"
       sodipodi:cx="178.93678"
       sodipodi:cy="89.374168"
       sodipodi:rx="5.4729886"
       sodipodi:ry="2.3140404"
       sodipodi:start="0"
       sodipodi:end="6.2319075"
       d="m 184.40977,89.374168 a 5.4729886,2.3140404 0 0 1 -5.40283,2.313851 5.4729886,2.3140404 0 0 1 -5.54135,-2.254528 5.4729886,2.3140404 0 0 1 5.26076,-2.371652 5.4729886,2.3140404 0 0 1 5.67623,2.193722 l -5.4658,0.118607 z"
       transform="rotate(26.011263)"
       sodipodi:arc-type="slice" />
    <path
       style="fill:none;stroke:#000000;stroke-width:1.5875;stroke-linecap:round;stroke-linejoin:miter;stroke-miterlimit:4;stroke-dasharray:none;stroke-opacity:1"
       d="m 150.90323,163.3501 c -7.00986,-4.61047 -7.61768,-3.23271 -13.27519,-0.67435"
       id="path1128-6-9"
       inkscape:connector-curvature="0"
       sodipodi:nodetypes="cc" />
    <path
       style="fill:#f9f9f9;fill-opacity:1;stroke:#000000;stroke-width:1.5875;stroke-linejoin:bevel;stroke-miterlimit:10;stroke-dasharray:none;stroke-dashoffset:0;stroke-opacity:1"
       id="path1130-5-3"
       sodipodi:type="arc"
       sodipodi:cx="134.59196"
       sodipodi:cy="200.09193"
       sodipodi:rx="7.9955683"
       sodipodi:ry="7.7649765"
       sodipodi:start="1.0962796e-14"
       sodipodi:end="3.1258055"
       d="m 142.58753,200.09193 a 7.9955683,7.7649765 0 0 1 -7.93245,7.76474 7.9955683,7.7649765 0 0 1 -8.05769,-7.64215 l 7.99457,-0.12259 z" />
    <path
       style="fill:#f9f9f9;fill-opacity:1;stroke:#000000;stroke-width:1.5875;stroke-linejoin:bevel;stroke-miterlimit:10;stroke-dasharray:none;stroke-dashoffset:0;stroke-opacity:1"
       id="path1130-0-6-6"
       sodipodi:type="arc"
       sodipodi:cx="151.19839"
       sodipodi:cy="199.97878"
       sodipodi:rx="7.9955683"
       sodipodi:ry="7.7649765"
       sodipodi:start="1.0962796e-14"
       sodipodi:end="3.1258055"
       d="m 159.19396,199.97878 a 7.9955683,7.7649765 0 0 1 -7.93245,7.76473 7.9955683,7.7649765 0 0 1 -8.05769,-7.64215 l 7.99457,-0.12258 z" />
    <path
       style="fill:#ececec;fill-opacity:0.97989951;stroke:#ececec;stroke-width:0.1174347;stroke-linecap:round;stroke-linejoin:bevel;stroke-miterlimit:4;stroke-dasharray:none;stroke-dashoffset:0;stroke-opacity:1"
       id="path1413-0"
       sodipodi:type="arc"
       sodipodi:cx="164.34386"
       sodipodi:cy="188.64124"
       sodipodi:rx="3.4875932"
       sodipodi:ry="3.4207532"
       sodipodi:start="1.0962797e-14"
       sodipodi:end="6.2563591"
       d="m 167.83145,188.64124 a 3.4875932,3.4207532 0 0 1 -3.4642,3.42067 3.4875932,3.4207532 0 0 1 -3.51067,-3.37479 3.4875932,3.4207532 0 0 1 3.41711,-3.46595 3.4875932,3.4207532 0 0 1 3.55651,3.32831 l -3.48634,0.0918 z" />
    <path
       style="fill:#ececec;fill-opacity:0.97989951;stroke:#ececec;stroke-width:0.04741292;stroke-linecap:round;stroke-linejoin:bevel;stroke-miterlimit:4;stroke-dasharray:none;stroke-dashoffset:0;stroke-opacity:1"
       id="path1413-9-6"
       sodipodi:type="arc"
       sodipodi:cx="169.94167"
       sodipodi:cy="188.60081"
       sodipodi:rx="1.5035011"
       sodipodi:ry="1.2934349"
       sodipodi:start="1.0962797e-14"
       sodipodi:end="6.2563591"
       d="m 171.44517,188.60081 a 1.5035011,1.2934349 0 0 1 -1.49342,1.29341 1.5035011,1.2934349 0 0 1 -1.51345,-1.27606 1.5035011,1.2934349 0 0 1 1.47312,-1.31052 1.5035011,1.2934349 0 0 1 1.53321,1.25848 l -1.50296,0.0347 z" />
    <path
       style="fill:#ececec;fill-opacity:0.97989951;stroke:#ececec;stroke-width:0.01885958;stroke-linecap:round;stroke-linejoin:bevel;stroke-miterlimit:4;stroke-dasharray:none;stroke-dashoffset:0;stroke-opacity:1"
       id="path1413-9-3-2"
       sodipodi:type="arc"
       sodipodi:cx="168.76233"
       sodipodi:cy="191.22665"
       sodipodi:rx="0.59805208"
       sodipodi:ry="0.51449341"
       sodipodi:start="1.0962797e-14"
       sodipodi:end="6.2563591"
       d="m 169.36038,191.22665 a 0.59805208,0.51449341 0 0 1 -0.59404,0.51449 0.59805208,0.51449341 0 0 1 -0.60201,-0.50759 0.59805208,0.51449341 0 0 1 0.58597,-0.52129 0.59805208,0.51449341 0 0 1 0.60987,0.50059 l -0.59784,0.0138 z" />
    <ellipse
       style="fill:#f9f9f9;fill-opacity:1;stroke:#000000;stroke-width:0.919353;stroke-linecap:round;stroke-linejoin:bevel;stroke-miterlimit:4;stroke-dasharray:none;stroke-dashoffset:0;stroke-opacity:1"
       id="path916-6"
       cx="266.6622"
       cy="104.61012"
       clip-path="url(#clipPath954)"
       transform="matrix(-1.7267575,0,0,-1.7267575,603.18292,301.23207)"
       ry="10.042572"
       rx="15.827884" />
    <path
       style="fill:#55ddff;fill-opacity:0.9799;stroke:#000000;stroke-width:1.5875;stroke-linecap:round;stroke-linejoin:bevel;stroke-miterlimit:4;stroke-dasharray:none;stroke-dashoffset:0;stroke-opacity:1"
       d="m 127.20861,171.73169 c -1.37364,-0.64727 -2.495,-1.83664 -3.17774,-3.12219 -0.24257,-0.45674 -0.30241,-1.00107 -0.26165,-1.50924 0.17452,-2.17591 1.37954,-4.17105 2.13855,-6.2352 1.17518,-3.19593 0.11278,-9.51665 3.7384,-9.51753 3.48188,-8.6e-4 2.46513,6.06997 3.59549,9.13877 0.84189,2.28566 2.20136,4.49307 2.37235,6.90436 0.0297,0.41847 -0.005,0.87947 -0.23893,1.23825 -1.05445,1.62372 -2.86168,2.98987 -4.82572,3.4923 -1.08223,0.27684 -2.33924,0.0824 -3.34075,-0.38952 z"
       id="path871"
       inkscape:connector-curvature="0"
       sodipodi:nodetypes="aaaaaaaaaa" />
    <path
       style="fill:#55ddff;fill-opacity:0.9799;stroke:#000000;stroke-width:1.5875;stroke-linecap:round;stroke-linejoin:bevel;stroke-miterlimit:4;stroke-dasharray:none;stroke-dashoffset:0;stroke-opacity:1"
       d="m 157.52175,171.73169 c -1.37364,-0.64727 -2.495,-1.83664 -3.17774,-3.12219 -0.24257,-0.45674 -0.30241,-1.00107 -0.26165,-1.50924 0.17452,-2.17591 1.37954,-4.17105 2.13855,-6.2352 1.17518,-3.19593 0.11278,-9.51665 3.7384,-9.51753 3.48188,-8.6e-4 2.46513,6.06997 3.59549,9.13877 0.84189,2.28566 2.20136,4.49307 2.37235,6.90436 0.0297,0.41847 -0.005,0.87947 -0.23893,1.23825 -1.05445,1.62372 -2.86168,2.98987 -4.82572,3.4923 -1.08223,0.27684 -2.33924,0.0824 -3.34075,-0.38952 z"
       id="path1"
       inkscape:connector-curvature="0"
       sodipodi:nodetypes="aaaaaaaaaa" />
    <path
       sodipodi:nodetypes="cc"
       inkscape:connector-curvature="0"
       id="path1128-6-9-6"
       d="m 122.76996,149.56901 c 2.74034,11.25579 12.47486,6.89534 14.02506,0.87291"
       style="fill:#f9f9f9;fill-opacity:1;stroke:#000000;stroke-width:1.5875;stroke-linecap:round;stroke-linejoin:miter;stroke-miterlimit:4;stroke-dasharray:none;stroke-opacity:1" />
    <path
       sodipodi:nodetypes="cc"
       inkscape:connector-curvature="0"
       id="path2"
       d="m 166.06183,149.56901 c -2.74034,11.25579 -12.47486,6.89534 -14.02506,0.87291"
       style="fill:#f9f9f9;fill-opacity:1;stroke:#000000;stroke-width:1.5875;stroke-linecap:round;stroke-linejoin:miter;stroke-miterlimit:4;stroke-dasharray:none;stroke-opacity:1" />
  </g>
</svg>
