<?xml version="1.0" encoding="UTF-8" standalone="no"?>
<!-- Created with Inkscape (http://www.inkscape.org/) -->

<svg
   width="101.841mm"
   height="99.939682mm"
   viewBox="0 0 101.84099 99.939682"
   version="1.1"
   id="svg903"
   inkscape:version="1.3 (0e150ed6c4, 2023-07-21)"
   sodipodi:docname="chamallow_corps_bloque.svg"
   xmlns:inkscape="http://www.inkscape.org/namespaces/inkscape"
   xmlns:sodipodi="http://sodipodi.sourceforge.net/DTD/sodipodi-0.dtd"
   xmlns="http://www.w3.org/2000/svg"
   xmlns:svg="http://www.w3.org/2000/svg"
   xmlns:rdf="http://www.w3.org/1999/02/22-rdf-syntax-ns#"
   xmlns:cc="http://creativecommons.org/ns#"
   xmlns:dc="http://purl.org/dc/elements/1.1/">
  <defs
     id="defs897">
    <clipPath
       clipPathUnits="userSpaceOnUse"
       id="clipPath954">
      <rect
         style="fill:#ffffff;fill-opacity:1;stroke:#000000;stroke-width:0.366;stroke-linecap:round;stroke-linejoin:bevel;stroke-miterlimit:4;stroke-dasharray:none;stroke-dashoffset:0;stroke-opacity:1"
         id="rect956"
         width="36.474705"
         height="13.134672"
         x="248.23587"
         y="93.459831"
         rx="13.312986"
         ry="3.9706812" />
    </clipPath>
  </defs>
  <sodipodi:namedview
     id="base"
     pagecolor="#ffffff"
     bordercolor="#666666"
     borderopacity="1.0"
     inkscape:pageopacity="0.0"
     inkscape:pageshadow="2"
     inkscape:zoom="1.6020789"
     inkscape:cx="265.90451"
     inkscape:cy="252.48445"
     inkscape:document-units="mm"
     inkscape:current-layer="layer1"
     showgrid="false"
     inkscape:window-width="1920"
     inkscape:window-height="1080"
     inkscape:window-x="0"
     inkscape:window-y="0"
     inkscape:window-maximized="1"
     inkscape:showpageshadow="2"
     inkscape:pagecheckerboard="0"
     inkscape:deskcolor="#d1d1d1" />
  <metadata
     id="metadata900">
    <rdf:RDF>
      <cc:Work
         rdf:about="">
        <dc:format>image/svg+xml</dc:format>
        <dc:type
           rdf:resource="http://purl.org/dc/dcmitype/StillImage" />
        <dc:title />
      </cc:Work>
    </rdf:RDF>
  </metadata>
  <g
     inkscape:label="Calque 1"
     inkscape:groupmode="layer"
     id="layer1"
     transform="translate(-92.466955,-110.75213)">
    <path
       id="path24"
       style="fill:none;fill-opacity:1;stroke:#ffffff;stroke-width:5.82513;stroke-linejoin:bevel;stroke-miterlimit:10;stroke-dasharray:none;stroke-dashoffset:0;stroke-opacity:1"
       inkscape:transform-center-x="-0.88515969"
       inkscape:transform-center-y="-12.852372"
       d="m -28.070958,165.17747 c -8.496586,-1.6948 -18.707217,0.84482 -27.356436,7.63281 l -9.929551,7.7928 0.117235,-0.51588 c -9.964244,-1.39988 -19.046143,1.78204 -20.34289,7.12729 -0.631881,2.63087 0.745556,5.43559 3.818627,7.77544 -8.161679,10.48673 -9.754607,23.65839 -3.000457,32.51013 l 15.335629,20.09832 c 7.002864,9.1777 20.689265,10.711 33.11065,4.58728 1.889431,3.88504 4.576349,6.0876 7.389222,6.05722 5.435349,-0.0799 9.818956,-8.31717 9.818878,-18.45075 l -0.02348,-1.4e-4 9.2662727,-7.27225 C -1.0886045,225.63017 3.9127064,216.064 4.2985461,207.1858 c 0.234627,-3.4684 -0.0113,-8.31197 -2.9400683,-12.27236 L -16.84255,170.30136 c -3.078414,-4.16274 -8.54529,-4.48715 -11.228408,-5.12389 z m -44.15725,78.85013 -4.826555,-6.11808 c -3.405376,2.75863 -4.035678,7.71064 -1.411835,11.09214 2.623697,3.3814 7.5194,3.92699 10.966259,1.22211 z m -9.911458,-12.79793 -4.826248,-6.11768 c -3.405224,2.75851 -4.035649,7.71022 -1.412142,11.09175 2.623595,3.38173 7.519548,3.92751 10.966565,1.22251 z"
       transform="matrix(0.63339746,-0.77382663,0.80707181,0.59045329,0,0)"
       sodipodi:nodetypes="csccccssccccscssccccccccccc" />
    <path
       style="fill:#f9f9f9;fill-opacity:1;stroke:#000000;stroke-width:1.58867;stroke-linejoin:bevel;stroke-miterlimit:10;stroke-dasharray:none;stroke-dashoffset:0;stroke-opacity:1"
       id="path1130-0-2-3-1-3"
       sodipodi:type="arc"
       sodipodi:cx="-29.00713"
       sodipodi:cy="239.79234"
       sodipodi:rx="9.8969059"
       sodipodi:ry="18.451059"
       sodipodi:start="1.0962796e-14"
       sodipodi:end="3.1258055"
       d="m -19.110224,239.79234 a 9.8969059,18.451059 0 0 1 -9.818784,18.45049 9.8969059,18.451059 0 0 1 -9.973794,-18.15921 l 9.895672,-0.29128 z"
       transform="matrix(0.63339746,-0.77382663,0.80707181,0.59045329,0,0)"
       inkscape:transform-center-x="-0.88515969"
       inkscape:transform-center-y="-12.852372"
       sodipodi:arc-type="slice" />
    <path
       style="fill:#f9f9f9;fill-opacity:1;stroke:#000000;stroke-width:1.58867;stroke-linejoin:bevel;stroke-miterlimit:10;stroke-dasharray:none;stroke-dashoffset:0;stroke-opacity:1"
       id="path1130-0-2-0-6"
       sodipodi:type="arc"
       sodipodi:cx="196.1705"
       sodipodi:cy="18.160835"
       sodipodi:rx="9.8969059"
       sodipodi:ry="18.451059"
       sodipodi:start="1.0962796e-14"
       sodipodi:end="3.1258055"
       d="m 206.06741,18.160835 a 9.8969059,18.451059 0 0 1 -9.81879,18.450485 9.8969059,18.451059 0 0 1 -9.97379,-18.159207 l 9.89567,-0.291278 z"
       transform="matrix(0.63170706,0.77520719,-0.73976939,0.6728605,0,0)"
       inkscape:transform-center-x="-11.819262"
       inkscape:transform-center-y="2.599307"
       sodipodi:arc-type="slice" />
    <rect
       style="fill:#f9f9f9;fill-opacity:1;stroke:#000000;stroke-width:1.5875;stroke-linejoin:bevel;stroke-miterlimit:10;stroke-dasharray:none;stroke-dashoffset:0;stroke-opacity:1"
       id="rect829-0-2-7"
       width="77.047516"
       height="86.024605"
       x="104.36253"
       y="113.89654"
       ry="31.030914"
       rx="25.556574"
       clip-path="none" />
    <path
       style="fill:#ffd5d5;fill-opacity:1;stroke:#ffd5d5;stroke-width:0.240124;stroke-linejoin:bevel;stroke-miterlimit:10;stroke-dasharray:none;stroke-dashoffset:0;stroke-opacity:1"
       id="path1100-4-7"
       sodipodi:type="arc"
       sodipodi:cx="123.79018"
       sodipodi:cy="195.70415"
       sodipodi:rx="5.4729886"
       sodipodi:ry="2.3140404"
       sodipodi:start="0"
       sodipodi:end="6.2319075"
       d="m 129.26316,195.70415 a 5.4729886,2.3140404 0 0 1 -5.40282,2.31385 5.4729886,2.3140404 0 0 1 -5.54135,-2.25453 5.4729886,2.3140404 0 0 1 5.26076,-2.37165 5.4729886,2.3140404 0 0 1 5.67622,2.19372 l -5.46579,0.11861 z"
       transform="rotate(-14.533951)"
       sodipodi:arc-type="slice" />
    <path
       style="fill:#ffd5d5;fill-opacity:1;stroke:#ffd5d5;stroke-width:0.240124;stroke-linejoin:bevel;stroke-miterlimit:10;stroke-dasharray:none;stroke-dashoffset:0;stroke-opacity:1"
       id="path1100-2-7-0"
       sodipodi:type="arc"
       sodipodi:cx="178.93678"
       sodipodi:cy="89.374168"
       sodipodi:rx="5.4729886"
       sodipodi:ry="2.3140404"
       sodipodi:start="0"
       sodipodi:end="6.2319075"
       d="m 184.40977,89.374168 a 5.4729886,2.3140404 0 0 1 -5.40283,2.313851 5.4729886,2.3140404 0 0 1 -5.54135,-2.254528 5.4729886,2.3140404 0 0 1 5.26076,-2.371652 5.4729886,2.3140404 0 0 1 5.67623,2.193722 l -5.4658,0.118607 z"
       transform="rotate(26.011263)"
       sodipodi:arc-type="slice" />
    <path
       style="fill:none;stroke:#000000;stroke-width:1.5875;stroke-linecap:round;stroke-linejoin:miter;stroke-miterlimit:4;stroke-dasharray:none;stroke-opacity:1"
       d="m 150.90323,163.3501 c -7.00986,-4.61047 -7.61768,-3.23271 -13.27519,-0.67435"
       id="path1128-6-9"
       inkscape:connector-curvature="0"
       sodipodi:nodetypes="cc" />
    <path
       style="fill:#f9f9f9;fill-opacity:1;stroke:#000000;stroke-width:1.5875;stroke-linejoin:bevel;stroke-miterlimit:10;stroke-dasharray:none;stroke-dashoffset:0;stroke-opacity:1"
       id="path1130-5-3"
       sodipodi:type="arc"
       sodipodi:cx="134.59196"
       sodipodi:cy="200.09193"
       sodipodi:rx="7.9955683"
       sodipodi:ry="7.7649765"
       sodipodi:start="1.0962796e-14"
       sodipodi:end="3.1258055"
       d="m 142.58753,200.09193 a 7.9955683,7.7649765 0 0 1 -7.93245,7.76474 7.9955683,7.7649765 0 0 1 -8.05769,-7.64215 l 7.99457,-0.12259 z"
       sodipodi:arc-type="slice" />
    <path
       style="fill:#f9f9f9;fill-opacity:1;stroke:#000000;stroke-width:1.5875;stroke-linejoin:bevel;stroke-miterlimit:10;stroke-dasharray:none;stroke-dashoffset:0;stroke-opacity:1"
       id="path1130-0-6-6"
       sodipodi:type="arc"
       sodipodi:cx="151.19839"
       sodipodi:cy="199.97878"
       sodipodi:rx="7.9955683"
       sodipodi:ry="7.7649765"
       sodipodi:start="1.0962796e-14"
       sodipodi:end="3.1258055"
       d="m 159.19396,199.97878 a 7.9955683,7.7649765 0 0 1 -7.93245,7.76473 7.9955683,7.7649765 0 0 1 -8.05769,-7.64215 l 7.99457,-0.12258 z"
       sodipodi:arc-type="slice" />
    <path
       style="fill:#ececec;fill-opacity:0.9799;stroke:#ececec;stroke-width:0.117435;stroke-linecap:round;stroke-linejoin:bevel;stroke-miterlimit:4;stroke-dasharray:none;stroke-dashoffset:0;stroke-opacity:1"
       id="path1413-0"
       sodipodi:type="arc"
       sodipodi:cx="164.34386"
       sodipodi:cy="188.64124"
       sodipodi:rx="3.4875932"
       sodipodi:ry="3.4207532"
       sodipodi:start="1.0962797e-14"
       sodipodi:end="6.2563591"
       d="m 167.83145,188.64124 a 3.4875932,3.4207532 0 0 1 -3.4642,3.42067 3.4875932,3.4207532 0 0 1 -3.51067,-3.37479 3.4875932,3.4207532 0 0 1 3.41711,-3.46595 3.4875932,3.4207532 0 0 1 3.55651,3.32831 l -3.48634,0.0918 z"
       sodipodi:arc-type="slice" />
    <path
       style="fill:#ececec;fill-opacity:0.9799;stroke:#ececec;stroke-width:0.0474129;stroke-linecap:round;stroke-linejoin:bevel;stroke-miterlimit:4;stroke-dasharray:none;stroke-dashoffset:0;stroke-opacity:1"
       id="path1413-9-6"
       sodipodi:type="arc"
       sodipodi:cx="169.94167"
       sodipodi:cy="188.60081"
       sodipodi:rx="1.5035011"
       sodipodi:ry="1.2934349"
       sodipodi:start="1.0962797e-14"
       sodipodi:end="6.2563591"
       d="m 171.44517,188.60081 a 1.5035011,1.2934349 0 0 1 -1.49342,1.29341 1.5035011,1.2934349 0 0 1 -1.51345,-1.27606 1.5035011,1.2934349 0 0 1 1.47312,-1.31052 1.5035011,1.2934349 0 0 1 1.53321,1.25848 l -1.50296,0.0347 z"
       sodipodi:arc-type="slice" />
    <path
       style="fill:#ececec;fill-opacity:0.9799;stroke:#ececec;stroke-width:0.0188596;stroke-linecap:round;stroke-linejoin:bevel;stroke-miterlimit:4;stroke-dasharray:none;stroke-dashoffset:0;stroke-opacity:1"
       id="path1413-9-3-2"
       sodipodi:type="arc"
       sodipodi:cx="168.76233"
       sodipodi:cy="191.22665"
       sodipodi:rx="0.59805208"
       sodipodi:ry="0.51449341"
       sodipodi:start="1.0962797e-14"
       sodipodi:end="6.2563591"
       d="m 169.36038,191.22665 a 0.59805208,0.51449341 0 0 1 -0.59404,0.51449 0.59805208,0.51449341 0 0 1 -0.60201,-0.50759 0.59805208,0.51449341 0 0 1 0.58597,-0.52129 0.59805208,0.51449341 0 0 1 0.60987,0.50059 l -0.59784,0.0138 z"
       sodipodi:arc-type="slice" />
    <ellipse
       style="fill:#f9f9f9;fill-opacity:1;stroke:#000000;stroke-width:0.919353;stroke-linecap:round;stroke-linejoin:bevel;stroke-miterlimit:4;stroke-dasharray:none;stroke-dashoffset:0;stroke-opacity:1"
       id="path916-6"
       cx="266.6622"
       cy="104.61012"
       clip-path="url(#clipPath954)"
       transform="matrix(-1.7267575,0,0,-1.7267575,603.18292,301.23207)"
       ry="10.042572"
       rx="15.827884" />
    <path
       sodipodi:nodetypes="cc"
       inkscape:connector-curvature="0"
       id="path1128-6-9-6"
       d="m 121.9487,152.82116 c 7.1955,9.07893 14.21513,1.04779 13.10526,-5.07112"
       style="fill:#f9f9f9;fill-opacity:1;stroke:#000000;stroke-width:1.5875;stroke-linecap:round;stroke-linejoin:miter;stroke-miterlimit:4;stroke-dasharray:none;stroke-opacity:1" />
    <path
       sodipodi:nodetypes="cc"
       inkscape:connector-curvature="0"
       id="path2"
       d="m 166.86371,153.5911 c -8.05281,8.32794 -14.2493,-0.3541 -12.54354,-6.33433"
       style="fill:#f9f9f9;fill-opacity:1;stroke:#000000;stroke-width:1.5875;stroke-linecap:round;stroke-linejoin:miter;stroke-miterlimit:4;stroke-dasharray:none;stroke-opacity:1" />
  </g>
</svg>
