<?xml version="1.0" encoding="UTF-8" standalone="no"?>
<!-- Created with Inkscape (http://www.inkscape.org/) -->

<svg
   width="127.0234mm"
   height="115.94812mm"
   viewBox="0 0 127.0234 115.94811"
   version="1.1"
   id="svg1"
   inkscape:version="1.3 (0e150ed6c4, 2023-07-21)"
   sodipodi:docname="chamallow_corps_phase_2_normal.svg"
   xmlns:inkscape="http://www.inkscape.org/namespaces/inkscape"
   xmlns:sodipodi="http://sodipodi.sourceforge.net/DTD/sodipodi-0.dtd"
   xmlns="http://www.w3.org/2000/svg"
   xmlns:svg="http://www.w3.org/2000/svg"
   xmlns:rdf="http://www.w3.org/1999/02/22-rdf-syntax-ns#"
   xmlns:cc="http://creativecommons.org/ns#"
   xmlns:dc="http://purl.org/dc/elements/1.1/">
  <metadata
     id="metadata26">
    <rdf:RDF>
      <cc:Work
         rdf:about="">
        <dc:format>image/svg+xml</dc:format>
        <dc:type
           rdf:resource="http://purl.org/dc/dcmitype/StillImage" />
      </cc:Work>
    </rdf:RDF>
  </metadata>
  <sodipodi:namedview
     id="namedview1"
     pagecolor="#ffffff"
     bordercolor="#666666"
     borderopacity="1.0"
     inkscape:showpageshadow="2"
     inkscape:pageopacity="0.0"
     inkscape:pagecheckerboard="0"
     inkscape:deskcolor="#d1d1d1"
     inkscape:document-units="mm"
     inkscape:zoom="2.2443953"
     inkscape:cx="198.27167"
     inkscape:cy="201.61333"
     inkscape:window-width="1916"
     inkscape:window-height="1037"
     inkscape:window-x="0"
     inkscape:window-y="0"
     inkscape:window-maximized="1"
     inkscape:current-layer="layer1"
     showgrid="false" />
  <defs
     id="defs1">
    <clipPath
       clipPathUnits="userSpaceOnUse"
       id="clipPath954">
      <rect
         style="fill:#ffffff;fill-opacity:1;stroke:#000000;stroke-width:0.366;stroke-linecap:round;stroke-linejoin:bevel;stroke-miterlimit:4;stroke-dasharray:none;stroke-dashoffset:0;stroke-opacity:1"
         id="rect956"
         width="36.474705"
         height="13.134672"
         x="248.23587"
         y="93.459831"
         rx="13.312986"
         ry="3.9706812" />
    </clipPath>
  </defs>
  <g
     inkscape:label="Layer 1"
     inkscape:groupmode="layer"
     id="layer1"
     transform="translate(-48.256971,-64.09997)">
    <path
       id="path44"
       style="fill:none;fill-opacity:1;stroke:#e5e5e5;stroke-width:5.82083;stroke-linejoin:bevel;stroke-miterlimit:10;stroke-dasharray:none;stroke-dashoffset:0;stroke-opacity:1"
       d="m 125.81304,18.45355 c -1.79389,0.710517 -3.5373,1.541901 -5.19133,2.517571 -9.55475,5.636093 -21.730064,10.681786 -25.823789,20.991986 -1.591134,4.007332 -1.668237,8.622732 -0.747113,13.076788 l -0.351229,-0.318483 a 9.8764435,18.462021 39.506425 0 0 -4.66494,20.667245 9.8764435,18.462021 39.506425 0 0 16.902991,-4.849801 c 0.88906,0.590836 1.68794,1.267467 2.29046,2.128868 1.69552,2.42406 1.44156,5.75784 2.55178,8.499785 4.70995,11.63232 7.44463,25.678351 17.31201,33.432671 2.91555,2.2912 5.82276,4.66252 9.03478,6.39715 a 7.9955683,7.7649765 0 0 0 3.46121,7.03905 7.9955683,7.7649765 0 0 0 8.23693,0.44229 7.9955683,7.7649765 0 0 0 4.18841,-5.91361 c 1.00528,-0.30765 2.0325,-0.6633 3.11043,-1.13131 l 23.78893,-10.32843 c 2.24239,-0.97358 4.09177,-2.0495 5.6618,-3.20126 a 7.7649765,7.9955683 32.980362 0 0 7.52525,-0.17829 7.7649765,7.9955683 32.980362 0 0 4.07586,-7.08894 7.7649765,7.9955683 32.980362 0 0 -3.35385,-6.375249 c 0.49545,-2.25197 0.84213,-4.574693 1.2576,-6.922216 1.49366,-8.439644 -2.74109,-17.009255 -5.55316,-25.105605 -1.59208,-4.583816 -6.33092,-8.249868 -6.34381,-13.102284 -0.008,-3.002217 2.9998,-5.344649 4.4277,-8.018588 a 9.8764434,18.462021 83.171905 0 0 13.06308,-10.912049 9.8764434,18.462021 83.171905 0 0 -17.03399,-8.140941 c -2.67058,-4.732762 -6.38225,-8.75339 -10.93744,-10.997447 -12.49025,-6.1531589 -27.93434,2.034747 -41.39397,5.5993 -1.85636,0.491624 -3.70072,1.081281 -5.4946,1.791799 z"
       transform="rotate(23.469021)" />
    <path
       d="m 153.07978,121.61555 a 7.9955683,7.7649765 0 0 1 -4.25531,6.86298 7.9955683,7.7649765 0 0 1 -8.2365,-0.44209 7.9955683,7.7649765 0 0 1 -3.45063,-7.27659 l 7.94687,0.8557 z"
       sodipodi:end="3.252017"
       sodipodi:start="1.0962796e-14"
       sodipodi:ry="7.7649765"
       sodipodi:rx="7.9955683"
       sodipodi:cy="121.61555"
       sodipodi:cx="145.08421"
       sodipodi:type="arc"
       id="path1130-5-3"
       style="fill:#f9f9f9;fill-opacity:1;stroke:#000000;stroke-width:1.5875;stroke-linejoin:bevel;stroke-miterlimit:10;stroke-dasharray:none;stroke-dashoffset:0;stroke-opacity:1"
       sodipodi:arc-type="slice"
       transform="rotate(23.469021)" />
    <path
       d="m 26.409315,213.0046 a 7.9955683,7.7649765 0 0 1 -3.496402,7.17942 7.9955683,7.7649765 0 0 1 -8.165204,0.4398 7.9955683,7.7649765 0 0 1 -4.292463,-6.75989 l 7.994572,-0.12258 z"
       sodipodi:end="3.1258055"
       sodipodi:start="6.1881619"
       sodipodi:ry="7.7649765"
       sodipodi:rx="7.9955683"
       sodipodi:cy="213.74135"
       sodipodi:cx="18.449818"
       sodipodi:type="arc"
       id="path1130-0-6-6"
       style="fill:#f9f9f9;fill-opacity:1;stroke:#000000;stroke-width:1.5875;stroke-linejoin:bevel;stroke-miterlimit:10;stroke-dasharray:none;stroke-dashoffset:0;stroke-opacity:1"
       sodipodi:arc-type="slice"
       transform="rotate(-33.550617)" />
    <path
       inkscape:transform-center-y="-12.777261"
       inkscape:transform-center-x="1.5670991"
       transform="matrix(0.35842917,-0.93355692,0.95163886,0.30721895,0,0)"
       d="m -39.815359,181.03188 a 9.8969059,18.451059 0 0 1 -9.818785,18.45048 9.8969059,18.451059 0 0 1 -9.973794,-18.15921 l 9.895673,-0.29127 z"
       sodipodi:end="3.1258055"
       sodipodi:start="1.0962796e-14"
       sodipodi:ry="18.451059"
       sodipodi:rx="9.8969059"
       sodipodi:cy="181.03188"
       sodipodi:cx="-49.712265"
       sodipodi:type="arc"
       id="path1130-0-2-3-1-3"
       style="fill:#f9f9f9;fill-opacity:1;stroke:#000000;stroke-width:1.58867;stroke-linejoin:bevel;stroke-miterlimit:10;stroke-dasharray:none;stroke-dashoffset:0;stroke-opacity:1"
       sodipodi:arc-type="slice" />
    <path
       inkscape:transform-center-y="5.2599242"
       inkscape:transform-center-x="-9.1874387"
       transform="matrix(0.38528966,0.92279569,-0.90051793,0.43481888,0,0)"
       d="m 126.65116,-25.814463 a 9.8969059,18.451059 0 0 1 -9.81878,18.4504849 9.8969059,18.451059 0 0 1 -9.9738,-18.1592069 l 9.89568,-0.291278 z"
       sodipodi:end="3.1258055"
       sodipodi:start="1.0962796e-14"
       sodipodi:ry="18.451059"
       sodipodi:rx="9.8969059"
       sodipodi:cy="-25.814463"
       sodipodi:cx="116.75426"
       sodipodi:type="arc"
       id="path1130-0-2-0-6"
       style="fill:#f9f9f9;fill-opacity:1;stroke:#000000;stroke-width:1.58867;stroke-linejoin:bevel;stroke-miterlimit:10;stroke-dasharray:none;stroke-dashoffset:0;stroke-opacity:1"
       sodipodi:arc-type="slice" />
    <path
       id="rect829-0-2-7"
       clip-path="none"
       style="fill:#f9f9f9;fill-opacity:1;stroke:#000000;stroke-width:1.5875;stroke-linejoin:bevel;stroke-miterlimit:10;stroke-dasharray:none;stroke-dashoffset:0;stroke-opacity:1"
       d="m 102.29154,67.274442 c -11.008943,1.364641 -24.186503,1.144065 -32.047655,8.971028 -5.469323,5.445537 -7.270816,14.607954 -6.338631,22.269442 0.521462,4.285818 5.568674,7.013038 6.429582,11.243758 0.589872,2.89878 -0.97077,5.85563 -1.044381,8.8129 -0.312283,12.54581 -3.397878,26.51905 2.565053,37.56162 4.569752,8.46259 8.833199,17.43192 22.991526,17.43192 h 25.934336 c 14.15833,0 18.18899,-7.92378 23.37662,-15.75985 4.73122,-7.14663 4.26007,-16.69373 4.90502,-25.24024 0.36514,-4.83868 -2.5217,-10.08876 -0.60103,-14.5449 1.57986,-3.66542 7.58633,-4.13736 9.03704,-7.85579 3.80811,-9.76085 3.28758,-23.247626 -3.48971,-31.237886 -9.00649,-10.618432 -26.43381,-9.258512 -40.19961,-11.349178 -3.79717,-0.576691 -7.70662,-0.775293 -11.51816,-0.302824 z"
       sodipodi:nodetypes="aaaaaassaaaaaaa" />
    <g
       id="g43"
       transform="translate(7.8676706,-6.7274821)">
      <rect
         style="fill:#000000;fill-opacity:1;stroke:#000000;stroke-width:0.556075;stroke-linejoin:bevel;stroke-miterlimit:10;stroke-dasharray:none;stroke-dashoffset:0;stroke-opacity:0.743719"
         id="rect829-0-9-0-3-3"
         width="13.302198"
         height="11.982267"
         x="117.20148"
         y="106.62452"
         ry="5.9911337"
         rx="6.6510992" />
      <rect
         style="fill:#ffffff;fill-opacity:1;stroke:#ffffff;stroke-width:0.298163;stroke-linejoin:bevel;stroke-miterlimit:10;stroke-dasharray:none;stroke-dashoffset:0;stroke-opacity:0.743719"
         id="rect829-0-9-3-62-2-5"
         width="7.1325269"
         height="6.4247913"
         x="118.47552"
         y="107.76129"
         ry="3.2123957"
         rx="3.5662634" />
      <rect
         style="fill:#ffffff;fill-opacity:1;stroke:#ffffff;stroke-width:0.131112;stroke-linejoin:bevel;stroke-miterlimit:10;stroke-dasharray:none;stroke-dashoffset:0;stroke-opacity:0.743719"
         id="rect829-0-9-3-6-6-0-6"
         width="3.1364043"
         height="2.8251898"
         x="125.60805"
         y="114.18608"
         ry="1.4125949"
         rx="1.5682021" />
    </g>
    <g
       id="g44"
       transform="translate(-5.5314748,-9.8398173)">
      <rect
         style="fill:#000000;fill-opacity:1;stroke:#000000;stroke-width:0.556075;stroke-linejoin:bevel;stroke-miterlimit:10;stroke-dasharray:none;stroke-dashoffset:0;stroke-opacity:0.743719"
         id="rect829-0-9-0-8-1-9"
         width="13.302198"
         height="11.982267"
         x="88.372513"
         y="106.88875"
         ry="5.9911337"
         rx="6.6510992" />
      <rect
         style="fill:#ffffff;fill-opacity:1;stroke:#ffffff;stroke-width:0.298163;stroke-linejoin:bevel;stroke-miterlimit:10;stroke-dasharray:none;stroke-dashoffset:0;stroke-opacity:0.743719"
         id="rect829-0-9-3-62-7-5-1"
         width="7.1325269"
         height="6.4247913"
         x="89.646538"
         y="108.02552"
         ry="3.2123957"
         rx="3.5662634" />
      <rect
         style="fill:#ffffff;fill-opacity:1;stroke:#ffffff;stroke-width:0.131112;stroke-linejoin:bevel;stroke-miterlimit:10;stroke-dasharray:none;stroke-dashoffset:0;stroke-opacity:0.743719"
         id="rect829-0-9-3-6-6-9-5-2"
         width="3.1364043"
         height="2.8251898"
         x="96.779068"
         y="114.45031"
         ry="1.4125949"
         rx="1.5682021" />
    </g>
    <path
       transform="rotate(22.087708)"
       d="m 165.8518,61.342022 a 5.4729886,2.3140404 0 0 1 -5.40283,2.31385 5.4729886,2.3140404 0 0 1 -5.54135,-2.254527 5.4729886,2.3140404 0 0 1 5.26076,-2.371652 5.4729886,2.3140404 0 0 1 5.67623,2.193722 l -5.4658,0.118607 z"
       sodipodi:end="6.2319075"
       sodipodi:start="0"
       sodipodi:ry="2.3140404"
       sodipodi:rx="5.4729886"
       sodipodi:cy="61.342022"
       sodipodi:cx="160.37881"
       sodipodi:type="arc"
       id="path1100-4-7"
       style="fill:#ffd5d5;fill-opacity:1;stroke:#ffd5d5;stroke-width:0.240124;stroke-linejoin:bevel;stroke-miterlimit:10;stroke-dasharray:none;stroke-dashoffset:0;stroke-opacity:1"
       sodipodi:arc-type="slice" />
    <path
       transform="rotate(-12.346642)"
       d="m 68.637028,133.75723 a 5.4729886,2.3140404 0 0 1 -5.40283,2.31385 5.4729886,2.3140404 0 0 1 -5.541348,-2.25452 5.4729886,2.3140404 0 0 1 5.260759,-2.37166 5.4729886,2.3140404 0 0 1 5.676225,2.19373 l -5.465794,0.1186 z"
       sodipodi:end="6.2319075"
       sodipodi:start="0"
       sodipodi:ry="2.3140404"
       sodipodi:rx="5.4729886"
       sodipodi:cy="133.75723"
       sodipodi:cx="63.16404"
       sodipodi:type="arc"
       id="path1100-2-7-0"
       style="fill:#ffd5d5;fill-opacity:1;stroke:#ffd5d5;stroke-width:0.240124;stroke-linejoin:bevel;stroke-miterlimit:10;stroke-dasharray:none;stroke-dashoffset:0;stroke-opacity:1"
       sodipodi:arc-type="slice" />
    <path
       sodipodi:nodetypes="cc"
       inkscape:connector-curvature="0"
       id="path1128-6-9"
       d="m 103.18788,108.66683 c 7.36392,4.02087 7.85686,2.59795 13.28582,-0.41518"
       style="fill:none;stroke:#000000;stroke-width:1.5875;stroke-linecap:round;stroke-linejoin:miter;stroke-miterlimit:4;stroke-dasharray:none;stroke-opacity:1" />
    <path
       d="m 132.75958,162.28522 a 3.4875932,3.4207532 0 0 1 -3.4642,3.42067 3.4875932,3.4207532 0 0 1 -3.51067,-3.37479 3.4875932,3.4207532 0 0 1 3.41711,-3.46594 3.4875932,3.4207532 0 0 1 3.55651,3.3283 l -3.48634,0.0918 z"
       sodipodi:end="6.2563591"
       sodipodi:start="1.0962797e-14"
       sodipodi:ry="3.4207532"
       sodipodi:rx="3.4875932"
       sodipodi:cy="162.28522"
       sodipodi:cx="129.27199"
       sodipodi:type="arc"
       id="path1413-0"
       style="fill:#ececec;fill-opacity:0.9799;stroke:#ececec;stroke-width:0.117435;stroke-linecap:round;stroke-linejoin:bevel;stroke-miterlimit:4;stroke-dasharray:none;stroke-dashoffset:0;stroke-opacity:1"
       sodipodi:arc-type="slice" />
    <path
       d="m 136.3733,162.2448 a 1.5035011,1.2934349 0 0 1 -1.49342,1.2934 1.5035011,1.2934349 0 0 1 -1.51345,-1.27605 1.5035011,1.2934349 0 0 1 1.47312,-1.31053 1.5035011,1.2934349 0 0 1 1.53321,1.25848 l -1.50296,0.0347 z"
       sodipodi:end="6.2563591"
       sodipodi:start="1.0962797e-14"
       sodipodi:ry="1.2934349"
       sodipodi:rx="1.5035011"
       sodipodi:cy="162.2448"
       sodipodi:cx="134.8698"
       sodipodi:type="arc"
       id="path1413-9-6"
       style="fill:#ececec;fill-opacity:0.9799;stroke:#ececec;stroke-width:0.0474129;stroke-linecap:round;stroke-linejoin:bevel;stroke-miterlimit:4;stroke-dasharray:none;stroke-dashoffset:0;stroke-opacity:1"
       sodipodi:arc-type="slice" />
    <path
       d="m 134.28851,164.87062 a 0.59805208,0.51449341 0 0 1 -0.59404,0.51448 0.59805208,0.51449341 0 0 1 -0.60201,-0.50758 0.59805208,0.51449341 0 0 1 0.58597,-0.52129 0.59805208,0.51449341 0 0 1 0.60987,0.50059 l -0.59784,0.0138 z"
       sodipodi:end="6.2563591"
       sodipodi:start="1.0962797e-14"
       sodipodi:ry="0.51449341"
       sodipodi:rx="0.59805208"
       sodipodi:cy="164.87062"
       sodipodi:cx="133.69046"
       sodipodi:type="arc"
       id="path1413-9-3-2"
       style="fill:#ececec;fill-opacity:0.9799;stroke:#ececec;stroke-width:0.0188596;stroke-linecap:round;stroke-linejoin:bevel;stroke-miterlimit:4;stroke-dasharray:none;stroke-dashoffset:0;stroke-opacity:1"
       sodipodi:arc-type="slice" />
    <path
       style="fill:none;fill-opacity:1;stroke:#1a1a1a;stroke-width:1.5875;stroke-linecap:round;stroke-linejoin:round;stroke-dasharray:none;stroke-opacity:1"
       d="m 83.103949,79.713762 c -1.136886,3.324548 2.596375,6.900277 5.350863,9.081544 6.833613,5.411509 16.286538,7.032848 24.973118,7.758073 8.4745,0.707518 17.66717,0.363562 25.28114,-3.423941 2.71573,-1.350914 6.58949,-3.426701 6.41381,-6.454781 -0.30857,-5.318674 -7.59563,-7.880157 -12.50108,-9.958637 -9.80923,-4.156252 -21.12525,-5.438214 -31.69523,-4.107472 -6.34548,0.798884 -15.753202,1.0537 -17.822621,7.105214 z"
       id="path43"
       sodipodi:nodetypes="aaaaaaaa" />
  </g>
</svg>
