<?xml version="1.0" encoding="UTF-8" standalone="no"?>
<!-- Created with Inkscape (http://www.inkscape.org/) -->

<svg
   xmlns:dc="http://purl.org/dc/elements/1.1/"
   xmlns:cc="http://creativecommons.org/ns#"
   xmlns:rdf="http://www.w3.org/1999/02/22-rdf-syntax-ns#"
   xmlns:svg="http://www.w3.org/2000/svg"
   xmlns="http://www.w3.org/2000/svg"
   xmlns:sodipodi="http://sodipodi.sourceforge.net/DTD/sodipodi-0.dtd"
   xmlns:inkscape="http://www.inkscape.org/namespaces/inkscape"
   width="104.17513mm"
   height="95.106377mm"
   viewBox="0 0 104.17513 95.106377"
   version="1.1"
   id="svg883"
   inkscape:version="0.92.3 (2405546, 2018-03-11)"
   sodipodi:docname="Chamallow_corps_normal.svg">
  <defs
     id="defs877">
    <clipPath
       clipPathUnits="userSpaceOnUse"
       id="clipPath954">
      <rect
         style="fill:#ffffff;fill-opacity:1;stroke:#000000;stroke-width:0.366;stroke-linecap:round;stroke-linejoin:bevel;stroke-miterlimit:4;stroke-dasharray:none;stroke-dashoffset:0;stroke-opacity:1"
         id="rect956"
         width="36.474705"
         height="13.134672"
         x="248.23587"
         y="93.459831"
         rx="13.312986"
         ry="3.9706812" />
    </clipPath>
  </defs>
  <sodipodi:namedview
     id="base"
     pagecolor="#ffffff"
     bordercolor="#666666"
     borderopacity="1.0"
     inkscape:pageopacity="0.0"
     inkscape:pageshadow="2"
     inkscape:zoom="0.49497475"
     inkscape:cx="68.939651"
     inkscape:cy="246.69973"
     inkscape:document-units="mm"
     inkscape:current-layer="layer1"
     showgrid="false"
     inkscape:window-width="1853"
     inkscape:window-height="1025"
     inkscape:window-x="67"
     inkscape:window-y="27"
     inkscape:window-maximized="1" />
  <metadata
     id="metadata880">
    <rdf:RDF>
      <cc:Work
         rdf:about="">
        <dc:format>image/svg+xml</dc:format>
        <dc:type
           rdf:resource="http://purl.org/dc/dcmitype/StillImage" />
        <dc:title></dc:title>
      </cc:Work>
    </rdf:RDF>
  </metadata>
  <g
     inkscape:label="Calque 1"
     inkscape:groupmode="layer"
     id="layer1"
     transform="translate(-72.460041,-93.361408)">
    <path
       style="fill:#f9f9f9;fill-opacity:1;stroke:#000000;stroke-width:1.33361721;stroke-linejoin:bevel;stroke-miterlimit:10;stroke-dasharray:none;stroke-dashoffset:0;stroke-opacity:1"
       id="path1130-0-2-3-1-3"
       sodipodi:type="arc"
       sodipodi:cx="-86.640694"
       sodipodi:cy="198.70299"
       sodipodi:rx="9.8969059"
       sodipodi:ry="18.451059"
       sodipodi:start="1.0962796e-14"
       sodipodi:end="3.1258055"
       d="m -76.743788,198.70299 a 9.8969059,18.451059 0 0 1 -9.818784,18.45048 9.8969059,18.451059 0 0 1 -9.973794,-18.1592 l 9.895672,-0.29128 z"
       transform="matrix(0.35842917,-0.93355692,0.95163886,0.30721895,0,0)"
       inkscape:transform-center-x="1.5670991"
       inkscape:transform-center-y="-12.777261" />
    <path
       style="fill:#f9f9f9;fill-opacity:1;stroke:#000000;stroke-width:1.33361721;stroke-linejoin:bevel;stroke-miterlimit:10;stroke-dasharray:none;stroke-dashoffset:0;stroke-opacity:1"
       id="path1130-0-2-0-6"
       sodipodi:type="arc"
       sodipodi:cx="103.97706"
       sodipodi:cy="-134.84599"
       sodipodi:rx="9.8969059"
       sodipodi:ry="18.451059"
       sodipodi:start="1.0962796e-14"
       sodipodi:end="3.1258055"
       d="m 113.87396,-134.84599 a 9.8969059,18.451059 0 0 1 -9.81878,18.45048 9.8969059,18.451059 0 0 1 -9.973794,-18.15921 l 9.895674,-0.29127 z"
       transform="matrix(-0.35842917,0.93355692,-0.95163886,-0.30721895,0,0)"
       inkscape:transform-center-x="-1.5670583"
       inkscape:transform-center-y="12.777234" />
    <rect
       style="fill:#f9f9f9;fill-opacity:1;stroke:#000000;stroke-width:1.51436627;stroke-linejoin:bevel;stroke-miterlimit:10;stroke-dasharray:none;stroke-dashoffset:0;stroke-opacity:1"
       id="rect829-0-2-7"
       width="77.047516"
       height="86.024605"
       x="86.188202"
       y="94.118591"
       ry="31.030914"
       rx="25.556574"
       clip-path="none" />
    <g
       id="g1072-6-5"
       transform="matrix(0.8134952,0,0,0.8134952,-69.567432,25.176924)">
      <rect
         rx="8.1759539"
         ry="7.3646822"
         y="108.20675"
         x="250.35976"
         height="14.729364"
         width="16.351908"
         id="rect829-0-9-0-3-3"
         style="fill:#000000;fill-opacity:1;stroke:#000000;stroke-width:0.68356287;stroke-linejoin:bevel;stroke-miterlimit:10;stroke-dasharray:none;stroke-dashoffset:0;stroke-opacity:0.74371858" />
      <rect
         rx="4.3838778"
         ry="3.9488809"
         y="109.60415"
         x="251.92587"
         height="7.8977618"
         width="8.7677555"
         id="rect829-0-9-3-62-2-5"
         style="fill:#ffffff;fill-opacity:1;stroke:#ffffff;stroke-width:0.3665207;stroke-linejoin:bevel;stroke-miterlimit:10;stroke-dasharray:none;stroke-dashoffset:0;stroke-opacity:0.74371858" />
      <rect
         rx="1.9277338"
         ry="1.7364515"
         y="117.50191"
         x="260.69363"
         height="3.472903"
         width="3.8554676"
         id="rect829-0-9-3-6-6-0-6"
         style="fill:#ffffff;fill-opacity:1;stroke:#ffffff;stroke-width:0.16117109;stroke-linejoin:bevel;stroke-miterlimit:10;stroke-dasharray:none;stroke-dashoffset:0;stroke-opacity:0.74371858" />
    </g>
    <g
       id="g1072-1-6-2"
       transform="matrix(0.8134952,0,0,0.8134952,-98.396413,25.441153)">
      <rect
         rx="8.1759539"
         ry="7.3646822"
         y="108.20675"
         x="250.35976"
         height="14.729364"
         width="16.351908"
         id="rect829-0-9-0-8-1-9"
         style="fill:#000000;fill-opacity:1;stroke:#000000;stroke-width:0.68356287;stroke-linejoin:bevel;stroke-miterlimit:10;stroke-dasharray:none;stroke-dashoffset:0;stroke-opacity:0.74371858" />
      <rect
         rx="4.3838778"
         ry="3.9488809"
         y="109.60415"
         x="251.92587"
         height="7.8977618"
         width="8.7677555"
         id="rect829-0-9-3-62-7-5-1"
         style="fill:#ffffff;fill-opacity:1;stroke:#ffffff;stroke-width:0.3665207;stroke-linejoin:bevel;stroke-miterlimit:10;stroke-dasharray:none;stroke-dashoffset:0;stroke-opacity:0.74371858" />
      <rect
         rx="1.9277338"
         ry="1.7364515"
         y="117.50191"
         x="260.69363"
         height="3.472903"
         width="3.8554676"
         id="rect829-0-9-3-6-6-9-5-2"
         style="fill:#ffffff;fill-opacity:1;stroke:#ffffff;stroke-width:0.16117109;stroke-linejoin:bevel;stroke-miterlimit:10;stroke-dasharray:none;stroke-dashoffset:0;stroke-opacity:0.74371858" />
    </g>
    <path
       style="fill:#ffd5d5;fill-opacity:1;stroke:#ffd5d5;stroke-width:0.24012437;stroke-linejoin:bevel;stroke-miterlimit:10;stroke-dasharray:none;stroke-dashoffset:0;stroke-opacity:1"
       id="path1100-4-7"
       sodipodi:type="arc"
       sodipodi:cx="113.87743"
       sodipodi:cy="161.51933"
       sodipodi:rx="5.4729886"
       sodipodi:ry="2.3140404"
       sodipodi:start="0"
       sodipodi:end="6.2319075"
       d="m 119.35042,161.51933 a 5.4729886,2.3140404 0 0 1 -5.40283,2.31385 5.4729886,2.3140404 0 0 1 -5.54135,-2.25452 5.4729886,2.3140404 0 0 1 5.26076,-2.37166 5.4729886,2.3140404 0 0 1 5.67623,2.19373 l -5.4658,0.1186 z"
       transform="rotate(-14.533951)" />
    <path
       style="fill:#ffd5d5;fill-opacity:1;stroke:#ffd5d5;stroke-width:0.24012437;stroke-linejoin:bevel;stroke-miterlimit:10;stroke-dasharray:none;stroke-dashoffset:0;stroke-opacity:1"
       id="path1100-2-7-0"
       sodipodi:type="arc"
       sodipodi:cx="149.18239"
       sodipodi:cy="69.84111"
       sodipodi:rx="5.4729886"
       sodipodi:ry="2.3140404"
       sodipodi:start="0"
       sodipodi:end="6.2319075"
       d="m 154.65538,69.84111 a 5.4729886,2.3140404 0 0 1 -5.40283,2.313851 5.4729886,2.3140404 0 0 1 -5.54135,-2.254528 5.4729886,2.3140404 0 0 1 5.26076,-2.371652 5.4729886,2.3140404 0 0 1 5.67622,2.193722 l -5.46579,0.118607 z"
       transform="rotate(26.011263)" />
    <path
       style="fill:none;stroke:#000000;stroke-width:0.99979252;stroke-linecap:round;stroke-linejoin:miter;stroke-miterlimit:4;stroke-dasharray:none;stroke-opacity:1"
       d="m 119.54961,130.1504 c 7.36392,4.02086 7.85686,2.59795 13.28582,-0.41518"
       id="path1128-6-9"
       inkscape:connector-curvature="0"
       sodipodi:nodetypes="cc" />
    <path
       style="fill:#f9f9f9;fill-opacity:1;stroke:#000000;stroke-width:0.77761662;stroke-linejoin:bevel;stroke-miterlimit:10;stroke-dasharray:none;stroke-dashoffset:0;stroke-opacity:1"
       id="path1130-5-3"
       sodipodi:type="arc"
       sodipodi:cx="116.41763"
       sodipodi:cy="180.314"
       sodipodi:rx="7.9955683"
       sodipodi:ry="7.7649765"
       sodipodi:start="1.0962796e-14"
       sodipodi:end="3.1258055"
       d="m 124.4132,180.314 a 7.9955683,7.7649765 0 0 1 -7.93245,7.76473 7.9955683,7.7649765 0 0 1 -8.05769,-7.64215 l 7.99457,-0.12258 z" />
    <path
       style="fill:#f9f9f9;fill-opacity:1;stroke:#000000;stroke-width:0.77761662;stroke-linejoin:bevel;stroke-miterlimit:10;stroke-dasharray:none;stroke-dashoffset:0;stroke-opacity:1"
       id="path1130-0-6-6"
       sodipodi:type="arc"
       sodipodi:cx="133.02408"
       sodipodi:cy="180.20084"
       sodipodi:rx="7.9955683"
       sodipodi:ry="7.7649765"
       sodipodi:start="1.0962796e-14"
       sodipodi:end="3.1258055"
       d="m 141.01965,180.20084 a 7.9955683,7.7649765 0 0 1 -7.93246,7.76473 7.9955683,7.7649765 0 0 1 -8.05768,-7.64215 l 7.99457,-0.12258 z" />
    <path
       style="fill:#ececec;fill-opacity:0.97989951;stroke:#ececec;stroke-width:0.1174347;stroke-linecap:round;stroke-linejoin:bevel;stroke-miterlimit:4;stroke-dasharray:none;stroke-dashoffset:0;stroke-opacity:1"
       id="path1413-0"
       sodipodi:type="arc"
       sodipodi:cx="146.16953"
       sodipodi:cy="168.8633"
       sodipodi:rx="3.4875932"
       sodipodi:ry="3.4207532"
       sodipodi:start="1.0962797e-14"
       sodipodi:end="6.2563591"
       d="m 149.65712,168.8633 a 3.4875932,3.4207532 0 0 1 -3.46421,3.42067 3.4875932,3.4207532 0 0 1 -3.51066,-3.37479 3.4875932,3.4207532 0 0 1 3.41711,-3.46594 3.4875932,3.4207532 0 0 1 3.5565,3.3283 l -3.48633,0.0918 z" />
    <path
       style="fill:#ececec;fill-opacity:0.97989951;stroke:#ececec;stroke-width:0.04741292;stroke-linecap:round;stroke-linejoin:bevel;stroke-miterlimit:4;stroke-dasharray:none;stroke-dashoffset:0;stroke-opacity:1"
       id="path1413-9-6"
       sodipodi:type="arc"
       sodipodi:cx="151.76733"
       sodipodi:cy="168.82288"
       sodipodi:rx="1.5035011"
       sodipodi:ry="1.2934349"
       sodipodi:start="1.0962797e-14"
       sodipodi:end="6.2563591"
       d="m 153.27084,168.82288 a 1.5035011,1.2934349 0 0 1 -1.49342,1.2934 1.5035011,1.2934349 0 0 1 -1.51345,-1.27606 1.5035011,1.2934349 0 0 1 1.47312,-1.31052 1.5035011,1.2934349 0 0 1 1.5332,1.25848 l -1.50296,0.0347 z" />
    <path
       style="fill:#ececec;fill-opacity:0.97989951;stroke:#ececec;stroke-width:0.01885958;stroke-linecap:round;stroke-linejoin:bevel;stroke-miterlimit:4;stroke-dasharray:none;stroke-dashoffset:0;stroke-opacity:1"
       id="path1413-9-3-2"
       sodipodi:type="arc"
       sodipodi:cx="150.58801"
       sodipodi:cy="171.4487"
       sodipodi:rx="0.59805208"
       sodipodi:ry="0.51449341"
       sodipodi:start="1.0962797e-14"
       sodipodi:end="6.2563591"
       d="m 151.18606,171.4487 a 0.59805208,0.51449341 0 0 1 -0.59404,0.51448 0.59805208,0.51449341 0 0 1 -0.60201,-0.50758 0.59805208,0.51449341 0 0 1 0.58597,-0.52129 0.59805208,0.51449341 0 0 1 0.60987,0.50059 l -0.59784,0.0138 z" />
    <ellipse
       style="fill:#ffffff;fill-opacity:1;stroke:#000000;stroke-width:0.74371582;stroke-linecap:round;stroke-linejoin:bevel;stroke-miterlimit:4;stroke-dasharray:none;stroke-dashoffset:0;stroke-opacity:1"
       id="path916-6"
       cx="266.6622"
       cy="104.61012"
       rx="15.827884"
       ry="5.079185"
       clip-path="url(#clipPath954)"
       transform="matrix(-1.7267575,0,0,-1.7267575,585.00859,281.45412)" />
  </g>
</svg>
