<?xml version="1.0" encoding="UTF-8" standalone="no"?>
<!-- Created with Inkscape (http://www.inkscape.org/) -->

<svg
   width="108.62244mm"
   height="101.61411mm"
   viewBox="0 0 108.62243 101.61411"
   version="1.1"
   id="svg1"
   inkscape:version="1.3 (0e150ed6c4, 2023-07-21)"
   sodipodi:docname="chamallow_corps_normal_normal.svg"
   xmlns:inkscape="http://www.inkscape.org/namespaces/inkscape"
   xmlns:sodipodi="http://sodipodi.sourceforge.net/DTD/sodipodi-0.dtd"
   xmlns="http://www.w3.org/2000/svg"
   xmlns:svg="http://www.w3.org/2000/svg"
   xmlns:rdf="http://www.w3.org/1999/02/22-rdf-syntax-ns#"
   xmlns:cc="http://creativecommons.org/ns#"
   xmlns:dc="http://purl.org/dc/elements/1.1/">
  <metadata
     id="metadata26">
    <rdf:RDF>
      <cc:Work
         rdf:about="">
        <dc:format>image/svg+xml</dc:format>
        <dc:type
           rdf:resource="http://purl.org/dc/dcmitype/StillImage" />
      </cc:Work>
    </rdf:RDF>
  </metadata>
  <sodipodi:namedview
     id="namedview1"
     pagecolor="#ffffff"
     bordercolor="#666666"
     borderopacity="1.0"
     inkscape:showpageshadow="2"
     inkscape:pageopacity="0.0"
     inkscape:pagecheckerboard="0"
     inkscape:deskcolor="#d1d1d1"
     inkscape:document-units="mm"
     inkscape:zoom="0.54948044"
     inkscape:cx="230.21747"
     inkscape:cy="290.27421"
     inkscape:window-width="1916"
     inkscape:window-height="1037"
     inkscape:window-x="0"
     inkscape:window-y="0"
     inkscape:window-maximized="1"
     inkscape:current-layer="layer1"
     showgrid="false" />
  <defs
     id="defs1">
    <clipPath
       clipPathUnits="userSpaceOnUse"
       id="clipPath954">
      <rect
         style="fill:#ffffff;fill-opacity:1;stroke:#000000;stroke-width:0.366;stroke-linecap:round;stroke-linejoin:bevel;stroke-miterlimit:4;stroke-dasharray:none;stroke-dashoffset:0;stroke-opacity:1"
         id="rect956"
         width="36.474705"
         height="13.134672"
         x="248.23587"
         y="93.459831"
         rx="13.312986"
         ry="3.9706812" />
    </clipPath>
  </defs>
  <g
     inkscape:label="Layer 1"
     inkscape:groupmode="layer"
     id="layer1"
     transform="translate(-53.340524,-82.55878)">
    <path
       id="path29"
       style="fill:none;fill-opacity:1;stroke:#e5e5e5;stroke-width:5.82083;stroke-linejoin:bevel;stroke-miterlimit:10;stroke-dasharray:none;stroke-dashoffset:0;stroke-opacity:1"
       d="M 107.65027,85.469197 A 27.330917,8.7705208 0 0 0 80.86793,92.570573 C 73.889307,98.099069 69.290859,107.6568 69.290859,118.57157 v 2.54403 a 18.462021,9.8764434 16.640926 0 0 -12.718087,5.20692 18.462021,9.8764434 16.640926 0 0 12.718087,14.36398 v 1.84795 c 0,15.82845 9.665037,28.80612 22.248254,30.76556 a 7.9955683,7.7649765 0 0 0 3.484542,6.61614 7.9955683,7.7649765 0 0 0 8.236705,0.44183 7.9955683,7.7649765 0 0 0 4.25142,-6.79287 h 0.62839 a 7.9955683,7.7649765 0 0 0 4.28449,6.66626 7.9955683,7.7649765 0 0 0 8.16488,-0.43976 7.9955683,7.7649765 0 0 0 3.53208,-6.49625 c 11.59288,-1.82315 20.696,-13.00161 22.03897,-27.13891 a 18.462021,9.8764434 16.640926 0 0 12.56719,-5.21002 18.462021,9.8764434 16.640926 0 0 -12.38943,-14.25288 v -8.12198 c 0,-11.23343 -4.86833,-21.033445 -12.19202,-26.478488 a 27.330917,8.7705208 0 0 0 -26.49606,-6.623885 z" />
    <path
       d="m 107.51566,173.49516 a 7.9955683,7.7649765 0 0 1 -4.2553,6.86299 7.9955683,7.7649765 0 0 1 -8.236506,-0.44209 7.9955683,7.7649765 0 0 1 -3.450629,-7.2766 l 7.946871,0.8557 z"
       sodipodi:end="3.252017"
       sodipodi:start="1.0962796e-14"
       sodipodi:ry="7.7649765"
       sodipodi:rx="7.9955683"
       sodipodi:cy="173.49516"
       sodipodi:cx="99.520096"
       sodipodi:type="arc"
       id="path1130-5-3"
       style="fill:#f9f9f9;fill-opacity:1;stroke:#000000;stroke-width:1.5875;stroke-linejoin:bevel;stroke-miterlimit:10;stroke-dasharray:none;stroke-dashoffset:0;stroke-opacity:1"
       sodipodi:arc-type="slice" />
    <path
       d="m 124.08603,172.61213 a 7.9955683,7.7649765 0 0 1 -3.4964,7.17942 7.9955683,7.7649765 0 0 1 -8.16521,0.4398 7.9955683,7.7649765 0 0 1 -4.29246,-6.75989 l 7.99457,-0.12258 z"
       sodipodi:end="3.1258055"
       sodipodi:start="6.1881619"
       sodipodi:ry="7.7649765"
       sodipodi:rx="7.9955683"
       sodipodi:cy="173.34888"
       sodipodi:cx="116.12653"
       sodipodi:type="arc"
       id="path1130-0-6-6"
       style="fill:#f9f9f9;fill-opacity:1;stroke:#000000;stroke-width:1.5875;stroke-linejoin:bevel;stroke-miterlimit:10;stroke-dasharray:none;stroke-dashoffset:0;stroke-opacity:1"
       sodipodi:arc-type="slice" />
    <path
       inkscape:transform-center-y="-12.777261"
       inkscape:transform-center-x="1.5670991"
       transform="matrix(0.35842917,-0.93355692,0.95163886,0.30721895,0,0)"
       d="m -75.673498,180.54361 a 9.8969059,18.451059 0 0 1 -9.818785,18.45048 9.8969059,18.451059 0 0 1 -9.973794,-18.1592 l 9.895673,-0.29128 z"
       sodipodi:end="3.1258055"
       sodipodi:start="1.0962796e-14"
       sodipodi:ry="18.451059"
       sodipodi:rx="9.8969059"
       sodipodi:cy="180.54361"
       sodipodi:cx="-85.570404"
       sodipodi:type="arc"
       id="path1130-0-2-3-1-3"
       style="fill:#f9f9f9;fill-opacity:1;stroke:#000000;stroke-width:1.58867;stroke-linejoin:bevel;stroke-miterlimit:10;stroke-dasharray:none;stroke-dashoffset:0;stroke-opacity:1"
       sodipodi:arc-type="slice" />
    <path
       inkscape:transform-center-y="12.777234"
       inkscape:transform-center-x="-1.5670583"
       transform="matrix(-0.35842917,0.93355692,-0.95163886,-0.30721895,0,0)"
       d="m 112.80367,-116.68662 a 9.8969059,18.451059 0 0 1 -9.81878,18.450482 9.8969059,18.451059 0 0 1 -9.973794,-18.159212 l 9.895674,-0.29127 z"
       sodipodi:end="3.1258055"
       sodipodi:start="1.0962796e-14"
       sodipodi:ry="18.451059"
       sodipodi:rx="9.8969059"
       sodipodi:cy="-116.68662"
       sodipodi:cx="102.90677"
       sodipodi:type="arc"
       id="path1130-0-2-0-6"
       style="fill:#f9f9f9;fill-opacity:1;stroke:#000000;stroke-width:1.58867;stroke-linejoin:bevel;stroke-miterlimit:10;stroke-dasharray:none;stroke-dashoffset:0;stroke-opacity:1"
       sodipodi:arc-type="slice" />
    <rect
       clip-path="none"
       rx="25.556574"
       ry="31.030914"
       y="87.540512"
       x="69.290657"
       height="86.024605"
       width="77.047516"
       id="rect829-0-2-7"
       style="fill:#f9f9f9;fill-opacity:1;stroke:#000000;stroke-width:1.5875;stroke-linejoin:bevel;stroke-miterlimit:10;stroke-dasharray:none;stroke-dashoffset:0;stroke-opacity:1" />
    <rect
       style="fill:#000000;fill-opacity:1;stroke:#000000;stroke-width:0.556075;stroke-linejoin:bevel;stroke-miterlimit:10;stroke-dasharray:none;stroke-dashoffset:0;stroke-opacity:0.743719"
       id="rect829-0-9-0-3-3"
       width="13.302198"
       height="11.982267"
       x="117.20148"
       y="106.62452"
       ry="5.9911337"
       rx="6.6510992" />
    <rect
       style="fill:#ffffff;fill-opacity:1;stroke:#ffffff;stroke-width:0.298163;stroke-linejoin:bevel;stroke-miterlimit:10;stroke-dasharray:none;stroke-dashoffset:0;stroke-opacity:0.743719"
       id="rect829-0-9-3-62-2-5"
       width="7.1325269"
       height="6.4247913"
       x="118.47552"
       y="107.76129"
       ry="3.2123957"
       rx="3.5662634" />
    <rect
       style="fill:#ffffff;fill-opacity:1;stroke:#ffffff;stroke-width:0.131112;stroke-linejoin:bevel;stroke-miterlimit:10;stroke-dasharray:none;stroke-dashoffset:0;stroke-opacity:0.743719"
       id="rect829-0-9-3-6-6-0-6"
       width="3.1364043"
       height="2.8251898"
       x="125.60805"
       y="114.18608"
       ry="1.4125949"
       rx="1.5682021" />
    <rect
       style="fill:#000000;fill-opacity:1;stroke:#000000;stroke-width:0.556075;stroke-linejoin:bevel;stroke-miterlimit:10;stroke-dasharray:none;stroke-dashoffset:0;stroke-opacity:0.743719"
       id="rect829-0-9-0-8-1-9"
       width="13.302198"
       height="11.982267"
       x="88.372513"
       y="106.88875"
       ry="5.9911337"
       rx="6.6510992" />
    <rect
       style="fill:#ffffff;fill-opacity:1;stroke:#ffffff;stroke-width:0.298163;stroke-linejoin:bevel;stroke-miterlimit:10;stroke-dasharray:none;stroke-dashoffset:0;stroke-opacity:0.743719"
       id="rect829-0-9-3-62-7-5-1"
       width="7.1325269"
       height="6.4247913"
       x="89.646538"
       y="108.02552"
       ry="3.2123957"
       rx="3.5662634" />
    <rect
       style="fill:#ffffff;fill-opacity:1;stroke:#ffffff;stroke-width:0.131112;stroke-linejoin:bevel;stroke-miterlimit:10;stroke-dasharray:none;stroke-dashoffset:0;stroke-opacity:0.743719"
       id="rect829-0-9-3-6-6-9-5-2"
       width="3.1364043"
       height="2.8251898"
       x="96.779068"
       y="114.45031"
       ry="1.4125949"
       rx="1.5682021" />
    <path
       transform="rotate(-14.533951)"
       d="m 104.64441,150.91127 a 5.4729886,2.3140404 0 0 1 -5.402826,2.31385 5.4729886,2.3140404 0 0 1 -5.541349,-2.25453 5.4729886,2.3140404 0 0 1 5.26076,-2.37165 5.4729886,2.3140404 0 0 1 5.676225,2.19372 l -5.465795,0.11861 z"
       sodipodi:end="6.2319075"
       sodipodi:start="0"
       sodipodi:ry="2.3140404"
       sodipodi:rx="5.4729886"
       sodipodi:cy="150.91127"
       sodipodi:cx="99.171425"
       sodipodi:type="arc"
       id="path1100-4-7"
       style="fill:#ffd5d5;fill-opacity:1;stroke:#ffd5d5;stroke-width:0.240124;stroke-linejoin:bevel;stroke-miterlimit:10;stroke-dasharray:none;stroke-dashoffset:0;stroke-opacity:1"
       sodipodi:arc-type="slice" />
    <path
       transform="rotate(26.011263)"
       d="m 136.58462,71.339722 a 5.4729886,2.3140404 0 0 1 -5.40283,2.31385 5.4729886,2.3140404 0 0 1 -5.54135,-2.254527 5.4729886,2.3140404 0 0 1 5.26076,-2.371653 5.4729886,2.3140404 0 0 1 5.67623,2.193723 l -5.4658,0.118607 z"
       sodipodi:end="6.2319075"
       sodipodi:start="0"
       sodipodi:ry="2.3140404"
       sodipodi:rx="5.4729886"
       sodipodi:cy="71.339722"
       sodipodi:cx="131.11163"
       sodipodi:type="arc"
       id="path1100-2-7-0"
       style="fill:#ffd5d5;fill-opacity:1;stroke:#ffd5d5;stroke-width:0.240124;stroke-linejoin:bevel;stroke-miterlimit:10;stroke-dasharray:none;stroke-dashoffset:0;stroke-opacity:1"
       sodipodi:arc-type="slice" />
    <path
       sodipodi:nodetypes="cc"
       inkscape:connector-curvature="0"
       id="path1128-6-9"
       d="m 102.65207,123.57232 c 7.36392,4.02087 7.85686,2.59795 13.28582,-0.41518"
       style="fill:none;stroke:#000000;stroke-width:1.5875;stroke-linecap:round;stroke-linejoin:miter;stroke-miterlimit:4;stroke-dasharray:none;stroke-opacity:1" />
    <path
       d="m 132.75958,162.28522 a 3.4875932,3.4207532 0 0 1 -3.4642,3.42067 3.4875932,3.4207532 0 0 1 -3.51067,-3.37479 3.4875932,3.4207532 0 0 1 3.41711,-3.46594 3.4875932,3.4207532 0 0 1 3.55651,3.3283 l -3.48634,0.0918 z"
       sodipodi:end="6.2563591"
       sodipodi:start="1.0962797e-14"
       sodipodi:ry="3.4207532"
       sodipodi:rx="3.4875932"
       sodipodi:cy="162.28522"
       sodipodi:cx="129.27199"
       sodipodi:type="arc"
       id="path1413-0"
       style="fill:#ececec;fill-opacity:0.9799;stroke:#ececec;stroke-width:0.117435;stroke-linecap:round;stroke-linejoin:bevel;stroke-miterlimit:4;stroke-dasharray:none;stroke-dashoffset:0;stroke-opacity:1"
       sodipodi:arc-type="slice" />
    <path
       d="m 136.3733,162.2448 a 1.5035011,1.2934349 0 0 1 -1.49342,1.2934 1.5035011,1.2934349 0 0 1 -1.51345,-1.27605 1.5035011,1.2934349 0 0 1 1.47312,-1.31053 1.5035011,1.2934349 0 0 1 1.53321,1.25848 l -1.50296,0.0347 z"
       sodipodi:end="6.2563591"
       sodipodi:start="1.0962797e-14"
       sodipodi:ry="1.2934349"
       sodipodi:rx="1.5035011"
       sodipodi:cy="162.2448"
       sodipodi:cx="134.8698"
       sodipodi:type="arc"
       id="path1413-9-6"
       style="fill:#ececec;fill-opacity:0.9799;stroke:#ececec;stroke-width:0.0474129;stroke-linecap:round;stroke-linejoin:bevel;stroke-miterlimit:4;stroke-dasharray:none;stroke-dashoffset:0;stroke-opacity:1"
       sodipodi:arc-type="slice" />
    <path
       d="m 134.28851,164.87062 a 0.59805208,0.51449341 0 0 1 -0.59404,0.51448 0.59805208,0.51449341 0 0 1 -0.60201,-0.50758 0.59805208,0.51449341 0 0 1 0.58597,-0.52129 0.59805208,0.51449341 0 0 1 0.60987,0.50059 l -0.59784,0.0138 z"
       sodipodi:end="6.2563591"
       sodipodi:start="1.0962797e-14"
       sodipodi:ry="0.51449341"
       sodipodi:rx="0.59805208"
       sodipodi:cy="164.87062"
       sodipodi:cx="133.69046"
       sodipodi:type="arc"
       id="path1413-9-3-2"
       style="fill:#ececec;fill-opacity:0.9799;stroke:#ececec;stroke-width:0.0188596;stroke-linecap:round;stroke-linejoin:bevel;stroke-miterlimit:4;stroke-dasharray:none;stroke-dashoffset:0;stroke-opacity:1"
       sodipodi:arc-type="slice" />
    <ellipse
       transform="matrix(-1.7267575,0,0,-1.7267575,568.11105,274.87604)"
       clip-path="url(#clipPath954)"
       ry="5.079185"
       rx="15.827884"
       cy="104.61012"
       cx="266.6622"
       id="path916-6"
       style="fill:#ffffff;fill-opacity:1;stroke:#000000;stroke-width:0.804977;stroke-linecap:round;stroke-linejoin:bevel;stroke-miterlimit:4;stroke-dasharray:none;stroke-dashoffset:0;stroke-opacity:1" />
  </g>
</svg>
