<?xml version="1.0" encoding="UTF-8" standalone="no"?>
<!-- Created with Inkscape (http://www.inkscape.org/) -->

<svg
   xmlns:dc="http://purl.org/dc/elements/1.1/"
   xmlns:cc="http://creativecommons.org/ns#"
   xmlns:rdf="http://www.w3.org/1999/02/22-rdf-syntax-ns#"
   xmlns:svg="http://www.w3.org/2000/svg"
   xmlns="http://www.w3.org/2000/svg"
   xmlns:sodipodi="http://sodipodi.sourceforge.net/DTD/sodipodi-0.dtd"
   xmlns:inkscape="http://www.inkscape.org/namespaces/inkscape"
   width="104.17513mm"
   height="95.106384mm"
   viewBox="0 0 104.17513 95.106384"
   version="1.1"
   id="svg873"
   inkscape:version="0.92.3 (2405546, 2018-03-11)"
   sodipodi:docname="Chamallow_corps_bloque.svg">
  <defs
     id="defs867">
    <clipPath
       clipPathUnits="userSpaceOnUse"
       id="clipPath954">
      <rect
         style="fill:#ffffff;fill-opacity:1;stroke:#000000;stroke-width:0.366;stroke-linecap:round;stroke-linejoin:bevel;stroke-miterlimit:4;stroke-dasharray:none;stroke-dashoffset:0;stroke-opacity:1"
         id="rect956"
         width="36.474705"
         height="13.134672"
         x="248.23587"
         y="93.459831"
         rx="13.312986"
         ry="3.9706812" />
    </clipPath>
  </defs>
  <sodipodi:namedview
     id="base"
     pagecolor="#ffffff"
     bordercolor="#666666"
     borderopacity="1.0"
     inkscape:pageopacity="0.0"
     inkscape:pageshadow="2"
     inkscape:zoom="0.49497475"
     inkscape:cx="-188.91335"
     inkscape:cy="127.68492"
     inkscape:document-units="mm"
     inkscape:current-layer="layer1"
     showgrid="false"
     inkscape:window-width="1853"
     inkscape:window-height="1025"
     inkscape:window-x="67"
     inkscape:window-y="27"
     inkscape:window-maximized="1" />
  <metadata
     id="metadata870">
    <rdf:RDF>
      <cc:Work
         rdf:about="">
        <dc:format>image/svg+xml</dc:format>
        <dc:type
           rdf:resource="http://purl.org/dc/dcmitype/StillImage" />
        <dc:title></dc:title>
      </cc:Work>
    </rdf:RDF>
  </metadata>
  <g
     inkscape:label="Calque 1"
     inkscape:groupmode="layer"
     id="layer1"
     transform="translate(-59.096558,-77.325237)">
    <path
       inkscape:transform-center-y="-12.777261"
       inkscape:transform-center-x="1.5670991"
       transform="matrix(0.35842916,-0.93355693,0.95163886,0.30721895,0,0)"
       d="m -65.57218,180.45267 a 9.8969059,18.451059 0 0 1 -9.818785,18.45048 9.8969059,18.451059 0 0 1 -9.973793,-18.15921 l 9.895672,-0.29127 z"
       sodipodi:end="3.1258055"
       sodipodi:start="1.0962796e-14"
       sodipodi:ry="18.451059"
       sodipodi:rx="9.8969059"
       sodipodi:cy="180.45267"
       sodipodi:cx="-75.469086"
       sodipodi:type="arc"
       id="path1130-0-2-3-1-3"
       style="fill:#f9f9f9;fill-opacity:1;stroke:#000000;stroke-width:1.33361721;stroke-linejoin:bevel;stroke-miterlimit:10;stroke-dasharray:none;stroke-dashoffset:0;stroke-opacity:1" />
    <path
       inkscape:transform-center-y="12.777234"
       inkscape:transform-center-x="-1.5670583"
       transform="matrix(-0.35842916,0.93355693,-0.95163886,-0.30721895,0,0)"
       d="m 102.70236,-116.59567 a 9.8969059,18.451059 0 0 1 -9.818788,18.450482 9.8969059,18.451059 0 0 1 -9.973794,-18.159202 l 9.895672,-0.29128 z"
       sodipodi:end="3.1258055"
       sodipodi:start="1.0962796e-14"
       sodipodi:ry="18.451059"
       sodipodi:rx="9.8969059"
       sodipodi:cy="-116.59567"
       sodipodi:cx="92.80545"
       sodipodi:type="arc"
       id="path1130-0-2-0-6"
       style="fill:#f9f9f9;fill-opacity:1;stroke:#000000;stroke-width:1.33361721;stroke-linejoin:bevel;stroke-miterlimit:10;stroke-dasharray:none;stroke-dashoffset:0;stroke-opacity:1" />
    <rect
       clip-path="none"
       rx="25.556574"
       ry="31.030916"
       y="78.08242"
       x="72.82473"
       height="86.024605"
       width="77.047516"
       id="rect829-0-2-7"
       style="fill:#f9f9f9;fill-opacity:1;stroke:#000000;stroke-width:1.51436627;stroke-linejoin:bevel;stroke-miterlimit:10;stroke-dasharray:none;stroke-dashoffset:0;stroke-opacity:1" />
    <path
       transform="rotate(-14.533951)"
       d="m 110.43893,142.64273 a 5.4729891,2.3140404 0 0 1 -5.40283,2.31385 5.4729891,2.3140404 0 0 1 -5.541348,-2.25453 5.4729891,2.3140404 0 0 1 5.260758,-2.37165 5.4729891,2.3140404 0 0 1 5.67623,2.19372 l -5.4658,0.11861 z"
       sodipodi:end="6.2319075"
       sodipodi:start="0"
       sodipodi:ry="2.3140404"
       sodipodi:rx="5.4729891"
       sodipodi:cy="142.64273"
       sodipodi:cx="104.96594"
       sodipodi:type="arc"
       id="path1100-4-7"
       style="fill:#ffd5d5;fill-opacity:1;stroke:#ffd5d5;stroke-width:0.24012437;stroke-linejoin:bevel;stroke-miterlimit:10;stroke-dasharray:none;stroke-dashoffset:0;stroke-opacity:1" />
    <path
       transform="rotate(26.011262)"
       d="m 135.6129,61.289791 a 5.4729891,2.3140404 0 0 1 -5.40283,2.31385 5.4729891,2.3140404 0 0 1 -5.54135,-2.254527 5.4729891,2.3140404 0 0 1 5.26076,-2.371652 5.4729891,2.3140404 0 0 1 5.67622,2.193722 l -5.46579,0.118607 z"
       sodipodi:end="6.2319075"
       sodipodi:start="0"
       sodipodi:ry="2.3140404"
       sodipodi:rx="5.4729891"
       sodipodi:cy="61.289791"
       sodipodi:cx="130.13991"
       sodipodi:type="arc"
       id="path1100-2-7-0"
       style="fill:#ffd5d5;fill-opacity:1;stroke:#ffd5d5;stroke-width:0.24012437;stroke-linejoin:bevel;stroke-miterlimit:10;stroke-dasharray:none;stroke-dashoffset:0;stroke-opacity:1" />
    <path
       sodipodi:nodetypes="cc"
       inkscape:connector-curvature="0"
       id="path1128-6-9"
       d="m 118.78074,115.11203 c -7.34171,-4.06127 -7.84246,-2.64107 -13.28789,0.34218"
       style="fill:none;stroke:#000000;stroke-width:0.99979258;stroke-linecap:round;stroke-linejoin:miter;stroke-miterlimit:4;stroke-dasharray:none;stroke-opacity:1" />
    <path
       d="m 111.04973,164.27783 a 7.9955683,7.764977 0 0 1 -7.93246,7.76474 7.9955683,7.764977 0 0 1 -8.057681,-7.64216 l 7.994571,-0.12258 z"
       sodipodi:end="3.1258055"
       sodipodi:start="1.0962796e-14"
       sodipodi:ry="7.764977"
       sodipodi:rx="7.9955683"
       sodipodi:cy="164.27783"
       sodipodi:cx="103.05416"
       sodipodi:type="arc"
       id="path1130-5-3"
       style="fill:#f9f9f9;fill-opacity:1;stroke:#000000;stroke-width:0.77761662;stroke-linejoin:bevel;stroke-miterlimit:10;stroke-dasharray:none;stroke-dashoffset:0;stroke-opacity:1" />
    <path
       d="m 127.65617,164.16466 a 7.9955683,7.764977 0 0 1 -7.93246,7.76473 7.9955683,7.764977 0 0 1 -8.05768,-7.64215 l 7.99457,-0.12258 z"
       sodipodi:end="3.1258055"
       sodipodi:start="1.0962796e-14"
       sodipodi:ry="7.764977"
       sodipodi:rx="7.9955683"
       sodipodi:cy="164.16466"
       sodipodi:cx="119.6606"
       sodipodi:type="arc"
       id="path1130-0-6-6"
       style="fill:#f9f9f9;fill-opacity:1;stroke:#000000;stroke-width:0.77761662;stroke-linejoin:bevel;stroke-miterlimit:10;stroke-dasharray:none;stroke-dashoffset:0;stroke-opacity:1" />
    <path
       d="m 136.29365,152.82713 a 3.4875932,3.4207532 0 0 1 -3.4642,3.42068 3.4875932,3.4207532 0 0 1 -3.51067,-3.3748 3.4875932,3.4207532 0 0 1 3.41712,-3.46594 3.4875932,3.4207532 0 0 1 3.5565,3.32831 l -3.48634,0.0918 z"
       sodipodi:end="6.2563591"
       sodipodi:start="1.0962797e-14"
       sodipodi:ry="3.4207532"
       sodipodi:rx="3.4875932"
       sodipodi:cy="152.82713"
       sodipodi:cx="132.80606"
       sodipodi:type="arc"
       id="path1413-0"
       style="fill:#ececec;fill-opacity:0.97989951;stroke:#ececec;stroke-width:0.1174347;stroke-linecap:round;stroke-linejoin:bevel;stroke-miterlimit:4;stroke-dasharray:none;stroke-dashoffset:0;stroke-opacity:1" />
    <path
       d="m 139.90737,152.7867 a 1.5035011,1.2934349 0 0 1 -1.49342,1.2934 1.5035011,1.2934349 0 0 1 -1.51345,-1.27605 1.5035011,1.2934349 0 0 1 1.47312,-1.31053 1.5035011,1.2934349 0 0 1 1.53321,1.25848 l -1.50296,0.0347 z"
       sodipodi:end="6.2563591"
       sodipodi:start="1.0962797e-14"
       sodipodi:ry="1.2934349"
       sodipodi:rx="1.5035011"
       sodipodi:cy="152.7867"
       sodipodi:cx="138.40387"
       sodipodi:type="arc"
       id="path1413-9-6"
       style="fill:#ececec;fill-opacity:0.97989951;stroke:#ececec;stroke-width:0.04741292;stroke-linecap:round;stroke-linejoin:bevel;stroke-miterlimit:4;stroke-dasharray:none;stroke-dashoffset:0;stroke-opacity:1" />
    <path
       d="m 137.82259,155.41254 a 0.59805208,0.51449341 0 0 1 -0.59405,0.51448 0.59805208,0.51449341 0 0 1 -0.60201,-0.50758 0.59805208,0.51449341 0 0 1 0.58597,-0.52129 0.59805208,0.51449341 0 0 1 0.60987,0.50059 l -0.59784,0.0138 z"
       sodipodi:end="6.2563591"
       sodipodi:start="1.0962797e-14"
       sodipodi:ry="0.51449341"
       sodipodi:rx="0.59805208"
       sodipodi:cy="155.41254"
       sodipodi:cx="137.22453"
       sodipodi:type="arc"
       id="path1413-9-3-2"
       style="fill:#ececec;fill-opacity:0.97989951;stroke:#ececec;stroke-width:0.01885958;stroke-linecap:round;stroke-linejoin:bevel;stroke-miterlimit:4;stroke-dasharray:none;stroke-dashoffset:0;stroke-opacity:1" />
    <ellipse
       transform="matrix(-1.7267575,0,0,-1.7267575,571.64509,265.41795)"
       clip-path="url(#clipPath954)"
       ry="5.079185"
       rx="15.827884"
       cy="104.61012"
       cx="266.6622"
       id="path916-6"
       style="fill:#ffffff;fill-opacity:1;stroke:#000000;stroke-width:0.74371582;stroke-linecap:round;stroke-linejoin:bevel;stroke-miterlimit:4;stroke-dasharray:none;stroke-dashoffset:0;stroke-opacity:1" />
    <path
       sodipodi:nodetypes="cc"
       inkscape:connector-curvature="0"
       id="path1128-6-9-6"
       d="m 87.713111,100.77837 c 6.890295,4.78731 7.532973,3.42545 13.253719,1.01183"
       style="fill:none;stroke:#000000;stroke-width:0.99979258;stroke-linecap:round;stroke-linejoin:miter;stroke-miterlimit:4;stroke-dasharray:none;stroke-opacity:1" />
    <path
       sodipodi:nodetypes="cc"
       inkscape:connector-curvature="0"
       id="path1128-6-9-6-1"
       d="m 123.92042,101.08431 c 7.36076,4.02662 7.85481,2.60408 13.28612,-0.40481"
       style="fill:none;stroke:#000000;stroke-width:0.99979258;stroke-linecap:round;stroke-linejoin:miter;stroke-miterlimit:4;stroke-dasharray:none;stroke-opacity:1" />
  </g>
</svg>
