<?xml version="1.0" encoding="UTF-8" standalone="no"?>
<!-- Created with Inkscape (http://www.inkscape.org/) -->

<svg
   xmlns:dc="http://purl.org/dc/elements/1.1/"
   xmlns:cc="http://creativecommons.org/ns#"
   xmlns:rdf="http://www.w3.org/1999/02/22-rdf-syntax-ns#"
   xmlns:svg="http://www.w3.org/2000/svg"
   xmlns="http://www.w3.org/2000/svg"
   xmlns:sodipodi="http://sodipodi.sourceforge.net/DTD/sodipodi-0.dtd"
   xmlns:inkscape="http://www.inkscape.org/namespaces/inkscape"
   width="104.17513mm"
   height="95.106369mm"
   viewBox="0 0 104.17513 95.106369"
   version="1.1"
   id="svg903"
   inkscape:version="0.92.3 (2405546, 2018-03-11)"
   sodipodi:docname="chamallow_corps_attaquereussie.svg">
  <defs
     id="defs897">
    <clipPath
       clipPathUnits="userSpaceOnUse"
       id="clipPath954">
      <rect
         style="fill:#ffffff;fill-opacity:1;stroke:#000000;stroke-width:0.366;stroke-linecap:round;stroke-linejoin:bevel;stroke-miterlimit:4;stroke-dasharray:none;stroke-dashoffset:0;stroke-opacity:1"
         id="rect956"
         width="36.474705"
         height="13.134672"
         x="248.23587"
         y="93.459831"
         rx="13.312986"
         ry="3.9706812" />
    </clipPath>
  </defs>
  <sodipodi:namedview
     id="base"
     pagecolor="#ffffff"
     bordercolor="#666666"
     borderopacity="1.0"
     inkscape:pageopacity="0.0"
     inkscape:pageshadow="2"
     inkscape:zoom="1.4"
     inkscape:cx="152.32885"
     inkscape:cy="150.49391"
     inkscape:document-units="mm"
     inkscape:current-layer="layer1"
     showgrid="false"
     inkscape:window-width="1853"
     inkscape:window-height="1025"
     inkscape:window-x="67"
     inkscape:window-y="27"
     inkscape:window-maximized="1" />
  <metadata
     id="metadata900">
    <rdf:RDF>
      <cc:Work
         rdf:about="">
        <dc:format>image/svg+xml</dc:format>
        <dc:type
           rdf:resource="http://purl.org/dc/dcmitype/StillImage" />
        <dc:title />
      </cc:Work>
    </rdf:RDF>
  </metadata>
  <g
     inkscape:label="Calque 1"
     inkscape:groupmode="layer"
     id="layer1"
     transform="translate(-90.634372,-113.13935)">
    <path
       style="fill:#f9f9f9;fill-opacity:1;stroke:#000000;stroke-width:1.58867186;stroke-linejoin:bevel;stroke-miterlimit:10;stroke-dasharray:none;stroke-dashoffset:0;stroke-opacity:1"
       id="path1130-0-2-3-1-3"
       sodipodi:type="arc"
       sodipodi:cx="-99.898209"
       sodipodi:cy="222.79428"
       sodipodi:rx="9.8969059"
       sodipodi:ry="18.451059"
       sodipodi:start="1.0962796e-14"
       sodipodi:end="3.1258055"
       d="m -90.001303,222.79428 a 9.8969059,18.451059 0 0 1 -9.818784,18.45049 9.8969059,18.451059 0 0 1 -9.973793,-18.15921 l 9.895671,-0.29128 z"
       transform="matrix(0.35842917,-0.93355692,0.95163886,0.30721895,0,0)"
       inkscape:transform-center-x="1.5670991"
       inkscape:transform-center-y="-12.777261" />
    <path
       style="fill:#f9f9f9;fill-opacity:1;stroke:#000000;stroke-width:1.58867186;stroke-linejoin:bevel;stroke-miterlimit:10;stroke-dasharray:none;stroke-dashoffset:0;stroke-opacity:1"
       id="path1130-0-2-0-6"
       sodipodi:type="arc"
       sodipodi:cx="117.23457"
       sodipodi:cy="-158.93729"
       sodipodi:rx="9.8969059"
       sodipodi:ry="18.451059"
       sodipodi:start="1.0962796e-14"
       sodipodi:end="3.1258055"
       d="m 127.13148,-158.93729 a 9.8969059,18.451059 0 0 1 -9.81879,18.45049 9.8969059,18.451059 0 0 1 -9.97379,-18.15921 l 9.89567,-0.29128 z"
       transform="matrix(-0.35842917,0.93355692,-0.95163886,-0.30721895,0,0)"
       inkscape:transform-center-x="-1.5670583"
       inkscape:transform-center-y="12.777234" />
    <rect
       style="fill:#f9f9f9;fill-opacity:1;stroke:#000000;stroke-width:1.5875;stroke-linejoin:bevel;stroke-miterlimit:10;stroke-dasharray:none;stroke-dashoffset:0;stroke-opacity:1"
       id="rect829-0-2-7"
       width="77.047516"
       height="86.024605"
       x="104.36253"
       y="113.89654"
       ry="31.030914"
       rx="25.556574"
       clip-path="none" />
    <g
       id="g1072-6-5"
       transform="matrix(0.8134952,0,0,0.8134952,-51.393102,44.95487)">
      <rect
         rx="8.1759539"
         ry="7.3646822"
         y="108.20675"
         x="250.35976"
         height="14.729364"
         width="16.351908"
         id="rect829-0-9-0-3-3"
         style="fill:#000000;fill-opacity:1;stroke:#000000;stroke-width:0.68356287;stroke-linejoin:bevel;stroke-miterlimit:10;stroke-dasharray:none;stroke-dashoffset:0;stroke-opacity:0.74371858" />
      <rect
         rx="4.3838778"
         ry="3.9488809"
         y="109.60415"
         x="251.92587"
         height="7.8977618"
         width="8.7677555"
         id="rect829-0-9-3-62-2-5"
         style="fill:#ffffff;fill-opacity:1;stroke:#ffffff;stroke-width:0.3665207;stroke-linejoin:bevel;stroke-miterlimit:10;stroke-dasharray:none;stroke-dashoffset:0;stroke-opacity:0.74371858" />
      <rect
         rx="1.9277338"
         ry="1.7364515"
         y="117.50191"
         x="260.69363"
         height="3.472903"
         width="3.8554676"
         id="rect829-0-9-3-6-6-0-6"
         style="fill:#ffffff;fill-opacity:1;stroke:#ffffff;stroke-width:0.16117109;stroke-linejoin:bevel;stroke-miterlimit:10;stroke-dasharray:none;stroke-dashoffset:0;stroke-opacity:0.74371858" />
    </g>
    <g
       id="g1072-1-6-2"
       transform="matrix(0.8134952,0,0,0.8134952,-80.222083,45.219098)">
      <rect
         rx="8.1759539"
         ry="7.3646822"
         y="108.20675"
         x="250.35976"
         height="14.729364"
         width="16.351908"
         id="rect829-0-9-0-8-1-9"
         style="fill:#000000;fill-opacity:1;stroke:#000000;stroke-width:0.68356287;stroke-linejoin:bevel;stroke-miterlimit:10;stroke-dasharray:none;stroke-dashoffset:0;stroke-opacity:0.74371858" />
      <rect
         rx="4.3838778"
         ry="3.9488809"
         y="109.60415"
         x="251.92587"
         height="7.8977618"
         width="8.7677555"
         id="rect829-0-9-3-62-7-5-1"
         style="fill:#ffffff;fill-opacity:1;stroke:#ffffff;stroke-width:0.3665207;stroke-linejoin:bevel;stroke-miterlimit:10;stroke-dasharray:none;stroke-dashoffset:0;stroke-opacity:0.74371858" />
      <rect
         rx="1.9277338"
         ry="1.7364515"
         y="117.50191"
         x="260.69363"
         height="3.472903"
         width="3.8554676"
         id="rect829-0-9-3-6-6-9-5-2"
         style="fill:#ffffff;fill-opacity:1;stroke:#ffffff;stroke-width:0.16117109;stroke-linejoin:bevel;stroke-miterlimit:10;stroke-dasharray:none;stroke-dashoffset:0;stroke-opacity:0.74371858" />
    </g>
    <path
       style="fill:#ffd5d5;fill-opacity:1;stroke:#ffd5d5;stroke-width:0.24012437;stroke-linejoin:bevel;stroke-miterlimit:10;stroke-dasharray:none;stroke-dashoffset:0;stroke-opacity:1"
       id="path1100-4-7"
       sodipodi:type="arc"
       sodipodi:cx="126.50682"
       sodipodi:cy="185.22528"
       sodipodi:rx="5.4729886"
       sodipodi:ry="2.3140404"
       sodipodi:start="0"
       sodipodi:end="6.2319075"
       d="m 131.97981,185.22528 a 5.4729886,2.3140404 0 0 1 -5.40283,2.31385 5.4729886,2.3140404 0 0 1 -5.54135,-2.25453 5.4729886,2.3140404 0 0 1 5.26076,-2.37165 5.4729886,2.3140404 0 0 1 5.67623,2.19372 l -5.4658,0.11861 z"
       transform="rotate(-14.533951)" />
    <path
       style="fill:#ffd5d5;fill-opacity:1;stroke:#ffd5d5;stroke-width:0.24012437;stroke-linejoin:bevel;stroke-miterlimit:10;stroke-dasharray:none;stroke-dashoffset:0;stroke-opacity:1"
       id="path1100-2-7-0"
       sodipodi:type="arc"
       sodipodi:cx="174.18938"
       sodipodi:cy="79.645393"
       sodipodi:rx="5.4729886"
       sodipodi:ry="2.3140404"
       sodipodi:start="0"
       sodipodi:end="6.2319075"
       d="m 179.66237,79.645393 a 5.4729886,2.3140404 0 0 1 -5.40283,2.313851 5.4729886,2.3140404 0 0 1 -5.54135,-2.254528 5.4729886,2.3140404 0 0 1 5.26076,-2.371652 5.4729886,2.3140404 0 0 1 5.67622,2.193722 l -5.46579,0.118607 z"
       transform="rotate(26.011263)" />
    <path
       style="fill:none;stroke:#000000;stroke-width:0.99979252;stroke-linecap:round;stroke-linejoin:miter;stroke-miterlimit:4;stroke-dasharray:none;stroke-opacity:1"
       d="m 150.90323,152.52481 c -7.00986,-4.61047 -7.61768,-3.23271 -13.27519,-0.67435"
       id="path1128-6-9"
       inkscape:connector-curvature="0"
       sodipodi:nodetypes="cc" />
    <path
       style="fill:#f9f9f9;fill-opacity:1;stroke:#000000;stroke-width:1.5875;stroke-linejoin:bevel;stroke-miterlimit:10;stroke-dasharray:none;stroke-dashoffset:0;stroke-opacity:1"
       id="path1130-5-3"
       sodipodi:type="arc"
       sodipodi:cx="134.59196"
       sodipodi:cy="200.09193"
       sodipodi:rx="7.9955683"
       sodipodi:ry="7.7649765"
       sodipodi:start="1.0962796e-14"
       sodipodi:end="3.1258055"
       d="m 142.58753,200.09193 a 7.9955683,7.7649765 0 0 1 -7.93245,7.76474 7.9955683,7.7649765 0 0 1 -8.05769,-7.64215 l 7.99457,-0.12259 z" />
    <path
       style="fill:#f9f9f9;fill-opacity:1;stroke:#000000;stroke-width:1.5875;stroke-linejoin:bevel;stroke-miterlimit:10;stroke-dasharray:none;stroke-dashoffset:0;stroke-opacity:1"
       id="path1130-0-6-6"
       sodipodi:type="arc"
       sodipodi:cx="151.19839"
       sodipodi:cy="199.97878"
       sodipodi:rx="7.9955683"
       sodipodi:ry="7.7649765"
       sodipodi:start="1.0962796e-14"
       sodipodi:end="3.1258055"
       d="m 159.19396,199.97878 a 7.9955683,7.7649765 0 0 1 -7.93245,7.76473 7.9955683,7.7649765 0 0 1 -8.05769,-7.64215 l 7.99457,-0.12258 z" />
    <path
       style="fill:#ececec;fill-opacity:0.97989951;stroke:#ececec;stroke-width:0.1174347;stroke-linecap:round;stroke-linejoin:bevel;stroke-miterlimit:4;stroke-dasharray:none;stroke-dashoffset:0;stroke-opacity:1"
       id="path1413-0"
       sodipodi:type="arc"
       sodipodi:cx="164.34386"
       sodipodi:cy="188.64124"
       sodipodi:rx="3.4875932"
       sodipodi:ry="3.4207532"
       sodipodi:start="1.0962797e-14"
       sodipodi:end="6.2563591"
       d="m 167.83145,188.64124 a 3.4875932,3.4207532 0 0 1 -3.4642,3.42067 3.4875932,3.4207532 0 0 1 -3.51067,-3.37479 3.4875932,3.4207532 0 0 1 3.41711,-3.46595 3.4875932,3.4207532 0 0 1 3.55651,3.32831 l -3.48634,0.0918 z" />
    <path
       style="fill:#ececec;fill-opacity:0.97989951;stroke:#ececec;stroke-width:0.04741292;stroke-linecap:round;stroke-linejoin:bevel;stroke-miterlimit:4;stroke-dasharray:none;stroke-dashoffset:0;stroke-opacity:1"
       id="path1413-9-6"
       sodipodi:type="arc"
       sodipodi:cx="169.94167"
       sodipodi:cy="188.60081"
       sodipodi:rx="1.5035011"
       sodipodi:ry="1.2934349"
       sodipodi:start="1.0962797e-14"
       sodipodi:end="6.2563591"
       d="m 171.44517,188.60081 a 1.5035011,1.2934349 0 0 1 -1.49342,1.29341 1.5035011,1.2934349 0 0 1 -1.51345,-1.27606 1.5035011,1.2934349 0 0 1 1.47312,-1.31052 1.5035011,1.2934349 0 0 1 1.53321,1.25848 l -1.50296,0.0347 z" />
    <path
       style="fill:#ececec;fill-opacity:0.97989951;stroke:#ececec;stroke-width:0.01885958;stroke-linecap:round;stroke-linejoin:bevel;stroke-miterlimit:4;stroke-dasharray:none;stroke-dashoffset:0;stroke-opacity:1"
       id="path1413-9-3-2"
       sodipodi:type="arc"
       sodipodi:cx="168.76233"
       sodipodi:cy="191.22665"
       sodipodi:rx="0.59805208"
       sodipodi:ry="0.51449341"
       sodipodi:start="1.0962797e-14"
       sodipodi:end="6.2563591"
       d="m 169.36038,191.22665 a 0.59805208,0.51449341 0 0 1 -0.59404,0.51449 0.59805208,0.51449341 0 0 1 -0.60201,-0.50759 0.59805208,0.51449341 0 0 1 0.58597,-0.52129 0.59805208,0.51449341 0 0 1 0.60987,0.50059 l -0.59784,0.0138 z" />
    <ellipse
       style="fill:#ffffff;fill-opacity:1;stroke:#000000;stroke-width:0.80497696;stroke-linecap:round;stroke-linejoin:bevel;stroke-miterlimit:4;stroke-dasharray:none;stroke-dashoffset:0;stroke-opacity:1"
       id="path916-6"
       cx="266.6622"
       cy="104.61012"
       rx="15.827884"
       ry="5.079185"
       clip-path="url(#clipPath954)"
       transform="matrix(-1.7267575,0,0,-1.7267575,603.18292,301.23207)" />
    <path
       style="fill:none;stroke:#000000;stroke-width:0.12098775px;stroke-linecap:round;stroke-linejoin:miter;stroke-opacity:1"
       d="m 133.90575,146.85395 c -0.91123,2.48507 -1.8741,4.97013 -2.56654,7.45519"
       id="path852"
       inkscape:connector-curvature="0"
       sodipodi:nodetypes="cc" />
    <path
       style="fill:none;stroke:#000000;stroke-width:0.12117828;stroke-linecap:round;stroke-linejoin:miter;stroke-miterlimit:4;stroke-dasharray:none;stroke-opacity:1"
       d="m 133.90575,146.85395 c 0.91123,2.48507 1.8741,4.97013 2.56654,7.45519"
       id="path852-3"
       inkscape:connector-curvature="0"
       sodipodi:nodetypes="cc" />
    <path
       style="fill:none;stroke:#000000;stroke-width:0.12098775px;stroke-linecap:round;stroke-linejoin:miter;stroke-opacity:1"
       d="m 131.33921,154.30914 c 1.25825,3.36011 4.70992,2.07359 5.13308,0"
       id="path869"
       inkscape:connector-curvature="0"
       sodipodi:nodetypes="cc" />
    <path
       style="fill:#55ddff;fill-opacity:0.97989951;stroke:none;stroke-width:0.02163898;stroke-linecap:round;stroke-linejoin:bevel;stroke-miterlimit:4;stroke-dasharray:none;stroke-dashoffset:0;stroke-opacity:1"
       d="m 133.46809,156.27276 c -0.15776,-0.0265 -0.39603,-0.10282 -0.56518,-0.1811 -0.53974,-0.24976 -0.96595,-0.69917 -1.30738,-1.3785 -0.19103,-0.3801 -0.19003,-0.37392 -0.10765,-0.66636 0.20494,-0.72741 0.53524,-1.76089 0.87984,-2.75295 0.42312,-1.21807 1.51533,-4.20216 1.53805,-4.20216 0.0215,0 1.07557,2.87531 1.47925,4.03493 0.38057,1.09323 0.77987,2.34036 0.97603,3.0484 0.0452,0.16332 0.0302,0.24693 -0.0983,0.54671 -0.32735,0.76379 -1.13788,1.39327 -1.98539,1.54191 -0.19204,0.0337 -0.63336,0.0387 -0.80931,0.009 z"
       id="path871"
       inkscape:connector-curvature="0" />
    <path
       style="fill:none;stroke:#000000;stroke-width:0.12098775px;stroke-linecap:round;stroke-linejoin:miter;stroke-opacity:1"
       d="m 155.63141,146.19166 c -0.91123,2.48507 -1.8741,4.97013 -2.56654,7.45519"
       id="path852-7"
       inkscape:connector-curvature="0"
       sodipodi:nodetypes="cc" />
    <path
       style="fill:none;stroke:#000000;stroke-width:0.12117828;stroke-linecap:round;stroke-linejoin:miter;stroke-miterlimit:4;stroke-dasharray:none;stroke-opacity:1"
       d="m 155.63141,146.19166 c 0.91123,2.48507 1.8741,4.97013 2.56654,7.45519"
       id="path852-3-5"
       inkscape:connector-curvature="0"
       sodipodi:nodetypes="cc" />
    <path
       style="fill:none;stroke:#000000;stroke-width:0.12098775px;stroke-linecap:round;stroke-linejoin:miter;stroke-opacity:1"
       d="m 153.06487,153.64685 c 1.25825,3.36011 4.70992,2.07359 5.13308,0"
       id="path869-3"
       inkscape:connector-curvature="0"
       sodipodi:nodetypes="cc" />
    <path
       style="fill:#55ddff;fill-opacity:0.97989951;stroke:none;stroke-width:0.49794583;stroke-linecap:round;stroke-linejoin:bevel;stroke-miterlimit:4;stroke-dasharray:none;stroke-dashoffset:0;stroke-opacity:1"
       d="m 155.19375,155.61047 c -0.15776,-0.0265 -0.39603,-0.10282 -0.56518,-0.1811 -0.53974,-0.24976 -0.96595,-0.69917 -1.30738,-1.3785 -0.19103,-0.3801 -0.19003,-0.37392 -0.10765,-0.66636 0.20494,-0.72741 0.53524,-1.76089 0.87984,-2.75295 0.42312,-1.21807 1.51533,-4.20216 1.53805,-4.20216 0.0215,0 1.07557,2.87531 1.47925,4.03493 0.38057,1.09323 0.77987,2.34036 0.97603,3.0484 0.0452,0.16332 0.0302,0.24693 -0.0983,0.54671 -0.32735,0.76379 -1.13788,1.39327 -1.98539,1.54191 -0.19204,0.0337 -0.63336,0.0387 -0.80931,0.009 z"
       id="path871-5"
       inkscape:connector-curvature="0" />
  </g>
</svg>
