<?xml version="1.0" encoding="UTF-8" standalone="no"?>
<!-- Created with Inkscape (http://www.inkscape.org/) -->

<svg
   width="92.285019mm"
   height="91.718346mm"
   viewBox="0 0 92.285016 91.718346"
   version="1.1"
   id="svg873"
   inkscape:version="1.3 (0e150ed6c4, 2023-07-21)"
   sodipodi:docname="chamallow_corps_entraindattaque.svg"
   xmlns:inkscape="http://www.inkscape.org/namespaces/inkscape"
   xmlns:sodipodi="http://sodipodi.sourceforge.net/DTD/sodipodi-0.dtd"
   xmlns="http://www.w3.org/2000/svg"
   xmlns:svg="http://www.w3.org/2000/svg"
   xmlns:rdf="http://www.w3.org/1999/02/22-rdf-syntax-ns#"
   xmlns:cc="http://creativecommons.org/ns#"
   xmlns:dc="http://purl.org/dc/elements/1.1/">
  <defs
     id="defs867">
    <clipPath
       clipPathUnits="userSpaceOnUse"
       id="clipPath954">
      <rect
         style="fill:#ffffff;fill-opacity:1;stroke:#000000;stroke-width:0.366;stroke-linecap:round;stroke-linejoin:bevel;stroke-miterlimit:4;stroke-dasharray:none;stroke-dashoffset:0;stroke-opacity:1"
         id="rect956"
         width="36.474705"
         height="13.134672"
         x="248.23587"
         y="93.459831"
         rx="13.312986"
         ry="3.9706812" />
    </clipPath>
  </defs>
  <sodipodi:namedview
     id="base"
     pagecolor="#ffffff"
     bordercolor="#666666"
     borderopacity="1.0"
     inkscape:pageopacity="0.0"
     inkscape:pageshadow="2"
     inkscape:zoom="1.231836"
     inkscape:cx="148.55874"
     inkscape:cy="55.608054"
     inkscape:document-units="mm"
     inkscape:current-layer="layer1"
     showgrid="false"
     inkscape:window-width="956"
     inkscape:window-height="1037"
     inkscape:window-x="0"
     inkscape:window-y="0"
     inkscape:window-maximized="1"
     inkscape:showpageshadow="2"
     inkscape:pagecheckerboard="0"
     inkscape:deskcolor="#d1d1d1" />
  <metadata
     id="metadata870">
    <rdf:RDF>
      <cc:Work
         rdf:about="">
        <dc:format>image/svg+xml</dc:format>
        <dc:type
           rdf:resource="http://purl.org/dc/dcmitype/StillImage" />
        <dc:title />
      </cc:Work>
    </rdf:RDF>
  </metadata>
  <g
     inkscape:label="Calque 1"
     inkscape:groupmode="layer"
     id="layer1"
     transform="translate(-63.638228,-89.664536)">
    <path
       d="m 26.829049,215.99072 a 7.9955683,7.764977 0 0 1 -7.932455,7.76474 7.9955683,7.764977 0 0 1 -8.057685,-7.64216 l 7.994572,-0.12258 z"
       sodipodi:end="3.1258055"
       sodipodi:start="1.0962796e-14"
       sodipodi:ry="7.764977"
       sodipodi:rx="7.9955683"
       sodipodi:cy="215.99072"
       sodipodi:cx="18.833481"
       sodipodi:type="arc"
       id="path1130-0-6-6"
       style="fill:#ffffe5;fill-opacity:1;stroke:#000000;stroke-width:1.5875;stroke-linejoin:bevel;stroke-miterlimit:10;stroke-dasharray:none;stroke-dashoffset:0;stroke-opacity:1"
       sodipodi:arc-type="slice"
       transform="rotate(-32.839347)" />
    <path
       d="m 167.31519,108.21001 a 7.9955683,7.764977 0 0 1 -7.93245,7.76473 7.9955683,7.764977 0 0 1 -8.05769,-7.64215 l 7.99458,-0.12258 z"
       sodipodi:end="3.1258055"
       sodipodi:start="1.0962796e-14"
       sodipodi:ry="7.764977"
       sodipodi:rx="7.9955683"
       sodipodi:cy="108.21001"
       sodipodi:cx="159.31963"
       sodipodi:type="arc"
       id="path1130-5-3"
       style="fill:#ffffe5;fill-opacity:1;stroke:#000000;stroke-width:1.5875;stroke-linejoin:bevel;stroke-miterlimit:10;stroke-dasharray:none;stroke-dashoffset:0;stroke-opacity:1"
       sodipodi:arc-type="slice"
       transform="rotate(29.591437)" />
    <path
       inkscape:transform-center-y="-3.3267869"
       inkscape:transform-center-x="11.200219"
       transform="matrix(-0.56643067,-0.8241094,0.79214326,-0.6103352,0,0)"
       d="m -158.40093,55.751564 a 9.8969059,18.451059 0 0 1 -9.81879,18.450485 9.8969059,18.451059 0 0 1 -9.97379,-18.159207 l 9.89567,-0.291278 z"
       sodipodi:end="3.1258055"
       sodipodi:start="1.0962796e-14"
       sodipodi:ry="18.451059"
       sodipodi:rx="9.8969059"
       sodipodi:cy="55.751564"
       sodipodi:cx="-168.29784"
       sodipodi:type="arc"
       id="path1130-0-2-3-1-3"
       style="fill:#ffffe5;fill-opacity:1;stroke:#000000;stroke-width:1.58867;stroke-linejoin:bevel;stroke-miterlimit:10;stroke-dasharray:none;stroke-dashoffset:0;stroke-opacity:1"
       sodipodi:arc-type="slice" />
    <path
       inkscape:transform-center-y="11.835895"
       inkscape:transform-center-x="2.578093"
       transform="matrix(-0.77368263,0.63357335,-0.67464126,-0.73814577,0,0)"
       d="m 22.680452,-131.8625 a 9.8969059,18.451059 0 0 1 -9.818784,18.45048 9.8969059,18.451059 0 0 1 -9.9737942,-18.15921 l 9.8956722,-0.29127 z"
       sodipodi:end="3.1258055"
       sodipodi:start="1.0962796e-14"
       sodipodi:ry="18.451059"
       sodipodi:rx="9.8969059"
       sodipodi:cy="-131.8625"
       sodipodi:cx="12.783546"
       sodipodi:type="arc"
       id="path1130-0-2-0-6"
       style="fill:#ffffe5;fill-opacity:1;stroke:#000000;stroke-width:1.58867;stroke-linejoin:bevel;stroke-miterlimit:10;stroke-dasharray:none;stroke-dashoffset:0;stroke-opacity:1"
       sodipodi:arc-type="slice" />
    <rect
       clip-path="none"
       rx="25.556574"
       ry="31.030916"
       y="90.698044"
       x="70.119774"
       height="86.024605"
       width="77.047516"
       id="rect829-0-2-7"
       style="fill:#ffffe5;fill-opacity:1;stroke:#000000;stroke-width:1.5875;stroke-linejoin:bevel;stroke-miterlimit:10;stroke-dasharray:none;stroke-dashoffset:0;stroke-opacity:1" />
    <path
       transform="rotate(-14.533951)"
       d="m 104.6546,154.17583 a 5.4729891,2.3140404 0 0 1 -5.402831,2.31385 5.4729891,2.3140404 0 0 1 -5.541349,-2.25453 5.4729891,2.3140404 0 0 1 5.26076,-2.37165 5.4729891,2.3140404 0 0 1 5.67623,2.19372 l -5.4658,0.11861 z"
       sodipodi:end="6.2319075"
       sodipodi:start="0"
       sodipodi:ry="2.3140404"
       sodipodi:rx="5.4729891"
       sodipodi:cy="154.17583"
       sodipodi:cx="99.18161"
       sodipodi:type="arc"
       id="path1100-4-7"
       style="fill:#ffd5d5;fill-opacity:1;stroke:#ffd5d5;stroke-width:1.5875;stroke-linejoin:bevel;stroke-miterlimit:10;stroke-dasharray:none;stroke-dashoffset:0;stroke-opacity:1"
       sodipodi:arc-type="slice" />
    <path
       transform="rotate(26.011262)"
       d="m 138.71447,73.813805 a 5.4729891,2.3140404 0 0 1 -5.40283,2.31385 5.4729891,2.3140404 0 0 1 -5.54134,-2.254527 5.4729891,2.3140404 0 0 1 5.26076,-2.371653 5.4729891,2.3140404 0 0 1 5.67622,2.193723 l -5.46579,0.118607 z"
       sodipodi:end="6.2319075"
       sodipodi:start="0"
       sodipodi:ry="2.3140404"
       sodipodi:rx="5.4729891"
       sodipodi:cy="73.813805"
       sodipodi:cx="133.24149"
       sodipodi:type="arc"
       id="path1100-2-7-0"
       style="fill:#ffd5d5;fill-opacity:1;stroke:#ffd5d5;stroke-width:1.5875;stroke-linejoin:bevel;stroke-miterlimit:10;stroke-dasharray:none;stroke-dashoffset:0;stroke-opacity:1"
       sodipodi:arc-type="slice" />
    <path
       sodipodi:nodetypes="aaaa"
       inkscape:connector-curvature="0"
       id="path1128-6-9"
       d="m 111.62127,123.32542 c -0.96014,1.97439 -5.64846,1.90016 -6.58587,-0.0851 -0.73944,-1.56603 1.51718,-4.05175 3.249,-4.05425 1.77229,-0.003 4.11195,2.54555 3.33687,4.13938 z"
       style="fill:none;stroke:#000000;stroke-width:1.5875;stroke-linecap:round;stroke-linejoin:miter;stroke-miterlimit:4;stroke-dasharray:none;stroke-opacity:1" />
    <path
       d="m 133.5887,165.44275 a 3.4875932,3.4207532 0 0 1 -3.46421,3.42068 3.4875932,3.4207532 0 0 1 -3.51066,-3.3748 3.4875932,3.4207532 0 0 1 3.41711,-3.46594 3.4875932,3.4207532 0 0 1 3.5565,3.3283 l -3.48634,0.0918 z"
       sodipodi:end="6.2563591"
       sodipodi:start="1.0962797e-14"
       sodipodi:ry="3.4207532"
       sodipodi:rx="3.4875932"
       sodipodi:cy="165.44275"
       sodipodi:cx="130.1011"
       sodipodi:type="arc"
       id="path1413-0"
       style="fill:#ececec;fill-opacity:0.9799;stroke:#ececec;stroke-width:1.5875;stroke-linecap:round;stroke-linejoin:bevel;stroke-miterlimit:4;stroke-dasharray:none;stroke-dashoffset:0;stroke-opacity:1"
       sodipodi:arc-type="slice" />
    <path
       d="m 137.20241,165.40233 a 1.5035011,1.2934349 0 0 1 -1.49341,1.2934 1.5035011,1.2934349 0 0 1 -1.51345,-1.27605 1.5035011,1.2934349 0 0 1 1.47312,-1.31052 1.5035011,1.2934349 0 0 1 1.5332,1.25847 l -1.50296,0.0347 z"
       sodipodi:end="6.2563591"
       sodipodi:start="1.0962797e-14"
       sodipodi:ry="1.2934349"
       sodipodi:rx="1.5035011"
       sodipodi:cy="165.40233"
       sodipodi:cx="135.69891"
       sodipodi:type="arc"
       id="path1413-9-6"
       style="fill:#ececec;fill-opacity:0.9799;stroke:#ececec;stroke-width:1.5875;stroke-linecap:round;stroke-linejoin:bevel;stroke-miterlimit:4;stroke-dasharray:none;stroke-dashoffset:0;stroke-opacity:1"
       sodipodi:arc-type="slice" />
    <path
       d="m 135.11763,168.02815 a 0.59805208,0.51449341 0 0 1 -0.59404,0.51448 0.59805208,0.51449341 0 0 1 -0.60201,-0.50758 0.59805208,0.51449341 0 0 1 0.58597,-0.52129 0.59805208,0.51449341 0 0 1 0.60986,0.50059 l -0.59783,0.0138 z"
       sodipodi:end="6.2563591"
       sodipodi:start="1.0962797e-14"
       sodipodi:ry="0.51449341"
       sodipodi:rx="0.59805208"
       sodipodi:cy="168.02815"
       sodipodi:cx="134.51958"
       sodipodi:type="arc"
       id="path1413-9-3-2"
       style="fill:#ececec;fill-opacity:0.9799;stroke:#ececec;stroke-width:1.5875;stroke-linecap:round;stroke-linejoin:bevel;stroke-miterlimit:4;stroke-dasharray:none;stroke-dashoffset:0;stroke-opacity:1"
       sodipodi:arc-type="slice" />
    <ellipse
       transform="matrix(-1.7267575,0,0,-1.7267575,568.94013,278.03358)"
       clip-path="url(#clipPath954)"
       ry="5.079185"
       rx="15.827884"
       cy="104.61012"
       cx="266.6622"
       id="path916-6"
       style="fill:#ffffe5;fill-opacity:1;stroke:#000000;stroke-width:0.919353;stroke-linecap:round;stroke-linejoin:bevel;stroke-miterlimit:4;stroke-dasharray:none;stroke-dashoffset:0;stroke-opacity:1" />
    <path
       sodipodi:type="star"
       style="fill:#ffff00;fill-opacity:0.9799;stroke:#000000;stroke-width:2.51591;stroke-linecap:round;stroke-linejoin:bevel;stroke-miterlimit:4;stroke-dasharray:none;stroke-dashoffset:0;stroke-opacity:1"
       id="path1126"
       sodipodi:sides="5"
       sodipodi:cx="505.13434"
       sodipodi:cy="159.02483"
       sodipodi:r1="10.656204"
       sodipodi:r2="5.3281012"
       sodipodi:arg1="1.0007559"
       sodipodi:arg2="1.6290744"
       inkscape:flatsided="false"
       inkscape:rounded="0"
       inkscape:randomized="0"
       d="m 510.88513,167.99606 -6.06113,-3.65218 -6.44472,2.92254 1.60044,-6.89306 -4.77103,-5.22619 7.05025,-0.60796 3.49607,-6.1525 2.75686,6.51732 6.93171,1.42373 -5.34642,4.63589 z"
       inkscape:transform-center-x="-0.12640695"
       inkscape:transform-center-y="-0.50356348"
       transform="matrix(0.6589509,0,0,0.60420377,-242.09843,15.644306)" />
    <path
       sodipodi:type="star"
       style="fill:#ffff00;fill-opacity:0.9799;stroke:#000000;stroke-width:2.51591;stroke-linecap:round;stroke-linejoin:bevel;stroke-miterlimit:4;stroke-dasharray:none;stroke-dashoffset:0;stroke-opacity:1"
       id="path1126-8"
       sodipodi:sides="5"
       sodipodi:cx="505.13434"
       sodipodi:cy="159.02483"
       sodipodi:r1="10.656204"
       sodipodi:r2="5.3281012"
       sodipodi:arg1="1.0007559"
       sodipodi:arg2="1.6290744"
       inkscape:flatsided="false"
       inkscape:rounded="0"
       inkscape:randomized="0"
       d="m 510.88513,167.99606 -6.06113,-3.65218 -6.44472,2.92254 1.60044,-6.89306 -4.77103,-5.22619 7.05025,-0.60796 3.49607,-6.1525 2.75686,6.51732 6.93171,1.42373 -5.34642,4.63589 z"
       inkscape:transform-center-x="-0.12640695"
       inkscape:transform-center-y="-0.50356348"
       transform="matrix(0.6589509,0,0,0.60420377,-207.13597,15.281981)" />
  </g>
</svg>
