<?xml version="1.0" encoding="UTF-8" standalone="no"?>
<!-- Created with Inkscape (http://www.inkscape.org/) -->

<svg
   xmlns:dc="http://purl.org/dc/elements/1.1/"
   xmlns:cc="http://creativecommons.org/ns#"
   xmlns:rdf="http://www.w3.org/1999/02/22-rdf-syntax-ns#"
   xmlns:svg="http://www.w3.org/2000/svg"
   xmlns="http://www.w3.org/2000/svg"
   xmlns:sodipodi="http://sodipodi.sourceforge.net/DTD/sodipodi-0.dtd"
   xmlns:inkscape="http://www.inkscape.org/namespaces/inkscape"
   width="121.36198mm"
   height="110.12337mm"
   viewBox="0 0 121.36198 110.12337"
   version="1.1"
   id="svg1"
   inkscape:version="0.92.3 (2405546, 2018-03-11)"
   sodipodi:docname="furuboule_corps_attacked_par_le_jouer.svg">
  <metadata
     id="metadata17">
    <rdf:RDF>
      <cc:Work
         rdf:about="">
        <dc:format>image/svg+xml</dc:format>
        <dc:type
           rdf:resource="http://purl.org/dc/dcmitype/StillImage" />
      </cc:Work>
    </rdf:RDF>
  </metadata>
  <sodipodi:namedview
     id="namedview1"
     pagecolor="#ffffff"
     bordercolor="#000000"
     borderopacity="0.25"
     inkscape:showpageshadow="2"
     inkscape:pageopacity="0.0"
     inkscape:pagecheckerboard="0"
     inkscape:deskcolor="#d1d1d1"
     inkscape:document-units="mm"
     inkscape:zoom="1.0343421"
     inkscape:cx="66.757178"
     inkscape:cy="258.17237"
     inkscape:window-width="1853"
     inkscape:window-height="1025"
     inkscape:window-x="67"
     inkscape:window-y="27"
     inkscape:window-maximized="1"
     inkscape:current-layer="layer1"
     showgrid="false" />
  <defs
     id="defs1" />
  <g
     inkscape:label="Calque 1"
     inkscape:groupmode="layer"
     id="layer1"
     transform="translate(7.9375036,-41.275)">
    <ellipse
       style="fill:#d40000;stroke:#000000;stroke-width:1.51008;stroke-dasharray:none;stroke-opacity:1"
       id="path7"
       cx="52.840893"
       cy="102.14137"
       rx="58.005054"
       ry="48.501965"
       inkscape:label="path7" />
    <path
       style="fill:#d40000;stroke:#000000;stroke-width:1.51008;stroke-dasharray:none;stroke-opacity:1"
       d="m 36.41438,58.683112 c 1.01874,0.19331 2.14387,0.0869 3.11465,-0.30384 1.39616,-0.56194 2.72312,-1.47816 4.04902,-2.19442 0.8095,-0.43729 1.67841,-0.71711 2.49171,-1.15911 1.1041,-0.60003 2.05185,-1.41544 3.11463,-2.08188 2.27336,-1.42553 4.74882,-2.41739 7.05244,-3.76991 0.95281,-0.55942 1.83232,-1.24404 2.80317,-1.77803 1.85903,-1.02253 3.84787,-1.72116 5.80658,-2.50952 1.0733,-0.43199 2.15562,-0.8897 3.21475,-1.36166 0.55897,-0.24909 4.57794,-2.525337 5.08353,-0.934043 0.41497,1.306073 -0.58958,2.981663 -0.93439,4.175023 -0.79789,2.76145 -2.15705,5.49915 -1.86878,8.47384 0.11746,1.21202 0.98308,3.10794 1.98001,3.87119 0.3321,0.25424 0.62959,0.4231 0.9344,0.73147"
       id="path8" />
    <path
       style="fill:#d40000;stroke:#000000;stroke-width:1.76659;stroke-linecap:round;stroke-dasharray:none;stroke-opacity:1"
       d="m 99.233804,79.610195 c 2.311216,-1.697946 4.065196,-3.382571 5.019946,-5.993095 0.11939,-0.326431 0.34605,-0.733263 0.38726,-1.072175 0.0468,-0.385142 -0.06,-0.85442 -0.0871,-1.24114 -0.0404,-0.575783 -0.0291,-1.271006 -0.46314,-1.742851 -0.25977,-0.282402 -0.7064,-0.616096 -1.07548,-0.756024 -0.51697,-0.195997 -2.41939,-0.541666 -2.25367,-1.414927 0.0872,-0.459207 0.459,-0.907725 0.70016,-1.296375 0.32892,-0.530111 0.56619,-1.113504 0.90751,-1.636816 0.93583,-1.434826 1.39937,-2.076781 1.4335,-3.853621 0.0841,-4.378491 -2.04482,-8.355746 -4.583596,-11.892331 -1.295168,-1.804197 -2.889563,-3.197171 -5.155849,-3.919216 -0.140332,-0.04478 -2.424412,-0.552621 -2.410021,-0.347688 5.07e-4,0.008 0.315102,-0.03304 0.339108,-0.0238 1.299662,0.492703 2.660795,0.683802 4.035571,0.963953 0.694388,0.141507 1.367189,0.151859 2.063824,0.270881 2.906573,0.496644 4.512223,1.240479 6.691493,3.081053 0.84484,0.713517 1.61503,1.325863 2.20274,2.249969 2.93864,4.620689 3.30657,10.366451 4.16044,15.573922 0.4397,2.681661 0.90768,5.368631 1.24727,8.058894 0.44498,3.524987 0.22464,7.216038 -0.0482,10.756737 -0.0956,1.240052 -0.0536,2.547684 -0.29499,3.773697 -0.70131,3.562349 -1.75848,7.319619 -3.45651,10.580214 -0.49873,0.957704 -0.629,2.039754 -1.15244,3.002394 -1.07218,1.97175 -2.62801,3.67583 -3.80655,5.5933"
       id="path9-3" />
    <path
       style="fill:#d40000;stroke:#000000;stroke-width:1.61857;stroke-linecap:round;stroke-dasharray:none;stroke-opacity:1"
       d="m 4.8927199,86.158703 c -1.935647,-1.70187 -3.404609,-3.39041 -4.20421402,-6.00697 -0.09999,-0.32719 -0.289817,-0.73496 -0.32433,-1.07467 -0.0392,-0.38603 0.05025,-0.856399 0.07295,-1.244015 0.03383,-0.577113 0.02437,-1.273944 0.38788,-1.746887 0.21755802,-0.283054 0.59161202,-0.617517 0.90071702,-0.757771 0.432963,-0.196454 2.026243,-0.542925 1.887452,-1.418208 -0.07303,-0.460273 -0.384413,-0.909822 -0.586385,-1.299373 -0.275471,-0.531348 -0.474185,-1.116089 -0.760041,-1.640611 -0.783759,-1.438151 -1.171975,-2.081588 -1.200559,-3.862544 -0.07043,-4.388632 1.712541,-8.375102 3.83877,-11.91988 1.084705,-1.808376 2.420014,-3.204577 4.3180324,-3.928294 0.1175288,-0.04488 2.0304497,-0.553901 2.0183977,-0.348494 -4.25e-4,0.008 -0.263899,-0.03312 -0.284004,-0.02386 -1.0884689,0.493844 -2.2284207,0.685386 -3.3797977,0.966186 -0.5815514,0.141835 -1.1450234,0.152211 -1.7284564,0.271509 -2.43426,0.497794 -3.778995,1.243352 -5.60413701,3.08819 -0.707555,0.715169 -1.35259099,1.328934 -1.84479899,2.25518 -2.461116,4.631393 -2.769258,10.390464 -3.484376,15.609993 -0.368249,2.687872 -0.760183,5.381069 -1.044591,8.077569 -0.372671,3.53314 -0.188136,7.23274 0.04037,10.78164 0.08006,1.24293 0.04489,2.5536 0.247055,3.78245 0.587348,3.5706 1.47273,7.336567 2.894833,10.604707 0.417687,0.95993 0.526788,2.04449 0.96517,3.00936 0.897953,1.97632 2.20096299,3.68434 3.187993,5.60626"
       id="path9-3-9" />
    <path
       style="fill:#ffffff;stroke:#000000;stroke-width:0.905782;stroke-linecap:round;stroke-dasharray:none;stroke-opacity:1"
       d="m 14.924406,118.64025 c 0,0 11.983949,-18.920038 82.711758,-4.81712"
       id="path17" />
    <path
       style="fill:#000000;stroke:#000000;stroke-width:0.0785702;stroke-dasharray:none;stroke-opacity:1"
       d="m 97.384377,114.21351 c -3.551159,-1.65655 -3.551159,-1.65655 -3.551159,-1.65655 l -4.764934,0.97895 -5.353883,-1.4662 -5.440184,1.12741 -5.990929,-1.25749 -4.914657,1.04619 -6.551514,-0.92824 -5.7014,1.32213 -7.978458,-0.75184 -5.249114,1.42868 -9.625202,-0.0122 -3.443193,1.54657 -8.529604,0.50215 -0.662671,1.38151 -4.621548,0.29519 0.124114,1.10554"
       id="path13"
       inkscape:transform-center-x="-0.32061388"
       inkscape:transform-center-y="-0.44133635" />
    <ellipse
       style="fill:#ffaaaa;stroke:none;stroke-width:1.51013;stroke-dasharray:none;stroke-opacity:1"
       id="path18"
       cx="57.412434"
       cy="83.224304"
       rx="5.9876609"
       ry="3.1315203"
       transform="matrix(0.92818097,0.37212912,-0.38317582,0.92367543,0,0)"
       inkscape:transform-center-x="0.70610848"
       inkscape:transform-center-y="-0.69417349" />
    <ellipse
       style="fill:#ffaaaa;stroke:none;stroke-width:1.51013;stroke-dasharray:none;stroke-opacity:1"
       id="path18-6"
       cx="-2.1977468"
       cy="128.18065"
       rx="5.9878769"
       ry="3.1314044"
       transform="matrix(0.70424671,-0.70995533,0.71825418,0.69578081,0,0)"
       inkscape:transform-center-x="2.3019422"
       inkscape:transform-center-y="0.9661973" />
    <path
       style="fill:#d40000;stroke:#000000;stroke-width:1.63798;stroke-linecap:round;stroke-dasharray:none;stroke-opacity:1"
       d="m 22.59083,74.238382 28.46676,-11.49051 23.03132,5.24495"
       id="path21" />
    <ellipse
       style="fill:#ffffff;stroke:#000000;stroke-width:0.769896;stroke-dasharray:none;stroke-opacity:1"
       id="path10"
       cx="20.033455"
       cy="87.444778"
       rx="22.122911"
       ry="3.9479475"
       transform="matrix(0.97628363,-0.21649542,0.28660416,0.95804909,0,0)" />
    <ellipse
       style="fill:#1a1a1a;stroke:#000000;stroke-width:0.0623318;stroke-dasharray:none;stroke-opacity:1"
       id="path11"
       cx="31.317556"
       cy="82.891586"
       rx="4.736515"
       ry="1.6979166"
       transform="rotate(-9.1241786)" />
    <ellipse
       style="fill:#ffaaaa;fill-opacity:1;stroke:#ffaaaa;stroke-width:0.71881437;stroke-linecap:round;stroke-linejoin:bevel;stroke-miterlimit:4;stroke-dasharray:none;stroke-dashoffset:0;stroke-opacity:1"
       id="path891"
       cx="29.537003"
       cy="102.15713"
       rx="0.4053866"
       ry="0.43434277" />
    <ellipse
       style="fill:#ffaaaa;fill-opacity:1;stroke:#ffaaaa;stroke-width:0.71881437;stroke-linecap:round;stroke-linejoin:bevel;stroke-miterlimit:4;stroke-dasharray:none;stroke-dashoffset:0;stroke-opacity:1"
       id="path891-3"
       cx="85.429016"
       cy="97.55275"
       rx="0.4053866"
       ry="0.43434277" />
    <path
       style="fill:#ffffff;fill-opacity:1;stroke:#ffffff;stroke-width:0.41509011;stroke-linecap:round;stroke-linejoin:bevel;stroke-miterlimit:4;stroke-dasharray:none;stroke-dashoffset:0;stroke-opacity:1"
       id="path859"
       sodipodi:type="arc"
       sodipodi:cx="43.431561"
       sodipodi:cy="76.834724"
       sodipodi:rx="1.4398688"
       sodipodi:ry="0.4893409"
       sodipodi:start="0"
       sodipodi:end="6.2319075"
       d="m 44.871429,76.834724 a 1.4398688,0.4893409 0 0 1 -1.421411,0.489301 1.4398688,0.4893409 0 0 1 -1.457853,-0.476756 1.4398688,0.4893409 0 0 1 1.384034,-0.501524 1.4398688,0.4893409 0 0 1 1.493338,0.463898 l -1.437976,0.02508 z" />
    <path
       style="fill:#ffffff;fill-opacity:1;stroke:#ffffff;stroke-width:0.15555416;stroke-linecap:round;stroke-linejoin:bevel;stroke-miterlimit:4;stroke-dasharray:none;stroke-dashoffset:0;stroke-opacity:1"
       id="path859-0"
       sodipodi:type="arc"
       sodipodi:cx="46.014805"
       sodipodi:cy="77.212875"
       sodipodi:rx="0.40559086"
       sodipodi:ry="0.24396344"
       sodipodi:start="0"
       sodipodi:end="6.2319075"
       d="m 46.420396,77.212875 a 0.40559086,0.24396344 0 0 1 -0.400392,0.243944 0.40559086,0.24396344 0 0 1 -0.410657,-0.237689 0.40559086,0.24396344 0 0 1 0.389863,-0.250038 0.40559086,0.24396344 0 0 1 0.420653,0.231279 l -0.405058,0.0125 z" />
  </g>
</svg>
