<?xml version="1.0" encoding="UTF-8" standalone="no"?>
<!-- Created with Inkscape (http://www.inkscape.org/) -->

<svg
   xmlns:dc="http://purl.org/dc/elements/1.1/"
   xmlns:cc="http://creativecommons.org/ns#"
   xmlns:rdf="http://www.w3.org/1999/02/22-rdf-syntax-ns#"
   xmlns:svg="http://www.w3.org/2000/svg"
   xmlns="http://www.w3.org/2000/svg"
   xmlns:sodipodi="http://sodipodi.sourceforge.net/DTD/sodipodi-0.dtd"
   xmlns:inkscape="http://www.inkscape.org/namespaces/inkscape"
   width="120.53957mm"
   height="110.16206mm"
   viewBox="0 0 120.53957 110.16206"
   version="1.1"
   id="svg1"
   inkscape:version="0.92.3 (2405546, 2018-03-11)"
   sodipodi:docname="furuboule_corps_blocked_par_le_joueur.svg">
  <metadata
     id="metadata16">
    <rdf:RDF>
      <cc:Work
         rdf:about="">
        <dc:format>image/svg+xml</dc:format>
        <dc:type
           rdf:resource="http://purl.org/dc/dcmitype/StillImage" />
      </cc:Work>
    </rdf:RDF>
  </metadata>
  <sodipodi:namedview
     id="namedview1"
     pagecolor="#ffffff"
     bordercolor="#000000"
     borderopacity="0.25"
     inkscape:showpageshadow="2"
     inkscape:pageopacity="0.0"
     inkscape:pagecheckerboard="0"
     inkscape:deskcolor="#d1d1d1"
     inkscape:document-units="mm"
     inkscape:zoom="1.4627806"
     inkscape:cx="107.78347"
     inkscape:cy="184.05283"
     inkscape:window-width="1853"
     inkscape:window-height="1025"
     inkscape:window-x="67"
     inkscape:window-y="27"
     inkscape:window-maximized="1"
     inkscape:current-layer="layer1"
     showgrid="false" />
  <defs
     id="defs1" />
  <g
     inkscape:label="Calque 1"
     inkscape:groupmode="layer"
     id="layer1"
     transform="translate(112.97709,29.104172)">
    <ellipse
       style="fill:#d40000;stroke:#000000;stroke-width:1.5875;stroke-dasharray:none;stroke-opacity:1"
       id="path7"
       cx="-52.850384"
       cy="31.76218"
       rx="58.005054"
       ry="48.501965"
       inkscape:label="path7" />
    <path
       style="fill:#d40000;stroke:#000000;stroke-width:1.51008;stroke-dasharray:none;stroke-opacity:1"
       d="m -69.27689,-11.69607 c 1.01874,0.19331 2.14387,0.0869 3.11465,-0.30384 1.39616,-0.56194 2.72312,-1.47816 4.04902,-2.19442 0.8095,-0.43729 1.67841,-0.71711 2.49171,-1.15911 1.1041,-0.60003 2.05185,-1.41544 3.11463,-2.08188 2.27336,-1.42553 4.74882,-2.41738 7.05244,-3.7699 0.95281,-0.55942 1.83232,-1.24404 2.80317,-1.77803 1.85903,-1.02253 3.84787,-1.72116 5.80658,-2.50952 1.0733,-0.43199 2.15562,-0.8897 3.21475,-1.36166 0.55897,-0.24909 4.57794,-2.525335 5.08353,-0.934045 0.41497,1.306075 -0.58958,2.981665 -0.93439,4.175025 -0.79789,2.76145 -2.15705,5.49915 -1.86878,8.47383 0.11746,1.21202 0.98308,3.10794 1.98001,3.87119 0.3321,0.25424 0.62959,0.4231 0.9344,0.73147"
       id="path8" />
    <path
       style="fill:#d40000;stroke:#000000;stroke-width:1.51008;stroke-linecap:round;stroke-dasharray:none;stroke-opacity:1"
       d="m -9.44028,30.94126 c 2.54073,-0.89758 4.59611,-1.95509 6.25897,-4.13993 0.20786,-0.27322 0.53428,-0.58956 0.67873,-0.89886 0.16411,-0.35147 0.2228,-0.83041 0.3235,-1.20631 0.15016,-0.55962 0.38375,-1.21655 0.16005,-1.79952 -0.1335,-0.34879 -0.41193,-0.80419 -0.68559,-1.05145 -0.38335,-0.34635 -1.91466,-1.26402 -1.49105,-2.04246 0.22238,-0.40957 0.68783,-0.72038 1.02088,-1.01499 0.45424,-0.40183 0.8465,-0.88269 1.30925,-1.27424 1.26882,-1.07355 1.87524,-1.53996 2.47549,-3.21776 1.47912,-4.13442 0.91891,-8.57299 -0.13671,-12.71975 -0.53853,-2.11548 -1.46749,-3.93292 -3.19205,-5.32088 -0.10678,-0.086 -1.91545,-1.276 -1.96888,-1.07675 -0.002,0.008 0.28263,0.0663 0.30033,0.0827 0.96372,0.87068 2.0774,1.47385 3.17424,2.16583 0.554,0.34952 1.13152,0.5677 1.6947,0.89657 2.3497,1.37209 3.4969,2.57619 4.78699,5.00005 0.50013,0.93965 0.96834,1.76003 1.17883,2.82016 1.05258,5.30075 -0.47557,10.87436 -1.41127,16.08695 -0.48188,2.68432 -0.94098,5.38247 -1.51226,8.04391 -0.74818,3.48726 -2.12423,6.92625 -3.49716,10.20614 -0.48086,1.1487 -0.86473,2.40423 -1.46693,3.49443 -1.7498,3.16776 -3.86944,6.41051 -6.38277,8.98284 -0.73822,0.75555 -1.19828,1.74338 -1.95941,2.49595 -1.55901,1.54153 -3.4496,2.67888 -5.08298,4.13587"
       id="path9" />
    <path
       style="fill:#d40000;stroke:#000000;stroke-width:1.51008;stroke-linecap:round;stroke-dasharray:none;stroke-opacity:1"
       d="m -97.3943,31.28369 c -2.12739,-0.9763 -3.87339,-2.09197 -5.38619,-4.30171 -0.18916,-0.27633 -0.47759,-0.59945 -0.61802,-0.90891 -0.15956,-0.35166 -0.24317,-0.82482 -0.35323,-1.19816 -0.16386,-0.55583 -0.40244,-1.21057 -0.26546,-1.77543 0.082,-0.33806 0.27329,-0.77562 0.47651,-1.00867 0.28464,-0.32646 1.45684,-1.17238 1.05473,-1.95347 -0.21147,-0.41074 -0.61194,-0.73373 -0.90415,-1.03572 -0.39856,-0.41189 -0.75281,-0.8992 -1.15749,-1.30128 -1.10957,-1.10244 -1.63633,-1.58345 -2.24948,-3.25543 -1.5109,-4.12008 -1.39147,-8.46406 -0.84843,-12.50284 0.27705,-2.0604 0.89307,-3.81329 2.18644,-5.11458 0.0801,-0.0806 1.4566,-1.18411 1.51492,-0.98628 0.002,0.008 -0.22414,0.0547 -0.23732,0.07 -0.7156,0.82065 -1.57295,1.3727 -2.40995,2.01272 -0.42276,0.32327 -0.87447,0.51656 -1.30622,0.81918 -1.80137,1.26263 -2.64058,2.40437 -3.50363,4.7403 -0.33459,0.90556 -0.65226,1.69502 -0.74297,2.72972 -0.45355,5.17365 1.20561,10.71075 2.35728,15.87104 0.59306,2.65736 1.16877,5.32746 1.83242,7.96567 0.86955,3.45677 2.24435,6.88922 3.60475,10.16508 0.47646,1.14731 0.88233,2.39605 1.45274,3.49031 1.65742,3.17951 3.62032,6.4464 5.85181,9.06854 0.65543,0.77018 1.10288,1.75851 1.77667,2.52662 1.3801,1.57331 2.99852,2.76142 4.43255,4.25435"
       id="path9-3" />
    <ellipse
       style="fill:#ffffff;stroke:#000000;stroke-width:1.28631;stroke-dasharray:none;stroke-opacity:1"
       id="path10"
       cx="-53.508221"
       cy="22.565449"
       rx="15.797478"
       ry="15.43307" />
    <ellipse
       style="fill:#ffffff;stroke:#000000;stroke-width:1.06829;stroke-dasharray:none;stroke-opacity:1"
       id="path10-4"
       cx="-54.256207"
       cy="61.180439"
       rx="16.687151"
       ry="10.07741" />
    <ellipse
       style="fill:#1a1a1a;stroke:#000000;stroke-width:0.131489;stroke-dasharray:none;stroke-opacity:1"
       id="path11"
       cx="-52.898266"
       cy="22.439533"
       rx="6.2659783"
       ry="5.7114468" />
    <path
       style="fill:none;stroke:#000000;stroke-width:1.5875;stroke-linecap:round;stroke-dasharray:none;stroke-opacity:1"
       d="m -77.2196,13.33542 c 0,0 23.68024,-37.47201 46.05936,-1.30111"
       id="path25" />
    <ellipse
       style="fill:#ffaaaa;stroke:none;stroke-width:1.51013;stroke-dasharray:none;stroke-opacity:1"
       id="path18-5"
       cx="-64.544395"
       cy="66.127434"
       rx="5.9876609"
       ry="3.1315203"
       transform="matrix(0.92818097,0.37212912,-0.38317582,0.92367543,0,0)"
       inkscape:transform-center-x="0.70610848"
       inkscape:transform-center-y="-0.69417349" />
    <ellipse
       style="fill:#ffaaaa;stroke:none;stroke-width:1.51013;stroke-dasharray:none;stroke-opacity:1"
       id="path18-6-2"
       cx="-36.479893"
       cy="26.868362"
       rx="5.9878769"
       ry="3.1314044"
       transform="matrix(0.92930583,-0.36931107,0.3803019,0.9248624,0,0)"
       inkscape:transform-center-x="2.4962581"
       inkscape:transform-center-y="-0.034374486" />
    <path
       style="fill:#ffffff;fill-opacity:1;stroke:#ffffff;stroke-width:0.86069989;stroke-linecap:round;stroke-linejoin:bevel;stroke-miterlimit:4;stroke-dasharray:none;stroke-dashoffset:0;stroke-opacity:1"
       id="path859"
       sodipodi:type="arc"
       sodipodi:cx="-54.115692"
       sodipodi:cy="21.664146"
       sodipodi:rx="1.7651994"
       sodipodi:ry="1.7161661"
       sodipodi:start="0"
       sodipodi:end="6.2319075"
       d="m -52.350493,21.664146 a 1.7651994,1.7161661 0 0 1 -1.742571,1.716026 1.7651994,1.7161661 0 0 1 -1.787247,-1.67203 1.7651994,1.7161661 0 0 1 1.696749,-1.758893 1.7651994,1.7161661 0 0 1 1.830749,1.626935 l -1.762879,0.08796 z" />
    <path
       style="fill:#ffffff;fill-opacity:1;stroke:#ffffff;stroke-width:0.45298272;stroke-linecap:round;stroke-linejoin:bevel;stroke-miterlimit:4;stroke-dasharray:none;stroke-dashoffset:0;stroke-opacity:1"
       id="path859-4"
       sodipodi:type="arc"
       sodipodi:cx="-50.317261"
       sodipodi:cy="24.31266"
       sodipodi:rx="0.92901701"
       sodipodi:ry="0.903211"
       sodipodi:start="0"
       sodipodi:end="6.2319075"
       d="m -49.388244,24.31266 a 0.92901701,0.903211 0 0 1 -0.917108,0.903137 0.92901701,0.903211 0 0 1 -0.94062,-0.879982 0.92901701,0.903211 0 0 1 0.892992,-0.925698 0.92901701,0.903211 0 0 1 0.963515,0.856249 l -0.927796,0.04629 z" />
    <ellipse
       style="fill:#ffaaaa;fill-opacity:1;stroke:#ffaaaa;stroke-width:0.71881437;stroke-linecap:round;stroke-linejoin:bevel;stroke-miterlimit:4;stroke-dasharray:none;stroke-dashoffset:0;stroke-opacity:1"
       id="path891"
       cx="-78.429588"
       cy="41.08408"
       rx="0.4053866"
       ry="0.43434277" />
    <ellipse
       style="fill:#ffaaaa;fill-opacity:1;stroke:#ffaaaa;stroke-width:0.71881437;stroke-linecap:round;stroke-linejoin:bevel;stroke-miterlimit:4;stroke-dasharray:none;stroke-dashoffset:0;stroke-opacity:1"
       id="path891-4"
       cx="-31.492012"
       cy="41.807587"
       rx="0.4053866"
       ry="0.43434277" />
  </g>
</svg>
