<?xml version="1.0" encoding="UTF-8" standalone="no"?>
<!-- Created with Inkscape (http://www.inkscape.org/) -->

<svg
   xmlns:dc="http://purl.org/dc/elements/1.1/"
   xmlns:cc="http://creativecommons.org/ns#"
   xmlns:rdf="http://www.w3.org/1999/02/22-rdf-syntax-ns#"
   xmlns:svg="http://www.w3.org/2000/svg"
   xmlns="http://www.w3.org/2000/svg"
   xmlns:sodipodi="http://sodipodi.sourceforge.net/DTD/sodipodi-0.dtd"
   xmlns:inkscape="http://www.inkscape.org/namespaces/inkscape"
   width="228.27162mm"
   height="131.10902mm"
   viewBox="0 0 228.27162 131.10902"
   version="1.1"
   id="svg1848"
   inkscape:version="0.92.3 (2405546, 2018-03-11)"
   sodipodi:docname="Sliminou_corps_entraindattaquer.svg">
  <defs
     id="defs1842" />
  <sodipodi:namedview
     id="base"
     pagecolor="#ffffff"
     bordercolor="#666666"
     borderopacity="1.0"
     inkscape:pageopacity="0.0"
     inkscape:pageshadow="2"
     inkscape:zoom="0.7"
     inkscape:cx="180.01178"
     inkscape:cy="213.78489"
     inkscape:document-units="mm"
     inkscape:current-layer="layer1"
     showgrid="false"
     inkscape:window-width="1853"
     inkscape:window-height="1025"
     inkscape:window-x="67"
     inkscape:window-y="27"
     inkscape:window-maximized="1" />
  <metadata
     id="metadata1845">
    <rdf:RDF>
      <cc:Work
         rdf:about="">
        <dc:format>image/svg+xml</dc:format>
        <dc:type
           rdf:resource="http://purl.org/dc/dcmitype/StillImage" />
        <dc:title></dc:title>
      </cc:Work>
    </rdf:RDF>
  </metadata>
  <g
     inkscape:label="Calque 1"
     inkscape:groupmode="layer"
     id="layer1"
     transform="translate(9.0887001,-68.211368)">
    <ellipse
       style="fill:#e580ff;fill-opacity:1;stroke:#000000;stroke-width:1.74900007;stroke-linecap:round;stroke-linejoin:bevel;stroke-miterlimit:4;stroke-dasharray:none;stroke-dashoffset:0;stroke-opacity:1"
       id="path855-3"
       cx="132.03357"
       cy="137.12065"
       rx="46.21162"
       ry="43.297028" />
    <path
       transform="rotate(-14.533951)"
       d="m 123.6035,169.04985 a 5.4729891,2.3140404 0 0 1 -5.40283,2.31385 5.4729891,2.3140404 0 0 1 -5.54135,-2.25453 5.4729891,2.3140404 0 0 1 5.26076,-2.37165 5.4729891,2.3140404 0 0 1 5.67622,2.19372 l -5.46579,0.11861 z"
       sodipodi:end="6.2319075"
       sodipodi:start="0"
       sodipodi:ry="2.3140404"
       sodipodi:rx="5.4729891"
       sodipodi:cy="169.04985"
       sodipodi:cx="118.13051"
       sodipodi:type="arc"
       id="path1100-4-7-1-2"
       style="fill:#ffd5d5;fill-opacity:1;stroke:#ffd5d5;stroke-width:0.24012437;stroke-linejoin:bevel;stroke-miterlimit:10;stroke-dasharray:none;stroke-dashoffset:0;stroke-opacity:1" />
    <path
       transform="rotate(26.011262)"
       d="m 161.17506,72.952217 a 5.4729891,2.3140404 0 0 1 -5.40283,2.31385 5.4729891,2.3140404 0 0 1 -5.54135,-2.254527 5.4729891,2.3140404 0 0 1 5.26076,-2.371652 5.4729891,2.3140404 0 0 1 5.67623,2.193722 l -5.4658,0.118607 z"
       sodipodi:end="6.2319075"
       sodipodi:start="0"
       sodipodi:ry="2.3140404"
       sodipodi:rx="5.4729891"
       sodipodi:cy="72.952217"
       sodipodi:cx="155.70207"
       sodipodi:type="arc"
       id="path1100-2-7-0-2-3"
       style="fill:#ffd5d5;fill-opacity:1;stroke:#ffd5d5;stroke-width:0.24012437;stroke-linejoin:bevel;stroke-miterlimit:10;stroke-dasharray:none;stroke-dashoffset:0;stroke-opacity:1" />
    <path
       style="fill:none;stroke:#ffffff;stroke-width:2.89071512;stroke-linecap:round;stroke-linejoin:miter;stroke-miterlimit:4;stroke-dasharray:none;stroke-opacity:1"
       d="m 140.82674,98.743169 c 12.49807,2.280621 22.80985,8.879961 29.69534,22.247591"
       id="path1053-2"
       inkscape:connector-curvature="0"
       sodipodi:nodetypes="cc" />
    <path
       d="m 158.93942,163.15546 a 3.4875932,3.4207532 0 0 1 -3.4642,3.42067 3.4875932,3.4207532 0 0 1 -3.51067,-3.37479 3.4875932,3.4207532 0 0 1 3.41711,-3.46594 3.4875932,3.4207532 0 0 1 3.55651,3.3283 l -3.48634,0.0918 z"
       sodipodi:end="6.2563591"
       sodipodi:start="1.0962797e-14"
       sodipodi:ry="3.4207532"
       sodipodi:rx="3.4875932"
       sodipodi:cy="163.15546"
       sodipodi:cx="155.45183"
       sodipodi:type="arc"
       id="path1413-0-7-28"
       style="fill:#ececec;fill-opacity:0.97989951;stroke:#ececec;stroke-width:0.1174347;stroke-linecap:round;stroke-linejoin:bevel;stroke-miterlimit:4;stroke-dasharray:none;stroke-dashoffset:0;stroke-opacity:1" />
    <path
       d="m 162.55315,163.11504 a 1.5035011,1.2934349 0 0 1 -1.49341,1.2934 1.5035011,1.2934349 0 0 1 -1.51345,-1.27606 1.5035011,1.2934349 0 0 1 1.47311,-1.31052 1.5035011,1.2934349 0 0 1 1.53321,1.25848 l -1.50296,0.0347 z"
       sodipodi:end="6.2563591"
       sodipodi:start="1.0962797e-14"
       sodipodi:ry="1.2934349"
       sodipodi:rx="1.5035011"
       sodipodi:cy="163.11504"
       sodipodi:cx="161.04965"
       sodipodi:type="arc"
       id="path1413-9-6-5-9"
       style="fill:#ececec;fill-opacity:0.97989951;stroke:#ececec;stroke-width:0.04741292;stroke-linecap:round;stroke-linejoin:bevel;stroke-miterlimit:4;stroke-dasharray:none;stroke-dashoffset:0;stroke-opacity:1" />
    <path
       d="m 160.46837,165.74088 a 0.59805208,0.51449341 0 0 1 -0.59404,0.51448 0.59805208,0.51449341 0 0 1 -0.60201,-0.50758 0.59805208,0.51449341 0 0 1 0.58596,-0.52129 0.59805208,0.51449341 0 0 1 0.60987,0.50058 l -0.59783,0.0138 z"
       sodipodi:end="6.2563591"
       sodipodi:start="1.0962797e-14"
       sodipodi:ry="0.51449341"
       sodipodi:rx="0.59805208"
       sodipodi:cy="165.74088"
       sodipodi:cx="159.87032"
       sodipodi:type="arc"
       id="path1413-9-3-2-9-7"
       style="fill:#ececec;fill-opacity:0.97989951;stroke:#ececec;stroke-width:0.01885958;stroke-linecap:round;stroke-linejoin:bevel;stroke-miterlimit:4;stroke-dasharray:none;stroke-dashoffset:0;stroke-opacity:1" />
    <path
       d="m -25.884246,-155.84384 a 3.4875932,3.4207532 0 0 1 -3.464204,3.42067 3.4875932,3.4207532 0 0 1 -3.510669,-3.37479 3.4875932,3.4207532 0 0 1 3.417115,-3.46594 3.4875932,3.4207532 0 0 1 3.556503,3.3283 l -3.486339,0.0918 z"
       sodipodi:end="6.2563591"
       sodipodi:start="1.0962797e-14"
       sodipodi:ry="3.4207532"
       sodipodi:rx="3.4875932"
       sodipodi:cy="-155.84384"
       sodipodi:cx="-29.37184"
       sodipodi:type="arc"
       id="path1413-0-7-2-3"
       style="fill:#ececec;fill-opacity:0.97989951;stroke:#ececec;stroke-width:0.1174347;stroke-linecap:round;stroke-linejoin:bevel;stroke-miterlimit:4;stroke-dasharray:none;stroke-dashoffset:0;stroke-opacity:1"
       transform="rotate(153.28411)"
       inkscape:transform-center-x="-3.8735449"
       inkscape:transform-center-y="15.825388" />
    <path
       d="m -22.27053,-155.88426 a 1.5035011,1.2934349 0 0 1 -1.493417,1.2934 1.5035011,1.2934349 0 0 1 -1.513449,-1.27605 1.5035011,1.2934349 0 0 1 1.473117,-1.31053 1.5035011,1.2934349 0 0 1 1.533208,1.25848 l -1.50296,0.0347 z"
       sodipodi:end="6.2563591"
       sodipodi:start="1.0962797e-14"
       sodipodi:ry="1.2934349"
       sodipodi:rx="1.5035011"
       sodipodi:cy="-155.88426"
       sodipodi:cx="-23.774031"
       sodipodi:type="arc"
       id="path1413-9-6-5-2-6"
       style="fill:#ececec;fill-opacity:0.97989951;stroke:#ececec;stroke-width:0.04741292;stroke-linecap:round;stroke-linejoin:bevel;stroke-miterlimit:4;stroke-dasharray:none;stroke-dashoffset:0;stroke-opacity:1"
       transform="rotate(153.28411)"
       inkscape:transform-center-x="1.1085073"
       inkscape:transform-center-y="18.378089" />
    <path
       d="m -24.355308,-153.25842 a 0.59805208,0.51449341 0 0 1 -0.594041,0.51448 0.59805208,0.51449341 0 0 1 -0.602009,-0.50758 0.59805208,0.51449341 0 0 1 0.585967,-0.52129 0.59805208,0.51449341 0 0 1 0.609868,0.50059 l -0.597837,0.0138 z"
       sodipodi:end="6.2563591"
       sodipodi:start="1.0962797e-14"
       sodipodi:ry="0.51449341"
       sodipodi:rx="0.59805208"
       sodipodi:cy="-153.25842"
       sodipodi:cx="-24.95336"
       sodipodi:type="arc"
       id="path1413-9-3-2-9-8-1"
       style="fill:#ececec;fill-opacity:0.97989951;stroke:#ececec;stroke-width:0.01885958;stroke-linecap:round;stroke-linejoin:bevel;stroke-miterlimit:4;stroke-dasharray:none;stroke-dashoffset:0;stroke-opacity:1"
       transform="rotate(153.28411)"
       inkscape:transform-center-x="1.2355603"
       inkscape:transform-center-y="15.502378" />
    <path
       style="fill:none;stroke:#000000;stroke-width:1.86500001;stroke-linecap:round;stroke-linejoin:miter;stroke-miterlimit:4;stroke-dasharray:none;stroke-opacity:1"
       d="m 106.27966,152.78765 -30.144464,20.74417 34.745024,17.10527"
       id="path886-7-1"
       inkscape:connector-curvature="0"
       sodipodi:nodetypes="ccc" />
    <path
       style="fill:none;stroke:#000000;stroke-width:1.90145433;stroke-linecap:round;stroke-linejoin:miter;stroke-miterlimit:4;stroke-dasharray:none;stroke-opacity:1"
       d="m 106.5587,145.17711 -42.315604,29.05991 43.495764,20.35327"
       id="path886-3-0-9"
       inkscape:connector-curvature="0"
       sodipodi:nodetypes="ccc" />
    <ellipse
       style="fill:#dd55ff;fill-opacity:1;stroke:#000000;stroke-width:1.28206062;stroke-linecap:round;stroke-linejoin:bevel;stroke-miterlimit:4;stroke-dasharray:none;stroke-dashoffset:0;stroke-opacity:1"
       id="path903-9-4"
       cx="-100.72401"
       cy="188.09802"
       rx="10.98225"
       ry="10.581346"
       transform="scale(-1,1)" />
    <path
       style="fill:none;stroke:#000000;stroke-width:1.26499999;stroke-linecap:butt;stroke-linejoin:miter;stroke-miterlimit:4;stroke-dasharray:none;stroke-opacity:1"
       d="m 149.36302,128.12022 -5.54502,-11.994 -5.86763,11.87657"
       id="path1071-7"
       inkscape:connector-curvature="0"
       sodipodi:nodetypes="ccc" />
    <path
       style="fill:none;stroke:#000000;stroke-width:1.26499999;stroke-linecap:butt;stroke-linejoin:miter;stroke-miterlimit:4;stroke-dasharray:none;stroke-opacity:1"
       d="m 125.75607,127.86413 -5.54502,-11.994 -5.86763,11.87657"
       id="path1071-7-8"
       inkscape:connector-curvature="0"
       sodipodi:nodetypes="ccc" />
    <path
       style="fill:none;stroke:#000000;stroke-width:1.86500013;stroke-linecap:round;stroke-linejoin:miter;stroke-miterlimit:4;stroke-dasharray:none;stroke-opacity:1"
       d="m 179.25195,132.66647 26.1757,-19.61025 -34.74502,-17.105257"
       id="path886-2-3"
       inkscape:connector-curvature="0"
       sodipodi:nodetypes="ccc" />
    <path
       style="fill:none;stroke:#000000;stroke-width:1.90145445;stroke-linecap:round;stroke-linejoin:miter;stroke-miterlimit:4;stroke-dasharray:none;stroke-opacity:1"
       d="M 178.59493,140.46599 217.31975,112.35103 173.82399,91.997762"
       id="path886-3-9-6"
       inkscape:connector-curvature="0"
       sodipodi:nodetypes="ccc" />
    <ellipse
       style="fill:#dd55ff;fill-opacity:1;stroke:#000000;stroke-width:1.28206062;stroke-linecap:round;stroke-linejoin:bevel;stroke-miterlimit:4;stroke-dasharray:none;stroke-dashoffset:0;stroke-opacity:1"
       id="path903-3-1"
       cx="170.45795"
       cy="-93.087646"
       rx="10.98225"
       ry="10.581347"
       transform="scale(1,-1)" />
    <path
       sodipodi:nodetypes="cc"
       inkscape:connector-curvature="0"
       id="path1128-6-9-0"
       d="m 126.01465,140.90812 c 7.13376,4.41634 7.70353,3.02241 13.28869,0.30973"
       style="fill:none;stroke:#000000;stroke-width:0.99979258;stroke-linecap:round;stroke-linejoin:miter;stroke-miterlimit:4;stroke-dasharray:none;stroke-opacity:1" />
    <ellipse
       style="fill:#ffffff;fill-opacity:1;stroke:#000000;stroke-width:1.46614218;stroke-linecap:round;stroke-linejoin:bevel;stroke-miterlimit:4;stroke-dasharray:none;stroke-dashoffset:0;stroke-opacity:1"
       id="path1801"
       cx="43.921139"
       cy="95.533241"
       rx="52.276768"
       ry="26.588802" />
    <text
       xml:space="preserve"
       style="font-style:normal;font-variant:normal;font-weight:normal;font-stretch:normal;font-size:16.37732315px;line-height:0.5;font-family:'1960s Hippie';-inkscape-font-specification:'1960s Hippie';letter-spacing:0px;word-spacing:0px;stroke-width:0.40943307"
       x="6.0228806"
       y="98.834023"
       id="text1805"><tspan
         sodipodi:role="line"
         id="tspan1803"
         x="6.0228806"
         y="98.834023"
         style="font-style:normal;font-variant:normal;font-weight:normal;font-stretch:normal;font-size:16.37735558px;font-family:Chilanka;-inkscape-font-specification:'Chilanka, Normal';font-variant-ligatures:normal;font-variant-caps:normal;font-variant-numeric:normal;font-feature-settings:normal;text-align:start;writing-mode:lr-tb;text-anchor:start;stroke-width:0.40943307">U so fine !!</tspan></text>
    <path
       style="fill:none;stroke:#000000;stroke-width:1.06500006;stroke-linecap:butt;stroke-linejoin:miter;stroke-miterlimit:4;stroke-dasharray:none;stroke-opacity:1"
       d="m 69.258619,119.28789 13.109618,4.78512 -3.20722,-8.41898"
       id="path1807"
       inkscape:connector-curvature="0"
       sodipodi:nodetypes="ccc" />
  </g>
</svg>
