<?xml version="1.0" encoding="UTF-8" standalone="no"?>
<!-- Created with Inkscape (http://www.inkscape.org/) -->

<svg
   xmlns:dc="http://purl.org/dc/elements/1.1/"
   xmlns:cc="http://creativecommons.org/ns#"
   xmlns:rdf="http://www.w3.org/1999/02/22-rdf-syntax-ns#"
   xmlns:svg="http://www.w3.org/2000/svg"
   xmlns="http://www.w3.org/2000/svg"
   xmlns:sodipodi="http://sodipodi.sourceforge.net/DTD/sodipodi-0.dtd"
   xmlns:inkscape="http://www.inkscape.org/namespaces/inkscape"
   width="124.92872mm"
   height="94.137161mm"
   viewBox="0 0 124.92872 94.137159"
   version="1.1"
   id="svg1123"
   inkscape:version="0.92.3 (2405546, 2018-03-11)"
   sodipodi:docname="sliminou_corps_quiseduplique_sansmains_avecbouche.svg">
  <defs
     id="defs1117" />
  <sodipodi:namedview
     id="base"
     pagecolor="#ffffff"
     bordercolor="#666666"
     borderopacity="1.0"
     inkscape:pageopacity="0.0"
     inkscape:pageshadow="2"
     inkscape:zoom="0.98994949"
     inkscape:cx="59.975312"
     inkscape:cy="151.45412"
     inkscape:document-units="mm"
     inkscape:current-layer="layer1"
     showgrid="false"
     inkscape:window-width="1853"
     inkscape:window-height="1025"
     inkscape:window-x="67"
     inkscape:window-y="27"
     inkscape:window-maximized="1" />
  <metadata
     id="metadata1120">
    <rdf:RDF>
      <cc:Work
         rdf:about="">
        <dc:format>image/svg+xml</dc:format>
        <dc:type
           rdf:resource="http://purl.org/dc/dcmitype/StillImage" />
        <dc:title></dc:title>
      </cc:Work>
    </rdf:RDF>
  </metadata>
  <g
     inkscape:label="Calque 1"
     inkscape:groupmode="layer"
     id="layer1"
     transform="translate(-62.040337,-53.204197)">
    <ellipse
       style="fill:#ffb380;fill-opacity:1;stroke:#000000;stroke-width:1.58749998;stroke-linecap:round;stroke-linejoin:bevel;stroke-miterlimit:4;stroke-dasharray:none;stroke-dashoffset:0;stroke-opacity:1"
       id="path855-3"
       ry="43.297028"
       rx="46.21162"
       cy="103.25058"
       cx="109.04571" />
    <path
       transform="rotate(26.011262)"
       d="m 125.66205,52.594208 a 5.4729891,2.3140404 0 0 1 -5.40283,2.31385 5.4729891,2.3140404 0 0 1 -5.54135,-2.254527 5.4729891,2.3140404 0 0 1 5.26076,-2.371653 5.4729891,2.3140404 0 0 1 5.67622,2.193723 l -5.46579,0.118607 z"
       sodipodi:end="6.2319075"
       sodipodi:start="0"
       sodipodi:ry="2.3140404"
       sodipodi:rx="5.4729891"
       sodipodi:cy="52.594208"
       sodipodi:cx="120.18906"
       sodipodi:type="arc"
       id="path1100-2-7-0-2-3"
       style="fill:#ffd5d5;fill-opacity:1;stroke:#ffd5d5;stroke-width:0.24012437;stroke-linejoin:bevel;stroke-miterlimit:10;stroke-dasharray:none;stroke-dashoffset:0;stroke-opacity:1" />
    <path
       style="fill:none;stroke:#ffe6d5;stroke-width:2.89071512;stroke-linecap:round;stroke-linejoin:miter;stroke-miterlimit:4;stroke-dasharray:none;stroke-opacity:1"
       d="m 117.83886,64.873103 c 12.49807,2.280618 22.80985,8.879958 29.69534,22.24759"
       id="path1053-2"
       inkscape:connector-curvature="0"
       sodipodi:nodetypes="cc" />
    <path
       d="m 139.56528,129.24495 a 1.5035011,1.2934349 0 0 1 -1.49341,1.29341 1.5035011,1.2934349 0 0 1 -1.51345,-1.27606 1.5035011,1.2934349 0 0 1 1.47311,-1.31052 1.5035011,1.2934349 0 0 1 1.53321,1.25848 l -1.50296,0.0347 z"
       sodipodi:end="6.2563591"
       sodipodi:start="1.0962797e-14"
       sodipodi:ry="1.2934349"
       sodipodi:rx="1.5035011"
       sodipodi:cy="129.24495"
       sodipodi:cx="138.06178"
       sodipodi:type="arc"
       id="path1413-9-6-5-9"
       style="fill:#ececec;fill-opacity:0.97989951;stroke:#ececec;stroke-width:0.04741292;stroke-linecap:round;stroke-linejoin:bevel;stroke-miterlimit:4;stroke-dasharray:none;stroke-dashoffset:0;stroke-opacity:1" />
    <path
       d="m 138.37819,131.49283 a 0.59805208,0.51449341 0 0 1 -0.59404,0.51448 0.59805208,0.51449341 0 0 1 -0.60201,-0.50758 0.59805208,0.51449341 0 0 1 0.58596,-0.52129 0.59805208,0.51449341 0 0 1 0.60987,0.50059 l -0.59783,0.0138 z"
       sodipodi:end="6.2563591"
       sodipodi:start="1.0962797e-14"
       sodipodi:ry="0.51449341"
       sodipodi:rx="0.59805208"
       sodipodi:cy="131.49283"
       sodipodi:cx="137.78014"
       sodipodi:type="arc"
       id="path1413-9-3-2-9-7"
       style="fill:#ececec;fill-opacity:0.97989951;stroke:#ececec;stroke-width:0.01885958;stroke-linecap:round;stroke-linejoin:bevel;stroke-miterlimit:4;stroke-dasharray:none;stroke-dashoffset:0;stroke-opacity:1" />
    <path
       d="m -20.577251,-115.25493 a 3.4875932,3.4207532 0 0 1 -3.464204,3.42068 3.4875932,3.4207532 0 0 1 -3.510669,-3.3748 3.4875932,3.4207532 0 0 1 3.417115,-3.46594 3.4875932,3.4207532 0 0 1 3.556503,3.32831 l -3.486338,0.0918 z"
       sodipodi:end="6.2563591"
       sodipodi:start="1.0962797e-14"
       sodipodi:ry="3.4207532"
       sodipodi:rx="3.4875932"
       sodipodi:cy="-115.25493"
       sodipodi:cx="-24.064844"
       sodipodi:type="arc"
       id="path1413-0-7-2-3"
       style="fill:#ececec;fill-opacity:0.97989951;stroke:#ececec;stroke-width:0.1174347;stroke-linecap:round;stroke-linejoin:bevel;stroke-miterlimit:4;stroke-dasharray:none;stroke-dashoffset:0;stroke-opacity:1"
       transform="rotate(153.28411)"
       inkscape:transform-center-x="-3.8735449"
       inkscape:transform-center-y="15.825388" />
    <path
       d="m -16.963532,-115.29535 a 1.5035011,1.2934349 0 0 1 -1.493418,1.29341 1.5035011,1.2934349 0 0 1 -1.513449,-1.27606 1.5035011,1.2934349 0 0 1 1.473118,-1.31052 1.5035011,1.2934349 0 0 1 1.533208,1.25848 l -1.50296,0.0347 z"
       sodipodi:end="6.2563591"
       sodipodi:start="1.0962797e-14"
       sodipodi:ry="1.2934349"
       sodipodi:rx="1.5035011"
       sodipodi:cy="-115.29535"
       sodipodi:cx="-18.467033"
       sodipodi:type="arc"
       id="path1413-9-6-5-2-6"
       style="fill:#ececec;fill-opacity:0.97989951;stroke:#ececec;stroke-width:0.04741292;stroke-linecap:round;stroke-linejoin:bevel;stroke-miterlimit:4;stroke-dasharray:none;stroke-dashoffset:0;stroke-opacity:1"
       transform="rotate(153.28411)"
       inkscape:transform-center-x="1.1085073"
       inkscape:transform-center-y="18.378089" />
    <path
       d="m -19.048314,-112.66952 a 0.59805208,0.51449341 0 0 1 -0.594041,0.51448 0.59805208,0.51449341 0 0 1 -0.602009,-0.50758 0.59805208,0.51449341 0 0 1 0.585966,-0.52129 0.59805208,0.51449341 0 0 1 0.609869,0.50059 l -0.597837,0.0138 z"
       sodipodi:end="6.2563591"
       sodipodi:start="1.0962797e-14"
       sodipodi:ry="0.51449341"
       sodipodi:rx="0.59805208"
       sodipodi:cy="-112.66952"
       sodipodi:cx="-19.646366"
       sodipodi:type="arc"
       id="path1413-9-3-2-9-8-1"
       style="fill:#ececec;fill-opacity:0.97989951;stroke:#ececec;stroke-width:0.01885958;stroke-linecap:round;stroke-linejoin:bevel;stroke-miterlimit:4;stroke-dasharray:none;stroke-dashoffset:0;stroke-opacity:1"
       transform="rotate(153.28411)"
       inkscape:transform-center-x="1.2355603"
       inkscape:transform-center-y="15.502378" />
    <path
       style="fill:none;stroke:#000000;stroke-width:1.26499999;stroke-linecap:butt;stroke-linejoin:miter;stroke-miterlimit:4;stroke-dasharray:none;stroke-opacity:1"
       d="m 125.27385,78.559722 -11.13649,7.112109 12.55947,4.21209"
       id="path1071-7"
       inkscape:connector-curvature="0"
       sodipodi:nodetypes="ccc" />
    <path
       style="fill:none;stroke:#000000;stroke-width:1.26499999;stroke-linecap:butt;stroke-linejoin:miter;stroke-miterlimit:4;stroke-dasharray:none;stroke-opacity:1"
       d="M 88.163042,89.402615 100.98199,86.196666 90.411146,78.212963"
       id="path1071-7-8"
       inkscape:connector-curvature="0"
       sodipodi:nodetypes="ccc" />
    <path
       style="fill:none;stroke:#000000;stroke-width:1.58749998;stroke-linecap:round;stroke-linejoin:miter;stroke-miterlimit:4;stroke-dasharray:none;stroke-opacity:1"
       d="m 117.06964,103.32262 c 1.15439,1.26465 9.65815,18.9116 -7.71557,7.59911"
       id="path912"
       inkscape:connector-curvature="0" />
    <path
       style="fill:none;stroke:#000000;stroke-width:1.58749998;stroke-linecap:round;stroke-linejoin:miter;stroke-miterlimit:4;stroke-dasharray:none;stroke-opacity:1"
       d="m 109.35407,110.92173 c -1.25629,1.16353 -18.841005,9.79525 -7.65499,-7.66018"
       id="path912-9"
       inkscape:connector-curvature="0" />
    <path
       d="m 135.11845,132.11583 a 1.5035011,1.2934349 0 0 1 -1.49342,1.29341 1.5035011,1.2934349 0 0 1 -1.51345,-1.27606 1.5035011,1.2934349 0 0 1 1.47312,-1.31052 1.5035011,1.2934349 0 0 1 1.5332,1.25848 l -1.50296,0.0347 z"
       sodipodi:end="6.2563591"
       sodipodi:start="1.0962797e-14"
       sodipodi:ry="1.2934349"
       sodipodi:rx="1.5035011"
       sodipodi:cy="132.11583"
       sodipodi:cx="133.61494"
       sodipodi:type="arc"
       id="path1413-9-6-5-9-6"
       style="fill:#ececec;fill-opacity:0.97989951;stroke:#ececec;stroke-width:0.04741292;stroke-linecap:round;stroke-linejoin:bevel;stroke-miterlimit:4;stroke-dasharray:none;stroke-dashoffset:0;stroke-opacity:1" />
    <path
       d="m 135.60442,135.47139 a 0.33110327,0.28484216 0 0 1 -0.32888,0.28484 0.33110327,0.28484216 0 0 1 -0.3333,-0.28102 0.33110327,0.28484216 0 0 1 0.32441,-0.2886 0.33110327,0.28484216 0 0 1 0.33765,0.27714 l -0.33098,0.008 z"
       sodipodi:end="6.2563591"
       sodipodi:start="1.0962797e-14"
       sodipodi:ry="0.28484216"
       sodipodi:rx="0.33110327"
       sodipodi:cy="135.47139"
       sodipodi:cx="135.27332"
       sodipodi:type="arc"
       id="path1413-9-3-2-9-7-4"
       style="fill:#ececec;fill-opacity:0.97989951;stroke:#ececec;stroke-width:0.01044135;stroke-linecap:round;stroke-linejoin:bevel;stroke-miterlimit:4;stroke-dasharray:none;stroke-dashoffset:0;stroke-opacity:1" />
    <path
       style="fill:#ffb380;fill-opacity:1;stroke:#ffb380;stroke-width:2.01083326;stroke-linecap:round;stroke-linejoin:bevel;stroke-miterlimit:4;stroke-dasharray:none;stroke-dashoffset:0;stroke-opacity:1"
       d="m 163.9849,131.22887 c -1.20424,-0.1034 -3.89619,-0.46111 -5.23193,-0.69524 -1.23389,-0.21627 -4.04284,-0.47528 -13.89062,-1.28086 -6.78918,-0.55537 -12.3496,-1.01448 -12.35649,-1.02025 -0.007,-0.006 0.23622,-11.44899 0.54023,-25.42939 0.30402,-13.980395 0.55416,-25.668295 0.55587,-25.973105 l 0.003,-0.55421 0.23685,0.15519 c 0.23156,0.15172 0.24371,0.14727 0.54334,-0.19925 5.44606,-6.29824 10.76617,-11.29025 16.0908,-15.09845 4.96332,-3.54979 9.68851,-5.74968 13.59612,-6.32991 1.24934,-0.18551 3.47114,-0.1875 4.52309,-0.004 6.58863,1.14896 11.20449,7.54641 13.80684,19.13587 0.4649,2.0704 0.57842,2.7411 0.95163,5.62239 1.83762,14.18705 2.25905,25.175875 1.26827,33.071015 -1.13424,9.03834 -4.05119,14.46353 -9.14462,17.00789 -1.45643,0.72754 -3.69105,1.33769 -5.701,1.55664 -0.83047,0.0905 -4.86418,0.11534 -5.79149,0.0357 z"
       id="path904"
       inkscape:connector-curvature="0" />
    <path
       style="fill:none;stroke:#000000;stroke-width:1.58700001;stroke-linecap:round;stroke-linejoin:miter;stroke-miterlimit:4;stroke-dasharray:none;stroke-opacity:1"
       d="m 133.60496,76.275815 c 0,0 41.00754,-50.491686 50.36199,0.55679 7.11055,51.272535 -3.43539,58.949045 -26.67324,54.488265 l -24.82974,-2.03548"
       id="path886-0"
       inkscape:connector-curvature="0"
       sodipodi:nodetypes="cccc" />
    <path
       transform="matrix(0.9840599,-0.17783734,0.34858149,0.93727848,0,0)"
       d="m 101.86226,124.68674 a 7.7231617,2.3898864 0 0 1 -7.624157,2.38969 7.7231617,2.3898864 0 0 1 -7.819627,-2.32843 7.7231617,2.3898864 0 0 1 7.423676,-2.44938 7.7231617,2.3898864 0 0 1 8.009958,2.26562 l -7.713011,0.1225 z"
       sodipodi:end="6.2319075"
       sodipodi:start="0"
       sodipodi:ry="2.3898864"
       sodipodi:rx="7.7231617"
       sodipodi:cy="124.68674"
       sodipodi:cx="94.139099"
       sodipodi:type="arc"
       id="path1100-4-7-1-2"
       style="fill:#ffd5d5;fill-opacity:1;stroke:#ffd5d5;stroke-width:0.2898843;stroke-linejoin:bevel;stroke-miterlimit:10;stroke-dasharray:none;stroke-dashoffset:0;stroke-opacity:1" />
    <path
       style="fill:none;stroke:#000000;stroke-width:1.58749998;stroke-linecap:butt;stroke-linejoin:miter;stroke-miterlimit:4;stroke-dasharray:none;stroke-opacity:1"
       d="m 158.15398,82.316485 -4.54313,-6.635497 -2.3174,7.721731"
       id="path1071-7-8-3"
       inkscape:connector-curvature="0"
       sodipodi:nodetypes="ccc" />
    <path
       style="fill:none;stroke:#000000;stroke-width:1.58749998;stroke-linecap:butt;stroke-linejoin:miter;stroke-miterlimit:4;stroke-dasharray:none;stroke-opacity:1"
       d="m 171.72258,80.195486 -4.84205,-6.420627 -1.96158,7.819698"
       id="path1071-7-8-3-0"
       inkscape:connector-curvature="0"
       sodipodi:nodetypes="ccc" />
    <ellipse
       style="fill:#ffffff;fill-opacity:1;stroke:#000000;stroke-width:1.58749998;stroke-linecap:round;stroke-linejoin:bevel;stroke-miterlimit:4;stroke-dasharray:none;stroke-dashoffset:0;stroke-opacity:1"
       id="path1043-7"
       cx="137.4774"
       cy="134.27492"
       rx="4.4979315"
       ry="7.8297329"
       transform="rotate(-13.666049)" />
    <path
       style="fill:#ffaaaa;stroke:#000000;stroke-width:0.60148799;stroke-linecap:butt;stroke-linejoin:miter;stroke-miterlimit:4;stroke-dasharray:none;stroke-opacity:1"
       d="m 160.50171,94.789913 7.44619,-1.810512"
       id="path1045-5"
       inkscape:connector-curvature="0" />
    <path
       style="fill:#ffaaaa;fill-opacity:1;stroke:#000000;stroke-width:0.30379727;stroke-linecap:round;stroke-linejoin:bevel;stroke-miterlimit:4;stroke-dasharray:none;stroke-dashoffset:0;stroke-opacity:1"
       d="m 166.45081,105.31802 c -1.75742,-0.11332 -3.54195,-1.91614 -4.65398,-4.70172 -0.58394,-1.462744 -0.94746,-3.56273 -0.87998,-5.082777 l 0.0221,-0.496673 3.45587,-0.81795 3.45589,-0.817953 0.24447,0.413416 c 0.77646,1.313116 1.47812,3.66417 1.58577,5.313541 0.17938,2.747856 -0.6095,5.082556 -1.98864,5.885406 -0.45029,0.26216 -0.75214,0.33624 -1.24141,0.30493 z"
       id="path1047-9"
       inkscape:connector-curvature="0" />
    <path
       d="m -103.07148,-187.31816 a 1.9782392,1.9403261 0 0 1 -1.96497,1.94028 1.9782392,1.9403261 0 0 1 -1.99133,-1.91426 1.9782392,1.9403261 0 0 1 1.93826,-1.96595 1.9782392,1.9403261 0 0 1 2.01733,1.88788 l -1.97753,0.052 z"
       sodipodi:end="6.2563591"
       sodipodi:start="1.0962797e-14"
       sodipodi:ry="1.9403261"
       sodipodi:rx="1.9782392"
       sodipodi:cy="-187.31816"
       sodipodi:cx="-105.04972"
       sodipodi:type="arc"
       id="path1413-0-7-2-3-0"
       style="fill:#ececec;fill-opacity:0.97989951;stroke:#ececec;stroke-width:0.06661154;stroke-linecap:round;stroke-linejoin:bevel;stroke-miterlimit:4;stroke-dasharray:none;stroke-dashoffset:0;stroke-opacity:1"
       transform="rotate(153.28411)"
       inkscape:transform-center-x="-2.1971649"
       inkscape:transform-center-y="8.9765105" />
    <path
       d="m -102.75092,-191.33646 a 0.93046558,0.80046278 0 0 1 -0.92423,0.80045 0.93046558,0.80046278 0 0 1 -0.93662,-0.78971 0.93046558,0.80046278 0 0 1 0.91166,-0.81104 0.93046558,0.80046278 0 0 1 0.94885,0.77883 l -0.93013,0.0215 z"
       sodipodi:end="6.2563591"
       sodipodi:start="1.0962797e-14"
       sodipodi:ry="0.80046278"
       sodipodi:rx="0.93046558"
       sodipodi:cy="-191.33646"
       sodipodi:cx="-103.68139"
       sodipodi:type="arc"
       id="path1413-9-6-5-2-6-5"
       style="fill:#ececec;fill-opacity:0.97989951;stroke:#ececec;stroke-width:0.02934224;stroke-linecap:round;stroke-linejoin:bevel;stroke-miterlimit:4;stroke-dasharray:none;stroke-dashoffset:0;stroke-opacity:1"
       transform="rotate(153.28411)"
       inkscape:transform-center-x="0.68601518"
       inkscape:transform-center-y="11.37357" />
    <path
       d="m -99.89385,-188.50343 a 0.45293602,0.38965273 0 0 1 -0.4499,0.38964 0.45293602,0.38965273 0 0 1 -0.45593,-0.38442 0.45293602,0.38965273 0 0 1 0.44378,-0.3948 0.45293602,0.38965273 0 0 1 0.461887,0.37913 l -0.452777,0.0104 z"
       sodipodi:end="6.2563591"
       sodipodi:start="1.0962797e-14"
       sodipodi:ry="0.38965273"
       sodipodi:rx="0.45293602"
       sodipodi:cy="-188.50343"
       sodipodi:cx="-100.34679"
       sodipodi:type="arc"
       id="path1413-9-6-5-2-6-5-9"
       style="fill:#ececec;fill-opacity:0.97989951;stroke:#ececec;stroke-width:0.01428334;stroke-linecap:round;stroke-linejoin:bevel;stroke-miterlimit:4;stroke-dasharray:none;stroke-dashoffset:0;stroke-opacity:1"
       transform="rotate(153.28411)"
       inkscape:transform-center-x="0.33394523"
       inkscape:transform-center-y="5.5364753" />
  </g>
</svg>
