<?xml version="1.0" encoding="UTF-8" standalone="no"?>
<!-- Created with Inkscape (http://www.inkscape.org/) -->

<svg
   xmlns:dc="http://purl.org/dc/elements/1.1/"
   xmlns:cc="http://creativecommons.org/ns#"
   xmlns:rdf="http://www.w3.org/1999/02/22-rdf-syntax-ns#"
   xmlns:svg="http://www.w3.org/2000/svg"
   xmlns="http://www.w3.org/2000/svg"
   xmlns:sodipodi="http://sodipodi.sourceforge.net/DTD/sodipodi-0.dtd"
   xmlns:inkscape="http://www.inkscape.org/namespaces/inkscape"
   width="128.89224mm"
   height="124.95591mm"
   viewBox="0 0 128.89225 124.95591"
   version="1.1"
   id="svg1252"
   inkscape:version="0.92.3 (2405546, 2018-03-11)"
   sodipodi:docname="aurelie.svg">
  <defs
     id="defs1246">
    <clipPath
       id="clipPath954"
       clipPathUnits="userSpaceOnUse">
      <rect
         ry="3.9706812"
         rx="13.312986"
         y="93.459831"
         x="248.23587"
         height="13.134672"
         width="36.474705"
         id="rect956"
         style="fill:#ffffff;fill-opacity:1;stroke:#000000;stroke-width:0.366;stroke-linecap:round;stroke-linejoin:bevel;stroke-miterlimit:4;stroke-dasharray:none;stroke-dashoffset:0;stroke-opacity:1" />
    </clipPath>
    <clipPath
       id="clipPath954-6"
       clipPathUnits="userSpaceOnUse">
      <rect
         ry="3.9706812"
         rx="13.312986"
         y="93.459831"
         x="248.23587"
         height="13.134672"
         width="36.474705"
         id="rect956-7"
         style="fill:#ffffff;fill-opacity:1;stroke:#000000;stroke-width:0.366;stroke-linecap:round;stroke-linejoin:bevel;stroke-miterlimit:4;stroke-dasharray:none;stroke-dashoffset:0;stroke-opacity:1" />
    </clipPath>
  </defs>
  <sodipodi:namedview
     id="base"
     pagecolor="#ffffff"
     bordercolor="#666666"
     borderopacity="1.0"
     inkscape:pageopacity="0.0"
     inkscape:pageshadow="2"
     inkscape:zoom="0.98994949"
     inkscape:cx="115.66576"
     inkscape:cy="136.87862"
     inkscape:document-units="mm"
     inkscape:current-layer="layer1"
     showgrid="false"
     inkscape:window-width="1853"
     inkscape:window-height="1025"
     inkscape:window-x="67"
     inkscape:window-y="27"
     inkscape:window-maximized="1"
     showguides="false" />
  <metadata
     id="metadata1249">
    <rdf:RDF>
      <cc:Work
         rdf:about="">
        <dc:format>image/svg+xml</dc:format>
        <dc:type
           rdf:resource="http://purl.org/dc/dcmitype/StillImage" />
        <dc:title></dc:title>
      </cc:Work>
    </rdf:RDF>
  </metadata>
  <g
     inkscape:label="Calque 1"
     inkscape:groupmode="layer"
     id="layer1"
     transform="translate(-50.29237,-42.513816)">
    <g
       transform="matrix(0.93006921,0,0,0.93006921,-1.2637345,-2.0769112)"
       id="layer1-0"
       inkscape:label="Layer 1">
      <path
         sodipodi:arc-type="slice"
         style="fill:#f9f9f9;fill-opacity:1;stroke:#000000;stroke-width:1.5886718;stroke-linejoin:bevel;stroke-miterlimit:10;stroke-dasharray:none;stroke-dashoffset:0;stroke-opacity:1"
         id="path1130-0-2-3-1-3"
         sodipodi:type="arc"
         sodipodi:cx="-85.570404"
         sodipodi:cy="180.54361"
         sodipodi:rx="9.8969059"
         sodipodi:ry="18.451059"
         sodipodi:start="1.0962796e-14"
         sodipodi:end="3.1258055"
         d="m -75.673498,180.54361 a 9.8969059,18.451059 0 0 1 -9.818785,18.45048 9.8969059,18.451059 0 0 1 -9.973794,-18.1592 l 9.895673,-0.29128 z"
         transform="matrix(0.35842917,-0.93355692,0.95163886,0.30721895,0,0)"
         inkscape:transform-center-x="1.5670991"
         inkscape:transform-center-y="-12.777261" />
      <path
         sodipodi:arc-type="slice"
         style="fill:#f9f9f9;fill-opacity:1;stroke:#000000;stroke-width:1.5886718;stroke-linejoin:bevel;stroke-miterlimit:10;stroke-dasharray:none;stroke-dashoffset:0;stroke-opacity:1"
         id="path1130-0-2-0-6"
         sodipodi:type="arc"
         sodipodi:cx="102.90677"
         sodipodi:cy="-116.68662"
         sodipodi:rx="9.8969059"
         sodipodi:ry="18.451059"
         sodipodi:start="1.0962796e-14"
         sodipodi:end="3.1258055"
         d="m 112.80367,-116.68662 a 9.8969059,18.451059 0 0 1 -9.81878,18.450482 9.8969059,18.451059 0 0 1 -9.973794,-18.159212 l 9.895674,-0.29127 z"
         transform="matrix(-0.35842917,0.93355692,-0.95163886,-0.30721895,0,0)"
         inkscape:transform-center-x="-1.5670583"
         inkscape:transform-center-y="12.777234" />
      <rect
         style="fill:#f9f9f9;fill-opacity:1;stroke:#000000;stroke-width:1.58749998;stroke-linejoin:bevel;stroke-miterlimit:10;stroke-dasharray:none;stroke-dashoffset:0;stroke-opacity:1"
         id="rect829-0-2-7"
         width="77.047516"
         height="86.024605"
         x="69.290657"
         y="87.540512"
         ry="31.030914"
         rx="25.556574"
         clip-path="none" />
      <rect
         rx="6.6510992"
         ry="5.9911337"
         y="106.62452"
         x="117.20148"
         height="11.982267"
         width="13.302198"
         id="rect829-0-9-0-3-3"
         style="fill:#000000;fill-opacity:1;stroke:#000000;stroke-width:0.55607498;stroke-linejoin:bevel;stroke-miterlimit:10;stroke-dasharray:none;stroke-dashoffset:0;stroke-opacity:0.743719" />
      <rect
         rx="3.5662634"
         ry="3.2123957"
         y="107.76129"
         x="118.47552"
         height="6.4247913"
         width="7.1325269"
         id="rect829-0-9-3-62-2-5"
         style="fill:#ffffff;fill-opacity:1;stroke:#ffffff;stroke-width:0.298163;stroke-linejoin:bevel;stroke-miterlimit:10;stroke-dasharray:none;stroke-dashoffset:0;stroke-opacity:0.743719" />
      <rect
         rx="1.5682021"
         ry="1.4125949"
         y="114.18608"
         x="125.60805"
         height="2.8251898"
         width="3.1364043"
         id="rect829-0-9-3-6-6-0-6"
         style="fill:#ffffff;fill-opacity:1;stroke:#ffffff;stroke-width:0.13111199;stroke-linejoin:bevel;stroke-miterlimit:10;stroke-dasharray:none;stroke-dashoffset:0;stroke-opacity:0.743719" />
      <rect
         rx="6.6510992"
         ry="5.9911337"
         y="106.88875"
         x="88.372513"
         height="11.982267"
         width="13.302198"
         id="rect829-0-9-0-8-1-9"
         style="fill:#000000;fill-opacity:1;stroke:#000000;stroke-width:0.55607498;stroke-linejoin:bevel;stroke-miterlimit:10;stroke-dasharray:none;stroke-dashoffset:0;stroke-opacity:0.743719" />
      <rect
         rx="3.5662634"
         ry="3.2123957"
         y="108.02552"
         x="89.646538"
         height="6.4247913"
         width="7.1325269"
         id="rect829-0-9-3-62-7-5-1"
         style="fill:#ffffff;fill-opacity:1;stroke:#ffffff;stroke-width:0.298163;stroke-linejoin:bevel;stroke-miterlimit:10;stroke-dasharray:none;stroke-dashoffset:0;stroke-opacity:0.743719" />
      <rect
         rx="1.5682021"
         ry="1.4125949"
         y="114.45031"
         x="96.779068"
         height="2.8251898"
         width="3.1364043"
         id="rect829-0-9-3-6-6-9-5-2"
         style="fill:#ffffff;fill-opacity:1;stroke:#ffffff;stroke-width:0.13111199;stroke-linejoin:bevel;stroke-miterlimit:10;stroke-dasharray:none;stroke-dashoffset:0;stroke-opacity:0.743719" />
      <path
         sodipodi:arc-type="slice"
         style="fill:#ffd5d5;fill-opacity:1;stroke:#ffd5d5;stroke-width:0.240124;stroke-linejoin:bevel;stroke-miterlimit:10;stroke-dasharray:none;stroke-dashoffset:0;stroke-opacity:1"
         id="path1100-4-7"
         sodipodi:type="arc"
         sodipodi:cx="99.171425"
         sodipodi:cy="150.91127"
         sodipodi:rx="5.4729886"
         sodipodi:ry="2.3140404"
         sodipodi:start="0"
         sodipodi:end="6.2319075"
         d="m 104.64441,150.91127 a 5.4729886,2.3140404 0 0 1 -5.402826,2.31385 5.4729886,2.3140404 0 0 1 -5.541349,-2.25453 5.4729886,2.3140404 0 0 1 5.26076,-2.37165 5.4729886,2.3140404 0 0 1 5.676225,2.19372 l -5.465795,0.11861 z"
         transform="rotate(-14.533951)" />
      <path
         sodipodi:arc-type="slice"
         style="fill:#ffd5d5;fill-opacity:1;stroke:#ffd5d5;stroke-width:0.240124;stroke-linejoin:bevel;stroke-miterlimit:10;stroke-dasharray:none;stroke-dashoffset:0;stroke-opacity:1"
         id="path1100-2-7-0"
         sodipodi:type="arc"
         sodipodi:cx="131.11163"
         sodipodi:cy="71.339722"
         sodipodi:rx="5.4729886"
         sodipodi:ry="2.3140404"
         sodipodi:start="0"
         sodipodi:end="6.2319075"
         d="m 136.58462,71.339722 a 5.4729886,2.3140404 0 0 1 -5.40283,2.31385 5.4729886,2.3140404 0 0 1 -5.54135,-2.254527 5.4729886,2.3140404 0 0 1 5.26076,-2.371653 5.4729886,2.3140404 0 0 1 5.67623,2.193723 l -5.4658,0.118607 z"
         transform="rotate(26.011263)" />
      <path
         style="fill:none;stroke:#000000;stroke-width:1.58749998;stroke-linecap:round;stroke-linejoin:miter;stroke-miterlimit:4;stroke-dasharray:none;stroke-opacity:1"
         d="m 102.65207,123.57232 c 7.36392,4.02087 7.85686,2.59795 13.28582,-0.41518"
         id="path1128-6-9"
         inkscape:connector-curvature="0"
         sodipodi:nodetypes="cc" />
      <path
         sodipodi:arc-type="slice"
         style="fill:#f9f9f9;fill-opacity:1;stroke:#000000;stroke-width:1.58749998;stroke-linejoin:bevel;stroke-miterlimit:10;stroke-dasharray:none;stroke-dashoffset:0;stroke-opacity:1"
         id="path1130-5-3"
         sodipodi:type="arc"
         sodipodi:cx="99.520096"
         sodipodi:cy="173.73592"
         sodipodi:rx="7.9955683"
         sodipodi:ry="7.7649765"
         sodipodi:start="1.0962796e-14"
         sodipodi:end="3.1258055"
         d="m 107.51566,173.73592 a 7.9955683,7.7649765 0 0 1 -7.932451,7.76473 7.9955683,7.7649765 0 0 1 -8.057685,-7.64215 l 7.994572,-0.12258 z" />
      <path
         sodipodi:arc-type="slice"
         style="fill:#f9f9f9;fill-opacity:1;stroke:#000000;stroke-width:1.58749998;stroke-linejoin:bevel;stroke-miterlimit:10;stroke-dasharray:none;stroke-dashoffset:0;stroke-opacity:1"
         id="path1130-0-6-6"
         sodipodi:type="arc"
         sodipodi:cx="116.12653"
         sodipodi:cy="173.62276"
         sodipodi:rx="7.9955683"
         sodipodi:ry="7.7649765"
         sodipodi:start="1.0962796e-14"
         sodipodi:end="3.1258055"
         d="m 124.1221,173.62276 a 7.9955683,7.7649765 0 0 1 -7.93245,7.76473 7.9955683,7.7649765 0 0 1 -8.05769,-7.64215 l 7.99457,-0.12258 z" />
      <path
         sodipodi:arc-type="slice"
         style="fill:#ececec;fill-opacity:0.97989999;stroke:#ececec;stroke-width:0.117435;stroke-linecap:round;stroke-linejoin:bevel;stroke-miterlimit:4;stroke-dasharray:none;stroke-dashoffset:0;stroke-opacity:1"
         id="path1413-0"
         sodipodi:type="arc"
         sodipodi:cx="129.27199"
         sodipodi:cy="162.28522"
         sodipodi:rx="3.4875932"
         sodipodi:ry="3.4207532"
         sodipodi:start="1.0962797e-14"
         sodipodi:end="6.2563591"
         d="m 132.75958,162.28522 a 3.4875932,3.4207532 0 0 1 -3.4642,3.42067 3.4875932,3.4207532 0 0 1 -3.51067,-3.37479 3.4875932,3.4207532 0 0 1 3.41711,-3.46594 3.4875932,3.4207532 0 0 1 3.55651,3.3283 l -3.48634,0.0918 z" />
      <path
         sodipodi:arc-type="slice"
         style="fill:#ececec;fill-opacity:0.97989999;stroke:#ececec;stroke-width:0.0474129;stroke-linecap:round;stroke-linejoin:bevel;stroke-miterlimit:4;stroke-dasharray:none;stroke-dashoffset:0;stroke-opacity:1"
         id="path1413-9-6"
         sodipodi:type="arc"
         sodipodi:cx="134.8698"
         sodipodi:cy="162.2448"
         sodipodi:rx="1.5035011"
         sodipodi:ry="1.2934349"
         sodipodi:start="1.0962797e-14"
         sodipodi:end="6.2563591"
         d="m 136.3733,162.2448 a 1.5035011,1.2934349 0 0 1 -1.49342,1.2934 1.5035011,1.2934349 0 0 1 -1.51345,-1.27605 1.5035011,1.2934349 0 0 1 1.47312,-1.31053 1.5035011,1.2934349 0 0 1 1.53321,1.25848 l -1.50296,0.0347 z" />
      <path
         sodipodi:arc-type="slice"
         style="fill:#ececec;fill-opacity:0.97989999;stroke:#ececec;stroke-width:0.0188596;stroke-linecap:round;stroke-linejoin:bevel;stroke-miterlimit:4;stroke-dasharray:none;stroke-dashoffset:0;stroke-opacity:1"
         id="path1413-9-3-2"
         sodipodi:type="arc"
         sodipodi:cx="133.69046"
         sodipodi:cy="164.87062"
         sodipodi:rx="0.59805208"
         sodipodi:ry="0.51449341"
         sodipodi:start="1.0962797e-14"
         sodipodi:end="6.2563591"
         d="m 134.28851,164.87062 a 0.59805208,0.51449341 0 0 1 -0.59404,0.51448 0.59805208,0.51449341 0 0 1 -0.60201,-0.50758 0.59805208,0.51449341 0 0 1 0.58597,-0.52129 0.59805208,0.51449341 0 0 1 0.60987,0.50059 l -0.59784,0.0138 z" />
      <ellipse
         style="fill:#ffffff;fill-opacity:1;stroke:#000000;stroke-width:0.80497694;stroke-linecap:round;stroke-linejoin:bevel;stroke-miterlimit:4;stroke-dasharray:none;stroke-dashoffset:0;stroke-opacity:1"
         id="path916-6"
         cx="266.6622"
         cy="104.61012"
         rx="15.827884"
         ry="5.079185"
         clip-path="url(#clipPath954-6)"
         transform="matrix(-1.7267575,0,0,-1.7267575,568.11105,274.87604)" />
    </g>
    <text
       xml:space="preserve"
       style="font-style:normal;font-variant:normal;font-weight:normal;font-stretch:normal;font-size:8.16928577px;line-height:0.5;font-family:Drexs;-inkscape-font-specification:Drexs;letter-spacing:0px;word-spacing:0px;fill:#abedcc;fill-opacity:1;stroke:#abedcc;stroke-width:0.20423214;stroke-opacity:1"
       x="85.82946"
       y="48.950306"
       id="text829"><tspan
         sodipodi:role="line"
         x="85.82946"
         y="48.950306"
         style="fill:#abedcc;fill-opacity:1;stroke:#abedcc;stroke-width:0.20423214;stroke-opacity:1"
         id="tspan831">Aurélie Louis-Napoléon</tspan></text>
    <path
       inkscape:label="hud_mob_pointer"
       id="path1546"
       d="M 75.5332,69.734368 85.59934,52.299306 h 87.1048"
       style="fill:none;fill-opacity:1;stroke:#abedcc;stroke-width:2.10720515;stroke-linecap:round;stroke-linejoin:round;stroke-dasharray:none;stroke-opacity:1"
       inkscape:connector-curvature="0" />
    <g
       id="g2118"
       transform="matrix(0.41661927,0.33255469,-0.63169464,0.7913771,122.69311,13.084537)"
       style="stroke:#000000;stroke-width:2.16076207;stroke-miterlimit:4;stroke-dasharray:none;stroke-opacity:1">
      <path
         inkscape:connector-curvature="0"
         id="path2072"
         d="m 151.51408,67.705992 v 24.997327 l 6.52422,8.940651"
         style="fill:none;stroke:#000000;stroke-width:2.16076207;stroke-linecap:round;stroke-linejoin:miter;stroke-miterlimit:4;stroke-dasharray:none;stroke-opacity:1" />
      <path
         inkscape:connector-curvature="0"
         id="path2072-0"
         d="m 164.56252,67.705992 v 24.997327 l -6.52422,8.940651"
         style="fill:none;stroke:#000000;stroke-width:2.16076207;stroke-linecap:round;stroke-linejoin:miter;stroke-miterlimit:4;stroke-dasharray:none;stroke-opacity:1" />
      <path
         inkscape:connector-curvature="0"
         id="path2113"
         d="m 151.51408,67.705992 h 13.04844"
         style="fill:none;stroke:#000000;stroke-width:2.16076207;stroke-linecap:round;stroke-linejoin:miter;stroke-miterlimit:4;stroke-dasharray:none;stroke-opacity:1" />
    </g>
    <path
       style="fill:#abedcc;fill-opacity:1;stroke:#abedcc;stroke-width:0.56696427;stroke-linecap:round;stroke-linejoin:bevel;stroke-miterlimit:4;stroke-dasharray:none;stroke-dashoffset:0;stroke-opacity:1"
       d="m 126.76253,140.68651 1.2139,-3.8306 7.41195,-9.28558 7.41195,-9.28558 2.25247,1.79798 2.25247,1.79796 -7.44285,9.32429 -7.44285,9.32429 -3.30118,1.9392 c -1.81565,1.06656 -3.36161,1.96383 -3.43546,1.99393 -0.0821,0.0334 0.33778,-1.43515 1.07957,-3.77589 z"
       id="path2124"
       inkscape:connector-curvature="0" />
    <path
       style="fill:none;stroke:#000000;stroke-width:0.26296556px;stroke-linecap:butt;stroke-linejoin:miter;stroke-opacity:1"
       d="m 139.38615,120.70702 6.34676,5.06612"
       id="path2126"
       inkscape:connector-curvature="0" />
    <path
       style="fill:none;stroke:#000000;stroke-width:0.26296556px;stroke-linecap:butt;stroke-linejoin:miter;stroke-opacity:1"
       d="m 138.92764,121.28145 6.34674,5.06611"
       id="path2126-3"
       inkscape:connector-curvature="0" />
    <path
       style="fill:none;stroke:#000000;stroke-width:0.28343949;stroke-linecap:round;stroke-linejoin:miter;stroke-miterlimit:4;stroke-dasharray:none;stroke-opacity:1"
       d="m 126.18014,140.35354 1.55601,-0.60327 -0.24058,1.72089 1.50989,-0.66305 -0.17561,1.76466 1.87254,-0.51433"
       id="path2143"
       inkscape:connector-curvature="0"
       sodipodi:nodetypes="cccccc" />
    <path
       style="fill:#000000;fill-opacity:1;stroke:#000000;stroke-width:0.17383125;stroke-linecap:round;stroke-linejoin:bevel;stroke-miterlimit:4;stroke-dasharray:none;stroke-dashoffset:0;stroke-opacity:1"
       d="m 125.43007,144.56272 c -0.0167,-0.0416 -0.0314,-0.10131 -0.0328,-0.13259 -0.008,-0.1889 0.32508,-1.36 0.98824,-3.47002 l 0.18918,-0.60196 0.48373,-0.18709 c 0.26604,-0.1029 0.48629,-0.18504 0.48944,-0.18253 0.003,0.003 -0.0483,0.38995 -0.11421,0.86098 -0.066,0.47103 -0.1188,0.85732 -0.11742,0.85842 0.002,0.001 0.3405,-0.14647 0.7536,-0.32793 0.41311,-0.18146 0.75373,-0.32783 0.75695,-0.32526 0.003,0.003 -0.0324,0.3887 -0.0792,0.8581 -0.066,0.662 -0.0806,0.85288 -0.0652,0.85099 0.0109,-0.001 0.21325,-0.0555 0.44962,-0.12035 0.23636,-0.0649 0.42095,-0.11134 0.41019,-0.1033 -0.0203,0.0152 -1.57418,0.92528 -2.38616,1.39757 -0.63491,0.36929 -1.23362,0.71303 -1.31168,0.75307 -0.0826,0.0424 -0.21148,0.0508 -0.26847,0.0175 -0.11347,-0.0663 -0.11452,-0.0673 -0.14582,-0.14555 z"
       id="path2221"
       inkscape:connector-curvature="0" />
  </g>
</svg>
