<?xml version="1.0" encoding="UTF-8" standalone="no"?>
<!-- Created with Inkscape (http://www.inkscape.org/) -->

<svg
   width="99.008682mm"
   height="88.866142mm"
   viewBox="0 0 99.008688 88.866142"
   version="1.1"
   id="svg1252"
   inkscape:version="1.3 (0e150ed6c4, 2023-07-21)"
   sodipodi:docname="aurelie.svg"
   xmlns:inkscape="http://www.inkscape.org/namespaces/inkscape"
   xmlns:sodipodi="http://sodipodi.sourceforge.net/DTD/sodipodi-0.dtd"
   xmlns="http://www.w3.org/2000/svg"
   xmlns:svg="http://www.w3.org/2000/svg"
   xmlns:rdf="http://www.w3.org/1999/02/22-rdf-syntax-ns#"
   xmlns:cc="http://creativecommons.org/ns#"
   xmlns:dc="http://purl.org/dc/elements/1.1/">
  <defs
     id="defs1246">
    <clipPath
       id="clipPath954"
       clipPathUnits="userSpaceOnUse">
      <rect
         ry="3.9706812"
         rx="13.312986"
         y="93.459831"
         x="248.23587"
         height="13.134672"
         width="36.474705"
         id="rect956"
         style="fill:#ffffff;fill-opacity:1;stroke:#000000;stroke-width:0.366;stroke-linecap:round;stroke-linejoin:bevel;stroke-miterlimit:4;stroke-dasharray:none;stroke-dashoffset:0;stroke-opacity:1" />
    </clipPath>
    <clipPath
       id="clipPath954-6"
       clipPathUnits="userSpaceOnUse">
      <rect
         ry="3.9706812"
         rx="13.312986"
         y="93.459831"
         x="248.23587"
         height="13.134672"
         width="36.474705"
         id="rect956-7"
         style="fill:#ffffff;fill-opacity:1;stroke:#000000;stroke-width:0.366;stroke-linecap:round;stroke-linejoin:bevel;stroke-miterlimit:4;stroke-dasharray:none;stroke-dashoffset:0;stroke-opacity:1" />
    </clipPath>
  </defs>
  <sodipodi:namedview
     id="base"
     pagecolor="#ffffff"
     bordercolor="#666666"
     borderopacity="1.0"
     inkscape:pageopacity="0.0"
     inkscape:pageshadow="2"
     inkscape:zoom="0.98994949"
     inkscape:cx="116.16754"
     inkscape:cy="0.50507627"
     inkscape:document-units="mm"
     inkscape:current-layer="layer1"
     showgrid="false"
     inkscape:window-width="1916"
     inkscape:window-height="1037"
     inkscape:window-x="0"
     inkscape:window-y="0"
     inkscape:window-maximized="1"
     showguides="false"
     inkscape:showpageshadow="2"
     inkscape:pagecheckerboard="0"
     inkscape:deskcolor="#d1d1d1" />
  <metadata
     id="metadata1249">
    <rdf:RDF>
      <cc:Work
         rdf:about="">
        <dc:format>image/svg+xml</dc:format>
        <dc:type
           rdf:resource="http://purl.org/dc/dcmitype/StillImage" />
        <dc:title />
      </cc:Work>
    </rdf:RDF>
  </metadata>
  <g
     inkscape:label="Calque 1"
     inkscape:groupmode="layer"
     id="layer1"
     transform="translate(-50.29237,-78.603581)">
    <path
       sodipodi:arc-type="slice"
       style="fill:#f9f9f9;fill-opacity:1;stroke:#000000;stroke-width:1.47757;stroke-linejoin:bevel;stroke-miterlimit:10;stroke-dasharray:none;stroke-dashoffset:0;stroke-opacity:1"
       id="path1130-0-2-3-1-3"
       sodipodi:type="arc"
       sodipodi:cx="-77.995827"
       sodipodi:cy="165.99101"
       sodipodi:rx="9.2048073"
       sodipodi:ry="17.160763"
       sodipodi:start="1.0962796e-14"
       sodipodi:end="3.1258055"
       d="m -68.791019,165.99101 a 9.2048073,17.160763 0 0 1 -9.13215,17.16023 9.2048073,17.160763 0 0 1 -9.276318,-16.88932 l 9.20366,-0.27091 z"
       transform="matrix(0.35842917,-0.93355693,0.95163886,0.30721895,0,0)"
       inkscape:transform-center-x="1.5670991"
       inkscape:transform-center-y="-12.777261" />
    <path
       sodipodi:arc-type="slice"
       style="fill:#f9f9f9;fill-opacity:1;stroke:#000000;stroke-width:1.47757;stroke-linejoin:bevel;stroke-miterlimit:10;stroke-dasharray:none;stroke-dashoffset:0;stroke-opacity:1"
       id="path1130-0-2-0-6"
       sodipodi:type="arc"
       sodipodi:cx="94.119843"
       sodipodi:cy="-106.5996"
       sodipodi:rx="9.2048073"
       sodipodi:ry="17.160763"
       sodipodi:start="1.0962796e-14"
       sodipodi:end="3.1258055"
       d="m 103.32465,-106.5996 a 9.2048073,17.160763 0 0 1 -9.132149,17.160226 9.2048073,17.160763 0 0 1 -9.276319,-16.889316 l 9.203661,-0.27091 z"
       transform="matrix(-0.35842917,0.93355693,-0.95163886,-0.30721895,0,0)"
       inkscape:transform-center-x="-1.5670583"
       inkscape:transform-center-y="12.777234" />
    <rect
       style="fill:#f9f9f9;fill-opacity:1;stroke:#000000;stroke-width:1.47648;stroke-linejoin:bevel;stroke-miterlimit:10;stroke-dasharray:none;stroke-dashoffset:0;stroke-opacity:1"
       id="rect829-0-2-7"
       width="71.659523"
       height="80.008835"
       x="63.181374"
       y="79.341827"
       ry="28.860897"
       rx="23.769382"
       clip-path="none" />
    <rect
       rx="6.1859827"
       ry="5.5721688"
       y="97.09127"
       x="107.74175"
       height="11.144338"
       width="12.371965"
       id="rect829-0-9-0-3-3"
       style="fill:#000000;fill-opacity:1;stroke:#000000;stroke-width:0.517188;stroke-linejoin:bevel;stroke-miterlimit:10;stroke-dasharray:none;stroke-dashoffset:0;stroke-opacity:0.743719" />
    <rect
       rx="3.3168719"
       ry="2.9877503"
       y="98.148544"
       x="108.9267"
       height="5.9755006"
       width="6.6337438"
       id="rect829-0-9-3-62-2-5"
       style="fill:#ffffff;fill-opacity:1;stroke:#ffffff;stroke-width:0.277312;stroke-linejoin:bevel;stroke-miterlimit:10;stroke-dasharray:none;stroke-dashoffset:0;stroke-opacity:0.743719" />
    <rect
       rx="1.4585365"
       ry="1.3138111"
       y="104.12405"
       x="115.56044"
       height="2.6276221"
       width="2.917073"
       id="rect829-0-9-3-6-6-0-6"
       style="fill:#ffffff;fill-opacity:1;stroke:#ffffff;stroke-width:0.121943;stroke-linejoin:bevel;stroke-miterlimit:10;stroke-dasharray:none;stroke-dashoffset:0;stroke-opacity:0.743719" />
    <rect
       rx="6.1859827"
       ry="5.5721688"
       y="97.337021"
       x="80.928818"
       height="11.144338"
       width="12.371965"
       id="rect829-0-9-0-8-1-9"
       style="fill:#000000;fill-opacity:1;stroke:#000000;stroke-width:0.517188;stroke-linejoin:bevel;stroke-miterlimit:10;stroke-dasharray:none;stroke-dashoffset:0;stroke-opacity:0.743719" />
    <rect
       rx="3.3168719"
       ry="2.9877503"
       y="98.394302"
       x="82.113747"
       height="5.9755006"
       width="6.6337438"
       id="rect829-0-9-3-62-7-5-1"
       style="fill:#ffffff;fill-opacity:1;stroke:#ffffff;stroke-width:0.277312;stroke-linejoin:bevel;stroke-miterlimit:10;stroke-dasharray:none;stroke-dashoffset:0;stroke-opacity:0.743719" />
    <rect
       rx="1.4585365"
       ry="1.3138111"
       y="104.3698"
       x="88.747498"
       height="2.6276221"
       width="2.917073"
       id="rect829-0-9-3-6-6-9-5-2"
       style="fill:#ffffff;fill-opacity:1;stroke:#ffffff;stroke-width:0.121943;stroke-linejoin:bevel;stroke-miterlimit:10;stroke-dasharray:none;stroke-dashoffset:0;stroke-opacity:0.743719" />
    <path
       sodipodi:arc-type="slice"
       style="fill:#ffd5d5;fill-opacity:1;stroke:#ffd5d5;stroke-width:0.223332;stroke-linejoin:bevel;stroke-miterlimit:10;stroke-dasharray:none;stroke-dashoffset:0;stroke-opacity:1"
       id="path1100-4-7"
       sodipodi:type="arc"
       sodipodi:cx="91.534203"
       sodipodi:cy="138.03033"
       sodipodi:rx="5.0902581"
       sodipodi:ry="2.1522176"
       sodipodi:start="0"
       sodipodi:end="6.2319075"
       d="m 96.624461,138.03033 a 5.0902581,2.1522176 0 0 1 -5.025006,2.15205 5.0902581,2.1522176 0 0 1 -5.153838,-2.09687 5.0902581,2.1522176 0 0 1 4.892871,-2.2058 5.0902581,2.1522176 0 0 1 5.279282,2.04031 l -5.083567,0.11031 z"
       transform="rotate(-14.533951)" />
    <path
       sodipodi:arc-type="slice"
       style="fill:#ffd5d5;fill-opacity:1;stroke:#ffd5d5;stroke-width:0.223332;stroke-linejoin:bevel;stroke-miterlimit:10;stroke-dasharray:none;stroke-dashoffset:0;stroke-opacity:1"
       id="path1100-2-7-0"
       sodipodi:type="arc"
       sodipodi:cx="119.89634"
       sodipodi:cy="65.038551"
       sodipodi:rx="5.0902581"
       sodipodi:ry="2.1522179"
       sodipodi:start="0"
       sodipodi:end="6.2319075"
       d="m 124.9866,65.038551 a 5.0902581,2.1522179 0 0 1 -5.02501,2.152041 5.0902581,2.1522179 0 0 1 -5.15384,-2.096866 5.0902581,2.1522179 0 0 1 4.89287,-2.205801 5.0902581,2.1522179 0 0 1 5.27929,2.040314 l -5.08357,0.110312 z"
       transform="rotate(26.011263)" />
    <path
       style="fill:none;stroke:#000000;stroke-width:1.47648;stroke-linecap:round;stroke-linejoin:miter;stroke-miterlimit:4;stroke-dasharray:none;stroke-opacity:1"
       d="m 94.209795,112.8539 c 6.848955,3.73969 7.307425,2.41627 12.356735,-0.38615"
       id="path1128-6-9"
       inkscape:connector-curvature="0"
       sodipodi:nodetypes="cc" />
    <path
       sodipodi:arc-type="slice"
       style="fill:#f9f9f9;fill-opacity:1;stroke:#000000;stroke-width:1.47648;stroke-linejoin:bevel;stroke-miterlimit:10;stroke-dasharray:none;stroke-dashoffset:0;stroke-opacity:1"
       id="path1130-5-3"
       sodipodi:type="arc"
       sodipodi:cx="91.296844"
       sodipodi:cy="159.50952"
       sodipodi:rx="7.4364319"
       sodipodi:ry="7.2219658"
       sodipodi:start="1.0962796e-14"
       sodipodi:end="3.1258055"
       d="m 98.733276,159.50952 a 7.4364319,7.2219658 0 0 1 -7.377732,7.22174 7.4364319,7.2219658 0 0 1 -7.494205,-7.10773 l 7.435505,-0.11401 z" />
    <path
       sodipodi:arc-type="slice"
       style="fill:#f9f9f9;fill-opacity:1;stroke:#000000;stroke-width:1.47648;stroke-linejoin:bevel;stroke-miterlimit:10;stroke-dasharray:none;stroke-dashoffset:0;stroke-opacity:1"
       id="path1130-0-6-6"
       sodipodi:type="arc"
       sodipodi:cx="106.74198"
       sodipodi:cy="159.40427"
       sodipodi:rx="7.4364319"
       sodipodi:ry="7.2219658"
       sodipodi:start="1.0962796e-14"
       sodipodi:end="3.1258055"
       d="m 114.17841,159.40427 a 7.4364319,7.2219658 0 0 1 -7.37773,7.22174 7.4364319,7.2219658 0 0 1 -7.494204,-7.10773 l 7.435504,-0.11401 z" />
    <path
       sodipodi:arc-type="slice"
       style="fill:#ececec;fill-opacity:0.9799;stroke:#ececec;stroke-width:0.109223;stroke-linecap:round;stroke-linejoin:bevel;stroke-miterlimit:4;stroke-dasharray:none;stroke-dashoffset:0;stroke-opacity:1"
       id="path1413-0"
       sodipodi:type="arc"
       sodipodi:cx="118.96816"
       sodipodi:cy="148.85957"
       sodipodi:rx="3.2437031"
       sodipodi:ry="3.1815372"
       sodipodi:start="1.0962797e-14"
       sodipodi:end="6.2563591"
       d="m 122.21187,148.85957 a 3.2437031,3.1815372 0 0 1 -3.22195,3.18147 3.2437031,3.1815372 0 0 1 -3.26517,-3.13879 3.2437031,3.1815372 0 0 1 3.17815,-3.22357 3.2437031,3.1815372 0 0 1 3.3078,3.09556 l -3.24254,0.0853 z" />
    <path
       sodipodi:arc-type="slice"
       style="fill:#ececec;fill-opacity:0.9799;stroke:#ececec;stroke-width:0.0440973;stroke-linecap:round;stroke-linejoin:bevel;stroke-miterlimit:4;stroke-dasharray:none;stroke-dashoffset:0;stroke-opacity:1"
       id="path1413-9-6"
       sodipodi:type="arc"
       sodipodi:cx="124.17451"
       sodipodi:cy="148.82198"
       sodipodi:rx="1.39836"
       sodipodi:ry="1.202984"
       sodipodi:start="1.0962797e-14"
       sodipodi:end="6.2563591"
       d="m 125.57287,148.82198 a 1.39836,1.202984 0 0 1 -1.38898,1.20295 1.39836,1.202984 0 0 1 -1.40762,-1.18682 1.39836,1.202984 0 0 1 1.3701,-1.21887 1.39836,1.202984 0 0 1 1.42599,1.17047 l -1.39785,0.0323 z" />
    <path
       sodipodi:arc-type="slice"
       style="fill:#ececec;fill-opacity:0.9799;stroke:#ececec;stroke-width:0.0175407;stroke-linecap:round;stroke-linejoin:bevel;stroke-miterlimit:4;stroke-dasharray:none;stroke-dashoffset:0;stroke-opacity:1"
       id="path1413-9-3-2"
       sodipodi:type="arc"
       sodipodi:cx="123.07764"
       sodipodi:cy="151.26418"
       sodipodi:rx="0.55622983"
       sodipodi:ry="0.47851446"
       sodipodi:start="1.0962797e-14"
       sodipodi:end="6.2563591"
       d="m 123.63387,151.26418 a 0.55622983,0.47851446 0 0 1 -0.5525,0.4785 0.55622983,0.47851446 0 0 1 -0.55991,-0.47209 0.55622983,0.47851446 0 0 1 0.54499,-0.48483 0.55622983,0.47851446 0 0 1 0.56722,0.46558 l -0.55603,0.0128 z" />
    <ellipse
       style="fill:#ffffff;fill-opacity:1;stroke:#000000;stroke-width:0.804977;stroke-linecap:round;stroke-linejoin:bevel;stroke-miterlimit:4;stroke-dasharray:none;stroke-dashoffset:0;stroke-opacity:1"
       id="path916-6"
       cx="266.6622"
       cy="104.61012"
       rx="15.827884"
       ry="5.079185"
       clip-path="url(#clipPath954-6)"
       transform="matrix(-1.606004,0,0,-1.606004,527.11886,253.57683)" />
    <path
       inkscape:connector-curvature="0"
       id="path2072"
       d="m 143.04728,117.05223 -15.79067,19.78231 -2.92965,9.24509"
       style="fill:none;stroke:#000000;stroke-width:1.5875;stroke-linecap:round;stroke-linejoin:miter;stroke-miterlimit:4;stroke-dasharray:none;stroke-opacity:1" />
    <path
       inkscape:connector-curvature="0"
       id="path2072-0"
       d="m 148.48351,121.39155 -15.79067,19.78231 -8.36588,4.90577"
       style="fill:none;stroke:#000000;stroke-width:1.5875;stroke-linecap:round;stroke-linejoin:miter;stroke-miterlimit:4;stroke-dasharray:none;stroke-opacity:1" />
    <path
       inkscape:connector-curvature="0"
       id="path2113"
       d="m 143.04728,117.05223 5.43623,4.33932"
       style="fill:none;stroke:#000000;stroke-width:1.5875;stroke-linecap:round;stroke-linejoin:miter;stroke-miterlimit:4;stroke-dasharray:none;stroke-opacity:1" />
    <path
       style="fill:#abedcc;fill-opacity:1;stroke:#abedcc;stroke-width:0.566964;stroke-linecap:round;stroke-linejoin:bevel;stroke-miterlimit:4;stroke-dasharray:none;stroke-dashoffset:0;stroke-opacity:1"
       d="m 126.76253,140.68651 1.2139,-3.8306 7.41195,-9.28558 7.41195,-9.28558 2.25247,1.79798 2.25247,1.79796 -7.44285,9.32429 -7.44285,9.32429 -3.30118,1.9392 c -1.81565,1.06656 -3.36161,1.96383 -3.43546,1.99393 -0.0821,0.0334 0.33778,-1.43515 1.07957,-3.77589 z"
       id="path2124"
       inkscape:connector-curvature="0" />
    <path
       style="fill:none;stroke:#000000;stroke-width:0.262966px;stroke-linecap:butt;stroke-linejoin:miter;stroke-opacity:1"
       d="m 139.38615,120.70702 6.34676,5.06612"
       id="path2126"
       inkscape:connector-curvature="0" />
    <path
       style="fill:none;stroke:#000000;stroke-width:0.262966px;stroke-linecap:butt;stroke-linejoin:miter;stroke-opacity:1"
       d="m 138.92764,121.28145 6.34674,5.06611"
       id="path2126-3"
       inkscape:connector-curvature="0" />
    <path
       style="fill:none;stroke:#000000;stroke-width:0.283439;stroke-linecap:round;stroke-linejoin:miter;stroke-miterlimit:4;stroke-dasharray:none;stroke-opacity:1"
       d="m 126.18014,140.35354 1.55601,-0.60327 -0.24058,1.72089 1.50989,-0.66305 -0.17561,1.76466 1.87254,-0.51433"
       id="path2143"
       inkscape:connector-curvature="0"
       sodipodi:nodetypes="cccccc" />
    <path
       style="fill:#000000;fill-opacity:1;stroke:#000000;stroke-width:0.173831;stroke-linecap:round;stroke-linejoin:bevel;stroke-miterlimit:4;stroke-dasharray:none;stroke-dashoffset:0;stroke-opacity:1"
       d="m 125.43007,144.56272 c -0.0167,-0.0416 -0.0314,-0.10131 -0.0328,-0.13259 -0.008,-0.1889 0.32508,-1.36 0.98824,-3.47002 l 0.18918,-0.60196 0.48373,-0.18709 c 0.26604,-0.1029 0.48629,-0.18504 0.48944,-0.18253 0.003,0.003 -0.0483,0.38995 -0.11421,0.86098 -0.066,0.47103 -0.1188,0.85732 -0.11742,0.85842 0.002,0.001 0.3405,-0.14647 0.7536,-0.32793 0.41311,-0.18146 0.75373,-0.32783 0.75695,-0.32526 0.003,0.003 -0.0324,0.3887 -0.0792,0.8581 -0.066,0.662 -0.0806,0.85288 -0.0652,0.85099 0.0109,-0.001 0.21325,-0.0555 0.44962,-0.12035 0.23636,-0.0649 0.42095,-0.11134 0.41019,-0.1033 -0.0203,0.0152 -1.57418,0.92528 -2.38616,1.39757 -0.63491,0.36929 -1.23362,0.71303 -1.31168,0.75307 -0.0826,0.0424 -0.21148,0.0508 -0.26847,0.0175 -0.11347,-0.0663 -0.11452,-0.0673 -0.14582,-0.14555 z"
       id="path2221"
       inkscape:connector-curvature="0" />
  </g>
</svg>
