<?xml version="1.0" encoding="UTF-8" standalone="no"?>
<!-- Created with Inkscape (http://www.inkscape.org/) -->

<svg
   width="129.14684mm"
   height="118.83341mm"
   viewBox="0 0 129.14684 118.83341"
   version="1.1"
   id="svg1252"
   inkscape:version="1.3 (0e150ed6c4, 2023-07-21)"
   sodipodi:docname="hugo.svg"
   xmlns:inkscape="http://www.inkscape.org/namespaces/inkscape"
   xmlns:sodipodi="http://sodipodi.sourceforge.net/DTD/sodipodi-0.dtd"
   xmlns="http://www.w3.org/2000/svg"
   xmlns:svg="http://www.w3.org/2000/svg"
   xmlns:rdf="http://www.w3.org/1999/02/22-rdf-syntax-ns#"
   xmlns:cc="http://creativecommons.org/ns#"
   xmlns:dc="http://purl.org/dc/elements/1.1/">
  <defs
     id="defs1246">
    <clipPath
       id="clipPath954"
       clipPathUnits="userSpaceOnUse">
      <rect
         ry="3.9706812"
         rx="13.312986"
         y="93.459831"
         x="248.23587"
         height="13.134672"
         width="36.474705"
         id="rect956"
         style="fill:#ffffff;fill-opacity:1;stroke:#000000;stroke-width:0.366;stroke-linecap:round;stroke-linejoin:bevel;stroke-miterlimit:4;stroke-dasharray:none;stroke-dashoffset:0;stroke-opacity:1" />
    </clipPath>
  </defs>
  <sodipodi:namedview
     id="base"
     pagecolor="#ffffff"
     bordercolor="#666666"
     borderopacity="1.0"
     inkscape:pageopacity="0.0"
     inkscape:pageshadow="2"
     inkscape:zoom="1.1224609"
     inkscape:cx="329.18741"
     inkscape:cy="240.98835"
     inkscape:document-units="mm"
     inkscape:current-layer="g15"
     showgrid="false"
     inkscape:window-width="1916"
     inkscape:window-height="1037"
     inkscape:window-x="0"
     inkscape:window-y="0"
     inkscape:window-maximized="1"
     showguides="false"
     inkscape:showpageshadow="2"
     inkscape:pagecheckerboard="0"
     inkscape:deskcolor="#d1d1d1" />
  <metadata
     id="metadata1249">
    <rdf:RDF>
      <cc:Work
         rdf:about="">
        <dc:format>image/svg+xml</dc:format>
        <dc:type
           rdf:resource="http://purl.org/dc/dcmitype/StillImage" />
      </cc:Work>
    </rdf:RDF>
  </metadata>
  <g
     inkscape:label="Calque 1"
     inkscape:groupmode="layer"
     id="layer1"
     transform="translate(-33.747352,-54.993156)">
    <g
       id="g15"
       transform="matrix(0.65492702,0,0,0.65492702,33.332021,-87.513573)">
      <circle
         style="fill:#abdc43;fill-opacity:1;stroke:#000000;stroke-width:1.5875;stroke-linecap:round;stroke-linejoin:round;stroke-dasharray:none;stroke-opacity:1"
         id="path1"
         cx="97.282639"
         cy="323.52032"
         r="74.722969" />
      <g
         id="g4"
         transform="translate(-15.506555,1.3167864)">
        <ellipse
           style="fill:#1a1a1a;stroke:#000000;stroke-width:0.131489;stroke-dasharray:none;stroke-opacity:1"
           id="path11-6"
           cx="93.638535"
           cy="292.78241"
           rx="17.251463"
           ry="22.325407" />
        <path
           style="fill:#ffffff;fill-opacity:1;stroke:#ffffff;stroke-width:0.860702;stroke-linecap:round;stroke-linejoin:bevel;stroke-miterlimit:4;stroke-dasharray:none;stroke-dashoffset:0;stroke-opacity:1"
           id="path859-2"
           sodipodi:type="arc"
           sodipodi:cx="90.05278"
           sodipodi:cy="285.0643"
           sodipodi:rx="4.8599391"
           sodipodi:ry="6.7083015"
           sodipodi:start="0"
           sodipodi:end="6.2319075"
           d="m 94.912719,285.0643 a 4.8599391,6.7083015 0 0 1 -4.797639,6.70775 4.8599391,6.7083015 0 0 1 -4.920642,-6.53577 4.8599391,6.7083015 0 0 1 4.671483,-6.87532 4.8599391,6.7083015 0 0 1 5.04041,6.3595 l -4.853551,0.34384 z"
           sodipodi:arc-type="slice" />
        <path
           style="fill:#ffffff;fill-opacity:1;stroke:#ffffff;stroke-width:0.452983;stroke-linecap:round;stroke-linejoin:bevel;stroke-miterlimit:4;stroke-dasharray:none;stroke-dashoffset:0;stroke-opacity:1"
           id="path859-4-9"
           sodipodi:type="arc"
           sodipodi:cx="100.5106"
           sodipodi:cy="295.41705"
           sodipodi:rx="2.5577652"
           sodipodi:ry="3.530551"
           sodipodi:start="0"
           sodipodi:end="6.2319075"
           d="m 103.06836,295.41705 a 2.5577652,3.530551 0 0 1 -2.52497,3.53026 2.5577652,3.530551 0 0 1 -2.589717,-3.43975 2.5577652,3.530551 0 0 1 2.458577,-3.61845 2.5577652,3.530551 0 0 1 2.65275,3.34698 l -2.5544,0.18096 z"
           sodipodi:arc-type="slice" />
      </g>
      <g
         id="g5"
         transform="translate(25.334798,1.3167864)">
        <ellipse
           style="fill:#1a1a1a;stroke:#000000;stroke-width:0.131489;stroke-dasharray:none;stroke-opacity:1"
           id="ellipse4"
           cx="93.638535"
           cy="292.78241"
           rx="17.251463"
           ry="22.325407" />
        <path
           style="fill:#ffffff;fill-opacity:1;stroke:#ffffff;stroke-width:0.860702;stroke-linecap:round;stroke-linejoin:bevel;stroke-miterlimit:4;stroke-dasharray:none;stroke-dashoffset:0;stroke-opacity:1"
           id="path4"
           sodipodi:type="arc"
           sodipodi:cx="90.05278"
           sodipodi:cy="285.0643"
           sodipodi:rx="4.8599391"
           sodipodi:ry="6.7083015"
           sodipodi:start="0"
           sodipodi:end="6.2319075"
           d="m 94.912719,285.0643 a 4.8599391,6.7083015 0 0 1 -4.797639,6.70775 4.8599391,6.7083015 0 0 1 -4.920642,-6.53577 4.8599391,6.7083015 0 0 1 4.671483,-6.87532 4.8599391,6.7083015 0 0 1 5.04041,6.3595 l -4.853551,0.34384 z"
           sodipodi:arc-type="slice" />
        <path
           style="fill:#ffffff;fill-opacity:1;stroke:#ffffff;stroke-width:0.452983;stroke-linecap:round;stroke-linejoin:bevel;stroke-miterlimit:4;stroke-dasharray:none;stroke-dashoffset:0;stroke-opacity:1"
           id="path5"
           sodipodi:type="arc"
           sodipodi:cx="100.5106"
           sodipodi:cy="295.41705"
           sodipodi:rx="2.5577652"
           sodipodi:ry="3.530551"
           sodipodi:start="0"
           sodipodi:end="6.2319075"
           d="m 103.06836,295.41705 a 2.5577652,3.530551 0 0 1 -2.52497,3.53026 2.5577652,3.530551 0 0 1 -2.589717,-3.43975 2.5577652,3.530551 0 0 1 2.458577,-3.61845 2.5577652,3.530551 0 0 1 2.65275,3.34698 l -2.5544,0.18096 z"
           sodipodi:arc-type="slice" />
      </g>
      <ellipse
         style="fill:#c5e77e;fill-opacity:1;stroke:#000000;stroke-width:1.587;stroke-linecap:round;stroke-linejoin:round;stroke-dasharray:none;stroke-opacity:1"
         id="path6"
         cy="355.13126"
         cx="98.685577"
         rx="29.236029"
         ry="35.023438" />
      <ellipse
         style="fill:#669900;fill-opacity:1;stroke:none;stroke-width:1.5875;stroke-linecap:round;stroke-linejoin:round;stroke-dasharray:none;stroke-opacity:1"
         id="ellipse7"
         cy="355.13126"
         cx="98.685577"
         rx="23.165909"
         ry="27.783468" />
      <ellipse
         style="fill:#000000;fill-opacity:1;stroke:none;stroke-width:1.5875;stroke-linecap:round;stroke-linejoin:round;stroke-dasharray:none;stroke-opacity:1"
         id="ellipse6"
         cy="355.13126"
         cx="98.685577"
         rx="16.797602"
         ry="20.187847" />
      <path
         inkscape:connector-curvature="0"
         style="fill:#c5e77e;fill-opacity:1;stroke:none;stroke-width:1.587;stroke-linecap:round;stroke-linejoin:round;stroke-dasharray:none;stroke-opacity:1"
         d="m 54.907689,372.98155 c 0,0 -0.723435,-14.13729 -2.595265,-20.90505 -2.101003,-7.59634 -7.225761,-14.09806 -9.558299,-21.62654 -2.677353,-8.6414 -4.985416,-26.67815 -4.985416,-26.67815 0,0 -7.280972,16.08547 -7.209536,24.64422 0.08005,9.59099 3.740486,19.17304 8.538903,27.47777 3.882147,6.71892 15.809613,17.08775 15.809613,17.08775 z"
         id="path12"
         sodipodi:nodetypes="caacaac" />
      <circle
         style="fill:#d0dc43;fill-opacity:1;stroke:none;stroke-width:1.587;stroke-linecap:round;stroke-linejoin:round;stroke-dasharray:none;stroke-opacity:1"
         id="path14"
         cx="141.08582"
         cy="325.72733"
         r="7.279778" />
      <circle
         style="fill:#d0dc43;fill-opacity:1;stroke:none;stroke-width:1.587;stroke-linecap:round;stroke-linejoin:round;stroke-dasharray:none;stroke-opacity:1"
         id="circle14"
         cx="58.732185"
         cy="325.72733"
         r="7.279778" />
      <path
         inkscape:connector-curvature="0"
         style="fill:#6cce06;fill-opacity:1;stroke:#000000;stroke-width:1.587;stroke-linecap:round;stroke-linejoin:round;stroke-dasharray:none;stroke-opacity:1"
         d="m 86.996749,248.33166 c 0,0 0.966805,-2.1471 1.92717,-2.68924 4.70601,-2.65664 10.99387,-2.85663 16.161921,-1.27691 4.80848,1.46982 9.46451,4.94145 11.80328,9.39252 1.13878,2.16728 1.76461,5.2274 0.50591,7.3273 -2.25466,3.76148 -7.67077,4.70473 -12.00277,5.38737 -6.682331,1.05301 -14.158851,0.88285 -20.173271,-2.21379 -3.42423,-1.76303 -7.36176,-4.77977 -7.69795,-8.61651 -0.185,-2.11124 1.6711,-4.10828 3.34679,-5.40582 1.69154,-1.30982 4.00706,-1.63172 6.12892,-1.90492 3.40404,-0.43828 10.28589,0.4657 10.28589,0.4657"
         id="path15"
         sodipodi:nodetypes="caaaaaaaaac" />
      <g
         id="g1"
         transform="matrix(2.5319945,0,0,2.5580165,-175.24709,-372.54869)"
         style="stroke-width:0.392932">
        <rect
           style="fill:#abedcc;fill-opacity:1;stroke:#abedcc;stroke-width:0.0764279;stroke-linecap:round;stroke-linejoin:bevel;stroke-miterlimit:4;stroke-dasharray:none;stroke-dashoffset:0;stroke-opacity:1"
           id="rect2245"
           width="8.3026562"
           height="22.296173"
           x="76.293579"
           y="256.91669"
           rx="1.5320212"
           ry="3.7755289" />
        <path
           style="fill:none;stroke:#abedcc;stroke-width:0.957881;stroke-linecap:round;stroke-linejoin:miter;stroke-miterlimit:4;stroke-dasharray:none;stroke-opacity:1"
           d="M 77.948296,258.01684 C 74.068268,257.12182 62.16423,269.71832 77.750339,278.2955"
           id="path2247"
           inkscape:connector-curvature="0"
           sodipodi:nodetypes="cc" />
        <path
           sodipodi:open="true"
           style="fill:none;fill-opacity:1;stroke:#abedcc;stroke-width:1.37056;stroke-linecap:round;stroke-linejoin:bevel;stroke-miterlimit:4;stroke-dasharray:none;stroke-dashoffset:0;stroke-opacity:1"
           id="path2249"
           sodipodi:type="arc"
           sodipodi:cx="-108.8718"
           sodipodi:cy="-256.89316"
           sodipodi:rx="29.986437"
           sodipodi:ry="25.55492"
           sodipodi:start="0"
           sodipodi:end="3.1415927"
           d="m -78.885366,-256.89316 a 29.986437,25.55492 0 0 1 -14.993219,22.13121 29.986437,25.55492 0 0 1 -29.986435,0 29.986437,25.55492 0 0 1 -14.99322,-22.13121"
           transform="matrix(-0.99999988,-4.858041e-4,6.7582576e-4,-0.99999977,0,0)"
           sodipodi:arc-type="arc" />
        <rect
           style="fill:#abedcc;fill-opacity:1;stroke:#abedcc;stroke-width:0.0850866;stroke-linecap:round;stroke-linejoin:bevel;stroke-miterlimit:4;stroke-dasharray:none;stroke-dashoffset:0;stroke-opacity:1"
           id="rect2245-7"
           width="10.300567"
           height="22.274139"
           x="-140.50282"
           y="257.42877"
           rx="1.9006795"
           ry="3.7717974"
           transform="scale(-1,1)" />
        <path
           style="fill:none;stroke:#abedcc;stroke-width:0.957881;stroke-linecap:round;stroke-linejoin:miter;stroke-miterlimit:4;stroke-dasharray:none;stroke-opacity:1"
           d="m 138.85912,258.51789 c 3.88004,-0.89502 15.78408,11.70148 0.19798,20.27866"
           id="path2247-8"
           inkscape:connector-curvature="0"
           sodipodi:nodetypes="cc" />
      </g>
    </g>
  </g>
</svg>
