<?xml version="1.0" encoding="UTF-8" standalone="no"?>
<!-- Created with Inkscape (http://www.inkscape.org/) -->

<svg
   width="131.43501mm"
   height="121.27016mm"
   viewBox="0 0 131.43502 121.27017"
   version="1.1"
   id="svg1252"
   inkscape:version="1.3 (0e150ed6c4, 2023-07-21)"
   sodipodi:docname="odilon.svg"
   xmlns:inkscape="http://www.inkscape.org/namespaces/inkscape"
   xmlns:sodipodi="http://sodipodi.sourceforge.net/DTD/sodipodi-0.dtd"
   xmlns="http://www.w3.org/2000/svg"
   xmlns:svg="http://www.w3.org/2000/svg"
   xmlns:rdf="http://www.w3.org/1999/02/22-rdf-syntax-ns#"
   xmlns:cc="http://creativecommons.org/ns#"
   xmlns:dc="http://purl.org/dc/elements/1.1/">
  <defs
     id="defs1246">
    <clipPath
       id="clipPath954"
       clipPathUnits="userSpaceOnUse">
      <rect
         ry="3.9706812"
         rx="13.312986"
         y="93.459831"
         x="248.23587"
         height="13.134672"
         width="36.474705"
         id="rect956"
         style="fill:#ffffff;fill-opacity:1;stroke:#000000;stroke-width:0.366;stroke-linecap:round;stroke-linejoin:bevel;stroke-miterlimit:4;stroke-dasharray:none;stroke-dashoffset:0;stroke-opacity:1" />
    </clipPath>
  </defs>
  <sodipodi:namedview
     id="base"
     pagecolor="#ffffff"
     bordercolor="#666666"
     borderopacity="1.0"
     inkscape:pageopacity="0.0"
     inkscape:pageshadow="2"
     inkscape:zoom="0.71480099"
     inkscape:cx="182.5683"
     inkscape:cy="337.85628"
     inkscape:document-units="mm"
     inkscape:current-layer="layer1"
     showgrid="false"
     inkscape:window-width="956"
     inkscape:window-height="1037"
     inkscape:window-x="960"
     inkscape:window-y="0"
     inkscape:window-maximized="1"
     showguides="false"
     inkscape:showpageshadow="2"
     inkscape:pagecheckerboard="0"
     inkscape:deskcolor="#d1d1d1" />
  <metadata
     id="metadata1249">
    <rdf:RDF>
      <cc:Work
         rdf:about="">
        <dc:format>image/svg+xml</dc:format>
        <dc:type
           rdf:resource="http://purl.org/dc/dcmitype/StillImage" />
        <dc:title />
      </cc:Work>
    </rdf:RDF>
  </metadata>
  <g
     inkscape:label="Calque 1"
     inkscape:groupmode="layer"
     id="layer1"
     transform="translate(-32.834613,-71.788395)">
    <path
       style="fill:#e3f4d7;fill-opacity:1;stroke:none;stroke-width:0.944243;stroke-linecap:round;stroke-linejoin:bevel;stroke-miterlimit:4;stroke-dasharray:none;stroke-dashoffset:0;stroke-opacity:1"
       d=""
       id="path1204"
       inkscape:connector-curvature="0" />
    <path
       sodipodi:nodetypes="ccc"
       inkscape:connector-curvature="0"
       id="path1073"
       d="m 116.90261,144.60391 c 9.88721,1.93342 9.07753,-11.32082 10.10012,-18.43615 3.60726,7.09252 3.20562,21.50451 -5.86585,20.57337"
       style="fill:#ccffaa;fill-opacity:1;stroke:#000000;stroke-width:1.38122;stroke-linecap:round;stroke-linejoin:miter;stroke-miterlimit:4;stroke-dasharray:none;stroke-opacity:1" />
    <path
       style="fill:#ccffaa;fill-opacity:1;stroke:#000000;stroke-width:1.38122;stroke-linecap:butt;stroke-linejoin:miter;stroke-miterlimit:4;stroke-dasharray:none;stroke-opacity:1"
       d="m 95.307998,135.13682 c -0.598418,6.50316 2.958978,11.72214 21.729162,9.38746 8.07015,-1.00379 6.79259,26.83652 4.70781,26.60431 -1.7557,0.1597 -8.74977,-7.33506 -9.02904,-11.60465 -12.835342,0.27249 -10.25026,28.40768 -15.234288,7.76762 -3.340541,-11.47695 -13.887692,-3.94649 -14.175203,6.72848 -3.525134,5.5906 0.818874,-26.30457 5.744412,-39.12388 v 0"
       id="path1063"
       inkscape:connector-curvature="0"
       sodipodi:nodetypes="cscccccc" />
    <path
       inkscape:connector-curvature="0"
       id="path1186-8"
       d="m 126.14068,106.81255 c -0.34933,-4.71761 -1.58137,-8.74951 -3.79886,-12.431875 -1.16237,-1.930228 -3.84251,-5.308249 -4.86636,-6.133525 l -0.68658,-0.553417 1.47923,-1.758019 c 1.66608,-1.980091 3.59056,-3.613494 5.08838,-4.318766 1.63475,-0.769747 3.61837,-0.729551 6.95476,0.140926 1.5448,0.403045 3.3952,0.741799 4.112,0.752786 1.46718,0.02249 3.37057,-0.439937 4.46155,-1.083923 l 0.73002,-0.430915 -0.0152,0.988377 c -0.022,1.436189 -0.74053,7.499741 -1.16428,9.825288 -1.72889,9.488333 -4.3028,13.939833 -9.72731,16.823103 -1.1753,0.6247 -2.18458,1.13509 -2.24284,1.1342 -0.0583,-8.9e-4 -0.20432,-1.3303 -0.32456,-2.95424 z"
       style="fill:#e3f4d7;fill-opacity:1;stroke:#e5e5e5;stroke-width:5.06447;stroke-linecap:round;stroke-linejoin:bevel;stroke-miterlimit:4;stroke-dasharray:none;stroke-dashoffset:0;stroke-opacity:1" />
    <path
       inkscape:connector-curvature="0"
       id="path1184-7"
       d="m 61.306735,108.31334 c -7.539789,-3.70935 -10.218143,-9.575783 -11.321578,-24.797788 -0.148319,-2.046049 -0.233273,-3.755386 -0.188782,-3.798528 0.04452,-0.04314 0.415955,0.122651 0.825488,0.36843 1.085807,0.651639 2.985404,1.186495 4.284685,1.20641 0.623421,0.0096 2.387491,-0.273724 3.920157,-0.629511 5.336774,-1.238864 7.226391,-0.739849 10.61969,2.804478 1.038437,1.08465 2.16642,2.399435 2.506636,2.92174 l 0.618574,0.949647 -1.52774,1.596159 c -4.793775,5.008466 -7.380735,10.755619 -7.863574,17.469613 -0.103297,1.43688 -0.247588,2.61151 -0.320576,2.6103 -0.07299,-0.001 -0.771827,-0.31664 -1.55298,-0.70095 z"
       style="fill:#e3f4d7;fill-opacity:1;stroke:#e5e5e5;stroke-width:5.06447;stroke-linecap:round;stroke-linejoin:bevel;stroke-miterlimit:4;stroke-dasharray:none;stroke-dashoffset:0;stroke-opacity:1" />
    <path
       inkscape:connector-curvature="0"
       id="path1182-9"
       d="m 89.050848,134.89616 c -6.414135,-1.14008 -11.982681,-4.02535 -16.513527,-8.55626 -8.254433,-8.25456 -10.157631,-19.72077 -4.951118,-29.829115 3.487349,-6.770634 9.718986,-11.813514 17.510406,-14.170094 3.509404,-1.061449 5.970186,-1.402007 9.778494,-1.353291 5.331877,0.06821 9.477757,1.031697 13.884947,3.226821 3.46744,1.727048 5.58238,3.268834 8.26024,6.021668 5.16573,5.310374 7.62969,11.334191 7.52157,18.388491 -0.10995,7.17316 -3.09434,13.6254 -8.66921,18.74278 -4.0822,3.74721 -9.19207,6.27604 -15.14574,7.49551 -2.357714,0.48293 -9.039693,0.50209 -11.676062,0.0335 z"
       style="fill:#ccffaa;fill-opacity:1;stroke:#e5e5e5;stroke-width:5.06447;stroke-linecap:round;stroke-linejoin:bevel;stroke-miterlimit:4;stroke-dasharray:none;stroke-dashoffset:0;stroke-opacity:1" />
    <ellipse
       ry="28.045073"
       rx="30.772585"
       cy="106.68099"
       cx="96.295204"
       id="path1069-6"
       style="fill:none;fill-opacity:1;stroke:#e5e5e5;stroke-width:5.06447;stroke-linecap:round;stroke-linejoin:bevel;stroke-miterlimit:4;stroke-dasharray:none;stroke-dashoffset:0;stroke-opacity:1"
       transform="rotate(0.87813539)" />
    <path
       style="fill:none;stroke:#e5e5e5;stroke-width:5.06447;stroke-linecap:butt;stroke-linejoin:miter;stroke-miterlimit:4;stroke-dasharray:none;stroke-opacity:1"
       d="M 63.293002,110.12258 C 54.411428,106.21369 49.764998,102.7388 48.874405,77.849157 63.569027,78.719548 66.591901,68.522819 73.439228,87.129126"
       id="path1145-1"
       inkscape:connector-curvature="0"
       sodipodi:nodetypes="ccc" />
    <path
       style="fill:none;stroke:#e5e5e5;stroke-width:5.06447;stroke-linecap:butt;stroke-linejoin:miter;stroke-miterlimit:4;stroke-dasharray:none;stroke-opacity:1"
       d="M 73.439228,87.129126 C 62.521368,70.711542 58.323985,86.164642 48.874405,77.849156"
       id="path1147-0"
       inkscape:connector-curvature="0"
       sodipodi:nodetypes="cc" />
    <path
       style="fill:none;stroke:#e5e5e5;stroke-width:5.06447;stroke-linecap:butt;stroke-linejoin:miter;stroke-miterlimit:4;stroke-dasharray:none;stroke-opacity:1"
       d="m 125.22604,111.11235 c 8.99721,-3.63485 13.74795,-6.96571 15.40094,-31.816365 -14.71439,0.419623 -17.42334,-9.864961 -24.83769,8.522749"
       id="path1145-0-8"
       inkscape:connector-curvature="0"
       sodipodi:nodetypes="ccc" />
    <path
       style="fill:none;stroke:#e5e5e5;stroke-width:5.06447;stroke-linecap:butt;stroke-linejoin:miter;stroke-miterlimit:4;stroke-dasharray:none;stroke-opacity:1"
       d="m 115.78929,87.818734 c 11.41589,-16.075261 15.1377,-0.50078 24.83769,-8.52275"
       id="path1147-4-7"
       inkscape:connector-curvature="0"
       sodipodi:nodetypes="cc" />
    <path
       style="fill:#ccffaa;fill-opacity:1;stroke:#e5e5e5;stroke-width:5.06447;stroke-linecap:round;stroke-linejoin:bevel;stroke-miterlimit:4;stroke-dasharray:none;stroke-dashoffset:0;stroke-opacity:1"
       id="path960-93-8"
       sodipodi:type="arc"
       sodipodi:cx="85.676193"
       sodipodi:cy="113.99823"
       sodipodi:rx="10.390731"
       sodipodi:ry="10.390731"
       sodipodi:start="0"
       sodipodi:end="3.1415927"
       d="m 96.066924,113.99823 a 10.390731,10.390731 0 0 1 -5.195365,8.99864 10.390731,10.390731 0 0 1 -10.390731,0 10.390731,10.390731 0 0 1 -5.195366,-8.99864"
       sodipodi:open="true"
       sodipodi:arc-type="arc"
       transform="rotate(0.87813539)" />
    <path
       style="fill:#ccffaa;fill-opacity:1;stroke:#e5e5e5;stroke-width:5.06447;stroke-linecap:round;stroke-linejoin:bevel;stroke-miterlimit:4;stroke-dasharray:none;stroke-dashoffset:0;stroke-opacity:1"
       id="path960-9-3-6"
       sodipodi:type="arc"
       sodipodi:cx="106.58768"
       sodipodi:cy="113.91769"
       sodipodi:rx="10.390731"
       sodipodi:ry="10.390731"
       sodipodi:start="0"
       sodipodi:end="3.1415927"
       d="m 116.97841,113.91769 a 10.390731,10.390731 0 0 1 -5.19537,8.99863 10.390731,10.390731 0 0 1 -10.39073,0 10.390731,10.390731 0 0 1 -5.195364,-8.99863"
       sodipodi:open="true"
       sodipodi:arc-type="arc"
       transform="rotate(0.87813539)" />
    <path
       style="fill:#000000;stroke:#e5e5e5;stroke-width:5.06447;stroke-linecap:butt;stroke-linejoin:miter;stroke-miterlimit:4;stroke-dasharray:none;stroke-opacity:1"
       d="m 90.406257,110.70773 4.113949,-2.46597 4.082473,2.60156 -4.163218,1.9352 z"
       id="path1135-2"
       inkscape:connector-curvature="0"
       sodipodi:nodetypes="ccccc" />
    <path
       inkscape:connector-curvature="0"
       id="path1027-5-7"
       d="m 93.629487,152.21287 c -2.388637,-0.65746 -4.010721,-1.579 -5.6813,-3.22765 -1.137808,-1.12288 -1.987146,-2.37639 -2.788034,-4.11477 -0.81122,-1.7608 -1.2806,-3.40626 -1.635081,-5.73192 -0.489051,-3.20856 -0.383076,-8.0158 0.265749,-12.05265 0.07723,-0.48016 0.148982,-0.87891 0.159474,-0.88611 0.01125,-0.007 0.462901,-0.0524 1.005252,-0.10036 3.886725,-0.344 7.285514,-2.56867 9.092137,-5.95122 0.363741,-0.68101 0.381626,-0.69992 0.459387,-0.48555 0.138907,0.383 0.739651,1.40705 1.188664,2.02635 1.592144,2.19594 3.882002,3.7162 6.624795,4.39826 0.78361,0.19487 1.13694,0.23471 2.28832,0.25811 0.74889,0.0152 1.3616,0.0465 1.36159,0.0696 -3e-5,0.023 0.0337,0.26875 0.0749,0.54601 0.0412,0.27725 0.13886,1.18406 0.2172,2.01513 0.60945,6.46955 -0.0307,11.82494 -1.89235,15.82823 -1.76665,3.7992 -4.742055,6.37676 -8.476266,7.34291 -1.328437,0.34371 -1.261169,0.34176 -2.26428,0.0657 z"
       style="fill:#55d400;fill-opacity:1;stroke:#e5e5e5;stroke-width:5.06447;stroke-linecap:round;stroke-linejoin:bevel;stroke-miterlimit:4;stroke-dasharray:none;stroke-dashoffset:0;stroke-opacity:1" />
    <path
       sodipodi:nodetypes="cc"
       inkscape:connector-curvature="0"
       id="path977-1-8-9"
       d="m 106.93749,125.93997 c 2.45795,17.13796 -3.13862,26.11701 -12.395494,27.54993"
       style="fill:none;stroke:#e5e5e5;stroke-width:5.06447;stroke-linecap:round;stroke-linejoin:miter;stroke-miterlimit:4;stroke-dasharray:none;stroke-opacity:1" />
    <path
       sodipodi:nodetypes="cc"
       inkscape:connector-curvature="0"
       id="path977-1-9-0-3"
       d="m 82.996676,125.57301 c -2.982045,17.05458 2.336707,26.20094 11.54532,27.91689"
       style="fill:none;stroke:#e5e5e5;stroke-width:5.06447;stroke-linecap:round;stroke-linejoin:miter;stroke-miterlimit:4;stroke-dasharray:none;stroke-opacity:1" />
    <path
       style="fill:none;stroke:#e5e5e5;stroke-width:5.06447;stroke-linecap:round;stroke-linejoin:miter;stroke-miterlimit:4;stroke-dasharray:none;stroke-opacity:1"
       d="m 94.469979,118.38628 -0.429258,20.26491"
       id="path1002-6-9"
       inkscape:connector-curvature="0" />
    <path
       inkscape:connector-curvature="0"
       id="path1206-2"
       d="m 69.652521,81.299768 c -1.083156,-0.955781 -2.826302,-2.050093 -3.858423,-2.422231 -0.843883,-0.304275 -1.386677,-0.385173 -2.707727,-0.403563 -1.430225,-0.01985 -2.011086,0.06316 -4.322311,0.618176 -2.434065,0.584513 -2.796471,0.632828 -4.100576,0.546669 -0.996284,-0.06582 -1.715408,-0.211944 -2.368964,-0.481364 l -0.938422,-0.386851 0.946084,-0.113019 c 3.439669,-0.410902 4.663194,-0.617449 7.521239,-1.269698 5.080967,-1.159552 6.516084,-0.984301 8.284967,1.011727 0.746402,0.842247 2.271761,3.199378 2.148039,3.31936 -0.03374,0.03274 -0.305517,-0.155907 -0.603906,-0.419206 z"
       style="fill:#ccffaa;fill-opacity:1;stroke:#e5e5e5;stroke-width:5.06447;stroke-linecap:round;stroke-linejoin:bevel;stroke-miterlimit:4;stroke-dasharray:none;stroke-dashoffset:0;stroke-opacity:1" />
    <path
       inkscape:connector-curvature="0"
       id="path1210-8"
       d="m 118.7395,83.06635 c 6.1e-4,-0.02517 0.17678,-0.356077 0.3914,-0.735358 1.74553,-3.084709 3.26876,-4.497387 5.12849,-4.756308 1.16387,-0.162038 2.20003,0.0061 5.4292,0.881146 3.20459,0.868356 5.10536,1.244703 7.18443,1.422504 0.47376,0.04052 0.99888,0.0894 1.16692,0.108622 l 0.30551,0.03495 -0.36447,0.180647 c -1.71646,0.850751 -3.29614,1.033338 -5.30099,0.612721 -0.30934,-0.0649 -1.2764,-0.316235 -2.14904,-0.558521 -1.85621,-0.515375 -2.49485,-0.654215 -3.45991,-0.752177 -2.66755,-0.270784 -5.14659,0.704718 -7.69783,3.029091 -0.34919,0.31814 -0.63436,0.557845 -0.63371,0.53268 z"
       style="fill:#ccffaa;fill-opacity:1;stroke:#e5e5e5;stroke-width:5.06447;stroke-linecap:round;stroke-linejoin:bevel;stroke-miterlimit:4;stroke-dasharray:none;stroke-dashoffset:0;stroke-opacity:1" />
    <rect
       rx="5.7868533"
       ry="5.2126436"
       y="92.745567"
       x="103.00679"
       height="10.425287"
       width="11.573707"
       id="rect829-0-9-0-3-3-3"
       style="fill:#000000;fill-opacity:1;stroke:#e5e5e5;stroke-width:5.06447;stroke-linejoin:bevel;stroke-miterlimit:4;stroke-dasharray:none;stroke-dashoffset:0;stroke-opacity:1"
       transform="rotate(0.87813539)" />
    <rect
       rx="3.1028619"
       ry="2.7949758"
       y="93.734627"
       x="104.11527"
       height="5.5899515"
       width="6.2057238"
       id="rect829-0-9-3-62-2-5-0"
       style="fill:#ffffff;fill-opacity:1;stroke:#e5e5e5;stroke-width:5.06447;stroke-linejoin:bevel;stroke-miterlimit:4;stroke-dasharray:none;stroke-dashoffset:0;stroke-opacity:1"
       transform="rotate(0.87813539)" />
    <rect
       rx="1.3644295"
       ry="1.2290418"
       y="99.324577"
       x="110.321"
       height="2.4580836"
       width="2.7288589"
       id="rect829-0-9-3-6-6-0-6-1"
       style="fill:#ffffff;fill-opacity:1;stroke:#e5e5e5;stroke-width:5.06447;stroke-linejoin:bevel;stroke-miterlimit:4;stroke-dasharray:none;stroke-dashoffset:0;stroke-opacity:1"
       transform="rotate(0.87813539)" />
    <rect
       rx="5.7868538"
       ry="5.2126436"
       y="92.786034"
       x="77.44368"
       height="10.425287"
       width="11.573708"
       id="rect829-0-9-0-3-3-4-7"
       style="fill:#000000;fill-opacity:1;stroke:#e5e5e5;stroke-width:5.06447;stroke-linejoin:bevel;stroke-miterlimit:4;stroke-dasharray:none;stroke-dashoffset:0;stroke-opacity:1"
       transform="rotate(0.87813539)" />
    <rect
       rx="3.1028619"
       ry="2.7949758"
       y="93.775085"
       x="78.552162"
       height="5.5899515"
       width="6.2057238"
       id="rect829-0-9-3-62-2-5-2-8"
       style="fill:#ffffff;fill-opacity:1;stroke:#e5e5e5;stroke-width:5.06447;stroke-linejoin:bevel;stroke-miterlimit:4;stroke-dasharray:none;stroke-dashoffset:0;stroke-opacity:1"
       transform="rotate(0.87813539)" />
    <rect
       rx="1.3644296"
       ry="1.2290418"
       y="99.365044"
       x="84.757881"
       height="2.4580836"
       width="2.7288592"
       id="rect829-0-9-3-6-6-0-6-9-9"
       style="fill:#ffffff;fill-opacity:1;stroke:#e5e5e5;stroke-width:5.06447;stroke-linejoin:bevel;stroke-miterlimit:4;stroke-dasharray:none;stroke-dashoffset:0;stroke-opacity:1"
       transform="rotate(0.87813539)" />
    <ellipse
       style="fill:#55d400;fill-opacity:1;stroke:#e5e5e5;stroke-width:5.06447;stroke-linecap:round;stroke-linejoin:bevel;stroke-miterlimit:4;stroke-dasharray:none;stroke-dashoffset:0;stroke-opacity:1"
       id="path1238-1-4-8-9"
       cx="130.35001"
       cy="101.67502"
       rx="0.24301617"
       ry="0.23118827"
       transform="rotate(0.87813534)" />
    <ellipse
       style="fill:#55d400;fill-opacity:1;stroke:#e5e5e5;stroke-width:5.06447;stroke-linecap:round;stroke-linejoin:bevel;stroke-miterlimit:4;stroke-dasharray:none;stroke-dashoffset:0;stroke-opacity:1"
       id="path1238-1-4-9-7-2"
       cx="129.50383"
       cy="102.49873"
       rx="0.50270891"
       ry="0.47824144"
       transform="rotate(0.87813534)" />
    <ellipse
       style="fill:#55d400;fill-opacity:1;stroke:#e5e5e5;stroke-width:5.06447;stroke-linecap:round;stroke-linejoin:bevel;stroke-miterlimit:4;stroke-dasharray:none;stroke-dashoffset:0;stroke-opacity:1"
       id="path1238-1-5-4-7"
       cx="65.60202"
       cy="81.353561"
       rx="0.97241127"
       ry="0.92508274"
       transform="rotate(0.87813534)" />
    <ellipse
       style="fill:#55d400;fill-opacity:1;stroke:#e5e5e5;stroke-width:5.06447;stroke-linecap:round;stroke-linejoin:bevel;stroke-miterlimit:4;stroke-dasharray:none;stroke-dashoffset:0;stroke-opacity:1"
       id="path1238-1-4-8-8-4"
       cx="66.786568"
       cy="82.100647"
       rx="0.24301617"
       ry="0.23118827"
       transform="rotate(0.87813534)" />
    <ellipse
       ry="0.77343136"
       rx="0.81300116"
       cy="147.57895"
       cx="116.24609"
       id="path1238-1"
       style="fill:#55d400;fill-opacity:1;stroke:none;stroke-width:0.484608;stroke-linecap:round;stroke-linejoin:bevel;stroke-miterlimit:4;stroke-dasharray:none;stroke-dashoffset:0;stroke-opacity:1" />
    <ellipse
       ry="0.19328894"
       rx="0.20317785"
       cy="148.20357"
       cx="117.23644"
       id="path1238-1-4"
       style="fill:#55d400;fill-opacity:1;stroke:none;stroke-width:0.121109;stroke-linecap:round;stroke-linejoin:bevel;stroke-miterlimit:4;stroke-dasharray:none;stroke-dashoffset:0;stroke-opacity:1" />
    <ellipse
       ry="0.39984199"
       rx="0.42029846"
       cy="148.89226"
       cx="116.52899"
       id="path1238-1-4-9"
       style="fill:#55d400;fill-opacity:1;stroke:none;stroke-width:0.250528;stroke-linecap:round;stroke-linejoin:bevel;stroke-miterlimit:4;stroke-dasharray:none;stroke-dashoffset:0;stroke-opacity:1" />
    <path
       sodipodi:nodetypes="cc"
       inkscape:connector-curvature="0"
       id="path1495"
       d="m 107.65122,161.88738 c 2.37807,9.05384 -0.36018,15.01893 5.94087,0.74753"
       style="fill:#ccffaa;fill-opacity:1;stroke:#000000;stroke-width:1.38122;stroke-linecap:round;stroke-linejoin:miter;stroke-miterlimit:4;stroke-dasharray:none;stroke-opacity:1" />
    <path
       inkscape:connector-curvature="0"
       id="path1499"
       d="m 110.60747,162.2539 c -1.21178,-0.1547 -2.20511,-0.28206 -2.20739,-0.28303 -0.002,-9.2e-4 -0.0141,-0.0387 -0.0263,-0.084 -0.0256,-0.095 -0.0548,-0.0634 0.2862,-0.3094 0.58124,-0.41925 1.25045,-0.76287 1.92426,-0.98806 0.44388,-0.14834 0.83145,-0.23439 1.4396,-0.31961 l 0.0787,-0.011 0.0826,0.33878 c 0.12904,0.52908 0.3059,1.03554 0.58424,1.67307 0.0606,0.13878 0.11017,0.25608 0.11017,0.26065 0,0.013 0.0511,0.0192 -2.27208,-0.27739 z"
       style="fill:#ccffaa;fill-opacity:1;stroke:#ccffaa;stroke-width:0.11803;stroke-linecap:round;stroke-linejoin:bevel;stroke-miterlimit:4;stroke-dasharray:none;stroke-dashoffset:0;stroke-opacity:1" />
    <path
       inkscape:connector-curvature="0"
       id="path1186"
       d="m 126.14068,106.81255 c -0.34933,-4.71761 -1.58137,-8.74951 -3.79886,-12.431875 -1.16237,-1.930228 -3.84251,-5.308249 -4.86636,-6.133525 l -0.68658,-0.553417 1.47923,-1.758019 c 1.66608,-1.980091 3.59056,-3.613494 5.08838,-4.318766 1.63475,-0.769747 3.61837,-0.729551 6.95476,0.140926 1.5448,0.403045 3.3952,0.741799 4.112,0.752786 1.46718,0.02249 3.37057,-0.439937 4.46155,-1.083923 l 0.73002,-0.430915 -0.0152,0.988377 c -0.022,1.436189 -0.74053,7.499741 -1.16428,9.825288 -1.72889,9.488333 -4.3028,13.939833 -9.72731,16.823103 -1.1753,0.6247 -2.18458,1.13509 -2.24284,1.1342 -0.0583,-8.9e-4 -0.20432,-1.3303 -0.32456,-2.95424 z"
       style="fill:#e3f4d7;fill-opacity:1;stroke:none;stroke-width:1.33536;stroke-linecap:round;stroke-linejoin:bevel;stroke-miterlimit:4;stroke-dasharray:none;stroke-dashoffset:0;stroke-opacity:1" />
    <path
       inkscape:connector-curvature="0"
       id="path1184"
       d="m 61.306735,108.31334 c -7.539789,-3.70935 -10.218143,-9.575783 -11.321578,-24.797788 -0.148319,-2.046049 -0.233273,-3.755386 -0.188782,-3.798528 0.04452,-0.04314 0.415955,0.122651 0.825488,0.36843 1.085807,0.651639 2.985404,1.186495 4.284685,1.20641 0.623421,0.0096 2.387491,-0.273724 3.920157,-0.629511 5.336774,-1.238864 7.226391,-0.739849 10.61969,2.804478 1.038437,1.08465 2.16642,2.399435 2.506636,2.92174 l 0.618574,0.949647 -1.52774,1.596159 c -4.793775,5.008466 -7.380735,10.755619 -7.863574,17.469613 -0.103297,1.43688 -0.247588,2.61151 -0.320576,2.6103 -0.07299,-0.001 -0.771827,-0.31664 -1.55298,-0.70095 z"
       style="fill:#e3f4d7;fill-opacity:1;stroke:none;stroke-width:1.33536;stroke-linecap:round;stroke-linejoin:bevel;stroke-miterlimit:4;stroke-dasharray:none;stroke-dashoffset:0;stroke-opacity:1" />
    <path
       inkscape:connector-curvature="0"
       id="path1182"
       d="m 89.050848,134.89616 c -6.414135,-1.14008 -11.982681,-4.02535 -16.513527,-8.55626 -8.254433,-8.25456 -10.157631,-19.72077 -4.951118,-29.829115 3.487349,-6.770634 9.718986,-11.813514 17.510406,-14.170094 3.509404,-1.061449 5.970186,-1.402007 9.778494,-1.353291 5.331877,0.06821 9.477757,1.031697 13.884947,3.226821 3.46744,1.727048 5.58238,3.268834 8.26024,6.021668 5.16573,5.310374 7.62969,11.334191 7.52157,18.388491 -0.10995,7.17316 -3.09434,13.6254 -8.66921,18.74278 -4.0822,3.74721 -9.19207,6.27604 -15.14574,7.49551 -2.357714,0.48293 -9.039693,0.50209 -11.676062,0.0335 z"
       style="fill:#ccffaa;fill-opacity:1;stroke:none;stroke-width:1.33536;stroke-linecap:round;stroke-linejoin:bevel;stroke-miterlimit:4;stroke-dasharray:none;stroke-dashoffset:0;stroke-opacity:1" />
    <ellipse
       ry="28.045073"
       rx="30.772585"
       cy="106.68099"
       cx="96.295204"
       id="path1069"
       style="fill:none;fill-opacity:1;stroke:#000000;stroke-width:1.38122;stroke-linecap:round;stroke-linejoin:bevel;stroke-miterlimit:4;stroke-dasharray:none;stroke-dashoffset:0;stroke-opacity:1"
       transform="rotate(0.87813539)" />
    <path
       style="fill:none;stroke:#000000;stroke-width:1.38122;stroke-linecap:butt;stroke-linejoin:miter;stroke-miterlimit:4;stroke-dasharray:none;stroke-opacity:1"
       d="M 63.293002,110.12258 C 54.411428,106.21369 49.764998,102.7388 48.874405,77.849157 63.569027,78.719548 66.591901,68.522819 73.439228,87.129126"
       id="path1145"
       inkscape:connector-curvature="0"
       sodipodi:nodetypes="ccc" />
    <path
       style="fill:none;stroke:#000000;stroke-width:1.38122;stroke-linecap:butt;stroke-linejoin:miter;stroke-miterlimit:4;stroke-dasharray:none;stroke-opacity:1"
       d="M 73.439228,87.129126 C 62.521368,70.711542 58.323985,86.164642 48.874405,77.849156"
       id="path1147"
       inkscape:connector-curvature="0"
       sodipodi:nodetypes="cc" />
    <path
       style="fill:none;stroke:#000000;stroke-width:1.38122;stroke-linecap:butt;stroke-linejoin:miter;stroke-miterlimit:4;stroke-dasharray:none;stroke-opacity:1"
       d="m 125.22604,111.11235 c 8.99721,-3.63485 13.74795,-6.96571 15.40094,-31.816365 -14.71439,0.419623 -17.42334,-9.864961 -24.83769,8.522749"
       id="path1145-0"
       inkscape:connector-curvature="0"
       sodipodi:nodetypes="ccc" />
    <path
       style="fill:none;stroke:#000000;stroke-width:1.38122;stroke-linecap:butt;stroke-linejoin:miter;stroke-miterlimit:4;stroke-dasharray:none;stroke-opacity:1"
       d="m 115.78929,87.818734 c 11.41589,-16.075261 15.1377,-0.50078 24.83769,-8.52275"
       id="path1147-4"
       inkscape:connector-curvature="0"
       sodipodi:nodetypes="cc" />
    <path
       style="fill:#ccffaa;fill-opacity:1;stroke:#000000;stroke-width:1.96165;stroke-linecap:round;stroke-linejoin:bevel;stroke-miterlimit:4;stroke-dasharray:none;stroke-dashoffset:0;stroke-opacity:1"
       id="path960-93"
       sodipodi:type="arc"
       sodipodi:cx="85.676193"
       sodipodi:cy="113.99823"
       sodipodi:rx="10.390731"
       sodipodi:ry="10.390731"
       sodipodi:start="0"
       sodipodi:end="3.1415927"
       d="m 96.066924,113.99823 a 10.390731,10.390731 0 0 1 -5.195365,8.99864 10.390731,10.390731 0 0 1 -10.390731,0 10.390731,10.390731 0 0 1 -5.195366,-8.99864"
       sodipodi:open="true"
       sodipodi:arc-type="arc"
       transform="rotate(0.87813539)" />
    <path
       style="fill:#ccffaa;fill-opacity:1;stroke:#000000;stroke-width:1.96165;stroke-linecap:round;stroke-linejoin:bevel;stroke-miterlimit:4;stroke-dasharray:none;stroke-dashoffset:0;stroke-opacity:1"
       id="path960-9-3"
       sodipodi:type="arc"
       sodipodi:cx="106.58768"
       sodipodi:cy="113.91769"
       sodipodi:rx="10.390731"
       sodipodi:ry="10.390731"
       sodipodi:start="0"
       sodipodi:end="3.1415927"
       d="m 116.97841,113.91769 a 10.390731,10.390731 0 0 1 -5.19537,8.99863 10.390731,10.390731 0 0 1 -10.39073,0 10.390731,10.390731 0 0 1 -5.195364,-8.99863"
       sodipodi:open="true"
       sodipodi:arc-type="arc"
       transform="rotate(0.87813539)" />
    <path
       style="fill:#000000;stroke:#000000;stroke-width:0.459612;stroke-linecap:butt;stroke-linejoin:miter;stroke-miterlimit:4;stroke-dasharray:none;stroke-opacity:1"
       d="m 90.406257,110.70773 4.113949,-2.46597 4.082473,2.60156 -4.163218,1.9352 z"
       id="path1135"
       inkscape:connector-curvature="0"
       sodipodi:nodetypes="ccccc" />
    <path
       inkscape:connector-curvature="0"
       id="path1027-5"
       d="m 93.629487,152.21287 c -2.388637,-0.65746 -4.010721,-1.579 -5.6813,-3.22765 -1.137808,-1.12288 -1.987146,-2.37639 -2.788034,-4.11477 -0.81122,-1.7608 -1.2806,-3.40626 -1.635081,-5.73192 -0.489051,-3.20856 -0.383076,-8.0158 0.265749,-12.05265 0.07723,-0.48016 0.148982,-0.87891 0.159474,-0.88611 0.01125,-0.007 0.462901,-0.0524 1.005252,-0.10036 3.886725,-0.344 7.285514,-2.56867 9.092137,-5.95122 0.363741,-0.68101 0.381626,-0.69992 0.459387,-0.48555 0.138907,0.383 0.739651,1.40705 1.188664,2.02635 1.592144,2.19594 3.882002,3.7162 6.624795,4.39826 0.78361,0.19487 1.13694,0.23471 2.28832,0.25811 0.74889,0.0152 1.3616,0.0465 1.36159,0.0696 -3e-5,0.023 0.0337,0.26875 0.0749,0.54601 0.0412,0.27725 0.13886,1.18406 0.2172,2.01513 0.60945,6.46955 -0.0307,11.82494 -1.89235,15.82823 -1.76665,3.7992 -4.742055,6.37676 -8.476266,7.34291 -1.328437,0.34371 -1.261169,0.34176 -2.26428,0.0657 z"
       style="fill:#55d400;fill-opacity:1;stroke:none;stroke-width:0.335261;stroke-linecap:round;stroke-linejoin:bevel;stroke-miterlimit:4;stroke-dasharray:none;stroke-dashoffset:0;stroke-opacity:1" />
    <path
       sodipodi:nodetypes="cc"
       inkscape:connector-curvature="0"
       id="path977-1-8"
       d="m 106.93749,125.93997 c 2.45795,17.13796 -3.13862,26.11701 -12.395494,27.54993"
       style="fill:none;stroke:#000000;stroke-width:1.96165;stroke-linecap:round;stroke-linejoin:miter;stroke-miterlimit:4;stroke-dasharray:none;stroke-opacity:1" />
    <path
       sodipodi:nodetypes="cc"
       inkscape:connector-curvature="0"
       id="path977-1-9-0"
       d="m 82.996676,125.57301 c -2.982045,17.05458 2.336707,26.20094 11.54532,27.91689"
       style="fill:none;stroke:#000000;stroke-width:1.96165;stroke-linecap:round;stroke-linejoin:miter;stroke-miterlimit:4;stroke-dasharray:none;stroke-opacity:1" />
    <path
       style="fill:none;stroke:#000000;stroke-width:1.96165;stroke-linecap:round;stroke-linejoin:miter;stroke-miterlimit:4;stroke-dasharray:none;stroke-opacity:1"
       d="m 94.469979,118.38628 -0.429258,20.26491"
       id="path1002-6"
       inkscape:connector-curvature="0" />
    <path
       inkscape:connector-curvature="0"
       id="path1206"
       d="m 69.652521,81.299768 c -1.083156,-0.955781 -2.826302,-2.050093 -3.858423,-2.422231 -0.843883,-0.304275 -1.386677,-0.385173 -2.707727,-0.403563 -1.430225,-0.01985 -2.011086,0.06316 -4.322311,0.618176 -2.434065,0.584513 -2.796471,0.632828 -4.100576,0.546669 -0.996284,-0.06582 -1.715408,-0.211944 -2.368964,-0.481364 l -0.938422,-0.386851 0.946084,-0.113019 c 3.439669,-0.410902 4.663194,-0.617449 7.521239,-1.269698 5.080967,-1.159552 6.516084,-0.984301 8.284967,1.011727 0.746402,0.842247 2.271761,3.199378 2.148039,3.31936 -0.03374,0.03274 -0.305517,-0.155907 -0.603906,-0.419206 z"
       style="fill:#ccffaa;fill-opacity:1;stroke:none;stroke-width:0.944241;stroke-linecap:round;stroke-linejoin:bevel;stroke-miterlimit:4;stroke-dasharray:none;stroke-dashoffset:0;stroke-opacity:1" />
    <path
       inkscape:connector-curvature="0"
       id="path1210"
       d="m 118.7395,83.06635 c 6.1e-4,-0.02517 0.17678,-0.356077 0.3914,-0.735358 1.74553,-3.084709 3.26876,-4.497387 5.12849,-4.756308 1.16387,-0.162038 2.20003,0.0061 5.4292,0.881146 3.20459,0.868356 5.10536,1.244703 7.18443,1.422504 0.47376,0.04052 0.99888,0.0894 1.16692,0.108622 l 0.30551,0.03495 -0.36447,0.180647 c -1.71646,0.850751 -3.29614,1.033338 -5.30099,0.612721 -0.30934,-0.0649 -1.2764,-0.316235 -2.14904,-0.558521 -1.85621,-0.515375 -2.49485,-0.654215 -3.45991,-0.752177 -2.66755,-0.270784 -5.14659,0.704718 -7.69783,3.029091 -0.34919,0.31814 -0.63436,0.557845 -0.63371,0.53268 z"
       style="fill:#ccffaa;fill-opacity:1;stroke:none;stroke-width:0.33384;stroke-linecap:round;stroke-linejoin:bevel;stroke-miterlimit:4;stroke-dasharray:none;stroke-dashoffset:0;stroke-opacity:1" />
    <rect
       rx="5.7868533"
       ry="5.2126436"
       y="92.745567"
       x="103.00679"
       height="10.425287"
       width="11.573707"
       id="rect829-0-9-0-3-3"
       style="fill:#000000;fill-opacity:1;stroke:#000000;stroke-width:0.483818;stroke-linejoin:bevel;stroke-miterlimit:10;stroke-dasharray:none;stroke-dashoffset:0;stroke-opacity:0.743719"
       transform="rotate(0.87813539)" />
    <rect
       rx="3.1028619"
       ry="2.7949758"
       y="93.734627"
       x="104.11527"
       height="5.5899515"
       width="6.2057238"
       id="rect829-0-9-3-62-2-5"
       style="fill:#ffffff;fill-opacity:1;stroke:#ffffff;stroke-width:0.25942;stroke-linejoin:bevel;stroke-miterlimit:10;stroke-dasharray:none;stroke-dashoffset:0;stroke-opacity:0.743719"
       transform="rotate(0.87813539)" />
    <rect
       rx="1.3644295"
       ry="1.2290418"
       y="99.324577"
       x="110.321"
       height="2.4580836"
       width="2.7288589"
       id="rect829-0-9-3-6-6-0-6"
       style="fill:#ffffff;fill-opacity:1;stroke:#ffffff;stroke-width:0.114075;stroke-linejoin:bevel;stroke-miterlimit:10;stroke-dasharray:none;stroke-dashoffset:0;stroke-opacity:0.743719"
       transform="rotate(0.87813539)" />
    <rect
       rx="5.7868538"
       ry="5.2126436"
       y="92.786034"
       x="77.44368"
       height="10.425287"
       width="11.573708"
       id="rect829-0-9-0-3-3-4"
       style="fill:#000000;fill-opacity:1;stroke:#000000;stroke-width:0.483818;stroke-linejoin:bevel;stroke-miterlimit:10;stroke-dasharray:none;stroke-dashoffset:0;stroke-opacity:0.743719"
       transform="rotate(0.87813539)" />
    <rect
       rx="3.1028619"
       ry="2.7949758"
       y="93.775085"
       x="78.552162"
       height="5.5899515"
       width="6.2057238"
       id="rect829-0-9-3-62-2-5-2"
       style="fill:#ffffff;fill-opacity:1;stroke:#ffffff;stroke-width:0.25942;stroke-linejoin:bevel;stroke-miterlimit:10;stroke-dasharray:none;stroke-dashoffset:0;stroke-opacity:0.743719"
       transform="rotate(0.87813539)" />
    <rect
       rx="1.3644296"
       ry="1.2290418"
       y="99.365044"
       x="84.757881"
       height="2.4580836"
       width="2.7288592"
       id="rect829-0-9-3-6-6-0-6-9"
       style="fill:#ffffff;fill-opacity:1;stroke:#ffffff;stroke-width:0.114075;stroke-linejoin:bevel;stroke-miterlimit:10;stroke-dasharray:none;stroke-dashoffset:0;stroke-opacity:0.743719"
       transform="rotate(0.87813539)" />
    <ellipse
       style="fill:#55d400;fill-opacity:1;stroke:none;stroke-width:0.144855;stroke-linecap:round;stroke-linejoin:bevel;stroke-miterlimit:4;stroke-dasharray:none;stroke-dashoffset:0;stroke-opacity:1"
       id="path1238-1-4-8"
       cx="130.35001"
       cy="101.67502"
       rx="0.24301617"
       ry="0.23118827"
       transform="rotate(0.87813534)" />
    <ellipse
       style="fill:#55d400;fill-opacity:1;stroke:none;stroke-width:0.299651;stroke-linecap:round;stroke-linejoin:bevel;stroke-miterlimit:4;stroke-dasharray:none;stroke-dashoffset:0;stroke-opacity:1"
       id="path1238-1-4-9-7"
       cx="129.50383"
       cy="102.49873"
       rx="0.50270891"
       ry="0.47824144"
       transform="rotate(0.87813534)" />
    <ellipse
       style="fill:#55d400;fill-opacity:1;stroke:none;stroke-width:0.579628;stroke-linecap:round;stroke-linejoin:bevel;stroke-miterlimit:4;stroke-dasharray:none;stroke-dashoffset:0;stroke-opacity:1"
       id="path1238-1-5-4"
       cx="65.60202"
       cy="81.353561"
       rx="0.97241127"
       ry="0.92508274"
       transform="rotate(0.87813534)" />
    <ellipse
       style="fill:#55d400;fill-opacity:1;stroke:none;stroke-width:0.144855;stroke-linecap:round;stroke-linejoin:bevel;stroke-miterlimit:4;stroke-dasharray:none;stroke-dashoffset:0;stroke-opacity:1"
       id="path1238-1-4-8-8"
       cx="66.786568"
       cy="82.100647"
       rx="0.24301617"
       ry="0.23118827"
       transform="rotate(0.87813534)" />
    <path
       style="display:inline;fill:none;stroke:#abedcc;stroke-width:1.5875;stroke-linecap:round;stroke-linejoin:miter;stroke-miterlimit:4;stroke-dasharray:none;stroke-opacity:1"
       d="m 33.628363,168.7125 v 23.55231"
       id="path1124"
       inkscape:connector-curvature="0" />
    <path
       style="display:inline;fill:none;stroke:#abedcc;stroke-width:1.44389;stroke-linecap:round;stroke-linejoin:miter;stroke-miterlimit:4;stroke-dasharray:none;stroke-opacity:1"
       d="m 45.317303,150.73369 v 19.48372"
       id="path1124-9"
       inkscape:connector-curvature="0" />
    <path
       style="display:inline;fill:none;stroke:#abedcc;stroke-width:1.44389;stroke-linecap:round;stroke-linejoin:miter;stroke-miterlimit:4;stroke-dasharray:none;stroke-opacity:1"
       d="m 146.87974,150.87276 v 19.48372"
       id="path1124-9-9"
       inkscape:connector-curvature="0" />
    <path
       style="display:inline;fill:none;stroke:#abedcc;stroke-width:1.5875;stroke-linecap:round;stroke-linejoin:miter;stroke-miterlimit:4;stroke-dasharray:none;stroke-opacity:1"
       d="m 162.51825,168.7125 v 23.55231"
       id="path1124-4"
       inkscape:connector-curvature="0" />
    <path
       style="fill:#ffffff;fill-opacity:1;stroke:#abedcc;stroke-width:1.5875;stroke-linecap:butt;stroke-linejoin:miter;stroke-miterlimit:4;stroke-dasharray:none;stroke-opacity:1"
       d="M 33.628373,168.7125 H 162.51826 l -15.63851,-17.83974"
       id="path1112"
       inkscape:connector-curvature="0"
       sodipodi:nodetypes="ccc" />
    <path
       style="fill:#ffffff;fill-opacity:1;stroke:#abedcc;stroke-width:1.5875;stroke-linecap:butt;stroke-linejoin:miter;stroke-miterlimit:4;stroke-dasharray:none;stroke-opacity:1"
       d="m 33.628373,168.7125 11.68895,-17.83974 H 146.87975"
       id="path1116"
       inkscape:connector-curvature="0" />
    <rect
       ry="3.0134416"
       rx="6.4509959"
       y="134.8765"
       x="73.125092"
       height="20.985962"
       width="46.678562"
       id="rect2"
       style="fill:none;stroke:#abedcc;stroke-width:1.85208;stroke-linecap:round;stroke-linejoin:round;stroke-miterlimit:4;stroke-dasharray:none;stroke-opacity:1" />
    <path
       style="fill:#abedcc;fill-opacity:1;stroke:#abedcc;stroke-width:1.55439;stroke-linecap:round;stroke-linejoin:miter;stroke-miterlimit:4;stroke-dasharray:none;stroke-opacity:1"
       d="m 87.076093,159.19596 19.857307,-0.0904"
       id="path991"
       inkscape:connector-curvature="0" />
    <path
       style="display:inline;fill:#abedcc;fill-opacity:1;stroke:#abedcc;stroke-width:1.12138;stroke-linecap:round;stroke-linejoin:miter;stroke-miterlimit:4;stroke-dasharray:none;stroke-opacity:1"
       d="m 81.792113,138.99769 30.492077,-0.0291"
       id="path991-1"
       inkscape:connector-curvature="0" />
    <path
       style="display:inline;fill:#abedcc;fill-opacity:1;stroke:#abedcc;stroke-width:1.12138;stroke-linecap:round;stroke-linejoin:miter;stroke-miterlimit:4;stroke-dasharray:none;stroke-opacity:1"
       d="m 81.792113,140.86786 30.492077,-0.0291"
       id="path991-1-7"
       inkscape:connector-curvature="0" />
    <path
       style="display:inline;fill:#abedcc;fill-opacity:1;stroke:#abedcc;stroke-width:1.12138;stroke-linecap:round;stroke-linejoin:miter;stroke-miterlimit:4;stroke-dasharray:none;stroke-opacity:1"
       d="m 81.792113,142.72433 30.492077,-0.0291"
       id="path991-1-72"
       inkscape:connector-curvature="0" />
    <path
       style="display:inline;fill:#abedcc;fill-opacity:1;stroke:#abedcc;stroke-width:1.12138;stroke-linecap:round;stroke-linejoin:miter;stroke-miterlimit:4;stroke-dasharray:none;stroke-opacity:1"
       d="m 81.792113,144.62804 30.492077,-0.0291"
       id="path991-1-72-6"
       inkscape:connector-curvature="0" />
    <path
       style="display:inline;fill:#abedcc;fill-opacity:1;stroke:#abedcc;stroke-width:1.12138;stroke-linecap:round;stroke-linejoin:miter;stroke-miterlimit:4;stroke-dasharray:none;stroke-opacity:1"
       d="m 81.792113,146.65434 30.492077,-0.0291"
       id="path991-1-72-4"
       inkscape:connector-curvature="0" />
    <path
       style="display:inline;fill:#abedcc;fill-opacity:1;stroke:#abedcc;stroke-width:1.12138;stroke-linecap:round;stroke-linejoin:miter;stroke-miterlimit:4;stroke-dasharray:none;stroke-opacity:1"
       d="m 81.792113,148.65281 30.492077,-0.0291"
       id="path991-1-72-5"
       inkscape:connector-curvature="0" />
    <path
       style="display:inline;fill:#abedcc;fill-opacity:1;stroke:#abedcc;stroke-width:1.12138;stroke-linecap:round;stroke-linejoin:miter;stroke-miterlimit:4;stroke-dasharray:none;stroke-opacity:1"
       d="m 81.792113,150.75044 30.492077,-0.0291"
       id="path991-1-72-2"
       inkscape:connector-curvature="0" />
    <path
       style="display:inline;fill:#abedcc;fill-opacity:1;stroke:#abedcc;stroke-width:1.12138;stroke-linecap:round;stroke-linejoin:miter;stroke-miterlimit:4;stroke-dasharray:none;stroke-opacity:1"
       d="m 81.792113,152.68367 30.492077,-0.0291"
       id="path991-1-72-0"
       inkscape:connector-curvature="0"
       inkscape:transform-center-x="2.629735"
       inkscape:transform-center-y="-0.2126116" />
  </g>
</svg>
