<?xml version="1.0" encoding="UTF-8" standalone="no"?>
<!-- Created with Inkscape (http://www.inkscape.org/) -->

<svg
   width="68.613525mm"
   height="66.718964mm"
   viewBox="0 0 68.613523 66.718964"
   version="1.1"
   id="svg1"
   inkscape:version="1.3 (0e150ed6c4, 2023-07-21)"
   sodipodi:docname="cuteplant_sun_pressed.svg"
   xml:space="preserve"
   xmlns:inkscape="http://www.inkscape.org/namespaces/inkscape"
   xmlns:sodipodi="http://sodipodi.sourceforge.net/DTD/sodipodi-0.dtd"
   xmlns="http://www.w3.org/2000/svg"
   xmlns:svg="http://www.w3.org/2000/svg"
   xmlns:rdf="http://www.w3.org/1999/02/22-rdf-syntax-ns#"
   xmlns:cc="http://creativecommons.org/ns#"
   xmlns:dc="http://purl.org/dc/elements/1.1/"><metadata
     id="metadata17"><rdf:RDF><cc:Work
         rdf:about=""><dc:format>image/svg+xml</dc:format><dc:type
           rdf:resource="http://purl.org/dc/dcmitype/StillImage" /></cc:Work></rdf:RDF></metadata><sodipodi:namedview
     id="namedview1"
     pagecolor="#ffffff"
     bordercolor="#000000"
     borderopacity="0.25"
     inkscape:showpageshadow="2"
     inkscape:pageopacity="0.0"
     inkscape:pagecheckerboard="0"
     inkscape:deskcolor="#d1d1d1"
     inkscape:document-units="mm"
     inkscape:zoom="1.0818816"
     inkscape:cx="182.09017"
     inkscape:cy="159.44444"
     inkscape:window-width="956"
     inkscape:window-height="1037"
     inkscape:window-x="0"
     inkscape:window-y="0"
     inkscape:window-maximized="1"
     inkscape:current-layer="layer1"
     showgrid="false" /><defs
     id="defs1" /><g
     inkscape:label="Calque 1"
     inkscape:groupmode="layer"
     id="layer1"
     transform="translate(-233.46032,-36.867977)"><path
       id="path82"
       style="fill:none;fill-opacity:1;stroke:#ffffff;stroke-width:5.82083333;stroke-linecap:round;stroke-linejoin:round;stroke-opacity:1;stroke-dasharray:none"
       d="M 268.84731 44.211715 C 266.24302 44.199227 265.13236 47.581531 264.47755 49.728691 C 264.42556 49.89917 264.38073 50.073436 264.33957 50.249072 C 264.23094 50.028384 264.11815 49.812706 264.00057 49.607768 C 262.82063 47.551025 260.52808 44.487239 257.93376 45.08453 C 255.41968 45.663357 255.40741 49.175545 255.44761 51.393705 C 255.46146 52.157959 255.59 52.952217 255.83777 53.717595 C 255.37546 53.266071 254.87887 52.852645 254.38772 52.493897 C 252.34765 51.003748 248.81792 48.964565 246.71377 50.388599 C 244.67468 51.768608 246.29669 54.997722 247.36541 57.020752 C 247.61427 57.491832 247.91862 57.957435 248.26872 58.401546 C 248.09972 58.338612 247.93131 58.278737 247.76539 58.223263 C 245.26377 57.386857 241.14343 56.449043 239.70542 58.382943 C 238.31187 60.257056 241.08964 62.852651 242.87938 64.464225 C 243.29735 64.840585 243.76584 65.196229 244.26948 65.518425 C 244.02135 65.526767 243.77606 65.538897 243.53929 65.557182 C 240.86285 65.763883 236.68599 66.497354 236.41725 68.775073 C 236.15682 70.982377 240.00493 72.243203 242.45254 73.001172 C 242.6469 73.061363 242.84643 73.116078 243.04785 73.16757 C 242.77963 73.238872 242.51716 73.314058 242.2665 73.39443 C 239.75137 74.200897 235.95426 75.855558 236.40743 78.111971 C 236.84659 80.298626 240.95034 80.640924 243.54653 80.816199 C 243.89973 80.840044 244.26058 80.847323 244.62398 80.84152 C 242.74945 82.136939 240.99226 83.888242 241.78178 85.51617 C 242.77617 87.566516 246.86722 87.129412 249.44487 86.812732 C 249.72296 86.778567 250.00298 86.73451 250.28307 86.680957 C 249.36783 88.750688 248.69673 91.460273 250.59054 92.580855 C 252.72947 93.846473 255.89206 91.5928 257.85831 90.13811 C 258.31759 89.798326 258.755 89.414701 259.15436 88.999679 C 259.1536 89.211207 259.15693 89.420104 259.16831 89.62238 C 259.29702 91.908948 259.97983 95.495474 262.63993 95.820968 C 265.2178 96.136398 266.86003 92.914477 267.85305 90.863648 C 267.93189 90.700821 268.00425 90.533649 268.07319 90.364453 C 268.14541 90.595678 268.22267 90.822681 268.30626 91.039347 C 269.14528 93.214116 270.9249 96.515387 273.59069 96.225594 C 276.17406 95.94476 276.75003 92.467279 277.06593 90.265234 C 277.17474 89.506706 277.1751 88.704952 277.05249 87.918091 C 277.43793 88.418955 277.86338 88.886509 278.29221 89.298885 C 280.07417 91.012464 283.24356 93.443339 285.55636 92.277515 C 287.5061 91.294698 286.93534 88.60396 286.27053 86.51921 C 287.8509 87.455783 289.60491 88.029031 290.98342 87.274203 C 293.17416 86.07462 291.93925 82.723685 291.11313 80.619828 C 291.0241 80.393084 290.92308 80.166276 290.81134 79.941317 C 293.3654 80.338697 296.61454 80.41699 297.57062 78.629769 C 298.65054 76.61106 295.48292 74.36301 293.45149 72.974817 C 292.977 72.65057 292.45551 72.352781 291.90481 72.092184 C 292.14931 72.055042 292.39045 72.014864 292.62208 71.969194 C 295.24028 71.452976 299.26084 70.240022 299.16174 67.952385 C 299.06573 65.73547 295.05099 64.93388 292.50478 64.467843 C 292.30246 64.430812 292.0962 64.40034 291.88828 64.372758 C 292.14257 64.270905 292.39078 64.165811 292.62622 64.057015 C 294.98843 62.965426 298.48425 60.884309 297.67345 58.701786 C 296.88772 56.586738 292.76793 56.725351 290.16797 56.853837 C 289.81434 56.871313 289.45569 56.905557 289.09672 56.953573 C 290.74583 55.452188 292.20538 53.512845 291.16222 51.992118 C 289.84833 50.076712 285.86592 50.985706 283.36322 51.599378 C 283.09346 51.665522 282.82311 51.741723 282.55448 51.827271 C 283.12907 49.670536 283.35844 46.908444 281.30288 46.01884 C 278.98104 45.013993 276.20955 47.614927 274.49502 49.28479 C 274.09454 49.674841 273.72338 50.105652 273.39432 50.563265 C 273.36114 50.353618 273.32435 50.146865 273.28063 49.947799 C 272.78641 47.697645 271.53467 44.224605 268.84731 44.211715 z " /><g
       id="g60"
       transform="matrix(0.44022109,0,0,0.37498975,166.15252,-59.723921)"
       style="stroke-width:2.46123"><g
         id="g24"
         transform="translate(0.63818348,-2.084615)"
         style="stroke-width:2.46123"><path
           style="fill:#febe00;fill-opacity:1;stroke:#000000;stroke-width:3.90599;stroke-linecap:round;stroke-linejoin:round;stroke-opacity:1"
           d="m 194.32955,324.39586 c -4.68606,-1.91406 -8.40851,-6.36822 -10.48573,-10.98427 -2.4277,-5.3949 -6.11266,-14.00589 -1.48068,-17.68602 4.77975,-3.79753 12.79817,1.64022 17.43238,5.61406 4.55785,3.90836 9.33533,10.23259 8.07212,16.10231 -0.75444,3.50561 -4.99121,5.52717 -8.35023,6.78235 -1.62077,0.60564 -3.58609,0.82583 -5.18786,0.17157 z"
           id="path23"
           sodipodi:nodetypes="aaaaaaa" /><path
           style="fill:none;fill-opacity:1;stroke:#000000;stroke-width:3.90599;stroke-linecap:round;stroke-linejoin:round;stroke-opacity:1"
           d="m 201.62554,320.89181 c 0,0 -2.0122,-5.10937 -3.63281,-7.28625 -1.22267,-1.64235 -4.48006,-4.20228 -4.48006,-4.20228"
           id="path24"
           sodipodi:nodetypes="cac" /></g><g
         id="g26"
         transform="rotate(23.342755,234.70695,350.84977)"
         style="stroke-width:2.46123"><path
           style="fill:#febe00;fill-opacity:1;stroke:#000000;stroke-width:3.90599;stroke-linecap:round;stroke-linejoin:round;stroke-opacity:1"
           d="m 194.32955,324.39586 c -4.68606,-1.91406 -8.40851,-6.36822 -10.48573,-10.98427 -2.4277,-5.3949 -6.11266,-14.00589 -1.48068,-17.68602 4.77975,-3.79753 12.79817,1.64022 17.43238,5.61406 4.55785,3.90836 9.33533,10.23259 8.07212,16.10231 -0.75444,3.50561 -4.99121,5.52717 -8.35023,6.78235 -1.62077,0.60564 -3.58609,0.82583 -5.18786,0.17157 z"
           id="path25"
           sodipodi:nodetypes="aaaaaaa" /><path
           style="fill:none;fill-opacity:1;stroke:#000000;stroke-width:3.90599;stroke-linecap:round;stroke-linejoin:round;stroke-opacity:1"
           d="m 201.62554,320.89181 c 0,0 -2.0122,-5.10937 -3.63281,-7.28625 -1.22267,-1.64235 -4.48006,-4.20228 -4.48006,-4.20228"
           id="path26"
           sodipodi:nodetypes="cac" /></g><g
         id="g28"
         transform="rotate(38.789854,234.17625,358.76004)"
         style="stroke-width:2.46123"><path
           style="fill:#febe00;fill-opacity:1;stroke:#000000;stroke-width:3.90599;stroke-linecap:round;stroke-linejoin:round;stroke-opacity:1"
           d="m 194.32955,324.39586 c -4.68606,-1.91406 -8.40851,-6.36822 -10.48573,-10.98427 -2.4277,-5.3949 -6.11266,-14.00589 -1.48068,-17.68602 4.77975,-3.79753 12.79817,1.64022 17.43238,5.61406 4.55785,3.90836 9.33533,10.23259 8.07212,16.10231 -0.75444,3.50561 -4.99121,5.52717 -8.35023,6.78235 -1.62077,0.60564 -3.58609,0.82583 -5.18786,0.17157 z"
           id="path27"
           sodipodi:nodetypes="aaaaaaa" /><path
           style="fill:none;fill-opacity:1;stroke:#000000;stroke-width:3.90599;stroke-linecap:round;stroke-linejoin:round;stroke-opacity:1"
           d="m 201.62554,320.89181 c 0,0 -2.0122,-5.10937 -3.63281,-7.28625 -1.22267,-1.64235 -4.48006,-4.20228 -4.48006,-4.20228"
           id="path28"
           sodipodi:nodetypes="cac" /></g><g
         id="g30"
         transform="rotate(65.400771,232.66699,350.54842)"
         style="stroke-width:2.46123"><path
           style="fill:#febe00;fill-opacity:1;stroke:#000000;stroke-width:3.90599;stroke-linecap:round;stroke-linejoin:round;stroke-opacity:1"
           d="m 194.32955,324.39586 c -4.68606,-1.91406 -8.40851,-6.36822 -10.48573,-10.98427 -2.4277,-5.3949 -6.11266,-14.00589 -1.48068,-17.68602 4.77975,-3.79753 12.79817,1.64022 17.43238,5.61406 4.55785,3.90836 9.33533,10.23259 8.07212,16.10231 -0.75444,3.50561 -4.99121,5.52717 -8.35023,6.78235 -1.62077,0.60564 -3.58609,0.82583 -5.18786,0.17157 z"
           id="path29"
           sodipodi:nodetypes="aaaaaaa" /><path
           style="fill:none;fill-opacity:1;stroke:#000000;stroke-width:3.90599;stroke-linecap:round;stroke-linejoin:round;stroke-opacity:1"
           d="m 201.62554,320.89181 c 0,0 -2.0122,-5.10937 -3.63281,-7.28625 -1.22267,-1.64235 -4.48006,-4.20228 -4.48006,-4.20228"
           id="path30"
           sodipodi:nodetypes="cac" /></g><g
         id="g32"
         transform="rotate(98.168846,232.21683,340.85368)"
         style="stroke-width:2.46123"><path
           style="fill:#febe00;fill-opacity:1;stroke:#000000;stroke-width:3.90599;stroke-linecap:round;stroke-linejoin:round;stroke-opacity:1"
           d="m 194.32955,324.39586 c -4.68606,-1.91406 -8.40851,-6.36822 -10.48573,-10.98427 -2.4277,-5.3949 -6.11266,-14.00589 -1.48068,-17.68602 4.77975,-3.79753 12.79817,1.64022 17.43238,5.61406 4.55785,3.90836 9.33533,10.23259 8.07212,16.10231 -0.75444,3.50561 -4.99121,5.52717 -8.35023,6.78235 -1.62077,0.60564 -3.58609,0.82583 -5.18786,0.17157 z"
           id="path31"
           sodipodi:nodetypes="aaaaaaa" /><path
           style="fill:none;fill-opacity:1;stroke:#000000;stroke-width:3.90599;stroke-linecap:round;stroke-linejoin:round;stroke-opacity:1"
           d="m 201.62554,320.89181 c 0,0 -2.0122,-5.10937 -3.63281,-7.28625 -1.22267,-1.64235 -4.48006,-4.20228 -4.48006,-4.20228"
           id="path32"
           sodipodi:nodetypes="cac" /></g><g
         id="g34"
         transform="rotate(110.90741,233.64852,345.83643)"
         style="stroke-width:2.46123"><path
           style="fill:#febe00;fill-opacity:1;stroke:#000000;stroke-width:3.90599;stroke-linecap:round;stroke-linejoin:round;stroke-opacity:1"
           d="m 194.32955,324.39586 c -4.68606,-1.91406 -8.40851,-6.36822 -10.48573,-10.98427 -2.4277,-5.3949 -6.11266,-14.00589 -1.48068,-17.68602 4.77975,-3.79753 12.79817,1.64022 17.43238,5.61406 4.55785,3.90836 9.33533,10.23259 8.07212,16.10231 -0.75444,3.50561 -4.99121,5.52717 -8.35023,6.78235 -1.62077,0.60564 -3.58609,0.82583 -5.18786,0.17157 z"
           id="path33"
           sodipodi:nodetypes="aaaaaaa" /><path
           style="fill:none;fill-opacity:1;stroke:#000000;stroke-width:3.90599;stroke-linecap:round;stroke-linejoin:round;stroke-opacity:1"
           d="m 201.62554,320.89181 c 0,0 -2.0122,-5.10937 -3.63281,-7.28625 -1.22267,-1.64235 -4.48006,-4.20228 -4.48006,-4.20228"
           id="path34"
           sodipodi:nodetypes="cac" /></g><g
         id="g36"
         transform="rotate(126.3545,230.93777,348.38437)"
         style="stroke-width:2.46123"><path
           style="fill:#febe00;fill-opacity:1;stroke:#000000;stroke-width:3.90599;stroke-linecap:round;stroke-linejoin:round;stroke-opacity:1"
           d="m 194.32955,324.39586 c -4.68606,-1.91406 -8.40851,-6.36822 -10.48573,-10.98427 -2.4277,-5.3949 -6.11266,-14.00589 -1.48068,-17.68602 4.77975,-3.79753 12.79817,1.64022 17.43238,5.61406 4.55785,3.90836 9.33533,10.23259 8.07212,16.10231 -0.75444,3.50561 -4.99121,5.52717 -8.35023,6.78235 -1.62077,0.60564 -3.58609,0.82583 -5.18786,0.17157 z"
           id="path35"
           sodipodi:nodetypes="aaaaaaa" /><path
           style="fill:none;fill-opacity:1;stroke:#000000;stroke-width:3.90599;stroke-linecap:round;stroke-linejoin:round;stroke-opacity:1"
           d="m 201.62554,320.89181 c 0,0 -2.0122,-5.10937 -3.63281,-7.28625 -1.22267,-1.64235 -4.48006,-4.20228 -4.48006,-4.20228"
           id="path36"
           sodipodi:nodetypes="cac" /></g><g
         id="g38"
         transform="rotate(152.96542,231.64355,346.30223)"
         style="stroke-width:2.46123"><path
           style="fill:#febe00;fill-opacity:1;stroke:#000000;stroke-width:3.90599;stroke-linecap:round;stroke-linejoin:round;stroke-opacity:1"
           d="m 194.32955,324.39586 c -4.68606,-1.91406 -8.40851,-6.36822 -10.48573,-10.98427 -2.4277,-5.3949 -6.11266,-14.00589 -1.48068,-17.68602 4.77975,-3.79753 12.79817,1.64022 17.43238,5.61406 4.55785,3.90836 9.33533,10.23259 8.07212,16.10231 -0.75444,3.50561 -4.99121,5.52717 -8.35023,6.78235 -1.62077,0.60564 -3.58609,0.82583 -5.18786,0.17157 z"
           id="path37"
           sodipodi:nodetypes="aaaaaaa" /><path
           style="fill:none;fill-opacity:1;stroke:#000000;stroke-width:3.90599;stroke-linecap:round;stroke-linejoin:round;stroke-opacity:1"
           d="m 201.62554,320.89181 c 0,0 -2.0122,-5.10937 -3.63281,-7.28625 -1.22267,-1.64235 -4.48006,-4.20228 -4.48006,-4.20228"
           id="path38"
           sodipodi:nodetypes="cac" /></g><g
         id="g40"
         transform="rotate(-174.2665,235.3746,341.33205)"
         style="stroke-width:2.46123"><path
           style="fill:#febe00;fill-opacity:1;stroke:#000000;stroke-width:3.90599;stroke-linecap:round;stroke-linejoin:round;stroke-opacity:1"
           d="m 194.32955,324.39586 c -4.68606,-1.91406 -8.40851,-6.36822 -10.48573,-10.98427 -2.4277,-5.3949 -6.11266,-14.00589 -1.48068,-17.68602 4.77975,-3.79753 12.79817,1.64022 17.43238,5.61406 4.55785,3.90836 9.33533,10.23259 8.07212,16.10231 -0.75444,3.50561 -4.99121,5.52717 -8.35023,6.78235 -1.62077,0.60564 -3.58609,0.82583 -5.18786,0.17157 z"
           id="path39"
           sodipodi:nodetypes="aaaaaaa" /><path
           style="fill:none;fill-opacity:1;stroke:#000000;stroke-width:3.90599;stroke-linecap:round;stroke-linejoin:round;stroke-opacity:1"
           d="m 201.62554,320.89181 c 0,0 -2.0122,-5.10937 -3.63281,-7.28625 -1.22267,-1.64235 -4.48006,-4.20228 -4.48006,-4.20228"
           id="path40"
           sodipodi:nodetypes="cac" /></g><g
         id="g43"
         transform="rotate(-172.14814,230.56147,347.48729)"
         style="stroke-width:2.46123"><path
           style="fill:#febe00;fill-opacity:1;stroke:#000000;stroke-width:3.90599;stroke-linecap:round;stroke-linejoin:round;stroke-opacity:1"
           d="m 194.32955,324.39586 c -4.68606,-1.91406 -8.40851,-6.36822 -10.48573,-10.98427 -2.4277,-5.3949 -6.11266,-14.00589 -1.48068,-17.68602 4.77975,-3.79753 12.79817,1.64022 17.43238,5.61406 4.55785,3.90836 9.33533,10.23259 8.07212,16.10231 -0.75444,3.50561 -4.99121,5.52717 -8.35023,6.78235 -1.62077,0.60564 -3.58609,0.82583 -5.18786,0.17157 z"
           id="path42"
           sodipodi:nodetypes="aaaaaaa" /><path
           style="fill:none;fill-opacity:1;stroke:#000000;stroke-width:3.90599;stroke-linecap:round;stroke-linejoin:round;stroke-opacity:1"
           d="m 201.62554,320.89181 c 0,0 -2.0122,-5.10937 -3.63281,-7.28625 -1.22267,-1.64235 -4.48006,-4.20228 -4.48006,-4.20228"
           id="path43"
           sodipodi:nodetypes="cac" /></g><g
         id="g45"
         transform="rotate(-148.80539,229.97971,347.19064)"
         style="stroke-width:2.46123"><path
           style="fill:#febe00;fill-opacity:1;stroke:#000000;stroke-width:3.90599;stroke-linecap:round;stroke-linejoin:round;stroke-opacity:1"
           d="m 194.32955,324.39586 c -4.68606,-1.91406 -8.40851,-6.36822 -10.48573,-10.98427 -2.4277,-5.3949 -6.11266,-14.00589 -1.48068,-17.68602 4.77975,-3.79753 12.79817,1.64022 17.43238,5.61406 4.55785,3.90836 9.33533,10.23259 8.07212,16.10231 -0.75444,3.50561 -4.99121,5.52717 -8.35023,6.78235 -1.62077,0.60564 -3.58609,0.82583 -5.18786,0.17157 z"
           id="path44"
           sodipodi:nodetypes="aaaaaaa" /><path
           style="fill:none;fill-opacity:1;stroke:#000000;stroke-width:3.90599;stroke-linecap:round;stroke-linejoin:round;stroke-opacity:1"
           d="m 201.62554,320.89181 c 0,0 -2.0122,-5.10937 -3.63281,-7.28625 -1.22267,-1.64235 -4.48006,-4.20228 -4.48006,-4.20228"
           id="path45"
           sodipodi:nodetypes="cac" /></g><g
         id="g47"
         transform="rotate(-133.35829,226.43723,347.3257)"
         style="stroke-width:2.46123"><path
           style="fill:#febe00;fill-opacity:1;stroke:#000000;stroke-width:3.90599;stroke-linecap:round;stroke-linejoin:round;stroke-opacity:1"
           d="m 194.32955,324.39586 c -4.68606,-1.91406 -8.40851,-6.36822 -10.48573,-10.98427 -2.4277,-5.3949 -6.11266,-14.00589 -1.48068,-17.68602 4.77975,-3.79753 12.79817,1.64022 17.43238,5.61406 4.55785,3.90836 9.33533,10.23259 8.07212,16.10231 -0.75444,3.50561 -4.99121,5.52717 -8.35023,6.78235 -1.62077,0.60564 -3.58609,0.82583 -5.18786,0.17157 z"
           id="path46"
           sodipodi:nodetypes="aaaaaaa" /><path
           style="fill:none;fill-opacity:1;stroke:#000000;stroke-width:3.90599;stroke-linecap:round;stroke-linejoin:round;stroke-opacity:1"
           d="m 201.62554,320.89181 c 0,0 -2.0122,-5.10937 -3.63281,-7.28625 -1.22267,-1.64235 -4.48006,-4.20228 -4.48006,-4.20228"
           id="path47"
           sodipodi:nodetypes="cac" /></g><g
         id="g49"
         transform="rotate(-106.74737,228.13194,347.43047)"
         style="stroke-width:2.46123"><path
           style="fill:#febe00;fill-opacity:1;stroke:#000000;stroke-width:3.90599;stroke-linecap:round;stroke-linejoin:round;stroke-opacity:1"
           d="m 194.32955,324.39586 c -4.68606,-1.91406 -8.40851,-6.36822 -10.48573,-10.98427 -2.4277,-5.3949 -6.11266,-14.00589 -1.48068,-17.68602 4.77975,-3.79753 12.79817,1.64022 17.43238,5.61406 4.55785,3.90836 9.33533,10.23259 8.07212,16.10231 -0.75444,3.50561 -4.99121,5.52717 -8.35023,6.78235 -1.62077,0.60564 -3.58609,0.82583 -5.18786,0.17157 z"
           id="path48"
           sodipodi:nodetypes="aaaaaaa" /><path
           style="fill:none;fill-opacity:1;stroke:#000000;stroke-width:3.90599;stroke-linecap:round;stroke-linejoin:round;stroke-opacity:1"
           d="m 201.62554,320.89181 c 0,0 -2.0122,-5.10937 -3.63281,-7.28625 -1.22267,-1.64235 -4.48006,-4.20228 -4.48006,-4.20228"
           id="path49"
           sodipodi:nodetypes="cac" /></g><g
         id="g51"
         transform="rotate(-73.979294,237.87676,348.53431)"
         style="stroke-width:2.46123"><path
           style="fill:#febe00;fill-opacity:1;stroke:#000000;stroke-width:3.90599;stroke-linecap:round;stroke-linejoin:round;stroke-opacity:1"
           d="m 194.32955,324.39586 c -4.68606,-1.91406 -8.40851,-6.36822 -10.48573,-10.98427 -2.4277,-5.3949 -6.11266,-14.00589 -1.48068,-17.68602 4.77975,-3.79753 12.79817,1.64022 17.43238,5.61406 4.55785,3.90836 9.33533,10.23259 8.07212,16.10231 -0.75444,3.50561 -4.99121,5.52717 -8.35023,6.78235 -1.62077,0.60564 -3.58609,0.82583 -5.18786,0.17157 z"
           id="path50"
           sodipodi:nodetypes="aaaaaaa" /><path
           style="fill:none;fill-opacity:1;stroke:#000000;stroke-width:3.90599;stroke-linecap:round;stroke-linejoin:round;stroke-opacity:1"
           d="m 201.62554,320.89181 c 0,0 -2.0122,-5.10937 -3.63281,-7.28625 -1.22267,-1.64235 -4.48006,-4.20228 -4.48006,-4.20228"
           id="path51"
           sodipodi:nodetypes="cac" /></g><g
         id="g53"
         transform="rotate(-61.24073,231.67067,350.88686)"
         style="stroke-width:2.46123"><path
           style="fill:#febe00;fill-opacity:1;stroke:#000000;stroke-width:3.90599;stroke-linecap:round;stroke-linejoin:round;stroke-opacity:1"
           d="m 194.32955,324.39586 c -4.68606,-1.91406 -8.40851,-6.36822 -10.48573,-10.98427 -2.4277,-5.3949 -6.11266,-14.00589 -1.48068,-17.68602 4.77975,-3.79753 12.79817,1.64022 17.43238,5.61406 4.55785,3.90836 9.33533,10.23259 8.07212,16.10231 -0.75444,3.50561 -4.99121,5.52717 -8.35023,6.78235 -1.62077,0.60564 -3.58609,0.82583 -5.18786,0.17157 z"
           id="path52"
           sodipodi:nodetypes="aaaaaaa" /><path
           style="fill:none;fill-opacity:1;stroke:#000000;stroke-width:3.90599;stroke-linecap:round;stroke-linejoin:round;stroke-opacity:1"
           d="m 201.62554,320.89181 c 0,0 -2.0122,-5.10937 -3.63281,-7.28625 -1.22267,-1.64235 -4.48006,-4.20228 -4.48006,-4.20228"
           id="path53"
           sodipodi:nodetypes="cac" /></g><g
         id="g55"
         transform="rotate(-45.79364,226.56657,346.13298)"
         style="stroke-width:2.46123"><path
           style="fill:#febe00;fill-opacity:1;stroke:#000000;stroke-width:3.90599;stroke-linecap:round;stroke-linejoin:round;stroke-opacity:1"
           d="m 194.32955,324.39586 c -4.68606,-1.91406 -8.40851,-6.36822 -10.48573,-10.98427 -2.4277,-5.3949 -6.11266,-14.00589 -1.48068,-17.68602 4.77975,-3.79753 12.79817,1.64022 17.43238,5.61406 4.55785,3.90836 9.33533,10.23259 8.07212,16.10231 -0.75444,3.50561 -4.99121,5.52717 -8.35023,6.78235 -1.62077,0.60564 -3.58609,0.82583 -5.18786,0.17157 z"
           id="path54"
           sodipodi:nodetypes="aaaaaaa" /><path
           style="fill:none;fill-opacity:1;stroke:#000000;stroke-width:3.90599;stroke-linecap:round;stroke-linejoin:round;stroke-opacity:1"
           d="m 201.62554,320.89181 c 0,0 -2.0122,-5.10937 -3.63281,-7.28625 -1.22267,-1.64235 -4.48006,-4.20228 -4.48006,-4.20228"
           id="path55"
           sodipodi:nodetypes="cac" /></g><g
         id="g57"
         transform="rotate(-19.18272,231.63438,350.55814)"
         style="stroke-width:2.46123"><path
           style="fill:#febe00;fill-opacity:1;stroke:#000000;stroke-width:3.90599;stroke-linecap:round;stroke-linejoin:round;stroke-opacity:1"
           d="m 194.32955,324.39586 c -4.68606,-1.91406 -8.40851,-6.36822 -10.48573,-10.98427 -2.4277,-5.3949 -6.11266,-14.00589 -1.48068,-17.68602 4.77975,-3.79753 12.79817,1.64022 17.43238,5.61406 4.55785,3.90836 9.33533,10.23259 8.07212,16.10231 -0.75444,3.50561 -4.99121,5.52717 -8.35023,6.78235 -1.62077,0.60564 -3.58609,0.82583 -5.18786,0.17157 z"
           id="path56"
           sodipodi:nodetypes="aaaaaaa" /><path
           style="fill:none;fill-opacity:1;stroke:#000000;stroke-width:3.90599;stroke-linecap:round;stroke-linejoin:round;stroke-opacity:1"
           d="m 201.62554,320.89181 c 0,0 -2.0122,-5.10937 -3.63281,-7.28625 -1.22267,-1.64235 -4.48006,-4.20228 -4.48006,-4.20228"
           id="path57"
           sodipodi:nodetypes="cac" /></g></g><path
       style="fill:#c85d28;fill-opacity:1;stroke:#000000;stroke-width:1.587;stroke-linecap:round;stroke-linejoin:round;stroke-opacity:1"
       d="m 272.85929,87.30104 c -4.98649,1.02425 -10.36092,-0.29928 -15.13165,-2.07173 -2.93327,-1.0898 -5.94257,-2.64857 -7.87086,-5.107 -2.30552,-2.93936 -3.75007,-6.8468 -3.67527,-10.57742 0.0786,-3.91838 1.50483,-8.19387 4.30247,-10.9471 3.96701,-3.90403 10.09286,-5.41829 15.6477,-5.88048 5.69659,-0.47398 12.38824,-0.29511 16.82767,3.2952 3.34464,2.70493 4.69985,7.57638 5.05146,11.85574 0.33963,4.13354 -0.48382,8.74713 -2.945,12.09077 -2.81145,3.81949 -7.5523,6.38601 -12.20652,7.34202 z"
       id="path18"
       sodipodi:nodetypes="aaaaaaaaaa" /><path
       style="fill:#1a1a1a;fill-opacity:1;stroke:none;stroke-width:1.587;stroke-linecap:round;stroke-linejoin:round"
       d="m 259.51432,65.783464 c -1.0638,-0.611715 -3.62023,0.06409 -3.495,-1.156641 0.17962,-1.750889 3.56331,-1.125128 5.24528,-0.606606 0.9622,0.296624 2.00345,1.009411 2.28441,1.976298 0.46176,1.589121 0.2203,4.887716 -1.42917,4.754386 -1.00983,-0.08163 0.0795,-2.118928 -0.3961,-3.013471 -0.46157,-0.868084 -1.35712,-1.46387 -2.20942,-1.953966 z"
       id="path19"
       sodipodi:nodetypes="aaaaaaa" /><path
       style="fill:#1a1a1a;fill-opacity:1;stroke:none;stroke-width:1.587;stroke-linecap:round;stroke-linejoin:round"
       d="m 277.27991,66.14883 c 1.20247,-0.244787 3.41505,1.203163 3.68141,0.0053 0.38204,-1.718116 -3.02623,-2.19203 -4.78589,-2.230736 -1.00663,-0.02215 -2.21961,0.325663 -2.79131,1.154498 -0.93961,1.362226 -1.75134,4.568489 -0.14407,4.962453 0.984,0.241193 0.59316,-2.035767 1.32675,-2.734525 0.71191,-0.67809 1.74971,-0.960851 2.71311,-1.15697 z"
       id="path81"
       sodipodi:nodetypes="aaaaaaa" /></g></svg>
