<?xml version="1.0" encoding="UTF-8" standalone="no"?>
<!-- Created with Inkscape (http://www.inkscape.org/) -->

<svg
   width="21.543715mm"
   height="21.330904mm"
   viewBox="0 0 21.543714 21.330904"
   version="1.1"
   id="svg1"
   inkscape:version="1.3 (0e150ed6c4, 2023-07-21)"
   sodipodi:docname="cuteplant_light_particle.svg"
   xml:space="preserve"
   xmlns:inkscape="http://www.inkscape.org/namespaces/inkscape"
   xmlns:sodipodi="http://sodipodi.sourceforge.net/DTD/sodipodi-0.dtd"
   xmlns="http://www.w3.org/2000/svg"
   xmlns:svg="http://www.w3.org/2000/svg"
   xmlns:rdf="http://www.w3.org/1999/02/22-rdf-syntax-ns#"
   xmlns:cc="http://creativecommons.org/ns#"
   xmlns:dc="http://purl.org/dc/elements/1.1/"><metadata
     id="metadata17"><rdf:RDF><cc:Work
         rdf:about=""><dc:format>image/svg+xml</dc:format><dc:type
           rdf:resource="http://purl.org/dc/dcmitype/StillImage" /></cc:Work></rdf:RDF></metadata><sodipodi:namedview
     id="namedview1"
     pagecolor="#ffffff"
     bordercolor="#000000"
     borderopacity="0.25"
     inkscape:showpageshadow="2"
     inkscape:pageopacity="0.0"
     inkscape:pagecheckerboard="0"
     inkscape:deskcolor="#d1d1d1"
     inkscape:document-units="mm"
     inkscape:zoom="1.3333553"
     inkscape:cx="186.74692"
     inkscape:cy="169.8722"
     inkscape:window-width="1916"
     inkscape:window-height="1037"
     inkscape:window-x="0"
     inkscape:window-y="0"
     inkscape:window-maximized="1"
     inkscape:current-layer="layer1"
     showgrid="false" /><defs
     id="defs1" /><g
     inkscape:label="Calque 1"
     inkscape:groupmode="layer"
     id="layer1"
     transform="translate(-286.53533,-91.220989)"><path
       style="fill:#ffff99;fill-opacity:1;stroke:none;stroke-width:5.82084;stroke-linecap:round;stroke-linejoin:round"
       d="m 294.94696,112.3936 c -2.32731,-0.17676 -5.23602,-0.5609 -6.54244,-2.49504 -2.65037,-3.92385 -2.40916,-10.292134 0.2605,-14.202884 2.15575,-3.157917 6.82136,-4.929457 10.60428,-4.373387 3.1466,0.46253 6.09355,3.122737 7.40059,6.022157 1.73134,3.840664 2.19771,9.404274 -0.51431,12.628114 -2.46064,2.92502 -7.39723,2.71051 -11.20862,2.42104 z"
       id="path1"
       sodipodi:nodetypes="aaaaaaa" /><path
       style="fill:#ffffcc;fill-opacity:1;stroke:none;stroke-width:5.82084;stroke-linecap:round;stroke-linejoin:round"
       d="m 295.49447,109.95625 c -1.78744,-0.13576 -4.02142,-0.43079 -5.02478,-1.91627 -2.03556,-3.01363 -1.85031,-7.90466 0.20007,-10.908234 1.65568,-2.42537 5.23899,-3.785957 8.14439,-3.35888 2.41668,0.35523 4.68003,2.39835 5.68387,4.62519 1.32972,2.949744 1.68791,7.222764 -0.39501,9.698764 -1.88984,2.2465 -5.68128,2.08175 -8.60854,1.85943 z"
       id="path2"
       sodipodi:nodetypes="aaaaaaa" /></g></svg>
