<?xml version="1.0" encoding="UTF-8" standalone="no"?>
<!-- Created with Inkscape (http://www.inkscape.org/) -->

<svg
   width="68.613525mm"
   height="66.718964mm"
   viewBox="0 0 68.613523 66.718964"
   version="1.1"
   id="svg1"
   inkscape:version="1.3 (0e150ed6c4, 2023-07-21)"
   sodipodi:docname="cuteplant_sun_disabled.svg"
   xml:space="preserve"
   xmlns:inkscape="http://www.inkscape.org/namespaces/inkscape"
   xmlns:sodipodi="http://sodipodi.sourceforge.net/DTD/sodipodi-0.dtd"
   xmlns="http://www.w3.org/2000/svg"
   xmlns:svg="http://www.w3.org/2000/svg"
   xmlns:rdf="http://www.w3.org/1999/02/22-rdf-syntax-ns#"
   xmlns:cc="http://creativecommons.org/ns#"
   xmlns:dc="http://purl.org/dc/elements/1.1/"><metadata
     id="metadata17"><rdf:RDF><cc:Work
         rdf:about=""><dc:format>image/svg+xml</dc:format><dc:type
           rdf:resource="http://purl.org/dc/dcmitype/StillImage" /></cc:Work></rdf:RDF></metadata><sodipodi:namedview
     id="namedview1"
     pagecolor="#ffffff"
     bordercolor="#000000"
     borderopacity="0.25"
     inkscape:showpageshadow="2"
     inkscape:pageopacity="0.0"
     inkscape:pagecheckerboard="0"
     inkscape:deskcolor="#d1d1d1"
     inkscape:document-units="mm"
     inkscape:zoom="1.2149664"
     inkscape:cx="295.48142"
     inkscape:cy="189.71718"
     inkscape:window-width="1916"
     inkscape:window-height="1037"
     inkscape:window-x="0"
     inkscape:window-y="0"
     inkscape:window-maximized="1"
     inkscape:current-layer="layer1"
     showgrid="false" /><defs
     id="defs1" /><g
     inkscape:label="Calque 1"
     inkscape:groupmode="layer"
     id="layer1"
     transform="translate(-233.46032,-36.867977)"><g
       id="g60"
       transform="matrix(0.44022109,0,0,0.43888559,166.15252,-81.866816)"
       style="stroke-width:2.27503"><g
         id="g24"
         transform="translate(0.63818348,-2.084615)"
         style="stroke-width:2.27503"><path
           style="fill:#cdd926;fill-opacity:1;stroke:#000000;stroke-width:3.61048;stroke-linecap:round;stroke-linejoin:round;stroke-opacity:1"
           d="m 194.32955,324.39586 c -4.68606,-1.91406 -8.40851,-6.36822 -10.48573,-10.98427 -2.4277,-5.3949 -6.11266,-14.00589 -1.48068,-17.68602 4.77975,-3.79753 12.79817,1.64022 17.43238,5.61406 4.55785,3.90836 9.33533,10.23259 8.07212,16.10231 -0.75444,3.50561 -4.99121,5.52717 -8.35023,6.78235 -1.62077,0.60564 -3.58609,0.82583 -5.18786,0.17157 z"
           id="path23"
           sodipodi:nodetypes="aaaaaaa" /><path
           style="fill:none;fill-opacity:1;stroke:#000000;stroke-width:3.61048;stroke-linecap:round;stroke-linejoin:round;stroke-opacity:1"
           d="m 201.62554,320.89181 c 0,0 -2.0122,-5.10937 -3.63281,-7.28625 -1.22267,-1.64235 -4.48006,-4.20228 -4.48006,-4.20228"
           id="path24"
           sodipodi:nodetypes="cac" /></g><g
         id="g26"
         transform="rotate(23.342755,234.70695,350.84977)"
         style="stroke-width:2.27503"><path
           style="fill:#cdd926;fill-opacity:1;stroke:#000000;stroke-width:3.61048;stroke-linecap:round;stroke-linejoin:round;stroke-opacity:1"
           d="m 194.32955,324.39586 c -4.68606,-1.91406 -8.40851,-6.36822 -10.48573,-10.98427 -2.4277,-5.3949 -6.11266,-14.00589 -1.48068,-17.68602 4.77975,-3.79753 12.79817,1.64022 17.43238,5.61406 4.55785,3.90836 9.33533,10.23259 8.07212,16.10231 -0.75444,3.50561 -4.99121,5.52717 -8.35023,6.78235 -1.62077,0.60564 -3.58609,0.82583 -5.18786,0.17157 z"
           id="path25"
           sodipodi:nodetypes="aaaaaaa" /><path
           style="fill:none;fill-opacity:1;stroke:#000000;stroke-width:3.61048;stroke-linecap:round;stroke-linejoin:round;stroke-opacity:1"
           d="m 201.62554,320.89181 c 0,0 -2.0122,-5.10937 -3.63281,-7.28625 -1.22267,-1.64235 -4.48006,-4.20228 -4.48006,-4.20228"
           id="path26"
           sodipodi:nodetypes="cac" /></g><g
         id="g28"
         transform="rotate(38.789854,234.17625,358.76004)"
         style="stroke-width:2.27503"><path
           style="fill:#cdd926;fill-opacity:1;stroke:#000000;stroke-width:3.61048;stroke-linecap:round;stroke-linejoin:round;stroke-opacity:1"
           d="m 194.32955,324.39586 c -4.68606,-1.91406 -8.40851,-6.36822 -10.48573,-10.98427 -2.4277,-5.3949 -6.11266,-14.00589 -1.48068,-17.68602 4.77975,-3.79753 12.79817,1.64022 17.43238,5.61406 4.55785,3.90836 9.33533,10.23259 8.07212,16.10231 -0.75444,3.50561 -4.99121,5.52717 -8.35023,6.78235 -1.62077,0.60564 -3.58609,0.82583 -5.18786,0.17157 z"
           id="path27"
           sodipodi:nodetypes="aaaaaaa" /><path
           style="fill:none;fill-opacity:1;stroke:#000000;stroke-width:3.61048;stroke-linecap:round;stroke-linejoin:round;stroke-opacity:1"
           d="m 201.62554,320.89181 c 0,0 -2.0122,-5.10937 -3.63281,-7.28625 -1.22267,-1.64235 -4.48006,-4.20228 -4.48006,-4.20228"
           id="path28"
           sodipodi:nodetypes="cac" /></g><g
         id="g30"
         transform="rotate(65.400771,232.66699,350.54842)"
         style="stroke-width:2.27503"><path
           style="fill:#cdd926;fill-opacity:1;stroke:#000000;stroke-width:3.61048;stroke-linecap:round;stroke-linejoin:round;stroke-opacity:1"
           d="m 194.32955,324.39586 c -4.68606,-1.91406 -8.40851,-6.36822 -10.48573,-10.98427 -2.4277,-5.3949 -6.11266,-14.00589 -1.48068,-17.68602 4.77975,-3.79753 12.79817,1.64022 17.43238,5.61406 4.55785,3.90836 9.33533,10.23259 8.07212,16.10231 -0.75444,3.50561 -4.99121,5.52717 -8.35023,6.78235 -1.62077,0.60564 -3.58609,0.82583 -5.18786,0.17157 z"
           id="path29"
           sodipodi:nodetypes="aaaaaaa" /><path
           style="fill:none;fill-opacity:1;stroke:#000000;stroke-width:3.61048;stroke-linecap:round;stroke-linejoin:round;stroke-opacity:1"
           d="m 201.62554,320.89181 c 0,0 -2.0122,-5.10937 -3.63281,-7.28625 -1.22267,-1.64235 -4.48006,-4.20228 -4.48006,-4.20228"
           id="path30"
           sodipodi:nodetypes="cac" /></g><g
         id="g32"
         transform="rotate(98.168846,232.21683,340.85368)"
         style="stroke-width:2.27503"><path
           style="fill:#cdd926;fill-opacity:1;stroke:#000000;stroke-width:3.61048;stroke-linecap:round;stroke-linejoin:round;stroke-opacity:1"
           d="m 194.32955,324.39586 c -4.68606,-1.91406 -8.40851,-6.36822 -10.48573,-10.98427 -2.4277,-5.3949 -6.11266,-14.00589 -1.48068,-17.68602 4.77975,-3.79753 12.79817,1.64022 17.43238,5.61406 4.55785,3.90836 9.33533,10.23259 8.07212,16.10231 -0.75444,3.50561 -4.99121,5.52717 -8.35023,6.78235 -1.62077,0.60564 -3.58609,0.82583 -5.18786,0.17157 z"
           id="path31"
           sodipodi:nodetypes="aaaaaaa" /><path
           style="fill:none;fill-opacity:1;stroke:#000000;stroke-width:3.61048;stroke-linecap:round;stroke-linejoin:round;stroke-opacity:1"
           d="m 201.62554,320.89181 c 0,0 -2.0122,-5.10937 -3.63281,-7.28625 -1.22267,-1.64235 -4.48006,-4.20228 -4.48006,-4.20228"
           id="path32"
           sodipodi:nodetypes="cac" /></g><g
         id="g34"
         transform="rotate(110.90741,233.64852,345.83643)"
         style="stroke-width:2.27503"><path
           style="fill:#cdd926;fill-opacity:1;stroke:#000000;stroke-width:3.61048;stroke-linecap:round;stroke-linejoin:round;stroke-opacity:1"
           d="m 194.32955,324.39586 c -4.68606,-1.91406 -8.40851,-6.36822 -10.48573,-10.98427 -2.4277,-5.3949 -6.11266,-14.00589 -1.48068,-17.68602 4.77975,-3.79753 12.79817,1.64022 17.43238,5.61406 4.55785,3.90836 9.33533,10.23259 8.07212,16.10231 -0.75444,3.50561 -4.99121,5.52717 -8.35023,6.78235 -1.62077,0.60564 -3.58609,0.82583 -5.18786,0.17157 z"
           id="path33"
           sodipodi:nodetypes="aaaaaaa" /><path
           style="fill:none;fill-opacity:1;stroke:#000000;stroke-width:3.61048;stroke-linecap:round;stroke-linejoin:round;stroke-opacity:1"
           d="m 201.62554,320.89181 c 0,0 -2.0122,-5.10937 -3.63281,-7.28625 -1.22267,-1.64235 -4.48006,-4.20228 -4.48006,-4.20228"
           id="path34"
           sodipodi:nodetypes="cac" /></g><g
         id="g36"
         transform="rotate(126.3545,230.93777,348.38437)"
         style="stroke-width:2.27503"><path
           style="fill:#cdd926;fill-opacity:1;stroke:#000000;stroke-width:3.61048;stroke-linecap:round;stroke-linejoin:round;stroke-opacity:1"
           d="m 194.32955,324.39586 c -4.68606,-1.91406 -8.40851,-6.36822 -10.48573,-10.98427 -2.4277,-5.3949 -6.11266,-14.00589 -1.48068,-17.68602 4.77975,-3.79753 12.79817,1.64022 17.43238,5.61406 4.55785,3.90836 9.33533,10.23259 8.07212,16.10231 -0.75444,3.50561 -4.99121,5.52717 -8.35023,6.78235 -1.62077,0.60564 -3.58609,0.82583 -5.18786,0.17157 z"
           id="path35"
           sodipodi:nodetypes="aaaaaaa" /><path
           style="fill:none;fill-opacity:1;stroke:#000000;stroke-width:3.61048;stroke-linecap:round;stroke-linejoin:round;stroke-opacity:1"
           d="m 201.62554,320.89181 c 0,0 -2.0122,-5.10937 -3.63281,-7.28625 -1.22267,-1.64235 -4.48006,-4.20228 -4.48006,-4.20228"
           id="path36"
           sodipodi:nodetypes="cac" /></g><g
         id="g38"
         transform="rotate(152.96542,231.64355,346.30223)"
         style="stroke-width:2.27503"><path
           style="fill:#cdd926;fill-opacity:1;stroke:#000000;stroke-width:3.61048;stroke-linecap:round;stroke-linejoin:round;stroke-opacity:1"
           d="m 194.32955,324.39586 c -4.68606,-1.91406 -8.40851,-6.36822 -10.48573,-10.98427 -2.4277,-5.3949 -6.11266,-14.00589 -1.48068,-17.68602 4.77975,-3.79753 12.79817,1.64022 17.43238,5.61406 4.55785,3.90836 9.33533,10.23259 8.07212,16.10231 -0.75444,3.50561 -4.99121,5.52717 -8.35023,6.78235 -1.62077,0.60564 -3.58609,0.82583 -5.18786,0.17157 z"
           id="path37"
           sodipodi:nodetypes="aaaaaaa" /><path
           style="fill:none;fill-opacity:1;stroke:#000000;stroke-width:3.61048;stroke-linecap:round;stroke-linejoin:round;stroke-opacity:1"
           d="m 201.62554,320.89181 c 0,0 -2.0122,-5.10937 -3.63281,-7.28625 -1.22267,-1.64235 -4.48006,-4.20228 -4.48006,-4.20228"
           id="path38"
           sodipodi:nodetypes="cac" /></g><g
         id="g40"
         transform="rotate(-174.2665,235.3746,341.33205)"
         style="stroke-width:2.27503"><path
           style="fill:#cdd926;fill-opacity:1;stroke:#000000;stroke-width:3.61048;stroke-linecap:round;stroke-linejoin:round;stroke-opacity:1"
           d="m 194.32955,324.39586 c -4.68606,-1.91406 -8.40851,-6.36822 -10.48573,-10.98427 -2.4277,-5.3949 -6.11266,-14.00589 -1.48068,-17.68602 4.77975,-3.79753 12.79817,1.64022 17.43238,5.61406 4.55785,3.90836 9.33533,10.23259 8.07212,16.10231 -0.75444,3.50561 -4.99121,5.52717 -8.35023,6.78235 -1.62077,0.60564 -3.58609,0.82583 -5.18786,0.17157 z"
           id="path39"
           sodipodi:nodetypes="aaaaaaa" /><path
           style="fill:none;fill-opacity:1;stroke:#000000;stroke-width:3.61048;stroke-linecap:round;stroke-linejoin:round;stroke-opacity:1"
           d="m 201.62554,320.89181 c 0,0 -2.0122,-5.10937 -3.63281,-7.28625 -1.22267,-1.64235 -4.48006,-4.20228 -4.48006,-4.20228"
           id="path40"
           sodipodi:nodetypes="cac" /></g><g
         id="g43"
         transform="rotate(-172.14814,230.56147,347.48729)"
         style="stroke-width:2.27503"><path
           style="fill:#cdd926;fill-opacity:1;stroke:#000000;stroke-width:3.61048;stroke-linecap:round;stroke-linejoin:round;stroke-opacity:1"
           d="m 194.32955,324.39586 c -4.68606,-1.91406 -8.40851,-6.36822 -10.48573,-10.98427 -2.4277,-5.3949 -6.11266,-14.00589 -1.48068,-17.68602 4.77975,-3.79753 12.79817,1.64022 17.43238,5.61406 4.55785,3.90836 9.33533,10.23259 8.07212,16.10231 -0.75444,3.50561 -4.99121,5.52717 -8.35023,6.78235 -1.62077,0.60564 -3.58609,0.82583 -5.18786,0.17157 z"
           id="path42"
           sodipodi:nodetypes="aaaaaaa" /><path
           style="fill:none;fill-opacity:1;stroke:#000000;stroke-width:3.61048;stroke-linecap:round;stroke-linejoin:round;stroke-opacity:1"
           d="m 201.62554,320.89181 c 0,0 -2.0122,-5.10937 -3.63281,-7.28625 -1.22267,-1.64235 -4.48006,-4.20228 -4.48006,-4.20228"
           id="path43"
           sodipodi:nodetypes="cac" /></g><g
         id="g45"
         transform="rotate(-148.80539,229.97971,347.19064)"
         style="stroke-width:2.27503"><path
           style="fill:#cdd926;fill-opacity:1;stroke:#000000;stroke-width:3.61048;stroke-linecap:round;stroke-linejoin:round;stroke-opacity:1"
           d="m 194.32955,324.39586 c -4.68606,-1.91406 -8.40851,-6.36822 -10.48573,-10.98427 -2.4277,-5.3949 -6.11266,-14.00589 -1.48068,-17.68602 4.77975,-3.79753 12.79817,1.64022 17.43238,5.61406 4.55785,3.90836 9.33533,10.23259 8.07212,16.10231 -0.75444,3.50561 -4.99121,5.52717 -8.35023,6.78235 -1.62077,0.60564 -3.58609,0.82583 -5.18786,0.17157 z"
           id="path44"
           sodipodi:nodetypes="aaaaaaa" /><path
           style="fill:none;fill-opacity:1;stroke:#000000;stroke-width:3.61048;stroke-linecap:round;stroke-linejoin:round;stroke-opacity:1"
           d="m 201.62554,320.89181 c 0,0 -2.0122,-5.10937 -3.63281,-7.28625 -1.22267,-1.64235 -4.48006,-4.20228 -4.48006,-4.20228"
           id="path45"
           sodipodi:nodetypes="cac" /></g><g
         id="g47"
         transform="rotate(-133.35829,226.43723,347.3257)"
         style="stroke-width:2.27503"><path
           style="fill:#cdd926;fill-opacity:1;stroke:#000000;stroke-width:3.61048;stroke-linecap:round;stroke-linejoin:round;stroke-opacity:1"
           d="m 194.32955,324.39586 c -4.68606,-1.91406 -8.40851,-6.36822 -10.48573,-10.98427 -2.4277,-5.3949 -6.11266,-14.00589 -1.48068,-17.68602 4.77975,-3.79753 12.79817,1.64022 17.43238,5.61406 4.55785,3.90836 9.33533,10.23259 8.07212,16.10231 -0.75444,3.50561 -4.99121,5.52717 -8.35023,6.78235 -1.62077,0.60564 -3.58609,0.82583 -5.18786,0.17157 z"
           id="path46"
           sodipodi:nodetypes="aaaaaaa" /><path
           style="fill:none;fill-opacity:1;stroke:#000000;stroke-width:3.61048;stroke-linecap:round;stroke-linejoin:round;stroke-opacity:1"
           d="m 201.62554,320.89181 c 0,0 -2.0122,-5.10937 -3.63281,-7.28625 -1.22267,-1.64235 -4.48006,-4.20228 -4.48006,-4.20228"
           id="path47"
           sodipodi:nodetypes="cac" /></g><g
         id="g49"
         transform="rotate(-106.74737,228.13194,347.43047)"
         style="stroke-width:2.27503"><path
           style="fill:#cdd926;fill-opacity:1;stroke:#000000;stroke-width:3.61048;stroke-linecap:round;stroke-linejoin:round;stroke-opacity:1"
           d="m 194.32955,324.39586 c -4.68606,-1.91406 -8.40851,-6.36822 -10.48573,-10.98427 -2.4277,-5.3949 -6.11266,-14.00589 -1.48068,-17.68602 4.77975,-3.79753 12.79817,1.64022 17.43238,5.61406 4.55785,3.90836 9.33533,10.23259 8.07212,16.10231 -0.75444,3.50561 -4.99121,5.52717 -8.35023,6.78235 -1.62077,0.60564 -3.58609,0.82583 -5.18786,0.17157 z"
           id="path48"
           sodipodi:nodetypes="aaaaaaa" /><path
           style="fill:none;fill-opacity:1;stroke:#000000;stroke-width:3.61048;stroke-linecap:round;stroke-linejoin:round;stroke-opacity:1"
           d="m 201.62554,320.89181 c 0,0 -2.0122,-5.10937 -3.63281,-7.28625 -1.22267,-1.64235 -4.48006,-4.20228 -4.48006,-4.20228"
           id="path49"
           sodipodi:nodetypes="cac" /></g><g
         id="g51"
         transform="rotate(-73.979294,237.87676,348.53431)"
         style="stroke-width:2.27503"><path
           style="fill:#cdd926;fill-opacity:1;stroke:#000000;stroke-width:3.61048;stroke-linecap:round;stroke-linejoin:round;stroke-opacity:1"
           d="m 194.32955,324.39586 c -4.68606,-1.91406 -8.40851,-6.36822 -10.48573,-10.98427 -2.4277,-5.3949 -6.11266,-14.00589 -1.48068,-17.68602 4.77975,-3.79753 12.79817,1.64022 17.43238,5.61406 4.55785,3.90836 9.33533,10.23259 8.07212,16.10231 -0.75444,3.50561 -4.99121,5.52717 -8.35023,6.78235 -1.62077,0.60564 -3.58609,0.82583 -5.18786,0.17157 z"
           id="path50"
           sodipodi:nodetypes="aaaaaaa" /><path
           style="fill:none;fill-opacity:1;stroke:#000000;stroke-width:3.61048;stroke-linecap:round;stroke-linejoin:round;stroke-opacity:1"
           d="m 201.62554,320.89181 c 0,0 -2.0122,-5.10937 -3.63281,-7.28625 -1.22267,-1.64235 -4.48006,-4.20228 -4.48006,-4.20228"
           id="path51"
           sodipodi:nodetypes="cac" /></g><g
         id="g53"
         transform="rotate(-61.24073,231.67067,350.88686)"
         style="stroke-width:2.27503"><path
           style="fill:#cdd926;fill-opacity:1;stroke:#000000;stroke-width:3.61048;stroke-linecap:round;stroke-linejoin:round;stroke-opacity:1"
           d="m 194.32955,324.39586 c -4.68606,-1.91406 -8.40851,-6.36822 -10.48573,-10.98427 -2.4277,-5.3949 -6.11266,-14.00589 -1.48068,-17.68602 4.77975,-3.79753 12.79817,1.64022 17.43238,5.61406 4.55785,3.90836 9.33533,10.23259 8.07212,16.10231 -0.75444,3.50561 -4.99121,5.52717 -8.35023,6.78235 -1.62077,0.60564 -3.58609,0.82583 -5.18786,0.17157 z"
           id="path52"
           sodipodi:nodetypes="aaaaaaa" /><path
           style="fill:none;fill-opacity:1;stroke:#000000;stroke-width:3.61048;stroke-linecap:round;stroke-linejoin:round;stroke-opacity:1"
           d="m 201.62554,320.89181 c 0,0 -2.0122,-5.10937 -3.63281,-7.28625 -1.22267,-1.64235 -4.48006,-4.20228 -4.48006,-4.20228"
           id="path53"
           sodipodi:nodetypes="cac" /></g><g
         id="g55"
         transform="rotate(-45.79364,226.56657,346.13298)"
         style="stroke-width:2.27503"><path
           style="fill:#cdd926;fill-opacity:1;stroke:#000000;stroke-width:3.61048;stroke-linecap:round;stroke-linejoin:round;stroke-opacity:1"
           d="m 194.32955,324.39586 c -4.68606,-1.91406 -8.40851,-6.36822 -10.48573,-10.98427 -2.4277,-5.3949 -6.11266,-14.00589 -1.48068,-17.68602 4.77975,-3.79753 12.79817,1.64022 17.43238,5.61406 4.55785,3.90836 9.33533,10.23259 8.07212,16.10231 -0.75444,3.50561 -4.99121,5.52717 -8.35023,6.78235 -1.62077,0.60564 -3.58609,0.82583 -5.18786,0.17157 z"
           id="path54"
           sodipodi:nodetypes="aaaaaaa" /><path
           style="fill:none;fill-opacity:1;stroke:#000000;stroke-width:3.61048;stroke-linecap:round;stroke-linejoin:round;stroke-opacity:1"
           d="m 201.62554,320.89181 c 0,0 -2.0122,-5.10937 -3.63281,-7.28625 -1.22267,-1.64235 -4.48006,-4.20228 -4.48006,-4.20228"
           id="path55"
           sodipodi:nodetypes="cac" /></g><g
         id="g57"
         transform="rotate(-19.18272,231.63438,350.55814)"
         style="stroke-width:2.27503"><path
           style="fill:#cdd926;fill-opacity:1;stroke:#000000;stroke-width:3.61048;stroke-linecap:round;stroke-linejoin:round;stroke-opacity:1"
           d="m 194.32955,324.39586 c -4.68606,-1.91406 -8.40851,-6.36822 -10.48573,-10.98427 -2.4277,-5.3949 -6.11266,-14.00589 -1.48068,-17.68602 4.77975,-3.79753 12.79817,1.64022 17.43238,5.61406 4.55785,3.90836 9.33533,10.23259 8.07212,16.10231 -0.75444,3.50561 -4.99121,5.52717 -8.35023,6.78235 -1.62077,0.60564 -3.58609,0.82583 -5.18786,0.17157 z"
           id="path56"
           sodipodi:nodetypes="aaaaaaa" /><path
           style="fill:none;fill-opacity:1;stroke:#000000;stroke-width:3.61048;stroke-linecap:round;stroke-linejoin:round;stroke-opacity:1"
           d="m 201.62554,320.89181 c 0,0 -2.0122,-5.10937 -3.63281,-7.28625 -1.22267,-1.64235 -4.48006,-4.20228 -4.48006,-4.20228"
           id="path57"
           sodipodi:nodetypes="cac" /></g></g><path
       style="fill:#c8a328;fill-opacity:1;stroke:#000000;stroke-width:1.587;stroke-linecap:round;stroke-linejoin:round;stroke-opacity:1"
       d="m 272.85929,87.30104 c -4.98649,1.02425 -10.36092,-0.29928 -15.13165,-2.07173 -2.93327,-1.0898 -5.94257,-2.64857 -7.87086,-5.107 -2.30552,-2.93936 -3.75007,-6.8468 -3.67527,-10.57742 0.0786,-3.91838 1.50483,-8.19387 4.30247,-10.9471 3.96701,-3.90403 10.09286,-5.41829 15.6477,-5.88048 5.69659,-0.47398 12.38824,-0.29511 16.82767,3.2952 3.34464,2.70493 4.69985,7.57638 5.05146,11.85574 0.33963,4.13354 -0.48382,8.74713 -2.945,12.09077 -2.81145,3.81949 -7.5523,6.38601 -12.20652,7.34202 z"
       id="path18"
       sodipodi:nodetypes="aaaaaaaaaa" /><path
       style="fill:#1a1a1a;fill-opacity:1;stroke:none;stroke-width:1.587;stroke-linecap:round;stroke-linejoin:round"
       d="m 259.79789,75.50442 c -0.66415,-0.50306 -0.87778,-1.44581 -1.07049,-2.25487 -0.65593,-2.75375 -1.80149,-6.14715 -0.20642,-8.48848 0.56593,-0.83071 1.89321,-1.39812 2.83511,-1.04231 1.45904,0.55116 1.85256,2.59783 2.21584,4.11063 0.42013,1.74956 0.41249,3.67833 -0.12538,5.39555 -0.31145,0.99436 -0.76489,2.19605 -1.7236,2.61029 -0.59745,0.25815 -1.40657,0.0619 -1.92506,-0.33081 z"
       id="path19"
       sodipodi:nodetypes="aaaaaaaa" /><path
       style="fill:#1a1a1a;fill-opacity:1;stroke:none;stroke-width:1.587;stroke-linecap:round;stroke-linejoin:round"
       d="m 277.02044,76.55073 c 1.36592,-0.41326 1.76313,-2.30837 2.19886,-3.66357 0.75808,-2.35779 1.11819,-4.98109 0.60413,-7.40344 -0.1803,-0.84965 -0.40032,-2.0916 -1.24868,-2.28871 -1.17669,-0.2734 -2.29189,1.08117 -2.96115,2.08405 -0.95143,1.42567 -0.95336,3.31071 -1.11468,5.01553 -0.16145,1.706 -0.78655,3.70435 0.15425,5.13844 0.47791,0.72849 1.53179,1.37048 2.36727,1.1177 z"
       id="path20"
       sodipodi:nodetypes="aaaaaaaa" /><path
       style="fill:#fdfdfd;fill-opacity:1;stroke:none;stroke-width:1.587;stroke-linecap:round;stroke-linejoin:round"
       d="m 261.36079,68.9009 c -0.29104,-0.38603 -0.10828,-0.9682 -0.26922,-1.42369 -0.19375,-0.5484 -0.92254,-0.96498 -0.82495,-1.53821 0.0779,-0.45748 0.56919,-1.0215 1.02778,-0.94226 0.82527,0.14259 1.03173,1.39361 1.16937,2.21729 0.11564,0.69197 0.30235,1.75918 -0.32357,2.07966 -0.25895,0.13259 -0.6045,-0.16079 -0.77941,-0.39279 z"
       id="path21"
       sodipodi:nodetypes="aaaaaaa" /><path
       style="fill:#fdfdfd;fill-opacity:1;stroke:none;stroke-width:1.587;stroke-linecap:round;stroke-linejoin:round"
       d="m 277.65932,69.10561 c -0.13285,-0.44404 0.22615,-0.90716 0.23357,-1.37048 0.009,-0.55782 -0.50759,-1.17476 -0.2282,-1.65813 0.22298,-0.38577 0.85357,-0.73007 1.23972,-0.50642 0.69493,0.40245 0.46258,1.59671 0.31115,2.38358 -0.12722,0.66106 -0.31589,1.68336 -0.9862,1.7638 -0.27732,0.0333 -0.49019,-0.3455 -0.57004,-0.61235 z"
       id="path22"
       sodipodi:nodetypes="aaaaaaa" /></g></svg>
