<?xml version="1.0" encoding="UTF-8" standalone="no"?>
<!-- Created with Inkscape (http://www.inkscape.org/) -->

<svg
   width="51.177288mm"
   height="34.296204mm"
   viewBox="0 0 51.177286 34.296204"
   version="1.1"
   id="svg1"
   inkscape:version="1.3 (0e150ed6c4, 2023-07-21)"
   sodipodi:docname="cuteplant_leaf_normal.svg"
   xml:space="preserve"
   xmlns:inkscape="http://www.inkscape.org/namespaces/inkscape"
   xmlns:sodipodi="http://sodipodi.sourceforge.net/DTD/sodipodi-0.dtd"
   xmlns="http://www.w3.org/2000/svg"
   xmlns:svg="http://www.w3.org/2000/svg"
   xmlns:rdf="http://www.w3.org/1999/02/22-rdf-syntax-ns#"
   xmlns:cc="http://creativecommons.org/ns#"
   xmlns:dc="http://purl.org/dc/elements/1.1/"><metadata
     id="metadata17"><rdf:RDF><cc:Work
         rdf:about=""><dc:format>image/svg+xml</dc:format><dc:type
           rdf:resource="http://purl.org/dc/dcmitype/StillImage" /></cc:Work></rdf:RDF></metadata><sodipodi:namedview
     id="namedview1"
     pagecolor="#ffffff"
     bordercolor="#000000"
     borderopacity="0.25"
     inkscape:showpageshadow="2"
     inkscape:pageopacity="0.0"
     inkscape:pagecheckerboard="0"
     inkscape:deskcolor="#d1d1d1"
     inkscape:document-units="mm"
     inkscape:zoom="0.8405214"
     inkscape:cx="908.9596"
     inkscape:cy="73.168868"
     inkscape:window-width="1916"
     inkscape:window-height="1037"
     inkscape:window-x="0"
     inkscape:window-y="0"
     inkscape:window-maximized="1"
     inkscape:current-layer="g15"
     showgrid="false" /><defs
     id="defs1" /><g
     inkscape:label="Calque 1"
     inkscape:groupmode="layer"
     id="layer1"
     transform="translate(-203.89208,-79.69835)"><g
       id="g15"
       transform="translate(6.7929067,-171.11672)"><g
         id="g71"
         transform="matrix(0.30381924,0.29858685,-0.29767058,0.30288692,232.88971,108.87006)"
         style="stroke-width:2.35114"><path
           style="fill:#63bd05;fill-opacity:1;stroke:#000000;stroke-width:3.73124;stroke-linecap:round;stroke-linejoin:round;stroke-opacity:1"
           d="m 244.71106,270.61143 c -1.22102,-1.71126 0.61096,-4.19519 1.36724,-6.15666 1.182,-3.0656 2.15233,-6.72871 4.87606,-8.56619 1.8472,-1.24615 4.45071,-0.40389 6.62509,-0.89081 6.0802,-1.36158 11.59261,-5.40617 17.81871,-5.64787 6.44255,-0.2501 13.1645,1.33033 18.83576,4.39722 4.84271,2.61883 9.81985,6.32618 11.94745,11.40392 1.60101,3.82096 2.45059,9.23294 -0.18772,12.42705 -1.44066,1.74415 -4.39042,1.57575 -6.64434,1.38233 -2.41698,-0.20742 -5.08917,-0.92378 -6.76829,-2.6746 -2.61082,-2.72231 -1.18667,-7.88957 -3.71521,-10.68846 -2.21421,-2.45095 -5.67946,-4.218 -8.98229,-4.18416 -3.20369,0.0328 -6.02301,2.37064 -8.62769,4.23622 -2.7404,1.96279 -3.96024,6.04519 -7.1415,7.15959 -6.1431,2.15193 -15.6226,3.101 -19.40327,-2.19758 z"
           id="path66"
           sodipodi:nodetypes="aaaaaaaaaaaaaaa" /><g
           id="g64"
           transform="matrix(-0.38478304,0.80830521,0.80835199,0.38480531,116.6819,6.6073796)"
           style="stroke-width:2.62623"><path
             style="fill:#6cce06;fill-opacity:1;stroke:#000000;stroke-width:4.16785;stroke-linecap:round;stroke-linejoin:round;stroke-dasharray:none;stroke-opacity:1"
             d="m 204.61765,255.91629 c 0,0 -9.62148,0.37683 -10.87664,-3.18585 -4.63307,-13.15075 12.26619,-26.65443 23.9142,-34.32089 11.18191,-7.35967 26.25209,-10.85012 39.34498,-8.0583 6.34207,1.35233 13.57119,5.25194 15.80723,11.3378 4.4322,12.06322 -2.6132,26.45194 -9.33119,37.40839 -8.71829,14.21873 -22.24876,26.72295 -37.7774,32.81426 -9.44406,3.70458 -22.02295,6.78081 -30.41871,0.98778 -4.61991,-3.18771 -5.69797,-10.27622 -5.46618,-15.86459 0.26801,-6.46089 2.33621,-16.62284 7.81683,-17.75537 11.14982,-2.30401 16.67023,-17.69353 16.5831,-17.76593"
             id="path63"
             sodipodi:nodetypes="caaaaaaaasc" /><path
             style="fill:#82f20d;fill-opacity:1;stroke:none;stroke-width:4.16785;stroke-linecap:round;stroke-linejoin:round"
             d="m 221.76988,280.95524 c 6.44117,4.71639 15.26516,-5.63708 21.4121,-10.73088 7.16195,-5.93488 12.58619,-13.95899 16.91748,-22.18969 2.41823,-4.59536 5.99003,-9.73111 4.86231,-14.79984 -0.56262,-2.52883 -2.83742,-6.37486 -5.32774,-5.65933 -2.99077,0.85934 -0.5989,6.29136 -1.81306,9.15601 -4.84504,11.43127 -12.19333,22.08849 -21.22437,30.60965 -3.98292,3.75804 -10.9729,4.01303 -14.02115,8.5619 -0.94943,1.41671 -2.18165,4.04458 -0.80557,5.05218 z"
             id="path64"
             sodipodi:nodetypes="aaaaaaaaa" /></g></g></g></g></svg>
