<?xml version="1.0" encoding="UTF-8" standalone="no"?>
<!-- Created with Inkscape (http://www.inkscape.org/) -->

<svg
   width="141.62952mm"
   height="156.47107mm"
   viewBox="0 0 141.62951 156.47107"
   version="1.1"
   id="svg1"
   inkscape:version="1.3 (0e150ed6c4, 2023-07-21)"
   sodipodi:docname="cuteplant_body_attack.svg"
   xml:space="preserve"
   xmlns:inkscape="http://www.inkscape.org/namespaces/inkscape"
   xmlns:sodipodi="http://sodipodi.sourceforge.net/DTD/sodipodi-0.dtd"
   xmlns="http://www.w3.org/2000/svg"
   xmlns:svg="http://www.w3.org/2000/svg"
   xmlns:rdf="http://www.w3.org/1999/02/22-rdf-syntax-ns#"
   xmlns:cc="http://creativecommons.org/ns#"
   xmlns:dc="http://purl.org/dc/elements/1.1/"><metadata
     id="metadata17"><rdf:RDF><cc:Work
         rdf:about=""><dc:format>image/svg+xml</dc:format><dc:type
           rdf:resource="http://purl.org/dc/dcmitype/StillImage" /></cc:Work></rdf:RDF></metadata><sodipodi:namedview
     id="namedview1"
     pagecolor="#ffffff"
     bordercolor="#000000"
     borderopacity="0.25"
     inkscape:showpageshadow="2"
     inkscape:pageopacity="0.0"
     inkscape:pagecheckerboard="0"
     inkscape:deskcolor="#d1d1d1"
     inkscape:document-units="mm"
     inkscape:zoom="0.4202607"
     inkscape:cx="1223.0504"
     inkscape:cy="517.5359"
     inkscape:window-width="1916"
     inkscape:window-height="1037"
     inkscape:window-x="0"
     inkscape:window-y="0"
     inkscape:window-maximized="1"
     inkscape:current-layer="g15"
     showgrid="false" /><defs
     id="defs1" /><g
     inkscape:label="Calque 1"
     inkscape:groupmode="layer"
     id="layer1"
     transform="translate(-34.154308,-71.449256)"><g
       id="g15"
       transform="translate(6.7929067,-171.11672)"><path
         id="path1"
         style="fill:#abdc43;fill-opacity:1;stroke:#000000;stroke-width:1.5875;stroke-linecap:round;stroke-linejoin:round;stroke-dasharray:none;stroke-opacity:1"
         d="m 97.282477,248.79712 c -31.068777,1.7e-4 -65.226136,16.94688 -68.972535,45.94707 -1.619961,12.53982 10.251389,29.96498 10.275342,50.47082 -0.01833,7.67071 -3.810421,15.51345 -1.648478,22.35574 2.977357,9.42298 25.491094,30.67237 60.345671,30.67255 27.091163,3e-5 53.360693,-13.06425 63.917543,-35.99781 2.32202,-5.04434 -0.96157,-11.25369 -0.98702,-17.03048 0.002,-17.63899 9.33923,-33.43998 7.81348,-45.74656 -3.82879,-30.88275 -37.89366,-50.67138 -70.744003,-50.67133 z"
         sodipodi:nodetypes="cscscscsc" /><g
         id="g4"
         transform="rotate(22.134353,77.663639,250.55101)"><path
           id="path11-6"
           style="fill:#1a1a1a;stroke:#000000;stroke-width:0.131489;stroke-dasharray:none;stroke-opacity:1"
           d="m 88.065259,276.10469 c -9.527705,2.3e-4 -11.678054,4.34794 -11.677943,16.6779 1.46e-4,16.26409 7.592142,9.67007 17.11969,9.6703 9.527754,1.4e-4 25.483304,6.39596 17.383114,-9.6703 -3.01998,-5.98996 -13.717801,-15.79453 -22.824861,-16.6779 z"
           sodipodi:nodetypes="cscsc" /></g><path
         id="path6"
         style="fill:#c5e77e;fill-opacity:1;stroke:#000000;stroke-width:1.587;stroke-linecap:round;stroke-linejoin:round;stroke-dasharray:none;stroke-opacity:1"
         d="m 98.685492,331.6949 c -12.943524,-3e-5 -23.436299,8.37611 -23.436296,21.31963 3e-6,12.94352 10.492776,25.55299 23.436296,25.55296 12.943518,3e-5 23.436298,-12.08027 23.436298,-25.02379 0,-12.94353 -10.49277,-21.84883 -23.436298,-21.8488 z"
         sodipodi:nodetypes="cscsc" /><ellipse
         style="fill:#669900;fill-opacity:1;stroke:none;stroke-width:1.5875;stroke-linecap:round;stroke-linejoin:round;stroke-dasharray:none;stroke-opacity:1"
         id="ellipse7"
         cy="355.13126"
         cx="98.685577"
         rx="20.878338"
         ry="20.834276" /><ellipse
         style="fill:#000000;fill-opacity:1;stroke:none;stroke-width:1.5875;stroke-linecap:round;stroke-linejoin:round;stroke-dasharray:none;stroke-opacity:1"
         id="ellipse6"
         cy="355.13126"
         cx="98.685577"
         rx="17.834127"
         ry="17.355547" /><circle
         style="fill:#d0dc43;fill-opacity:1;stroke:none;stroke-width:1.587;stroke-linecap:round;stroke-linejoin:round;stroke-dasharray:none;stroke-opacity:1"
         id="path14"
         cx="141.08582"
         cy="325.72733"
         r="7.279778" /><circle
         style="fill:#d0dc43;fill-opacity:1;stroke:none;stroke-width:1.587;stroke-linecap:round;stroke-linejoin:round;stroke-dasharray:none;stroke-opacity:1"
         id="circle14"
         cx="58.732185"
         cy="325.72733"
         r="7.279778" /><path
         style="fill:#6cce06;fill-opacity:1;stroke:#000000;stroke-width:1.587;stroke-linecap:round;stroke-linejoin:round;stroke-dasharray:none;stroke-opacity:1"
         d="m 86.996749,248.33166 c 0,0 0.966805,-2.1471 1.92717,-2.68924 4.70601,-2.65664 10.99387,-2.85663 16.161921,-1.27691 4.80848,1.46982 9.46451,4.94145 11.80328,9.39252 1.13878,2.16728 1.76461,5.2274 0.50591,7.3273 -2.25466,3.76148 -7.67077,4.70473 -12.00277,5.38737 -6.682331,1.05301 -14.158851,0.88285 -20.173271,-2.21379 -3.42423,-1.76303 -7.36176,-4.77977 -7.69795,-8.61651 -0.185,-2.11124 1.6711,-4.10828 3.34679,-5.40582 1.69154,-1.30982 4.00706,-1.63172 6.12892,-1.90492 3.40404,-0.43828 10.28589,0.4657 10.28589,0.4657"
         id="path15"
         sodipodi:nodetypes="caaaaaaaaac" /><g
         id="g12"><circle
           style="fill:#e6e77e;fill-opacity:1;stroke:none;stroke-width:1.587;stroke-linecap:round;stroke-linejoin:round"
           id="path7"
           cx="98.792847"
           cy="355.45898"
           r="14.656659" /><circle
           style="fill:#eeefa9;fill-opacity:1;stroke:none;stroke-width:1.587;stroke-linecap:round;stroke-linejoin:round"
           id="circle7"
           cx="98.792847"
           cy="355.45898"
           r="12.732412" /><circle
           style="fill:#f6f7d4;fill-opacity:1;stroke:none;stroke-width:1.587;stroke-linecap:round;stroke-linejoin:round"
           id="circle8"
           cx="98.792847"
           cy="355.45898"
           r="10.687361" /></g><g
         id="g8"
         transform="matrix(-0.92630289,0.37677972,0.37677972,0.92630289,95.644165,-10.797199)"><path
           id="path8"
           style="fill:#1a1a1a;stroke:#000000;stroke-width:0.131489;stroke-dasharray:none;stroke-opacity:1"
           d="m 88.065259,276.10469 c -9.527705,2.3e-4 -11.678054,4.34794 -11.677943,16.6779 1.46e-4,16.26409 7.592142,9.67007 17.11969,9.6703 9.527754,1.4e-4 25.483304,6.39596 17.383114,-9.6703 -3.01998,-5.98996 -13.717801,-15.79453 -22.824861,-16.6779 z"
           sodipodi:nodetypes="cscsc" /></g><path
         style="fill:#f9f9f9;fill-opacity:1;stroke:none;stroke-width:1.587;stroke-linecap:round;stroke-linejoin:round"
         d="m 67.099797,285.91103 c 0.08295,-2.09252 0.582894,-4.65848 2.310382,-5.84225 1.699255,-1.16442 4.259457,-0.79099 6.179653,-0.0452 1.350616,0.52457 2.465148,1.70022 3.185681,2.95727 0.642277,1.12052 1.832002,2.95618 0.83947,3.7826 -1.51561,1.26195 -3.487229,-2.51584 -5.448342,-2.30694 -1.204914,0.12835 -2.008122,1.35877 -2.973795,2.09073 -1.069161,0.8104 -1.834542,2.93395 -3.118363,2.54451 -1.061156,-0.32189 -1.018607,-2.07269 -0.974686,-3.18072 z"
         id="path13"
         sodipodi:nodetypes="aaaaaaaaa" /><path
         style="fill:#f9f9f9;fill-opacity:1;stroke:none;stroke-width:1.587;stroke-linecap:round;stroke-linejoin:round"
         d="m 130.43101,285.91103 c -0.0829,-2.09252 -0.5829,-4.65848 -2.31039,-5.84225 -1.69925,-1.16442 -4.25945,-0.79099 -6.17965,-0.0452 -1.35061,0.52457 -2.46515,1.70022 -3.18568,2.95727 -0.64228,1.12052 -1.832,2.95618 -0.83947,3.7826 1.51561,1.26195 3.48723,-2.51584 5.44834,-2.30694 1.20492,0.12835 2.00812,1.35877 2.9738,2.09073 1.06916,0.8104 1.83454,2.93395 3.11836,2.54451 1.06116,-0.32189 1.01861,-2.07269 0.97469,-3.18072 z"
         id="path16"
         sodipodi:nodetypes="aaaaaaaaa" /></g></g></svg>
