<?xml version="1.0" encoding="UTF-8" standalone="no"?>
<!-- Created with Inkscape (http://www.inkscape.org/) -->

<svg
   width="1145.8184"
   height="919.44031"
   viewBox="0 0 303.16443 243.26858"
   version="1.1"
   id="svg8"
   inkscape:version="1.3 (0e150ed6c4, 2023-07-21)"
   sodipodi:docname="drawing.svg"
   xml:space="preserve"
   xmlns:inkscape="http://www.inkscape.org/namespaces/inkscape"
   xmlns:sodipodi="http://sodipodi.sourceforge.net/DTD/sodipodi-0.dtd"
   xmlns="http://www.w3.org/2000/svg"
   xmlns:svg="http://www.w3.org/2000/svg"
   xmlns:rdf="http://www.w3.org/1999/02/22-rdf-syntax-ns#"
   xmlns:cc="http://creativecommons.org/ns#"
   xmlns:dc="http://purl.org/dc/elements/1.1/"><defs
     id="defs2" /><sodipodi:namedview
     id="base"
     pagecolor="#ffffff"
     bordercolor="#666666"
     borderopacity="1.0"
     inkscape:pageopacity="0.0"
     inkscape:pageshadow="2"
     inkscape:zoom="0.38233912"
     inkscape:cx="962.49633"
     inkscape:cy="372.70578"
     inkscape:document-units="mm"
     inkscape:current-layer="g284"
     showgrid="false"
     units="px"
     inkscape:window-width="1916"
     inkscape:window-height="1037"
     inkscape:window-x="0"
     inkscape:window-y="0"
     inkscape:window-maximized="1"
     inkscape:showpageshadow="2"
     inkscape:pagecheckerboard="0"
     inkscape:deskcolor="#d1d1d1" /><metadata
     id="metadata5"><rdf:RDF><cc:Work
         rdf:about=""><dc:format>image/svg+xml</dc:format><dc:type
           rdf:resource="http://purl.org/dc/dcmitype/StillImage" /></cc:Work></rdf:RDF></metadata><g
     inkscape:groupmode="layer"
     id="g160"
     inkscape:label="door"
     transform="translate(-225.21314,-13.114877)"
     style="display:inline"><g
       id="g284"
       style="display:inline"
       transform="translate(-1.1458333e-6)"
       inkscape:label="door pressed"><path
         id="path279"
         style="fill:#525251;fill-opacity:1;stroke:none;stroke-width:1;stroke-linecap:round;stroke-linejoin:round"
         d="m 244.68638,170.02439 c -4.02729,-0.11633 -8.28533,0.5336 -12.87518,2.05517 -0.0127,4.15403 -0.11371,8.31159 -0.42737,12.47831 3.85344,19.98542 4.89754,54.12156 26.94461,60.06455 7.11664,-1.47854 13.9537,-1.02072 20.70416,0.12195 19.92702,-14.19781 30.37573,-43.89048 4.41989,-57.45127 -14.10963,-8.45734 -25.25199,-16.87838 -38.76611,-17.26871 z m 30.46946,30.74489 c 1.13888,-0.022 -0.30413,2.51415 -2.08256,1.11518 1.03665,-0.81636 1.70293,-1.10784 2.08256,-1.11518 z" /><path
         id="path280"
         style="fill:#585856;fill-opacity:1;stroke:none;stroke-width:1;stroke-linecap:round;stroke-linejoin:round"
         d="m 290.44793,17.76598 c -16.26376,1.766603 -32.78397,4.139466 -46.0897,13.943852 -5.3418,7.422567 -8.78676,15.730515 -11.07116,24.459489 17.57597,10.132006 35.17836,24.653042 56.88335,21.421431 11.79184,3.036487 34.29588,-0.383232 24.29878,-17.597375 -7.70049,-11.220489 -30.00079,-7.295615 -25.35039,-26.349296 0.80793,-5.270454 1.12474,-10.56988 1.32912,-15.878101 z" /><path
         id="path281"
         style="fill:#5d5d5b;fill-opacity:1;stroke:none;stroke-width:1;stroke-linecap:round;stroke-linejoin:round"
         d="m 466.66559,27.068255 c -6.1194,0.02893 -12.04299,0.370172 -17.55603,1.018542 -0.37539,-0.125459 -0.75393,-0.211052 -1.13016,-0.326078 0.0159,0.346772 0.0155,0.692201 0.0346,1.039213 0.31697,13.599607 0.13507,27.392409 2.48202,40.794926 4.75577,15.253075 25.83334,28.55869 39.61153,15.957682 12.63494,-7.200112 14.92197,-26.225653 32.09262,-26.194783 0.46945,-0.407891 0.94489,-0.78612 1.42575,-1.141533 -2.20815,-14.551302 -9.34665,-28.556837 -25.72556,-28.66595 -10.29278,-1.710898 -21.03578,-2.530232 -31.23479,-2.482019 z" /><path
         id="path282"
         style="fill:#626260;fill-opacity:1;stroke:none;stroke-width:1;stroke-linecap:round;stroke-linejoin:round"
         d="m 524.93594,157.33679 c -12.6624,4.1188 -23.12428,13.88094 -29.14758,25.7328 -8.67611,2.37622 -18.98125,-1.00041 -26.33999,5.72161 -8.70018,7.78578 -8.15783,21.99795 -2.79518,31.27613 6.63826,7.65919 8.12178,18.16629 16.90078,24.16183 0.29261,0.45544 0.61404,0.86675 0.92862,1.28881 19.04493,6.09671 35.32359,-10.43813 36.82825,-29.14447 3.59577,-19.42132 2.45078,-39.33482 3.6251,-59.03671 z" /><path
         id="path283"
         style="fill:none;fill-opacity:1;stroke:#ffffff;stroke-width:5.82083;stroke-linecap:round;stroke-linejoin:round;stroke-dasharray:none;stroke-opacity:1"
         d="m 323.76527,16.025518 c -7.38968,0.0074 -14.76541,0.194612 -22.09529,0.515731 -19.63395,2.269566 -40.92817,3.096269 -57.31175,15.168583 -14.27459,19.834879 -15.01109,45.988913 -16.22175,69.618488 -0.31432,27.82313 5.3452,55.36149 3.24735,83.22955 3.85344,19.98544 4.89752,54.12156 26.94461,60.06455 20.50396,-4.25986 38.74539,7.09724 59.00415,6.77116 24.92017,-1.62505 48.22051,-2.26454 72.70874,2.07946 31.17972,-2.00087 62.85711,-0.70428 93.39275,-8.25893 19.49586,7.06778 36.34437,-9.78952 37.87676,-28.84061 4.03524,-21.79496 2.07871,-44.21177 4.15633,-66.25126 -0.349,-25.21011 -2.01352,-50.298908 -1.2299,-75.553009 1.37388,-17.999978 -3.624,-44.867648 -26.33689,-45.018957 -16.46847,-2.737439 -34.08936,-3.192466 -48.79082,-1.463477 -19.74916,-6.60034 -40.70341,1.526187 -59.30232,-5.990332 -21.57618,-4.492072 -43.87293,-6.093002 -66.04197,-6.070947 z" /><path
         id="path284"
         style="fill:#6c6c6a;fill-opacity:1;stroke:none;stroke-width:1;stroke-linecap:round;stroke-linejoin:round"
         d="m 301.67018,16.541498 c -19.63397,2.269568 -40.92847,3.096026 -57.31206,15.168352 -14.27461,19.834899 -15.01121,45.9887 -16.22187,69.6183 -0.31432,27.82316 5.34564,55.36148 3.24779,83.22956 3.85344,19.98546 4.89709,54.12179 26.9442,60.06478 20.50398,-4.25986 38.7455,7.09737 59.00428,6.77129 24.9202,-1.62505 48.22075,-2.26468 72.709,2.07932 31.17975,-2.00087 62.85711,-0.70446 93.39278,-8.25911 19.49588,7.06778 36.34397,-9.78915 37.87636,-28.84026 4.03525,-21.79498 2.07876,-44.21211 4.15638,-66.25162 -0.349,-25.21014 -2.01362,-50.298579 -1.23,-75.552705 1.37388,-17.999996 -3.62381,-44.867994 -26.33672,-45.019303 -16.46849,-2.737442 -34.08941,-3.192435 -48.79089,-1.463444 -19.74918,-6.600347 -40.70323,1.526382 -59.30216,-5.990144 -28.76826,-5.989436 -58.81752,-6.839493 -88.13709,-5.555016 z m -13.4097,35.639421 c 35.18326,6.600297 71.23704,4.571739 106.40945,-0.322735 16.99277,1.207031 33.35436,-4.955258 49.92133,-2.346979 16.13431,-2.276759 42.72569,4.184805 44.51665,21.926794 7.71155,24.695438 2.09801,51.116191 8.09599,76.115371 -0.51705,17.95458 -4.59596,36.19916 1.59671,53.76374 8.64695,27.49227 -27.6302,14.62311 -42.50404,18.39451 -20.14258,-1.33291 -39.14997,9.04126 -58.94002,6.24869 -19.37371,-3.79541 -39.0388,-5.21664 -58.66718,-2.59331 -19.2551,-0.9447 -38.77585,-8.8337 -58.08752,-2.52887 -24.00981,6.78452 -11.92754,-30.9282 -16.0989,-45.40937 -0.47068,-7.95028 -1.13316,-20.05878 -1.29859,-13.8137 -4.18154,-19.11631 3.46104,-37.60496 3.38814,-56.85079 3.49379,-15.814324 1.90058,-32.531347 7.48683,-47.914478 3.7627,-3.639326 9.20282,-4.393483 14.18115,-4.668873 z m -19.88654,190.196591 -0.5172,0.15257 z" /></g></g></svg>
