<?xml version="1.0" encoding="UTF-8" standalone="no"?>
<!-- Created with Inkscape (http://www.inkscape.org/) -->

<svg
   width="1145.8184"
   height="919.44031"
   viewBox="0 0 303.16443 243.26858"
   version="1.1"
   id="svg8"
   inkscape:version="1.3 (0e150ed6c4, 2023-07-21)"
   sodipodi:docname="drawing.svg"
   xml:space="preserve"
   xmlns:inkscape="http://www.inkscape.org/namespaces/inkscape"
   xmlns:sodipodi="http://sodipodi.sourceforge.net/DTD/sodipodi-0.dtd"
   xmlns="http://www.w3.org/2000/svg"
   xmlns:svg="http://www.w3.org/2000/svg"
   xmlns:rdf="http://www.w3.org/1999/02/22-rdf-syntax-ns#"
   xmlns:cc="http://creativecommons.org/ns#"
   xmlns:dc="http://purl.org/dc/elements/1.1/"><defs
     id="defs2" /><sodipodi:namedview
     id="base"
     pagecolor="#ffffff"
     bordercolor="#666666"
     borderopacity="1.0"
     inkscape:pageopacity="0.0"
     inkscape:pageshadow="2"
     inkscape:zoom="0.38233912"
     inkscape:cx="962.49633"
     inkscape:cy="372.70578"
     inkscape:document-units="mm"
     inkscape:current-layer="g284"
     showgrid="false"
     units="px"
     inkscape:window-width="1916"
     inkscape:window-height="1037"
     inkscape:window-x="0"
     inkscape:window-y="0"
     inkscape:window-maximized="1"
     inkscape:showpageshadow="2"
     inkscape:pagecheckerboard="0"
     inkscape:deskcolor="#d1d1d1" /><metadata
     id="metadata5"><rdf:RDF><cc:Work
         rdf:about=""><dc:format>image/svg+xml</dc:format><dc:type
           rdf:resource="http://purl.org/dc/dcmitype/StillImage" /></cc:Work></rdf:RDF></metadata><g
     inkscape:groupmode="layer"
     id="g160"
     inkscape:label="door"
     transform="translate(-225.21314,-13.114877)"
     style="display:inline"><g
       id="g269"
       style="display:inline"
       transform="translate(-1.1458333e-6)"
       inkscape:label="door normal"
       inkscape:export-filename="../../projects/endless-jam-2023/modules/remi/assets/graphics/door_normal.svg"
       inkscape:export-xdpi="200"
       inkscape:export-ydpi="200"><path
         id="path255"
         style="fill:#525251;fill-opacity:1;stroke:none;stroke-width:1;stroke-linecap:round;stroke-linejoin:round"
         d="m 262.23689,144.30945 c -38.36459,9.33809 -19.63214,54.21897 -7.43101,76.15906 19.30918,17.39647 49.15963,29.07899 75.26474,29.90045 31.56939,1.19561 63.31526,-46.91288 28.10972,-65.30624 -18.81287,-11.27647 -32.35053,-22.48787 -53.26863,-14.68585 -16.8321,-3.1473 -30.31523,-14.99503 -42.67482,-26.06742 z m 13.58655,20.9454 c 2.45757,-2.14173 1.70543,2.14944 0,0 z m 71.97747,34.39925 c 4.1466,-3.26545 2.37126,1.86529 0,0 z" /><path
         id="path256"
         style="fill:#585856;fill-opacity:1;stroke:none;stroke-width:1;stroke-linecap:round;stroke-linejoin:round"
         d="m 336.938,33.951153 c -13.75248,-0.974603 -24.68149,10.282357 -38.26297,8.673656 -16.38373,0.0322 -27.57893,15.664804 -35.87027,28.0424 -2.22883,14.061428 2.20274,30.634431 -9.16471,42.116771 -4.0637,12.96262 -5.58779,30.03046 4.56299,40.56894 12.51656,8.47776 21.50548,21.1108 35.08561,27.80782 17.76944,10.14285 35.52066,25.03491 57.46472,21.7677 11.79186,3.0365 34.29593,-0.38281 24.29881,-17.59699 -7.70051,-11.22051 -30.00076,-7.29564 -25.35036,-26.34936 2.28026,-14.87503 0.713,-29.97449 3.44665,-44.88046 -3.36198,-14.243646 7.93594,-24.478757 17.86728,-32.38031 2.6008,-11.985072 20.50173,-22.947102 11.13047,-34.248333 C 369.03955,38.905443 352.76242,33.387633 336.938,33.951153 Z" /><path
         id="path257"
         style="fill:#5d5d5b;fill-opacity:1;stroke:none;stroke-width:1;stroke-linecap:round;stroke-linejoin:round"
         d="m 423.03191,30.517266 c -18.23241,3.000638 -35.35545,12.490568 -49.73354,23.698023 -13.36136,10.68022 -21.3376,26.139718 -23.96768,42.806541 -5.11692,12.16347 -6.64965,25.08824 -5.92879,38.1763 0.31697,13.59963 0.1347,27.39233 2.48165,40.79487 4.75578,15.25311 25.83348,28.55876 39.6117,15.95773 12.63497,-7.20013 14.92218,-26.22558 32.09287,-26.19471 14.48892,-12.58886 34.56872,0.65974 50.35563,-12.33579 12.7054,-6.08224 30.6166,-8.98891 34.59288,-25.02875 8.48169,-16.87123 11.88931,-39.486869 2.6109,-57.067193 -6.88702,-17.468573 -19.88847,-34.421512 -39.74625,-37.06321 -14.09897,-1.358753 -28.11757,-3.578181 -42.36937,-3.743811 z" /><path
         id="path258"
         style="fill:#626260;fill-opacity:1;stroke:none;stroke-width:1;stroke-linecap:round;stroke-linejoin:round"
         d="m 479.126,135.03876 c -9.99438,3.96288 -21.24435,0.63523 -31.42323,4.26888 -11.45731,4.57916 -23.78847,0.79742 -35.53677,3.8469 -15.60755,2.4526 -28.70994,13.48099 -35.7535,27.34039 -8.67613,2.37623 -18.98108,-1.00042 -26.33984,5.72161 -8.7002,7.7858 -8.15793,21.99802 -2.79527,31.27622 6.63827,7.6592 8.1218,18.16639 16.90081,24.16194 7.23067,11.25435 21.35311,12.07262 33.29645,14.43834 11.92054,2.85608 25.8219,3.21209 36.26352,-4.0631 9.2686,-2.02805 19.15296,2.72899 28.5366,-1.21269 12.2389,-1.93731 26.40847,-3.35221 33.28276,-15.41539 2.62614,-7.84119 5.16696,-12.35486 11.95633,-16.82124 7.91093,-7.06908 0.9939,-16.96011 8.23884,-23.97365 6.35134,-10.59583 1.79368,-25.00412 -5.63233,-33.96487 -5.69781,-9.54324 -16.62053,-10.2862 -25.68769,-14.49829 -1.76029,-0.40443 -3.50066,-0.93586 -5.30668,-1.10508 z" /><path
         id="path269"
         style="fill:none;fill-opacity:1;stroke:#cccccc;stroke-width:5.82083;stroke-linecap:round;stroke-linejoin:round;stroke-dasharray:none;stroke-opacity:1"
         d="m 323.76527,16.025518 c -7.38968,0.0074 -14.76541,0.194612 -22.09529,0.515731 -19.63395,2.269566 -40.92817,3.096269 -57.31175,15.168583 -14.27459,19.834879 -15.01109,45.988913 -16.22175,69.618488 -0.31432,27.82313 5.3452,55.36149 3.24735,83.22955 3.85344,19.98544 4.89752,54.12156 26.94461,60.06455 20.50396,-4.25986 38.74539,7.09724 59.00415,6.77116 24.92017,-1.62505 48.22051,-2.26454 72.70874,2.07946 31.17972,-2.00087 62.85711,-0.70428 93.39275,-8.25893 19.49586,7.06778 36.34437,-9.78952 37.87676,-28.84061 4.03524,-21.79496 2.07871,-44.21177 4.15633,-66.25126 -0.349,-25.21011 -2.01352,-50.298908 -1.2299,-75.553009 1.37388,-17.999978 -3.624,-44.867648 -26.33689,-45.018957 -16.46847,-2.737439 -34.08936,-3.192466 -48.79082,-1.463477 -19.74916,-6.60034 -40.70341,1.526187 -59.30232,-5.990332 -21.57618,-4.492072 -43.87293,-6.093002 -66.04197,-6.070947 z" /><path
         id="path261"
         style="fill:#6c6c6a;fill-opacity:1;stroke:none;stroke-width:1;stroke-linecap:round;stroke-linejoin:round"
         d="m 301.67018,16.541498 c -19.63397,2.269568 -40.92847,3.096026 -57.31206,15.168352 -14.27461,19.834899 -15.01121,45.9887 -16.22187,69.6183 -0.31432,27.82316 5.34564,55.36148 3.24779,83.22956 3.85344,19.98546 4.89709,54.12179 26.9442,60.06478 20.50398,-4.25986 38.7455,7.09737 59.00428,6.77129 24.9202,-1.62505 48.22075,-2.26468 72.709,2.07932 31.17975,-2.00087 62.85711,-0.70446 93.39278,-8.25911 19.49588,7.06778 36.34397,-9.78915 37.87636,-28.84026 4.03525,-21.79498 2.07876,-44.21211 4.15638,-66.25162 -0.349,-25.21014 -2.01362,-50.298579 -1.23,-75.552705 1.37388,-17.999996 -3.62381,-44.867994 -26.33672,-45.019303 -16.46849,-2.737442 -34.08941,-3.192435 -48.79089,-1.463444 -19.74918,-6.600347 -40.70323,1.526382 -59.30216,-5.990144 -28.76826,-5.989436 -58.81752,-6.839493 -88.13709,-5.555016 z m -13.4097,35.639421 c 35.18326,6.600297 71.23704,4.571739 106.40945,-0.322735 16.99277,1.207031 33.35436,-4.955258 49.92133,-2.346979 16.13431,-2.276759 42.72569,4.184805 44.51665,21.926794 7.71155,24.695438 2.09801,51.116191 8.09599,76.115371 -0.51705,17.95458 -4.59596,36.19916 1.59671,53.76374 8.64695,27.49227 -27.6302,14.62311 -42.50404,18.39451 -20.14258,-1.33291 -39.14997,9.04126 -58.94002,6.24869 -19.37371,-3.79541 -39.0388,-5.21664 -58.66718,-2.59331 -19.2551,-0.9447 -38.77585,-8.8337 -58.08752,-2.52887 -24.00981,6.78452 -11.92754,-30.9282 -16.0989,-45.40937 -0.47068,-7.95028 -1.13316,-20.05878 -1.29859,-13.8137 -4.18154,-19.11631 3.46104,-37.60496 3.38814,-56.85079 3.49379,-15.814324 1.90058,-32.531347 7.48683,-47.914478 3.7627,-3.639326 9.20282,-4.393483 14.18115,-4.668873 z m -19.88654,190.196591 -0.5172,0.15257 z" /></g></g></svg>
