<?xml version="1.0" encoding="UTF-8" standalone="no"?>
<!-- Created with Inkscape (http://www.inkscape.org/) -->

<svg
   width="1145.8184"
   height="919.44031"
   viewBox="0 0 303.16443 243.26858"
   version="1.1"
   id="svg8"
   inkscape:version="1.3 (0e150ed6c4, 2023-07-21)"
   sodipodi:docname="drawing.svg"
   xml:space="preserve"
   xmlns:inkscape="http://www.inkscape.org/namespaces/inkscape"
   xmlns:sodipodi="http://sodipodi.sourceforge.net/DTD/sodipodi-0.dtd"
   xmlns="http://www.w3.org/2000/svg"
   xmlns:svg="http://www.w3.org/2000/svg"
   xmlns:rdf="http://www.w3.org/1999/02/22-rdf-syntax-ns#"
   xmlns:cc="http://creativecommons.org/ns#"
   xmlns:dc="http://purl.org/dc/elements/1.1/"><defs
     id="defs2" /><sodipodi:namedview
     id="base"
     pagecolor="#ffffff"
     bordercolor="#666666"
     borderopacity="1.0"
     inkscape:pageopacity="0.0"
     inkscape:pageshadow="2"
     inkscape:zoom="0.38233912"
     inkscape:cx="962.49633"
     inkscape:cy="372.70578"
     inkscape:document-units="mm"
     inkscape:current-layer="g284"
     showgrid="false"
     units="px"
     inkscape:window-width="1916"
     inkscape:window-height="1037"
     inkscape:window-x="0"
     inkscape:window-y="0"
     inkscape:window-maximized="1"
     inkscape:showpageshadow="2"
     inkscape:pagecheckerboard="0"
     inkscape:deskcolor="#d1d1d1" /><metadata
     id="metadata5"><rdf:RDF><cc:Work
         rdf:about=""><dc:format>image/svg+xml</dc:format><dc:type
           rdf:resource="http://purl.org/dc/dcmitype/StillImage" /></cc:Work></rdf:RDF></metadata><g
     inkscape:groupmode="layer"
     id="g160"
     inkscape:label="door"
     transform="translate(-225.21314,-13.114877)"
     style="display:inline"><g
       id="g275"
       style="display:inline"
       transform="translate(-1.1458333e-6)"
       inkscape:label="door hover"><path
         id="path270"
         style="fill:#525251;fill-opacity:1;stroke:none;stroke-width:1;stroke-linecap:round;stroke-linejoin:round"
         d="m 254.02844,140.09236 c -14.2832,3.47659 -20.64421,11.88285 -22.38261,22.19451 0.18256,4.74759 0.20917,9.50182 0.0832,14.26218 2.08279,14.27042 9.18263,29.47698 14.86886,39.70197 19.30916,17.39646 49.15957,29.07904 75.26466,29.9005 31.56936,1.19561 63.3149,-46.91275 28.10939,-65.30609 -18.81285,-11.27646 -32.3505,-22.48794 -53.26858,-14.68592 -16.83208,-3.1473 -30.31534,-14.99477 -42.67492,-26.06715 z m 14.86318,20.34398 c 0.74531,0.2026 0.003,2.21308 -1.27641,0.601 0.61439,-0.53543 1.02797,-0.66853 1.27641,-0.601 z m 72.78367,33.88527 c 1.13888,-0.022 -0.30412,2.51415 -2.08256,1.11518 1.03665,-0.81636 1.70293,-1.10784 2.08256,-1.11518 z" /><path
         id="path271"
         style="fill:#585856;fill-opacity:1;stroke:none;stroke-width:1;stroke-linecap:round;stroke-linejoin:round"
         d="m 323.76527,16.025518 c -7.38967,0.0074 -14.76542,0.194612 -22.09529,0.515731 -9.54104,1.102886 -19.46792,1.885078 -29.03905,3.762561 -5.27414,5.239634 -9.71985,11.615841 -13.53871,17.316772 -2.22883,14.061414 2.20262,30.634481 -9.16482,42.116809 -4.06369,12.962607 -5.58774,30.030629 4.56303,40.569099 12.51655,8.47775 21.5056,21.11059 35.08572,27.80761 17.76942,10.14284 35.52067,25.03538 57.4647,21.76818 11.79185,3.03649 34.29589,-0.38322 24.29878,-17.59738 -7.7005,-11.2205 -30.00079,-7.29559 -25.35039,-26.34929 2.28026,-14.87502 0.71317,-29.974514 3.44682,-44.88047 -3.36198,-14.243631 7.93579,-24.478907 17.86712,-32.380452 2.13694,-9.847504 14.59126,-19.004367 13.77177,-28.226184 -18.83258,-3.236235 -38.11817,-4.442079 -57.30968,-4.422986 z" /><path
         id="path272"
         style="fill:#5d5d5b;fill-opacity:1;stroke:none;stroke-width:1;stroke-linecap:round;stroke-linejoin:round"
         d="m 403.07826,25.158294 c -3.97178,2.543009 -7.79668,5.270554 -11.44219,8.112166 -13.36135,10.68021 -21.33797,26.139367 -23.96805,42.806173 -5.11692,12.163458 -6.6497,25.088437 -5.92884,38.176477 0.31697,13.59962 0.13507,27.3924 2.48202,40.79493 4.75578,15.25309 25.83333,28.5587 39.61154,15.95768 12.63495,-7.20012 14.92194,-26.22565 32.09261,-26.19478 14.48891,-12.58885 34.56921,0.65983 50.3561,-12.33568 12.70539,-6.08224 30.61645,-8.98914 34.59272,-25.02897 1.21822,-2.4232 2.31633,-4.97488 3.30264,-7.603149 -0.14451,-8.414146 -0.20144,-16.833534 0.0605,-25.27391 1.37388,-17.99996 -3.62402,-44.867648 -26.33689,-45.018957 -16.46845,-2.737436 -34.08937,-3.192464 -48.79082,-1.463477 -15.17184,-5.070558 -31.05129,-1.471413 -46.0313,-2.928503 z" /><path
         id="path273"
         style="fill:#626260;fill-opacity:1;stroke:none;stroke-width:1;stroke-linecap:round;stroke-linejoin:round"
         d="m 505.0524,136.305 c -9.99437,3.96287 -21.24454,0.63534 -31.42341,4.26899 -11.45729,4.57915 -23.78856,0.79731 -35.53685,3.84679 -15.60753,2.4526 -28.70982,13.48107 -35.75337,27.34045 -8.67612,2.37623 -18.98124,-1.00041 -26.33999,5.72162 -8.70019,7.78579 -8.15784,21.99793 -2.79518,31.27612 6.63826,7.6592 8.12177,18.16629 16.90078,24.16184 7.23066,11.25433 21.35334,12.07267 33.29667,14.43839 11.92053,2.85608 25.82181,3.21238 36.26342,-4.0628 9.26859,-2.02805 19.15313,2.72883 28.53676,-1.21285 9.1701,-1.45154 19.42339,-2.61101 26.88053,-8.17469 3.46305,-5.06691 5.71674,-11.16581 6.22908,-17.53536 4.03523,-21.79494 2.07872,-44.21179 4.15633,-66.25126 -0.0326,-2.35855 -0.11586,-4.71215 -0.16846,-7.06882 -4.80209,-2.11846 -10.12353,-3.40576 -14.93966,-5.64306 -1.76029,-0.40443 -3.50063,-0.93614 -5.30665,-1.10536 z" /><path
         id="path274"
         style="fill:none;fill-opacity:1;stroke:#ffffff;stroke-width:5.82083;stroke-linecap:round;stroke-linejoin:round;stroke-dasharray:none;stroke-opacity:1"
         d="m 323.76527,16.025518 c -7.38968,0.0074 -14.76541,0.194612 -22.09529,0.515731 -19.63395,2.269566 -40.92817,3.096269 -57.31175,15.168583 -14.27459,19.834879 -15.01109,45.988913 -16.22175,69.618488 -0.31432,27.82313 5.3452,55.36149 3.24735,83.22955 3.85344,19.98544 4.89752,54.12156 26.94461,60.06455 20.50396,-4.25986 38.74539,7.09724 59.00415,6.77116 24.92017,-1.62505 48.22051,-2.26454 72.70874,2.07946 31.17972,-2.00087 62.85711,-0.70428 93.39275,-8.25893 19.49586,7.06778 36.34437,-9.78952 37.87676,-28.84061 4.03524,-21.79496 2.07871,-44.21177 4.15633,-66.25126 -0.349,-25.21011 -2.01352,-50.298908 -1.2299,-75.553009 1.37388,-17.999978 -3.624,-44.867648 -26.33689,-45.018957 -16.46847,-2.737439 -34.08936,-3.192466 -48.79082,-1.463477 -19.74916,-6.60034 -40.70341,1.526187 -59.30232,-5.990332 -21.57618,-4.492072 -43.87293,-6.093002 -66.04197,-6.070947 z" /><path
         id="path275"
         style="fill:#6c6c6a;fill-opacity:1;stroke:none;stroke-width:1;stroke-linecap:round;stroke-linejoin:round"
         d="m 301.67018,16.541498 c -19.63397,2.269568 -40.92847,3.096026 -57.31206,15.168352 -14.27461,19.834899 -15.01121,45.9887 -16.22187,69.6183 -0.31432,27.82316 5.34564,55.36148 3.24779,83.22956 3.85344,19.98546 4.89709,54.12179 26.9442,60.06478 20.50398,-4.25986 38.7455,7.09737 59.00428,6.77129 24.9202,-1.62505 48.22075,-2.26468 72.709,2.07932 31.17975,-2.00087 62.85711,-0.70446 93.39278,-8.25911 19.49588,7.06778 36.34397,-9.78915 37.87636,-28.84026 4.03525,-21.79498 2.07876,-44.21211 4.15638,-66.25162 -0.349,-25.21014 -2.01362,-50.298579 -1.23,-75.552705 1.37388,-17.999996 -3.62381,-44.867994 -26.33672,-45.019303 -16.46849,-2.737442 -34.08941,-3.192435 -48.79089,-1.463444 -19.74918,-6.600347 -40.70323,1.526382 -59.30216,-5.990144 -28.76826,-5.989436 -58.81752,-6.839493 -88.13709,-5.555016 z m -13.4097,35.639421 c 35.18326,6.600297 71.23704,4.571739 106.40945,-0.322735 16.99277,1.207031 33.35436,-4.955258 49.92133,-2.346979 16.13431,-2.276759 42.72569,4.184805 44.51665,21.926794 7.71155,24.695438 2.09801,51.116191 8.09599,76.115371 -0.51705,17.95458 -4.59596,36.19916 1.59671,53.76374 8.64695,27.49227 -27.6302,14.62311 -42.50404,18.39451 -20.14258,-1.33291 -39.14997,9.04126 -58.94002,6.24869 -19.37371,-3.79541 -39.0388,-5.21664 -58.66718,-2.59331 -19.2551,-0.9447 -38.77585,-8.8337 -58.08752,-2.52887 -24.00981,6.78452 -11.92754,-30.9282 -16.0989,-45.40937 -0.47068,-7.95028 -1.13316,-20.05878 -1.29859,-13.8137 -4.18154,-19.11631 3.46104,-37.60496 3.38814,-56.85079 3.49379,-15.814324 1.90058,-32.531347 7.48683,-47.914478 3.7627,-3.639326 9.20282,-4.393483 14.18115,-4.668873 z m -19.88654,190.196591 -0.5172,0.15257 z" /></g></g></svg>
