<?xml version="1.0" encoding="UTF-8" standalone="no"?>
<!-- Created with Inkscape (http://www.inkscape.org/) -->

<svg
   width="218.14398"
   height="225.53415"
   viewBox="0 0 57.71726 59.672577"
   version="1.1"
   id="svg8"
   inkscape:version="1.3 (0e150ed6c4, 2023-07-21)"
   sodipodi:docname="hand_man__mouth_open_hover.svg"
   xml:space="preserve"
   xmlns:inkscape="http://www.inkscape.org/namespaces/inkscape"
   xmlns:sodipodi="http://sodipodi.sourceforge.net/DTD/sodipodi-0.dtd"
   xmlns="http://www.w3.org/2000/svg"
   xmlns:svg="http://www.w3.org/2000/svg"
   xmlns:rdf="http://www.w3.org/1999/02/22-rdf-syntax-ns#"
   xmlns:cc="http://creativecommons.org/ns#"
   xmlns:dc="http://purl.org/dc/elements/1.1/"><defs
     id="defs2" /><sodipodi:namedview
     id="base"
     pagecolor="#ffffff"
     bordercolor="#666666"
     borderopacity="1.0"
     inkscape:pageopacity="0.0"
     inkscape:pageshadow="2"
     inkscape:zoom="0.087499999"
     inkscape:cx="514.28572"
     inkscape:cy="-51.428572"
     inkscape:document-units="mm"
     inkscape:current-layer="svg8"
     showgrid="false"
     units="px"
     inkscape:window-width="636"
     inkscape:window-height="1037"
     inkscape:window-x="0"
     inkscape:window-y="0"
     inkscape:window-maximized="1"
     inkscape:showpageshadow="2"
     inkscape:pagecheckerboard="0"
     inkscape:deskcolor="#d1d1d1" /><metadata
     id="metadata5"><rdf:RDF><cc:Work
         rdf:about=""><dc:format>image/svg+xml</dc:format><dc:type
           rdf:resource="http://purl.org/dc/dcmitype/StillImage" /></cc:Work></rdf:RDF></metadata><g
     inkscape:groupmode="layer"
     id="g15"
     inkscape:label="handy_man"
     transform="translate(-472.50204,18.665479)"><g
       id="g88"
       inkscape:label="mouth open hovered"
       transform="translate(70.348189,-45.125248)"><path
         id="path77"
         style="fill:none;fill-opacity:1;stroke:#ffffff;stroke-width:5.82083;stroke-linecap:round;stroke-linejoin:round;stroke-dasharray:none;stroke-opacity:1"
         d="m 436.87885,29.370649 c -0.20163,-0.0031 -0.4034,0.0092 -0.60461,0.03824 -1.88449,0.272009 -2.88964,2.785778 -4.75579,3.163631 -0.31379,0.06353 -0.62562,-0.142097 -0.94361,-0.179317 -0.32692,-0.03866 -0.66924,0.04273 -0.9865,-0.04496 -1.92285,-0.531092 -3.27617,-2.788249 -5.27048,-2.834969 -3.24531,-0.07599 -6.24431,2.183813 -8.78293,4.206978 -4.30555,3.431316 -10.20259,12.762172 -10.36836,13.025045 -0.0595,0.02824 -0.0973,0.05448 -0.10232,0.07648 0,0 4.19904,3.32024 5.92212,5.345927 0.71507,0.840636 1.06712,1.951526 1.79576,2.781742 0.85477,0.973954 1.91924,1.751845 2.96674,2.517676 0.0247,0.01803 0.0492,0.03722 0.0739,0.05529 -0.11847,5.407809 -1.22352,11.265 1.27383,15.995922 1.9343,3.664307 5.99028,5.939078 9.71413,7.756116 2.49037,1.215169 5.31531,1.928295 8.08633,1.928565 3.11594,3.1e-4 6.93667,0.082 9.09298,-2.16731 1.71144,-1.785248 1.00737,-4.843829 1.41387,-7.283277 0.90628,-5.438697 2.16796,-10.87031 2.43655,-16.370576 4.56294,-4.442944 8.99118,-10.154936 8.99118,-10.154936 -0.005,-0.01741 -0.0154,-0.03336 -0.0227,-0.05013 0.0336,-0.01443 0.15193,-0.05891 0.15193,-0.05891 0,0 -3.28134,-4.400612 -5.16041,-6.392892 -3.35765,-3.55995 -6.61564,-7.446302 -10.86497,-9.873299 -1.23577,-0.705807 -2.64518,-1.459366 -4.0566,-1.481046 z" /><path
         style="fill:#e05252;fill-opacity:1;stroke:#1a1a1a;stroke-width:1.5;stroke-linecap:round;stroke-linejoin:round;stroke-dasharray:none;stroke-opacity:1"
         d="m 412.94865,50.124555 c -1.80027,-1.307749 -3.67559,-3.647313 -3.27568,-5.852016 0.88042,-4.85378 6.56877,-8.11109 11.26386,-9.456795 8.19483,-2.348799 17.56701,0.0109 25.30107,3.61917 3.1177,1.454648 7.44678,3.438769 7.71639,6.900106 0.24841,3.189015 -3.20814,5.97331 -6.03737,7.404347 -5.17926,2.619704 -11.57844,1.234487 -17.35453,0.813709 -5.96358,-0.434437 -12.7578,0.0989 -17.61374,-3.428521 z"
         id="path78"
         sodipodi:nodetypes="aaaaaaaa" /><path
         style="fill:#ffffff;fill-opacity:1;stroke:#1a1a1a;stroke-width:1.5875;stroke-linecap:round;stroke-linejoin:round;stroke-dasharray:none;stroke-opacity:1"
         d="m 417.51049,41.219075 c 0,0 -0.0878,0.878772 0.10663,1.248397 0.146,0.277542 0.42302,0.520322 0.7271,0.597019 0.39171,0.0988 0.85997,0.0011 1.18935,-0.232834 0.27021,-0.191878 0.39502,-0.544537 0.50189,-0.858239 0.4005,-1.175616 0.47384,-3.695636 0.47384,-3.695636"
         id="path79"
         sodipodi:nodetypes="caaaac" /><path
         style="fill:#ffffff;fill-opacity:1;stroke:#1a1a1a;stroke-width:1.5875;stroke-linecap:round;stroke-linejoin:round;stroke-dasharray:none;stroke-opacity:1"
         d="m 421.4019,37.802548 c -0.75381,0.966854 -0.62645,2.401387 -0.60864,3.627241 0.004,0.272952 0.006,0.577435 0.15893,0.803373 0.0953,0.140528 0.26354,0.233082 0.42762,0.276749 0.72245,0.192272 1.52338,0.09323 2.23949,-0.121436 0.19715,-0.0591 0.42197,-0.138103 0.53326,-0.311232 0.8541,-1.328691 1.52713,-3.537986 0.47361,-4.714846 -0.4819,-0.538324 -1.45947,-0.166827 -2.16742,-0.02249 -0.37681,0.07682 -0.8204,0.159364 -1.05685,0.462641 z"
         id="path80"
         sodipodi:nodetypes="aaaaaaaaa" /><path
         style="fill:#ffffff;fill-opacity:1;stroke:#1a1a1a;stroke-width:1.5875;stroke-linecap:round;stroke-linejoin:round;stroke-dasharray:none;stroke-opacity:1"
         d="m 425.32718,37.692904 c -1.04952,0.825883 -0.55276,2.679739 -0.3158,3.994055 0.0337,0.186703 0.0914,0.398237 0.24018,0.515977 0.18647,0.147594 0.46214,0.119664 0.69866,0.144492 1.34829,0.141534 2.79506,0.490324 4.06705,0.02132 0.17923,-0.06608 0.33384,-0.211605 0.43394,-0.374301 0.12828,-0.2085 0.14489,-0.470015 0.17745,-0.712639 0.12116,-0.902712 0.6454,-2.032021 0.0623,-2.731709 -1.15916,-1.390926 -3.94089,-1.976887 -5.36378,-0.857195 z"
         id="path81"
         sodipodi:nodetypes="aaaaaaaaa" /><path
         style="fill:#ffffff;fill-opacity:1;stroke:#1a1a1a;stroke-width:1.5875;stroke-linecap:round;stroke-linejoin:round;stroke-dasharray:none;stroke-opacity:1"
         d="m 431.33285,38.448911 c -0.69609,0.85508 -0.32795,2.29449 0.1111,3.305892 0.0872,0.200759 0.26647,0.370648 0.46432,0.464217 0.84641,0.400295 1.85908,0.282041 2.79535,0.275476 0.63821,-0.0045 1.3526,0.10924 1.90264,-0.214482 0.18427,-0.10845 0.31459,-0.31648 0.37225,-0.522372 0.38111,-1.360923 0.80396,-3.358092 -0.30946,-4.228528 -1.422,-1.111674 -4.19669,-0.479992 -5.3362,0.919797 z"
         id="path82"
         sodipodi:nodetypes="aaaaaaaa" /><path
         style="fill:#ffffff;fill-opacity:1;stroke:#1a1a1a;stroke-width:1.5875;stroke-linecap:round;stroke-linejoin:round;stroke-dasharray:none;stroke-opacity:1"
         d="m 437.44409,37.407451 c -0.93613,1.150979 -0.2763,3.075648 0.30576,4.440308 0.0789,0.184879 0.22816,0.351675 0.4055,0.446268 0.3425,0.182683 0.76523,0.137284 1.15199,0.170309 0.5424,0.04631 1.14785,0.2861 1.63267,0.03852 0.16927,-0.08644 0.27425,-0.28603 0.32332,-0.469646 0.35409,-1.325041 0.53205,-3.035719 -0.33155,-4.101229 -0.50522,-0.623346 -1.5071,-0.625318 -2.30714,-0.686573 -0.39605,-0.03032 -0.92992,-0.146109 -1.18055,0.162043 z"
         id="path83"
         sodipodi:nodetypes="aaaaaaaaa" /><path
         style="fill:#ffffff;fill-opacity:1;stroke:#1a1a1a;stroke-width:1.5875;stroke-linecap:round;stroke-linejoin:round;stroke-dasharray:none;stroke-opacity:1"
         d="m 441.50373,38.67113 c -0.8708,0.684453 0.0888,2.244954 0.44921,3.292281 0.10174,0.295675 0.24046,0.600495 0.47196,0.810697 0.27711,0.251622 0.64611,0.459185 1.02029,0.468987 0.28014,0.0073 0.58944,-0.106302 0.78121,-0.310647 0.34356,-0.366093 0.57097,-0.940959 0.46664,-1.432055 -0.22767,-1.071675 -1.30006,-1.817491 -2.2008,-2.441181 -0.29103,-0.201515 -0.7102,-0.606833 -0.98851,-0.388082 z"
         id="path84"
         sodipodi:nodetypes="aaaaaaaa" /><path
         style="fill:#ff4c4c;fill-opacity:1;stroke:#1a1a1a;stroke-width:1.5875;stroke-linecap:round;stroke-linejoin:round;stroke-dasharray:none;stroke-opacity:1"
         d="m 405.10983,46.83242 c 0,0 6.05836,-9.632024 10.42505,-13.112065 2.53862,-2.023167 5.53773,-4.282942 8.78304,-4.206954 1.99431,0.04672 3.34757,2.303961 5.27042,2.835053 0.31726,0.08769 0.65951,0.0062 0.98643,0.04486 0.31799,0.03722 0.62986,0.24248 0.94365,0.178951 1.86615,-0.377854 2.8715,-2.891588 4.75599,-3.163597 1.60975,-0.232357 3.24868,0.636547 4.66099,1.443185 4.24933,2.426999 7.5073,6.313069 10.86495,9.873024 1.87907,1.992282 5.16051,6.392921 5.16051,6.392921 0,0 -0.96715,0.43791 -1.46951,0.378679 -3.20898,-0.378399 -5.8051,-2.858694 -8.56686,-4.535996 -2.97683,-1.807911 -5.18452,-5.238503 -8.59608,-5.939499 -2.68986,-0.552694 -5.33199,1.759801 -8.07503,1.631186 -2.12493,-0.09968 -4.01274,-2.200825 -6.10978,-1.843389 -3.43322,0.585183 -5.58685,4.161553 -8.43831,6.161233 -1.79505,1.25883 -3.37145,2.994427 -5.45624,3.672995 -1.63007,0.530563 -5.13922,0.18948 -5.13922,0.18948 z"
         id="path85"
         sodipodi:nodetypes="caaaaaaaacaaaaaaacc" /><path
         style="fill:#ff4c4c;fill-opacity:1;stroke:#1a1a1a;stroke-width:1.5875;stroke-linecap:round;stroke-linejoin:round;stroke-dasharray:none;stroke-opacity:1"
         d="m 405.0644,46.821674 c 0.0759,-0.333265 6.76188,-1.556958 9.16501,1.64947 2.18692,2.91794 5.44739,5.142657 8.86842,6.405022 2.49802,0.921765 5.29923,0.602486 7.96147,0.650393 3.88792,0.06993 8.05427,0.940641 11.65359,-0.531014 2.47538,-1.012113 4.73558,-3.341818 5.97459,-5.35458 2.01494,-3.273243 7.7763,-3.648014 8.14396,-2.414275 0,0 -8.24854,10.65331 -13.83221,14.176213 -1.45088,0.915395 -3.18341,1.351685 -4.87214,1.658067 -2.54384,0.461521 -5.16939,0.324496 -7.75393,0.240627 -2.09516,-0.06806 -4.27582,0.07118 -6.25956,-0.602237 -3.1177,-1.058307 -5.71071,-3.292181 -8.36448,-5.232351 -1.04751,-0.765832 -2.11213,-1.543641 -2.9669,-2.517596 -0.72864,-0.830217 -1.0806,-1.941026 -1.79567,-2.781663 -1.72309,-2.025689 -5.92215,-5.346076 -5.92215,-5.346076 z"
         id="path86"
         sodipodi:nodetypes="csaaascaaaaaaac" /><path
         style="fill:#d27979;fill-opacity:1;stroke:#1a1a1a;stroke-width:1.5875;stroke-linecap:round;stroke-linejoin:round;stroke-dasharray:none;stroke-opacity:1"
         d="m 426.81064,81.274222 c -3.72385,-1.81704 -7.77976,-4.09167 -9.71407,-7.75598 -2.64381,-5.00838 -1.24866,-11.27975 -1.26265,-16.94309 -0.007,-2.9215 -1.2945,-6.52639 0.60815,-8.74339 2.39372,-2.78921 7.13567,-3.05661 10.75658,-2.42527 1.49486,0.26064 3.83987,2.44506 3.83987,2.44506 0,0 4.08937,-1.68584 6.25303,-1.75308 3.32289,-0.10326 7.5239,-0.37663 9.75185,2.09085 1.73566,1.92226 0.88516,5.13375 0.8473,7.72338 -0.0878,6.0035 -1.49992,11.91746 -2.48681,17.83994 -0.4065,2.43945 0.29764,5.49805 -1.4138,7.2833 -2.15632,2.24931 -5.97726,2.16726 -9.0932,2.16695 -2.77102,-2.7e-4 -5.59588,-0.7135 -8.08625,-1.92867 z"
         id="path87"
         sodipodi:nodetypes="aaaaacaaaaaaa" /><path
         style="fill:#f05a66;fill-opacity:1;stroke:#1a1a1a;stroke-width:1.5875;stroke-linecap:round;stroke-linejoin:round;stroke-dasharray:none;stroke-opacity:1"
         d="M 431.32737,47.857417 V 63.382529"
         id="path88" /></g></g></svg>
