<?xml version="1.0" encoding="UTF-8" standalone="no"?>
<!-- Created with Inkscape (http://www.inkscape.org/) -->

<svg
   width="230.82182"
   height="108.19595"
   viewBox="0 0 61.071605 28.626844"
   version="1.1"
   id="svg8"
   inkscape:version="1.3 (0e150ed6c4, 2023-07-21)"
   sodipodi:docname="drawing.svg"
   xml:space="preserve"
   xmlns:inkscape="http://www.inkscape.org/namespaces/inkscape"
   xmlns:sodipodi="http://sodipodi.sourceforge.net/DTD/sodipodi-0.dtd"
   xmlns="http://www.w3.org/2000/svg"
   xmlns:svg="http://www.w3.org/2000/svg"
   xmlns:rdf="http://www.w3.org/1999/02/22-rdf-syntax-ns#"
   xmlns:cc="http://creativecommons.org/ns#"
   xmlns:dc="http://purl.org/dc/elements/1.1/"><defs
     id="defs2" /><sodipodi:namedview
     id="base"
     pagecolor="#ffffff"
     bordercolor="#666666"
     borderopacity="1.0"
     inkscape:pageopacity="0.0"
     inkscape:pageshadow="2"
     inkscape:zoom="0.49497474"
     inkscape:cx="1123.2896"
     inkscape:cy="235.36555"
     inkscape:document-units="mm"
     inkscape:current-layer="g15"
     showgrid="false"
     units="px"
     inkscape:window-width="1916"
     inkscape:window-height="1037"
     inkscape:window-x="0"
     inkscape:window-y="0"
     inkscape:window-maximized="1"
     inkscape:showpageshadow="2"
     inkscape:pagecheckerboard="0"
     inkscape:deskcolor="#d1d1d1" /><metadata
     id="metadata5"><rdf:RDF><cc:Work
         rdf:about=""><dc:format>image/svg+xml</dc:format><dc:type
           rdf:resource="http://purl.org/dc/dcmitype/StillImage" /></cc:Work></rdf:RDF></metadata><g
     inkscape:groupmode="layer"
     id="g15"
     inkscape:label="handy_man"
     transform="translate(-245.34609,38.076452)"><g
       id="g53"
       transform="translate(26.880343,-154.10819)"
       inkscape:label="mouth closed"><path
         style="fill:#ff4c4c;fill-opacity:1;stroke:#1a1a1a;stroke-width:1.5875;stroke-linecap:round;stroke-linejoin:round;stroke-dasharray:none;stroke-opacity:1"
         d="m 219.25943,130.63698 c 0,0 5.73293,5.13852 9.08354,7.00285 4.79847,2.66999 10.02105,4.87925 15.45782,5.81044 3.82537,0.65518 7.83676,0.49934 11.64802,-0.23043 3.69559,-0.7076 7.20763,-2.25762 10.54828,-3.95892 3.68709,-1.87772 7.13359,-4.23289 10.33778,-6.82427 0.81078,-0.65574 2.22588,-2.18897 2.22588,-2.18897 0,0 -16.72922,-2.22886 -25.15142,-2.45349 -9.77928,-0.26084 -19.69656,-0.43852 -29.31922,1.28787 -1.66727,0.29911 -4.83068,1.55492 -4.83068,1.55492 z"
         id="path53"
         sodipodi:nodetypes="caaaaacaac" /><path
         style="fill:#ff4c4c;fill-opacity:1;stroke:#1a1a1a;stroke-width:1.5875;stroke-linecap:round;stroke-linejoin:round;stroke-dasharray:none;stroke-opacity:1"
         d="m 219.98702,129.69867 c 0,0 6.56367,-4.91932 9.95976,-7.22287 2.74846,-1.86426 5.11352,-4.86116 8.42207,-5.33449 2.05593,-0.29412 4.02446,1.03245 5.98351,1.71012 1.22038,0.42216 2.29233,1.55129 3.58355,1.46372 1.7695,-0.12 2.93456,-2.00491 4.58149,-2.64969 1.15105,-0.45064 2.3899,-0.94118 3.62342,-0.8203 2.72828,0.26736 5.19348,1.86379 7.48789,3.33351 3.05156,1.95473 8.13769,7.1585 8.13769,7.1585 l 6.97763,3.10785 c 0,0 -9.07109,-1.01179 -13.62317,-0.94903 -2.88307,0.0397 -5.75934,0.39917 -8.60755,0.83864 -2.43495,0.37571 -4.76384,1.44579 -7.22723,1.53359 -3.48095,0.12408 -6.88259,-1.07592 -10.34657,-1.43423 -3.86567,-0.39986 -7.74774,-0.68054 -11.63311,-0.79709 -2.43873,-0.0732 -7.31938,0.0617 -7.31938,0.0617 z"
         id="path52"
         sodipodi:nodetypes="caaaaaaaccaaaaac" /><path
         style="fill:#ffb3b3;fill-opacity:1;stroke:none;stroke-width:1.5875;stroke-linecap:round;stroke-linejoin:round;stroke-dasharray:none;stroke-opacity:1"
         d="m 242.39133,122.53801 c -1.21779,1.19344 -4.06657,0.76579 -5.07922,-0.60602 -0.55598,-0.75317 -0.27955,-2.24989 0.50349,-2.76295 1.24389,-0.81502 3.36342,-0.0994 4.34338,1.01914 0.51867,0.59203 0.7945,1.79892 0.23235,2.34983 z"
         id="path65"
         sodipodi:nodetypes="aaaaa" /><path
         style="fill:#ffb3b3;fill-opacity:1;stroke:none;stroke-width:1.5875;stroke-linecap:round;stroke-linejoin:round;stroke-dasharray:none;stroke-opacity:1"
         d="m 233.64617,123.30242 c -0.30168,-0.11492 -0.62403,-0.43101 -0.60845,-0.75345 0.0346,-0.71632 0.81408,-1.35014 1.50681,-1.53569 0.54894,-0.14703 1.40702,-0.0601 1.64243,0.45715 0.23458,0.51545 -0.27877,1.19314 -0.73144,1.53344 -0.4886,0.36732 -1.23812,0.51616 -1.80935,0.29855 z"
         id="path66"
         sodipodi:nodetypes="aaaaaa" /></g></g></svg>
