<?xml version="1.0" encoding="UTF-8" standalone="no"?>
<!-- Created with Inkscape (http://www.inkscape.org/) -->

<svg
   width="206.76843"
   height="150.59097"
   viewBox="0 0 54.707479 39.843862"
   version="1.1"
   id="svg8"
   inkscape:version="1.3 (0e150ed6c4, 2023-07-21)"
   sodipodi:docname="drawing.svg"
   xml:space="preserve"
   xmlns:inkscape="http://www.inkscape.org/namespaces/inkscape"
   xmlns:sodipodi="http://sodipodi.sourceforge.net/DTD/sodipodi-0.dtd"
   xmlns="http://www.w3.org/2000/svg"
   xmlns:svg="http://www.w3.org/2000/svg"
   xmlns:rdf="http://www.w3.org/1999/02/22-rdf-syntax-ns#"
   xmlns:cc="http://creativecommons.org/ns#"
   xmlns:dc="http://purl.org/dc/elements/1.1/"><defs
     id="defs2" /><sodipodi:namedview
     id="base"
     pagecolor="#ffffff"
     bordercolor="#666666"
     borderopacity="1.0"
     inkscape:pageopacity="0.0"
     inkscape:pageshadow="2"
     inkscape:zoom="0.49497474"
     inkscape:cx="1499.0664"
     inkscape:cy="-67.680221"
     inkscape:document-units="mm"
     inkscape:current-layer="g15"
     showgrid="false"
     units="px"
     inkscape:window-width="1916"
     inkscape:window-height="1037"
     inkscape:window-x="0"
     inkscape:window-y="0"
     inkscape:window-maximized="1"
     inkscape:showpageshadow="2"
     inkscape:pagecheckerboard="0"
     inkscape:deskcolor="#d1d1d1" /><metadata
     id="metadata5"><rdf:RDF><cc:Work
         rdf:about=""><dc:format>image/svg+xml</dc:format><dc:type
           rdf:resource="http://purl.org/dc/dcmitype/StillImage" /></cc:Work></rdf:RDF></metadata><g
     inkscape:groupmode="layer"
     id="g15"
     inkscape:label="handy_man"
     transform="translate(-416.88576,83.046659)"><g
       id="g211"
       inkscape:label="mouth kiss"
       transform="translate(-71.420337)"
       inkscape:export-filename="../../projects/endless-jam-2023/modules/remi/assets/graphics/hand_man__mouth_kissed.svg"
       inkscape:export-xdpi="200"
       inkscape:export-ydpi="200"><path
         id="path208"
         style="fill:none;fill-opacity:1;stroke:#e5e5e5;stroke-width:5.82083;stroke-linecap:round;stroke-linejoin:round;stroke-dasharray:none;stroke-opacity:1"
         d="m 520.30096,-80.135745 c -0.20172,-0.0032 -0.4033,0.0087 -0.60462,0.03772 -1.88799,0.271884 -2.88634,2.785777 -4.75578,3.163631 -0.3138,0.0634 -0.62558,-0.141581 -0.94361,-0.178801 -0.32691,-0.03706 -0.66937,0.04257 -0.9865,-0.04496 -1.9248,-0.531326 -3.27586,-2.805529 -5.27048,-2.834969 -3.47256,-0.05127 -6.83659,2.232217 -9.31726,4.662764 -3.68437,3.609915 -5.05471,6.847995 -7.20628,13.693738 0,0 0.17377,0.04424 0.45475,0.106453 -0.10548,0.03192 -0.34107,0.101803 -0.34107,0.101803 0,0 2.10221,2.690752 3.07837,4.089673 0.63168,0.905255 1.06712,1.951526 1.79576,2.781742 0.85477,0.973954 1.91923,1.751328 2.96674,2.517159 2.65377,1.940168 5.24665,4.17445 8.36435,5.232756 1.98374,0.673416 4.16441,0.53397 6.25956,0.60203 2.58454,0.08387 5.21021,0.220709 7.75405,-0.240812 1.68873,-0.306382 3.39196,-0.790434 4.87206,-1.65778 5.29053,-3.1003 13.68237,-12.296924 13.68237,-12.296924 0,0 -1.28998,-0.494188 -2.91972,-1.027327 0.0145,0.0036 0.0294,0.0057 0.0439,0.0093 0.98229,0.244457 2.87424,0.979785 2.87424,0.979785 0,0 -2.85047,-5.840471 -4.87928,-8.34316 -3.08163,-3.801404 -6.6095,-7.443715 -10.86497,-9.872783 -1.23471,-0.704798 -2.6446,-1.458959 -4.0566,-1.481046 z" /><path
         style="fill:#e05252;fill-opacity:1;stroke:none;stroke-width:1.5875;stroke-linecap:round;stroke-linejoin:round;stroke-dasharray:none;stroke-opacity:1"
         d="m 530.73891,-56.654395 -14.97405,2.332977 -12.71491,-1.68891 -5.99828,-7.548703 5.44469,-7.563832 13.35448,-0.978354 10.38599,3.120314 4.91094,4.715134 z"
         id="path56" /><path
         style="fill:#ff4c4c;fill-opacity:1;stroke:#000000;stroke-width:1.5875;stroke-linecap:round;stroke-linejoin:round;stroke-dasharray:none;stroke-opacity:1"
         d="m 498.42257,-75.330477 c 2.48068,-2.43055 5.84471,-4.713967 9.31727,-4.662696 1.99463,0.02944 3.34562,2.303727 5.27042,2.835053 0.31714,0.08753 0.65952,0.0078 0.98643,0.04486 0.31803,0.03722 0.62985,0.242355 0.94365,0.178951 1.86944,-0.377854 2.868,-2.891712 4.75599,-3.163597 1.61052,-0.231937 3.2499,0.6377 4.66099,1.443185 4.25548,2.42907 7.78332,6.071617 10.86495,9.873024 2.02882,2.502692 4.87955,8.343042 4.87955,8.343042 0,0 -1.89201,-0.735399 -2.8743,-0.979857 -3.01903,-0.751348 -6.29251,-0.414112 -9.21523,-1.480347 -3.00339,-1.09567 -5.16296,-4.013579 -8.22466,-4.933864 -3.03096,-0.911034 -6.37466,-0.995526 -9.48572,-0.414206 -3.29967,0.61655 -6.19977,2.584349 -9.22325,4.04258 -1.93993,0.935626 -3.59867,2.61162 -5.7141,3.016278 -1.36601,0.26131 -4.14817,-0.448392 -4.14817,-0.448392 2.15158,-6.84575 3.52181,-10.084091 7.20618,-13.694009 z"
         id="path54"
         sodipodi:nodetypes="aaaaaaaacaaaaaaca" /><path
         style="fill:#ff4c4c;fill-opacity:1;stroke:#000000;stroke-width:1.5875;stroke-linecap:round;stroke-linejoin:round;stroke-dasharray:none;stroke-opacity:1"
         d="m 491.33021,-61.428376 c 0,0 4.68425,-1.456268 7.10889,-1.565617 2.57817,-0.116342 5.16919,0.383087 7.67975,0.977475 2.65925,0.62957 4.99968,2.596824 7.73051,2.720673 3.99459,0.181163 7.67866,-2.303291 11.62579,-2.939651 2.17553,-0.350755 4.40254,-0.704889 6.59453,-0.476037 2.77147,0.289344 8.0338,2.311125 8.0338,2.311125 0,0 -8.39179,9.196434 -13.68233,12.296737 -1.4801,0.867347 -3.18341,1.351685 -4.87214,1.658067 -2.54384,0.461521 -5.16939,0.324496 -7.75393,0.240627 -2.09516,-0.06806 -4.27582,0.07118 -6.25956,-0.602237 -3.1177,-1.058307 -5.71071,-3.292181 -8.36448,-5.232351 -1.04751,-0.765832 -2.11213,-1.543641 -2.9669,-2.517596 -0.72864,-0.830217 -1.16399,-1.876407 -1.79567,-2.781663 -0.97616,-1.398922 -3.07826,-4.089552 -3.07826,-4.089552 z"
         id="path55"
         sodipodi:nodetypes="caaaaacaaaaaaac" /><path
         style="fill:#ffb3b3;fill-opacity:1;stroke:none;stroke-width:1.5875;stroke-linecap:round;stroke-linejoin:round;stroke-dasharray:none;stroke-opacity:1"
         d="m 517.25001,-56.573268 c -0.41919,-0.763872 1.06942,-1.436199 1.82329,-1.873118 2.1628,-1.253491 4.7787,-2.143664 7.26317,-1.867318 0.57428,0.06388 1.5827,0.213538 1.543,0.789998 -0.12751,1.851323 -3.4681,1.338287 -5.25644,1.833774 -1.76286,0.48843 -4.49298,2.720341 -5.37302,1.116664 z"
         id="path112"
         sodipodi:nodetypes="aaaaaa" /><path
         style="fill:#e05252;fill-opacity:1;stroke:none;stroke-width:1.5875;stroke-linecap:round;stroke-linejoin:round;stroke-dasharray:none;stroke-opacity:1"
         d="m 530.73891,-56.654395 -14.97405,2.332977 -12.71491,-1.68891 -5.99828,-7.548703 5.44469,-7.563832 13.35448,-0.978354 10.38599,3.120314 4.91094,4.715134 z"
         id="path204" /><path
         style="fill:#ff4c4c;fill-opacity:1;stroke:#000000;stroke-width:1.5875;stroke-linecap:round;stroke-linejoin:round;stroke-dasharray:none;stroke-opacity:1"
         d="m 498.42257,-75.330477 c 2.48068,-2.43055 5.84471,-4.713967 9.31727,-4.662696 1.99463,0.02944 3.34562,2.303727 5.27042,2.835053 0.31714,0.08753 0.65952,0.0078 0.98643,0.04486 0.31803,0.03722 0.62985,0.242355 0.94365,0.178951 1.86944,-0.377854 2.868,-2.891712 4.75599,-3.163597 1.61052,-0.231937 3.2499,0.6377 4.66099,1.443185 4.25548,2.42907 7.78332,6.071617 10.86495,9.873024 2.02882,2.502692 4.87955,8.343042 4.87955,8.343042 0,0 -1.89201,-0.735399 -2.8743,-0.979857 -3.01903,-0.751348 -6.29251,-0.414112 -9.21523,-1.480347 -3.00339,-1.09567 -5.16296,-4.013579 -8.22466,-4.933864 -3.03096,-0.911034 -6.37466,-0.995526 -9.48572,-0.414206 -3.29967,0.61655 -6.19977,2.584349 -9.22325,4.04258 -1.93993,0.935626 -3.59867,2.61162 -5.7141,3.016278 -1.36601,0.26131 -4.14817,-0.448392 -4.14817,-0.448392 2.15158,-6.84575 3.52181,-10.084091 7.20618,-13.694009 z"
         id="path205"
         sodipodi:nodetypes="aaaaaaaacaaaaaaca" /><path
         style="fill:#ff4c4c;fill-opacity:1;stroke:#000000;stroke-width:1.5875;stroke-linecap:round;stroke-linejoin:round;stroke-dasharray:none;stroke-opacity:1"
         d="m 491.33021,-61.428376 c 0,0 4.68425,-1.456268 7.10889,-1.565617 2.57817,-0.116342 5.16919,0.383087 7.67975,0.977475 2.65925,0.62957 4.99968,2.596824 7.73051,2.720673 3.99459,0.181163 7.67866,-2.303291 11.62579,-2.939651 2.17553,-0.350755 4.40254,-0.704889 6.59453,-0.476037 2.77147,0.289344 8.0338,2.311125 8.0338,2.311125 0,0 -8.39179,9.196434 -13.68233,12.296737 -1.4801,0.867347 -3.18341,1.351685 -4.87214,1.658067 -2.54384,0.461521 -5.16939,0.324496 -7.75393,0.240627 -2.09516,-0.06806 -4.27582,0.07118 -6.25956,-0.602237 -3.1177,-1.058307 -5.71071,-3.292181 -8.36448,-5.232351 -1.04751,-0.765832 -2.11213,-1.543641 -2.9669,-2.517596 -0.72864,-0.830217 -1.16399,-1.876407 -1.79567,-2.781663 -0.97616,-1.398922 -3.07826,-4.089552 -3.07826,-4.089552 z"
         id="path206"
         sodipodi:nodetypes="caaaaacaaaaaaac" /><path
         style="fill:#ffb3b3;fill-opacity:1;stroke:none;stroke-width:1.5875;stroke-linecap:round;stroke-linejoin:round;stroke-dasharray:none;stroke-opacity:1"
         d="m 517.25001,-56.573268 c -0.41919,-0.763872 1.06942,-1.436199 1.82329,-1.873118 2.1628,-1.253491 4.7787,-2.143664 7.26317,-1.867318 0.57428,0.06388 1.5827,0.213538 1.543,0.789998 -0.12751,1.851323 -3.4681,1.338287 -5.25644,1.833774 -1.76286,0.48843 -4.49298,2.720341 -5.37302,1.116664 z"
         id="path207"
         sodipodi:nodetypes="aaaaaa" /></g></g></svg>
