<?xml version="1.0" encoding="UTF-8" standalone="no"?>
<!-- Created with Inkscape (http://www.inkscape.org/) -->

<svg
   width="741.09277"
   height="752.81171"
   viewBox="0 0 196.08079 199.18143"
   version="1.1"
   id="svg8"
   inkscape:version="1.3 (0e150ed6c4, 2023-07-21)"
   sodipodi:docname="drawing.svg"
   xml:space="preserve"
   xmlns:inkscape="http://www.inkscape.org/namespaces/inkscape"
   xmlns:sodipodi="http://sodipodi.sourceforge.net/DTD/sodipodi-0.dtd"
   xmlns="http://www.w3.org/2000/svg"
   xmlns:svg="http://www.w3.org/2000/svg"
   xmlns:rdf="http://www.w3.org/1999/02/22-rdf-syntax-ns#"
   xmlns:cc="http://creativecommons.org/ns#"
   xmlns:dc="http://purl.org/dc/elements/1.1/"><defs
     id="defs2" /><sodipodi:namedview
     id="base"
     pagecolor="#ffffff"
     bordercolor="#666666"
     borderopacity="1.0"
     inkscape:pageopacity="0.0"
     inkscape:pageshadow="2"
     inkscape:zoom="0.09558478"
     inkscape:cx="1537.9017"
     inkscape:cy="-1082.8084"
     inkscape:document-units="mm"
     inkscape:current-layer="g203"
     showgrid="false"
     units="px"
     inkscape:window-width="1916"
     inkscape:window-height="1037"
     inkscape:window-x="0"
     inkscape:window-y="0"
     inkscape:window-maximized="1"
     inkscape:showpageshadow="2"
     inkscape:pagecheckerboard="0"
     inkscape:deskcolor="#d1d1d1" /><metadata
     id="metadata5"><rdf:RDF><cc:Work
         rdf:about=""><dc:format>image/svg+xml</dc:format><dc:type
           rdf:resource="http://purl.org/dc/dcmitype/StillImage" /></cc:Work></rdf:RDF></metadata><g
     inkscape:groupmode="layer"
     id="g15"
     inkscape:label="handy_man"
     transform="translate(-671.19083,-75.986422)"
     style="display:inline"><g
       id="g1565"
       transform="translate(458.84551,28.272173)"
       inkscape:label="body normal"
       inkscape:export-filename="../../projects/endless-jam-2023/modules/remi/assets/graphics/hand_man__body_normal.svg"
       inkscape:export-xdpi="200"
       inkscape:export-ydpi="200"><path
         id="path1553"
         style="fill:#ffccff;fill-opacity:1;stroke:#1a1a1a;stroke-width:1.5875;stroke-linecap:round;stroke-linejoin:round;stroke-dasharray:none"
         inkscape:label="body"
         d="m 302.4703,48.601554 c -18.91358,-1.606911 -47.96621,18.075702 -33.50344,38.289578 5.70181,12.098763 27.70962,39.063068 6.52963,43.752018 -19.6233,-6.2547 -10.41776,-29.5843 -18.27928,-43.136686 -18.64746,-5.769258 -29.42976,16.843976 -42.53335,26.363346 -9.16876,18.59898 25.01124,27.81361 27.83975,7.42975 -0.0674,-9.99941 -0.97332,-18.01029 5.24097,-4.01088 -0.62535,19.26156 16.12239,38.84477 35.362,25.85419 19.1472,-3.04154 16.45907,25.59863 16.08576,38.48001 2.35093,17.54983 -17.4374,55.84479 -35.09937,38.15587 5.32847,-14.24298 19.74216,-32.26597 5.07418,-47.33086 -4.99978,-14.53914 -23.60148,-23.95443 -36.6409,-12.65404 -15.49661,10.40012 -6.86786,39.74813 12.88008,36.38958 28.72802,-0.63141 -13.11392,36.92838 14.92316,42.77446 17.03166,10.4835 26.77851,-17.33244 41.64205,-12.35264 7.96347,18.71728 27.64813,24.40015 45.8017,15.12405 18.49262,-6.15312 22.9541,-28.13836 18.13546,-44.92328 -6.99465,-13.30161 32.3621,6.4343 38.72409,-13.15313 5.40678,-16.64651 -16.45362,-35.53586 -32.56908,-35.01323 -17.34134,-2.6003 -30.85282,17.60514 -22.90447,32.97077 9.04951,14.88715 10.36875,37.68695 -6.39911,47.68347 -16.30884,12.03698 -39.77306,-7.56874 -20.41868,-22.48256 11.52388,-16.30676 2.65912,-35.09371 1.51555,-52.67609 6.32178,-11.97378 16.46487,-27.81519 30.21563,-31.09464 16.25437,6.73409 41.43196,27.09997 52.10608,1.03017 8.98368,-22.94242 -26.60721,-41.880176 -37.87251,-18.03578 -7.66486,19.50324 -37.12996,-17.663995 -37.31014,9.64848 10.10902,15.0291 -22.24408,24.78853 -11.33533,5.43638 7.2735,-15.68773 17.42533,-32.287289 15.5049,-50.08019 C 331.72051,56.380291 316.61791,48.617223 302.4703,48.601554 Z"
         sodipodi:nodetypes="cccccccccccccccccscccccccccccc" /><g
         id="g1557"
         transform="matrix(0.4864976,0.24953126,-0.23347323,0.4689938,210.29615,-13.713738)"
         inkscape:label="mouth closed"
         style="stroke-width:1.86851"><path
           style="fill:#ff4c4c;fill-opacity:1;stroke:#1a1a1a;stroke-width:2.96626;stroke-linecap:round;stroke-linejoin:round;stroke-dasharray:none;stroke-opacity:1"
           d="m 219.62015,142.4358 c 0,0 5.45829,-4.55186 8.72282,-4.79597 5.48823,-0.41038 10.02105,4.87925 15.45782,5.81044 3.82537,0.65518 7.83676,0.49934 11.64802,-0.23043 3.69559,-0.7076 7.00489,-2.72405 10.54828,-3.95892 2.45016,-0.85388 4.82945,-2.31454 7.40318,-2.38442 2.36052,-0.0641 6.84355,1.81669 6.84355,1.81669 1.40807,-4.03494 -14.86679,-16.36102 -26.83449,-10.899 -8.9975,4.10643 -21.42875,-4.83679 -29.31922,1.28787 -3.63252,2.8196 -4.46996,13.35374 -4.46996,13.35374 z"
           id="path1554"
           sodipodi:nodetypes="caaaaacsac" /><path
           style="fill:#ff4c4c;fill-opacity:1;stroke:#1a1a1a;stroke-width:2.96626;stroke-linecap:round;stroke-linejoin:round;stroke-dasharray:none;stroke-opacity:1"
           d="m 222.2539,131.21488 c 0,0 4.76186,-6.23156 7.69288,-8.73908 2.54113,-2.17397 5.11352,-4.86116 8.42207,-5.33449 2.05593,-0.29412 4.02446,1.03245 5.98351,1.71012 1.22038,0.42216 2.29233,1.55129 3.58355,1.46372 1.7695,-0.12 2.93456,-2.00491 4.58149,-2.64969 1.15105,-0.45064 2.3899,-0.94118 3.62342,-0.8203 2.72828,0.26736 5.19348,1.86379 7.48789,3.33351 3.05156,1.95473 8.13769,7.1585 8.13769,7.1585 l 7.99486,10.10618 c 0,0 -9.22677,-6.84679 -14.6404,-7.94736 -2.81899,-0.57309 -5.75934,0.39917 -8.60755,0.83864 -2.43495,0.37571 -4.76384,1.44579 -7.22723,1.53359 -3.48095,0.12408 -6.88259,-1.07592 -10.34657,-1.43423 -3.86567,-0.39986 -8.14421,-2.63475 -11.63311,-0.79709 -3.99548,2.10448 -7.29702,11.77329 -7.29702,11.77329 z"
           id="path1555"
           sodipodi:nodetypes="caaaaaaaccaaaaacc" /><path
           style="fill:#ffb3b3;fill-opacity:1;stroke:none;stroke-width:2.96626;stroke-linecap:round;stroke-linejoin:round;stroke-dasharray:none;stroke-opacity:1"
           d="m 242.39133,122.53801 c -1.21779,1.19344 -4.06657,0.76579 -5.07922,-0.60602 -0.55598,-0.75317 -0.27955,-2.24989 0.50349,-2.76295 1.24389,-0.81502 3.36342,-0.0994 4.34338,1.01914 0.51867,0.59203 0.7945,1.79892 0.23235,2.34983 z"
           id="path1556"
           sodipodi:nodetypes="aaaaa" /><path
           style="fill:#ffb3b3;fill-opacity:1;stroke:none;stroke-width:2.96626;stroke-linecap:round;stroke-linejoin:round;stroke-dasharray:none;stroke-opacity:1"
           d="m 233.64617,123.30242 c -0.30168,-0.11492 -0.62403,-0.43101 -0.60845,-0.75345 0.0346,-0.71632 0.81408,-1.35014 1.50681,-1.53569 0.54894,-0.14703 1.40702,-0.0601 1.64243,0.45715 0.23458,0.51545 -0.27877,1.19314 -0.73144,1.53344 -0.4886,0.36732 -1.23812,0.51616 -1.80935,0.29855 z"
           id="path1557"
           sodipodi:nodetypes="aaaaaa" /></g><g
         id="g1559"
         transform="matrix(2.0980633,0,0,2.0984834,-494.30785,-148.87412)"
         style="stroke-width:0.476582"
         inkscape:label="eye"><path
           id="circle1557"
           style="fill:#000000;fill-opacity:1;stroke:none;stroke-width:0.714874;stroke-linecap:round;stroke-linejoin:round;stroke-dasharray:none"
           d="m 378.92402,100.27594 c -3.25484,0 -8.87001,4.31036 -6.90394,6.90379 1.59426,2.10297 4.26464,-3.87594 6.90394,-3.87594 2.6393,0 5.30968,5.97891 6.90394,3.87594 1.96607,-2.59343 -3.6491,-6.90379 -6.90394,-6.90379 z"
           sodipodi:nodetypes="aaaaa" /></g><path
         style="fill:#ffe5ff;fill-opacity:1;stroke:none;stroke-width:1.5875;stroke-linecap:round;stroke-linejoin:round;stroke-dasharray:none;stroke-opacity:1"
         d="m 317.30098,204.18056 c -2.24235,-0.015 -4.63898,-1.96574 -5.33554,-4.09721 -1.93078,-5.90817 2.04038,-12.56327 5.22871,-17.8989 1.30036,-2.17614 2.98927,-6.06128 5.41851,-5.33651 3.62554,1.08168 2.55221,7.31312 2.40091,11.09356 -0.18836,4.7066 -1.3802,9.67071 -4.08327,13.52829 -0.86651,1.2366 -2.11938,2.72085 -3.62932,2.71077 z"
         id="path1559"
         sodipodi:nodetypes="aaaaaaa" /><path
         style="fill:#ffe5ff;fill-opacity:1;stroke:none;stroke-width:1.5875;stroke-linecap:round;stroke-linejoin:round;stroke-dasharray:none;stroke-opacity:1"
         d="m 269.01498,144.06096 c -2.32758,1.13915 -5.14899,-1.31438 -7.22896,-2.86003 -1.60125,-1.18991 -2.98115,-2.83777 -3.71363,-4.6934 -0.99604,-2.52333 -2.94918,-6.63794 -0.67096,-8.11069 3.75127,-2.425 8.79685,3.11606 11.724,6.49015 0.89147,1.02758 1.39828,2.45451 1.45281,3.8138 0.0746,1.85966 0.10843,4.54202 -1.56326,5.36017 z"
         id="path1560"
         sodipodi:nodetypes="aaaaaaa" /><path
         style="fill:#ffe5ff;fill-opacity:1;stroke:none;stroke-width:1.5875;stroke-linecap:round;stroke-linejoin:round;stroke-dasharray:none;stroke-opacity:1"
         d="m 264.60615,236.37001 c -1.99281,0.41721 -4.16262,-0.60003 -5.85925,-1.72556 -1.43942,-0.9549 -3.19568,-2.28546 -3.2815,-4.01068 -0.12676,-2.54836 1.68383,-6.3825 4.23533,-6.37604 1.94957,0.005 1.96729,3.38721 3.21147,4.88817 1.41575,1.70793 4.86416,2.40535 4.78803,4.62246 -0.0462,1.34671 -1.77517,2.32553 -3.09408,2.60165 z"
         id="path1561"
         sodipodi:nodetypes="aaaaaaa" /><path
         style="fill:#ffe5ff;fill-opacity:1;stroke:none;stroke-width:1.5875;stroke-linecap:round;stroke-linejoin:round;stroke-dasharray:none;stroke-opacity:1"
         d="m 337.87878,118.17256 c -0.92083,-0.24447 -1.59787,-1.20474 -1.94937,-2.09025 -0.60565,-1.52579 -0.57455,-3.37763 -0.0256,-4.92472 0.42575,-1.19988 1.18045,-2.67436 2.42282,-2.95276 1.75295,-0.39282 4.11567,0.67842 4.86958,2.30899 0.56278,1.21719 -0.53671,2.64348 -1.04148,3.88585 -0.42531,1.04681 -0.77687,2.24702 -1.65472,2.95842 -0.71084,0.57606 -1.73691,1.04924 -2.62123,0.81447 z"
         id="path1562"
         sodipodi:nodetypes="aaaaaaaa" /><path
         style="fill:#ffe5ff;fill-opacity:1;stroke:none;stroke-width:1.5875;stroke-linecap:round;stroke-linejoin:round;stroke-dasharray:none;stroke-opacity:1"
         d="m 389.41552,102.39368 c -2.17636,-0.0867 -4.45252,0.0998 -6.46856,0.92417 -2.25001,0.92006 -3.56689,5.08955 -5.87353,4.32241 -2.00636,-0.66727 -2.6181,-4.10478 -1.83956,-6.07064 1.16419,-2.939645 5.11423,-4.141361 8.22019,-4.732909 2.00583,-0.382022 4.2486,-0.05028 6.06048,0.891212 2.4282,1.261742 6.99836,3.580867 5.64583,5.959697 -0.9702,1.70639 -3.78348,-1.21581 -5.74485,-1.29394 z"
         id="path1563"
         sodipodi:nodetypes="aaaaaaaa" /><path
         style="fill:#ffe5ff;fill-opacity:1;stroke:none;stroke-width:1.5875;stroke-linecap:round;stroke-linejoin:round;stroke-dasharray:none;stroke-opacity:1"
         d="m 328.55987,81.007763 c -1.17909,0.145899 -2.51412,-0.569653 -3.22214,-1.52373 -1.89747,-2.556918 0.0703,-6.627194 -1.40646,-9.44807 -1.04592,-1.997852 -4.21435,-2.493212 -4.93155,-4.631198 -0.62388,-1.859797 -0.75081,-4.90145 0.99262,-5.800629 2.52789,-1.303767 5.58909,1.783234 7.68722,3.703621 2.1309,1.950386 3.84405,4.617317 4.43607,7.444727 0.56276,2.687657 0.3019,5.769101 -1.02349,8.174 -0.52737,0.956907 -1.44793,1.947105 -2.53227,2.081279 z"
         id="path1564"
         sodipodi:nodetypes="aaaaaaaaa" /><path
         style="fill:#ffe5ff;fill-opacity:1;stroke:none;stroke-width:1.5875;stroke-linecap:round;stroke-linejoin:round;stroke-dasharray:none;stroke-opacity:1"
         d="m 356.64382,175.82271 c 3.11196,-0.16809 6.37784,-1.58371 8.52215,-3.84523 2.31472,-2.44123 4.03782,-6.06465 3.65584,-9.40705 -0.32067,-2.80595 -2.03997,-6.28438 -4.77171,-7.00118 -4.16002,-1.09158 -9.07199,2.21585 -11.56519,5.72031 -2.46427,3.46379 -3.8685,9.06217 -1.59318,12.65291 1.07971,1.70391 3.73783,1.98904 5.75209,1.88024 z"
         id="path1565"
         sodipodi:nodetypes="aaaaaaa" /></g></g></svg>
