<?xml version="1.0" encoding="UTF-8" standalone="no"?>
<!-- Created with Inkscape (http://www.inkscape.org/) -->

<svg
   width="2456.9509"
   height="1583.9099"
   viewBox="0 0 650.06824 419.07616"
   version="1.1"
   id="svg8"
   inkscape:version="1.3 (0e150ed6c4, 2023-07-21)"
   sodipodi:docname="drawing.svg"
   xml:space="preserve"
   xmlns:inkscape="http://www.inkscape.org/namespaces/inkscape"
   xmlns:sodipodi="http://sodipodi.sourceforge.net/DTD/sodipodi-0.dtd"
   xmlns="http://www.w3.org/2000/svg"
   xmlns:svg="http://www.w3.org/2000/svg"
   xmlns:rdf="http://www.w3.org/1999/02/22-rdf-syntax-ns#"
   xmlns:cc="http://creativecommons.org/ns#"
   xmlns:dc="http://purl.org/dc/elements/1.1/"><defs
     id="defs2" /><sodipodi:namedview
     id="base"
     pagecolor="#ffffff"
     bordercolor="#666666"
     borderopacity="1.0"
     inkscape:pageopacity="0.0"
     inkscape:pageshadow="2"
     inkscape:zoom="0.27035458"
     inkscape:cx="1538.72"
     inkscape:cy="549.27865"
     inkscape:document-units="mm"
     inkscape:current-layer="layer5"
     showgrid="false"
     units="px"
     inkscape:window-width="1916"
     inkscape:window-height="1037"
     inkscape:window-x="0"
     inkscape:window-y="0"
     inkscape:window-maximized="1"
     inkscape:showpageshadow="2"
     inkscape:pagecheckerboard="0"
     inkscape:deskcolor="#d1d1d1" /><metadata
     id="metadata5"><rdf:RDF><cc:Work
         rdf:about=""><dc:format>image/svg+xml</dc:format><dc:type
           rdf:resource="http://purl.org/dc/dcmitype/StillImage" /></cc:Work></rdf:RDF></metadata><g
     inkscape:groupmode="layer"
     id="layer5"
     inkscape:label="overlay"
     transform="translate(22.566098,36.03503)"><g
       id="g23"
       inkscape:export-filename="../../projects/endless-jam-2023/modules/remi/assets/graphics/overlay.svg"
       inkscape:export-xdpi="200"
       inkscape:export-ydpi="200"><path
         id="path1"
         style="fill:#000000;fill-opacity:1;stroke-width:1;stroke-linecap:round;stroke-linejoin:round"
         d="m 512.79001,-35.638238 c -60.59026,8.951309 -142.3447,33.6342009 -202.33513,10.441833 -64.0856,11.302014 -128.30295,11.419209 -192.78666,15.1983164 C 69.503856,-9.7353712 -43.908687,-46.713474 -14.58617,40.63013 c 5.5758825,57.22225 -5.796385,122.59217 -7.979929,180.99641 11.087582,56.06222 -5.736926,102.92216 38.949509,150.83805 37.275321,31.6584 105.41822,-19.36076 152.68763,-3.75811 62.20626,-16.60904 134.47616,25.07434 187.2986,6.53981 48.14721,-36.529 155.83718,6.71434 218.28423,-18.85989 C 654.37818,343.28811 599.77974,299.83094 613.79857,249 603.72179,181.64376 642.50055,75.834048 620.7874,11.463499 616.39942,-45.142236 564.51249,-35.154441 512.79001,-35.638238 Z m -7.22975,48.137196 c 71.16256,1.620154 96.44127,81.94355 84.71602,141.294922 -9.97901,50.51216 25.78546,115.12527 -25.58951,167.57531 -54.93361,10.50197 -154.35046,1.47136 -210.5456,5.97683 -91.09306,-15.92372 -193.746,1.73218 -284.781131,0.87923 C -6.0457555,327.51873 19.534584,281.16997 15.541113,232.83023 10.738723,174.69878 23.952316,88.116843 28.945779,30.157869 74.062928,-23.69361 150.31726,50.278938 197.75205,22.292034 255.67743,-11.884401 298.72896,53.121609 377.21378,16.821908 404.07647,4.3977564 471.63392,8.7276391 505.56026,12.498958 Z"
         sodipodi:nodetypes="cccccccccccccsccsscssc" /><path
         id="path43"
         style="fill:#1a1a1a;fill-opacity:1;stroke:#1a1a1a;stroke-width:1;stroke-linecap:round;stroke-linejoin:round"
         d="m 406.4377,6.9221385 c -22.6854,0.1533219 -53.76756,4.5548845 -22.32772,13.2713525 21.85785,6.059927 53.30452,-8.684376 66.46045,-12.4735488 5.88062,-1.6937354 -11.28828,-9.6955414 -17.61443,-9.687264 -1.75404,0.0023 -24.17153,8.8735994 -26.5183,8.8894603 z M 67.194865,3.826123 C 50.264175,4.5676925 48.700052,26.862979 72.968673,18.426782 84.134463,26.69456 142.29935,31.488499 110.98392,15.210958 99.134872,18.828035 88.692209,2.1518266 75.361292,4.9805745 72.345939,4.0543428 69.613535,3.7201846 67.194865,3.826123 Z m 461.373245,7.670786 c -15.54294,5.71744 20.79609,6.397025 31.35353,25.414134 13.56644,24.43724 47.67542,54.818132 26.57745,7.1358 -8.16571,-18.454852 -37.573,-40.0385746 -57.93098,-32.549934 z M 242.46322,8.7043241 c -3.32659,-0.02533 -6.70513,0.199326 -10.14615,0.732772 -41.26835,-4.818065 -20.9625,4.8464139 -44.70083,9.9895499 -32.06834,6.947911 -86.64439,-16.4278398 -39.21649,8.179756 24.05503,2.936645 35.19951,18.882092 62.45261,-1.647782 29.21534,-4.007033 25.24895,-16.7427989 60.62702,1.103499 29.31389,14.787255 44.60381,12.531119 70.83517,5.476199 19.57551,-5.264831 13.85887,-28.799401 -6.76553,-14.900699 -26.77564,18.044005 -60.92875,-8.6884489 -93.0858,-8.9332949 z M 41.594591,3.3159712 C 11.342281,8.9681441 11.131436,96.110311 8.800594,127.74828 c -20.358415,21.8163 -24.594905,51.53504 3.480408,69.46863 -6.427425,32.12342 -3.523204,68.56973 -7.695138,100.50498 -15.727642,33.60273 50.923927,60.56815 68.903808,33.7721 C 46.423703,322.68572 0.89813998,308.12569 23.786759,272.17978 31.948628,228.74744 16.098716,185.69343 28.969389,144.01396 36.040048,111.59746 15.509004,74.222403 30.007545,45.809471 34.128807,16.8527 84.733891,6.1898692 67.192512,9.2355062 59.044049,5.8132992 50.144008,5.1846402 41.594591,3.3159712 Z M 587.8415,67.897461 c -22.99901,12.160377 15.86397,66.655659 -0.8078,90.486939 -10.09808,14.43459 0.91342,72.03707 10.75781,29.66438 -0.56146,-25.43971 1.24173,-50.08062 7.55145,-67.307 4.229,-11.54573 -7.26998,-58.254057 -17.50146,-52.844319 z m 5.87707,172.123079 c -17.65471,28.1684 -11.72314,82.03699 -58.39695,85.11367 18.38977,23.09952 59.82128,-1.63667 59.02482,-32.42231 8.19748,-15.73836 12.17661,-38.06732 -0.62787,-52.69136 z m 4.01061,49.92409 1.94716,0.0289 z m -323.37917,23.99431 c -16.82521,8.16253 -82.00022,-4.70429 -51.51624,25.39379 24.14476,-1.51742 49.67111,-11.07571 77.35239,-2.45566 22.79698,-1.7359 64.89374,12.54272 75.88167,-8.28993 -23.51589,-13.94819 -52.22584,1.66683 -75.84033,-13.63121 -8.62104,-0.34904 -17.35619,0.84461 -25.87749,-1.01699 z m 196.18664,10.81635 c -17.35328,0.51613 -34.64002,11.82428 -7.45949,13.72896 16.65534,6.22618 68.41346,5.74813 30.81259,-8.56958 -4.58774,-1.28098 -9.30805,-1.99962 -13.88287,-3.32952 -3.00977,-1.39043 -6.25666,-1.92544 -9.47023,-1.82986 z"
         sodipodi:nodetypes="sssssscccsssssscsccssssccccccccccsscsscccccccccccccscccs" /></g></g></svg>
