<?xml version="1.0" encoding="UTF-8" standalone="no"?>
<!-- Created with Inkscape (http://www.inkscape.org/) -->

<svg
   width="254.99704"
   height="254.99704"
   viewBox="0 0 67.467965 67.467965"
   version="1.1"
   id="svg8"
   inkscape:version="1.3 (0e150ed6c4, 2023-07-21)"
   sodipodi:docname="planet_1.svg"
   xml:space="preserve"
   xmlns:inkscape="http://www.inkscape.org/namespaces/inkscape"
   xmlns:sodipodi="http://sodipodi.sourceforge.net/DTD/sodipodi-0.dtd"
   xmlns="http://www.w3.org/2000/svg"
   xmlns:svg="http://www.w3.org/2000/svg"
   xmlns:rdf="http://www.w3.org/1999/02/22-rdf-syntax-ns#"
   xmlns:cc="http://creativecommons.org/ns#"
   xmlns:dc="http://purl.org/dc/elements/1.1/"><defs
     id="defs2" /><sodipodi:namedview
     id="base"
     pagecolor="#ffffff"
     bordercolor="#666666"
     borderopacity="1.0"
     inkscape:pageopacity="0.0"
     inkscape:pageshadow="2"
     inkscape:zoom="0.15495974"
     inkscape:cx="1587.5091"
     inkscape:cy="-622.74238"
     inkscape:document-units="mm"
     inkscape:current-layer="g10"
     showgrid="false"
     units="px"
     inkscape:window-width="1916"
     inkscape:window-height="1037"
     inkscape:window-x="0"
     inkscape:window-y="0"
     inkscape:window-maximized="1"
     inkscape:showpageshadow="2"
     inkscape:pagecheckerboard="0"
     inkscape:deskcolor="#d1d1d1" /><metadata
     id="metadata5"><rdf:RDF><cc:Work
         rdf:about=""><dc:format>image/svg+xml</dc:format><dc:type
           rdf:resource="http://purl.org/dc/dcmitype/StillImage" /></cc:Work></rdf:RDF></metadata><g
     inkscape:groupmode="layer"
     id="g10"
     inkscape:label="back"
     transform="translate(-262.49536,-36.398147)"
     style="display:inline"><g
       id="g118"
       transform="matrix(4.9084951,0,0,4.9084951,-1638.6532,426.59189)"
       style="stroke-width:0.203728"><circle
         style="fill:#5fd4c5;fill-opacity:1;stroke:#000000;stroke-width:0.323419;stroke-linecap:round;stroke-linejoin:round;stroke-dasharray:none;stroke-opacity:1"
         id="path61"
         cx="394.19058"
         cy="-72.620987"
         r="6.7108622" /><path
         id="path102"
         style="display:inline;fill:#2d958d;fill-opacity:1;stroke:#000000;stroke-width:0.323419;stroke-linecap:round;stroke-linejoin:round;stroke-dasharray:none;stroke-opacity:1"
         d="m 391.57718,-78.879572 c -2.18852,0.298698 -0.0102,3.055068 0.6625,0.671793 0.0688,-0.384867 -0.30712,-0.675204 -0.6625,-0.671793 z m 5.76554,0.277502 c -1.9178,0.433211 1.08657,2.86519 0.7705,0.714169 -0.10588,-0.346358 -0.38634,-0.685258 -0.7705,-0.714169 z m -2.93677,0.185519 c -0.0232,-3.61e-4 -0.0466,1.24e-4 -0.0703,0.0015 -1.85322,0.214072 -0.14855,3.313412 0.90537,1.494482 0.35631,-0.632314 -0.11608,-1.484865 -0.83509,-1.496032 z m -5.21208,2.357995 c -0.0279,-8.41e-4 -0.0569,4.9e-4 -0.0868,0.0041 -1.66821,0.18138 0.0135,2.84031 0.58394,0.871782 0.11199,-0.36634 -0.0783,-0.863294 -0.49712,-0.875916 z m 10.41745,0.04961 c -2.00895,0.169591 0.34303,3.370191 0.82165,1.059366 0.0605,-0.493241 -0.27574,-1.06728 -0.82165,-1.059366 z m -2.49649,0.462504 c -2.08899,0.141737 -0.1166,3.675262 0.86041,1.420068 0.23467,-0.605635 -0.13161,-1.449681 -0.86041,-1.420068 z m -5.87509,0.214457 c -1.86253,0.03743 0.22673,3.088274 0.6475,0.830957 0.0353,-0.359577 -0.16931,-0.770684 -0.55604,-0.83044 -0.0316,-9.58e-4 -0.0619,-0.0011 -0.0915,-5.17e-4 z m 3.09852,2.080493 c -0.041,0.0013 -0.0834,0.0062 -0.12713,0.01447 -1.9357,0.127081 -0.20165,3.271911 0.7736,1.218531 0.27259,-0.516859 -0.0311,-1.252521 -0.64647,-1.233001 z m 4.9537,0.03721 c -0.0422,-2.93e-4 -0.0848,0.0033 -0.12713,0.01137 -1.76583,0.459153 0.78087,2.735893 0.85215,0.790133 0.0636,-0.423291 -0.31731,-0.798669 -0.72502,-0.801503 z m -7.31325,0.470772 c -0.0569,0.0014 -0.11625,0.0102 -0.17777,0.02687 -1.85053,0.184535 0.19354,3.159622 0.87333,1.118795 0.17705,-0.500843 -0.1452,-1.159065 -0.69556,-1.145667 z m -3.35845,0.534851 c -1.81317,0.256232 0.0931,3.606209 0.70331,1.481564 0.11589,-0.553357 0.0349,-1.457939 -0.70331,-1.481564 z m 10.91458,1.265556 c -1.45862,0.494168 1.31667,1.910994 0.53692,0.368453 l -0.23255,-0.236678 z m -3.36879,0.451136 c -0.0572,0.0016 -0.11682,0.0083 -0.17828,0.02067 -1.8587,0.10762 -0.47461,3.321047 0.83767,1.701188 0.56417,-0.616494 0.1988,-1.746035 -0.65939,-1.721858 z m -4.96714,0.819071 c -1.7919,0.565382 1.36774,2.690924 0.75241,0.546737 -0.14359,-0.286752 -0.42517,-0.516734 -0.75241,-0.546737 z m 2.29495,1.975073 c -1.85214,1.024514 2.05463,2.525517 1.10071,0.36742 -0.3109,-0.254868 -0.74054,-0.228942 -1.10071,-0.36742 z" /><path
         id="path104"
         style="fill:#0d736b;fill-opacity:1;stroke:none;stroke-width:0.323419;stroke-linecap:round;stroke-linejoin:round;stroke-dasharray:none"
         d="m 391.51569,-78.828413 c -0.65556,-0.114692 -1.05927,0.892507 -0.43785,1.276422 0.55259,0.342953 0.11631,-0.423763 0.0604,-0.649046 -0.0492,-0.49921 1.06714,-0.196702 0.44592,-0.626336 l -0.0677,-0.001 z m 5.90093,0.361219 c -0.56684,0.01549 -0.63449,1.066161 -0.0836,1.179292 0.44138,-0.04605 -0.40282,-0.625141 -0.004,-0.887751 0.40856,0.241871 0.62582,-0.291549 0.088,-0.291541 z m -3.35328,0.365352 c -0.49871,0.04735 -0.80522,0.766646 -0.39111,1.125508 0.28567,0.456186 1.04142,0.381683 0.4754,-0.182357 -0.42221,-0.17635 -0.46231,-0.708243 0.0207,-0.701299 0.0928,-0.08455 0.0168,-0.251738 -0.10496,-0.241852 z m 5.43842,2.315104 c -0.59679,0.135453 -0.46286,0.839047 -0.29224,1.228833 0.15977,0.469108 0.91102,0.37929 0.44854,-0.05117 -0.0914,-0.454559 -0.58172,0.06916 -0.21559,-0.283313 -0.24387,-0.340209 0.022,-0.604842 0.20916,-0.824193 l -0.0511,-0.05422 -0.0987,-0.01602 z m -10.65723,0.07596 c -0.47594,0.210343 -0.40108,1.017788 0.13729,1.113117 0.5318,-0.04522 -0.38944,-0.547407 -0.10508,-0.866128 0.16338,0.003 0.11442,-0.267735 -0.0322,-0.246989 z m 2.31666,0.242362 c -0.62094,0.197189 -0.53306,1.070247 -0.29141,1.537335 0.34486,0.342046 0.42656,-0.03415 0.21464,-0.262884 -0.093,-0.437225 -0.16058,-0.677364 0.2102,-0.993335 0.10062,-0.138607 0.1076,-0.321119 -0.13343,-0.281116 z m 5.91902,0.06253 c -0.4689,0.0864 -0.76445,0.660025 -0.52285,1.130741 -0.0765,0.3188 0.63417,0.940642 0.63557,0.476475 -0.35476,-0.314538 -0.48723,-0.660375 -0.37145,-1.128096 0.12622,-0.33008 0.89705,0.09831 0.59944,-0.390665 -0.14194,-0.09065 -0.23295,-0.0041 -0.34071,-0.08845 z m 2.16111,2.332674 c -0.52907,0.05858 -0.59773,0.958232 -0.19163,1.216029 0.38414,0.322749 0.64037,-0.07577 0.21925,-0.308076 -0.37588,-0.02913 -0.16829,-0.687942 0.0237,-0.632477 0.30799,0.04881 0.33987,-0.281078 -0.0513,-0.275476 z m 0.0429,0.275952 -0.031,5.17e-4 z m -5.09427,-0.221692 c -0.64376,0.151793 -0.61522,1.009579 -0.20696,1.388547 0.59546,0.431183 0.21999,-0.372344 -0.009,-0.586546 -0.34193,-0.415 0.85673,-0.652888 0.21598,-0.802001 z m -2.55074,0.287321 c -0.55729,0.24718 -0.66819,1.087381 -0.17806,1.477516 0.22918,0.363249 0.79785,0.348119 0.45124,-0.128238 -0.0955,-0.382945 -0.72539,-0.623951 -0.21976,-0.922703 0.0554,-0.112776 0.14928,-0.404848 -0.0534,-0.426575 z m -2.92799,0.711068 c -0.51714,0.138914 -0.46698,0.876228 -0.41829,1.302459 0.0387,0.399277 0.57319,0.569206 0.37959,0.04061 -0.31564,-0.430905 0.0227,-0.935944 0.20044,-1.251079 -0.0299,-0.05585 -0.09,-0.11787 -0.16174,-0.09199 z m 10.73784,1.225765 c -0.21913,-0.07661 -0.63243,0.663083 -0.0299,0.816963 0.49271,0.357042 0.70278,-0.135652 0.16053,-0.351398 -0.57641,-0.178091 0.29544,-0.247524 -0.13066,-0.465565 z m -3.73724,0.710034 c -0.48859,0.179707 -0.33826,0.947117 0.0685,1.108907 0.0873,0.544714 0.92135,0.280555 0.99515,-0.147426 -0.29025,-0.270878 -0.73888,0.483303 -0.91608,-0.109933 -0.1239,-0.325835 -0.19362,-0.539967 -0.008,-0.766093 0.0888,-0.05194 -0.19867,-0.09019 -0.1398,-0.08546 z m -4.7134,0.620634 c -0.34386,0.341586 0.26357,1.119346 0.71699,1.05937 0.10405,-0.250058 -0.35186,-0.497799 -0.54016,-0.882674 -0.0724,-0.0535 -0.052,-0.189066 -0.17683,-0.176696 z m 2.38797,2.02985 c -0.48463,0.330297 0.0256,0.920339 0.40463,1.110007 0.2707,0.275206 0.94276,-0.18612 0.37413,-0.243413 -0.2412,0.147736 -0.52356,-0.27892 -0.68327,-0.480096 -0.003,-0.104431 0.0796,-0.373228 -0.0955,-0.386498 z" /></g></g></svg>
