<?xml version="1.0" encoding="UTF-8" standalone="no"?>
<!-- Created with Inkscape (http://www.inkscape.org/) -->

<svg
   width="303.17566"
   height="255.02797"
   viewBox="0 0 80.215224 67.476148"
   version="1.1"
   id="svg8"
   inkscape:version="1.3 (0e150ed6c4, 2023-07-21)"
   sodipodi:docname="planet_2.svg"
   xml:space="preserve"
   xmlns:inkscape="http://www.inkscape.org/namespaces/inkscape"
   xmlns:sodipodi="http://sodipodi.sourceforge.net/DTD/sodipodi-0.dtd"
   xmlns="http://www.w3.org/2000/svg"
   xmlns:svg="http://www.w3.org/2000/svg"
   xmlns:rdf="http://www.w3.org/1999/02/22-rdf-syntax-ns#"
   xmlns:cc="http://creativecommons.org/ns#"
   xmlns:dc="http://purl.org/dc/elements/1.1/"><defs
     id="defs2" /><sodipodi:namedview
     id="base"
     pagecolor="#ffffff"
     bordercolor="#666666"
     borderopacity="1.0"
     inkscape:pageopacity="0.0"
     inkscape:pageshadow="2"
     inkscape:zoom="0.15495974"
     inkscape:cx="1503.6163"
     inkscape:cy="-487.22331"
     inkscape:document-units="mm"
     inkscape:current-layer="g10"
     showgrid="false"
     units="px"
     inkscape:window-width="1916"
     inkscape:window-height="1037"
     inkscape:window-x="0"
     inkscape:window-y="0"
     inkscape:window-maximized="1"
     inkscape:showpageshadow="2"
     inkscape:pagecheckerboard="0"
     inkscape:deskcolor="#d1d1d1" /><metadata
     id="metadata5"><rdf:RDF><cc:Work
         rdf:about=""><dc:format>image/svg+xml</dc:format><dc:type
           rdf:resource="http://purl.org/dc/dcmitype/StillImage" /></cc:Work></rdf:RDF></metadata><g
     inkscape:groupmode="layer"
     id="g10"
     inkscape:label="back"
     transform="translate(-285.50554,0.21188109)"
     style="display:inline"><g
       id="g119"
       transform="matrix(2.1872364,4.3942373,-4.3942373,2.1872364,-855.43602,-1539.8015)"
       style="stroke-width:0.203728"><circle
         style="fill:#819393;fill-opacity:1;stroke:#000000;stroke-width:0.323419;stroke-linecap:round;stroke-linejoin:round;stroke-dasharray:none;stroke-opacity:1"
         id="circle118"
         cx="394.19058"
         cy="-72.620987"
         r="6.7108622" /><path
         id="path127"
         style="fill:#f5ccf5;fill-opacity:1;stroke:#000000;stroke-width:0.323419;stroke-linecap:round;stroke-linejoin:round;stroke-dasharray:none;stroke-opacity:1"
         d="m 392.50047,-79.685995 c -1.58861,0.49575 0.17816,1.708756 0.73801,1.640046 0.41143,1.939618 -2.72758,1.672821 -3.97346,1.85113 -1.78251,0.102491 -1.24238,2.033782 0.33732,1.298308 1.40471,0.357355 4.30391,-1.791565 4.37352,0.556087 -0.21888,0.95755 0.91905,1.709146 -0.50281,1.537819 -1.72921,0.384811 -0.47315,5.081468 -1.86156,2.483861 -0.47405,-1.418787 1.45783,-3.795517 -0.88077,-4.188969 -1.10712,-0.552831 -3.91424,1.465656 -1.78722,1.762801 2.80853,-0.781162 0.49514,3.136537 2.39795,4.018206 0.94754,1.858789 3.20507,0.876724 4.50839,1.355896 -0.55018,0.28277 -2.60544,0.720792 -1.0827,1.472966 1.5383,-0.172167 2.85543,-1.350911 3.79891,-2.530605 0.36169,-1.761083 0.34369,-3.599784 -0.15834,-5.315882 0.42215,-0.834243 2.49587,-0.498386 1.72059,-2.16518 -0.46575,-1.801274 -2.32143,-0.711692 -1.87177,0.323103 -1.18191,-1.008287 -3.48628,-1.083818 -3.90419,-2.910033 -0.39223,-0.663132 -1.15395,-0.965233 -1.85187,-1.189554 z" /><path
         id="path128"
         style="fill:#ffa2ff;fill-opacity:1;stroke:#000000;stroke-width:0.323419;stroke-linecap:round;stroke-linejoin:round;stroke-dasharray:none;stroke-opacity:1"
         d="m 399.43839,-78.629896 c -0.46019,0.01857 -0.90042,0.1787 -0.87519,0.528188 0.0245,0.338944 0.77828,-0.135635 1.01353,0.109596 0.28426,0.296319 0.16081,0.826262 0.0815,1.229139 -0.16368,0.830898 -0.64274,1.580194 -1.11681,2.281935 -0.52181,0.772409 -1.22895,1.40256 -1.87134,2.078009 -0.67024,0.704728 -1.32538,1.430138 -2.06748,2.058742 -1.03603,0.877574 -2.03594,1.904172 -3.30968,2.37437 -0.96024,0.354471 -2.22545,0.85363 -3.05963,0.260462 -0.36305,-0.258158 0.11344,-1.335864 -0.33016,-1.294939 -0.68812,0.06348 -0.55751,1.521099 -0.13592,2.068639 0.49835,0.64724 1.58988,0.519748 2.40522,0.469757 1.29611,-0.07947 2.57031,-0.574234 3.70353,-1.208293 1.55322,-0.869062 2.86442,-2.14756 4.06695,-3.459698 0.91763,-1.001261 1.80889,-2.08008 2.36005,-3.32136 0.39091,-0.880377 0.77645,-1.870134 0.62483,-2.821388 -0.0758,-0.475777 -0.29053,-1.059835 -0.73569,-1.244089 -0.19426,-0.0804 -0.47758,-0.120214 -0.7537,-0.10907 z" /></g></g></svg>
