<?xml version="1.0" encoding="UTF-8" standalone="no"?>
<!-- Created with Inkscape (http://www.inkscape.org/) -->

<svg
   width="242.24617"
   height="246.24529"
   viewBox="0 0 64.094297 65.152396"
   version="1.1"
   id="svg8"
   inkscape:version="1.3 (0e150ed6c4, 2023-07-21)"
   sodipodi:docname="planet_3.svg"
   xml:space="preserve"
   xmlns:inkscape="http://www.inkscape.org/namespaces/inkscape"
   xmlns:sodipodi="http://sodipodi.sourceforge.net/DTD/sodipodi-0.dtd"
   xmlns="http://www.w3.org/2000/svg"
   xmlns:svg="http://www.w3.org/2000/svg"
   xmlns:rdf="http://www.w3.org/1999/02/22-rdf-syntax-ns#"
   xmlns:cc="http://creativecommons.org/ns#"
   xmlns:dc="http://purl.org/dc/elements/1.1/"><defs
     id="defs2" /><sodipodi:namedview
     id="base"
     pagecolor="#ffffff"
     bordercolor="#666666"
     borderopacity="1.0"
     inkscape:pageopacity="0.0"
     inkscape:pageshadow="2"
     inkscape:zoom="0.15495974"
     inkscape:cx="1426.1768"
     inkscape:cy="-461.41016"
     inkscape:document-units="mm"
     inkscape:current-layer="g10"
     showgrid="false"
     units="px"
     inkscape:window-width="1916"
     inkscape:window-height="1037"
     inkscape:window-x="0"
     inkscape:window-y="0"
     inkscape:window-maximized="1"
     inkscape:showpageshadow="2"
     inkscape:pagecheckerboard="0"
     inkscape:deskcolor="#d1d1d1" /><metadata
     id="metadata5"><rdf:RDF><cc:Work
         rdf:about=""><dc:format>image/svg+xml</dc:format><dc:type
           rdf:resource="http://purl.org/dc/dcmitype/StillImage" /></cc:Work></rdf:RDF></metadata><g
     inkscape:groupmode="layer"
     id="g10"
     inkscape:label="back"
     transform="translate(-306.71131,7.0745311)"
     style="display:inline"><g
       id="g45"
       inkscape:label="planet"
       transform="matrix(4.2307609,0,0,4.2307609,-1386.3569,-47.144457)"
       style="stroke:#1a1a1a;stroke-width:0.375228;stroke-dasharray:none"><path
         style="fill:#c16cfa;fill-opacity:1;stroke:#1a1a1a;stroke-width:0.375228;stroke-linecap:round;stroke-linejoin:round;stroke-dasharray:none"
         d="m 404.65684,24.145546 c -1.71074,-0.815945 -3.1239,-2.461699 -3.79513,-4.234228 -0.56506,-1.492146 -0.43291,-3.260352 0.0324,-4.786548 0.47716,-1.565055 1.32835,-3.216994 2.71086,-4.092056 1.6739,-1.059493 3.94107,-1.240346 5.88251,-0.846294 1.26129,0.256002 2.45077,1.033541 3.30489,1.996281 1.01763,1.14705 1.75111,2.666054 1.89235,4.192927 0.17457,1.88712 -0.24695,3.981144 -1.34853,5.523288 -0.89331,1.250572 -2.39707,2.092078 -3.88234,2.486929 -1.54727,0.411332 -3.35195,0.448927 -4.79701,-0.240299 z"
         id="path38"
         sodipodi:nodetypes="aaaaaaaaaa" /><path
         style="fill:#dfa587;fill-opacity:1;stroke:#1a1a1a;stroke-width:0.375228;stroke-linecap:round;stroke-linejoin:round;stroke-dasharray:none"
         d="m 403.52495,23.419434 c 0.45661,-0.432069 -0.36349,-1.522598 -0.009,-2.143074 0.3737,-0.654974 1.28029,-0.800894 1.95257,-1.142474 0.56374,-0.286433 1.2931,-0.309379 1.73919,-0.757552 0.28065,-0.281962 0.25147,-0.764955 0.47149,-1.096399 0.26501,-0.399215 0.89163,-0.568495 0.99652,-1.036045 0.17686,-0.788396 -0.28721,-1.651794 -0.77306,-2.297396 -0.39857,-0.52963 -0.98932,-0.983259 -1.63544,-1.131215 -0.66393,-0.152034 -1.46522,-0.08144 -2.01888,0.315264 -0.58153,0.416676 -0.46023,1.426636 -0.99536,1.901431 -0.33377,0.296134 -0.81502,0.382185 -1.25142,0.475194 -0.47602,0.101453 -1.45776,0.08328 -1.45776,0.08328 0,0 -0.19474,0.758918 -0.17389,1.1441 0.0682,1.260492 0.31937,2.578882 0.96986,3.660714 0.51169,0.851004 1.36034,1.545699 2.18565,2.024172 z"
         id="path40"
         sodipodi:nodetypes="caaaaaaaaaacaac" /><path
         style="fill:#dfa587;fill-opacity:1;stroke:#1a1a1a;stroke-width:0.375228;stroke-linecap:round;stroke-linejoin:round;stroke-dasharray:none"
         d="m 408.70458,12.018052 c -0.40124,0.07335 -0.82362,-0.120673 -1.18261,-0.31432 -0.34954,-0.188551 -0.51479,-0.658863 -0.88818,-0.794187 -0.67419,-0.244341 -1.46506,-0.138633 -2.15006,0.07355 -0.37528,0.116247 -0.62662,0.494605 -0.99446,0.632621 -0.2105,0.07898 -0.66678,0.101688 -0.66678,0.101688 0,0 0.17773,-0.427049 0.34105,-0.581321 0.43429,-0.410237 1.03467,-0.610104 1.59494,-0.817473 0.87931,-0.3254566 1.79933,-0.6002696 2.73529,-0.6559076 0.6408,-0.03809 1.91273,0.224042 1.91273,0.224042 0,0 -0.32645,0.4777356 -0.38815,0.7534266 -0.0819,0.366083 0.20534,0.788071 0.0398,1.124712 -0.064,0.130079 -0.21098,0.227102 -0.35357,0.253169 z"
         id="path41"
         sodipodi:nodetypes="aaaaacaaacaaa" /><path
         style="fill:#dfa587;fill-opacity:1;stroke:#1a1a1a;stroke-width:0.375228;stroke-linecap:round;stroke-linejoin:round;stroke-dasharray:none"
         d="m 411.79112,22.968558 c -0.25573,-0.22261 -0.3271,-0.641703 -0.28088,-0.977583 0.12386,-0.900107 1.16584,-1.45047 1.43234,-2.319096 0.29014,-0.945677 0.40677,-2.016751 0.12489,-2.964924 -0.24341,-0.818792 -0.72757,-1.698516 -1.48902,-2.085631 -0.34411,-0.174943 -0.9075,0.305387 -1.15803,0.0117 -0.36675,-0.429919 0.0379,-1.16265 0.28408,-1.671318 0.30889,-0.638317 1.42349,-1.580964 1.42349,-1.580964 0,0 2.39973,2.326091 2.81379,3.864922 0.45937,1.707225 0.0637,3.616833 -0.54846,5.27541 -0.35976,0.974698 -1.76914,2.566186 -1.76914,2.566186 0,0 -0.6215,0.06546 -0.83306,-0.118702 z"
         id="path42"
         sodipodi:nodetypes="aaaaaaacaaca" /><path
         style="fill:#dfa587;fill-opacity:1;stroke:#1a1a1a;stroke-width:0.375228;stroke-linecap:round;stroke-linejoin:round;stroke-dasharray:none"
         d="m 409.58402,23.125681 c -0.15825,-0.236552 -0.20094,-0.551932 -0.17611,-0.835451 0.0393,-0.448337 0.17469,-0.945699 0.50385,-1.25262 0.21545,-0.200892 0.62822,-0.475527 0.84092,-0.271724 0.20243,0.193968 -0.19005,0.532376 -0.22421,0.810649 -0.0478,0.389662 0.16876,0.810091 0.0301,1.177374 -0.10198,0.270128 -0.58889,0.635246 -0.58889,0.635246 0,0 -0.29909,-0.134071 -0.38566,-0.263474 z"
         id="path43"
         sodipodi:nodetypes="aaaaaaca" /><path
         style="fill:#dfa587;fill-opacity:1;stroke:#1a1a1a;stroke-width:0.375228;stroke-linecap:round;stroke-linejoin:round;stroke-dasharray:none"
         d="m 405.92837,12.536815 c -0.23232,0.112942 -0.63467,-9.8e-5 -0.73784,-0.236916 -0.0726,-0.166688 0.0803,-0.392955 0.23154,-0.493876 0.21935,-0.146368 0.63493,-0.24823 0.79031,-0.03517 0.16045,0.220016 -0.0391,0.646902 -0.28401,0.765962 z"
         id="path44"
         sodipodi:nodetypes="aaaaa" /><path
         style="fill:#dfa587;fill-opacity:1;stroke:#1a1a1a;stroke-width:0.375228;stroke-linecap:round;stroke-linejoin:round;stroke-dasharray:none"
         d="m 410.94087,11.447482 c -0.29036,-0.04735 -0.69204,-0.198269 -0.73446,-0.489383 -0.0262,-0.179959 0.17176,-0.377922 0.3488,-0.419518 0.29104,-0.06838 0.6481,0.117921 0.82054,0.362153 0.0811,0.114825 0.11253,0.305789 0.0313,0.420513 -0.093,0.131405 -0.30731,0.15215 -0.4662,0.126235 z"
         id="path45"
         sodipodi:nodetypes="aaaaaa" /></g></g></svg>
