<?xml version="1.0" encoding="UTF-8" standalone="no"?>
<!-- Created with Inkscape (http://www.inkscape.org/) -->

<svg
   width="253.27556"
   height="262.28906"
   viewBox="0 0 67.01249 69.397313"
   version="1.1"
   id="svg8"
   inkscape:version="1.3 (0e150ed6c4, 2023-07-21)"
   sodipodi:docname="planet_0.svg"
   xml:space="preserve"
   xmlns:inkscape="http://www.inkscape.org/namespaces/inkscape"
   xmlns:sodipodi="http://sodipodi.sourceforge.net/DTD/sodipodi-0.dtd"
   xmlns="http://www.w3.org/2000/svg"
   xmlns:svg="http://www.w3.org/2000/svg"
   xmlns:rdf="http://www.w3.org/1999/02/22-rdf-syntax-ns#"
   xmlns:cc="http://creativecommons.org/ns#"
   xmlns:dc="http://purl.org/dc/elements/1.1/"><defs
     id="defs2" /><sodipodi:namedview
     id="base"
     pagecolor="#ffffff"
     bordercolor="#666666"
     borderopacity="1.0"
     inkscape:pageopacity="0.0"
     inkscape:pageshadow="2"
     inkscape:zoom="0.43829234"
     inkscape:cx="45.631643"
     inkscape:cy="-320.5623"
     inkscape:document-units="mm"
     inkscape:current-layer="g10"
     showgrid="false"
     units="px"
     inkscape:window-width="1916"
     inkscape:window-height="1037"
     inkscape:window-x="0"
     inkscape:window-y="0"
     inkscape:window-maximized="1"
     inkscape:showpageshadow="2"
     inkscape:pagecheckerboard="0"
     inkscape:deskcolor="#d1d1d1" /><metadata
     id="metadata5"><rdf:RDF><cc:Work
         rdf:about=""><dc:format>image/svg+xml</dc:format><dc:type
           rdf:resource="http://purl.org/dc/dcmitype/StillImage" /></cc:Work></rdf:RDF></metadata><g
     inkscape:groupmode="layer"
     id="g10"
     inkscape:label="back"
     transform="translate(-249.52453,-56.96632)"
     style="display:inline"><g
       id="g60"
       transform="matrix(4.3468141,0,0,4.3343498,-1484.5692,504.85264)"
       style="stroke:#000000;stroke-width:0.365735;stroke-dasharray:none"><circle
         style="fill:#7dcdd3;fill-opacity:1;stroke:#000000;stroke-width:0.365735;stroke-linecap:round;stroke-linejoin:round;stroke-dasharray:none"
         id="path46"
         cx="406.54861"
         cy="-95.291534"
         r="7.4313345" /><path
         id="path60"
         style="fill:#cdd167;fill-opacity:1;stroke:#000000;stroke-width:0.365735;stroke-linecap:round;stroke-linejoin:round;stroke-dasharray:none"
         d="m 406.00008,-103.09877 c -1.22195,0.26079 -3.05798,0.91872 -3.05771,2.16819 1.9e-4,0.87497 1.28779,1.327402 2.14189,1.517386 0.99518,0.221367 2.00396,-0.709426 3.00986,-0.543389 1.07476,0.1774 1.94891,2.182239 2.85876,1.583276 0.68701,-0.452263 0.14545,-1.731323 -0.2448,-2.455353 -0.44371,-0.8232 -1.33238,-1.36988 -2.17893,-1.76724 -0.77807,-0.36522 -1.68847,-0.68227 -2.52907,-0.50287 z m -2.51818,5.720583 c -0.79009,0.04338 -1.24261,1.154346 -1.37608,1.934283 -0.17118,1.000278 0.48748,1.974617 0.8395,2.926425 0.16593,0.448642 0.11948,1.2782 0.59708,1.304917 1.1092,0.06205 1.63051,-1.749413 1.71605,-2.857049 0.0671,-0.869225 -0.52531,-1.682417 -0.98648,-2.422267 -0.20936,-0.33587 -0.39489,-0.908008 -0.79007,-0.886309 z m 4.4049,1.350305 c -0.54274,0.41219 -0.77019,1.902085 -0.10318,2.041958 0.66396,0.139234 1.04377,-1.305124 0.72252,-1.902643 -0.1002,-0.186376 -0.45082,-0.267296 -0.61934,-0.139315 z m 5.14665,-0.125617 c -0.88776,0.15272 -1.73201,0.817081 -2.17807,1.599687 -0.43147,0.757024 -0.072,1.750006 -0.25775,2.601321 -0.19597,0.897926 -1.54745,1.959231 -0.89601,2.607531 0.63281,0.629761 1.84811,-0.30485 2.52872,-0.882622 0.70482,-0.59832 1.04852,-1.553934 1.32705,-2.435506 0.32566,-1.030733 0.96073,-2.319403 0.36613,-3.222128 -0.17045,-0.258783 -0.58468,-0.320819 -0.89007,-0.268283 z m -7.37752,6.235322 c -0.77439,0.03708 -2.01099,0.520908 -1.93374,1.292324 0.088,0.878473 1.63525,1.345316 2.45021,1.005766 0.55032,-0.22929 0.88325,-1.091557 0.68286,-1.653049 -0.15258,-0.427519 -0.74592,-0.666749 -1.19933,-0.645041 z"
         sodipodi:nodetypes="aaaaaaaaaaaaaaaaaaaaaaaaaaaaaaaaaaaa" /></g></g></svg>
