<?xml version="1.0" encoding="UTF-8" standalone="no"?>
<!-- Created with Inkscape (http://www.inkscape.org/) -->

<svg
   width="88.412109"
   height="85.317139"
   viewBox="0 0 23.39237 22.573493"
   version="1.1"
   id="svg8"
   inkscape:version="1.3 (0e150ed6c4, 2023-07-21)"
   sodipodi:docname="settings_easy_disabled.svg"
   xml:space="preserve"
   xmlns:inkscape="http://www.inkscape.org/namespaces/inkscape"
   xmlns:sodipodi="http://sodipodi.sourceforge.net/DTD/sodipodi-0.dtd"
   xmlns="http://www.w3.org/2000/svg"
   xmlns:svg="http://www.w3.org/2000/svg"
   xmlns:rdf="http://www.w3.org/1999/02/22-rdf-syntax-ns#"
   xmlns:cc="http://creativecommons.org/ns#"
   xmlns:dc="http://purl.org/dc/elements/1.1/"><defs
     id="defs2" /><sodipodi:namedview
     id="base"
     pagecolor="#ffffff"
     bordercolor="#666666"
     borderopacity="1.0"
     inkscape:pageopacity="0.0"
     inkscape:pageshadow="2"
     inkscape:zoom="6.9179155"
     inkscape:cx="47.34085"
     inkscape:cy="39.968687"
     inkscape:document-units="mm"
     inkscape:current-layer="layer2"
     showgrid="false"
     units="px"
     inkscape:window-width="1916"
     inkscape:window-height="1037"
     inkscape:window-x="0"
     inkscape:window-y="0"
     inkscape:window-maximized="1"
     inkscape:showpageshadow="2"
     inkscape:pagecheckerboard="0"
     inkscape:deskcolor="#d1d1d1" /><metadata
     id="metadata5"><rdf:RDF><cc:Work
         rdf:about=""><dc:format>image/svg+xml</dc:format><dc:type
           rdf:resource="http://purl.org/dc/dcmitype/StillImage" /></cc:Work></rdf:RDF></metadata><g
     inkscape:groupmode="layer"
     id="layer2"
     inkscape:label="hud"
     style="display:inline"
     transform="translate(-157.05904,-307.85522)"><path
       id="path1"
       style="display:inline;fill:#eafaf2;fill-opacity:1;stroke:none;stroke-width:1.58748;stroke-linecap:round;stroke-linejoin:round;stroke-dasharray:none;stroke-opacity:1"
       d="M 160.86708 307.85522 C 158.77163 307.85522 157.05852 309.56677 157.05852 311.66222 L 157.05852 326.621 C 157.05852 328.71646 158.77163 330.42749 160.86708 330.42749 L 176.64441 330.42749 C 178.73986 330.42749 180.45141 328.71646 180.45141 326.621 L 180.45141 311.66222 C 180.45141 309.56677 178.73986 307.85522 176.64441 307.85522 L 160.86708 307.85522 z M 164.29581 313.40424 C 165.35747 313.40424 167.13188 314.79911 166.5303 315.67386 C 166.06978 316.34352 165.10853 314.69821 164.29581 314.69821 C 163.48309 314.69821 162.52184 316.34352 162.06132 315.67386 C 161.45974 314.79911 163.23415 313.40424 164.29581 313.40424 z M 172.95419 313.40424 C 174.01585 313.40424 175.83011 314.8279 175.18868 315.67386 C 174.6747 316.35175 173.8049 314.44086 172.95419 314.44086 C 172.10348 314.44086 171.23368 316.35175 170.7197 315.67386 C 170.0783 314.8279 171.89253 313.40424 172.95419 313.40424 z M 172.47257 321.53242 A 0.79375499 0.79375499 0 0 1 173.05651 321.69675 A 0.79375499 0.79375499 0 0 1 173.19139 322.80986 C 173.19139 322.80986 172.9009 323.18243 172.50409 323.59483 C 172.10727 324.00724 171.65385 324.48236 170.99979 324.73378 C 169.69965 325.23353 168.20925 325.21373 166.91994 324.73584 C 166.30889 324.50935 165.88946 324.08887 165.51951 323.72402 C 165.14956 323.35917 164.8751 323.03052 164.8751 323.03052 A 0.79375499 0.79375499 0 0 1 164.97845 321.91173 A 0.79375499 0.79375499 0 0 1 166.0957 322.01508 C 166.0957 322.01508 166.3237 322.28867 166.63262 322.59334 C 166.94155 322.898 167.37711 323.21286 167.47081 323.24756 C 168.38123 323.58549 169.54018 323.59367 170.4298 323.2517 C 170.5522 323.20465 171.02388 322.84289 171.35946 322.49412 C 171.69505 322.14535 171.9434 321.83214 171.9434 321.83214 A 0.79375499 0.79375499 0 0 1 172.47257 321.53345 L 172.47257 321.53294 L 172.47257 321.53242 z "
       transform="translate(2.0833369e-8)" /></g></svg>
