<?xml version="1.0" encoding="UTF-8" standalone="no"?>
<!-- Created with Inkscape (http://www.inkscape.org/) -->

<svg
   width="88.412109"
   height="85.317139"
   viewBox="0 0 23.39237 22.573493"
   version="1.1"
   id="svg8"
   inkscape:version="1.3 (0e150ed6c4, 2023-07-21)"
   sodipodi:docname="drawing.svg"
   xml:space="preserve"
   xmlns:inkscape="http://www.inkscape.org/namespaces/inkscape"
   xmlns:sodipodi="http://sodipodi.sourceforge.net/DTD/sodipodi-0.dtd"
   xmlns="http://www.w3.org/2000/svg"
   xmlns:svg="http://www.w3.org/2000/svg"
   xmlns:rdf="http://www.w3.org/1999/02/22-rdf-syntax-ns#"
   xmlns:cc="http://creativecommons.org/ns#"
   xmlns:dc="http://purl.org/dc/elements/1.1/"><defs
     id="defs2" /><sodipodi:namedview
     id="base"
     pagecolor="#ffffff"
     bordercolor="#666666"
     borderopacity="1.0"
     inkscape:pageopacity="0.0"
     inkscape:pageshadow="2"
     inkscape:zoom="0.38233912"
     inkscape:cx="983.42016"
     inkscape:cy="1089.3471"
     inkscape:document-units="mm"
     inkscape:current-layer="g302"
     showgrid="false"
     units="px"
     inkscape:window-width="1916"
     inkscape:window-height="1037"
     inkscape:window-x="0"
     inkscape:window-y="0"
     inkscape:window-maximized="1"
     inkscape:showpageshadow="2"
     inkscape:pagecheckerboard="0"
     inkscape:deskcolor="#d1d1d1" /><metadata
     id="metadata5"><rdf:RDF><cc:Work
         rdf:about=""><dc:format>image/svg+xml</dc:format><dc:type
           rdf:resource="http://purl.org/dc/dcmitype/StillImage" /></cc:Work></rdf:RDF></metadata><g
     inkscape:groupmode="layer"
     id="layer2"
     inkscape:label="hud"
     style="display:inline"
     transform="translate(-216.33843,-307.85522)"><g
       id="g302"
       inkscape:label="options"
       transform="translate(-58.013527)"><g
         id="g11"
         transform="translate(57.775319,1.8760235)"
         inkscape:label="hard normal"><rect
           style="fill:none;stroke:#abedcc;stroke-width:1.5875;stroke-linecap:round;stroke-linejoin:round;stroke-dasharray:none;stroke-opacity:1"
           id="rect11"
           width="21.804869"
           height="20.985962"
           x="217.37039"
           y="306.77295"
           rx="3.0134416"
           ry="3.0134416" /><g
           id="g18"
           transform="rotate(-10.148976,229.29054,316.75672)"><path
             style="fill:none;stroke:#abedcc;stroke-width:1.58751;stroke-linecap:round;stroke-linejoin:round;stroke-dasharray:none;stroke-opacity:1"
             d="m 223.68692,320.03097 c 0.10612,0.7441 0.5525,1.46633 1.12359,1.955 0.95744,0.81927 2.2694,1.37142 3.5294,1.35435 0.93822,-0.0127 2.5998,-1.0793 2.5998,-1.0793 0,0 -2.80119,-1.13807 -3.95783,-2.07729 -1.04646,-0.84975 -2.57442,-3.11878 -2.57442,-3.11878 0,0 -0.86418,1.95878 -0.72054,2.96602 z"
             id="path10"
             sodipodi:nodetypes="aaacaca" /><path
             style="fill:none;fill-opacity:1;stroke:#abedcc;stroke-width:1.5875;stroke-linecap:round;stroke-linejoin:round;stroke-dasharray:none;stroke-opacity:1"
             d="m 223.22243,321.51512 4.21932,-2.05909 -0.31115,4.78708"
             id="path18"
             sodipodi:nodetypes="ccc" /></g><g
           id="g288"
           inkscape:label="eyes"><path
             id="ellipse10"
             style="display:inline;fill:#abedcc;fill-opacity:1;stroke:none;stroke-width:1.58748;stroke-linecap:round;stroke-linejoin:round;stroke-dasharray:none;stroke-opacity:1"
             d="m 222.94628,311.71017 a 2.2343891,2.2692809 0 0 0 -1.36684,2.08773 2.2343891,2.2692809 0 0 0 2.23397,2.26911 2.2343891,2.2692809 0 0 0 2.14612,-1.63917 z" /><path
             id="ellipse11"
             style="display:inline;fill:#abedcc;fill-opacity:1;stroke:none;stroke-width:1.58748;stroke-linecap:round;stroke-linejoin:round;stroke-dasharray:none;stroke-opacity:1"
             d="m 233.87946,312.03522 -3.32021,2.92747 a 2.2343891,2.2692809 0 0 0 1.91306,1.10432 2.2343891,2.2692809 0 0 0 2.23397,-2.26911 2.2343891,2.2692809 0 0 0 -0.82682,-1.76268 z" /><path
             style="display:inline;fill:#abedcc;fill-opacity:1;stroke:none;stroke-width:1.5875;stroke-linecap:round;stroke-linejoin:round;stroke-dasharray:none;stroke-opacity:1"
             d="m 281.25759,312.33693 3.03228,3.58902 0.50903,-0.34076 -2.25377,-4.25826 z"
             id="path12"
             transform="translate(-57.775318,-1.8760235)" /><path
             style="display:inline;fill:#abedcc;fill-opacity:1;stroke:none;stroke-width:1.5875;stroke-linecap:round;stroke-linejoin:round;stroke-dasharray:none;stroke-opacity:1"
             d="m 291.12513,312.33693 -3.03228,3.58902 -0.50903,-0.34076 2.25377,-4.25826 z"
             id="path13"
             transform="translate(-57.775318,-1.8760235)" /></g></g></g></g></svg>
