<?xml version="1.0" encoding="UTF-8" standalone="no"?>
<!-- Created with Inkscape (http://www.inkscape.org/) -->

<svg
   width="465.31091"
   height="51.040039"
   viewBox="0 0 123.11351 13.504344"
   version="1.1"
   id="svg8"
   inkscape:version="1.3 (0e150ed6c4, 2023-07-21)"
   sodipodi:docname="drawing.svg"
   xml:space="preserve"
   xmlns:inkscape="http://www.inkscape.org/namespaces/inkscape"
   xmlns:sodipodi="http://sodipodi.sourceforge.net/DTD/sodipodi-0.dtd"
   xmlns="http://www.w3.org/2000/svg"
   xmlns:svg="http://www.w3.org/2000/svg"
   xmlns:rdf="http://www.w3.org/1999/02/22-rdf-syntax-ns#"
   xmlns:cc="http://creativecommons.org/ns#"
   xmlns:dc="http://purl.org/dc/elements/1.1/"><defs
     id="defs2" /><sodipodi:namedview
     id="base"
     pagecolor="#ffffff"
     bordercolor="#666666"
     borderopacity="1.0"
     inkscape:pageopacity="0.0"
     inkscape:pageshadow="2"
     inkscape:zoom="0.38233912"
     inkscape:cx="983.42016"
     inkscape:cy="1089.3471"
     inkscape:document-units="mm"
     inkscape:current-layer="g302"
     showgrid="false"
     units="px"
     inkscape:window-width="1916"
     inkscape:window-height="1037"
     inkscape:window-x="0"
     inkscape:window-y="0"
     inkscape:window-maximized="1"
     inkscape:showpageshadow="2"
     inkscape:pagecheckerboard="0"
     inkscape:deskcolor="#d1d1d1" /><metadata
     id="metadata5"><rdf:RDF><cc:Work
         rdf:about=""><dc:format>image/svg+xml</dc:format><dc:type
           rdf:resource="http://purl.org/dc/dcmitype/StillImage" /></cc:Work></rdf:RDF></metadata><g
     inkscape:groupmode="layer"
     id="layer2"
     inkscape:label="hud"
     style="display:inline"
     transform="translate(-26.309476,-312.79391)"><g
       id="g302"
       inkscape:label="options"
       transform="translate(-58.013527)"><g
         id="g332"
         transform="translate(0.56321023,-4.8086695)"
         inkscape:label="danger level normal"
         inkscape:export-filename="../../projects/endless-jam-2023/modules/remi/assets/graphics/settings_danger_level.svg"
         inkscape:export-xdpi="200"
         inkscape:export-ydpi="200"><path
           style="display:inline;fill:none;fill-opacity:1;stroke:#abedcc;stroke-width:1.5875;stroke-linecap:round;stroke-linejoin:round;stroke-dasharray:none;stroke-opacity:1"
           d="m 84.553542,329.86077 v -11.2581 c 0,0 3.126734,-0.49739 4.528987,0.0813 1.150155,0.47466 2.192986,1.44658 2.737693,2.59624 0.643558,1.35829 0.726308,3.05729 0.3613,4.52191 -0.307927,1.23559 -1.00875,2.50242 -2.049946,3.18775 -1.586148,1.04403 -5.578034,0.87087 -5.578034,0.87087 z"
           id="path302-3"
           sodipodi:nodetypes="ccaaaac" /><path
           style="display:inline;fill:none;fill-opacity:1;stroke:#abedcc;stroke-width:1.58751;stroke-linecap:round;stroke-linejoin:round;stroke-dasharray:none;stroke-opacity:1"
           d="m 157.32742,319.01084 v 10.41311 h 5.47031"
           id="path311-6"
           sodipodi:nodetypes="ccc" /><path
           style="display:inline;fill:none;fill-opacity:1;stroke:#abedcc;stroke-width:1.58751;stroke-linecap:round;stroke-linejoin:round;stroke-dasharray:none;stroke-opacity:1"
           d="m 196.56972,319.01084 v 10.41311 h 5.47031"
           id="path318"
           sodipodi:nodetypes="ccc" /><g
           id="g320"
           transform="matrix(1.1917063,0,0,1.2103159,-14.932657,-69.437562)"
           style="stroke:#abedcc;stroke-width:0.832657;stroke-opacity:1"><path
             style="fill:none;fill-opacity:1;stroke:#abedcc;stroke-width:1.32184;stroke-linecap:round;stroke-linejoin:round;stroke-dasharray:none;stroke-opacity:1"
             d="m 92.305323,330.1362 3.732287,-9.56733 3.749153,9.55842"
             id="path319" /><path
             style="fill:none;fill-opacity:1;stroke:#abedcc;stroke-width:1.32184;stroke-linecap:round;stroke-linejoin:round;stroke-dasharray:none;stroke-opacity:1"
             d="m 93.667371,327.07651 h 4.638033"
             id="path320"
             sodipodi:nodetypes="cc" /></g><path
           style="fill:none;fill-opacity:1;stroke:#abedcc;stroke-width:1.5875;stroke-linecap:round;stroke-linejoin:round;stroke-dasharray:none;stroke-opacity:1"
           d="m 107.31801,330.3132 v -11.34029 l 7.03253,11.29377 v -11.07137"
           id="path321"
           sodipodi:nodetypes="cccc" /><path
           style="fill:none;fill-opacity:1;stroke:#abedcc;stroke-width:1.5875;stroke-linecap:round;stroke-linejoin:round;stroke-dasharray:none;stroke-opacity:1"
           d="m 127.291,320.27888 c 0,0 -2.18699,-1.27048 -3.40484,-1.40389 -1.1392,-0.12479 -2.42127,-0.0323 -3.38745,0.59323 -1.03401,0.66948 -1.7837,1.86581 -2.09674,3.06995 -0.41279,1.58786 -0.32726,3.45946 0.43685,4.9068 0.56158,1.06372 1.65838,1.86782 2.77982,2.2673 1.15356,0.41091 2.49565,0.34672 3.66736,-0.007 0.52393,-0.15829 1.09916,-0.42829 1.37501,-0.90757 0.65911,-1.14519 0.24845,-3.97146 0.24845,-3.97146 l -3.23595,-0.0822"
           id="path322"
           sodipodi:nodetypes="caaaaaaacc" /><g
           id="g324"
           transform="matrix(1.1917063,0,0,1.2103159,-14.932657,-69.437562)"
           style="stroke:#abedcc;stroke-width:0.832657;stroke-opacity:1"><path
             style="fill:none;fill-opacity:1;stroke:#abedcc;stroke-width:1.32184;stroke-linecap:round;stroke-linejoin:round;stroke-dasharray:none;stroke-opacity:1"
             d="m 127.60753,329.67067 h -4.95739 v -8.58693 h 4.87767"
             id="path323"
             sodipodi:nodetypes="cccc" /><path
             style="fill:none;fill-opacity:1;stroke:#abedcc;stroke-width:1.32184;stroke-linecap:round;stroke-linejoin:round;stroke-dasharray:none;stroke-opacity:1"
             d="m 122.65014,325.14304 h 4.69019"
             id="path324" /></g><g
           id="g326"
           transform="matrix(1.1917063,0,0,1.2103159,19.804819,-69.437562)"
           style="stroke:#abedcc;stroke-width:0.832657;stroke-opacity:1"><path
             style="fill:none;fill-opacity:1;stroke:#abedcc;stroke-width:1.32184;stroke-linecap:round;stroke-linejoin:round;stroke-dasharray:none;stroke-opacity:1"
             d="m 127.60753,329.67067 h -4.95739 v -8.58693 h 4.87767"
             id="path325"
             sodipodi:nodetypes="cccc" /><path
             style="fill:none;fill-opacity:1;stroke:#abedcc;stroke-width:1.32184;stroke-linecap:round;stroke-linejoin:round;stroke-dasharray:none;stroke-opacity:1"
             d="m 122.65014,325.14304 h 4.69019"
             id="path326" /></g><g
           id="g328"
           transform="matrix(1.1917063,0,0,1.2103159,40.740781,-69.437562)"
           style="stroke:#abedcc;stroke-width:0.832657;stroke-opacity:1"><path
             style="fill:none;fill-opacity:1;stroke:#abedcc;stroke-width:1.32184;stroke-linecap:round;stroke-linejoin:round;stroke-dasharray:none;stroke-opacity:1"
             d="m 127.60753,329.67067 h -4.95739 v -8.58693 h 4.87767"
             id="path327"
             sodipodi:nodetypes="cccc" /><path
             style="fill:none;fill-opacity:1;stroke:#abedcc;stroke-width:1.32184;stroke-linecap:round;stroke-linejoin:round;stroke-dasharray:none;stroke-opacity:1"
             d="m 122.65014,325.14304 h 4.69019"
             id="path328" /></g><path
           style="fill:none;fill-opacity:1;stroke:#abedcc;stroke-width:1.5875;stroke-linecap:round;stroke-linejoin:round;stroke-dasharray:none;stroke-opacity:1"
           d="m 174.65342,318.92043 4.37317,11.2971 4.37478,-11.33218"
           id="path329"
           sodipodi:nodetypes="ccc" /><path
           style="fill:none;fill-opacity:1;stroke:#abedcc;stroke-width:1.5875;stroke-linecap:round;stroke-linejoin:round;stroke-dasharray:none;stroke-opacity:1"
           d="m 141.10437,330.30619 0.004,-11.10565 c 0,0 2.97633,-0.40797 4.28469,0.17668 0.5561,0.24851 1.03187,0.75191 1.28493,1.31288 0.29383,0.65136 0.35349,1.45335 0.16251,2.14307 -0.14713,0.53132 -0.50029,1.039 -0.9541,1.34263 -0.5884,0.39368 -2.06312,0.46724 -2.06312,0.46724 0,0 1.40676,0.11159 1.96127,0.50098 0.49417,0.34695 0.73002,0.97355 1.02871,1.50292 0.6291,1.11498 1.59361,3.49902 1.59361,3.49902"
           id="path330"
           sodipodi:nodetypes="ccaaaacaac" /><ellipse
           style="fill:#abedcc;fill-opacity:1;stroke:none;stroke-width:1.58748;stroke-linecap:round;stroke-linejoin:round;stroke-dasharray:none;stroke-opacity:1"
           id="path331"
           cx="205.7995"
           cy="321.43036"
           rx="1.0737975"
           ry="1.0905658" /><ellipse
           style="fill:#abedcc;fill-opacity:1;stroke:none;stroke-width:1.58748;stroke-linecap:round;stroke-linejoin:round;stroke-dasharray:none;stroke-opacity:1"
           id="circle331"
           cx="205.7995"
           cy="327.74414"
           rx="1.0737975"
           ry="1.0905658" /></g></g></g></svg>
