<?xml version="1.0" encoding="UTF-8" standalone="no"?>
<!-- Created with Inkscape (http://www.inkscape.org/) -->

<svg
   width="88.412109"
   height="85.317139"
   viewBox="0 0 23.39237 22.573493"
   version="1.1"
   id="svg8"
   inkscape:version="1.3 (0e150ed6c4, 2023-07-21)"
   sodipodi:docname="drawing.svg"
   xml:space="preserve"
   xmlns:inkscape="http://www.inkscape.org/namespaces/inkscape"
   xmlns:sodipodi="http://sodipodi.sourceforge.net/DTD/sodipodi-0.dtd"
   xmlns="http://www.w3.org/2000/svg"
   xmlns:svg="http://www.w3.org/2000/svg"
   xmlns:rdf="http://www.w3.org/1999/02/22-rdf-syntax-ns#"
   xmlns:cc="http://creativecommons.org/ns#"
   xmlns:dc="http://purl.org/dc/elements/1.1/"><defs
     id="defs2" /><sodipodi:namedview
     id="base"
     pagecolor="#ffffff"
     bordercolor="#666666"
     borderopacity="1.0"
     inkscape:pageopacity="0.0"
     inkscape:pageshadow="2"
     inkscape:zoom="0.38233912"
     inkscape:cx="319.08846"
     inkscape:cy="1468.5915"
     inkscape:document-units="mm"
     inkscape:current-layer="g302"
     showgrid="false"
     units="px"
     inkscape:window-width="1916"
     inkscape:window-height="1037"
     inkscape:window-x="0"
     inkscape:window-y="0"
     inkscape:window-maximized="1"
     inkscape:showpageshadow="2"
     inkscape:pagecheckerboard="0"
     inkscape:deskcolor="#d1d1d1" /><metadata
     id="metadata5"><rdf:RDF><cc:Work
         rdf:about=""><dc:format>image/svg+xml</dc:format><dc:type
           rdf:resource="http://purl.org/dc/dcmitype/StillImage" /></cc:Work></rdf:RDF></metadata><g
     inkscape:groupmode="layer"
     id="layer2"
     inkscape:label="hud"
     style="display:inline"
     transform="translate(-216.33843,-307.85522)"><g
       id="g302"
       inkscape:label="options"
       transform="translate(-58.013527)"><g
         id="g315"
         transform="translate(57.775319,1.8760235)"
         inkscape:label="hard hover"><g
           id="g316"
           style="stroke:#eafaf2;stroke-opacity:1"><rect
             style="fill:none;stroke:#eafaf2;stroke-width:1.5875;stroke-linecap:round;stroke-linejoin:round;stroke-dasharray:none;stroke-opacity:1"
             id="rect309"
             width="21.804869"
             height="20.985962"
             x="217.37039"
             y="306.77295"
             rx="3.0134416"
             ry="3.0134416" /><path
             style="fill:none;stroke:#eafaf2;stroke-width:1.58751;stroke-linecap:round;stroke-linejoin:round;stroke-dasharray:none;stroke-opacity:1"
             d="m 224.35155,320.96714 c 0.23558,0.71376 0.80223,1.34603 1.4505,1.72643 1.08682,0.63774 2.47554,0.95007 3.71282,0.71124 0.9213,-0.17782 2.36894,-1.52051 2.36894,-1.52051 0,0 -2.9579,-0.62667 -4.26194,-1.34739 -1.17982,-0.65206 -3.08369,-2.61634 -3.08369,-2.61634 0,0 -0.50551,2.0804 -0.18663,3.04657 z"
             id="path309"
             sodipodi:nodetypes="aaacaca" /><path
             style="fill:none;fill-opacity:1;stroke:#eafaf2;stroke-width:1.5875;stroke-linecap:round;stroke-linejoin:round;stroke-dasharray:none;stroke-opacity:1"
             d="m 224.15585,322.50992 3.79047,-2.77035 0.53724,4.767"
             id="path310"
             sodipodi:nodetypes="ccc" /></g><g
           id="g314"
           inkscape:label="eyes"
           style="fill:#eafaf2;fill-opacity:1"><path
             id="path311"
             style="display:inline;fill:#eafaf2;fill-opacity:1;stroke:none;stroke-width:1.58748;stroke-linecap:round;stroke-linejoin:round;stroke-dasharray:none;stroke-opacity:1"
             d="m 222.94628,311.71017 a 2.2343891,2.2692809 0 0 0 -1.36684,2.08773 2.2343891,2.2692809 0 0 0 2.23397,2.26911 2.2343891,2.2692809 0 0 0 2.14612,-1.63917 z" /><path
             id="path312"
             style="display:inline;fill:#eafaf2;fill-opacity:1;stroke:none;stroke-width:1.58748;stroke-linecap:round;stroke-linejoin:round;stroke-dasharray:none;stroke-opacity:1"
             d="m 233.87946,312.03522 -3.32021,2.92747 a 2.2343891,2.2692809 0 0 0 1.91306,1.10432 2.2343891,2.2692809 0 0 0 2.23397,-2.26911 2.2343891,2.2692809 0 0 0 -0.82682,-1.76268 z" /><path
             style="display:inline;fill:#eafaf2;fill-opacity:1;stroke:none;stroke-width:1.5875;stroke-linecap:round;stroke-linejoin:round;stroke-dasharray:none;stroke-opacity:1"
             d="m 281.25759,312.33693 3.03228,3.58902 0.50903,-0.34076 -2.25377,-4.25826 z"
             id="path313"
             transform="translate(-57.775318,-1.8760235)" /><path
             style="display:inline;fill:#eafaf2;fill-opacity:1;stroke:none;stroke-width:1.5875;stroke-linecap:round;stroke-linejoin:round;stroke-dasharray:none;stroke-opacity:1"
             d="m 291.12513,312.33693 -3.03228,3.58902 -0.50903,-0.34076 2.25377,-4.25826 z"
             id="path314"
             transform="translate(-57.775318,-1.8760235)" /></g></g></g></g></svg>
