<?xml version="1.0" encoding="UTF-8" standalone="no"?>
<!-- Created with Inkscape (http://www.inkscape.org/) -->

<svg
   width="259.42114"
   height="135.7233"
   viewBox="0 0 68.638509 35.910123"
   version="1.1"
   id="svg8"
   inkscape:version="1.3 (0e150ed6c4, 2023-07-21)"
   sodipodi:docname="spaceship_front.svg"
   xml:space="preserve"
   xmlns:inkscape="http://www.inkscape.org/namespaces/inkscape"
   xmlns:sodipodi="http://sodipodi.sourceforge.net/DTD/sodipodi-0.dtd"
   xmlns="http://www.w3.org/2000/svg"
   xmlns:svg="http://www.w3.org/2000/svg"
   xmlns:rdf="http://www.w3.org/1999/02/22-rdf-syntax-ns#"
   xmlns:cc="http://creativecommons.org/ns#"
   xmlns:dc="http://purl.org/dc/elements/1.1/"><defs
     id="defs2" /><sodipodi:namedview
     id="base"
     pagecolor="#ffffff"
     bordercolor="#666666"
     borderopacity="1.0"
     inkscape:pageopacity="0.0"
     inkscape:pageshadow="2"
     inkscape:zoom="0.15495974"
     inkscape:cx="587.24929"
     inkscape:cy="-1403.5903"
     inkscape:document-units="mm"
     inkscape:current-layer="g10"
     showgrid="false"
     units="px"
     inkscape:window-width="1916"
     inkscape:window-height="1037"
     inkscape:window-x="0"
     inkscape:window-y="0"
     inkscape:window-maximized="1"
     inkscape:showpageshadow="2"
     inkscape:pagecheckerboard="0"
     inkscape:deskcolor="#d1d1d1" /><metadata
     id="metadata5"><rdf:RDF><cc:Work
         rdf:about=""><dc:format>image/svg+xml</dc:format><dc:type
           rdf:resource="http://purl.org/dc/dcmitype/StillImage" /></cc:Work></rdf:RDF></metadata><g
     inkscape:groupmode="layer"
     id="g10"
     inkscape:label="back"
     transform="translate(-286.49255,-101.28391)"
     style="display:inline"><g
       id="g131"
       style="display:inline;stroke:#1a1a1a;stroke-width:1.5875;stroke-dasharray:none"
       transform="translate(84.421899,1.0974511)"
       inkscape:label="spaceship front"><path
         id="path33"
         style="fill:#c9dbe8;fill-opacity:1;stroke:#1a1a1a;stroke-width:1.5875;stroke-linecap:round;stroke-linejoin:round;stroke-dasharray:none"
         d="m 240.17578,104.61133 c -2.87097,0.44338 -5.68881,1.17492 -8.56089,1.61113 -2.07186,0.27427 -4.17261,0.12584 -6.23426,-0.16261 -1.47083,-0.19135 -2.98321,-0.39124 -4.44942,-0.0576 -1.23038,0.23922 -2.40959,0.69999 -3.64753,0.89945 -0.56441,0.027 -1.12127,-0.12892 -1.68602,-0.0853 -0.56535,0.21163 -0.82751,0.87704 -0.73896,1.44457 0.0965,1.05554 0.62433,1.99789 1.04169,2.95191 0.47787,1.02734 0.95573,2.05469 1.43359,3.08203 0.319,2.94558 -0.21378,5.92146 0.2273,8.85933 0.26788,1.79917 0.87321,3.57794 1.94229,5.06264 1.21897,1.51373 2.98736,2.50822 4.84365,3.01954 1.05711,0.30384 2.21793,0.43303 3.27359,0.0525 1.61725,-0.5362 3.14123,-1.3957 4.84909,-1.62722 0.99013,-0.14466 1.99157,-0.0115 2.9779,0.10087 1.37462,0.18566 2.74893,0.37399 4.12251,0.56748 0.76986,-0.073 1.39517,-0.60188 1.8833,-1.1634 1.80921,-2.15431 3.22651,-4.67579 3.90285,-7.41869 0.61744,-2.49131 0.5125,-5.12365 -0.084,-7.60827 -0.52939,-2.31207 -1.22989,-4.57954 -1.90916,-6.85066 -0.38967,-0.83834 -1.02288,-1.52576 -1.59811,-2.23786 -0.36285,-0.36476 -0.91054,-0.43715 -1.40189,-0.44768 -0.0625,0.003 -0.125,0.005 -0.1875,0.008 z"
         sodipodi:nodetypes="aaaaaaaaaaaaaa" /><path
         id="path34"
         style="fill:#c9dbe8;fill-opacity:1;stroke:#1a1a1a;stroke-width:1.5875;stroke-linecap:round;stroke-linejoin:round;stroke-dasharray:none"
         d="m 208.99608,104.4157 c -2.24851,-0.36174 -2.79584,2.30278 -4.39031,2.94602 -1.63483,1.46693 -1.05795,4.22407 -0.95965,5.51121 0.4173,1.99509 1.28234,4.18927 2.96796,5.73716 -0.79225,1.14563 -3.96648,2.80382 -3.69803,4.64476 -0.33259,2.10936 1.05447,3.9212 1.21699,5.95976 0.38157,2.5608 2.81302,3.43545 4.9794,3.94754 1.79757,1.13986 4.30973,-0.87347 3.21205,-2.82921 -0.40242,-1.76909 -1.47277,-3.13157 -2.31316,-4.64701 0.11452,-1.73453 0.93111,-3.87516 -0.31507,-5.31819 -0.29421,-1.99163 -0.45723,-4.15982 0.6511,-5.92144 0.0698,-1.70399 -0.47656,-3.47769 1.64924,-3.91039 1.53112,-1.62505 0.46777,-4.87259 -1.25918,-5.84906 -0.5418,-0.24573 -1.15056,-0.33922 -1.74134,-0.27115 z m 1.0759,4.02456 c 0.29568,0.0411 -0.16648,0.23095 0,0 z"
         sodipodi:nodetypes="cccccccccccccccc" /><path
         id="path32"
         style="fill:#cceaff;fill-opacity:1;stroke:#1a1a1a;stroke-width:1.5875;stroke-linecap:round;stroke-linejoin:round;stroke-dasharray:none"
         d="m 251.05859,100.98242 c -1.95419,0.29318 -3.8041,1.0611 -5.71583,1.55512 -1.68631,0.43577 -3.58077,0.3481 -5.07518,1.24267 -1.10957,0.66418 -2.02155,1.72545 -2.59329,2.88536 -0.59807,1.21331 -0.75398,2.6371 -0.74167,3.98975 0.0244,2.68639 1.35651,5.2218 1.61689,7.89566 0.20576,2.11297 -0.28382,4.25865 -0.0499,6.36869 0.17779,1.60396 0.40631,3.25697 1.09723,4.71537 0.49966,1.05468 1.248,2.01692 2.1362,2.77396 1.30807,1.1149 2.85876,2.06653 4.53209,2.45901 1.38063,0.32382 2.84333,0.0112 4.25147,-0.15465 2.5132,-0.37018 4.96106,-1.0897 7.35226,-1.93325 2.54503,-1.04309 4.93963,-2.52336 6.86052,-4.50595 2.31243,-2.37479 3.95925,-5.37199 4.80722,-8.57122 0.55494,-2.21768 0.52664,-4.61196 -0.27057,-6.76822 -0.77914,-2.1519 -2.18334,-4.02567 -3.82148,-5.60211 -2.3555,-2.31222 -5.161,-4.18832 -8.25697,-5.35113 -1.95892,-0.70391 -4.04902,-1.03163 -6.12895,-0.99906 z m -38.14571,2.95957 c -2.06643,1.86348 -3.11428,4.71754 -3.87383,7.39444 -0.9461,3.33433 -1.34776,6.96145 -0.73123,10.37213 0.50213,2.77785 1.9686,5.34311 3.51529,7.70455 0.92835,1.41738 2.0295,2.78042 3.39609,3.78204 0.86604,0.63475 1.90833,1.01149 2.93352,1.33072 1.34054,0.41743 2.7504,0.90233 4.14562,0.74529 0.69532,-0.0782 1.39431,-0.37332 1.93175,-0.82137 0.61468,-0.51242 0.99739,-1.27259 1.32165,-2.0042 0.36464,-0.82273 0.68774,-1.7151 0.67159,-2.61486 -0.0186,-1.03361 -0.57129,-1.98722 -0.8788,-2.9742 -0.62055,-1.99165 -1.69534,-3.87632 -1.94949,-5.94687 -0.18922,-1.54154 0.16148,-3.10399 0.33755,-4.64708 0.22934,-2.01008 0.93465,-3.97375 0.93521,-5.99686 2.5e-4,-0.92162 -0.13805,-1.8561 -0.42453,-2.73206 -0.43694,-1.33605 -1.00561,-2.69409 -1.93985,-3.74441 -0.8933,-1.00431 -2.00337,-2.11514 -3.33969,-2.25968 -2.15875,-0.23348 -4.43834,0.95828 -6.05085,2.41242 z"
         sodipodi:nodetypes="saaaaaaaaaaaaaaaaasaaaaaaaaaaaaaaaaaa" /></g></g></svg>
