<?xml version="1.0" encoding="UTF-8" standalone="no"?>
<!-- Created with Inkscape (http://www.inkscape.org/) -->

<svg
   width="524.88367"
   height="201.88972"
   viewBox="0 0 138.87547 53.416657"
   version="1.1"
   id="svg8"
   inkscape:version="1.3 (0e150ed6c4, 2023-07-21)"
   sodipodi:docname="spaceship.svg"
   xml:space="preserve"
   xmlns:inkscape="http://www.inkscape.org/namespaces/inkscape"
   xmlns:sodipodi="http://sodipodi.sourceforge.net/DTD/sodipodi-0.dtd"
   xmlns="http://www.w3.org/2000/svg"
   xmlns:svg="http://www.w3.org/2000/svg"
   xmlns:rdf="http://www.w3.org/1999/02/22-rdf-syntax-ns#"
   xmlns:cc="http://creativecommons.org/ns#"
   xmlns:dc="http://purl.org/dc/elements/1.1/"><defs
     id="defs2" /><sodipodi:namedview
     id="base"
     pagecolor="#ffffff"
     bordercolor="#666666"
     borderopacity="1.0"
     inkscape:pageopacity="0.0"
     inkscape:pageshadow="2"
     inkscape:zoom="0.30991949"
     inkscape:cx="580.796"
     inkscape:cy="-350.09092"
     inkscape:document-units="mm"
     inkscape:current-layer="g10"
     showgrid="false"
     units="px"
     inkscape:window-width="1916"
     inkscape:window-height="1037"
     inkscape:window-x="0"
     inkscape:window-y="0"
     inkscape:window-maximized="1"
     inkscape:showpageshadow="2"
     inkscape:pagecheckerboard="0"
     inkscape:deskcolor="#d1d1d1" /><metadata
     id="metadata5"><rdf:RDF><cc:Work
         rdf:about=""><dc:format>image/svg+xml</dc:format><dc:type
           rdf:resource="http://purl.org/dc/dcmitype/StillImage" /></cc:Work></rdf:RDF></metadata><g
     inkscape:groupmode="layer"
     id="g10"
     inkscape:label="back"
     transform="translate(-262.24128,-87.715688)"
     style="display:inline"><g
       id="g35"
       transform="translate(74.074491,9.5145576)"
       inkscape:label="spaceship"
       style="stroke:#1a1a1a;stroke-width:1.5875;stroke-dasharray:none"><path
         id="path18"
         style="fill:#e5f4ff;fill-opacity:1;stroke:#1a1a1a;stroke-width:1.5875;stroke-linecap:round;stroke-linejoin:round;stroke-dasharray:none"
         d="m 276.90976,79.675091 c -3.69383,-0.4571 -7.43717,-0.858268 -11.15002,-0.597386 -4.37468,0.307386 -8.69013,1.340539 -12.91005,2.534101 -4.26982,1.207673 -8.26944,3.229179 -12.47051,4.657741 -2.21908,0.754593 -4.55861,1.1621 -6.72149,2.065258 -2.85938,1.193996 -5.5078,2.846157 -8.1889,4.399661 -4.9784,2.88462 -10.19319,5.489575 -14.64942,9.129284 -3.94942,3.22576 -6.7132,7.71401 -10.52058,11.10625 -3.46751,3.08943 -9.96255,3.86531 -11.14907,8.35533 -0.80991,3.06486 1.11758,7.02778 3.79924,8.71834 2.86506,1.80617 6.78145,-0.0475 10.15439,-0.35422 4.7879,-0.43533 9.46601,-1.88243 14.2685,-2.10511 4.45308,-0.20648 8.90462,0.44842 13.35425,0.71928 4.34665,0.26459 8.68346,0.69678 13.0341,0.88486 8.17613,0.35346 16.36614,0.67394 24.54703,0.45718 4.05816,-0.10753 8.11383,-0.41384 12.14756,-0.87128 6.1472,-0.69712 12.41086,-1.08346 18.33948,-2.85137 2.02024,-0.60243 3.65539,-2.50358 5.76086,-2.6098 4.92323,-0.24838 9.10308,5.11415 14.01645,4.71577 2.79014,-0.22622 6.38534,-1.3258 7.4241,-3.92523 1.00695,-2.51982 -1.2211,-5.37534 -2.59247,-7.71687 -1.63063,-2.78421 -4.15397,-4.95672 -6.49491,-7.17725 -3.27191,-3.10362 -6.85322,-5.87818 -10.49654,-8.53602 -4.15736,-3.032842 -8.80171,-5.362398 -12.9323,-8.431599 -2.2077,-1.640413 -4.3689,-3.368292 -6.30936,-5.317526 -1.9207,-1.929384 -2.89155,-4.883448 -5.23515,-6.268788 -1.46917,-0.868453 -3.33145,-0.771011 -5.02519,-0.980606 z"
         sodipodi:nodetypes="aaaaaaaaaaaaaaaaaaaaaaaaaaa" /><path
         id="path36"
         style="fill:#b3dfff;fill-opacity:1;stroke:#1a1a1a;stroke-width:1.5875;stroke-linecap:round;stroke-linejoin:round;stroke-dasharray:none"
         d="m 290.085,90.40049 c -2.07057,1.526476 -3.32669,5.145866 -2.12327,7.419441 1.99914,3.776909 8.14336,2.598479 12.17558,4.013679 4.13597,1.45161 9.64796,8.06396 12.32244,4.59113 1.07341,-1.39381 -1.86102,-3.00948 -3.04477,-4.31088 -2.06345,-2.268517 -4.48871,-4.204692 -6.97946,-5.993595 -2.99924,-2.154117 -5.9735,-4.64259 -9.52353,-5.658933 -0.90615,-0.259421 -2.06833,-0.620149 -2.82699,-0.06085 z"
         sodipodi:nodetypes="aaaaaaaa" /></g></g></svg>
