<?xml version="1.0" encoding="UTF-8" standalone="no"?>
<!-- Created with Inkscape (http://www.inkscape.org/) -->

<svg
   width="128.33453mm"
   height="165.44566mm"
   viewBox="0 0 128.33453 165.44566"
   version="1.1"
   id="svg1263"
   inkscape:version="1.3 (0e150ed6c4, 2023-07-21)"
   sodipodi:docname="superlechouille_langue_overlay_hover.svg"
   xmlns:inkscape="http://www.inkscape.org/namespaces/inkscape"
   xmlns:sodipodi="http://sodipodi.sourceforge.net/DTD/sodipodi-0.dtd"
   xmlns="http://www.w3.org/2000/svg"
   xmlns:svg="http://www.w3.org/2000/svg"
   xmlns:rdf="http://www.w3.org/1999/02/22-rdf-syntax-ns#"
   xmlns:cc="http://creativecommons.org/ns#"
   xmlns:dc="http://purl.org/dc/elements/1.1/">
  <defs
     id="defs1257" />
  <sodipodi:namedview
     id="base"
     pagecolor="#ffffff"
     bordercolor="#666666"
     borderopacity="1.0"
     inkscape:pageopacity="0.0"
     inkscape:pageshadow="2"
     inkscape:zoom="1.4"
     inkscape:cx="238.57143"
     inkscape:cy="497.5"
     inkscape:document-units="mm"
     inkscape:current-layer="layer1"
     showgrid="false"
     inkscape:window-width="1916"
     inkscape:window-height="1037"
     inkscape:window-x="0"
     inkscape:window-y="0"
     inkscape:window-maximized="1"
     inkscape:showpageshadow="2"
     inkscape:pagecheckerboard="0"
     inkscape:deskcolor="#d1d1d1" />
  <metadata
     id="metadata1260">
    <rdf:RDF>
      <cc:Work
         rdf:about="">
        <dc:format>image/svg+xml</dc:format>
        <dc:type
           rdf:resource="http://purl.org/dc/dcmitype/StillImage" />
      </cc:Work>
    </rdf:RDF>
  </metadata>
  <g
     inkscape:label="Calque 1"
     inkscape:groupmode="layer"
     id="layer1"
     transform="translate(-113.19679,-145.03916)">
    <path
       sodipodi:nodetypes="cscsscsscscc"
       inkscape:connector-curvature="0"
       id="path1"
       d="m 170.79724,306.40105 c -12.55127,-3.33504 -21.07467,-8.0096 -29.85286,-16.37254 -5.97872,-5.69598 -10.44162,-12.05454 -14.64996,-20.87259 -4.26262,-8.93189 -6.72901,-17.27859 -8.59165,-29.07578 -2.56977,-16.2757 -0.97204,-40.51461 1.39636,-61.13825 4.13145,-35.9759 47.35414,-33.68679 56.46021,-24.77902 11.68943,-10.37963 53.71018,-8.28167 58.78126,17.01957 0.27965,1.39522 2.42666,13.13202 2.83807,17.34773 3.20265,32.8174 -0.16139,59.98318 -9.94348,80.29023 -9.28301,19.27192 -24.91752,32.34685 -44.53928,37.2477 -6.98036,1.74345 -6.62691,1.73357 -11.89784,0.33278 z"
       style="fill:none;fill-opacity:1;stroke:#ffffff;stroke-width:6.35;stroke-linecap:round;stroke-linejoin:bevel;stroke-miterlimit:4;stroke-dasharray:none;stroke-dashoffset:0;stroke-opacity:1" />
    <path
       sodipodi:nodetypes="cscsscsscscc"
       inkscape:connector-curvature="0"
       id="path1027-5"
       d="m 170.79724,306.40105 c -12.55127,-3.33504 -21.07467,-8.0096 -29.85286,-16.37254 -5.97872,-5.69598 -10.44162,-12.05454 -14.64996,-20.87259 -4.26262,-8.93189 -6.72901,-17.27859 -8.59165,-29.07578 -2.56977,-16.2757 -0.97204,-40.51461 1.39636,-61.13825 4.13145,-35.9759 47.35414,-33.68679 56.46021,-24.77902 11.68943,-10.37963 53.71018,-8.28167 58.78126,17.01957 0.27965,1.39522 2.42666,13.13202 2.83807,17.34773 3.20265,32.8174 -0.16139,59.98318 -9.94348,80.29023 -9.28301,19.27192 -24.91752,32.34685 -44.53928,37.2477 -6.98036,1.74345 -6.62691,1.73357 -11.89784,0.33278 z"
       style="fill:#55d400;fill-opacity:1;stroke:#000000;stroke-width:2.11666667;stroke-linecap:round;stroke-linejoin:bevel;stroke-miterlimit:4;stroke-dasharray:none;stroke-dashoffset:0;stroke-opacity:1" />
    <path
       inkscape:connector-curvature="0"
       id="path1002-6"
       d="m 175.37886,154.25657 -2.08824,83.7036"
       style="fill:none;stroke:#000000;stroke-width:2.11666667;stroke-linecap:round;stroke-linejoin:miter;stroke-miterlimit:4;stroke-dasharray:none;stroke-opacity:1"
       sodipodi:nodetypes="cc" />
  </g>
</svg>
