<?xml version="1.0" encoding="UTF-8" standalone="no"?>
<!-- Created with Inkscape (http://www.inkscape.org/) -->

<svg
   width="322.02106mm"
   height="212.42648mm"
   viewBox="0 0 322.02105 212.42651"
   version="1.1"
   id="svg1"
   inkscape:version="1.3 (0e150ed6c4, 2023-07-21)"
   sodipodi:docname="superlechouille_tete_overlay_overlay.svg"
   xmlns:inkscape="http://www.inkscape.org/namespaces/inkscape"
   xmlns:sodipodi="http://sodipodi.sourceforge.net/DTD/sodipodi-0.dtd"
   xmlns="http://www.w3.org/2000/svg"
   xmlns:svg="http://www.w3.org/2000/svg"
   xmlns:rdf="http://www.w3.org/1999/02/22-rdf-syntax-ns#"
   xmlns:cc="http://creativecommons.org/ns#"
   xmlns:dc="http://purl.org/dc/elements/1.1/">
  <metadata
     id="metadata16">
    <rdf:RDF>
      <cc:Work
         rdf:about="">
        <dc:format>image/svg+xml</dc:format>
        <dc:type
           rdf:resource="http://purl.org/dc/dcmitype/StillImage" />
      </cc:Work>
    </rdf:RDF>
  </metadata>
  <sodipodi:namedview
     id="namedview1"
     pagecolor="#ffffff"
     bordercolor="#000000"
     borderopacity="0.25"
     inkscape:showpageshadow="2"
     inkscape:pageopacity="0.0"
     inkscape:pagecheckerboard="0"
     inkscape:deskcolor="#d1d1d1"
     inkscape:document-units="mm"
     inkscape:zoom="0.11313708"
     inkscape:cx="1679.3786"
     inkscape:cy="1179.9844"
     inkscape:window-width="1916"
     inkscape:window-height="1037"
     inkscape:window-x="0"
     inkscape:window-y="0"
     inkscape:window-maximized="1"
     inkscape:current-layer="layer1"
     showgrid="false"
     showguides="true"
     inkscape:guide-bbox="true" />
  <defs
     id="defs1" />
  <g
     inkscape:label="Calque 1"
     inkscape:groupmode="layer"
     id="layer1"
     transform="translate(238.75662,-4.7321519)">
    <path
       style="fill:#ccffaa;fill-opacity:1;stroke:none;stroke-width:1.08526;stroke-linecap:round;stroke-linejoin:bevel;stroke-miterlimit:4;stroke-dasharray:none;stroke-dashoffset:0;stroke-opacity:1"
       d="m 1.11549,39.445134 c 4.25268,-3.776087 15.84852,-17.306816 19.90082,-18.777056 3.31328,-1.202126 5.7975,-2.34883 10.9842,-2.421488 5.61533,-0.07842 7.24295,-0.204324 16.3173,1.988409 9.55666,2.30929 11.79863,2.534731 16.91882,2.194334 3.91159,-0.260042 10.88403,-4.71921 13.45006,-5.783632 l 3.75586,-3.031302 -3.81495,0.159525 C 65.03741,14.342209 55.59115,11.868281 44.3699,9.2913862 24.42098,4.7102394 19.14084,7.145821 12.19584,15.031706 9.26532,18.359247 -1.74134,40.627304 -1.25559,41.101331 c 0.13254,0.129351 1.19954,-0.615958 2.37108,-1.656197 z"
       id="path1206-9"
       inkscape:connector-curvature="0"
       sodipodi:nodetypes="sscccccsssss" />
    <path
       style="fill:#e3f4d7;fill-opacity:1;stroke:none;stroke-width:1.53479;stroke-linecap:round;stroke-linejoin:bevel;stroke-miterlimit:4;stroke-dasharray:none;stroke-dashoffset:0;stroke-opacity:1"
       d="m 39.09271,123.73405 c 28.04621,-13.88428 38.00903,-35.842639 42.11354,-92.819379 0.55171,-7.658466 1.40182,-17.138789 1.2363,-17.300272 -0.1657,-0.161483 -3.0519,2.693442 -4.57525,3.613405 -4.03894,2.439118 -10.13444,5.288947 -14.96744,5.363489 -2.31898,0.03576 -8.88088,-1.024564 -14.58205,-2.356294 C 28.46629,15.597871 21.43736,17.46571 8.81512,30.732303 4.95237,34.792205 0.75654,39.713514 -0.50896,41.668526 l -3.4445,6.042622 5.91248,5.450293 c 19.02347,17.536387 25.27613,40.093685 27.07217,65.224489 0.38426,5.37833 -1.07239,9.99972 -0.80089,9.99517 0.27154,-0.004 7.95669,-3.20856 10.86241,-4.64705 z"
       id="path1184-3"
       inkscape:connector-curvature="0"
       sodipodi:nodetypes="ccccsccccsccc" />
    <path
       sodipodi:nodetypes="ccc"
       inkscape:connector-curvature="0"
       id="path1145-06"
       d="M 28.230296,128.38109 C 59.178503,114.67513 79.339247,100.88642 82.442552,13.614399 31.238541,16.666302 19.90633,-17.529232 -3.9534623,47.711148"
       style="fill:none;stroke:#000000;stroke-width:2.11667;stroke-linecap:butt;stroke-linejoin:miter;stroke-miterlimit:4;stroke-dasharray:none;stroke-opacity:1" />
    <path
       sodipodi:nodetypes="cc"
       inkscape:connector-curvature="0"
       id="path1147-2"
       d="M -3.9534623,47.711148 C 34.09027,-9.854783 49.515104,42.771469 82.442552,13.614396"
       style="fill:none;stroke:#000000;stroke-width:2.11667;stroke-linecap:butt;stroke-linejoin:miter;stroke-miterlimit:4;stroke-dasharray:none;stroke-opacity:1" />
    <path
       style="fill:#ccffaa;fill-opacity:1;stroke:none;stroke-width:1.08526;stroke-linecap:round;stroke-linejoin:bevel;stroke-miterlimit:4;stroke-dasharray:none;stroke-dashoffset:0;stroke-opacity:1"
       d="m -156.60767,37.631437 c -4.25268,-3.776087 -15.84852,-17.306816 -19.90082,-18.777056 -3.31328,-1.202126 -5.7975,-2.34883 -10.9842,-2.421488 -5.61533,-0.07842 -7.24295,-0.204324 -16.3173,1.988409 -9.55666,2.30929 -11.79863,2.534731 -16.91882,2.194334 -3.91159,-0.260042 -10.88403,-4.71921 -13.45006,-5.783632 l -3.75586,-3.031302 3.81495,0.159525 c 13.59019,0.568285 23.03645,-1.905643 34.2577,-4.4825378 19.94892,-4.5811468 25.22906,-2.1455652 32.17406,5.7403198 2.93052,3.327541 13.93718,25.595598 13.45143,26.069625 -0.13254,0.129351 -1.19954,-0.615958 -2.37108,-1.656197 z"
       id="path1206"
       inkscape:connector-curvature="0"
       sodipodi:nodetypes="sscccccsssss" />
    <path
       style="fill:#e3f4d7;fill-opacity:1;stroke:none;stroke-width:1.53479;stroke-linecap:round;stroke-linejoin:bevel;stroke-miterlimit:4;stroke-dasharray:none;stroke-dashoffset:0;stroke-opacity:1"
       d="m -194.58489,121.92035 c -28.04621,-13.88428 -38.00903,-35.842636 -42.11354,-92.819376 -0.55171,-7.658466 -1.40182,-17.138789 -1.2363,-17.300272 0.1657,-0.161483 3.0519,2.693442 4.57525,3.613405 4.03894,2.439118 10.13444,5.288947 14.96744,5.363489 2.31898,0.03576 8.88088,-1.024564 14.58205,-2.356294 19.85152,-4.637128 26.88045,-2.769289 39.50269,10.497304 3.86275,4.059902 8.05858,8.981211 9.32408,10.936223 l 3.4445,6.042622 -5.91248,5.450293 c -19.02347,17.536387 -25.27613,40.093685 -27.07217,65.224486 -0.38426,5.37833 -0.92099,9.77504 -1.19249,9.77049 -0.27154,-0.004 -5.96331,-2.98388 -8.86903,-4.42237 z"
       id="path1184"
       inkscape:connector-curvature="0"
       sodipodi:nodetypes="ccccsccccsccc" />
    <path
       sodipodi:nodetypes="ccc"
       inkscape:connector-curvature="0"
       id="path1145"
       d="m -185.22626,126.56002 c -30.94821,-13.70596 -49.60517,-27.487302 -52.70847,-114.759318 51.20401,3.051903 62.53622,-31.143631 86.39601,34.096749"
       style="fill:none;stroke:#000000;stroke-width:2.11667;stroke-linecap:butt;stroke-linejoin:miter;stroke-miterlimit:4;stroke-dasharray:none;stroke-opacity:1" />
    <path
       sodipodi:nodetypes="cc"
       inkscape:connector-curvature="0"
       id="path1147"
       d="m -151.53872,45.897451 c -38.04373,-57.565931 -53.46856,-4.939679 -86.39601,-34.096752"
       style="fill:none;stroke:#000000;stroke-width:2.11667;stroke-linecap:butt;stroke-linejoin:miter;stroke-miterlimit:4;stroke-dasharray:none;stroke-opacity:1" />
    <path
       sodipodi:nodetypes="ccccc"
       inkscape:connector-curvature="0"
       id="path1135-6"
       d="m -92.933929,111.10711 14.335231,-8.64656 14.225543,9.12201 -14.506903,6.78549 z"
       style="fill:#000000;stroke:#e5e5e5;stroke-width:5.82083;stroke-linecap:butt;stroke-linejoin:miter;stroke-miterlimit:8.5;stroke-dasharray:none;stroke-opacity:1" />
    <rect
       style="fill:#000000;fill-opacity:1;stroke:#e5e5e5;stroke-width:5.82083;stroke-linejoin:bevel;stroke-miterlimit:8.5;stroke-dasharray:none;stroke-dashoffset:0;stroke-opacity:1"
       id="rect829-0-9-0-3-3-3"
       width="40.329117"
       height="36.554741"
       x="-53.237991"
       y="70.359192"
       ry="18.27737"
       rx="20.164558"
       transform="matrix(0.99988108,0.01542168,-0.01523041,0.99988401,0,0)" />
    <rect
       style="fill:#ffffff;fill-opacity:1;stroke:#e5e5e5;stroke-width:5.82083;stroke-linejoin:bevel;stroke-miterlimit:8.5;stroke-dasharray:none;stroke-dashoffset:0;stroke-opacity:1"
       id="rect829-0-9-3-62-2-5-3"
       width="21.62413"
       height="19.600346"
       x="-49.375427"
       y="73.827171"
       ry="9.8001728"
       rx="10.812065"
       transform="matrix(0.99988108,0.01542168,-0.01523041,0.99988401,0,0)" />
    <rect
       style="fill:#ffffff;fill-opacity:1;stroke:#e5e5e5;stroke-width:5.82083;stroke-linejoin:bevel;stroke-miterlimit:8.5;stroke-dasharray:none;stroke-dashoffset:0;stroke-opacity:1"
       id="rect829-0-9-3-6-6-0-6-4"
       width="9.5088348"
       height="8.6189098"
       x="-27.751308"
       y="93.427513"
       ry="4.3094549"
       rx="4.7544174"
       transform="matrix(0.99988108,0.01542168,-0.01523041,0.99988401,0,0)" />
    <rect
       style="fill:#000000;fill-opacity:1;stroke:#e5e5e5;stroke-width:5.82083;stroke-linejoin:bevel;stroke-miterlimit:8.5;stroke-dasharray:none;stroke-dashoffset:0;stroke-opacity:1"
       id="rect829-0-9-0-3-3-4-4"
       width="40.329117"
       height="36.554741"
       x="-142.31384"
       y="70.50106"
       ry="18.27737"
       rx="20.164558"
       transform="matrix(0.99988108,0.01542168,-0.01523041,0.99988401,0,0)" />
    <rect
       style="fill:#ffffff;fill-opacity:1;stroke:#e5e5e5;stroke-width:5.82083;stroke-linejoin:bevel;stroke-miterlimit:8.5;stroke-dasharray:none;stroke-dashoffset:0;stroke-opacity:1"
       id="rect829-0-9-3-62-2-5-2-3"
       width="21.62413"
       height="19.600346"
       x="-138.45128"
       y="73.969048"
       ry="9.8001728"
       rx="10.812065"
       transform="matrix(0.99988108,0.01542168,-0.01523041,0.99988401,0,0)" />
    <rect
       style="fill:#ffffff;fill-opacity:1;stroke:#e5e5e5;stroke-width:5.82083;stroke-linejoin:bevel;stroke-miterlimit:8.5;stroke-dasharray:none;stroke-dashoffset:0;stroke-opacity:1"
       id="rect829-0-9-3-6-6-0-6-9-9"
       width="9.5088358"
       height="8.6189098"
       x="-116.82716"
       y="93.569389"
       ry="4.3094549"
       rx="4.7544179"
       transform="matrix(0.99988108,0.01542168,-0.01523041,0.99988401,0,0)" />
    <path
       sodipodi:nodetypes="ccc"
       inkscape:connector-curvature="0"
       id="path974-3"
       d="m -78.00757,134.29684 -0.08217,13.92591 c -10.356776,5.77996 -2.170672,15.44816 -0.08991,7.9253"
       style="fill:none;stroke:#e5e5e5;stroke-width:5.82083;stroke-linecap:round;stroke-linejoin:miter;stroke-miterlimit:8.5;stroke-dasharray:none;stroke-opacity:1" />
    <path
       sodipodi:nodetypes="cc"
       inkscape:connector-curvature="0"
       id="path974-4-8"
       d="m -78.089744,148.22275 c 10.356776,5.77996 2.170672,15.44816 0.08991,7.9253"
       style="fill:none;stroke:#e5e5e5;stroke-width:5.82083;stroke-linecap:round;stroke-linejoin:miter;stroke-miterlimit:8.5;stroke-dasharray:none;stroke-opacity:1" />
    <path
       inkscape:connector-curvature="0"
       id="path1029-5"
       d="m -81.085757,157.74258 c -1.034661,-0.64646 -1.38613,-2.64268 -0.758762,-4.3095 0.41141,-1.09304 1.128438,-2.05427 2.218066,-2.97347 1.435555,-1.21101 1.463468,-1.21883 2.283909,-0.63941 2.480657,1.75189 3.700931,4.13797 3.234624,6.32487 -0.141694,0.66452 -0.728232,1.54602 -1.153173,1.73309 -0.590453,0.25994 -1.259326,-0.41831 -1.657278,-1.68051 -0.207992,-0.6597 -0.58111,-0.96356 -1.179572,-0.96063 -0.613734,0.003 -0.881734,0.25353 -1.251965,1.17033 -0.601149,1.48862 -0.999694,1.79518 -1.735849,1.33523 z"
       style="fill:#55d400;fill-opacity:1;stroke:#e5e5e5;stroke-width:5.82082;stroke-linecap:round;stroke-linejoin:bevel;stroke-miterlimit:8.5;stroke-dasharray:none;stroke-dashoffset:0;stroke-opacity:1" />
    <ellipse
       ry="3.2436669"
       rx="3.388412"
       cy="30.414778"
       cx="-183.57668"
       id="path1238-1-5-4-7"
       style="fill:#55d400;fill-opacity:1;stroke:#e5e5e5;stroke-width:5.82084;stroke-linecap:round;stroke-linejoin:bevel;stroke-miterlimit:4;stroke-dasharray:none;stroke-dashoffset:0;stroke-opacity:1"
       transform="matrix(0.99988108,0.01542168,-0.01523041,0.99988401,0,0)" />
    <ellipse
       ry="0.81062776"
       rx="0.8468011"
       cy="33.034344"
       cx="-179.44907"
       id="path1238-1-4-8-8-4"
       style="fill:#55d400;fill-opacity:1;stroke:#e5e5e5;stroke-width:5.82084;stroke-linecap:round;stroke-linejoin:bevel;stroke-miterlimit:4;stroke-dasharray:none;stroke-dashoffset:0;stroke-opacity:1"
       transform="matrix(0.99988108,0.01542168,-0.01523041,0.99988401,0,0)" />
    <path
       style="fill:#ccffaa;fill-opacity:1;stroke:none;stroke-width:1.53479;stroke-linecap:round;stroke-linejoin:bevel;stroke-miterlimit:4;stroke-dasharray:none;stroke-dashoffset:0;stroke-opacity:1"
       d="m -98.753693,214.98158 c 0,-1.36062 -43.991387,-13.39345 -59.462107,-31.00238 -29.53572,-33.61787 -36.93462,-71.35528 -17.82804,-108.081567 12.55728,-24.532429 34.99624,-42.804587 63.05168,-51.343319 12.6367,-3.846011 21.497508,-5.079974 35.210526,-4.903457 19.199107,0.247159 34.127604,3.738206 49.997074,11.691923 12.4856,6.257718 20.101138,11.844159 29.7435814,21.818661 18.6008446,19.241387 27.4730906,41.067842 27.0837626,66.628079 -0.395907,25.99093 -11.794024,48.68792 -31.2162114,67.91182 -14.4666226,14.31893 -33.6082496,21.81964 -54.5369286,27.15892 -8.64556,2.20564 -42.043337,0.21708 -42.043337,0.12131 z"
       id="path1182"
       inkscape:connector-curvature="0"
       sodipodi:nodetypes="sscsssssssss" />
    <ellipse
       style="fill:none;fill-opacity:1;stroke:#000000;stroke-width:2.11667;stroke-linecap:round;stroke-linejoin:bevel;stroke-miterlimit:4;stroke-dasharray:none;stroke-dashoffset:0;stroke-opacity:1"
       id="path1069"
       cx="-76.62484"
       cy="119.22169"
       rx="107.22849"
       ry="98.33593"
       transform="matrix(0.99988108,0.01542168,-0.01523041,0.99988401,0,0)" />
    <path
       sodipodi:nodetypes="ccccc"
       inkscape:connector-curvature="0"
       id="path1135"
       d="m -92.933929,111.10711 14.335231,-8.64656 14.225543,9.12201 -14.506903,6.78549 z"
       style="fill:#000000;stroke:#000000;stroke-width:2.11667;stroke-linecap:butt;stroke-linejoin:miter;stroke-miterlimit:4;stroke-dasharray:none;stroke-opacity:1" />
    <rect
       style="fill:#000000;fill-opacity:1;stroke:#000000;stroke-width:2.11667;stroke-linejoin:bevel;stroke-miterlimit:10;stroke-dasharray:none;stroke-dashoffset:0;stroke-opacity:0.743719"
       id="rect829-0-9-0-3-3"
       width="40.329117"
       height="36.554741"
       x="-53.237991"
       y="70.359192"
       ry="18.27737"
       rx="20.164558"
       transform="matrix(0.99988108,0.01542168,-0.01523041,0.99988401,0,0)" />
    <rect
       style="fill:#ffffff;fill-opacity:1;stroke:#ffffff;stroke-width:0.298163;stroke-linejoin:bevel;stroke-miterlimit:10;stroke-dasharray:none;stroke-dashoffset:0;stroke-opacity:0.743719"
       id="rect829-0-9-3-62-2-5"
       width="21.62413"
       height="19.600346"
       x="-49.375427"
       y="73.827171"
       ry="9.8001728"
       rx="10.812065"
       transform="matrix(0.99988108,0.01542168,-0.01523041,0.99988401,0,0)" />
    <rect
       style="fill:#ffffff;fill-opacity:1;stroke:#ffffff;stroke-width:0.131112;stroke-linejoin:bevel;stroke-miterlimit:10;stroke-dasharray:none;stroke-dashoffset:0;stroke-opacity:0.743719"
       id="rect829-0-9-3-6-6-0-6"
       width="9.5088348"
       height="8.6189098"
       x="-27.751308"
       y="93.427513"
       ry="4.3094549"
       rx="4.7544174"
       transform="matrix(0.99988108,0.01542168,-0.01523041,0.99988401,0,0)" />
    <rect
       style="fill:#000000;fill-opacity:1;stroke:#000000;stroke-width:2.11667;stroke-linejoin:bevel;stroke-miterlimit:10;stroke-dasharray:none;stroke-dashoffset:0;stroke-opacity:0.743719"
       id="rect829-0-9-0-3-3-4"
       width="40.329117"
       height="36.554741"
       x="-142.31384"
       y="70.50106"
       ry="18.27737"
       rx="20.164558"
       transform="matrix(0.99988108,0.01542168,-0.01523041,0.99988401,0,0)" />
    <rect
       style="fill:#ffffff;fill-opacity:1;stroke:#ffffff;stroke-width:0.298163;stroke-linejoin:bevel;stroke-miterlimit:10;stroke-dasharray:none;stroke-dashoffset:0;stroke-opacity:0.743719"
       id="rect829-0-9-3-62-2-5-2"
       width="21.62413"
       height="19.600346"
       x="-138.45128"
       y="73.969048"
       ry="9.8001728"
       rx="10.812065"
       transform="matrix(0.99988108,0.01542168,-0.01523041,0.99988401,0,0)" />
    <rect
       style="fill:#ffffff;fill-opacity:1;stroke:#ffffff;stroke-width:0.131112;stroke-linejoin:bevel;stroke-miterlimit:10;stroke-dasharray:none;stroke-dashoffset:0;stroke-opacity:0.743719"
       id="rect829-0-9-3-6-6-0-6-9"
       width="9.5088358"
       height="8.6189098"
       x="-116.82716"
       y="93.569389"
       ry="4.3094549"
       rx="4.7544179"
       transform="matrix(0.99988108,0.01542168,-0.01523041,0.99988401,0,0)" />
    <ellipse
       ry="0.81062776"
       rx="0.8468011"
       cy="101.669"
       cx="42.040661"
       id="path1238-1-4-8"
       style="fill:#55d400;fill-opacity:1;stroke:none;stroke-width:0.166489;stroke-linecap:round;stroke-linejoin:bevel;stroke-miterlimit:4;stroke-dasharray:none;stroke-dashoffset:0;stroke-opacity:1"
       transform="matrix(0.99988108,0.01542168,-0.01523041,0.99988401,0,0)" />
    <ellipse
       ry="1.6768835"
       rx="1.7517124"
       cy="104.55724"
       cx="39.092148"
       id="path1238-1-4-9-7"
       style="fill:#55d400;fill-opacity:1;stroke:none;stroke-width:0.344403;stroke-linecap:round;stroke-linejoin:bevel;stroke-miterlimit:4;stroke-dasharray:none;stroke-dashoffset:0;stroke-opacity:1"
       transform="matrix(0.99988108,0.01542168,-0.01523041,0.99988401,0,0)" />
    <ellipse
       ry="3.2436669"
       rx="3.388412"
       cy="30.414778"
       cx="-183.57668"
       id="path1238-1-5-4"
       style="fill:#55d400;fill-opacity:1;stroke:none;stroke-width:0.666192;stroke-linecap:round;stroke-linejoin:bevel;stroke-miterlimit:4;stroke-dasharray:none;stroke-dashoffset:0;stroke-opacity:1"
       transform="matrix(0.99988108,0.01542168,-0.01523041,0.99988401,0,0)" />
    <ellipse
       ry="0.81062776"
       rx="0.8468011"
       cy="33.034344"
       cx="-179.44907"
       id="path1238-1-4-8-8"
       style="fill:#55d400;fill-opacity:1;stroke:none;stroke-width:0.166489;stroke-linecap:round;stroke-linejoin:bevel;stroke-miterlimit:4;stroke-dasharray:none;stroke-dashoffset:0;stroke-opacity:1"
       transform="matrix(0.99988108,0.01542168,-0.01523041,0.99988401,0,0)" />
  </g>
</svg>
