<?xml version="1.0" encoding="UTF-8" standalone="no"?>
<!-- Created with Inkscape (http://www.inkscape.org/) -->

<svg
   width="271.70508"
   height="316.55078"
   viewBox="0 0 71.888633 83.754061"
   version="1.1"
   id="svg8"
   inkscape:version="1.3 (0e150ed6c4, 2023-07-21)"
   sodipodi:docname="drawing.svg"
   xml:space="preserve"
   xmlns:inkscape="http://www.inkscape.org/namespaces/inkscape"
   xmlns:sodipodi="http://sodipodi.sourceforge.net/DTD/sodipodi-0.dtd"
   xmlns="http://www.w3.org/2000/svg"
   xmlns:svg="http://www.w3.org/2000/svg"
   xmlns:rdf="http://www.w3.org/1999/02/22-rdf-syntax-ns#"
   xmlns:cc="http://creativecommons.org/ns#"
   xmlns:dc="http://purl.org/dc/elements/1.1/"><defs
     id="defs2" /><sodipodi:namedview
     id="base"
     pagecolor="#ffffff"
     bordercolor="#666666"
     borderopacity="1.0"
     inkscape:pageopacity="0.0"
     inkscape:pageshadow="2"
     inkscape:zoom="0.17080715"
     inkscape:cx="1106.5111"
     inkscape:cy="2139.8402"
     inkscape:document-units="mm"
     inkscape:current-layer="g13"
     showgrid="false"
     units="px"
     inkscape:window-width="1916"
     inkscape:window-height="1037"
     inkscape:window-x="0"
     inkscape:window-y="0"
     inkscape:window-maximized="1"
     inkscape:showpageshadow="2"
     inkscape:pagecheckerboard="0"
     inkscape:deskcolor="#d1d1d1" /><metadata
     id="metadata5"><rdf:RDF><cc:Work
         rdf:about=""><dc:format>image/svg+xml</dc:format><dc:type
           rdf:resource="http://purl.org/dc/dcmitype/StillImage" /></cc:Work></rdf:RDF></metadata><g
     inkscape:groupmode="layer"
     id="layer2"
     inkscape:label="hud"
     style="display:inline"
     transform="translate(-549.89046,-391.28879)"><g
       id="g13"
       style="display:inline"
       inkscape:label="upgrades"
       transform="translate(0,18.417901)"><path
         id="rect343"
         style="color:#000000;fill:#d5f6e5;fill-opacity:1;stroke-linecap:round;stroke-linejoin:round;-inkscape-stroke:none"
         d="m 554.49019,372.87088 c -2.52146,0 -4.59972,2.07826 -4.59972,4.59972 v 62.68764 c 0,2.52146 2.07826,4.60127 4.59972,4.60127 h 62.68971 c 2.52146,0 4.5992,-2.07981 4.5992,-4.60127 V 377.4706 c 0,-2.52146 -2.07774,-4.59972 -4.5992,-4.59972 z m 0,3.17396 h 62.68971 c 0.81743,0 1.42575,0.60833 1.42575,1.42576 v 62.68764 c 0,0.81743 -0.60832,1.42576 -1.42575,1.42576 h -62.68971 c -0.81743,0 -1.42576,-0.60833 -1.42576,-1.42576 V 377.4706 c 0,-0.81743 0.60833,-1.42576 1.42576,-1.42576 z m 50.88681,10.18181 a 1.5875,1.5875 0 0 0 -1.58801,1.58802 v 21.1031 h -17.66973 -17.66817 v -20.80441 a 1.5875,1.5875 0 0 0 -1.58802,-1.58595 1.5875,1.5875 0 0 0 -1.5875,1.58595 v 22.39243 a 1.5876587,1.5876587 0 0 0 1.5875,1.58595 h 17.67024 v 18.80092 a 1.5875,1.5875 0 0 0 1.58595,1.58595 1.5875,1.5875 0 0 0 1.58802,-1.58595 V 412.09174 H 605.377 a 1.5876587,1.5876587 0 0 0 1.58595,-1.58595 v -22.69112 a 1.5875,1.5875 0 0 0 -1.58595,-1.58802 z m -47.44981,61.91663 c -1.34281,0 -2.69018,0.40281 -3.60237,1.2082 -0.91097,0.80227 -1.3224,1.90942 -1.3224,3.03547 0,1.12575 0.4127,2.23175 1.3224,3.03496 a 1.7450592,1.4444554 0 0 0 0.003,0.002 c 0.91319,0.80239 2.25869,1.20148 3.59979,1.20148 0.54251,0 1.08251,-0.0617 1.59938,-0.19224 0.51555,-0.12954 1.00746,-0.32637 1.45366,-0.57722 a 1.7450592,1.4444554 0 0 0 0.76429,-1.19425 v -0.76222 a 1.7450592,1.4444554 0 0 0 -2.9347,-1.0573 c -0.16027,0.12355 -0.29339,0.19124 -0.41651,0.23254 a 1.7450592,1.4444554 0 0 0 -0.005,0 c -0.12133,0.041 -0.24199,0.0641 -0.4098,0.0641 -0.38605,0 -0.35337,-0.0326 -0.39067,-0.0693 -0.0421,-0.0406 -0.16743,-0.19634 -0.16743,-0.68213 0,-0.49137 0.12698,-0.64971 0.16329,-0.68419 a 1.7450592,1.4444554 0 0 0 0.004,-0.004 c 0.0408,-0.0389 0.003,-0.0677 0.39067,-0.0677 0.16781,0 0.28899,0.021 0.41031,0.062 a 1.7450592,1.4444554 0 0 0 0.004,0.002 c 0.12312,0.0413 0.25624,0.10745 0.41651,0.231 a 1.7450592,1.4444554 0 0 0 2.9347,-1.0573 v -0.76947 a 1.7450592,1.4444554 0 0 0 -0.76222,-1.19217 c -0.44417,-0.25099 -0.93565,-0.44371 -1.45108,-0.57051 -0.51826,-0.13048 -1.05898,-0.19379 -1.60352,-0.19379 z m 18.13584,0 c -1.30573,0 -2.62789,0.43732 -3.49901,1.24231 a 1.7450592,1.4444554 0 0 0 0,0.002 c -0.87176,0.80603 -1.26452,1.89193 -1.26452,2.99981 0,1.10789 0.39275,2.19327 1.26452,2.9993 a 1.7450592,1.4444554 0 0 0 0.002,0.004 c 0.87214,0.80211 2.19306,1.23507 3.49695,1.23507 1.3022,0 2.6199,-0.43541 3.48867,-1.23869 a 1.7450592,1.4444554 0 0 0 0.004,-0.002 c 0.86829,-0.80664 1.26245,-1.89155 1.26245,-2.99775 0,-1.10788 -0.39483,-2.19378 -1.26659,-2.99981 -0.86779,-0.80426 -2.1857,-1.24386 -3.48815,-1.24386 z m 15.16703,0 c -1.34077,0 -2.68611,0.40163 -3.59823,1.20458 -6.9e-4,6.1e-4 -9.7e-4,10e-4 -0.002,0.002 -0.91187,0.80235 -1.32446,1.91044 -1.32446,3.03702 0,1.12576 0.41268,2.23175 1.3224,3.03496 a 1.7450592,1.4444554 0 0 0 0.004,0.002 c 0.91318,0.80239 2.25715,1.20148 3.59823,1.20148 0.54253,0 1.08458,-0.0617 1.60145,-0.19224 0.51556,-0.12954 1.00488,-0.32637 1.45108,-0.57722 a 1.7450592,1.4444554 0 0 0 0.76636,-1.19425 v -0.76222 a 1.7450592,1.4444554 0 0 0 -2.9347,-1.0573 c -0.16027,0.12355 -0.29546,0.19124 -0.41858,0.23254 a 1.7450592,1.4444554 0 0 0 -0.004,0 c -0.12132,0.041 -0.23991,0.0641 -0.40772,0.0641 -0.38604,0 -0.35337,-0.0326 -0.39068,-0.0693 -0.042,-0.0406 -0.16795,-0.19634 -0.16795,-0.68213 0,-0.49137 0.12699,-0.64971 0.1633,-0.68419 a 1.7450592,1.4444554 0 0 0 0.005,-0.004 c 0.0408,-0.0389 0.003,-0.0677 0.39068,-0.0677 0.16781,0 0.2864,0.021 0.40772,0.062 a 1.7450592,1.4444554 0 0 0 0.005,0.002 c 0.12313,0.0413 0.25832,0.10745 0.41858,0.231 a 1.7450592,1.4444554 0 0 0 2.93471,-1.0573 v -0.76947 a 1.7450592,1.4444554 0 0 0 -0.76223,-1.19217 c -0.44416,-0.25099 -0.93564,-0.44371 -1.45107,-0.57051 -0.51827,-0.13048 -1.06156,-0.19379 -1.60611,-0.19379 z m -27.19937,0.0977 a 1.7450592,1.4444554 0 0 0 -1.74563,1.44488 v 5.3914 a 1.7450592,1.4444554 0 0 0 1.74563,1.44435 h 0.88005 a 1.7450592,1.4444554 0 0 0 1.60145,-1.3255 1.7450592,1.4444554 0 0 0 1.60145,1.3255 h 0.88005 a 1.7450592,1.4444554 0 0 0 1.74563,-1.44435 v -5.3914 a 1.7450592,1.4444554 0 0 0 -1.74563,-1.44488 h -0.88005 a 1.7450592,1.4444554 0 0 0 -1.60145,1.3255 1.7450592,1.4444554 0 0 0 -1.60145,-1.3255 z m 19.09082,0 a 1.7450592,1.4444554 0 0 0 -1.74511,1.44488 v 5.3914 a 1.7450592,1.4444554 0 0 0 1.74511,1.44435 h 0.88057 a 1.7450592,1.4444554 0 0 0 1.74511,-1.44435 v -5.3914 a 1.7450592,1.4444554 0 0 0 -1.74511,-1.44488 z m 14.21154,0 a 1.7450592,1.4444554 0 0 0 -1.74305,1.44488 v 5.3914 a 1.7450592,1.4444554 0 0 0 1.74305,1.44435 h 4.19716 a 1.7450592,1.4444554 0 0 0 1.74511,-1.44435 v -0.61495 a 1.7450592,1.4444554 0 0 0 -1.28571,-1.06454 1.7450592,1.4444554 0 0 0 1.07332,-0.88831 v -0.61495 a 1.7450592,1.4444554 0 0 0 -0.89762,-0.74104 1.7450592,1.4444554 0 0 0 1.03301,-0.85473 v -0.61288 a 1.7450592,1.4444554 0 0 0 -1.74563,-1.44488 z m 16.32613,0.75551 a 1.7450592,1.4444554 0 0 0 -1.74511,1.44281 v 0.56844 h -0.68471 a 1.7450592,1.4444554 0 0 0 -1.74563,1.44281 v 0.61494 a 1.7450592,1.4444554 0 0 0 1.74563,1.44488 h 0.68471 v 0.56689 a 1.7450592,1.4444554 0 0 0 1.74511,1.44435 h 0.73226 a 1.7450592,1.4444554 0 0 0 1.74511,-1.44435 v -0.56689 h 0.68471 a 1.7450592,1.4444554 0 0 0 1.74563,-1.44488 v -0.61494 a 1.7450592,1.4444554 0 0 0 -1.74563,-1.44281 h -0.68471 v -0.56844 a 1.7450592,1.4444554 0 0 0 -1.74511,-1.44281 z m -37.47574,2.61741 c 3.9e-4,-4.7e-4 -0.0158,0.009 0.0212,0.0481 a 1.7450592,1.4444554 0 0 0 0.005,0.004 c 0.0737,0.0775 0.18862,0.25957 0.18862,0.7214 0,0.45864 -0.1139,0.63915 -0.18862,0.71779 a 1.7450592,1.4444554 0 0 0 -0.005,0.004 c -0.074,0.0784 0.0646,0.0372 -0.14159,0.0372 -0.20297,0 -0.086,0.0344 -0.15865,-0.0444 -0.0747,-0.0792 -0.18707,-0.25793 -0.18707,-0.71417 0,-0.46074 0.11546,-0.64203 0.18914,-0.71985 0.0673,-0.0751 -0.0439,-0.0424 0.15658,-0.0424 v -5.2e-4 c 0.10313,0 0.12001,-0.01 0.12041,-0.0103 z"
         inkscape:export-filename="up_choice_normal.svg"
         inkscape:export-xdpi="200"
         inkscape:export-ydpi="200" /></g></g></svg>
