<?xml version="1.0" encoding="UTF-8" standalone="no"?>
<!-- Created with Inkscape (http://www.inkscape.org/) -->

<svg
   width="271.71289"
   height="316.55664"
   viewBox="0 0 71.8907 83.755611"
   version="1.1"
   id="svg8"
   inkscape:version="1.3 (0e150ed6c4, 2023-07-21)"
   sodipodi:docname="drawing.svg"
   xml:space="preserve"
   xmlns:inkscape="http://www.inkscape.org/namespaces/inkscape"
   xmlns:sodipodi="http://sodipodi.sourceforge.net/DTD/sodipodi-0.dtd"
   xmlns="http://www.w3.org/2000/svg"
   xmlns:svg="http://www.w3.org/2000/svg"
   xmlns:rdf="http://www.w3.org/1999/02/22-rdf-syntax-ns#"
   xmlns:cc="http://creativecommons.org/ns#"
   xmlns:dc="http://purl.org/dc/elements/1.1/"><defs
     id="defs2" /><sodipodi:namedview
     id="base"
     pagecolor="#ffffff"
     bordercolor="#666666"
     borderopacity="1.0"
     inkscape:pageopacity="0.0"
     inkscape:pageshadow="2"
     inkscape:zoom="0.6832286"
     inkscape:cx="1434.3662"
     inkscape:cy="1729.2894"
     inkscape:document-units="mm"
     inkscape:current-layer="g13"
     showgrid="false"
     units="px"
     inkscape:window-width="1916"
     inkscape:window-height="1037"
     inkscape:window-x="0"
     inkscape:window-y="0"
     inkscape:window-maximized="1"
     inkscape:showpageshadow="2"
     inkscape:pagecheckerboard="0"
     inkscape:deskcolor="#d1d1d1" /><metadata
     id="metadata5"><rdf:RDF><cc:Work
         rdf:about=""><dc:format>image/svg+xml</dc:format><dc:type
           rdf:resource="http://purl.org/dc/dcmitype/StillImage" /></cc:Work></rdf:RDF></metadata><g
     inkscape:groupmode="layer"
     id="layer2"
     inkscape:label="hud"
     style="display:inline"
     transform="translate(-400.61534,-392.41275)"><g
       id="g13"
       style="display:inline"
       inkscape:label="upgrades"
       transform="translate(0,18.417901)"><path
         id="path614"
         style="color:#000000;fill:#d5f6e5;fill-opacity:1;stroke-linecap:round;stroke-linejoin:round;-inkscape-stroke:none"
         d="m 405.21661,373.99484 c -2.52146,0 -4.60127,2.07982 -4.60127,4.60127 v 62.68765 c 0,2.52145 2.07981,4.59971 4.60127,4.59971 h 62.68765 c 2.52145,0 4.60178,-2.07826 4.60178,-4.59971 v -62.68765 c 0,-2.52145 -2.08033,-4.60127 -4.60178,-4.60127 z m 59.28217,75.27396 c -0.3634,0 -0.73185,0.0256 -1.10381,0.0744 a 1.7450592,1.4444554 0 0 0 -0.002,0 c -0.36701,0.0486 -0.74118,0.11838 -1.12913,0.20774 a 1.7450592,1.4444554 0 0 0 -1.27744,1.39165 v 0.65009 a 1.7450592,1.4444554 0 0 0 1.16789,1.22783 1.7450592,1.4444554 0 0 0 -0.23823,0.19895 v 0.59893 a 1.7450592,1.4444554 0 0 0 0.56276,0.46561 1.7450592,1.4444554 0 0 0 -1.68982,1.24953 v 0.70539 a 1.7450592,1.4444554 0 0 0 1.16995,1.3627 c 0.38066,0.11001 0.76111,0.19603 1.14412,0.25425 0.003,4.4e-4 0.005,-4.4e-4 0.009,0 10e-4,2.3e-4 0.004,0.002 0.005,0.002 0.38506,0.06 0.77249,0.0925 1.1591,0.0925 1.06568,0 2.12089,-0.19095 2.9714,-0.75138 0.84706,-0.55813 1.32034,-1.50208 1.32033,-2.36523 0,-0.49572 -0.28513,-0.98748 -0.60978,-1.43763 0.19801,-0.36089 0.45734,-0.71421 0.45734,-1.08573 0,-0.79012 -0.487,-1.66216 -1.25626,-2.15749 -0.77054,-0.4983 -1.72692,-0.68368 -2.65978,-0.68368 z m -57.69622,0.0956 a 1.7450592,1.4444554 0 0 0 -1.74563,1.44487 v 5.3914 a 1.7450592,1.4444554 0 0 0 1.74563,1.44436 h 0.88212 a 1.7450592,1.4444554 0 0 0 1.59938,-1.3255 1.7450592,1.4444554 0 0 0 1.60145,1.3255 h 0.88212 a 1.7450592,1.4444554 0 0 0 1.74563,-1.44436 v -5.3914 a 1.7450592,1.4444554 0 0 0 -1.74563,-1.44487 h -0.88212 a 1.7450592,1.4444554 0 0 0 -1.60145,1.3255 1.7450592,1.4444554 0 0 0 -1.59938,-1.3255 z m 9.38754,0 a 1.7450592,1.4444554 0 0 0 -1.74305,1.44487 v 5.3914 a 1.7450592,1.4444554 0 0 0 1.74305,1.44436 h 4.19716 a 1.7450592,1.4444554 0 0 0 1.74511,-1.44436 v -0.0713 a 1.7450592,1.4444554 0 0 0 1.56735,1.51567 h 0.92914 a 1.7450592,1.4444554 0 0 0 1.64228,-0.96118 l 0.18242,-0.42116 h 0.47232 l 0.18035,0.42116 a 1.7450592,1.4444554 0 0 0 1.64486,0.96118 h 0.91622 a 1.7450592,1.4444554 0 0 0 1.62936,-1.95802 l -2.4815,-5.3914 a 1.7450592,1.4444554 0 0 0 -1.63143,-0.93121 h -0.99838 a 1.7450592,1.4444554 0 0 0 -1.62936,0.92966 l -2.43861,5.28081 a 1.7450592,1.4444554 0 0 0 -1.27331,-1.05368 1.7450592,1.4444554 0 0 0 1.07384,-0.88832 V 453.02 a 1.7450592,1.4444554 0 0 0 -0.89556,-0.74311 1.7450592,1.4444554 0 0 0 1.03043,-0.85266 v -0.61495 a 1.7450592,1.4444554 0 0 0 -1.74304,-1.44487 z m 17.09663,0 a 1.7450592,1.4444554 0 0 0 -1.74305,1.44487 v 5.3914 a 1.7450592,1.4444554 0 0 0 1.74305,1.44436 h 4.0535 a 1.7450592,1.4444554 0 0 0 1.74511,-1.44436 v -0.6134 a 1.7450592,1.4444554 0 0 0 -1.74511,-1.44435 h -1.42575 v -3.33365 a 1.7450592,1.4444554 0 0 0 -1.74512,-1.44487 z m 5.51543,0 a 1.7450592,1.4444554 0 0 0 -1.74563,1.44487 v 0.61495 a 1.7450592,1.4444554 0 0 0 1.74563,1.44281 h 0.56637 v 3.33364 a 1.7450592,1.4444554 0 0 0 1.74563,1.44436 h 0.88625 a 1.7450592,1.4444554 0 0 0 1.74356,-1.44436 v -3.33364 h 0.56896 a 1.7450592,1.4444554 0 0 0 1.74305,-1.44281 v -0.61495 a 1.7450592,1.4444554 0 0 0 -1.74305,-1.44487 z m 9.03097,0 a 1.7450592,1.4444554 0 0 0 -1.74511,1.44487 v 5.3914 a 1.7450592,1.4444554 0 0 0 1.74511,1.44436 h 0.88057 a 1.7450592,1.4444554 0 0 0 1.60145,-1.3255 1.7450592,1.4444554 0 0 0 1.60145,1.3255 h 0.88005 a 1.7450592,1.4444554 0 0 0 1.74511,-1.44436 v -5.3914 a 1.7450592,1.4444554 0 0 0 -1.74511,-1.44487 h -0.88005 a 1.7450592,1.4444554 0 0 0 -1.60145,1.3255 1.7450592,1.4444554 0 0 0 -1.60145,-1.3255 z" /></g></g></svg>
