<?xml version="1.0" encoding="UTF-8" standalone="no"?>
<!-- Created with Inkscape (http://www.inkscape.org/) -->

<svg
   width="271.71289"
   height="316.55273"
   viewBox="0 0 71.8907 83.754578"
   version="1.1"
   id="svg8"
   inkscape:version="1.3 (0e150ed6c4, 2023-07-21)"
   sodipodi:docname="drawing.svg"
   xml:space="preserve"
   xmlns:inkscape="http://www.inkscape.org/namespaces/inkscape"
   xmlns:sodipodi="http://sodipodi.sourceforge.net/DTD/sodipodi-0.dtd"
   xmlns="http://www.w3.org/2000/svg"
   xmlns:svg="http://www.w3.org/2000/svg"
   xmlns:rdf="http://www.w3.org/1999/02/22-rdf-syntax-ns#"
   xmlns:cc="http://creativecommons.org/ns#"
   xmlns:dc="http://purl.org/dc/elements/1.1/"><defs
     id="defs2" /><sodipodi:namedview
     id="base"
     pagecolor="#ffffff"
     bordercolor="#666666"
     borderopacity="1.0"
     inkscape:pageopacity="0.0"
     inkscape:pageshadow="2"
     inkscape:zoom="1.3664572"
     inkscape:cx="3102.9146"
     inkscape:cy="503.85771"
     inkscape:document-units="mm"
     inkscape:current-layer="g13"
     showgrid="false"
     units="px"
     inkscape:window-width="1916"
     inkscape:window-height="1037"
     inkscape:window-x="0"
     inkscape:window-y="0"
     inkscape:window-maximized="1"
     inkscape:showpageshadow="2"
     inkscape:pagecheckerboard="0"
     inkscape:deskcolor="#d1d1d1" /><metadata
     id="metadata5"><rdf:RDF><cc:Work
         rdf:about=""><dc:format>image/svg+xml</dc:format><dc:type
           rdf:resource="http://purl.org/dc/dcmitype/StillImage" /></cc:Work></rdf:RDF></metadata><g
     inkscape:groupmode="layer"
     id="layer2"
     inkscape:label="hud"
     style="display:inline"
     transform="translate(-872.14468,-84.874924)"><g
       id="g13"
       style="display:inline"
       inkscape:label="upgrades"
       transform="translate(0,18.417901)"><path
         id="path537"
         style="color:#000000;fill:#abedcc;stroke-linecap:round;stroke-linejoin:round;-inkscape-stroke:none"
         d="m 876.74597,66.457022 c -2.52146,0 -4.60127,2.078261 -4.60127,4.599719 v 62.687649 c 0,2.52145 2.07981,4.60127 4.60127,4.60127 h 62.68764 c 2.52146,0 4.60179,-2.07982 4.60179,-4.60127 V 71.056741 c 0,-2.521458 -2.08033,-4.599719 -4.60179,-4.599719 z m 0,3.173966 h 62.68764 c 0.81743,0 1.42576,0.608323 1.42576,1.425753 v 62.687649 c 0,0.81743 -0.60833,1.42575 -1.42576,1.42575 h -62.68764 c -0.81743,0 -1.42576,-0.60832 -1.42576,-1.42575 V 71.056741 c 0,-0.81743 0.60833,-1.425753 1.42576,-1.425753 z m 21.67206,4.61884 a 1.5875,1.5875 0 0 0 -1.11724,0.478523 1.5875,1.5875 0 0 0 0.0253,2.246375 l 0.81338,0.794783 -0.30437,0.304891 c -1.80514,-0.850257 -4.04339,-0.52447 -5.51233,0.970484 l -3.87521,3.943945 -5.20744,5.299418 c -1.46234,1.488251 -1.75033,3.718894 -0.8847,5.506641 l -1.84174,1.841748 a 1.5875,1.5875 0 0 0 0.002,2.246374 1.5875,1.5875 0 0 0 2.24431,-0.0021 l 1.8526,-1.853116 c 1.80507,0.849325 4.04142,0.525408 5.51026,-0.96945 l 5.20743,-5.299418 3.87522,-3.943946 c 1.46319,-1.489111 1.75528,-3.72117 0.8878,-5.508707 l 0.31729,-0.317811 0.85318,0.833541 a 1.5875,1.5875 0 0 0 2.24586,-0.02532 1.5875,1.5875 0 0 0 -0.0274,-2.245858 L 899.545,74.702998 a 1.5875,1.5875 0 0 0 -1.12706,-0.453202 z m 25.70127,0.09508 a 1.5875,1.5875 0 0 0 -1.11724,0.479558 1.5875,1.5875 0 0 0 0.0274,2.24379 l 3.38377,3.305225 -3.31091,3.311426 c -3.5566,-2.446391 -8.48064,-2.067856 -11.60808,1.113627 l -8.95294,9.107971 -12.03389,12.241635 c -3.12118,3.17511 -3.41559,8.08889 -0.92552,11.60239 l -5.38262,5.3821 a 1.5875,1.5875 0 0 0 0,2.24431 1.5875,1.5875 0 0 0 2.24586,0 l 5.39708,-5.39864 c 3.55648,2.44509 8.4765,2.07199 11.60343,-1.10897 l 12.03337,-12.24163 8.95346,-9.107979 c 3.12132,-3.175249 3.42057,-8.091964 0.93018,-11.605493 l 3.32228,-3.321761 3.44423,3.364652 a 1.5875,1.5875 0 0 0 2.24379,-0.02532 1.5875,1.5875 0 0 0 -0.0253,-2.246375 l -9.0997,-8.888346 a 1.5875,1.5875 0 0 0 -1.12862,-0.452169 z m -36.58433,14.104566 c 0.23449,0.498279 0.55823,0.962876 0.971,1.368908 0.41237,0.405633 0.8816,0.721796 1.38286,0.947746 l -2.02985,2.065507 c -0.66082,0.672529 -1.66259,0.682355 -2.33474,0.02119 -0.67215,-0.661168 -0.68046,-1.664796 -0.0196,-2.337325 z m 12.44524,12.591996 c 0.17703,2.08477 1.06654,4.11855 2.67012,5.69526 1.60419,1.57731 3.6532,2.4319 5.74125,2.57297 l -7.20938,7.33444 c -2.30951,2.34942 -5.99142,2.38059 -8.34057,0.0708 -2.34915,-2.30979 -2.37928,-5.99116 -0.0698,-8.34058 z m 31.61771,4.86586 a 1.5875,1.5875 0 0 0 -1.11725,0.47955 1.5875,1.5875 0 0 0 0.0269,2.24379 l 0.81339,0.79479 -0.30489,0.30437 c -1.80516,-0.84966 -4.04334,-0.52191 -5.51232,0.97307 l -3.87522,3.94395 -5.20743,5.29941 c -1.46281,1.48872 -1.75148,3.71898 -0.88522,5.50664 l -1.84072,1.84227 a 1.5875,1.5875 0 0 0 0,2.24379 1.5875,1.5875 0 0 0 2.24638,0 l 1.85208,-1.85363 c 1.80514,0.8487 4.04187,0.52547 5.51026,-0.96894 l 5.20692,-5.29942 3.87573,-3.94394 c 1.15931,-1.17985 1.58361,-2.82773 1.27847,-4.35064 v -5.2e-4 c -0.08,-0.39885 -0.21121,-0.78851 -0.39119,-1.15962 l 0.31781,-0.31781 0.8537,0.83406 a 1.5875,1.5875 0 0 0 2.24431,-0.0253 1.5875,1.5875 0 0 0 -0.0258,-2.24431 l -3.93723,-3.84937 a 1.5875,1.5875 0 0 0 -1.12861,-0.45217 z m -10.88254,14.19758 c 0.23448,0.49807 0.55822,0.96288 0.971,1.36891 0.41277,0.40603 0.88258,0.72206 1.38441,0.94826 l -2.03089,2.06706 c -0.66082,0.67253 -1.66414,0.68132 -2.33629,0.0201 -0.67215,-0.66117 -0.68046,-1.66479 -0.0196,-2.33732 z m 7.16907,21.62349 c -0.36341,0 -0.72926,0.0277 -1.10123,0.0765 a 1.7450592,1.4444554 0 0 0 -0.004,0 c -0.36701,0.0486 -0.7417,0.11838 -1.12965,0.20774 a 1.7450592,1.4444554 0 0 0 -1.27692,1.39164 v 0.65009 a 1.7450592,1.4444554 0 0 0 1.16995,1.22783 1.7450592,1.4444554 0 0 0 -0.24081,0.19896 v 0.59893 a 1.7450592,1.4444554 0 0 0 0.56276,0.4656 1.7450592,1.4444554 0 0 0 -1.68724,1.24902 v 0.7059 a 1.7450592,1.4444554 0 0 0 1.16789,1.36271 c 0.38332,0.11079 0.76874,0.19601 1.15445,0.25425 10e-4,2.3e-4 0.004,0.002 0.005,0.002 0.38437,0.0597 0.77114,0.0925 1.15704,0.0925 1.06569,0 2.12087,-0.19145 2.97139,-0.75189 0.84705,-0.55814 1.3224,-1.50156 1.3224,-2.36472 0,-0.49646 -0.28625,-0.98913 -0.61185,-1.4397 0.19751,-0.36051 0.45941,-0.71261 0.45941,-1.08366 0,-0.79013 -0.48905,-1.66216 -1.25833,-2.15749 -0.77055,-0.4983 -1.72692,-0.68574 -2.65978,-0.68574 z m -41.41091,0.0977 a 1.7450592,1.4444554 0 0 0 -1.74305,1.44488 v 5.39088 a 1.7450592,1.4444554 0 0 0 1.74305,1.44488 h 0.88212 a 1.7450592,1.4444554 0 0 0 1.60197,-1.3255 1.7450592,1.4444554 0 0 0 1.60145,1.3255 h 0.88005 a 1.7450592,1.4444554 0 0 0 1.74511,-1.44488 v -5.39088 a 1.7450592,1.4444554 0 0 0 -1.74511,-1.44488 h -0.88005 a 1.7450592,1.4444554 0 0 0 -1.60145,1.32551 1.7450592,1.4444554 0 0 0 -1.60197,-1.32551 z m 9.39012,0 a 1.7450592,1.4444554 0 0 0 -1.74563,1.44488 v 5.39088 a 1.7450592,1.4444554 0 0 0 1.74563,1.44488 h 4.19665 a 1.7450592,1.4444554 0 0 0 1.74304,-1.44488 v -0.0853 a 1.7450592,1.4444554 0 0 0 1.56735,1.53014 h 0.92966 a 1.7450592,1.4444554 0 0 0 1.64434,-0.96119 l 0.18035,-0.42116 h 0.47233 l 0.18035,0.42116 a 1.7450592,1.4444554 0 0 0 1.64434,0.96119 h 0.91674 a 1.7450592,1.4444554 0 0 0 1.63143,-1.95802 l -2.48357,-5.39141 a 1.7450592,1.4444554 0 0 0 -1.62936,-0.93121 h -1.00046 a 1.7450592,1.4444554 0 0 0 -1.62936,0.92966 l -2.43654,5.28289 a 1.7450592,1.4444554 0 0 0 -1.27331,-1.05575 1.7450592,1.4444554 0 0 0 1.07332,-0.88832 v -0.6134 a 1.7450592,1.4444554 0 0 0 -0.8971,-0.74259 1.7450592,1.4444554 0 0 0 1.03249,-0.85318 v -0.61443 a 1.7450592,1.4444554 0 0 0 -1.74511,-1.44488 z m 17.09663,0 a 1.7450592,1.4444554 0 0 0 -1.74511,1.44488 v 5.39088 a 1.7450592,1.4444554 0 0 0 1.74511,1.44488 h 4.05299 a 1.7450592,1.4444554 0 0 0 1.74304,-1.44488 v -0.61288 a 1.7450592,1.4444554 0 0 0 -1.74304,-1.44487 h -1.42731 v -3.33313 a 1.7450592,1.4444554 0 0 0 -1.74563,-1.44488 z m 16.9044,1.02785 0.0186,0.01 c -0.004,-0.003 -0.009,-8.9e-4 -0.0129,-0.004 -0.003,-0.002 -0.004,-0.004 -0.006,-0.006 z m 1.32602,2.44068 0.006,0.007 c -0.001,-9.1e-4 -0.003,-4.5e-4 -0.004,-0.002 -0.001,-0.002 -5.1e-4,-0.004 -0.002,-0.006 z" /></g></g></svg>
