<?xml version="1.0" encoding="UTF-8" standalone="no"?>
<!-- Created with Inkscape (http://www.inkscape.org/) -->

<svg
   width="271.71289"
   height="316.55627"
   viewBox="0 0 71.8907 83.755514"
   version="1.1"
   id="svg8"
   inkscape:version="1.3 (0e150ed6c4, 2023-07-21)"
   sodipodi:docname="drawing.svg"
   xml:space="preserve"
   xmlns:inkscape="http://www.inkscape.org/namespaces/inkscape"
   xmlns:sodipodi="http://sodipodi.sourceforge.net/DTD/sodipodi-0.dtd"
   xmlns="http://www.w3.org/2000/svg"
   xmlns:svg="http://www.w3.org/2000/svg"
   xmlns:rdf="http://www.w3.org/1999/02/22-rdf-syntax-ns#"
   xmlns:cc="http://creativecommons.org/ns#"
   xmlns:dc="http://purl.org/dc/elements/1.1/"><defs
     id="defs2" /><sodipodi:namedview
     id="base"
     pagecolor="#ffffff"
     bordercolor="#666666"
     borderopacity="1.0"
     inkscape:pageopacity="0.0"
     inkscape:pageshadow="2"
     inkscape:zoom="0.6832286"
     inkscape:cx="1434.3662"
     inkscape:cy="1729.2894"
     inkscape:document-units="mm"
     inkscape:current-layer="g13"
     showgrid="false"
     units="px"
     inkscape:window-width="1916"
     inkscape:window-height="1037"
     inkscape:window-x="0"
     inkscape:window-y="0"
     inkscape:window-maximized="1"
     inkscape:showpageshadow="2"
     inkscape:pagecheckerboard="0"
     inkscape:deskcolor="#d1d1d1" /><metadata
     id="metadata5"><rdf:RDF><cc:Work
         rdf:about=""><dc:format>image/svg+xml</dc:format><dc:type
           rdf:resource="http://purl.org/dc/dcmitype/StillImage" /></cc:Work></rdf:RDF></metadata><g
     inkscape:groupmode="layer"
     id="layer2"
     inkscape:label="hud"
     style="display:inline"
     transform="translate(-400.61546,-392.4126)"><g
       id="g13"
       style="display:inline"
       inkscape:label="upgrades"
       transform="translate(0,18.417901)"><path
         id="path602"
         style="color:#000000;fill:#abedcc;stroke-linecap:round;stroke-linejoin:round;-inkscape-stroke:none"
         d="m 405.21673,373.9947 c -2.52146,0 -4.60127,2.07982 -4.60127,4.60127 v 62.68765 c 0,2.52146 2.07981,4.59972 4.60127,4.59972 h 62.68765 c 2.52146,0 4.60178,-2.07826 4.60178,-4.59972 v -62.68765 c 0,-2.52145 -2.08032,-4.60127 -4.60178,-4.60127 z m 0,3.17552 h 62.68765 c 0.81743,0 1.42575,0.60832 1.42575,1.42575 v 62.68765 c 0,0.81743 -0.60832,1.42575 -1.42575,1.42575 h -62.68765 c -0.81743,0 -1.42575,-0.60832 -1.42575,-1.42575 v -62.68765 c 0,-0.81743 0.60832,-1.42575 1.42575,-1.42575 z m 56.0958,4.28346 c -1.25925,0.002 -1.9023,0.59725 -2.44326,1.13637 -0.39959,-0.43182 -0.88285,-0.86166 -1.81643,-1.02526 -1.93142,-0.33848 -3.84713,0.39229 -4.96662,2.05465 -1.2748,1.89309 -0.90189,4.15062 0.0176,5.82807 0.84226,1.53662 2.29877,2.3556 3.55844,3.07423 1.25967,0.71863 2.38073,1.18959 2.38073,1.18959 l 0.0646,-0.32246 a 1.5876587,1.5876587 0 0 0 0.55294,0.44752 1.5876587,1.5876587 0 0 0 0.61495,-0.30283 l 0.0351,0.16382 c 0,0 1.05296,-0.47187 2.25412,-1.16996 1.20116,-0.69809 2.57641,-1.50121 3.46077,-2.85512 0.85159,-1.30373 1.4842,-3.08548 0.75965,-4.91391 -0.69057,-1.74272 -2.23504,-3.30821 -4.4726,-3.30471 z m -16.30856,10.85515 c -2.89363,0.005 -5.15622,2.16506 -7.00371,4.05298 -1.04726,1.07018 -1.23435,1.40892 -1.80092,2.13062 -0.43903,-0.6242 -0.50825,-0.81138 -1.23249,-1.66604 -1.46608,-1.7301 -3.23936,-3.71457 -5.71851,-4.16616 -5.00992,-0.91255 -10.77567,1.46108 -13.56093,5.75986 -3.25407,5.02234 -2.36621,11.9949 0.2558,16.96692 2.0776,3.93965 6.81746,7.15951 11.04119,9.66401 4.22371,2.5045 7.99641,4.1584 7.99641,4.1584 a 1.5876587,1.5876587 0 0 0 1.31051,-0.0139 c 0,0 3.55242,-1.6595 7.60109,-4.10518 4.04866,-2.44567 8.62372,-5.56505 10.88305,-9.16016 2.48616,-3.95599 4.11721,-9.396 2.31046,-14.13506 -0.9151,-2.40024 -2.57192,-4.69618 -4.6638,-6.46265 -2.09139,-1.76606 -4.65657,-3.02726 -7.41609,-3.02359 z m 16.30856,33.58607 c -1.25925,0.002 -1.9023,0.59775 -2.44326,1.13688 -0.39959,-0.43182 -0.88285,-0.86217 -1.81643,-1.02578 -1.93142,-0.33848 -3.84713,0.3923 -4.96662,2.05466 -1.2748,1.89309 -0.90189,4.15112 0.0176,5.82858 0.84226,1.53662 2.29877,2.3556 3.55844,3.07423 1.25967,0.71863 2.38073,1.18908 2.38073,1.18908 l 0.0646,-0.32195 a 1.5876587,1.5876587 0 0 0 0.55294,0.447 1.5876587,1.5876587 0 0 0 0.61495,-0.30282 l 0.0351,0.16433 c 0,0 1.05296,-0.47187 2.25412,-1.16995 1.20116,-0.69809 2.57641,-1.50175 3.46077,-2.85564 0.85159,-1.30373 1.4842,-3.08549 0.75965,-4.91392 -0.69057,-1.74271 -2.23504,-3.3082 -4.4726,-3.3047 z m 3.18637,23.37376 c -0.3634,0 -0.73185,0.0256 -1.10381,0.0744 a 1.7450592,1.4444554 0 0 0 -0.002,0 c -0.36701,0.0486 -0.74118,0.11838 -1.12913,0.20774 a 1.7450592,1.4444554 0 0 0 -1.27745,1.39164 v 0.65009 a 1.7450592,1.4444554 0 0 0 1.16789,1.22783 1.7450592,1.4444554 0 0 0 -0.23823,0.19896 v 0.59893 a 1.7450592,1.4444554 0 0 0 0.56276,0.4656 1.7450592,1.4444554 0 0 0 -1.68982,1.24954 v 0.70538 a 1.7450592,1.4444554 0 0 0 1.16995,1.36271 c 0.38066,0.11001 0.76111,0.19603 1.14412,0.25425 0.003,4.4e-4 0.005,-4.4e-4 0.009,0 10e-4,2.3e-4 0.004,0.002 0.005,0.002 0.38506,0.06 0.77249,0.0925 1.1591,0.0925 1.06568,0 2.12088,-0.19095 2.97139,-0.75138 0.84706,-0.55814 1.32035,-1.50208 1.32034,-2.36523 0,-0.49573 -0.28514,-0.98749 -0.60979,-1.43764 0.19801,-0.36089 0.45734,-0.7142 0.45734,-1.08572 0,-0.79013 -0.48699,-1.66216 -1.25625,-2.15749 -0.77054,-0.4983 -1.72693,-0.68368 -2.65979,-0.68368 z m -57.69622,0.0956 a 1.7450592,1.4444554 0 0 0 -1.74563,1.44488 v 5.3914 a 1.7450592,1.4444554 0 0 0 1.74563,1.44436 h 0.88212 a 1.7450592,1.4444554 0 0 0 1.59938,-1.3255 1.7450592,1.4444554 0 0 0 1.60146,1.3255 h 0.88211 a 1.7450592,1.4444554 0 0 0 1.74563,-1.44436 v -5.3914 a 1.7450592,1.4444554 0 0 0 -1.74563,-1.44488 h -0.88211 a 1.7450592,1.4444554 0 0 0 -1.60146,1.3255 1.7450592,1.4444554 0 0 0 -1.59938,-1.3255 z m 9.38754,0 a 1.7450592,1.4444554 0 0 0 -1.74304,1.44488 v 5.3914 a 1.7450592,1.4444554 0 0 0 1.74304,1.44436 h 4.19716 a 1.7450592,1.4444554 0 0 0 1.74511,-1.44436 v -0.0713 a 1.7450592,1.4444554 0 0 0 1.56735,1.51567 h 0.92914 a 1.7450592,1.4444554 0 0 0 1.64228,-0.96119 l 0.18242,-0.42116 h 0.47232 l 0.18035,0.42116 a 1.7450592,1.4444554 0 0 0 1.64486,0.96119 h 0.91623 a 1.7450592,1.4444554 0 0 0 1.62935,-1.95802 l -2.4815,-5.39141 a 1.7450592,1.4444554 0 0 0 -1.63142,-0.93121 h -0.99839 a 1.7450592,1.4444554 0 0 0 -1.62936,0.92966 l -2.43861,5.28082 a 1.7450592,1.4444554 0 0 0 -1.27331,-1.05368 1.7450592,1.4444554 0 0 0 1.07384,-0.88832 v -0.61288 a 1.7450592,1.4444554 0 0 0 -0.89555,-0.74311 1.7450592,1.4444554 0 0 0 1.03042,-0.85266 v -0.61495 a 1.7450592,1.4444554 0 0 0 -1.74304,-1.44488 z m 17.09663,0 a 1.7450592,1.4444554 0 0 0 -1.74304,1.44488 v 5.3914 a 1.7450592,1.4444554 0 0 0 1.74304,1.44436 h 4.0535 a 1.7450592,1.4444554 0 0 0 1.74512,-1.44436 v -0.6134 a 1.7450592,1.4444554 0 0 0 -1.74512,-1.44436 h -1.42575 v -3.33364 a 1.7450592,1.4444554 0 0 0 -1.74511,-1.44488 z m 5.51543,0 a 1.7450592,1.4444554 0 0 0 -1.74563,1.44488 v 0.61495 a 1.7450592,1.4444554 0 0 0 1.74563,1.4428 h 0.56637 v 3.33365 a 1.7450592,1.4444554 0 0 0 1.74563,1.44436 h 0.88625 a 1.7450592,1.4444554 0 0 0 1.74357,-1.44436 v -3.33365 h 0.56895 a 1.7450592,1.4444554 0 0 0 1.74305,-1.4428 v -0.61495 a 1.7450592,1.4444554 0 0 0 -1.74305,-1.44488 z m 9.03097,0 a 1.7450592,1.4444554 0 0 0 -1.74511,1.44488 v 5.3914 a 1.7450592,1.4444554 0 0 0 1.74511,1.44436 h 0.88057 a 1.7450592,1.4444554 0 0 0 1.60145,-1.3255 1.7450592,1.4444554 0 0 0 1.60145,1.3255 h 0.88005 a 1.7450592,1.4444554 0 0 0 1.74512,-1.44436 v -5.3914 a 1.7450592,1.4444554 0 0 0 -1.74512,-1.44488 h -0.88005 a 1.7450592,1.4444554 0 0 0 -1.60145,1.3255 1.7450592,1.4444554 0 0 0 -1.60145,-1.3255 z m 18.64486,1.02733 0.0171,0.0103 c -0.002,-0.002 -0.005,1.7e-4 -0.009,-0.002 -0.003,-0.002 -0.005,-0.006 -0.008,-0.009 z m 1.32447,2.4412 0.007,0.008 c -10e-4,-9.1e-4 -0.004,-9.7e-4 -0.005,-0.002 -10e-4,-0.002 -5.3e-4,-0.004 -0.002,-0.006 z" /></g></g></svg>
