<?xml version="1.0" encoding="UTF-8" standalone="no"?>
<!-- Created with Inkscape (http://www.inkscape.org/) -->

<svg
   width="271.71265"
   height="316.15628"
   viewBox="0 0 71.890635 83.649683"
   version="1.1"
   id="svg8"
   inkscape:version="1.3 (0e150ed6c4, 2023-07-21)"
   sodipodi:docname="drawing.svg"
   xml:space="preserve"
   xmlns:inkscape="http://www.inkscape.org/namespaces/inkscape"
   xmlns:sodipodi="http://sodipodi.sourceforge.net/DTD/sodipodi-0.dtd"
   xmlns="http://www.w3.org/2000/svg"
   xmlns:svg="http://www.w3.org/2000/svg"
   xmlns:rdf="http://www.w3.org/1999/02/22-rdf-syntax-ns#"
   xmlns:cc="http://creativecommons.org/ns#"
   xmlns:dc="http://purl.org/dc/elements/1.1/"><defs
     id="defs2" /><sodipodi:namedview
     id="base"
     pagecolor="#ffffff"
     bordercolor="#666666"
     borderopacity="1.0"
     inkscape:pageopacity="0.0"
     inkscape:pageshadow="2"
     inkscape:zoom="0.96623116"
     inkscape:cx="2764.3489"
     inkscape:cy="1049.9558"
     inkscape:document-units="mm"
     inkscape:current-layer="g13"
     showgrid="false"
     units="px"
     inkscape:window-width="1916"
     inkscape:window-height="1037"
     inkscape:window-x="0"
     inkscape:window-y="0"
     inkscape:window-maximized="1"
     inkscape:showpageshadow="2"
     inkscape:pagecheckerboard="0"
     inkscape:deskcolor="#d1d1d1" /><metadata
     id="metadata5"><rdf:RDF><cc:Work
         rdf:about=""><dc:format>image/svg+xml</dc:format><dc:type
           rdf:resource="http://purl.org/dc/dcmitype/StillImage" /></cc:Work></rdf:RDF></metadata><g
     inkscape:groupmode="layer"
     id="layer2"
     inkscape:label="hud"
     style="display:inline"
     transform="translate(-671.16604,-84.874931)"><g
       id="g13"
       style="display:inline"
       inkscape:label="upgrades"
       transform="translate(0,18.417901)"><path
         style="color:#000000;fill:#abedcc;stroke-linecap:round;stroke-linejoin:round;-inkscape-stroke:none"
         d="m 675.76758,66.457031 c -2.52146,0 -4.60156,2.07815 -4.60156,4.59961 v 62.687499 c 0,2.52146 2.0801,4.60156 4.60156,4.60156 h 62.6875 c 2.52146,0 4.60156,-2.0801 4.60156,-4.60156 V 71.056641 c 0,-2.52146 -2.0801,-4.59961 -4.60156,-4.59961 z m 0,3.173828 h 62.6875 c 0.81743,0 1.42578,0.608351 1.42578,1.425782 v 62.687499 c 0,0.81743 -0.60835,1.42578 -1.42578,1.42578 h -62.6875 c -0.81743,0 -1.42578,-0.60835 -1.42578,-1.42578 V 71.056641 c 0,-0.817431 0.60835,-1.425782 1.42578,-1.425782 z"
         id="rect166" /><path
         style="color:#000000;-inkscape-font-specification:sans-serif;fill:#abedcc;stroke-linecap:round;stroke-linejoin:round;-inkscape-stroke:none"
         d="m 623.66602,155.88672 a 1.5876587,1.5876587 0 0 0 -1.5879,1.58789 v 5.92578 a 1.5876587,1.5876587 0 0 0 1.5879,1.58789 h 0.80078 a 1.5876587,1.5876587 0 0 0 1.45703,-1.45703 1.5876587,1.5876587 0 0 0 1.45703,1.45703 h 0.80273 a 1.5876587,1.5876587 0 0 0 1.58594,-1.58789 v -5.92578 a 1.5876587,1.5876587 0 0 0 -1.58594,-1.58789 h -0.80273 a 1.5876587,1.5876587 0 0 0 -1.45703,1.45703 1.5876587,1.5876587 0 0 0 -1.45703,-1.45703 z m 8.54101,0 a 1.5876587,1.5876587 0 0 0 -1.58789,1.58789 v 5.92578 a 1.5876587,1.5876587 0 0 0 1.58789,1.58789 h 3.81836 a 1.5876587,1.5876587 0 0 0 1.58789,-1.58789 v -0.0781 a 1.5876587,1.5876587 0 0 0 1.42578,1.66601 h 0.84375 a 1.5876587,1.5876587 0 0 0 1.4961,-1.05664 l 0.16601,-0.46289 h 0.42774 l 0.16601,0.46289 a 1.5876587,1.5876587 0 0 0 1.4961,1.05664 h 0.83203 a 1.5876587,1.5876587 0 0 0 1.48437,-2.15234 l -2.25781,-5.92578 a 1.5876587,1.5876587 0 0 0 -1.48438,-1.02344 h -0.9082 a 1.5876587,1.5876587 0 0 0 -1.48437,1.02148 l -2.2168,5.80469 a 1.5876587,1.5876587 0 0 0 -1.1582,-1.1582 1.5876587,1.5876587 0 0 0 0.97656,-0.97657 v -0.67382 a 1.5876587,1.5876587 0 0 0 -0.81641,-0.81641 1.5876587,1.5876587 0 0 0 0.93946,-0.9375 v -0.67578 a 1.5876587,1.5876587 0 0 0 -1.5879,-1.58789 z m 15.55469,0 a 1.5876587,1.5876587 0 0 0 -1.58789,1.58789 v 5.92578 a 1.5876587,1.5876587 0 0 0 1.58789,1.58789 h 3.6875 a 1.5876587,1.5876587 0 0 0 1.58789,-1.58789 v -0.67383 a 1.5876587,1.5876587 0 0 0 -1.58789,-1.58789 h -1.29883 v -3.66406 a 1.5876587,1.5876587 0 0 0 -1.58594,-1.58789 z m 13.48242,0 a 1.5876587,1.5876587 0 0 0 -0.3125,0.0312 l -1.41797,0.28711 a 1.5876587,1.5876587 0 0 0 -1.27344,1.55469 v 0.73046 a 1.5876587,1.5876587 0 0 0 1.42579,1.43946 v 1.48633 a 1.5876587,1.5876587 0 0 0 -1.31055,1.31054 v 0.67383 a 1.5876587,1.5876587 0 0 0 1.58789,1.58789 h 3.41406 a 1.5876587,1.5876587 0 0 0 1.58594,-1.58789 v -0.67383 a 1.5876587,1.5876587 0 0 0 -1.30859,-1.31054 v -3.94141 a 1.5876587,1.5876587 0 0 0 -1.5879,-1.58789 z"
         id="text166"
         transform="scale(1.09914,0.90980221)" /><path
         style="color:#000000;fill:#abedcc;stroke-linecap:round;stroke-linejoin:round;-inkscape-stroke:none"
         d="m 407.74414,566.14258 c -4.99852,0 -9.07226,4.07375 -9.07227,9.07226 0,4.99852 4.07375,9.07227 9.07227,9.07227 h 29.93945 c 4.99853,0 9.07227,-4.07375 9.07227,-9.07227 0,-4.99851 -4.07374,-9.07226 -9.07227,-9.07226 z m 0,3.17383 h 29.93945 c 3.2945,0 5.89649,2.60395 5.89649,5.89843 0,3.29449 -2.60199,5.89649 -5.89649,5.89649 h -29.93945 c -3.2945,0 -5.89648,-2.602 -5.89648,-5.89649 0,-3.29448 2.60198,-5.89843 5.89648,-5.89843 z"
         id="rect172"
         transform="matrix(0.70102382,-0.71313785,0.71305522,0.70110788,0,0)" /><g
         id="rect173"
         transform="matrix(0.70102382,-0.71313785,0.71305522,0.70110788,0,0)"><path
           style="color:#000000;fill:#abedcc;stroke-linecap:round;stroke-linejoin:round;-inkscape-stroke:none"
           d="m 424.91071,567.72961 h 12.77247 c 4.14652,0 7.48469,3.33817 7.48469,7.48467 0,4.14651 -3.33817,7.48467 -7.48469,7.48467 h -12.77247 c -4.14652,0 -7.48468,-3.33816 -7.48468,-7.48467 0,-4.1465 3.33816,-7.48467 7.48468,-7.48467 z"
           id="path493" /><path
           style="color:#000000;fill:#abedcc;stroke-linecap:round;stroke-linejoin:round;-inkscape-stroke:none"
           d="m 424.91016,566.14258 c -4.99853,0 -9.07227,4.07375 -9.07227,9.07226 0,4.99852 4.07374,9.07227 9.07227,9.07227 h 12.77343 c 4.99853,0 9.07227,-4.07375 9.07227,-9.07227 0,-4.99851 -4.07374,-9.07226 -9.07227,-9.07226 z m 0,3.17383 h 12.77343 c 3.2945,0 5.89649,2.60395 5.89649,5.89843 0,3.29449 -2.60199,5.89649 -5.89649,5.89649 h -12.77343 c -3.2945,0 -5.89649,-2.602 -5.89649,-5.89649 0,-3.29448 2.60199,-5.89843 5.89649,-5.89843 z"
           id="path494" /></g><path
         style="color:#000000;fill:#abedcc;stroke-linecap:round;stroke-linejoin:round;-inkscape-stroke:none"
         d="m 727.68555,78.78125 a 1.5875,1.5875 0 0 0 -1.12305,0.464844 l -5.45313,5.453125 a 1.5875,1.5875 0 0 0 0,2.24414 1.5875,1.5875 0 0 0 2.2461,0 l 5.45312,-5.453125 a 1.5875,1.5875 0 0 0 0,-2.24414 1.5875,1.5875 0 0 0 -1.12304,-0.464844 z"
         id="path173" /><path
         style="color:#000000;fill:#abedcc;stroke-linecap:round;stroke-linejoin:round;-inkscape-stroke:none"
         d="m 724.26953,74.796875 a 1.5875,1.5875 0 0 0 -2.24609,0.02734 1.5875,1.5875 0 0 0 0.0273,2.24414 l 9.09961,8.888672 a 1.5875,1.5875 0 0 0 2.24414,-0.02539 1.5875,1.5875 0 0 0 -0.0254,-2.246094 z"
         id="path174" /><path
         style="color:#000000;fill:#abedcc;stroke-linecap:round;stroke-linejoin:round;-inkscape-stroke:none"
         d="m 689.62891,116.72461 -6.40821,6.4082 a 1.5875,1.5875 0 0 0 0,2.24414 1.5875,1.5875 0 0 0 2.2461,0 l 6.40625,-6.4082 a 1.5875,1.5875 0 0 0 0,-2.24414 1.5875,1.5875 0 0 0 -2.24414,0 z"
         id="path176" /></g></g></svg>
