<?xml version="1.0" encoding="UTF-8" standalone="no"?>
<!-- Created with Inkscape (http://www.inkscape.org/) -->

<svg
   width="271.70532"
   height="316.1564"
   viewBox="0 0 71.888697 83.649715"
   version="1.1"
   id="svg8"
   inkscape:version="1.3 (0e150ed6c4, 2023-07-21)"
   sodipodi:docname="drawing.svg"
   xml:space="preserve"
   xmlns:inkscape="http://www.inkscape.org/namespaces/inkscape"
   xmlns:sodipodi="http://sodipodi.sourceforge.net/DTD/sodipodi-0.dtd"
   xmlns="http://www.w3.org/2000/svg"
   xmlns:svg="http://www.w3.org/2000/svg"
   xmlns:rdf="http://www.w3.org/1999/02/22-rdf-syntax-ns#"
   xmlns:cc="http://creativecommons.org/ns#"
   xmlns:dc="http://purl.org/dc/elements/1.1/"><defs
     id="defs2" /><sodipodi:namedview
     id="base"
     pagecolor="#ffffff"
     bordercolor="#666666"
     borderopacity="1.0"
     inkscape:pageopacity="0.0"
     inkscape:pageshadow="2"
     inkscape:zoom="0.24155779"
     inkscape:cx="3022.0512"
     inkscape:cy="-18.629083"
     inkscape:document-units="mm"
     inkscape:current-layer="g13"
     showgrid="false"
     units="px"
     inkscape:window-width="1916"
     inkscape:window-height="1037"
     inkscape:window-x="0"
     inkscape:window-y="0"
     inkscape:window-maximized="1"
     inkscape:showpageshadow="2"
     inkscape:pagecheckerboard="0"
     inkscape:deskcolor="#d1d1d1" /><metadata
     id="metadata5"><rdf:RDF><cc:Work
         rdf:about=""><dc:format>image/svg+xml</dc:format><dc:type
           rdf:resource="http://purl.org/dc/dcmitype/StillImage" /></cc:Work></rdf:RDF></metadata><g
     inkscape:groupmode="layer"
     id="layer2"
     inkscape:label="hud"
     style="display:inline"
     transform="translate(-770.80075,-84.874931)"><g
       id="g13"
       style="display:inline"
       inkscape:label="upgrades"
       transform="translate(0,18.417901)"><path
         style="color:#000000;fill:#d5f6e5;fill-opacity:1;stroke-linecap:round;stroke-linejoin:round;-inkscape-stroke:none"
         d="m 775.40234,69.630859 h 62.6875 c 0.81743,0 1.42578,0.608351 1.42578,1.425782 v 62.687499 c 0,0.81743 -0.60835,1.42578 -1.42578,1.42578 h -62.6875 c -0.81743,0 -1.42773,-0.60835 -1.42773,-1.42578 V 71.056641 c 0,-0.817431 0.6103,-1.425782 1.42773,-1.425782 z"
         id="path504" /><path
         style="color:#000000;fill:#d5f6e5;fill-opacity:1;stroke-linecap:round;stroke-linejoin:round;-inkscape-stroke:none"
         d="m 775.40234,66.457031 c -2.52146,0 -4.60156,2.07815 -4.60156,4.59961 v 62.687499 c 0,2.52146 2.0801,4.60156 4.60156,4.60156 h 62.6875 c 2.52146,0 4.59961,-2.0801 4.59961,-4.60156 V 71.056641 c 0,-2.52146 -2.07815,-4.59961 -4.59961,-4.59961 z"
         id="rect176" /><path
         style="color:#000000;-inkscape-font-specification:sans-serif;fill:#d5f6e5;fill-opacity:1;stroke-linecap:round;stroke-linejoin:round;-inkscape-stroke:none"
         d="m 753.82617,157.15625 0.008,0.006 c -0.002,-0.001 -0.004,-5e-4 -0.006,-0.002 -10e-4,-9.8e-4 -8.6e-4,-0.003 -0.002,-0.004 z"
         transform="scale(1.09914,0.90980221)"
         id="path508" /><path
         style="color:#000000;-inkscape-font-specification:sans-serif;fill:#d5f6e5;fill-opacity:1;stroke-linecap:round;stroke-linejoin:round;-inkscape-stroke:none"
         d="m 738.41016,155.88672 a 1.5876587,1.5876587 0 0 0 -1.58789,1.58789 v 5.92578 a 1.5876587,1.5876587 0 0 0 1.58789,1.58789 h 3.6875 a 1.5876587,1.5876587 0 0 0 1.58593,-1.58789 v -0.67383 a 1.5876587,1.5876587 0 0 0 -1.58593,-1.58789 h -1.29883 v -3.66406 a 1.5876587,1.5876587 0 0 0 -1.58789,-1.58789 z"
         transform="scale(1.09914,0.90980221)"
         id="path507" /><path
         style="color:#000000;-inkscape-font-specification:sans-serif;fill:#d5f6e5;fill-opacity:1;stroke-linecap:round;stroke-linejoin:round;-inkscape-stroke:none"
         d="m 722.85547,155.88672 a 1.5876587,1.5876587 0 0 0 -1.58789,1.58789 v 5.92578 a 1.5876587,1.5876587 0 0 0 1.58789,1.58789 h 3.81836 a 1.5876587,1.5876587 0 0 0 1.58594,-1.58789 v -0.0937 a 1.5876587,1.5876587 0 0 0 1.42578,1.68164 h 0.8457 a 1.5876587,1.5876587 0 0 0 1.49609,-1.05664 l 0.16407,-0.46289 h 0.42968 l 0.16407,0.46289 a 1.5876587,1.5876587 0 0 0 1.49609,1.05664 h 0.83398 a 1.5876587,1.5876587 0 0 0 1.48243,-2.15234 l -2.25782,-5.92578 a 1.5876587,1.5876587 0 0 0 -1.48242,-1.02344 h -0.91015 a 1.5876587,1.5876587 0 0 0 -1.48243,1.02148 l -2.21679,5.80664 a 1.5876587,1.5876587 0 0 0 -1.15821,-1.16015 1.5876587,1.5876587 0 0 0 0.97657,-0.97657 v -0.67382 a 1.5876587,1.5876587 0 0 0 -0.81641,-0.81641 1.5876587,1.5876587 0 0 0 0.93945,-0.9375 v -0.67578 a 1.5876587,1.5876587 0 0 0 -1.58789,-1.58789 z"
         transform="scale(1.09914,0.90980221)"
         id="path506" /><path
         style="color:#000000;-inkscape-font-specification:sans-serif;fill:#d5f6e5;fill-opacity:1;stroke-linecap:round;stroke-linejoin:round;-inkscape-stroke:none"
         d="m 714.3125,155.88672 a 1.5876587,1.5876587 0 0 0 -1.58594,1.58789 v 5.92578 a 1.5876587,1.5876587 0 0 0 1.58594,1.58789 h 0.80273 a 1.5876587,1.5876587 0 0 0 1.45704,-1.45703 1.5876587,1.5876587 0 0 0 1.45703,1.45703 h 0.80078 a 1.5876587,1.5876587 0 0 0 1.58789,-1.58789 v -5.92578 a 1.5876587,1.5876587 0 0 0 -1.58789,-1.58789 h -0.80078 a 1.5876587,1.5876587 0 0 0 -1.45703,1.45703 1.5876587,1.5876587 0 0 0 -1.45704,-1.45703 z"
         transform="scale(1.09914,0.90980221)"
         id="path505" /><path
         style="color:#000000;-inkscape-font-specification:sans-serif;fill:#d5f6e5;fill-opacity:1;stroke-linecap:round;stroke-linejoin:round;-inkscape-stroke:none"
         d="m 751.89258,155.78125 c -0.38314,0 -0.75878,0.052 -1.13477,0.14062 -0.37359,0.0881 -0.74908,0.21111 -1.13281,0.36524 a 1.5876587,1.5876587 0 0 0 -0.99414,1.47266 v 0.81054 a 1.5876587,1.5876587 0 0 0 2.03906,1.38281 c -0.14683,0.15161 -0.16539,0.17695 -0.37695,0.39063 -0.52656,0.53188 -0.94402,0.95661 -1.25586,1.2793 a 1.5876587,1.5876587 0 0 0 -0.44727,1.10351 v 0.67383 a 1.5876587,1.5876587 0 0 0 1.58789,1.58789 h 3.76368 a 1.5876587,1.5876587 0 0 0 1.58593,-1.58789 v -0.67383 a 1.5876587,1.5876587 0 0 0 -1.10547,-1.10742 c 0.0132,-0.015 0.0417,-0.0435 0.0547,-0.0586 a 1.5876587,1.5876587 0 0 0 0.0293,-0.0371 c 0.29744,-0.36608 0.54298,-0.71464 0.72656,-1.1543 v -0.002 c 0.17372,-0.41265 0.26367,-0.86448 0.26367,-1.3086 0,-0.88974 -0.41445,-1.85789 -1.11328,-2.44531 -0.70057,-0.58889 -1.61177,-0.83203 -2.49023,-0.83203 z"
         transform="scale(1.09914,0.90980221)"
         id="text176" /><path
         style="color:#000000;fill:#d5f6e5;fill-opacity:1;stroke-linecap:round;stroke-linejoin:round;-inkscape-stroke:none"
         d="m 477.59961,640.37109 h 29.9375 c 3.2945,0 5.89844,2.602 5.89844,5.89649 0,3.29448 -2.60394,5.89648 -5.89844,5.89648 h -29.9375 c -3.2945,0 -5.89844,-2.602 -5.89844,-5.89648 0,-3.29449 2.60394,-5.89649 5.89844,-5.89649 z"
         transform="matrix(0.70102382,-0.71313785,0.71305522,0.70110788,0,0)"
         id="path509" /><path
         style="color:#000000;fill:#d5f6e5;fill-opacity:1;stroke-linecap:round;stroke-linejoin:round;-inkscape-stroke:none"
         d="m 477.59961,637.19531 c -4.99852,0 -9.07227,4.07375 -9.07227,9.07227 0,4.99852 4.07375,9.07226 9.07227,9.07226 h 29.9375 c 4.99852,0 9.07226,-4.07374 9.07226,-9.07226 0,-4.99852 -4.07374,-9.07227 -9.07226,-9.07227 z"
         transform="matrix(0.70102382,-0.71313785,0.71305522,0.70110788,0,0)"
         id="rect177" /><g
         id="rect178"
         transform="matrix(0.70102382,-0.71313785,0.71305522,0.70110788,0,0)"
         style="fill:#d5f6e5;fill-opacity:1"><path
           style="color:#000000;fill:#d5f6e5;fill-opacity:1;stroke-linecap:round;stroke-linejoin:round;-inkscape-stroke:none"
           d="m 494.76508,638.78265 h 12.77247 c 4.14652,0 7.48469,3.33816 7.48469,7.48467 0,4.1465 -3.33817,7.48467 -7.48469,7.48467 h -12.77247 c -4.14652,0 -7.48468,-3.33817 -7.48468,-7.48467 0,-4.14651 3.33816,-7.48467 7.48468,-7.48467 z"
           id="path502" /><path
           style="color:#000000;fill:#d5f6e5;fill-opacity:1;stroke-linecap:round;stroke-linejoin:round;-inkscape-stroke:none"
           d="m 494.76562,637.19531 c -4.99852,0 -9.07226,4.07375 -9.07226,9.07227 0,4.99852 4.07374,9.07226 9.07226,9.07226 h 12.77149 c 4.99852,0 9.07226,-4.07374 9.07226,-9.07226 0,-4.99852 -4.07374,-9.07227 -9.07226,-9.07227 z m 0,3.17578 h 12.77149 c 3.2945,0 5.89844,2.602 5.89844,5.89649 0,3.29448 -2.60394,5.89648 -5.89844,5.89648 h -12.77149 c -3.29449,0 -5.89843,-2.602 -5.89843,-5.89648 0,-3.29449 2.60394,-5.89649 5.89843,-5.89649 z"
           id="path503" /></g><path
         style="color:#000000;fill:#d5f6e5;fill-opacity:1;stroke-linecap:round;stroke-linejoin:round;-inkscape-stroke:none"
         d="m 827.32031,78.78125 a 1.5875,1.5875 0 0 0 -1.12304,0.464844 l -5.45313,5.453125 a 1.5875,1.5875 0 0 0 0,2.24414 1.5875,1.5875 0 0 0 2.24609,0 l 5.45313,-5.453125 a 1.5875,1.5875 0 0 0 0,-2.24414 1.5875,1.5875 0 0 0 -1.12305,-0.464844 z"
         id="path180" /><path
         style="color:#000000;fill:#d5f6e5;fill-opacity:1;stroke-linecap:round;stroke-linejoin:round;-inkscape-stroke:none"
         d="m 823.90234,74.796875 a 1.5875,1.5875 0 0 0 -2.24414,0.02734 1.5875,1.5875 0 0 0 0.0274,2.24414 l 9.09765,8.888672 a 1.5875,1.5875 0 0 0 2.2461,-0.02539 1.5875,1.5875 0 0 0 -0.0274,-2.246094 z"
         id="path181" /><path
         style="color:#000000;fill:#d5f6e5;fill-opacity:1;stroke-linecap:round;stroke-linejoin:round;-inkscape-stroke:none"
         d="m 789.26367,116.72461 -6.4082,6.4082 a 1.5875,1.5875 0 0 0 0,2.24414 1.5875,1.5875 0 0 0 2.24414,0 l 6.4082,-6.4082 a 1.5875,1.5875 0 0 0 0,-2.24414 1.5875,1.5875 0 0 0 -2.24414,0 z"
         id="path182" /><path
         style="color:#000000;fill:#d5f6e5;fill-opacity:1;stroke-linecap:round;stroke-linejoin:round;-inkscape-stroke:none"
         d="m 486.45898,623.71289 h 12.96094 c 0.94287,0 1.65235,0.70951 1.65235,1.65234 0,0.94284 -0.70948,1.65235 -1.65235,1.65235 h -12.96094 c -0.94286,0 -1.65234,-0.70951 -1.65234,-1.65235 0,-0.94283 0.70948,-1.65234 1.65234,-1.65234 z"
         transform="matrix(0.70087214,-0.71328693,0.7129061,0.70125951,0,0)"
         id="path510" /><path
         style="color:#000000;fill:#d5f6e5;fill-opacity:1;stroke-linecap:round;stroke-linejoin:round;-inkscape-stroke:none"
         d="m 486.45898,620.53711 c -2.64687,0 -4.82617,2.18125 -4.82617,4.82812 0,2.64688 2.1793,4.82813 4.82617,4.82813 h 12.96094 c 2.64688,0 4.82617,-2.18125 4.82617,-4.82813 0,-2.64687 -2.17929,-4.82812 -4.82617,-4.82812 z"
         transform="matrix(0.70087214,-0.71328693,0.7129061,0.70125951,0,0)"
         id="rect194" /><g
         id="rect195"
         transform="matrix(0.70087214,-0.71328693,0.7129061,0.70125951,0,0)"
         style="fill:#d5f6e5;fill-opacity:1"><path
           style="color:#000000;fill:#d5f6e5;fill-opacity:1;stroke-linecap:round;stroke-linejoin:round;-inkscape-stroke:none"
           d="m 493.89026,622.12543 h 5.52873 c 1.79487,0 3.23984,1.44495 3.23984,3.23981 0,1.79485 -1.44497,3.23981 -3.23984,3.23981 h -5.52873 c -1.79487,0 -3.23984,-1.44496 -3.23984,-3.23981 0,-1.79486 1.44497,-3.23981 3.23984,-3.23981 z"
           id="path500" /><path
           style="color:#000000;fill:#d5f6e5;fill-opacity:1;stroke-linecap:round;stroke-linejoin:round;-inkscape-stroke:none"
           d="m 493.89062,620.53711 c -2.64687,0 -4.82812,2.18125 -4.82812,4.82812 0,2.64688 2.18125,4.82813 4.82812,4.82813 h 5.5293 c 2.64688,0 4.82617,-2.18125 4.82617,-4.82813 0,-2.64687 -2.17929,-4.82812 -4.82617,-4.82812 z m 0,3.17578 h 5.5293 c 0.94287,0 1.65235,0.70951 1.65235,1.65234 0,0.94283 -0.70948,1.65235 -1.65235,1.65235 h -5.5293 c -0.94286,0 -1.65234,-0.70952 -1.65234,-1.65235 0,-0.94283 0.70948,-1.65234 1.65234,-1.65234 z"
           id="path501" /></g><path
         style="color:#000000;fill:#d5f6e5;fill-opacity:1;stroke-linecap:round;stroke-linejoin:round;-inkscape-stroke:none"
         d="m 799.36328,76.519531 -2.35937,2.361328 a 1.5875,1.5875 0 0 0 0,2.246094 1.5875,1.5875 0 0 0 2.24414,-0.002 l 2.36132,-2.359375 a 1.5875,1.5875 0 0 0 -0.002,-2.246094 1.5875,1.5875 0 0 0 -2.24414,0 z"
         id="path195" /><path
         style="color:#000000;fill:#d5f6e5;fill-opacity:1;stroke-linecap:round;stroke-linejoin:round;-inkscape-stroke:none"
         d="m 798.50977,74.134766 a 1.5875,1.5875 0 0 0 -1.11719,0.478515 1.5875,1.5875 0 0 0 0.0254,2.244141 l 3.9375,3.847656 a 1.5875,1.5875 0 0 0 2.24609,-0.02539 1.5875,1.5875 0 0 0 -0.0273,-2.24414 l -3.9375,-3.84961 a 1.5875,1.5875 0 0 0 -1.12695,-0.451171 z"
         id="path196" /><path
         style="color:#000000;fill:#d5f6e5;fill-opacity:1;stroke-linecap:round;stroke-linejoin:round;-inkscape-stroke:none"
         d="m 783.37891,92.746094 -2.77344,2.77539 a 1.5875,1.5875 0 0 0 0.002,2.244141 1.5875,1.5875 0 0 0 2.24414,0 l 2.77344,-2.773438 a 1.5875,1.5875 0 0 0 0,-2.246093 1.5875,1.5875 0 0 0 -2.24609,0 z"
         id="path209" /></g></g></svg>
