<?xml version="1.0" encoding="UTF-8" standalone="no"?>
<!-- Created with Inkscape (http://www.inkscape.org/) -->

<svg
   width="271.70508"
   height="316.1582"
   viewBox="0 0 71.888633 83.650191"
   version="1.1"
   id="svg8"
   inkscape:version="1.3 (0e150ed6c4, 2023-07-21)"
   sodipodi:docname="drawing.svg"
   xml:space="preserve"
   xmlns:inkscape="http://www.inkscape.org/namespaces/inkscape"
   xmlns:sodipodi="http://sodipodi.sourceforge.net/DTD/sodipodi-0.dtd"
   xmlns="http://www.w3.org/2000/svg"
   xmlns:svg="http://www.w3.org/2000/svg"
   xmlns:rdf="http://www.w3.org/1999/02/22-rdf-syntax-ns#"
   xmlns:cc="http://creativecommons.org/ns#"
   xmlns:dc="http://purl.org/dc/elements/1.1/"><defs
     id="defs2" /><sodipodi:namedview
     id="base"
     pagecolor="#ffffff"
     bordercolor="#666666"
     borderopacity="1.0"
     inkscape:pageopacity="0.0"
     inkscape:pageshadow="2"
     inkscape:zoom="0.96623116"
     inkscape:cx="1126.0245"
     inkscape:cy="1557.0808"
     inkscape:document-units="mm"
     inkscape:current-layer="g13"
     showgrid="false"
     units="px"
     inkscape:window-width="1916"
     inkscape:window-height="1037"
     inkscape:window-x="0"
     inkscape:window-y="0"
     inkscape:window-maximized="1"
     inkscape:showpageshadow="2"
     inkscape:pagecheckerboard="0"
     inkscape:deskcolor="#d1d1d1" /><metadata
     id="metadata5"><rdf:RDF><cc:Work
         rdf:about=""><dc:format>image/svg+xml</dc:format><dc:type
           rdf:resource="http://purl.org/dc/dcmitype/StillImage" /></cc:Work></rdf:RDF></metadata><g
     inkscape:groupmode="layer"
     id="layer2"
     inkscape:label="hud"
     style="display:inline"
     transform="translate(-203.4961,-395.52936)"><g
       id="g13"
       style="display:inline"
       inkscape:label="upgrades"
       transform="translate(0,18.417901)"><path
         id="rect235"
         style="color:#000000;fill:#abedcc;stroke-linecap:round;stroke-linejoin:round;-inkscape-stroke:none"
         d="m 208.09789,377.11144 c -2.52146,0 -4.60178,2.07827 -4.60178,4.59972 v 62.68713 c 0,2.52146 2.08032,4.60179 4.60178,4.60179 h 62.68713 c 2.52146,0 4.59972,-2.08033 4.59972,-4.60179 v -62.68713 c 0,-2.52145 -2.07826,-4.59972 -4.59972,-4.59972 z m 0,3.17397 h 62.68713 c 0.81743,0 1.42575,0.60832 1.42575,1.42575 v 62.68713 c 0,0.81743 -0.60832,1.42576 -1.42575,1.42576 h -62.68713 c -0.81743,0 -1.42627,-0.60833 -1.42627,-1.42576 v -62.68713 c 0,-0.81743 0.60884,-1.42575 1.42627,-1.42575 z m 39.78672,15.14016 c -2.89459,0.004 -5.15579,2.16256 -7.00371,4.05092 -1.04829,1.07124 -1.23648,1.41094 -1.80299,2.13268 -0.43903,-0.62422 -0.50611,-0.8113 -1.23041,-1.66604 -1.46609,-1.7301 -3.23937,-3.71612 -5.71852,-4.16771 -5.00991,-0.91255 -10.77515,1.46315 -13.56041,5.76192 -3.25407,5.02235 -2.36621,11.99439 0.2558,16.96641 2.07759,3.93965 6.8154,7.15796 11.03912,9.66246 4.22372,2.50449 7.99796,4.15995 7.99796,4.15995 a 1.5876587,1.5876587 0 0 0 1.30845,-0.0155 c 0,0 3.555,-1.65795 7.60367,-4.10363 4.04866,-2.44567 8.62165,-5.56712 10.88099,-9.16223 2.48614,-3.95599 4.11875,-9.39341 2.312,-14.13247 -0.9151,-2.40025 -2.57191,-4.69877 -4.6638,-6.46524 -2.09188,-1.76647 -4.6579,-3.02579 -7.41815,-3.02152 z M 209.68229,452.481 a 1.7450592,1.4444554 0 0 0 -1.74304,1.44436 v 5.3914 a 1.7450592,1.4444554 0 0 0 1.74304,1.44488 h 0.88264 a 1.7450592,1.4444554 0 0 0 1.60145,-1.3255 1.7450592,1.4444554 0 0 0 1.60145,1.3255 h 0.88005 a 1.7450592,1.4444554 0 0 0 1.74511,-1.44488 v -5.3914 a 1.7450592,1.4444554 0 0 0 -1.74511,-1.44436 h -0.88005 a 1.7450592,1.4444554 0 0 0 -1.60145,1.3255 1.7450592,1.4444554 0 0 0 -1.60145,-1.3255 z m 9.39013,0 a 1.7450592,1.4444554 0 0 0 -1.74563,1.44436 v 5.3914 a 1.7450592,1.4444554 0 0 0 1.74563,1.44488 h 4.19664 a 1.7450592,1.4444554 0 0 0 1.74356,-1.44488 v -0.0853 a 1.7450592,1.4444554 0 0 0 1.56683,1.53014 h 0.92966 a 1.7450592,1.4444554 0 0 0 1.64434,-0.96119 l 0.18036,-0.42323 h 0.47232 l 0.18035,0.42323 a 1.7450592,1.4444554 0 0 0 1.64434,0.96119 h 0.91674 a 1.7450592,1.4444554 0 0 0 1.62936,-1.96009 l -2.4815,-5.3914 a 1.7450592,1.4444554 0 0 0 -1.62936,-0.92915 h -1.00046 a 1.7450592,1.4444554 0 0 0 -1.62935,0.92915 l -2.43655,5.28133 a 1.7450592,1.4444554 0 0 0 -1.2733,-1.05368 1.7450592,1.4444554 0 0 0 1.07332,-0.88884 v -0.61288 a 1.7450592,1.4444554 0 0 0 -0.89711,-0.74259 1.7450592,1.4444554 0 0 0 1.0325,-0.85473 v -0.6134 a 1.7450592,1.4444554 0 0 0 -1.74512,-1.44436 z m 17.09663,0 a 1.7450592,1.4444554 0 0 0 -1.74512,1.44436 v 5.3914 a 1.7450592,1.4444554 0 0 0 1.74512,1.44488 h 4.05298 a 1.7450592,1.4444554 0 0 0 1.74356,-1.44488 v -0.61495 a 1.7450592,1.4444554 0 0 0 -1.74356,-1.4428 h -1.4273 v -3.33365 A 1.7450592,1.4444554 0 0 0 237.0491,452.481 Z m 5.51284,0 a 1.7450592,1.4444554 0 0 0 -1.74305,1.44436 v 0.6134 a 1.7450592,1.4444554 0 0 0 1.74305,1.44436 h 0.56896 v 3.33364 a 1.7450592,1.4444554 0 0 0 1.74304,1.44488 h 0.88677 a 1.7450592,1.4444554 0 0 0 1.74511,-1.44488 v -3.33364 h 0.56689 a 1.7450592,1.4444554 0 0 0 1.74512,-1.44436 v -0.6134 a 1.7450592,1.4444554 0 0 0 -1.74512,-1.44436 z m 9.03149,0 a 1.7450592,1.4444554 0 0 0 -1.74511,1.44436 v 5.3914 a 1.7450592,1.4444554 0 0 0 1.74511,1.44488 h 0.88005 a 1.7450592,1.4444554 0 0 0 1.60145,-1.3255 1.7450592,1.4444554 0 0 0 1.60145,1.3255 h 0.88264 a 1.7450592,1.4444554 0 0 0 1.74304,-1.44488 v -5.3914 a 1.7450592,1.4444554 0 0 0 -1.74304,-1.44436 h -0.88264 a 1.7450592,1.4444554 0 0 0 -1.60145,1.3255 1.7450592,1.4444554 0 0 0 -1.60145,-1.3255 z m 16.56023,0 a 1.7450592,1.4444554 0 0 0 -0.34572,0.0284 l -1.55649,0.26096 a 1.7450592,1.4444554 0 0 0 -1.3994,1.41439 v 0.66456 a 1.7450592,1.4444554 0 0 0 1.56476,1.30999 v 1.35186 a 1.7450592,1.4444554 0 0 0 -1.43815,1.19062 v 0.61495 a 1.7450592,1.4444554 0 0 0 1.74304,1.44488 h 3.75223 a 1.7450592,1.4444554 0 0 0 1.74563,-1.44488 v -0.61495 a 1.7450592,1.4444554 0 0 0 -1.44074,-1.19062 v -3.58583 a 1.7450592,1.4444554 0 0 0 -1.74304,-1.44436 z" /></g></g></svg>
