<?xml version="1.0" encoding="UTF-8" standalone="no"?>
<!-- Created with Inkscape (http://www.inkscape.org/) -->

<svg
   width="271.71289"
   height="316.16016"
   viewBox="0 0 71.8907 83.650708"
   version="1.1"
   id="svg8"
   inkscape:version="1.3 (0e150ed6c4, 2023-07-21)"
   sodipodi:docname="drawing.svg"
   xml:space="preserve"
   xmlns:inkscape="http://www.inkscape.org/namespaces/inkscape"
   xmlns:sodipodi="http://sodipodi.sourceforge.net/DTD/sodipodi-0.dtd"
   xmlns="http://www.w3.org/2000/svg"
   xmlns:svg="http://www.w3.org/2000/svg"
   xmlns:rdf="http://www.w3.org/1999/02/22-rdf-syntax-ns#"
   xmlns:cc="http://creativecommons.org/ns#"
   xmlns:dc="http://purl.org/dc/elements/1.1/"><defs
     id="defs2" /><sodipodi:namedview
     id="base"
     pagecolor="#ffffff"
     bordercolor="#666666"
     borderopacity="1.0"
     inkscape:pageopacity="0.0"
     inkscape:pageshadow="2"
     inkscape:zoom="0.96623116"
     inkscape:cx="1126.0245"
     inkscape:cy="1557.0808"
     inkscape:document-units="mm"
     inkscape:current-layer="g13"
     showgrid="false"
     units="px"
     inkscape:window-width="1916"
     inkscape:window-height="1037"
     inkscape:window-x="0"
     inkscape:window-y="0"
     inkscape:window-maximized="1"
     inkscape:showpageshadow="2"
     inkscape:pagecheckerboard="0"
     inkscape:deskcolor="#d1d1d1" /><metadata
     id="metadata5"><rdf:RDF><cc:Work
         rdf:about=""><dc:format>image/svg+xml</dc:format><dc:type
           rdf:resource="http://purl.org/dc/dcmitype/StillImage" /></cc:Work></rdf:RDF></metadata><g
     inkscape:groupmode="layer"
     id="layer2"
     inkscape:label="hud"
     style="display:inline"
     transform="translate(-298.40608,-397.4765)"><g
       id="g13"
       style="display:inline"
       inkscape:label="upgrades"
       transform="translate(0,18.417901)"><path
         id="path577"
         style="color:#000000;fill:#abedcc;stroke-linecap:round;stroke-linejoin:round;-inkscape-stroke:none"
         d="m 303.00786,379.05861 c -2.52146,0 -4.60178,2.08033 -4.60178,4.60179 v 62.68713 c 0,2.52146 2.08032,4.60178 4.60178,4.60178 h 62.68765 c 2.52146,0 4.60127,-2.08032 4.60127,-4.60178 V 383.6604 c 0,-2.52146 -2.07981,-4.60179 -4.60127,-4.60179 z m 0,3.17552 h 62.68765 c 0.81743,0 1.42575,0.60884 1.42575,1.42627 v 62.68713 c 0,0.81743 -0.60832,1.42575 -1.42575,1.42575 h -62.68765 c -0.81743,0 -1.42575,-0.60832 -1.42575,-1.42575 V 383.6604 c 0,-0.81743 0.60832,-1.42627 1.42575,-1.42627 z m 38.09742,18.26969 c -2.54377,0.005 -4.40383,1.83119 -5.93349,3.38894 -0.72982,0.74321 -0.7927,0.90833 -1.25367,1.47846 -0.33355,-0.45793 -0.33023,-0.52813 -0.80305,-1.08417 -1.21469,-1.42849 -2.66446,-3.0979 -4.8457,-3.49385 -4.233,-0.76838 -9.02535,1.19489 -11.38484,4.824 -2.74856,4.22752 -1.99057,9.99623 0.19741,14.13092 1.76126,3.32827 5.66723,5.94077 9.13897,7.99228 3.47176,2.05151 6.57221,3.40599 6.57221,3.40599 a 1.5876587,1.5876587 0 0 0 1.30638,-0.0155 c 0,0 2.91783,-1.35713 6.24407,-3.35949 3.32623,-2.00235 7.09033,-4.53661 8.99841,-7.56233 2.07002,-3.2824 3.44489,-7.78804 1.91565,-11.78532 -0.76932,-2.01095 -2.14899,-3.91809 -3.89847,-5.39037 -1.74898,-1.47186 -3.90571,-2.53277 -6.25182,-2.52956 z m 16.99638,25.43565 c -1.76331,0.002 -2.7382,1.09204 -3.56826,1.92185 -0.0407,0.0407 -0.0308,0.0395 -0.0703,0.0801 -0.63,-0.73453 -1.3527,-1.59372 -2.76779,-1.84589 -2.51334,-0.44785 -5.15357,0.59653 -6.57996,2.75022 -1.64006,2.47634 -1.17226,5.60396 0.0625,7.89461 1.06895,1.983 3.1406,3.25436 4.95473,4.30672 1.81415,1.05237 3.43184,1.74408 3.43184,1.74408 a 1.5876587,1.5876587 0 0 0 1.28726,-0.014 c 0,0 1.51975,-0.69415 3.25354,-1.71875 1.73379,-1.0246 3.70775,-2.26347 4.8457,-4.0349 1.15512,-1.79815 1.97154,-4.25618 1.04903,-6.62337 -0.45006,-1.15485 -1.22526,-2.19721 -2.22053,-3.01945 -0.99528,-0.82224 -2.24755,-1.44353 -3.67781,-1.44126 z m 4.08192,28.3931 c -0.42113,0 -0.83162,0.047 -1.24489,0.12764 -0.41063,0.0802 -0.82311,0.19412 -1.24488,0.33435 a 1.7450592,1.4444554 0 0 0 -1.09503,1.33997 v 0.73535 a 1.7450592,1.4444554 0 0 0 2.24121,1.25832 c -0.16147,0.13802 -0.18167,0.16041 -0.41444,0.35502 -0.57877,0.4839 -1.03753,0.87068 -1.38028,1.16427 a 1.7450592,1.4444554 0 0 0 -0.48938,1.00408 v 0.61443 a 1.7450592,1.4444554 0 0 0 1.74305,1.4428 h 4.1367 a 1.7450592,1.4444554 0 0 0 1.74563,-1.4428 v -0.61443 a 1.7450592,1.4444554 0 0 0 -1.2175,-1.0077 c 0.0145,-0.0136 0.0462,-0.0395 0.0605,-0.0532 a 1.7450592,1.4444554 0 0 0 0.032,-0.032 c 0.32796,-0.33413 0.59849,-0.65394 0.80047,-1.05575 0.18975,-0.37447 0.28784,-0.78577 0.28784,-1.18856 0,-0.80949 -0.45559,-1.69023 -1.2237,-2.22467 -0.77003,-0.53576 -1.77175,-0.75706 -2.7373,-0.75706 z m -57.58874,0.0977 a 1.7450592,1.4444554 0 0 0 -1.74511,1.44487 v 5.39089 a 1.7450592,1.4444554 0 0 0 1.74511,1.4428 h 0.88005 a 1.7450592,1.4444554 0 0 0 1.60146,-1.32343 1.7450592,1.4444554 0 0 0 1.60145,1.32343 h 0.88057 a 1.7450592,1.4444554 0 0 0 1.74511,-1.4428 v -5.39089 a 1.7450592,1.4444554 0 0 0 -1.74511,-1.44487 h -0.88057 a 1.7450592,1.4444554 0 0 0 -1.60145,1.3255 1.7450592,1.4444554 0 0 0 -1.60146,-1.3255 z m 9.38806,0 a 1.7450592,1.4444554 0 0 0 -1.74563,1.44487 v 5.39089 a 1.7450592,1.4444554 0 0 0 1.74563,1.4428 h 4.19665 a 1.7450592,1.4444554 0 0 0 1.74511,-1.4428 v -0.0708 a 1.7450592,1.4444554 0 0 0 1.56528,1.51412 h 0.92966 a 1.7450592,1.4444554 0 0 0 1.64434,-0.95963 l 0.18035,-0.42323 h 0.47232 l 0.18242,0.42323 a 1.7450592,1.4444554 0 0 0 1.64435,0.95963 h 0.91467 a 1.7450592,1.4444554 0 0 0 1.63142,-1.95854 l -2.4815,-5.3914 a 1.7450592,1.4444554 0 0 0 -1.63194,-0.92914 h -0.99787 a 1.7450592,1.4444554 0 0 0 -1.63194,0.92914 l -2.43448,5.28133 a 1.7450592,1.4444554 0 0 0 -1.27486,-1.05575 1.7450592,1.4444554 0 0 0 1.07332,-0.88625 v -0.61495 a 1.7450592,1.4444554 0 0 0 -0.89503,-0.74104 1.7450592,1.4444554 0 0 0 1.03042,-0.85473 v -0.61288 a 1.7450592,1.4444554 0 0 0 -1.74563,-1.44487 z m 17.09663,0 a 1.7450592,1.4444554 0 0 0 -1.74563,1.44487 v 5.39089 a 1.7450592,1.4444554 0 0 0 1.74563,1.4428 h 4.05299 a 1.7450592,1.4444554 0 0 0 1.74511,-1.4428 v -0.61443 a 1.7450592,1.4444554 0 0 0 -1.74511,-1.44488 h -1.42782 v -3.33158 a 1.7450592,1.4444554 0 0 0 -1.74512,-1.44487 z m 5.51491,0 a 1.7450592,1.4444554 0 0 0 -1.74511,1.44487 v 0.61288 a 1.7450592,1.4444554 0 0 0 1.74511,1.44436 h 0.56689 v 3.33365 a 1.7450592,1.4444554 0 0 0 1.74512,1.4428 h 0.8847 a 1.7450592,1.4444554 0 0 0 1.74511,-1.4428 v -3.33365 h 0.56689 a 1.7450592,1.4444554 0 0 0 1.74511,-1.44436 v -0.61288 a 1.7450592,1.4444554 0 0 0 -1.74511,-1.44487 z m 9.02942,0 a 1.7450592,1.4444554 0 0 0 -1.74563,1.44487 v 5.39089 a 1.7450592,1.4444554 0 0 0 1.74563,1.4428 h 0.88212 a 1.7450592,1.4444554 0 0 0 1.60145,-1.32343 1.7450592,1.4444554 0 0 0 1.59939,1.32343 h 0.88212 a 1.7450592,1.4444554 0 0 0 1.74563,-1.4428 v -5.39089 a 1.7450592,1.4444554 0 0 0 -1.74563,-1.44487 h -0.88212 a 1.7450592,1.4444554 0 0 0 -1.59939,1.3255 1.7450592,1.4444554 0 0 0 -1.60145,-1.3255 z m 19.2779,4.12275 -0.005,0.007 c 6.1e-4,-9.1e-4 -6.1e-4,-0.003 0,-0.004 9.4e-4,-0.002 0.004,-0.002 0.005,-0.004 z" /></g></g></svg>
