<?xml version="1.0" encoding="UTF-8" standalone="no"?>
<!-- Created with Inkscape (http://www.inkscape.org/) -->

<svg
   width="271.71289"
   height="316.55469"
   viewBox="0 0 71.8907 83.755094"
   version="1.1"
   id="svg8"
   inkscape:version="1.3 (0e150ed6c4, 2023-07-21)"
   sodipodi:docname="drawing.svg"
   xml:space="preserve"
   xmlns:inkscape="http://www.inkscape.org/namespaces/inkscape"
   xmlns:sodipodi="http://sodipodi.sourceforge.net/DTD/sodipodi-0.dtd"
   xmlns="http://www.w3.org/2000/svg"
   xmlns:svg="http://www.w3.org/2000/svg"
   xmlns:rdf="http://www.w3.org/1999/02/22-rdf-syntax-ns#"
   xmlns:cc="http://creativecommons.org/ns#"
   xmlns:dc="http://purl.org/dc/elements/1.1/"><defs
     id="defs2" /><sodipodi:namedview
     id="base"
     pagecolor="#ffffff"
     bordercolor="#666666"
     borderopacity="1.0"
     inkscape:pageopacity="0.0"
     inkscape:pageshadow="2"
     inkscape:zoom="1.3664572"
     inkscape:cx="3102.9146"
     inkscape:cy="503.85771"
     inkscape:document-units="mm"
     inkscape:current-layer="g13"
     showgrid="false"
     units="px"
     inkscape:window-width="1916"
     inkscape:window-height="1037"
     inkscape:window-x="0"
     inkscape:window-y="0"
     inkscape:window-maximized="1"
     inkscape:showpageshadow="2"
     inkscape:pagecheckerboard="0"
     inkscape:deskcolor="#d1d1d1" /><metadata
     id="metadata5"><rdf:RDF><cc:Work
         rdf:about=""><dc:format>image/svg+xml</dc:format><dc:type
           rdf:resource="http://purl.org/dc/dcmitype/StillImage" /></cc:Work></rdf:RDF></metadata><g
     inkscape:groupmode="layer"
     id="layer2"
     inkscape:label="hud"
     style="display:inline"
     transform="translate(-872.14468,-84.874924)"><g
       id="g13"
       style="display:inline"
       inkscape:label="upgrades"
       transform="translate(0,18.417901)"><path
         id="path551"
         style="color:#000000;fill:#d5f6e5;fill-opacity:1;stroke-linecap:round;stroke-linejoin:round;-inkscape-stroke:none"
         d="m 876.74597,66.457022 c -2.52146,0 -4.60127,2.078273 -4.60127,4.599719 v 62.687649 c 0,2.52139 2.07981,4.60127 4.60127,4.60127 h 62.68764 c 2.52146,0 4.60179,-2.07988 4.60179,-4.60127 V 71.056741 c 0,-2.521446 -2.08033,-4.599719 -4.60179,-4.599719 z m 51.13848,75.271378 c -0.36341,0 -0.72926,0.0277 -1.10123,0.0765 a 1.7450592,1.4444554 0 0 0 -0.004,0 c -0.36701,0.0486 -0.7417,0.11838 -1.12965,0.20774 a 1.7450592,1.4444554 0 0 0 -1.27692,1.39164 v 0.65009 a 1.7450592,1.4444554 0 0 0 1.16995,1.22783 1.7450592,1.4444554 0 0 0 -0.24081,0.19896 v 0.59893 a 1.7450592,1.4444554 0 0 0 0.56276,0.4656 1.7450592,1.4444554 0 0 0 -1.68724,1.24902 v 0.7059 a 1.7450592,1.4444554 0 0 0 1.16789,1.36271 c 0.38332,0.11079 0.76874,0.19601 1.15445,0.25425 10e-4,2.3e-4 0.004,0.002 0.005,0.002 0.38437,0.0597 0.77113,0.0925 1.15703,0.0925 1.06569,0 2.12088,-0.19146 2.9714,-0.7519 0.84705,-0.55814 1.3224,-1.50155 1.3224,-2.36471 0,-0.49646 -0.28625,-0.98919 -0.61185,-1.4397 0.19751,-0.36051 0.4594,-0.71261 0.4594,-1.08366 0,-0.79013 -0.48904,-1.66216 -1.25832,-2.15749 -0.77055,-0.4983 -1.72698,-0.68575 -2.65978,-0.68575 z m -41.41091,0.0977 a 1.7450592,1.4444554 0 0 0 -1.74305,1.44488 v 5.39088 a 1.7450592,1.4444554 0 0 0 1.74305,1.44488 h 0.88212 a 1.7450592,1.4444554 0 0 0 1.60197,-1.3255 1.7450592,1.4444554 0 0 0 1.60145,1.3255 h 0.88005 a 1.7450592,1.4444554 0 0 0 1.74511,-1.44488 v -5.39088 a 1.7450592,1.4444554 0 0 0 -1.74511,-1.44488 h -0.88005 a 1.7450592,1.4444554 0 0 0 -1.60145,1.32551 1.7450592,1.4444554 0 0 0 -1.60197,-1.32551 z m 9.39012,0 a 1.7450592,1.4444554 0 0 0 -1.74563,1.44488 v 5.39088 a 1.7450592,1.4444554 0 0 0 1.74563,1.44488 h 4.19665 a 1.7450592,1.4444554 0 0 0 1.74304,-1.44488 v -0.0853 a 1.7450592,1.4444554 0 0 0 1.56735,1.53014 h 0.92966 a 1.7450592,1.4444554 0 0 0 1.64434,-0.96119 l 0.18035,-0.42116 h 0.47233 l 0.18035,0.42116 a 1.7450592,1.4444554 0 0 0 1.64434,0.96119 h 0.91674 a 1.7450592,1.4444554 0 0 0 1.63143,-1.95802 l -2.48357,-5.39141 a 1.7450592,1.4444554 0 0 0 -1.62936,-0.93121 h -1.00046 a 1.7450592,1.4444554 0 0 0 -1.62936,0.92966 l -2.43654,5.28289 a 1.7450592,1.4444554 0 0 0 -1.27331,-1.05575 1.7450592,1.4444554 0 0 0 1.07332,-0.88832 v -0.6134 a 1.7450592,1.4444554 0 0 0 -0.8971,-0.74259 1.7450592,1.4444554 0 0 0 1.03249,-0.85318 v -0.61443 a 1.7450592,1.4444554 0 0 0 -1.74511,-1.44488 z m 17.09663,0 a 1.7450592,1.4444554 0 0 0 -1.74511,1.44488 v 5.39088 a 1.7450592,1.4444554 0 0 0 1.74511,1.44488 h 4.05299 a 1.7450592,1.4444554 0 0 0 1.74304,-1.44488 v -0.61288 a 1.7450592,1.4444554 0 0 0 -1.74304,-1.44487 h -1.42731 v -3.33313 a 1.7450592,1.4444554 0 0 0 -1.74563,-1.44488 z" /></g></g></svg>
