<?xml version="1.0" encoding="UTF-8" standalone="no"?>
<!-- Created with Inkscape (http://www.inkscape.org/) -->

<svg
   width="271.70508"
   height="316.1582"
   viewBox="0 0 71.888633 83.650191"
   version="1.1"
   id="svg8"
   inkscape:version="1.3 (0e150ed6c4, 2023-07-21)"
   sodipodi:docname="drawing.svg"
   xml:space="preserve"
   xmlns:inkscape="http://www.inkscape.org/namespaces/inkscape"
   xmlns:sodipodi="http://sodipodi.sourceforge.net/DTD/sodipodi-0.dtd"
   xmlns="http://www.w3.org/2000/svg"
   xmlns:svg="http://www.w3.org/2000/svg"
   xmlns:rdf="http://www.w3.org/1999/02/22-rdf-syntax-ns#"
   xmlns:cc="http://creativecommons.org/ns#"
   xmlns:dc="http://purl.org/dc/elements/1.1/"><defs
     id="defs2" /><sodipodi:namedview
     id="base"
     pagecolor="#ffffff"
     bordercolor="#666666"
     borderopacity="1.0"
     inkscape:pageopacity="0.0"
     inkscape:pageshadow="2"
     inkscape:zoom="0.96623116"
     inkscape:cx="1126.0245"
     inkscape:cy="1557.0808"
     inkscape:document-units="mm"
     inkscape:current-layer="g13"
     showgrid="false"
     units="px"
     inkscape:window-width="1916"
     inkscape:window-height="1037"
     inkscape:window-x="0"
     inkscape:window-y="0"
     inkscape:window-maximized="1"
     inkscape:showpageshadow="2"
     inkscape:pagecheckerboard="0"
     inkscape:deskcolor="#d1d1d1" /><metadata
     id="metadata5"><rdf:RDF><cc:Work
         rdf:about=""><dc:format>image/svg+xml</dc:format><dc:type
           rdf:resource="http://purl.org/dc/dcmitype/StillImage" /></cc:Work></rdf:RDF></metadata><g
     inkscape:groupmode="layer"
     id="layer2"
     inkscape:label="hud"
     style="display:inline"
     transform="translate(-203.4961,-395.52936)"><g
       id="g13"
       style="display:inline"
       inkscape:label="upgrades"
       transform="translate(0,18.417901)"><path
         id="path560"
         style="color:#000000;fill:#d5f6e5;fill-opacity:1;stroke-linecap:round;stroke-linejoin:round;-inkscape-stroke:none"
         d="m 208.09789,377.11144 c -2.52146,0 -4.60178,2.07828 -4.60178,4.59972 v 62.68713 c 0,2.52146 2.08032,4.60179 4.60178,4.60179 h 62.68713 c 2.52146,0 4.59972,-2.08033 4.59972,-4.60179 v -62.68713 c 0,-2.52144 -2.07826,-4.59972 -4.59972,-4.59972 z m 1.5844,75.36956 a 1.7450592,1.4444554 0 0 0 -1.74304,1.44436 v 5.3914 a 1.7450592,1.4444554 0 0 0 1.74304,1.44488 h 0.88264 a 1.7450592,1.4444554 0 0 0 1.60145,-1.3255 1.7450592,1.4444554 0 0 0 1.60145,1.3255 h 0.88005 a 1.7450592,1.4444554 0 0 0 1.74511,-1.44488 v -5.3914 a 1.7450592,1.4444554 0 0 0 -1.74511,-1.44436 h -0.88005 a 1.7450592,1.4444554 0 0 0 -1.60145,1.3255 1.7450592,1.4444554 0 0 0 -1.60145,-1.3255 z m 9.39013,0 a 1.7450592,1.4444554 0 0 0 -1.74563,1.44436 v 5.3914 a 1.7450592,1.4444554 0 0 0 1.74563,1.44488 h 4.19664 a 1.7450592,1.4444554 0 0 0 1.74356,-1.44488 v -0.0853 a 1.7450592,1.4444554 0 0 0 1.56683,1.53014 h 0.92966 a 1.7450592,1.4444554 0 0 0 1.64434,-0.96119 l 0.18036,-0.42323 h 0.47232 l 0.18035,0.42323 a 1.7450592,1.4444554 0 0 0 1.64434,0.96119 h 0.91674 a 1.7450592,1.4444554 0 0 0 1.62936,-1.96009 l -2.4815,-5.3914 a 1.7450592,1.4444554 0 0 0 -1.62936,-0.92915 h -1.00046 a 1.7450592,1.4444554 0 0 0 -1.62935,0.92915 l -2.43655,5.28133 a 1.7450592,1.4444554 0 0 0 -1.2733,-1.05368 1.7450592,1.4444554 0 0 0 1.07332,-0.88884 v -0.61288 a 1.7450592,1.4444554 0 0 0 -0.89711,-0.74259 1.7450592,1.4444554 0 0 0 1.0325,-0.85473 v -0.6134 a 1.7450592,1.4444554 0 0 0 -1.74512,-1.44436 z m 17.09663,0 a 1.7450592,1.4444554 0 0 0 -1.74512,1.44436 v 5.3914 a 1.7450592,1.4444554 0 0 0 1.74512,1.44488 h 4.05298 a 1.7450592,1.4444554 0 0 0 1.74356,-1.44488 v -0.61495 a 1.7450592,1.4444554 0 0 0 -1.74356,-1.4428 h -1.4273 v -3.33365 A 1.7450592,1.4444554 0 0 0 237.0491,452.481 Z m 5.51284,0 a 1.7450592,1.4444554 0 0 0 -1.74305,1.44436 v 0.6134 a 1.7450592,1.4444554 0 0 0 1.74305,1.44436 h 0.56896 v 3.33364 a 1.7450592,1.4444554 0 0 0 1.74304,1.44488 h 0.88677 a 1.7450592,1.4444554 0 0 0 1.74511,-1.44488 v -3.33364 h 0.56689 a 1.7450592,1.4444554 0 0 0 1.74512,-1.44436 v -0.6134 a 1.7450592,1.4444554 0 0 0 -1.74512,-1.44436 z m 9.03149,0 a 1.7450592,1.4444554 0 0 0 -1.74511,1.44436 v 5.3914 a 1.7450592,1.4444554 0 0 0 1.74511,1.44488 h 0.88005 a 1.7450592,1.4444554 0 0 0 1.60145,-1.3255 1.7450592,1.4444554 0 0 0 1.60145,1.3255 h 0.88264 a 1.7450592,1.4444554 0 0 0 1.74304,-1.44488 v -5.3914 a 1.7450592,1.4444554 0 0 0 -1.74304,-1.44436 h -0.88264 a 1.7450592,1.4444554 0 0 0 -1.60145,1.3255 1.7450592,1.4444554 0 0 0 -1.60145,-1.3255 z m 16.56023,0 a 1.7450592,1.4444554 0 0 0 -0.34572,0.0284 l -1.55649,0.26096 a 1.7450592,1.4444554 0 0 0 -1.3994,1.41439 v 0.66456 a 1.7450592,1.4444554 0 0 0 1.56476,1.30999 v 1.35186 a 1.7450592,1.4444554 0 0 0 -1.43815,1.19062 v 0.61495 a 1.7450592,1.4444554 0 0 0 1.74304,1.44488 h 3.75223 a 1.7450592,1.4444554 0 0 0 1.74563,-1.44488 v -0.61495 a 1.7450592,1.4444554 0 0 0 -1.44074,-1.19062 v -3.58583 a 1.7450592,1.4444554 0 0 0 -1.74304,-1.44436 z" /></g></g></svg>
