<?xml version="1.0" encoding="UTF-8" standalone="no"?>
<!-- Created with Inkscape (http://www.inkscape.org/) -->

<svg
   width="314.4082"
   height="316.55847"
   viewBox="0 0 83.187168 83.756096"
   version="1.1"
   id="svg8"
   inkscape:version="1.3 (0e150ed6c4, 2023-07-21)"
   sodipodi:docname="drawing.svg"
   xml:space="preserve"
   xmlns:inkscape="http://www.inkscape.org/namespaces/inkscape"
   xmlns:sodipodi="http://sodipodi.sourceforge.net/DTD/sodipodi-0.dtd"
   xmlns="http://www.w3.org/2000/svg"
   xmlns:svg="http://www.w3.org/2000/svg"
   xmlns:rdf="http://www.w3.org/1999/02/22-rdf-syntax-ns#"
   xmlns:cc="http://creativecommons.org/ns#"
   xmlns:dc="http://purl.org/dc/elements/1.1/"><defs
     id="defs2" /><sodipodi:namedview
     id="base"
     pagecolor="#ffffff"
     bordercolor="#666666"
     borderopacity="1.0"
     inkscape:pageopacity="0.0"
     inkscape:pageshadow="2"
     inkscape:zoom="0.96623116"
     inkscape:cx="2563.5688"
     inkscape:cy="1058.2354"
     inkscape:document-units="mm"
     inkscape:current-layer="g13"
     showgrid="false"
     units="px"
     inkscape:window-width="1916"
     inkscape:window-height="1037"
     inkscape:window-x="0"
     inkscape:window-y="0"
     inkscape:window-maximized="1"
     inkscape:showpageshadow="2"
     inkscape:pagecheckerboard="0"
     inkscape:deskcolor="#d1d1d1" /><metadata
     id="metadata5"><rdf:RDF><cc:Work
         rdf:about=""><dc:format>image/svg+xml</dc:format><dc:type
           rdf:resource="http://purl.org/dc/dcmitype/StillImage" /></cc:Work></rdf:RDF></metadata><g
     inkscape:groupmode="layer"
     id="layer2"
     inkscape:label="hud"
     style="display:inline"
     transform="translate(-698.11269,-239.98235)"><g
       id="g13"
       style="display:inline"
       inkscape:label="upgrades"
       transform="translate(0,18.417901)"><path
         style="color:#000000;fill:#abedcc;stroke-linecap:round;stroke-linejoin:round;-inkscape-stroke:none"
         d="m 708.25391,221.56445 c -2.52146,0 -4.60157,2.08011 -4.60157,4.60157 v 62.6875 c 0,2.52146 2.08011,4.60156 4.60157,4.60156 h 62.6875 c 2.52146,0 4.60156,-2.0801 4.60156,-4.60156 v -62.6875 c 0,-2.52146 -2.0801,-4.60157 -4.60156,-4.60157 z m 0,3.17578 h 62.6875 c 0.81743,0 1.42578,0.60836 1.42578,1.42579 v 62.6875 c 0,0.81743 -0.60835,1.42578 -1.42578,1.42578 h -62.6875 c -0.81743,0 -1.42578,-0.60835 -1.42579,-1.42578 v -62.6875 c 0,-0.81743 0.60836,-1.42579 1.42579,-1.42579 z"
         id="rect161" /><path
         style="color:#000000;-inkscape-font-specification:sans-serif;fill:#abedcc;stroke-linecap:round;stroke-linejoin:round;-inkscape-stroke:none"
         d="m 638.8125,326.26562 c -0.8945,0 -1.80921,0.22261 -2.53125,0.81055 a 1.5876587,1.5876587 0 0 0 -0.004,0.002 c -0.71625,0.58743 -1.13281,1.5714 -1.13281,2.4668 0,0.68333 0.26765,1.42259 0.75,1.99024 a 1.5876587,1.5876587 0 0 0 -0.72461,1.26367 v 0.82617 a 1.5876587,1.5876587 0 0 0 1.03906,1.49023 c 0.40598,0.14904 0.81134,0.26624 1.21485,0.34766 a 1.5876587,1.5876587 0 0 0 0.002,0 c 0.40571,0.0812 0.80864,0.12695 1.20899,0.12695 0.95296,0 1.88068,-0.17605 2.65625,-0.77343 0.77917,-0.59772 1.20117,-1.63424 1.20117,-2.56446 0,-0.79336 -0.29297,-1.66667 -0.89063,-2.26758 -0.01,-0.01 -0.0252,-0.008 -0.0351,-0.0176 a 1.5876587,1.5876587 0 0 0 0.56836,-1.0293 v -0.78125 a 1.5876587,1.5876587 0 0 0 -1.08594,-1.50586 c -0.37037,-0.12347 -0.74069,-0.22022 -1.11328,-0.28516 -0.37336,-0.0651 -0.74948,-0.0996 -1.12305,-0.0996 z m 68.3125,0 c -0.33062,0 -0.66549,0.0304 -1.00391,0.084 a 1.5876587,1.5876587 0 0 0 -0.002,0 c -0.33388,0.0534 -0.6744,0.1303 -1.02734,0.22851 a 1.5876587,1.5876587 0 0 0 -1.16211,1.5293 v 0.71485 a 1.5876587,1.5876587 0 0 0 1.06445,1.3496 1.5876587,1.5876587 0 0 0 -0.21875,0.21875 v 0.65821 a 1.5876587,1.5876587 0 0 0 0.51172,0.51172 1.5876587,1.5876587 0 0 0 -1.53711,1.37304 v 0.77539 a 1.5876587,1.5876587 0 0 0 1.06445,1.49805 c 0.34614,0.12078 0.69283,0.21527 1.04102,0.2793 0.003,4.9e-4 0.005,-4.9e-4 0.008,0 10e-4,2.5e-4 0.003,0.002 0.004,0.002 0.35033,0.0659 0.70295,0.10156 1.05468,0.10156 0.96957,0 1.92932,-0.21017 2.70313,-0.82617 0.77066,-0.61347 1.20312,-1.65088 1.20312,-2.59961 10e-6,-0.54628 -0.25976,-1.0884 -0.55664,-1.58398 0.17911,-0.39573 0.41602,-0.7823 0.41602,-1.18946 0,-0.86847 -0.44269,-1.82665 -1.14258,-2.37109 -0.70104,-0.54771 -1.5712,-0.7539 -2.41992,-0.75391 z m -28.37891,0.002 c -1.23604,0 -2.46972,0.41824 -3.31836,1.29687 -0.85081,0.88105 -1.22656,2.11197 -1.22656,3.36524 0,1.2514 0.37719,2.48144 1.22461,3.36328 a 1.5876587,1.5876587 0 0 0 0.006,0.006 c 0.84951,0.87525 2.07992,1.29101 3.31445,1.29101 0.56228,0 1.11595,-0.0744 1.64649,-0.23242 a 1.5876587,1.5876587 0 0 0 0.01,-0.004 c 0.5285,-0.16118 1.03095,-0.40377 1.48047,-0.72266 a 1.5876587,1.5876587 0 0 0 0.66797,-1.29492 v -2.54492 a 1.5876587,1.5876587 0 0 0 -0.68555,-0.6875 1.5876587,1.5876587 0 0 0 0.53125,-0.83204 V 328.875 a 1.5876587,1.5876587 0 0 0 1.34961,1.34766 h 0.51563 v 3.66406 a 1.5876587,1.5876587 0 0 0 1.58789,1.58789 h 0.80664 a 1.5876587,1.5876587 0 0 0 1.58789,-1.58789 v -3.66406 h 0.51563 a 1.5876587,1.5876587 0 0 0 1.58789,-1.58594 v -0.67578 a 1.5876587,1.5876587 0 0 0 -1.58789,-1.58789 h -5.01368 a 1.5876587,1.5876587 0 0 0 -1.58789,1.58789 v 0.0254 a 1.5876587,1.5876587 0 0 0 -0.50195,-0.91211 c -0.42878,-0.27039 -0.89987,-0.47315 -1.39063,-0.60742 -0.49193,-0.13519 -1.00272,-0.19922 -1.51953,-0.19922 z m -34.98437,0.10547 a 1.5876587,1.5876587 0 0 0 -1.58789,1.58789 v 0.67578 a 1.5876587,1.5876587 0 0 0 1.58789,1.58594 h 0.51562 v 3.66406 a 1.5876587,1.5876587 0 0 0 1.58789,1.58789 h 0.80664 a 1.5876587,1.5876587 0 0 0 1.5879,-1.58789 v -3.66406 h 0.51562 a 1.5876587,1.5876587 0 0 0 1.58789,-1.58594 v -0.67578 a 1.5876587,1.5876587 0 0 0 -1.58789,-1.58789 z m 8.2168,0 a 1.5876587,1.5876587 0 0 0 -1.5879,1.58789 v 5.92578 a 1.5876587,1.5876587 0 0 0 1.5879,1.58789 h 0.80078 a 1.5876587,1.5876587 0 0 0 1.3164,-1.31641 l 0.2168,0.4375 a 1.5876587,1.5876587 0 0 0 1.41992,0.87891 h 0.86133 a 1.5876587,1.5876587 0 0 0 1.41797,-2.30078 l -0.80664,-1.60742 c -0.0745,-0.1515 -0.18046,-0.2702 -0.26172,-0.41016 0.24654,-0.47855 0.44922,-0.98816 0.44922,-1.48828 0,-0.88022 -0.32541,-1.8679 -1.06055,-2.49219 -0.73774,-0.6265 -1.64636,-0.80273 -2.54492,-0.80273 z m 8.07617,0 a 1.5876587,1.5876587 0 0 0 -1.58789,1.58789 v 5.92578 a 1.5876587,1.5876587 0 0 0 1.58789,1.58789 h 3.81836 a 1.5876587,1.5876587 0 0 0 1.58789,-1.58789 v -0.67383 a 1.5876587,1.5876587 0 0 0 -1.17188,-1.17187 1.5876587,1.5876587 0 0 0 0.97656,-0.97657 v -0.67383 a 1.5876587,1.5876587 0 0 0 -0.81445,-0.8164 1.5876587,1.5876587 0 0 0 0.9375,-0.9375 v -0.67578 a 1.5876587,1.5876587 0 0 0 -1.58594,-1.58789 z m 7.5664,0 a 1.5876587,1.5876587 0 0 0 -1.58789,1.58789 v 5.92578 a 1.5876587,1.5876587 0 0 0 1.58789,1.58789 h 0.77735 a 1.5876587,1.5876587 0 0 0 1.09179,-1.0918 l 0.13282,0.24805 a 1.5876587,1.5876587 0 0 0 1.40234,0.84375 h 1.08008 a 1.5876587,1.5876587 0 0 0 1.58789,-1.58789 v -5.92578 a 1.5876587,1.5876587 0 0 0 -1.58789,-1.58789 h -0.77735 a 1.5876587,1.5876587 0 0 0 -1.09375,1.09375 l -0.13281,-0.24805 a 1.5876587,1.5876587 0 0 0 -1.40234,-0.8457 z m 24.3418,0 a 1.5876587,1.5876587 0 0 0 -1.58789,1.58789 v 5.92578 a 1.5876587,1.5876587 0 0 0 1.58789,1.58789 h 0.80078 a 1.5876587,1.5876587 0 0 0 1.45703,-1.45703 1.5876587,1.5876587 0 0 0 1.45703,1.45703 h 0.80079 a 1.5876587,1.5876587 0 0 0 1.58789,-1.58789 v -5.92578 a 1.5876587,1.5876587 0 0 0 -1.58789,-1.58789 h -0.80079 a 1.5876587,1.5876587 0 0 0 -1.45703,1.45703 1.5876587,1.5876587 0 0 0 -1.45703,-1.45703 z m 16.96289,1.1289 0.0176,0.0117 c -0.004,-0.003 -0.008,-10e-4 -0.0117,-0.004 -0.003,-0.002 -0.003,-0.006 -0.006,-0.008 z m -53.2168,0.19141 0.0176,0.0156 c -0.003,-0.003 -0.007,-10e-4 -0.01,-0.004 -0.004,-0.003 -0.004,-0.009 -0.008,-0.0117 z m 54.42383,2.49219 0.006,0.008 c -9.6e-4,-10e-4 -0.003,-7.9e-4 -0.004,-0.002 -10e-4,-0.002 -6e-4,-0.004 -0.002,-0.006 z m -69.26562,0.26953 0.008,0.008 c -0.002,-0.002 -0.004,-3.1e-4 -0.006,-0.002 -0.002,-10e-4 -3.5e-4,-0.004 -0.002,-0.006 z m 15.97656,1.05078 -0.008,0.01 c 0.001,-0.002 7e-4,-0.004 0.002,-0.006 10e-4,-0.002 0.004,-0.002 0.006,-0.004 z"
         id="text161"
         transform="scale(1.09914,0.90980221)" /><g
         id="path164-6-7"><path
           style="color:#000000;fill:#abedcc;stroke-linecap:round;stroke-linejoin:round;-inkscape-stroke:none"
           d="m 760.91016,280.27029 c -4.77082,3.25153 -11.53328,-2.63066 -16.26267,-5.94232 -0.93337,-0.65356 -2.20204,-2.61657 -2.20204,-2.61657 0,0 -8.67151,3.63634 -13.26175,3.72548 -4.30212,0.0834 -9.08248,-0.46112 -12.55506,-3.00656 -1.35682,-0.99456 -2.31892,-2.66822 -2.60202,-4.32838 -0.81831,-4.79899 1.48422,-9.66148 2.94891,-14.30359 1.6612,-5.26487 3.23477,-10.80528 6.57037,-15.20108 1.31399,-1.73167 3.03904,-3.32387 5.06723,-4.10059 2.63302,-1.00834 5.63609,-0.65943 8.44563,-0.43016 1.02093,0.0832 2.17221,0.0519 3.00325,0.65179 1.57882,1.13964 2.81113,3.08772 2.97826,5.02995 0.0849,0.98759 -0.31828,2.11796 -1.05512,2.7796 -1.21066,1.08713 -3.09772,1.13358 -4.72076,1.22872 -1.8964,0.11118 -3.88888,-1.50634 -5.64528,-0.78136 -2.25259,0.92977 -3.68215,3.49916 -4.43386,5.82069 -1.15982,3.58186 0.27615,11.29338 0.27615,11.29338 0,0 2.28606,-2.70274 3.89423,-3.13969 2.17641,-0.59137 4.70248,-0.0658 6.69125,0.99912 0.90483,0.48452 2.06851,2.2833 2.06851,2.2833 0,0 1.88379,-3.0864 3.39574,-3.92522 2.63169,-1.46002 5.91157,-1.52562 8.91701,-1.39397 3.11711,0.13653 7.19589,-0.23709 9.08708,2.24891 4.6623,6.12869 5.75458,18.77421 -0.60506,23.10855 z"
           id="path477" /><path
           style="color:#000000;fill:#abedcc;stroke-linecap:round;stroke-linejoin:round;-inkscape-stroke:none"
           d="m 732.74805,232.2168 c -1.54881,0.0112 -3.14127,0.19875 -4.70313,0.79687 -2.42408,0.92833 -4.3285,2.73168 -5.76367,4.62305 -3.57855,4.71597 -5.16872,10.44916 -6.82031,15.68359 -1.41676,4.49019 -3.93112,9.58828 -3,15.04883 0.35356,2.07339 1.47539,4.05674 3.22851,5.3418 3.94579,2.8923 9.06662,3.39893 13.52539,3.3125 2.69468,-0.0523 6.02484,-1.03826 8.82618,-1.97852 2.12847,-0.71441 3.07487,-1.12077 3.8125,-1.41992 0.0422,0.057 0.0335,0.0504 0.0781,0.10937 0.47268,0.6237 1.00312,1.33326 1.80469,1.89454 2.29416,1.60643 5.2096,3.9555 8.30078,5.54296 1.54559,0.79374 3.14968,1.40951 4.81641,1.58594 1.66672,0.17644 3.43018,-0.13915 4.95117,-1.17578 3.80846,-2.59561 5.19424,-7.42015 5.1289,-12.21484 -0.0653,-4.79469 -1.54077,-9.73049 -4.15429,-13.16602 -1.30176,-1.71118 -3.2824,-2.35473 -5.125,-2.61719 -1.84261,-0.26245 -3.69118,-0.19364 -5.15625,-0.25781 -3.07892,-0.13487 -6.65448,-0.12988 -9.75782,1.5918 -1.23366,0.68443 -2.05077,1.76674 -2.76171,2.71094 -0.005,0.006 -0.003,0.006 -0.008,0.0117 -0.3369,-0.38157 -0.59352,-0.78105 -1.17383,-1.09179 -2.2903,-1.22638 -5.15139,-1.86614 -7.85742,-1.13086 -0.96184,0.26134 -1.67723,0.77988 -2.32422,1.33008 -0.0655,-0.52203 -0.0915,-0.49534 -0.14648,-1.10547 -0.20667,-2.29405 -0.19134,-5.06682 0.22656,-6.35742 0.67575,-2.08695 2.01118,-4.21519 3.5293,-4.8418 0.29762,-0.12285 0.8033,-0.0713 1.68945,0.20703 0.88616,0.27832 2.01371,0.77522 3.44336,0.69141 1.58141,-0.0927 3.88341,-0.0128 5.6875,-1.63282 1.19143,-1.06983 1.70666,-2.57976 1.57617,-4.09765 -0.2165,-2.51599 -1.67377,-4.76701 -3.63086,-6.17969 -1.41644,-1.02247 -2.91023,-0.87453 -3.80273,-0.94727 -1.3854,-0.11305 -2.89065,-0.27878 -4.43945,-0.26757 z m 0.043,3.20312 c 1.31336,-0.009 2.71453,0.1123 4.13867,0.22852 1.14935,0.0937 1.95749,0.18011 2.20312,0.35742 1.20056,0.8666 2.20842,2.51044 2.32617,3.87891 0.0393,0.45728 -0.2529,1.20748 -0.53515,1.46093 a 1.5876537,1.5876537 0 0 0 0,0.002 c -0.61723,0.55424 -2.08729,0.72664 -3.75196,0.82421 -0.46674,0.0274 -1.28335,-0.22938 -2.30664,-0.55078 -1.02328,-0.32139 -2.39278,-0.71541 -3.85156,-0.11328 -2.98705,1.23293 -4.51022,4.24272 -5.33789,6.79883 -0.74191,2.29125 -0.5905,5.16392 -0.36914,7.62109 0.22136,2.45718 0.59375,4.45313 0.59375,4.45313 a 1.5876537,1.5876537 0 0 0 2.77344,0.73437 c 0,0 0.52131,-0.61433 1.22265,-1.27734 0.70135,-0.66301 1.68646,-1.30424 1.875,-1.35547 1.6468,-0.44746 3.83817,-0.0382 5.52539,0.86524 -0.0186,-0.01 0.52644,0.46501 0.87891,0.91015 0.35247,0.44515 0.60742,0.83594 0.60742,0.83594 a 1.5876537,1.5876537 0 0 0 2.6875,-0.0352 c 0,0 0.43404,-0.71082 1.04297,-1.51953 0.60893,-0.80871 1.4893,-1.68936 1.76758,-1.84375 2.16004,-1.19835 5.14617,-1.32569 8.07812,-1.19726 1.65204,0.0724 3.39881,0.0241 4.84766,0.23047 1.44886,0.20636 2.45549,0.61971 3.04492,1.39453 2.04878,2.69315 3.44939,7.14329 3.50586,11.28711 0.0565,4.14381 -1.19101,7.8101 -3.74219,9.54882 -0.86441,0.58914 -1.73534,0.7561 -2.82617,0.64063 -1.09082,-0.11547 -2.36862,-0.56763 -3.70117,-1.25195 -2.6651,-1.36866 -5.49446,-3.6151 -7.92969,-5.32032 -0.13179,-0.0923 -0.70265,-0.68973 -1.09765,-1.21093 -0.395,-0.5212 -0.68164,-0.9668 -0.68164,-0.9668 a 1.5876537,1.5876537 0 0 0 -1.94727,-0.60156 c 0,0 -2.1188,0.88691 -4.80078,1.78711 -2.68198,0.90019 -5.98335,1.77764 -7.87891,1.81445 -4.14545,0.0804 -8.58657,-0.50065 -11.58593,-2.69922 -0.96052,-0.70406 -1.76198,-2.06752 -1.97461,-3.31445 -0.7055,-4.13742 1.38581,-8.76652 2.89843,-13.56055 1.67081,-5.2953 3.22767,-10.64312 6.32032,-14.71875 1.1928,-1.57197 2.73879,-2.95302 4.37109,-3.57812 1.07116,-0.41022 2.29601,-0.54949 3.60938,-0.5586 z"
           id="path478" /></g></g></g></svg>
