<?xml version="1.0" encoding="UTF-8" standalone="no"?>
<!-- Created with Inkscape (http://www.inkscape.org/) -->

<svg
   width="271.70526"
   height="316.55774"
   viewBox="0 0 71.888681 83.755902"
   version="1.1"
   id="svg8"
   inkscape:version="1.3 (0e150ed6c4, 2023-07-21)"
   sodipodi:docname="drawing.svg"
   xml:space="preserve"
   xmlns:inkscape="http://www.inkscape.org/namespaces/inkscape"
   xmlns:sodipodi="http://sodipodi.sourceforge.net/DTD/sodipodi-0.dtd"
   xmlns="http://www.w3.org/2000/svg"
   xmlns:svg="http://www.w3.org/2000/svg"
   xmlns:rdf="http://www.w3.org/1999/02/22-rdf-syntax-ns#"
   xmlns:cc="http://creativecommons.org/ns#"
   xmlns:dc="http://purl.org/dc/elements/1.1/"><defs
     id="defs2" /><sodipodi:namedview
     id="base"
     pagecolor="#ffffff"
     bordercolor="#666666"
     borderopacity="1.0"
     inkscape:pageopacity="0.0"
     inkscape:pageshadow="2"
     inkscape:zoom="0.3416143"
     inkscape:cx="1636.3484"
     inkscape:cy="1318.7387"
     inkscape:document-units="mm"
     inkscape:current-layer="g13"
     showgrid="false"
     units="px"
     inkscape:window-width="1916"
     inkscape:window-height="1037"
     inkscape:window-x="0"
     inkscape:window-y="0"
     inkscape:window-maximized="1"
     inkscape:showpageshadow="2"
     inkscape:pagecheckerboard="0"
     inkscape:deskcolor="#d1d1d1" /><metadata
     id="metadata5"><rdf:RDF><cc:Work
         rdf:about=""><dc:format>image/svg+xml</dc:format><dc:type
           rdf:resource="http://purl.org/dc/dcmitype/StillImage" /></cc:Work></rdf:RDF></metadata><g
     inkscape:groupmode="layer"
     id="layer2"
     inkscape:label="hud"
     style="display:inline"
     transform="translate(-174.32812,-183.7382)"><g
       id="g13"
       style="display:inline"
       inkscape:label="upgrades"
       transform="translate(0,18.417901)"><path
         style="color:#000000;fill:#d5f6e5;fill-opacity:1;stroke-linecap:round;stroke-linejoin:round;-inkscape-stroke:none"
         d="m 178.92969,168.49609 h 62.6875 c 0.81743,0 1.42578,0.60835 1.42578,1.42578 v 62.6875 c 0,0.81744 -0.60835,1.42579 -1.42578,1.42579 h -62.6875 c -0.81743,0 -1.42578,-0.60835 -1.42578,-1.42579 v -62.6875 c 0,-0.81743 0.60835,-1.42578 1.42578,-1.42578 z"
         id="path402" /><path
         style="color:#000000;fill:#d5f6e5;fill-opacity:1;stroke-linecap:round;stroke-linejoin:round;-inkscape-stroke:none"
         d="m 178.92969,165.32031 c -2.52146,0 -4.60156,2.08011 -4.60157,4.60156 v 62.6875 c 0,2.52146 2.08011,4.60157 4.60157,4.60157 h 62.6875 c 2.52146,0 4.59961,-2.08011 4.59961,-4.60157 v -62.6875 c 0,-2.52145 -2.07815,-4.60156 -4.59961,-4.60156 z"
         id="rect24" /><path
         style="color:#000000;-inkscape-font-specification:sans-serif;fill:#d5f6e5;fill-opacity:1;stroke-linecap:round;stroke-linejoin:round;-inkscape-stroke:none"
         d="m 188.09961,269.68555 -0.008,0.01 c 0.001,-0.002 6.9e-4,-0.004 0.002,-0.006 10e-4,-0.002 0.004,-0.002 0.006,-0.004 z"
         transform="scale(1.09914,0.90980221)"
         id="path401" /><path
         style="color:#000000;-inkscape-font-specification:sans-serif;fill:#d5f6e5;fill-opacity:1;stroke-linecap:round;stroke-linejoin:round;-inkscape-stroke:none"
         d="m 164.55664,268.63477 0.008,0.008 c -0.002,-0.002 -0.004,-3.1e-4 -0.006,-0.002 -0.002,-10e-4 -3.5e-4,-0.004 -0.002,-0.006 z"
         transform="scale(1.09914,0.90980221)"
         id="path400" /><path
         style="color:#000000;-inkscape-font-specification:sans-serif;fill:#d5f6e5;fill-opacity:1;stroke-linecap:round;stroke-linejoin:round;-inkscape-stroke:none"
         d="m 207.35352,268.48047 c 3.4e-4,-1.5e-4 0.0673,0.0125 0.0644,0.01 a 1.5876587,1.5876587 0 0 0 0.008,0.008 c -0.0296,-0.0285 0.0859,0.0598 0.0859,0.59961 0,0.54678 -0.11787,0.64443 -0.0898,0.61718 a 1.5876587,1.5876587 0 0 0 -0.004,0.004 c 0.003,-0.003 -0.0641,0.01 -0.0644,0.01 z"
         transform="scale(1.09914,0.90980221)"
         id="path399" /><path
         style="color:#000000;-inkscape-font-specification:sans-serif;fill:#d5f6e5;fill-opacity:1;stroke-linecap:round;stroke-linejoin:round;-inkscape-stroke:none"
         d="m 193.71484,268.27344 c 0.18766,0 0.0636,-0.0471 0.13086,0.0391 a 1.5876587,1.5876587 0 0 0 0.004,0.006 c 0.067,0.0852 0.17187,0.2834 0.17187,0.79101 0,0.50412 -0.1039,0.70265 -0.17187,0.78907 a 1.5876587,1.5876587 0 0 0 -0.004,0.006 c -0.0673,0.0862 0.0568,0.0391 -0.13086,0.0391 -0.18233,0 -0.0795,0.0355 -0.14062,-0.0469 -0.068,-0.0867 -0.17188,-0.28418 -0.17188,-0.78711 0,-0.50641 0.10485,-0.70353 0.17188,-0.78906 0.0611,-0.0824 -0.0417,-0.0469 0.14062,-0.0469 z"
         transform="scale(1.09914,0.90980221)"
         id="path398" /><path
         style="color:#000000;-inkscape-font-specification:sans-serif;fill:#d5f6e5;fill-opacity:1;stroke-linecap:round;stroke-linejoin:round;-inkscape-stroke:none"
         d="m 186.96484,265.875 0.0176,0.0137 c -0.003,-0.003 -0.008,-7.7e-4 -0.0117,-0.004 -0.003,-0.003 -0.003,-0.007 -0.006,-0.01 z"
         transform="scale(1.09914,0.90980221)"
         id="path397" /><path
         style="color:#000000;-inkscape-font-specification:sans-serif;fill:#d5f6e5;fill-opacity:1;stroke-linecap:round;stroke-linejoin:round;-inkscape-stroke:none"
         d="m 220.17773,264.55469 a 1.5876587,1.5876587 0 0 0 -0.31445,0.0312 l -1.41601,0.28515 a 1.5876587,1.5876587 0 0 0 -1.27344,1.55664 v 0.73047 a 1.5876587,1.5876587 0 0 0 1.42383,1.4375 v 1.48633 a 1.5876587,1.5876587 0 0 0 -1.31055,1.31055 v 0.67383 a 1.5876587,1.5876587 0 0 0 1.58789,1.58789 h 3.41406 a 1.5876587,1.5876587 0 0 0 1.58789,-1.58789 v -0.67383 a 1.5876587,1.5876587 0 0 0 -1.31054,-1.31055 v -3.94141 a 1.5876587,1.5876587 0 0 0 -1.58789,-1.58593 z"
         transform="scale(1.09914,0.90980221)"
         id="path396" /><path
         style="color:#000000;-inkscape-font-specification:sans-serif;fill:#d5f6e5;fill-opacity:1;stroke-linecap:round;stroke-linejoin:round;-inkscape-stroke:none"
         d="m 204.96484,264.55469 a 1.5876587,1.5876587 0 0 0 -1.58789,1.58593 v 5.92579 a 1.5876587,1.5876587 0 0 0 1.58789,1.58789 h 1.64649 c 1.3648,0 2.62221,-0.26904 3.57812,-1.11719 0.95886,-0.85075 1.34375,-2.13842 1.34375,-3.43945 0,-1.29431 -0.3839,-2.57378 -1.33789,-3.42188 -0.95658,-0.85291 -2.21492,-1.12109 -3.58398,-1.12109 z"
         transform="scale(1.09914,0.90980221)"
         id="path395" /><path
         style="color:#000000;-inkscape-font-specification:sans-serif;fill:#d5f6e5;fill-opacity:1;stroke-linecap:round;stroke-linejoin:round;-inkscape-stroke:none"
         d="m 200.13672,264.55469 a 1.5876587,1.5876587 0 0 0 -1.58594,1.58593 v 5.92579 a 1.5876587,1.5876587 0 0 0 1.58594,1.58789 h 0.80273 a 1.5876587,1.5876587 0 0 0 1.58789,-1.58789 v -5.92579 a 1.5876587,1.5876587 0 0 0 -1.58789,-1.58593 z"
         transform="scale(1.09914,0.90980221)"
         id="path394" /><path
         style="color:#000000;-inkscape-font-specification:sans-serif;fill:#d5f6e5;fill-opacity:1;stroke-linecap:round;stroke-linejoin:round;-inkscape-stroke:none"
         d="m 183.23242,264.55469 a 1.5876587,1.5876587 0 0 0 -1.58594,1.58593 v 5.92579 a 1.5876587,1.5876587 0 0 0 1.58594,1.58789 h 0.80274 a 1.5876587,1.5876587 0 0 0 1.31445,-1.31446 l 0.2168,0.43555 a 1.5876587,1.5876587 0 0 0 1.42187,0.87891 h 0.86133 a 1.5876587,1.5876587 0 0 0 1.41797,-2.30078 l -0.80664,-1.60743 c -0.0746,-0.15168 -0.18034,-0.27004 -0.26172,-0.41015 0.2465,-0.47852 0.44726,-0.9882 0.44726,-1.48828 0,-0.88023 -0.3254,-1.8679 -1.06054,-2.49219 -0.73774,-0.62648 -1.64442,-0.80078 -2.54297,-0.80078 z"
         transform="scale(1.09914,0.90980221)"
         id="path393" /><path
         style="color:#000000;-inkscape-font-specification:sans-serif;fill:#d5f6e5;fill-opacity:1;stroke-linecap:round;stroke-linejoin:round;-inkscape-stroke:none"
         d="m 175.66797,264.55469 a 1.5876587,1.5876587 0 0 0 -1.58789,1.58593 v 5.92579 a 1.5876587,1.5876587 0 0 0 1.58789,1.58789 h 3.81836 a 1.5876587,1.5876587 0 0 0 1.58789,-1.58789 v -0.67383 a 1.5876587,1.5876587 0 0 0 -1.17188,-1.17188 1.5876587,1.5876587 0 0 0 0.97657,-0.97461 v -0.67578 a 1.5876587,1.5876587 0 0 0 -0.81641,-0.8164 1.5876587,1.5876587 0 0 0 0.93945,-0.9375 v -0.67579 a 1.5876587,1.5876587 0 0 0 -1.58789,-1.58593 z"
         transform="scale(1.09914,0.90980221)"
         id="path392" /><path
         style="color:#000000;-inkscape-font-specification:sans-serif;fill:#d5f6e5;fill-opacity:1;stroke-linecap:round;stroke-linejoin:round;-inkscape-stroke:none"
         d="m 167.45312,264.55469 a 1.5876587,1.5876587 0 0 0 -1.58789,1.58593 v 0.67579 a 1.5876587,1.5876587 0 0 0 1.58789,1.58789 h 0.51563 v 3.66211 a 1.5876587,1.5876587 0 0 0 1.58789,1.58789 h 0.80469 a 1.5876587,1.5876587 0 0 0 1.58789,-1.58789 v -3.66211 h 0.51562 a 1.5876587,1.5876587 0 0 0 1.58789,-1.58789 v -0.67579 a 1.5876587,1.5876587 0 0 0 -1.58789,-1.58593 z"
         transform="scale(1.09914,0.90980221)"
         id="path391" /><path
         style="color:#000000;-inkscape-font-specification:sans-serif;fill:#d5f6e5;fill-opacity:1;stroke-linecap:round;stroke-linejoin:round;-inkscape-stroke:none"
         d="m 193.71484,264.44727 c -1.18795,0 -2.38909,0.48043 -3.18164,1.36523 -0.79313,0.88594 -1.15234,2.07916 -1.15234,3.29687 0,1.21772 0.35921,2.41289 1.15234,3.29883 a 1.5876587,1.5876587 0 0 0 0.002,0.002 c 0.79346,0.88162 1.99341,1.35937 3.17968,1.35937 1.18476,0 2.38537,-0.47842 3.17578,-1.36133 a 1.5876587,1.5876587 0 0 0 0.002,-0.004 c 0.78996,-0.88662 1.14844,-2.07906 1.14844,-3.29493 0,-1.2162 -0.35737,-2.40736 -1.14844,-3.29296 -0.78948,-0.88607 -1.9913,-1.36914 -3.17774,-1.36914 z"
         transform="scale(1.09914,0.90980221)"
         id="path390" /><path
         style="color:#000000;-inkscape-font-specification:sans-serif;fill:#d5f6e5;fill-opacity:1;stroke-linecap:round;stroke-linejoin:round;-inkscape-stroke:none"
         d="m 162.50195,264.44727 c -0.89449,0 -1.80725,0.22065 -2.52929,0.80859 a 1.5876587,1.5876587 0 0 0 -0.004,0.004 c -0.71625,0.58743 -1.13281,1.56944 -1.13281,2.46484 0,0.68288 0.26829,1.42075 0.75,1.98828 a 1.5876587,1.5876587 0 0 0 -0.72657,1.26758 v 0.82422 a 1.5876587,1.5876587 0 0 0 1.04102,1.49023 c 0.40598,0.14903 0.80938,0.26624 1.21289,0.34766 a 1.5876587,1.5876587 0 0 0 0.002,0 c 0.40571,0.0812 0.80864,0.12695 1.20899,0.12695 0.95208,0 1.88111,-0.17544 2.65625,-0.77148 l 0.002,-0.002 c 0.77776,-0.59798 1.19922,-1.6351 1.19922,-2.56445 0,-0.79284 -0.29182,-1.66476 -0.88867,-2.26562 -0.0105,-0.0107 -0.0265,-0.009 -0.0371,-0.0195 a 1.5876587,1.5876587 0 0 0 0.56836,-1.02929 v -0.78125 a 1.5876587,1.5876587 0 0 0 -1.08399,-1.50586 c -0.37037,-0.12347 -0.74263,-0.22022 -1.11523,-0.28516 -0.37336,-0.0651 -0.74948,-0.0976 -1.12305,-0.0976 z"
         transform="scale(1.09914,0.90980221)"
         id="text25" /><g
         id="rect26"
         style="fill:#d5f6e5;fill-opacity:1"><path
           style="color:#000000;fill:#d5f6e5;fill-opacity:1;stroke-linecap:round;stroke-linejoin:round;-inkscape-stroke:none"
           d="m 205.43506,193.78457 -12.1147,11.8407 c -3.7953,3.61612 -3.93894,9.58229 -0.32228,13.37685 3.61665,3.79454 9.58359,3.93818 13.37888,0.32206 l 11.80349,-11.54425 z"
           id="path388" /><path
           style="color:#000000;fill:#d5f6e5;fill-opacity:1;stroke-linecap:round;stroke-linejoin:round;-inkscape-stroke:none"
           d="m 205.48047,192.19727 a 1.5876637,1.5876637 0 0 0 -1.1543,0.45117 l -12.10156,11.82812 c -4.41217,4.20386 -4.57951,11.20977 -0.375,15.6211 4.2045,4.4113 11.21094,4.57882 15.62305,0.375 a 1.5876637,1.5876637 0 0 0 0.0137,-0.0137 l 11.80469,-11.54492 a 1.5876637,1.5876637 0 0 0 0.0625,-2.20312 l -12.74415,-13.9961 a 1.5876637,1.5876637 0 0 0 -1.1289,-0.51757 z m -0.11133,3.87109 10.60547,11.64844 -10.69336,10.45898 c -3.17846,3.02841 -8.10597,2.90824 -11.13477,-0.26953 -3.0288,-3.17779 -2.90889,-8.10249 0.26954,-11.13086 a 1.5876637,1.5876637 0 0 0 0.0137,-0.0156 z"
           id="path389" /></g><path
         id="path403"
         style="color:#000000;fill:#d5f6e5;fill-opacity:1;stroke-linecap:round;stroke-linejoin:round;-inkscape-stroke:none"
         d="m 222.02366,179.29096 c -2.64777,0.0631 -5.29155,1.08405 -7.35976,3.0546 a 1.5876637,1.5876637 0 0 0 -0.0191,0.0196 l -22.42034,22.11131 c -4.41209,4.20381 -4.57913,11.20998 -0.37465,15.62127 4.20451,4.41133 11.21071,4.57847 15.62282,0.37466 a 1.5876637,1.5876637 0 0 0 0.0196,-0.0176 L 229.91,198.34355 c 4.41213,-4.20386 4.58177,-11.20942 0.37724,-15.62076 -2.23368,-2.34356 -5.26286,-3.50334 -8.26358,-3.43183 z" /></g></g></svg>
