<?xml version="1.0" encoding="UTF-8" standalone="no"?>
<!-- Created with Inkscape (http://www.inkscape.org/) -->

<svg
   width="313.98633"
   height="316.55273"
   viewBox="0 0 83.075547 83.754578"
   version="1.1"
   id="svg8"
   inkscape:version="1.3 (0e150ed6c4, 2023-07-21)"
   sodipodi:docname="drawing.svg"
   xml:space="preserve"
   xmlns:inkscape="http://www.inkscape.org/namespaces/inkscape"
   xmlns:sodipodi="http://sodipodi.sourceforge.net/DTD/sodipodi-0.dtd"
   xmlns="http://www.w3.org/2000/svg"
   xmlns:svg="http://www.w3.org/2000/svg"
   xmlns:rdf="http://www.w3.org/1999/02/22-rdf-syntax-ns#"
   xmlns:cc="http://creativecommons.org/ns#"
   xmlns:dc="http://purl.org/dc/elements/1.1/"><defs
     id="defs2" /><sodipodi:namedview
     id="base"
     pagecolor="#ffffff"
     bordercolor="#666666"
     borderopacity="1.0"
     inkscape:pageopacity="0.0"
     inkscape:pageshadow="2"
     inkscape:zoom="0.3416143"
     inkscape:cx="2294.9859"
     inkscape:cy="1154.8111"
     inkscape:document-units="mm"
     inkscape:current-layer="g13"
     showgrid="false"
     units="px"
     inkscape:window-width="1916"
     inkscape:window-height="1037"
     inkscape:window-x="0"
     inkscape:window-y="0"
     inkscape:window-maximized="1"
     inkscape:showpageshadow="2"
     inkscape:pagecheckerboard="0"
     inkscape:deskcolor="#d1d1d1" /><metadata
     id="metadata5"><rdf:RDF><cc:Work
         rdf:about=""><dc:format>image/svg+xml</dc:format><dc:type
           rdf:resource="http://purl.org/dc/dcmitype/StillImage" /></cc:Work></rdf:RDF></metadata><g
     inkscape:groupmode="layer"
     id="layer2"
     inkscape:label="hud"
     style="display:inline"
     transform="translate(-499.89818,-241.02353)"><g
       id="g13"
       style="display:inline"
       inkscape:label="upgrades"
       transform="translate(0,18.417901)"><path
         id="path463"
         style="color:#000000;fill:#d5f6e5;fill-opacity:1;stroke-linecap:round;stroke-linejoin:round;-inkscape-stroke:none"
         d="m 510.03708,222.60563 c -2.52145,0 -4.59971,2.07775 -4.59971,4.5992 v 62.68765 c 0,2.52146 2.07826,4.60179 4.59971,4.60179 h 62.68765 c 2.52146,0 4.60127,-2.08033 4.60127,-4.60179 v -62.68765 c 0,-2.52145 -2.07981,-4.5992 -4.60127,-4.5992 z m -6.10918,75.27292 c -0.98319,0 -1.98657,0.20043 -2.78019,0.73536 a 1.7450592,1.4444554 0 0 0 -0.007,0.004 c -0.78726,0.53443 -1.24282,1.42812 -1.24282,2.24276 0,0.62128 0.29478,1.29285 0.82424,1.80919 a 1.7450592,1.4444554 0 0 0 -0.7984,1.1529 v 0.74982 a 1.7450592,1.4444554 0 0 0 1.14411,1.35599 c 0.44623,0.13561 0.88972,0.24219 1.33326,0.31626 a 1.7450592,1.4444554 0 0 0 0.002,0.002 c 0.44592,0.0739 0.88909,0.11369 1.32912,0.11369 1.04841,0 2.06833,-0.16067 2.92127,-0.70539 h 0.003 c 0.85335,-0.54428 1.31568,-1.4869 1.31568,-2.33164 0,-0.7218 -0.32186,-1.51621 -0.97875,-2.06292 -0.011,-0.009 -0.0279,-0.007 -0.0387,-0.016 a 1.7450592,1.4444554 0 0 0 0.62476,-0.93638 v -0.71106 a 1.7450592,1.4444554 0 0 0 -1.19372,-1.36995 c -0.40708,-0.11232 -0.81418,-0.20033 -1.2237,-0.25941 -0.41037,-0.0592 -0.82343,-0.0889 -1.23403,-0.0889 z m 43.89241,0 c -1.35859,0 -2.71249,0.3804 -3.64526,1.17978 a 1.7450592,1.4444554 0 0 0 0,0.002 c -0.93517,0.80159 -1.3503,1.91954 -1.3503,3.05977 0,1.13852 0.41474,2.25746 1.34617,3.05976 a 1.7450592,1.4444554 0 0 0 0.007,0.006 c 0.93373,0.7963 2.28575,1.17461 3.64267,1.17461 0.61801,0 1.22915,-0.0676 1.81229,-0.21136 a 1.7450592,1.4444554 0 0 0 0.0109,-0.004 c 0.5809,-0.14663 1.13114,-0.36771 1.62523,-0.65784 a 1.7450592,1.4444554 0 0 0 0.73639,-1.17822 v -2.3151 a 1.7450592,1.4444554 0 0 0 -0.75603,-0.62581 1.7450592,1.4444554 0 0 0 0.58394,-0.75654 v -0.36277 a 1.7450592,1.4444554 0 0 0 1.48363,1.2299 h 0.56896 v 3.33158 a 1.7450592,1.4444554 0 0 0 1.74305,1.44487 h 0.88676 a 1.7450592,1.4444554 0 0 0 1.74512,-1.44487 v -3.33158 h 0.56689 a 1.7450592,1.4444554 0 0 0 1.74511,-1.44487 v -0.61495 a 1.7450592,1.4444554 0 0 0 -1.74511,-1.44281 h -5.51078 a 1.7450592,1.4444554 0 0 0 -1.74304,1.44281 v 0.0269 a 1.7450592,1.4444554 0 0 0 -0.55397,-0.83147 c -0.47208,-0.24642 -0.9882,-0.43233 -1.52859,-0.55449 h -0.002 c -0.54007,-0.12268 -1.10079,-0.18139 -1.66811,-0.18139 z m -38.45243,0.0977 a 1.7450592,1.4444554 0 0 0 -1.74357,1.44281 v 0.61495 a 1.7450592,1.4444554 0 0 0 1.74357,1.44487 h 0.56844 v 3.33158 a 1.7450592,1.4444554 0 0 0 1.74356,1.44487 h 0.88625 a 1.7450592,1.4444554 0 0 0 1.74563,-1.44487 v -3.33158 h 0.56689 a 1.7450592,1.4444554 0 0 0 1.74511,-1.44487 v -0.61495 a 1.7450592,1.4444554 0 0 0 -1.74511,-1.44281 z m 9.03097,0 a 1.7450592,1.4444554 0 0 0 -1.74511,1.44281 v 5.3914 a 1.7450592,1.4444554 0 0 0 1.74511,1.44487 h 0.88056 a 1.7450592,1.4444554 0 0 0 1.44694,-1.19786 l 0.23823,0.39791 a 1.7450592,1.4444554 0 0 0 1.56063,0.79995 h 0.94671 a 1.7450592,1.4444554 0 0 0 1.56063,-2.09341 l -0.88883,-1.46244 c -0.0817,-0.13734 -0.19628,-0.24464 -0.28526,-0.37155 0.27163,-0.43576 0.49145,-0.89996 0.49145,-1.35548 0,-0.80083 -0.35779,-1.69959 -1.16582,-2.26756 -0.81088,-0.56998 -1.80754,-0.72864 -2.79518,-0.72864 z m 8.87698,0 a 1.7450592,1.4444554 0 0 0 -1.74305,1.44281 v 5.3914 a 1.7450592,1.4444554 0 0 0 1.74305,1.44487 h 4.19716 a 1.7450592,1.4444554 0 0 0 1.74511,-1.44487 v -0.61288 a 1.7450592,1.4444554 0 0 0 -1.28571,-1.06454 1.7450592,1.4444554 0 0 0 1.07332,-0.88831 v -0.61495 a 1.7450592,1.4444554 0 0 0 -0.89762,-0.74104 1.7450592,1.4444554 0 0 0 1.03301,-0.85473 v -0.61495 a 1.7450592,1.4444554 0 0 0 -1.74563,-1.44281 z m 8.3168,0 a 1.7450592,1.4444554 0 0 0 -1.74563,1.44281 v 5.3914 a 1.7450592,1.4444554 0 0 0 1.74563,1.44487 h 0.85421 a 1.7450592,1.4444554 0 0 0 1.19993,-0.99373 l 0.14624,0.22582 a 1.7450592,1.4444554 0 0 0 1.54099,0.76791 h 1.18753 a 1.7450592,1.4444554 0 0 0 1.74511,-1.44487 v -5.3914 a 1.7450592,1.4444554 0 0 0 -1.74511,-1.44281 h -0.85473 a 1.7450592,1.4444554 0 0 0 -1.20199,0.99322 l -0.14366,-0.22582 a 1.7450592,1.4444554 0 0 0 -1.54358,-0.7674 z m 26.75496,0 a 1.7450592,1.4444554 0 0 0 -1.74563,1.44281 v 5.3914 a 1.7450592,1.4444554 0 0 0 1.74563,1.44487 h 0.88005 a 1.7450592,1.4444554 0 0 0 1.60145,-1.32601 1.7450592,1.4444554 0 0 0 1.60145,1.32601 h 0.88264 a 1.7450592,1.4444554 0 0 0 1.74304,-1.44487 v -5.3914 a 1.7450592,1.4444554 0 0 0 -1.74304,-1.44281 h -0.88264 a 1.7450592,1.4444554 0 0 0 -1.60145,1.32395 1.7450592,1.4444554 0 0 0 -1.60145,-1.32395 z m 16.56023,0 a 1.7450592,1.4444554 0 0 0 -0.34572,0.0284 l -1.55649,0.25941 a 1.7450592,1.4444554 0 0 0 -1.39992,1.41645 v 0.66456 a 1.7450592,1.4444554 0 0 0 1.56528,1.30741 v 1.35444 a 1.7450592,1.4444554 0 0 0 -1.43867,1.19063 v 0.61288 a 1.7450592,1.4444554 0 0 0 1.74563,1.44436 h 3.75016 a 1.7450592,1.4444554 0 0 0 1.74563,-1.44436 v -0.61288 a 1.7450592,1.4444554 0 0 0 -1.44074,-1.19269 v -3.58583 a 1.7450592,1.4444554 0 0 0 -1.74305,-1.44281 z" /></g></g></svg>
