<?xml version="1.0" encoding="UTF-8" standalone="no"?>
<!-- Created with Inkscape (http://www.inkscape.org/) -->

<svg
   width="271.7052"
   height="316.55426"
   viewBox="0 0 71.888665 83.754981"
   version="1.1"
   id="svg8"
   inkscape:version="1.3 (0e150ed6c4, 2023-07-21)"
   sodipodi:docname="drawing.svg"
   xml:space="preserve"
   xmlns:inkscape="http://www.inkscape.org/namespaces/inkscape"
   xmlns:sodipodi="http://sodipodi.sourceforge.net/DTD/sodipodi-0.dtd"
   xmlns="http://www.w3.org/2000/svg"
   xmlns:svg="http://www.w3.org/2000/svg"
   xmlns:rdf="http://www.w3.org/1999/02/22-rdf-syntax-ns#"
   xmlns:cc="http://creativecommons.org/ns#"
   xmlns:dc="http://purl.org/dc/elements/1.1/"><defs
     id="defs2" /><sodipodi:namedview
     id="base"
     pagecolor="#ffffff"
     bordercolor="#666666"
     borderopacity="1.0"
     inkscape:pageopacity="0.0"
     inkscape:pageshadow="2"
     inkscape:zoom="0.3416143"
     inkscape:cx="1636.3484"
     inkscape:cy="1318.7387"
     inkscape:document-units="mm"
     inkscape:current-layer="g13"
     showgrid="false"
     units="px"
     inkscape:window-width="1916"
     inkscape:window-height="1037"
     inkscape:window-x="0"
     inkscape:window-y="0"
     inkscape:window-maximized="1"
     inkscape:showpageshadow="2"
     inkscape:pagecheckerboard="0"
     inkscape:deskcolor="#d1d1d1" /><metadata
     id="metadata5"><rdf:RDF><cc:Work
         rdf:about=""><dc:format>image/svg+xml</dc:format><dc:type
           rdf:resource="http://purl.org/dc/dcmitype/StillImage" /></cc:Work></rdf:RDF></metadata><g
     inkscape:groupmode="layer"
     id="layer2"
     inkscape:label="hud"
     style="display:inline"
     transform="translate(-364.68947,-183.94525)"><g
       id="g13"
       style="display:inline"
       inkscape:label="upgrades"
       transform="translate(0,18.417901)"><path
         style="color:#000000;fill:#abedcc;stroke-linecap:round;stroke-linejoin:round;-inkscape-stroke:none"
         d="m 369.29102,165.52734 c -2.52146,0 -4.60157,2.07815 -4.60157,4.59961 v 62.68946 c 0,2.52146 2.08011,4.59961 4.60157,4.59961 h 62.6875 c 2.52146,0 4.5996,-2.07815 4.5996,-4.59961 v -62.68946 c 0,-2.52146 -2.07814,-4.59961 -4.5996,-4.59961 z m 0,3.17383 h 62.6875 c 0.81743,0 1.42578,0.60835 1.42578,1.42578 v 62.68946 c 0,0.81743 -0.60835,1.42578 -1.42578,1.42578 h -62.6875 c -0.81743,0 -1.42579,-0.60835 -1.42579,-1.42578 v -62.68946 c 0,-0.81743 0.60836,-1.42578 1.42579,-1.42578 z"
         id="rect29" /><path
         style="color:#000000;-inkscape-font-specification:sans-serif;fill:#abedcc;stroke-linecap:round;stroke-linejoin:round;-inkscape-stroke:none"
         d="m 335.69336,264.67383 c -0.8945,0 -1.80726,0.22064 -2.5293,0.80859 a 1.5876587,1.5876587 0 0 0 -0.006,0.004 c -0.71625,0.58742 -1.13086,1.56944 -1.13086,2.46484 0,0.68288 0.2683,1.42075 0.75,1.98828 a 1.5876587,1.5876587 0 0 0 -0.72656,1.26563 v 0.82617 a 1.5876587,1.5876587 0 0 0 1.03906,1.49023 c 0.40598,0.14904 0.81133,0.26624 1.21485,0.34766 a 1.5876587,1.5876587 0 0 0 0.002,0 c 0.4057,0.0812 0.80864,0.12695 1.20898,0.12695 0.95297,0 1.88069,-0.17606 2.65625,-0.77343 0.77917,-0.59773 1.20118,-1.63424 1.20118,-2.56446 0,-0.79336 -0.29299,-1.66667 -0.89063,-2.26758 -0.01,-0.01 -0.0252,-0.008 -0.0351,-0.0176 a 1.5876587,1.5876587 0 0 0 0.56835,-1.0293 v -0.78125 a 1.5876587,1.5876587 0 0 0 -1.08593,-1.50586 c -0.37037,-0.12347 -0.74068,-0.22022 -1.11328,-0.28516 -0.37336,-0.0651 -0.74948,-0.0976 -1.12305,-0.0976 z m 31.21289,0 c -1.18795,0 -2.39105,0.48044 -3.18359,1.36523 -0.79313,0.88595 -1.15039,2.07916 -1.15039,3.29688 0,1.21772 0.35726,2.41288 1.15039,3.29883 a 1.5876587,1.5876587 0 0 0 0.004,0.002 c 0.79346,0.88162 1.99342,1.35937 3.17969,1.35937 1.18475,0 2.38537,-0.47842 3.17578,-1.36132 a 1.5876587,1.5876587 0 0 0 0.002,-0.004 c 0.78997,-0.88661 1.14844,-2.07905 1.14844,-3.29492 0,-1.2168 -0.35657,-2.40919 -1.14844,-3.29492 l -0.002,-0.002 c -0.78951,-0.88476 -1.99026,-1.36523 -3.17578,-1.36523 z m 26.55664,0 c -0.33062,0 -0.66353,0.0284 -1.00195,0.082 a 1.5876587,1.5876587 0 0 0 -0.002,0 c -0.33389,0.0534 -0.67634,0.1303 -1.02929,0.22851 a 1.5876587,1.5876587 0 0 0 -1.16016,1.5293 v 0.71485 a 1.5876587,1.5876587 0 0 0 1.0625,1.3496 1.5876587,1.5876587 0 0 0 -0.21875,0.21875 v 0.65821 a 1.5876587,1.5876587 0 0 0 0.51172,0.51172 1.5876587,1.5876587 0 0 0 -1.53516,1.375 v 0.77343 a 1.5876587,1.5876587 0 0 0 1.06446,1.49805 c 0.34632,0.12093 0.69255,0.2153 1.04101,0.2793 0.003,4.9e-4 0.005,-4.9e-4 0.008,0 0.001,2.5e-4 0.003,0.002 0.004,0.002 0.35033,0.0659 0.70295,0.10156 1.05469,0.10156 0.96956,0 1.92931,-0.21019 2.70312,-0.82617 0.77064,-0.61348 1.20118,-1.65089 1.20118,-2.59961 0,-0.54487 -0.25934,-1.08531 -0.55469,-1.58008 0.18015,-0.39666 0.41601,-0.785 0.41601,-1.19336 0,-0.86847 -0.44463,-1.82665 -1.14453,-2.37109 -0.70104,-0.54771 -1.5712,-0.75195 -2.41992,-0.75195 z m -52.82031,0.10547 a 1.5876587,1.5876587 0 0 0 -1.58789,1.58789 v 0.67578 a 1.5876587,1.5876587 0 0 0 1.58789,1.58789 h 0.51758 v 3.66211 a 1.5876587,1.5876587 0 0 0 1.58593,1.58789 h 0.80664 a 1.5876587,1.5876587 0 0 0 1.58789,-1.58789 v -3.66211 h 0.51563 a 1.5876587,1.5876587 0 0 0 1.58789,-1.58789 v -0.67578 a 1.5876587,1.5876587 0 0 0 -1.58789,-1.58789 z m 8.21679,0 a 1.5876587,1.5876587 0 0 0 -1.58789,1.58789 v 5.92578 a 1.5876587,1.5876587 0 0 0 1.58789,1.58789 h 3.81836 a 1.5876587,1.5876587 0 0 0 1.58789,-1.58789 v -0.67383 a 1.5876587,1.5876587 0 0 0 -1.17187,-1.17187 1.5876587,1.5876587 0 0 0 0.97656,-0.97657 v -0.67383 a 1.5876587,1.5876587 0 0 0 -0.8164,-0.8164 1.5876587,1.5876587 0 0 0 0.93945,-0.9375 v -0.67578 a 1.5876587,1.5876587 0 0 0 -1.58789,-1.58789 z m 7.56446,0 a 1.5876587,1.5876587 0 0 0 -1.58789,1.58789 v 5.92578 a 1.5876587,1.5876587 0 0 0 1.58789,1.58789 h 0.80273 a 1.5876587,1.5876587 0 0 0 1.31446,-1.31445 l 0.21679,0.43554 a 1.5876587,1.5876587 0 0 0 1.42188,0.87891 h 0.86133 a 1.5876587,1.5876587 0 0 0 1.41796,-2.30078 l -0.80859,-1.60742 -0.006,-0.0117 c -0.0723,-0.1464 -0.17525,-0.2609 -0.25391,-0.39649 0.24714,-0.47896 0.44727,-0.98955 0.44727,-1.49023 0,-0.88022 -0.32541,-1.8679 -1.06055,-2.49219 -0.73773,-0.62648 -1.64441,-0.80273 -2.54297,-0.80273 z m 16.90429,0 a 1.5876587,1.5876587 0 0 0 -1.58789,1.58789 v 5.92578 a 1.5876587,1.5876587 0 0 0 1.58789,1.58789 h 0.80274 a 1.5876587,1.5876587 0 0 0 1.58594,-1.58789 v -5.92578 a 1.5876587,1.5876587 0 0 0 -1.58594,-1.58789 z m 4.82618,0 a 1.5876587,1.5876587 0 0 0 -1.58789,1.58789 v 5.92578 a 1.5876587,1.5876587 0 0 0 1.58789,1.58789 h 1.64843 c 1.3648,0 2.62221,-0.271 3.57813,-1.11914 0.95885,-0.85075 1.3418,-2.13647 1.3418,-3.4375 0,-1.29582 -0.38341,-2.57771 -1.33985,-3.42578 -0.95617,-0.85054 -2.21262,-1.11914 -3.58008,-1.11914 z m 17.10937,1.1289 0.0176,0.0117 c -0.004,-0.003 -0.008,-10e-4 -0.0117,-0.004 -0.003,-0.002 -0.003,-0.006 -0.006,-0.008 z m -35.10742,0.19336 0.0156,0.0137 c -0.002,-0.002 -0.006,1e-4 -0.008,-0.002 -0.004,-0.003 -0.004,-0.008 -0.008,-0.0117 z m 6.75,2.39649 c 0.18765,0 0.0636,-0.0452 0.13086,0.041 a 1.5876587,1.5876587 0 0 0 0.002,0.004 c 0.067,0.0852 0.17383,0.28535 0.17383,0.79297 0,0.50411 -0.10585,0.70264 -0.17383,0.78906 a 1.5876587,1.5876587 0 0 0 -0.002,0.006 c -0.0673,0.0862 0.0568,0.0391 -0.13086,0.0391 -0.18233,0 -0.0795,0.0355 -0.14063,-0.0469 -0.068,-0.0867 -0.17187,-0.28419 -0.17187,-0.78711 0,-0.50497 0.10287,-0.70313 0.16992,-0.78907 0.0661,-0.0865 -0.042,-0.0488 0.14258,-0.0488 z m 29.56445,0.0937 0.006,0.008 c -9.6e-4,-10e-4 -0.003,-7.9e-4 -0.004,-0.002 -10e-4,-0.002 -5.9e-4,-0.004 -0.002,-0.006 z m -15.92578,0.11523 c 3.5e-4,-1.5e-4 0.0673,0.0125 0.0645,0.01 a 1.5876587,1.5876587 0 0 0 0.008,0.008 c -0.0296,-0.0285 0.0859,0.0598 0.0859,0.59961 10e-6,0.54678 -0.11786,0.64443 -0.0898,0.61719 a 1.5876587,1.5876587 0 0 0 -0.004,0.004 c 0.003,-0.003 -0.0641,0.01 -0.0645,0.01 z m -42.79687,0.1543 0.008,0.008 c -0.002,-0.002 -0.004,-3.1e-4 -0.006,-0.002 -0.002,-10e-4 -3.5e-4,-0.004 -0.002,-0.006 z m 23.54101,1.05078 -0.006,0.01 c 0.002,-0.002 3.2e-4,-0.005 0.002,-0.008 8.5e-4,-0.001 0.003,-7.3e-4 0.004,-0.002 z"
         id="text29"
         transform="scale(1.09914,0.90980221)" /><g
         id="path29"><path
           style="color:#000000;fill:#abedcc;stroke-linecap:round;stroke-linejoin:round;-inkscape-stroke:none"
           d="m 395.79613,193.9905 -12.1147,11.8407 c -3.7953,3.61612 -3.93894,9.58229 -0.32228,13.37685 3.61665,3.79454 9.58359,3.93818 13.37888,0.32206 l 11.80349,-11.54425 z"
           id="path429" /><path
           style="color:#000000;fill:#abedcc;stroke-linecap:round;stroke-linejoin:round;-inkscape-stroke:none"
           d="m 395.8418,192.4043 a 1.5876637,1.5876637 0 0 0 -1.15625,0.45117 l -12.09961,11.82617 c -4.41217,4.20386 -4.57951,11.20977 -0.375,15.62109 4.20449,4.4113 11.21093,4.58078 15.62304,0.37696 a 1.5876637,1.5876637 0 0 0 0.0137,-0.0137 l 11.80468,-11.54493 a 1.5876637,1.5876637 0 0 0 0.0625,-2.20507 L 396.9707,192.92187 a 1.5876637,1.5876637 0 0 0 -1.1289,-0.51757 z m -0.11133,3.87109 10.60547,11.64648 -10.69336,10.45899 c -3.17846,3.02841 -8.10597,2.91019 -11.13477,-0.26758 -3.0288,-3.17779 -2.90889,-8.10444 0.26953,-11.13281 a 1.5876637,1.5876637 0 0 0 0.0137,-0.0137 z"
           id="path430" /></g><path
         style="color:#000000;fill:#abedcc;stroke-linecap:round;stroke-linejoin:round;-inkscape-stroke:none"
         d="m 412.38477,179.49609 c -2.64777,0.0631 -5.29117,1.08609 -7.35938,3.05664 a 1.5876637,1.5876637 0 0 0 -0.0215,0.0176 l -22.41797,22.11133 c -4.4121,4.20381 -4.58144,11.2098 -0.37696,15.62109 4.20453,4.41134 11.21289,4.58078 15.625,0.37696 a 1.5876637,1.5876637 0 0 0 0.0195,-0.0195 l 22.41796,-22.11133 c 4.41215,-4.20386 4.5815,-11.20975 0.37696,-15.6211 -2.23368,-2.34356 -5.26294,-3.50314 -8.26367,-3.43164 z m 0.0762,3.17383 c 2.13928,-0.051 4.27967,0.76107 5.88867,2.44922 3.02877,3.17774 2.91085,8.10444 -0.26758,11.13281 a 1.5876637,1.5876637 0 0 0 -0.0215,0.0176 l -22.41797,22.11133 c -3.17846,3.02841 -8.106,2.91018 -11.13477,-0.26758 -3.02881,-3.17779 -2.90894,-8.10439 0.26953,-11.13281 a 1.5876637,1.5876637 0 0 0 0.0195,-0.0195 l 22.41797,-22.10938 c 1.48989,-1.41954 3.35855,-2.13669 5.2461,-2.18164 z"
         id="path30" /><g
         id="path35"><path
           style="color:#000000;fill:#abedcc;stroke-linecap:round;stroke-linejoin:round;-inkscape-stroke:none"
           d="m 380.81522,181.93823 -5.62834,5.49776 c -1.76324,1.67901 -1.82998,4.44917 -0.14973,6.21102 1.68025,1.76185 4.45242,1.82854 6.21566,0.14954 l 5.48375,-5.36012 z"
           id="path427" /><path
           style="color:#000000;fill:#abedcc;stroke-linecap:round;stroke-linejoin:round;-inkscape-stroke:none"
           d="m 380.86133,180.35156 a 1.5876587,1.5876587 0 0 0 -1.15625,0.45117 l -5.61328,5.48438 c -4.1e-4,3.8e-4 4e-4,0.002 0,0.002 -2.37908,2.26669 -2.47105,6.07507 -0.20313,8.45313 2.2683,2.37845 6.07877,2.46962 8.45899,0.20312 a 1.5876587,1.5876587 0 0 0 0.0156,-0.0137 l 5.48242,-5.35937 a 1.5876587,1.5876587 0 0 0 0.0645,-2.20508 l -5.92188,-6.49805 a 1.5876587,1.5876587 0 0 0 -1.12695,-0.51758 z m -0.11328,3.8711 3.7832,4.15039 -4.37305,4.27343 c -1.14625,1.0915 -2.88045,1.04954 -3.97265,-0.0957 -1.0922,-1.14523 -1.05052,-2.87338 0.0957,-3.96484 a 1.5876587,1.5876587 0 0 0 0.0156,-0.0137 z"
           id="path428" /></g><path
         style="color:#000000;fill:#abedcc;stroke-linecap:round;stroke-linejoin:round;-inkscape-stroke:none"
         d="m 388.50195,174.35742 c -1.43335,0.0342 -2.8686,0.59184 -3.98437,1.6543 a 1.5876587,1.5876587 0 0 0 -0.0215,0.0195 l -10.40429,10.25586 c -2.38022,2.26649 -2.4714,6.07663 -0.20313,8.45508 2.26832,2.37848 6.07877,2.46962 8.45899,0.20312 a 1.5876587,1.5876587 0 0 0 0.0195,-0.0176 l 10.40429,-10.25586 c 2.38027,-2.26653 2.47341,-6.07853 0.20508,-8.45703 -1.20508,-1.26359 -2.85016,-1.8961 -4.47461,-1.85742 z m 0.0762,3.17578 c 0.76353,-0.0182 1.51942,0.26469 2.09961,0.87305 1.09217,1.14522 1.05053,2.87338 -0.0957,3.96484 a 1.5876587,1.5876587 0 0 0 -0.0195,0.0195 l -10.4043,10.25586 c -1.14626,1.0915 -2.88048,1.04952 -3.97265,-0.0957 -1.09223,-1.14527 -1.05058,-2.87333 0.0957,-3.96484 a 1.5876587,1.5876587 0 0 0 0.0195,-0.0195 l 10.40625,-10.25586 c 0.53727,-0.5116 1.19741,-0.7613 1.87109,-0.77735 z"
         id="path36" /><g
         id="path37"><path
           style="color:#000000;fill:#abedcc;stroke-linecap:round;stroke-linejoin:round;-inkscape-stroke:none"
           d="m 417.12003,215.35838 -5.62834,5.49776 c -1.76324,1.67901 -1.82998,4.44917 -0.14973,6.21102 1.68025,1.76185 4.45242,1.82854 6.21566,0.14954 l 5.48375,-5.36012 z"
           id="path425" /><path
           style="color:#000000;fill:#abedcc;stroke-linecap:round;stroke-linejoin:round;-inkscape-stroke:none"
           d="m 417.16602,213.77148 a 1.5876587,1.5876587 0 0 0 -1.1543,0.45118 l -5.61524,5.48437 c -4e-4,3.8e-4 4.1e-4,0.002 0,0.002 -2.37908,2.2667 -2.47104,6.07507 -0.20312,8.45313 2.2683,2.37845 6.07877,2.47158 8.45898,0.20508 a 1.5876587,1.5876587 0 0 0 0.0156,-0.0156 l 5.48242,-5.35937 a 1.5876587,1.5876587 0 0 0 0.0644,-2.20508 l -5.92187,-6.49805 a 1.5876587,1.5876587 0 0 0 -1.12695,-0.51758 z m -0.11329,3.8711 3.78321,4.15039 -4.37305,4.27344 c -1.14626,1.09149 -2.88046,1.04953 -3.97266,-0.0957 -1.09219,-1.14523 -1.05051,-2.87338 0.0957,-3.96484 a 1.5876587,1.5876587 0 0 0 0.0156,-0.0137 z"
           id="path426" /></g><path
         style="color:#000000;fill:#abedcc;stroke-linecap:round;stroke-linejoin:round;-inkscape-stroke:none"
         d="m 424.80664,207.7793 c -1.43335,0.0341 -2.8686,0.58988 -3.98437,1.65234 a 1.5876587,1.5876587 0 0 0 -0.0195,0.0195 L 410.39652,219.707 c -2.38021,2.26649 -2.4714,6.07663 -0.20312,8.45508 2.26832,2.37848 6.07877,2.47158 8.45898,0.20508 a 1.5876587,1.5876587 0 0 0 0.0195,-0.0195 l 10.4043,-10.25586 c 2.38027,-2.26654 2.47341,-6.07854 0.20508,-8.45703 -1.20509,-1.2636 -2.85016,-1.89415 -4.47461,-1.85547 z m 0.0762,3.17382 c 0.76353,-0.0182 1.51942,0.26469 2.09961,0.87305 1.09217,1.14522 1.05053,2.87338 -0.0957,3.96485 a 1.5876587,1.5876587 0 0 0 -0.0195,0.0195 l -10.4043,10.25586 c -1.14626,1.09149 -2.88048,1.04951 -3.97266,-0.0957 -1.09222,-1.14527 -1.05057,-2.87333 0.0957,-3.96484 a 1.5876587,1.5876587 0 0 0 0.0195,-0.0195 l 10.40625,-10.25586 c 0.53727,-0.5116 1.1974,-0.76129 1.87109,-0.77735 z"
         id="path38" /></g></g></svg>
