<?xml version="1.0" encoding="UTF-8" standalone="no"?>
<!-- Created with Inkscape (http://www.inkscape.org/) -->

<svg
   width="271.71265"
   height="316.54883"
   viewBox="0 0 71.890635 83.753544"
   version="1.1"
   id="svg8"
   inkscape:version="1.3 (0e150ed6c4, 2023-07-21)"
   sodipodi:docname="drawing.svg"
   xml:space="preserve"
   xmlns:inkscape="http://www.inkscape.org/namespaces/inkscape"
   xmlns:sodipodi="http://sodipodi.sourceforge.net/DTD/sodipodi-0.dtd"
   xmlns="http://www.w3.org/2000/svg"
   xmlns:svg="http://www.w3.org/2000/svg"
   xmlns:rdf="http://www.w3.org/1999/02/22-rdf-syntax-ns#"
   xmlns:cc="http://creativecommons.org/ns#"
   xmlns:dc="http://purl.org/dc/elements/1.1/"><defs
     id="defs2" /><sodipodi:namedview
     id="base"
     pagecolor="#ffffff"
     bordercolor="#666666"
     borderopacity="1.0"
     inkscape:pageopacity="0.0"
     inkscape:pageshadow="2"
     inkscape:zoom="0.3416143"
     inkscape:cx="1636.3484"
     inkscape:cy="1318.7387"
     inkscape:document-units="mm"
     inkscape:current-layer="g13"
     showgrid="false"
     units="px"
     inkscape:window-width="1916"
     inkscape:window-height="1037"
     inkscape:window-x="0"
     inkscape:window-y="0"
     inkscape:window-maximized="1"
     inkscape:showpageshadow="2"
     inkscape:pagecheckerboard="0"
     inkscape:deskcolor="#d1d1d1" /><metadata
     id="metadata5"><rdf:RDF><cc:Work
         rdf:about=""><dc:format>image/svg+xml</dc:format><dc:type
           rdf:resource="http://purl.org/dc/dcmitype/StillImage" /></cc:Work></rdf:RDF></metadata><g
     inkscape:groupmode="layer"
     id="layer2"
     inkscape:label="hud"
     style="display:inline"
     transform="translate(-269.72657,-180.21867)"><g
       id="g13"
       style="display:inline"
       inkscape:label="upgrades"
       transform="translate(0,18.417901)"><path
         style="color:#000000;fill:#abedcc;stroke-linecap:round;stroke-linejoin:round;-inkscape-stroke:none"
         d="m 274.32812,161.80078 c -2.52145,0 -4.60156,2.07815 -4.60156,4.59961 v 62.6875 c 0,2.52146 2.08011,4.60156 4.60156,4.60156 h 62.6875 c 2.52146,0 4.60157,-2.0801 4.60157,-4.60156 v -62.6875 c 0,-2.52146 -2.08011,-4.59961 -4.60157,-4.59961 z m 0,3.17383 h 62.6875 c 0.81744,0 1.42579,0.60835 1.42579,1.42578 v 62.6875 c 0,0.81743 -0.60835,1.42578 -1.42579,1.42578 h -62.6875 c -0.81743,0 -1.42578,-0.60835 -1.42578,-1.42578 v -62.6875 c 0,-0.81743 0.60835,-1.42578 1.42578,-1.42578 z"
         id="rect27" /><path
         style="color:#000000;-inkscape-font-specification:sans-serif;fill:#abedcc;stroke-linecap:round;stroke-linejoin:round;-inkscape-stroke:none"
         d="m 249.29687,260.57617 c -0.89449,0 -1.80921,0.22066 -2.53125,0.8086 a 1.5876587,1.5876587 0 0 0 -0.004,0.004 c -0.71624,0.58743 -1.13281,1.57141 -1.13281,2.4668 0,0.68339 0.26756,1.42062 0.75,1.98828 a 1.5876587,1.5876587 0 0 0 -0.72657,1.26562 v 0.82618 a 1.5876587,1.5876587 0 0 0 1.04102,1.49023 c 0.40597,0.14903 0.80938,0.26624 1.21289,0.34766 a 1.5876587,1.5876587 0 0 0 0.004,0 c 0.4057,0.0812 0.80668,0.125 1.20703,0.125 0.95385,0 1.88415,-0.17668 2.66015,-0.77539 h 0.002 c 0.77636,-0.59825 1.19726,-1.63208 1.19726,-2.56055 0,-0.79199 -0.29312,-1.66482 -0.88867,-2.26563 -0.011,-0.0111 -0.028,-0.009 -0.0391,-0.0195 a 1.5876587,1.5876587 0 0 0 0.57031,-1.02929 v -0.78321 a 1.5876587,1.5876587 0 0 0 -1.08594,-1.50586 c -0.37037,-0.12346 -0.74264,-0.21826 -1.11523,-0.2832 -0.37336,-0.0651 -0.74752,-0.0996 -1.1211,-0.0996 z m 31.2129,0 c -1.18796,0 -2.39105,0.48044 -3.1836,1.36524 a 1.5876587,1.5876587 0 0 0 0,0.002 c -0.79313,0.88594 -1.15039,2.07916 -1.15039,3.29687 0,1.21772 0.35726,2.41093 1.15039,3.29688 a 1.5876587,1.5876587 0 0 0 0.002,0.004 c 0.79347,0.88162 1.99537,1.35742 3.18165,1.35742 1.18475,0 2.38536,-0.47842 3.17578,-1.36133 a 1.5876587,1.5876587 0 0 0 0.002,-0.002 c 0.78997,-0.88662 1.14844,-2.07906 1.14844,-3.29493 0,-1.21679 -0.35657,-2.40918 -1.14844,-3.29492 l -0.002,-0.002 c -0.78951,-0.88476 -1.99026,-1.36719 -3.17578,-1.36719 z m 26.46093,0 c -0.38314,0 -0.75682,0.0539 -1.13281,0.14258 a 1.5876587,1.5876587 0 0 0 -0.002,0 c -0.3736,0.0881 -0.74713,0.21111 -1.13086,0.36523 a 1.5876587,1.5876587 0 0 0 -0.9961,1.47266 v 0.81055 a 1.5876587,1.5876587 0 0 0 2.03907,1.38086 c -0.14691,0.15169 -0.16518,0.17671 -0.37696,0.39062 -0.52655,0.53187 -0.94401,0.9566 -1.25586,1.2793 a 1.5876587,1.5876587 0 0 0 -0.44531,1.10351 v 0.67579 a 1.5876587,1.5876587 0 0 0 1.58594,1.58789 h 3.76367 a 1.5876587,1.5876587 0 0 0 1.58789,-1.58789 v -0.67579 A 1.5876587,1.5876587 0 0 0 309.5,266.41406 c 0.0132,-0.015 0.0417,-0.0435 0.0547,-0.0586 a 1.5876587,1.5876587 0 0 0 0.0293,-0.0352 c 0.29744,-0.36608 0.54299,-0.71464 0.72657,-1.15429 v -0.002 c 0.17372,-0.41265 0.26367,-0.86447 0.26367,-1.30859 0,-0.88975 -0.41445,-1.85985 -1.11328,-2.44727 -0.70058,-0.58889 -1.61177,-0.83203 -2.49024,-0.83203 z m -52.72461,0.10742 a 1.5876587,1.5876587 0 0 0 -1.58789,1.58789 v 0.67383 a 1.5876587,1.5876587 0 0 0 1.58789,1.58789 h 0.51563 v 3.66407 a 1.5876587,1.5876587 0 0 0 1.58789,1.58789 h 0.80664 a 1.5876587,1.5876587 0 0 0 1.58594,-1.58789 v -3.66407 h 0.51758 a 1.5876587,1.5876587 0 0 0 1.58593,-1.58789 v -0.67383 a 1.5876587,1.5876587 0 0 0 -1.58593,-1.58789 z m 8.2168,0 a 1.5876587,1.5876587 0 0 0 -1.58789,1.58789 v 5.92579 a 1.5876587,1.5876587 0 0 0 1.58789,1.58789 h 3.81836 a 1.5876587,1.5876587 0 0 0 1.58594,-1.58789 v -0.67579 a 1.5876587,1.5876587 0 0 0 -1.16992,-1.16992 1.5876587,1.5876587 0 0 0 0.97656,-0.97656 v -0.67578 a 1.5876587,1.5876587 0 0 0 -0.81641,-0.81445 1.5876587,1.5876587 0 0 0 0.93945,-0.93946 v -0.67383 a 1.5876587,1.5876587 0 0 0 -1.58789,-1.58789 z m 7.56445,0 a 1.5876587,1.5876587 0 0 0 -1.58789,1.58789 v 5.92579 a 1.5876587,1.5876587 0 0 0 1.58789,1.58789 h 0.80078 a 1.5876587,1.5876587 0 0 0 1.31641,-1.31641 l 0.2168,0.4375 a 1.5876587,1.5876587 0 0 0 1.41992,0.87891 h 0.86133 a 1.5876587,1.5876587 0 0 0 1.41992,-2.30079 l -0.80859,-1.60742 -0.006,-0.0117 c -0.0723,-0.14639 -0.17525,-0.26089 -0.25391,-0.39648 0.24714,-0.47896 0.44727,-0.98955 0.44727,-1.49023 0,-0.88023 -0.32541,-1.8679 -1.06055,-2.49219 -0.73774,-0.62648 -1.64442,-0.80274 -2.54297,-0.80274 z m 16.9043,0 a 1.5876587,1.5876587 0 0 0 -1.58789,1.58789 v 5.92579 a 1.5876587,1.5876587 0 0 0 1.58789,1.58789 h 0.80078 a 1.5876587,1.5876587 0 0 0 1.58789,-1.58789 v -5.92579 a 1.5876587,1.5876587 0 0 0 -1.58789,-1.58789 z m 4.82617,0 a 1.5876587,1.5876587 0 0 0 -1.58789,1.58789 v 5.92579 a 1.5876587,1.5876587 0 0 0 1.58789,1.58789 h 1.64649 c 1.36479,0 2.62221,-0.27099 3.57812,-1.11914 0.95886,-0.85075 1.34375,-2.13647 1.34375,-3.4375 0,-1.29393 -0.38256,-2.57573 -1.33594,-3.42383 l -0.002,-0.002 c -0.95634,-0.85147 -2.21589,-1.11914 -3.58398,-1.11914 z m -17.99804,1.32032 0.0156,0.0156 c -0.002,-0.002 -0.004,-3.8e-4 -0.006,-0.002 -0.004,-0.004 -0.005,-0.01 -0.01,-0.0137 z m 6.75,2.39843 c 0.18765,0 0.0616,-0.0452 0.1289,0.041 a 1.5876587,1.5876587 0 0 0 0.004,0.004 c 0.067,0.0852 0.17187,0.28535 0.17187,0.79296 0,0.50412 -0.1039,0.70265 -0.17187,0.78907 a 1.5876587,1.5876587 0 0 0 -0.004,0.004 c -0.0673,0.0862 0.0588,0.041 -0.1289,0.041 -0.18766,0 -0.0714,0.0415 -0.14454,-0.0508 -0.068,-0.0875 -0.16992,-0.28293 -0.16992,-0.78321 0,-0.50496 0.10287,-0.70312 0.16992,-0.78906 4e-5,-4e-5 0.002,5e-5 0.002,0 0.0678,-0.088 -0.0428,-0.0488 0.14258,-0.0488 z m 13.63671,0.20703 c 3.5e-4,-1.5e-4 0.0673,0.0125 0.0645,0.01 a 1.5876587,1.5876587 0 0 0 0.008,0.008 c -0.0296,-0.0285 0.0879,0.0618 0.0879,0.60157 0,0.54678 -0.11982,0.64248 -0.0918,0.61523 a 1.5876587,1.5876587 0 0 0 -0.004,0.004 c 0.003,-0.003 -0.0641,0.01 -0.0645,0.01 z m -42.79492,0.15625 0.008,0.008 c -0.002,-0.002 -0.004,-3.1e-4 -0.006,-0.002 -0.002,-10e-4 -3.5e-4,-0.004 -0.002,-0.006 z m 58.0918,0.44922 -0.004,0.008 c 5.5e-4,-0.001 -5.5e-4,-0.003 0,-0.004 8.6e-4,-0.002 0.003,-0.002 0.004,-0.004 z m -34.55078,0.60157 -0.006,0.01 c 0.002,-0.002 3.2e-4,-0.005 0.002,-0.008 8.6e-4,-10e-4 0.003,-7.3e-4 0.004,-0.002 z"
         id="text27"
         transform="scale(1.09914,0.90980221)" /><g
         id="path27"><path
           style="color:#000000;fill:#abedcc;stroke-linecap:round;stroke-linejoin:round;-inkscape-stroke:none"
           d="m 306.75015,195.81511 -12.1147,11.8407 c -3.7953,3.61612 -3.93894,9.58229 -0.32228,13.37685 3.61665,3.79454 9.58359,3.93818 13.37888,0.32206 l 11.80349,-11.54425 z"
           id="path403" /><path
           style="color:#000000;fill:#abedcc;stroke-linecap:round;stroke-linejoin:round;-inkscape-stroke:none"
           d="m 306.79687,194.22852 a 1.5876637,1.5876637 0 0 0 -1.15625,0.45117 l -12.0996,11.82617 c -4.1e-4,3.8e-4 4e-4,0.002 0,0.002 -4.41099,4.20399 -4.58108,11.21017 -0.37696,15.6211 4.2045,4.4113 11.21094,4.57882 15.62305,0.375 a 1.5876637,1.5876637 0 0 0 0.0156,-0.0137 l 11.80274,-11.54492 a 1.5876637,1.5876637 0 0 0 0.0644,-2.20312 l -12.74609,-13.9961 a 1.5876637,1.5876637 0 0 0 -1.12696,-0.51757 z m -0.11328,3.87109 10.60743,11.64648 -10.69336,10.45899 c -3.17847,3.02841 -8.10597,2.91019 -11.13477,-0.26758 -3.0288,-3.17779 -2.91085,-8.10444 0.26758,-11.13281 a 1.5876637,1.5876637 0 0 0 0.0137,-0.0137 z"
           id="path404" /></g><path
         style="color:#000000;fill:#abedcc;stroke-linecap:round;stroke-linejoin:round;-inkscape-stroke:none"
         d="m 323.33789,181.32031 c -2.64777,0.0631 -5.29116,1.08609 -7.35937,3.05664 a 1.5876637,1.5876637 0 0 0 -0.0195,0.0195 l -22.41796,22.10938 c -4.4121,4.20381 -4.58144,11.2098 -0.37696,15.62109 4.20452,4.41134 11.21094,4.58078 15.62305,0.37696 a 1.5876637,1.5876637 0 0 0 0.0195,-0.0195 L 331.22461,200.375 c 4.41215,-4.20386 4.5815,-11.2117 0.37695,-15.62305 -2.23368,-2.34356 -5.26294,-3.50314 -8.26367,-3.43164 z m 0.0762,3.17578 c 2.13929,-0.051 4.27968,0.75912 5.88867,2.44727 3.02877,3.17774 2.91085,8.10444 -0.26757,11.13281 a 1.5876637,1.5876637 0 0 0 -0.0195,0.0176 l -22.41796,22.11133 c -3.17847,3.02841 -8.106,2.91017 -11.13477,-0.26758 -3.02881,-3.1778 -2.9109,-8.10439 0.26758,-11.13281 a 1.5876637,1.5876637 0 0 0 0.0195,-0.0176 l 22.41797,-22.11133 c 1.48988,-1.41954 3.35854,-2.13474 5.24609,-2.17969 z"
         id="path28" /><g
         id="path31"><path
           style="color:#000000;fill:#abedcc;stroke-linecap:round;stroke-linejoin:round;-inkscape-stroke:none"
           d="m 290.45407,179.28357 -8.57393,8.3782 c -2.68604,2.55868 -2.7877,6.78021 -0.22808,9.46514 2.5596,2.68493 6.78258,2.78657 9.46862,0.22789 l 8.35367,-8.16844 z"
           id="path405" /><path
           style="color:#000000;fill:#abedcc;stroke-linecap:round;stroke-linejoin:round;-inkscape-stroke:none"
           d="m 290.5,177.69727 a 1.5876637,1.5876637 0 0 0 -1.15625,0.45117 l -8.55859,8.36328 c -4.1e-4,3.8e-4 4e-4,0.002 0,0.002 -3.30179,3.14649 -3.42842,8.40775 -0.28125,11.70899 3.14752,3.30163 8.40802,3.42756 11.71093,0.28125 a 1.5876637,1.5876637 0 0 0 0.0156,-0.0137 l 8.35351,-8.16796 a 1.5876637,1.5876637 0 0 0 0.0645,-2.20508 l -9.02149,-9.90235 A 1.5876637,1.5876637 0 0 0 290.5,177.69727 Z m -0.11133,3.87109 6.88086,7.55469 -7.25781,7.09765 0.0137,-0.0156 c -2.06916,1.97104 -5.25293,1.89439 -7.22461,-0.17383 -1.97168,-2.06821 -1.89528,-5.2497 0.17383,-7.2207 a 1.5876637,1.5876637 0 0 0 0.0156,-0.0137 z"
           id="path406" /></g><path
         style="color:#000000;fill:#abedcc;stroke-linecap:round;stroke-linejoin:round;-inkscape-stroke:none"
         d="m 302.18359,168.56445 c -1.98492,0.0473 -3.9693,0.81421 -5.51757,2.28907 a 1.5876637,1.5876637 0 0 0 -0.0195,0.0195 l -15.86132,15.63867 c -3.30291,3.14629 -3.43072,8.40931 -0.28321,11.71094 3.14756,3.30166 8.40998,3.42755 11.71289,0.28125 a 1.5876637,1.5876637 0 0 0 0.0195,-0.0195 L 308.0957,182.8457 c 3.30296,-3.14634 3.43077,-8.40926 0.28321,-11.71093 -1.67217,-1.75406 -3.94582,-2.62391 -6.19532,-2.57032 z m 0.0762,3.17383 c 1.38823,-0.0331 2.7729,0.48919 3.82031,1.58789 1.97165,2.06818 1.89529,5.2497 -0.17383,7.2207 a 1.5876637,1.5876637 0 0 0 -0.0195,0.0195 l -15.86133,15.63867 c -2.06916,1.97104 -5.25295,1.89436 -7.22461,-0.17383 -1.9717,-2.06825 -1.89534,-5.24964 0.17383,-7.2207 a 1.5876637,1.5876637 0 0 0 0.0195,-0.0176 l 15.86133,-15.64063 c 0.96989,-0.9239 2.17946,-1.3849 3.4043,-1.41406 z"
         id="path34" /></g></g></svg>
