<?xml version="1.0" encoding="UTF-8" standalone="no"?>
<!-- Created with Inkscape (http://www.inkscape.org/) -->

<svg
   width="313.72583"
   height="316.55847"
   viewBox="0 0 83.006623 83.756096"
   version="1.1"
   id="svg8"
   inkscape:version="1.3 (0e150ed6c4, 2023-07-21)"
   sodipodi:docname="drawing.svg"
   xml:space="preserve"
   xmlns:inkscape="http://www.inkscape.org/namespaces/inkscape"
   xmlns:sodipodi="http://sodipodi.sourceforge.net/DTD/sodipodi-0.dtd"
   xmlns="http://www.w3.org/2000/svg"
   xmlns:svg="http://www.w3.org/2000/svg"
   xmlns:rdf="http://www.w3.org/1999/02/22-rdf-syntax-ns#"
   xmlns:cc="http://creativecommons.org/ns#"
   xmlns:dc="http://purl.org/dc/elements/1.1/"><defs
     id="defs2" /><sodipodi:namedview
     id="base"
     pagecolor="#ffffff"
     bordercolor="#666666"
     borderopacity="1.0"
     inkscape:pageopacity="0.0"
     inkscape:pageshadow="2"
     inkscape:zoom="0.3416143"
     inkscape:cx="2294.9859"
     inkscape:cy="1154.8111"
     inkscape:document-units="mm"
     inkscape:current-layer="g13"
     showgrid="false"
     units="px"
     inkscape:window-width="1916"
     inkscape:window-height="1037"
     inkscape:window-x="0"
     inkscape:window-y="0"
     inkscape:window-maximized="1"
     inkscape:showpageshadow="2"
     inkscape:pagecheckerboard="0"
     inkscape:deskcolor="#d1d1d1" /><metadata
     id="metadata5"><rdf:RDF><cc:Work
         rdf:about=""><dc:format>image/svg+xml</dc:format><dc:type
           rdf:resource="http://purl.org/dc/dcmitype/StillImage" /></cc:Work></rdf:RDF></metadata><g
     inkscape:groupmode="layer"
     id="layer2"
     inkscape:label="hud"
     style="display:inline"
     transform="translate(-602.2621,-239.98235)"><g
       id="g13"
       style="display:inline"
       inkscape:label="upgrades"
       transform="translate(0,18.417901)"><path
         style="color:#000000;fill:#abedcc;stroke-linecap:round;stroke-linejoin:round;-inkscape-stroke:none"
         d="m 612.40234,221.56445 c -2.52146,0 -4.60156,2.08011 -4.60156,4.60157 v 62.6875 c 0,2.52146 2.0801,4.60156 4.60156,4.60156 h 62.6875 c 2.52146,0 4.60157,-2.0801 4.60157,-4.60156 v -62.6875 c 0,-2.52146 -2.08011,-4.60157 -4.60157,-4.60157 z m 0,3.17578 h 62.6875 c 0.81743,0 1.42578,0.60836 1.42578,1.42579 v 62.6875 c 0,0.81743 -0.60835,1.42578 -1.42578,1.42578 h -62.6875 c -0.81743,0 -1.42578,-0.60835 -1.42578,-1.42578 v -62.6875 c 0,-0.81743 0.60835,-1.42579 1.42578,-1.42579 z"
         id="rect44" /><path
         style="color:#000000;-inkscape-font-specification:sans-serif;fill:#abedcc;stroke-linecap:round;stroke-linejoin:round;-inkscape-stroke:none"
         d="m 551.60742,326.26562 c -0.8945,0 -1.80921,0.2226 -2.53125,0.81055 a 1.5876587,1.5876587 0 0 0 -0.004,0.002 c -0.71625,0.58743 -1.13282,1.5714 -1.13282,2.4668 0,0.68288 0.2683,1.42075 0.75,1.98828 a 1.5876587,1.5876587 0 0 0 -0.72656,1.26563 v 0.82617 a 1.5876587,1.5876587 0 0 0 1.04102,1.49023 c 0.40597,0.14904 0.80937,0.26624 1.21289,0.34766 a 1.5876587,1.5876587 0 0 0 0.002,0 c 0.4057,0.0812 0.80864,0.12695 1.20898,0.12695 0.95297,0 1.88264,-0.17605 2.65821,-0.77343 0.77917,-0.59772 1.19922,-1.63424 1.19922,-2.56446 0,-0.79283 -0.29182,-1.66475 -0.88868,-2.26562 -0.0105,-0.0107 -0.0265,-0.009 -0.0371,-0.0195 a 1.5876587,1.5876587 0 0 0 0.56836,-1.0293 v -0.78125 a 1.5876587,1.5876587 0 0 0 -1.08398,-1.50586 c -0.37037,-0.12347 -0.74263,-0.22022 -1.11523,-0.28516 -0.37336,-0.0651 -0.74753,-0.0996 -1.1211,-0.0996 z m 39.93164,0.002 c -1.23605,0 -2.46777,0.41824 -3.3164,1.29687 -0.85081,0.88105 -1.22852,2.11197 -1.22852,3.36524 0,1.2514 0.37719,2.48144 1.22461,3.36328 a 1.5876587,1.5876587 0 0 0 0.006,0.006 c 0.84951,0.87525 2.07991,1.29101 3.31445,1.29101 0.56227,0 1.1179,-0.0744 1.64844,-0.23242 a 1.5876587,1.5876587 0 0 0 0.01,-0.004 c 0.5285,-0.16118 1.02899,-0.40376 1.47851,-0.72266 a 1.5876587,1.5876587 0 0 0 0.66992,-1.29492 v -2.54492 a 1.5876587,1.5876587 0 0 0 -0.6875,-0.6875 1.5876587,1.5876587 0 0 0 0.53321,-0.83204 V 328.875 a 1.5876587,1.5876587 0 0 0 1.34961,1.34766 h 0.51562 v 3.66406 a 1.5876587,1.5876587 0 0 0 1.58789,1.58789 h 0.80469 a 1.5876587,1.5876587 0 0 0 1.58789,-1.58789 v -3.66406 h 0.51562 a 1.5876587,1.5876587 0 0 0 1.58789,-1.58594 v -0.67578 a 1.5876587,1.5876587 0 0 0 -1.58789,-1.58789 h -5.01171 a 1.5876587,1.5876587 0 0 0 -1.5879,1.58789 v 0.0254 a 1.5876587,1.5876587 0 0 0 -0.5039,-0.91211 c -0.42929,-0.27072 -0.89924,-0.47316 -1.39063,-0.60742 -0.49193,-0.1352 -1.00272,-0.19922 -1.51953,-0.19922 z m 28.28321,0 c -0.38315,0 -0.75683,0.052 -1.13282,0.14062 -0.37358,0.0881 -0.74908,0.21112 -1.13281,0.36524 a 1.5876587,1.5876587 0 0 0 -0.99609,1.47265 v 0.81055 a 1.5876587,1.5876587 0 0 0 2.03906,1.38281 c -0.14683,0.15161 -0.1654,0.17695 -0.37695,0.39063 -0.52656,0.53187 -0.94402,0.9566 -1.25586,1.27929 a 1.5876587,1.5876587 0 0 0 -0.44532,1.10352 v 0.67383 a 1.5876587,1.5876587 0 0 0 1.58594,1.58789 h 3.76367 a 1.5876587,1.5876587 0 0 0 1.58789,-1.58789 v -0.67383 a 1.5876587,1.5876587 0 0 0 -1.10742,-1.10742 c 0.0132,-0.015 0.0417,-0.0435 0.0547,-0.0586 a 1.5876587,1.5876587 0 0 0 0.0293,-0.0371 c 0.29935,-0.36843 0.54652,-0.71844 0.73047,-1.16211 0.17214,-0.41112 0.26171,-0.86066 0.26171,-1.30274 0,-0.88974 -0.4164,-1.85789 -1.11523,-2.44531 -0.70057,-0.5889 -1.61177,-0.83203 -2.49023,-0.83203 z m -63.26563,0.10547 a 1.5876587,1.5876587 0 0 0 -1.58789,1.58789 v 0.67578 a 1.5876587,1.5876587 0 0 0 1.58789,1.58594 h 0.51563 v 3.66406 a 1.5876587,1.5876587 0 0 0 1.58789,1.58789 h 0.80468 a 1.5876587,1.5876587 0 0 0 1.58789,-1.58789 v -3.66406 h 0.51563 a 1.5876587,1.5876587 0 0 0 1.58789,-1.58594 v -0.67578 a 1.5876587,1.5876587 0 0 0 -1.58789,-1.58789 z m 8.21484,0 a 1.5876587,1.5876587 0 0 0 -1.58789,1.58789 v 5.92578 a 1.5876587,1.5876587 0 0 0 1.58789,1.58789 h 0.80274 a 1.5876587,1.5876587 0 0 0 1.31445,-1.31445 l 0.2168,0.43554 a 1.5876587,1.5876587 0 0 0 1.42187,0.87891 h 0.86133 a 1.5876587,1.5876587 0 0 0 1.41797,-2.30078 l -0.80859,-1.60742 -0.006,-0.0117 c -0.0723,-0.1464 -0.17525,-0.2609 -0.25391,-0.39649 0.24714,-0.47896 0.44727,-0.98954 0.44727,-1.49023 0,-0.88022 -0.32541,-1.8679 -1.06055,-2.49219 -0.73774,-0.62649 -1.64441,-0.80273 -2.54297,-0.80273 z m 8.07813,0 a 1.5876587,1.5876587 0 0 0 -1.58789,1.58789 v 5.92578 a 1.5876587,1.5876587 0 0 0 1.58789,1.58789 h 3.81836 a 1.5876587,1.5876587 0 0 0 1.58594,-1.58789 v -0.67383 a 1.5876587,1.5876587 0 0 0 -1.16993,-1.17187 1.5876587,1.5876587 0 0 0 0.97657,-0.97657 v -0.67383 a 1.5876587,1.5876587 0 0 0 -0.81641,-0.8164 1.5876587,1.5876587 0 0 0 0.93945,-0.9375 v -0.67578 a 1.5876587,1.5876587 0 0 0 -1.58789,-1.58789 z m 7.56445,0 a 1.5876587,1.5876587 0 0 0 -1.58789,1.58789 v 5.92578 a 1.5876587,1.5876587 0 0 0 1.58789,1.58789 h 0.77735 a 1.5876587,1.5876587 0 0 0 1.09179,-1.0918 l 0.13282,0.24805 a 1.5876587,1.5876587 0 0 0 1.40429,0.84375 h 1.07813 a 1.5876587,1.5876587 0 0 0 1.58789,-1.58789 v -5.92578 a 1.5876587,1.5876587 0 0 0 -1.58789,-1.58789 h -0.77735 a 1.5876587,1.5876587 0 0 0 -1.09375,1.09375 l -0.13086,-0.24805 a 1.5876587,1.5876587 0 0 0 -1.40234,-0.8457 z m 24.3418,0 a 1.5876587,1.5876587 0 0 0 -1.58789,1.58789 v 5.92578 a 1.5876587,1.5876587 0 0 0 1.58789,1.58789 h 0.80273 a 1.5876587,1.5876587 0 0 0 1.45703,-1.45703 1.5876587,1.5876587 0 0 0 1.45508,1.45703 h 0.80274 a 1.5876587,1.5876587 0 0 0 1.58789,-1.58789 v -5.92578 a 1.5876587,1.5876587 0 0 0 -1.58789,-1.58789 h -0.80274 a 1.5876587,1.5876587 0 0 0 -1.45508,1.45703 1.5876587,1.5876587 0 0 0 -1.45703,-1.45703 z m -36.25195,1.32031 0.0176,0.0156 c -0.003,-0.003 -0.007,-10e-4 -0.01,-0.004 -0.004,-0.003 -0.004,-0.009 -0.008,-0.0117 z m -14.84375,2.76172 0.01,0.008 c -0.003,-0.002 -0.005,-0.002 -0.008,-0.004 -10e-4,-10e-4 -8.2e-4,-0.003 -0.002,-0.004 z m 15.97656,1.05078 -0.006,0.01 c 0.002,-0.002 3.2e-4,-0.005 0.002,-0.008 8.6e-4,-0.001 0.003,-7.3e-4 0.004,-0.002 z"
         id="text44"
         transform="scale(1.09914,0.90980221)" /><g
         id="path164-6"><path
           style="color:#000000;fill:#abedcc;stroke-linecap:round;stroke-linejoin:round;-inkscape-stroke:none"
           d="m 661.28759,276.22336 c -3.92653,2.67318 -9.49225,-2.16275 -13.38469,-4.88537 -0.76819,-0.53731 -1.81235,-2.15116 -1.81235,-2.15116 0,0 -7.13693,2.98955 -10.91484,3.06283 -3.54078,0.0686 -7.47517,-0.3791 -10.33321,-2.47178 -1.11671,-0.81766 -1.90855,-2.19363 -2.14155,-3.5585 -0.67349,-3.94539 1.22156,-7.943 2.42705,-11.75942 1.36722,-4.32841 2.66232,-8.88335 5.40762,-12.49727 1.08146,-1.42366 2.50123,-2.73266 4.17049,-3.37122 2.16706,-0.82899 4.63868,-0.54214 6.95102,-0.35365 0.84026,0.0684 1.7878,0.0427 2.47177,0.53586 1.29942,0.93693 2.31365,2.53851 2.45121,4.13527 0.0699,0.81193 -0.26196,1.74124 -0.8684,2.2852 -0.99641,0.89376 -2.54952,0.93195 -3.88534,1.01017 -1.56079,0.0914 -3.20067,-1.23841 -4.64624,-0.64238 -1.85395,0.76439 -3.03053,2.87676 -3.64921,4.78536 -0.95457,2.94476 0.22728,9.28464 0.22728,9.28464 0,0 1.8815,-2.22201 3.20508,-2.58124 1.79125,-0.48618 3.87029,-0.0541 5.50711,0.82141 0.7447,0.39834 1.70245,1.87717 1.70245,1.87717 0,0 1.55042,-2.53742 2.7948,-3.22704 2.16596,-1.20033 4.86541,-1.25426 7.33898,-1.14603 2.56548,0.11225 5.92245,-0.19492 7.47896,1.8489 3.83722,5.03858 4.7362,15.43485 -0.49799,18.99825 z"
           id="path464" /><path
           style="color:#000000;fill:#abedcc;stroke-linecap:round;stroke-linejoin:round;-inkscape-stroke:none"
           d="m 638.10547,236.43164 c -1.29542,0.009 -2.63809,0.16945 -3.9668,0.67773 -2.06489,0.78991 -3.66443,2.30924 -4.86719,3.89258 -2.98848,3.93406 -4.3006,8.68253 -5.6582,12.98047 -1.15746,3.66438 -3.2631,7.89629 -2.47656,12.50391 0.30361,1.77851 1.25454,3.46441 2.76758,4.57226 3.33126,2.43918 7.60544,2.84898 11.30273,2.77735 2.28808,-0.0444 5.03156,-0.86409 7.34766,-1.64063 1.65195,-0.55386 2.28827,-0.83186 2.95898,-1.10156 0.38169,0.50398 0.79234,1.06498 1.47852,1.54492 1.87568,1.31198 4.28348,3.25372 6.86523,4.57813 1.29088,0.6622 2.64008,1.18162 4.0625,1.33203 1.42242,0.15041 2.95182,-0.12189 4.26172,-1.01367 3.2457,-2.20966 4.39832,-6.27919 4.34375,-10.2793 -0.0546,-4.00011 -1.2753,-8.10175 -3.47656,-10.99219 -1.13477,-1.49004 -2.84923,-2.03907 -4.40039,-2.25976 -1.55117,-0.2207 -3.08213,-0.16086 -4.27149,-0.21289 -2.54696,-0.11145 -5.54223,-0.11983 -8.17968,1.34179 -1.00218,0.5554 -1.59631,1.36694 -2.15235,2.10156 -0.25509,-0.26245 -0.39823,-0.53281 -0.82617,-0.76171 -1.93825,-1.03675 -4.35147,-1.58293 -6.67188,-0.95313 -0.65543,0.17789 -1.17757,0.47182 -1.63085,0.80664 -0.0209,-0.19669 -0.0302,-0.1681 -0.0488,-0.375 -0.16878,-1.87141 -0.14115,-4.14357 0.17383,-5.11523 0.54257,-1.67383 1.6242,-3.34489 2.74414,-3.80664 0.14256,-0.0588 0.48196,-0.0453 1.19921,0.17968 0.71726,0.22503 1.67422,0.65395 2.93555,0.58008 1.29424,-0.0758 3.2615,0.0122 4.85156,-1.41406 1.06117,-0.95183 1.50624,-2.25869 1.39063,-3.60156 -0.18704,-2.17114 -1.42777,-4.07743 -3.10547,-5.28711 -1.26937,-0.91525 -2.55947,-0.77212 -3.27148,-0.83008 -1.13683,-0.0927 -2.38428,-0.234 -3.67969,-0.22461 z m 0.043,3.20313 c 1.06024,-0.007 2.20339,0.0897 3.3789,0.18554 a 1.5876587,1.5876587 0 0 0 0.002,0 c 0.9685,0.0788 1.57331,0.16917 1.67187,0.24024 0.92114,0.66417 1.7088,1.96199 1.79688,2.98437 0.0242,0.28099 -0.19399,0.83071 -0.34571,0.9668 -0.40275,0.36126 -1.54057,0.52677 -2.91797,0.60742 -0.29945,0.0175 -0.94455,-0.17143 -1.79882,-0.43945 -0.85428,-0.26802 -2.05833,-0.62319 -3.36133,-0.0859 -2.58797,1.06703 -3.85795,3.6203 -4.55274,5.76367 -0.63959,1.9731 -0.49991,4.3442 -0.3164,6.37891 0.1835,2.03471 0.49219,3.6875 0.49219,3.6875 a 1.5876587,1.5876587 0 0 0 2.77148,0.73437 c 0,0 0.42173,-0.49419 0.98633,-1.02734 0.5646,-0.53315 1.37704,-1.03613 1.42383,-1.04883 1.26209,-0.34256 3.00641,-0.0248 4.34179,0.68945 -0.0985,-0.0527 0.3558,0.31943 0.63672,0.67383 0.28092,0.3544 0.48242,0.66602 0.48242,0.66602 a 1.5876587,1.5876587 0 0 0 2.6875,-0.0352 c 0,0 0.35166,-0.57374 0.84375,-1.22656 0.4921,-0.65282 1.22059,-1.35929 1.36524,-1.43945 1.69446,-0.93904 4.09983,-1.05229 6.5,-0.94727 1.37612,0.0602 2.80702,0.0208 3.96484,0.18555 1.15782,0.16473 1.90053,0.48529 2.32227,1.03906 1.63595,2.14814 2.78244,5.76281 2.82812,9.11133 0.0457,3.34851 -0.96855,6.25758 -2.95703,7.61133 -0.65336,0.4448 -1.2935,0.572 -2.14062,0.48242 -0.84713,-0.0896 -1.86935,-0.44704 -2.94727,-1 -2.15585,-1.10592 -4.47739,-2.94483 -6.49414,-4.35547 -0.0492,-0.0344 -0.52166,-0.51616 -0.83984,-0.93555 -0.31819,-0.41938 -0.54883,-0.77734 -0.54883,-0.77734 a 1.5876587,1.5876587 0 0 0 -1.94727,-0.60156 c 0,0 -1.7348,0.72633 -3.93164,1.46289 -2.19683,0.73655 -4.91056,1.44766 -6.40039,1.47656 -3.38426,0.0656 -6.97847,-0.41984 -9.36328,-2.16602 -0.72038,-0.52746 -1.35324,-1.59174 -1.51563,-2.54297 -0.56044,-3.28315 1.12345,-7.04717 2.37696,-11.01562 1.37684,-4.35886 2.65414,-8.71989 5.15625,-12.01367 0.96016,-1.26398 2.20098,-2.3624 3.47461,-2.84961 0.83835,-0.3207 1.81475,-0.43215 2.875,-0.43945 z"
           id="path465" /></g></g></g></svg>
