<?xml version="1.0" encoding="UTF-8" standalone="no"?>
<!-- Created with Inkscape (http://www.inkscape.org/) -->

<svg
   width="313.9856"
   height="316.55286"
   viewBox="0 0 83.075353 83.75461"
   version="1.1"
   id="svg8"
   inkscape:version="1.3 (0e150ed6c4, 2023-07-21)"
   sodipodi:docname="drawing.svg"
   xml:space="preserve"
   xmlns:inkscape="http://www.inkscape.org/namespaces/inkscape"
   xmlns:sodipodi="http://sodipodi.sourceforge.net/DTD/sodipodi-0.dtd"
   xmlns="http://www.w3.org/2000/svg"
   xmlns:svg="http://www.w3.org/2000/svg"
   xmlns:rdf="http://www.w3.org/1999/02/22-rdf-syntax-ns#"
   xmlns:cc="http://creativecommons.org/ns#"
   xmlns:dc="http://purl.org/dc/elements/1.1/"><defs
     id="defs2" /><sodipodi:namedview
     id="base"
     pagecolor="#ffffff"
     bordercolor="#666666"
     borderopacity="1.0"
     inkscape:pageopacity="0.0"
     inkscape:pageshadow="2"
     inkscape:zoom="0.3416143"
     inkscape:cx="2294.9859"
     inkscape:cy="1154.8111"
     inkscape:document-units="mm"
     inkscape:current-layer="g13"
     showgrid="false"
     units="px"
     inkscape:window-width="1916"
     inkscape:window-height="1037"
     inkscape:window-x="0"
     inkscape:window-y="0"
     inkscape:window-maximized="1"
     inkscape:showpageshadow="2"
     inkscape:pagecheckerboard="0"
     inkscape:deskcolor="#d1d1d1" /><metadata
     id="metadata5"><rdf:RDF><cc:Work
         rdf:about=""><dc:format>image/svg+xml</dc:format><dc:type
           rdf:resource="http://purl.org/dc/dcmitype/StillImage" /></cc:Work></rdf:RDF></metadata><g
     inkscape:groupmode="layer"
     id="layer2"
     inkscape:label="hud"
     style="display:inline"
     transform="translate(-499.89818,-241.02338)"><g
       id="g13"
       style="display:inline"
       inkscape:label="upgrades"
       transform="translate(0,18.417901)"><path
         style="color:#000000;fill:#abedcc;stroke-linecap:round;stroke-linejoin:round;-inkscape-stroke:none"
         d="m 510.03711,222.60547 c -2.52146,0 -4.59961,2.07815 -4.59961,4.59961 v 62.6875 c 0,2.52146 2.07815,4.60156 4.59961,4.60156 h 62.6875 c 2.52146,0 4.60156,-2.0801 4.60156,-4.60156 v -62.6875 c 0,-2.52146 -2.0801,-4.59961 -4.60156,-4.59961 z m 0,3.17383 h 62.6875 c 0.81743,0 1.42578,0.60835 1.42578,1.42578 v 62.6875 c 0,0.81743 -0.60835,1.42773 -1.42578,1.42773 h -62.6875 c -0.81743,0 -1.42578,-0.6103 -1.42578,-1.42773 v -62.6875 c 0,-0.81743 0.60835,-1.42578 1.42578,-1.42578 z"
         id="rect38" /><path
         style="color:#000000;-inkscape-font-specification:sans-serif;fill:#abedcc;stroke-linecap:round;stroke-linejoin:round;-inkscape-stroke:none"
         d="m 458.47461,327.41016 c -0.89451,0 -1.80726,0.22063 -2.5293,0.80859 a 1.5876587,1.5876587 0 0 0 -0.006,0.004 c -0.71625,0.58742 -1.13086,1.56944 -1.13086,2.46484 0,0.68288 0.2683,1.42075 0.75,1.98828 a 1.5876587,1.5876587 0 0 0 -0.72656,1.26758 v 0.82422 a 1.5876587,1.5876587 0 0 0 1.04102,1.49023 c 0.40598,0.14905 0.80936,0.26624 1.21289,0.34766 a 1.5876587,1.5876587 0 0 0 0.002,0.002 c 0.4057,0.0812 0.80864,0.125 1.20898,0.125 0.95385,0 1.8822,-0.17667 2.65821,-0.77539 h 0.002 c 0.77638,-0.59824 1.19727,-1.63402 1.19727,-2.5625 0,-0.79336 -0.29299,-1.66667 -0.89063,-2.26758 -0.01,-0.01 -0.0252,-0.008 -0.0351,-0.0176 a 1.5876587,1.5876587 0 0 0 0.56835,-1.02929 v -0.78125 a 1.5876587,1.5876587 0 0 0 -1.08593,-1.50586 c -0.37036,-0.12346 -0.7407,-0.22022 -1.11328,-0.28516 -0.37336,-0.0651 -0.74948,-0.0976 -1.12305,-0.0976 z m 39.93359,0 c -1.23605,0 -2.46777,0.41824 -3.3164,1.29687 a 1.5876587,1.5876587 0 0 0 0,0.002 c -0.85082,0.88105 -1.22852,2.11002 -1.22852,3.36329 0,1.2514 0.37719,2.48144 1.22461,3.36328 a 1.5876587,1.5876587 0 0 0 0.006,0.006 c 0.84951,0.87524 2.07992,1.29101 3.31445,1.29101 0.56227,0 1.1179,-0.0744 1.64844,-0.23242 a 1.5876587,1.5876587 0 0 0 0.01,-0.004 c 0.5285,-0.16117 1.02899,-0.40376 1.47851,-0.72265 a 1.5876587,1.5876587 0 0 0 0.66992,-1.29492 v -2.54493 a 1.5876587,1.5876587 0 0 0 -0.6875,-0.6875 1.5876587,1.5876587 0 0 0 0.53125,-0.83203 v -0.39844 a 1.5876587,1.5876587 0 0 0 1.34961,1.35157 h 0.51758 v 3.66211 a 1.5876587,1.5876587 0 0 0 1.58594,1.58789 h 0.80664 a 1.5876587,1.5876587 0 0 0 1.58789,-1.58789 v -3.66211 h 0.51562 a 1.5876587,1.5876587 0 0 0 1.5879,-1.58789 v -0.67578 a 1.5876587,1.5876587 0 0 0 -1.5879,-1.58594 h -5.01367 a 1.5876587,1.5876587 0 0 0 -1.58593,1.58594 v 0.0293 a 1.5876587,1.5876587 0 0 0 -0.50391,-0.91406 c -0.4295,-0.27085 -0.89898,-0.47511 -1.39063,-0.60938 h -0.002 c -0.49136,-0.13484 -1.00143,-0.19921 -1.51758,-0.19921 z m -34.98437,0.10742 a 1.5876587,1.5876587 0 0 0 -1.58594,1.58594 v 0.67578 a 1.5876587,1.5876587 0 0 0 1.58594,1.58789 h 0.51758 v 3.66211 a 1.5876587,1.5876587 0 0 0 1.58593,1.58789 h 0.80664 a 1.5876587,1.5876587 0 0 0 1.58789,-1.58789 v -3.66211 h 0.51563 a 1.5876587,1.5876587 0 0 0 1.58789,-1.58789 v -0.67578 a 1.5876587,1.5876587 0 0 0 -1.58789,-1.58594 z m 8.21679,0 a 1.5876587,1.5876587 0 0 0 -1.58789,1.58594 v 5.92578 a 1.5876587,1.5876587 0 0 0 1.58789,1.58789 h 0.80079 a 1.5876587,1.5876587 0 0 0 1.3164,-1.31641 l 0.2168,0.4375 a 1.5876587,1.5876587 0 0 0 1.41992,0.87891 h 0.86133 a 1.5876587,1.5876587 0 0 0 1.41992,-2.30078 l -0.80859,-1.60743 c -0.0743,-0.15096 -0.17882,-0.2687 -0.25977,-0.4082 0.24713,-0.47896 0.44727,-0.98955 0.44727,-1.49023 0,-0.88023 -0.3254,-1.86791 -1.06055,-2.49219 -0.73774,-0.62649 -1.64441,-0.80078 -2.54297,-0.80078 z m 8.07618,0 a 1.5876587,1.5876587 0 0 0 -1.58594,1.58594 v 5.92578 a 1.5876587,1.5876587 0 0 0 1.58594,1.58789 h 3.81836 a 1.5876587,1.5876587 0 0 0 1.58789,-1.58789 v -0.67383 a 1.5876587,1.5876587 0 0 0 -1.16993,-1.16992 1.5876587,1.5876587 0 0 0 0.97657,-0.97657 v -0.67578 a 1.5876587,1.5876587 0 0 0 -0.81641,-0.81445 1.5876587,1.5876587 0 0 0 0.93945,-0.93945 v -0.67578 a 1.5876587,1.5876587 0 0 0 -1.58789,-1.58594 z m 7.5664,0 a 1.5876587,1.5876587 0 0 0 -1.58789,1.58594 v 5.92578 a 1.5876587,1.5876587 0 0 0 1.58789,1.58789 h 0.77735 a 1.5876587,1.5876587 0 0 0 1.09179,-1.0918 l 0.13282,0.24805 a 1.5876587,1.5876587 0 0 0 1.40234,0.84375 h 1.08008 a 1.5876587,1.5876587 0 0 0 1.58789,-1.58789 v -5.92578 a 1.5876587,1.5876587 0 0 0 -1.58789,-1.58594 h -0.77735 a 1.5876587,1.5876587 0 0 0 -1.09375,1.09179 l -0.13086,-0.24804 a 1.5876587,1.5876587 0 0 0 -1.40429,-0.84375 z m 24.3418,0 a 1.5876587,1.5876587 0 0 0 -1.58789,1.58594 v 5.92578 a 1.5876587,1.5876587 0 0 0 1.58789,1.58789 h 0.80078 a 1.5876587,1.5876587 0 0 0 1.45703,-1.45703 1.5876587,1.5876587 0 0 0 1.45703,1.45703 h 0.80274 a 1.5876587,1.5876587 0 0 0 1.58594,-1.58789 v -5.92578 a 1.5876587,1.5876587 0 0 0 -1.58594,-1.58594 h -0.80274 a 1.5876587,1.5876587 0 0 0 -1.45703,1.45508 1.5876587,1.5876587 0 0 0 -1.45703,-1.45508 z m 15.06641,0 a 1.5876587,1.5876587 0 0 0 -0.31446,0.0312 l -1.41601,0.28515 a 1.5876587,1.5876587 0 0 0 -1.27344,1.55664 v 0.73047 a 1.5876587,1.5876587 0 0 0 1.42383,1.4375 v 1.48828 a 1.5876587,1.5876587 0 0 0 -1.3086,1.3086 v 0.67383 a 1.5876587,1.5876587 0 0 0 1.58789,1.58789 h 3.41211 a 1.5876587,1.5876587 0 0 0 1.58789,-1.58789 v -0.67383 a 1.5876587,1.5876587 0 0 0 -1.31054,-1.31055 v -3.9414 a 1.5876587,1.5876587 0 0 0 -1.58594,-1.58594 z m -51.31836,1.32031 0.0156,0.0137 c -0.002,-0.002 -0.006,9e-5 -0.008,-0.002 -0.004,-0.003 -0.004,-0.008 -0.008,-0.0117 z m -14.84375,2.75977 0.008,0.01 c -0.001,-0.001 -0.003,-7.8e-4 -0.004,-0.002 -0.002,-0.002 -0.002,-0.006 -0.004,-0.008 z m 15.97656,1.05078 -0.006,0.01 c 0.002,-0.002 3.2e-4,-0.005 0.002,-0.008 8.6e-4,-10e-4 0.003,-7.3e-4 0.004,-0.002 z"
         id="text38"
         transform="scale(1.09914,0.90980221)" /><g
         id="path164"><path
           style="color:#000000;fill:#abedcc;stroke-linecap:round;stroke-linejoin:round;-inkscape-stroke:none"
           d="m 557.20895,275.42361 c -3.54273,2.41027 -8.56443,-1.95004 -12.07641,-4.40489 -0.6931,-0.48447 -1.6352,-1.9396 -1.6352,-1.9396 0,0 -6.43933,2.69553 -9.84797,2.7616 -3.19469,0.0619 -6.74451,-0.34181 -9.32319,-2.22868 -1.00756,-0.73724 -1.722,-1.97788 -1.93223,-3.20852 -0.60766,-3.55736 1.10216,-7.1618 2.18982,-10.60288 1.23358,-3.90271 2.40209,-8.00967 4.87905,-11.26816 0.97576,-1.28364 2.25675,-2.4639 3.76285,-3.03966 1.95524,-0.74746 4.18527,-0.48882 6.27159,-0.31887 0.75813,0.0617 1.61306,0.0385 2.23017,0.48316 1.17241,0.84478 2.0875,2.28885 2.21162,3.72856 0.0631,0.73208 -0.23636,1.56999 -0.78352,2.06045 -0.89902,0.80586 -2.30032,0.8403 -3.50557,0.91082 -1.40823,0.0824 -2.88782,-1.11661 -4.19209,-0.5792 -1.67274,0.68921 -2.73431,2.59383 -3.29252,4.31472 -0.86127,2.65514 0.20506,8.3715 0.20506,8.3715 0,0 1.6976,-2.00348 2.8918,-2.32738 1.61617,-0.43836 3.49199,-0.0488 4.96882,0.74063 0.67191,0.35916 1.53605,1.69255 1.53605,1.69255 0,0 1.39887,-2.28787 2.52162,-2.90966 1.95425,-1.08228 4.38984,-1.13091 6.62163,-1.03332 2.31472,0.10121 5.34356,-0.17575 6.74793,1.66706 3.46215,4.54303 4.27326,13.91683 -0.44931,17.12977 z"
           id="path449" /><path
           style="color:#000000;fill:#abedcc;stroke-linecap:round;stroke-linejoin:round;-inkscape-stroke:none"
           d="m 536.29102,239.38867 c -1.18021,0.009 -2.41012,0.15368 -3.63282,0.6211 -1.90156,0.72694 -3.36185,2.11919 -4.45898,3.5625 -2.7203,3.5786 -3.90496,7.87776 -5.12891,11.75 -1.03958,3.28896 -2.96108,7.12765 -2.24023,11.34765 0.28093,1.64454 1.15469,3.19541 2.55859,4.22266 3.05191,2.23314 6.93989,2.60009 10.29102,2.53515 2.10318,-0.0408 4.58026,-0.78617 6.67578,-1.48828 1.44046,-0.48263 1.94926,-0.70852 2.58008,-0.96093 0.33228,0.43825 0.67442,0.91353 1.28711,1.34179 1.68545,1.17812 3.86273,2.93389 6.21289,4.13867 1.17508,0.6024 2.40743,1.07823 3.71875,1.2168 1.31131,0.13857 2.73332,-0.11356 3.94726,-0.93945 2.98988,-2.03412 4.03796,-5.76144 3.98828,-9.40039 -0.0497,-3.63896 -1.15407,-7.36127 -3.16797,-10.00391 -1.05891,-1.38951 -2.65362,-1.89399 -4.07226,-2.0957 -1.41864,-0.20171 -2.80511,-0.14879 -3.86914,-0.19531 -2.30514,-0.1008 -5.03529,-0.11288 -7.46094,1.23046 -0.89163,0.4938 -1.38573,1.1839 -1.87109,1.82032 -0.21912,-0.2108 -0.31365,-0.4248 -0.66992,-0.61524 -1.77822,-0.95053 -3.9878,-1.45485 -6.13282,-0.87304 -0.5292,0.14353 -0.93225,0.38266 -1.30664,0.63476 -0.006,-0.0584 -0.008,-0.0481 -0.0137,-0.10742 -0.15155,-1.67928 -0.11774,-3.72222 0.15039,-4.54883 0.48202,-1.48601 1.44772,-2.94905 2.38672,-3.33594 0.0721,-0.0297 0.33608,-0.0348 0.97656,0.16602 0.64048,0.2008 1.5184,0.59862 2.70313,0.5293 1.16371,-0.0681 2.97985,0.0256 4.47265,-1.3125 1.00196,-0.89813 1.41555,-2.11544 1.30664,-3.37891 -0.17367,-2.01446 -1.31453,-3.7635 -2.86523,-4.88086 -1.20256,-0.86651 -2.39941,-0.72608 -3.0293,-0.77734 -1.02382,-0.0834 -2.15573,-0.2117 -3.33593,-0.20313 z m 0.041,3.20313 c 0.9452,-0.006 1.97462,0.0775 3.03711,0.16406 0.88637,0.0721 1.39803,0.16664 1.42969,0.18945 0.79411,0.5722 1.48402,1.71121 1.55859,2.57617 0.0173,0.20069 -0.16936,0.6594 -0.26172,0.74219 -0.30523,0.27361 -1.29227,0.43486 -2.53906,0.50781 -0.2235,0.0131 -0.78897,-0.14492 -1.56641,-0.38867 -0.77744,-0.24374 -1.90458,-0.57995 -3.13671,-0.0723 -2.40648,0.99153 -3.56287,3.3372 -4.19727,5.29297 -0.59313,1.82852 -0.45927,3.96981 -0.29297,5.8125 0.1663,1.84268 0.44727,3.33984 0.44727,3.33984 a 1.5876587,1.5876587 0 0 0 2.77148,0.73437 c 0,0 0.37452,-0.43993 0.87695,-0.91406 0.50244,-0.47413 1.23634,-0.91297 1.21875,-0.9082 1.08732,-0.29492 2.62925,-0.019 3.80469,0.60937 -0.13482,-0.0721 0.277,0.25326 0.52539,0.56641 0.24839,0.31315 0.42774,0.58984 0.42774,0.58984 a 1.5876587,1.5876587 0 0 0 2.68554,-0.0351 c 0,0 0.31494,-0.5118 0.75391,-1.09375 0.43897,-0.58196 1.09967,-1.20938 1.18359,-1.25586 1.48285,-0.82121 3.62477,-0.93032 5.78321,-0.83594 1.25068,0.0547 2.535,0.0202 3.56054,0.16602 1.02555,0.14581 1.64869,0.42365 1.99414,0.87695 1.44825,1.90039 2.47876,5.13612 2.51954,8.12305 0.0408,2.98693 -0.86692,5.5536 -2.59961,6.73242 -0.55743,0.37924 -1.09173,0.48602 -1.82813,0.4082 -0.73639,-0.0778 -1.64329,-0.39346 -2.60547,-0.88672 -1.92436,-0.98651 -4.01332,-2.63929 -5.83984,-3.91601 -0.0117,-0.008 -0.4394,-0.43549 -0.72266,-0.8086 -0.28326,-0.3731 -0.49023,-0.6914 -0.49023,-0.6914 a 1.5876587,1.5876587 0 0 0 -1.94531,-0.60157 c 0,0 -1.56081,0.65229 -3.53711,1.31446 -1.97631,0.66217 -4.42306,1.29891 -5.72852,1.32422 -3.03825,0.0589 -6.25002,-0.38324 -8.35547,-1.92383 -0.61121,-0.44723 -1.16516,-1.37662 -1.30469,-2.19336 -0.49446,-2.89472 1.00294,-6.26423 2.13868,-9.85742 1.24321,-3.93318 2.39528,-7.84679 4.6289,-10.78516 0.85439,-1.12397 1.95578,-2.093 3.06641,-2.51758 0.73254,-0.28004 1.59386,-0.37827 2.53906,-0.38476 z"
           id="path450" /></g></g></g></svg>
