<?xml version="1.0" encoding="UTF-8" standalone="no"?>
<!-- Created with Inkscape (http://www.inkscape.org/) -->

<svg
   width="271.71289"
   height="316.54883"
   viewBox="0 0 71.8907 83.753544"
   version="1.1"
   id="svg8"
   inkscape:version="1.3 (0e150ed6c4, 2023-07-21)"
   sodipodi:docname="drawing.svg"
   xml:space="preserve"
   xmlns:inkscape="http://www.inkscape.org/namespaces/inkscape"
   xmlns:sodipodi="http://sodipodi.sourceforge.net/DTD/sodipodi-0.dtd"
   xmlns="http://www.w3.org/2000/svg"
   xmlns:svg="http://www.w3.org/2000/svg"
   xmlns:rdf="http://www.w3.org/1999/02/22-rdf-syntax-ns#"
   xmlns:cc="http://creativecommons.org/ns#"
   xmlns:dc="http://purl.org/dc/elements/1.1/"><defs
     id="defs2" /><sodipodi:namedview
     id="base"
     pagecolor="#ffffff"
     bordercolor="#666666"
     borderopacity="1.0"
     inkscape:pageopacity="0.0"
     inkscape:pageshadow="2"
     inkscape:zoom="0.3416143"
     inkscape:cx="1636.3484"
     inkscape:cy="1318.7387"
     inkscape:document-units="mm"
     inkscape:current-layer="g13"
     showgrid="false"
     units="px"
     inkscape:window-width="1916"
     inkscape:window-height="1037"
     inkscape:window-x="0"
     inkscape:window-y="0"
     inkscape:window-maximized="1"
     inkscape:showpageshadow="2"
     inkscape:pagecheckerboard="0"
     inkscape:deskcolor="#d1d1d1" /><metadata
     id="metadata5"><rdf:RDF><cc:Work
         rdf:about=""><dc:format>image/svg+xml</dc:format><dc:type
           rdf:resource="http://purl.org/dc/dcmitype/StillImage" /></cc:Work></rdf:RDF></metadata><g
     inkscape:groupmode="layer"
     id="layer2"
     inkscape:label="hud"
     style="display:inline"
     transform="translate(-269.72669,-180.21846)"><g
       id="g13"
       style="display:inline"
       inkscape:label="upgrades"
       transform="translate(0,18.417901)"><path
         id="path420"
         style="color:#000000;fill:#d5f6e5;fill-opacity:1;stroke-linecap:round;stroke-linejoin:round;-inkscape-stroke:none"
         d="m 274.32796,161.80056 c -2.52145,0 -4.60127,2.07826 -4.60127,4.59972 v 62.68764 c 0,2.52146 2.07982,4.60179 4.60127,4.60179 h 62.68764 c 2.52146,0 4.60179,-2.08033 4.60179,-4.60179 v -62.68764 c 0,-2.52146 -2.08033,-4.59972 -4.60179,-4.59972 z m 63.07573,75.27189 v 5.1e-4 c -0.42112,0 -0.83162,0.049 -1.24488,0.12971 a 1.7450592,1.4444554 0 0 0 -0.003,0 c -0.41064,0.0802 -0.82105,0.19206 -1.24282,0.33228 a 1.7450592,1.4444554 0 0 0 -1.09503,1.33945 v 0.73743 a 1.7450592,1.4444554 0 0 0 2.24173,1.25677 c -0.16148,0.13801 -0.18167,0.1604 -0.41445,0.35502 -0.57875,0.48389 -1.03751,0.87067 -1.38028,1.16427 a 1.7450592,1.4444554 0 0 0 -0.48989,1.00355 v 0.61495 a 1.7450592,1.4444554 0 0 0 1.74357,1.44487 h 4.13669 a 1.7450592,1.4444554 0 0 0 1.74512,-1.44487 v -0.61495 a 1.7450592,1.4444554 0 0 0 -1.21698,-1.00717 c 0.0145,-0.0136 0.0456,-0.0395 0.0599,-0.0532 a 1.7450592,1.4444554 0 0 0 0.0326,-0.032 c 0.32693,-0.33306 0.59662,-0.65059 0.7984,-1.05058 v -0.002 c 0.19094,-0.37543 0.2899,-0.78656 0.2899,-1.19063 0,-0.80949 -0.45558,-1.6923 -1.22369,-2.22673 -0.77004,-0.53578 -1.77174,-0.75706 -2.73731,-0.75706 z m -63.39147,5.1e-4 c -0.98317,0 -1.98864,0.20045 -2.78226,0.73536 a 1.7450592,1.4444554 0 0 0 -0.004,0.004 c -0.78725,0.53444 -1.2454,1.42968 -1.2454,2.2443 0,0.62175 0.29397,1.29274 0.82424,1.8092 a 1.7450592,1.4444554 0 0 0 -0.7984,1.15135 v 0.75189 a 1.7450592,1.4444554 0 0 0 1.14411,1.35547 c 0.44622,0.13559 0.88974,0.24219 1.33326,0.31626 a 1.7450592,1.4444554 0 0 0 0.004,0 c 0.44592,0.0739 0.88701,0.11369 1.32705,0.11369 1.04841,0 2.07092,-0.16068 2.92385,-0.70538 h 0.002 c 0.85333,-0.54429 1.3162,-1.48485 1.3162,-2.32958 0,-0.72055 -0.32261,-1.51475 -0.9772,-2.06137 -0.0121,-0.0101 -0.0307,-0.008 -0.0429,-0.0176 a 1.7450592,1.4444554 0 0 0 0.62683,-0.93638 v -0.71261 a 1.7450592,1.4444554 0 0 0 -1.19372,-1.36995 c -0.40709,-0.11232 -0.81624,-0.19878 -1.22577,-0.25786 -0.41037,-0.0592 -0.82135,-0.0904 -1.23196,-0.0904 z m 34.30746,0 c -1.30573,0 -2.6284,0.4368 -3.49953,1.24179 a 1.7450592,1.4444554 0 0 0 0,0.002 c -0.87176,0.80603 -1.26452,1.89142 -1.26452,2.9993 0,1.10788 0.39276,2.19377 1.26452,2.99981 a 1.7450592,1.4444554 0 0 0 0.003,0.004 c 0.87213,0.8021 2.19306,1.23455 3.49694,1.23455 1.30221,0 2.62196,-0.43489 3.49074,-1.23817 a 1.7450592,1.4444554 0 0 0 0.002,-0.002 c 0.86829,-0.80665 1.26194,-1.89155 1.26194,-2.99775 0,-1.10704 -0.39156,-2.19191 -1.26194,-2.99775 l -0.002,-0.002 c -0.86778,-0.80496 -2.18769,-1.24386 -3.49074,-1.24386 z m -28.86749,0.0977 a 1.7450592,1.4444554 0 0 0 -1.74563,1.44436 v 0.6134 a 1.7450592,1.4444554 0 0 0 1.74563,1.44435 h 0.56638 v 3.33365 a 1.7450592,1.4444554 0 0 0 1.74563,1.44487 h 0.88676 a 1.7450592,1.4444554 0 0 0 1.74305,-1.44487 v -3.33365 h 0.56896 a 1.7450592,1.4444554 0 0 0 1.74304,-1.44435 v -0.6134 a 1.7450592,1.4444554 0 0 0 -1.74304,-1.44436 z m 9.03149,0 a 1.7450592,1.4444554 0 0 0 -1.74563,1.44436 v 5.3914 a 1.7450592,1.4444554 0 0 0 1.74563,1.44487 h 4.19665 a 1.7450592,1.4444554 0 0 0 1.74304,-1.44487 v -0.61495 a 1.7450592,1.4444554 0 0 0 -1.28571,-1.06402 1.7450592,1.4444554 0 0 0 1.07332,-0.88883 v -0.61443 a 1.7450592,1.4444554 0 0 0 -0.8971,-0.74104 1.7450592,1.4444554 0 0 0 1.03249,-0.85473 v -0.6134 a 1.7450592,1.4444554 0 0 0 -1.74563,-1.44436 z m 8.31422,0 a 1.7450592,1.4444554 0 0 0 -1.74511,1.44436 v 5.3914 a 1.7450592,1.4444554 0 0 0 1.74511,1.44487 h 0.88005 a 1.7450592,1.4444554 0 0 0 1.44694,-1.19786 l 0.23823,0.39791 a 1.7450592,1.4444554 0 0 0 1.56063,0.79995 h 0.94671 a 1.7450592,1.4444554 0 0 0 1.56063,-2.09341 l -0.88832,-1.46244 -0.007,-0.0109 c -0.0795,-0.13319 -0.1926,-0.23734 -0.27906,-0.3607 0.27164,-0.43576 0.49145,-0.89996 0.49145,-1.35548 0,-0.80083 -0.3578,-1.69958 -1.16582,-2.26756 -0.81088,-0.56997 -1.80703,-0.73019 -2.79467,-0.73019 z m 18.58027,0 a 1.7450592,1.4444554 0 0 0 -1.74563,1.44436 v 5.3914 a 1.7450592,1.4444554 0 0 0 1.74563,1.44487 h 0.88005 a 1.7450592,1.4444554 0 0 0 1.74511,-1.44487 v -5.3914 a 1.7450592,1.4444554 0 0 0 -1.74511,-1.44436 z m 5.30458,0 a 1.7450592,1.4444554 0 0 0 -1.74563,1.44436 v 5.3914 a 1.7450592,1.4444554 0 0 0 1.74563,1.44487 h 1.80971 c 1.50009,0 2.8819,-0.24689 3.93258,-1.01854 1.05392,-0.77401 1.47743,-1.94378 1.47743,-3.12746 0,-1.17722 -0.42075,-2.34293 -1.46865,-3.11453 l -0.002,-0.002 c -1.05115,-0.77467 -2.43557,-1.01803 -3.93929,-1.01803 z" /></g></g></svg>
