<?xml version="1.0" encoding="UTF-8" standalone="no"?>
<!-- Created with Inkscape (http://www.inkscape.org/) -->

<svg
   width="271.71289"
   height="316.55078"
   viewBox="0 0 71.8907 83.754061"
   version="1.1"
   id="svg8"
   inkscape:version="1.3 (0e150ed6c4, 2023-07-21)"
   sodipodi:docname="drawing.svg"
   xml:space="preserve"
   xmlns:inkscape="http://www.inkscape.org/namespaces/inkscape"
   xmlns:sodipodi="http://sodipodi.sourceforge.net/DTD/sodipodi-0.dtd"
   xmlns="http://www.w3.org/2000/svg"
   xmlns:svg="http://www.w3.org/2000/svg"
   xmlns:rdf="http://www.w3.org/1999/02/22-rdf-syntax-ns#"
   xmlns:cc="http://creativecommons.org/ns#"
   xmlns:dc="http://purl.org/dc/elements/1.1/"><defs
     id="defs2" /><sodipodi:namedview
     id="base"
     pagecolor="#ffffff"
     bordercolor="#666666"
     borderopacity="1.0"
     inkscape:pageopacity="0.0"
     inkscape:pageshadow="2"
     inkscape:zoom="0.48311558"
     inkscape:cx="2757.1042"
     inkscape:cy="1783.2172"
     inkscape:document-units="mm"
     inkscape:current-layer="g13"
     showgrid="false"
     units="px"
     inkscape:window-width="1916"
     inkscape:window-height="1037"
     inkscape:window-x="0"
     inkscape:window-y="0"
     inkscape:window-maximized="1"
     inkscape:showpageshadow="2"
     inkscape:pagecheckerboard="0"
     inkscape:deskcolor="#d1d1d1" /><metadata
     id="metadata5"><rdf:RDF><cc:Work
         rdf:about=""><dc:format>image/svg+xml</dc:format><dc:type
           rdf:resource="http://purl.org/dc/dcmitype/StillImage" /></cc:Work></rdf:RDF></metadata><g
     inkscape:groupmode="layer"
     id="layer2"
     inkscape:label="hud"
     style="display:inline"
     transform="translate(-645.08205,-388.50754)"><g
       id="g13"
       style="display:inline"
       inkscape:label="upgrades"
       transform="translate(0,18.417901)"><path
         id="rect318"
         style="color:#000000;fill:#d5f6e5;fill-opacity:1;stroke-linecap:round;stroke-linejoin:round;-inkscape-stroke:none"
         d="m 649.68334,370.08965 c -2.52146,0 -4.60127,2.07826 -4.60127,4.59972 v 62.68765 c 0,2.52145 2.07981,4.60127 4.60127,4.60127 h 62.68765 c 2.52146,0 4.60178,-2.07982 4.60178,-4.60127 v -62.68765 c 0,-2.52146 -2.08032,-4.59972 -4.60178,-4.59972 z m 0,3.17397 h 62.68765 c 0.81743,0 1.42575,0.60832 1.42575,1.42575 v 62.68765 c 0,0.81743 -0.60832,1.42782 -1.42575,1.42782 h -62.68765 c -0.81743,0 -1.42575,-0.61039 -1.42575,-1.42782 v -62.68765 c 0,-0.81743 0.60832,-1.42575 1.42575,-1.42575 z m 32.14894,12.58786 a 1.5876587,1.5876587 0 0 0 -1.12344,0.46664 l -14.75776,14.79341 a 1.5876587,1.5876587 0 0 0 1.12293,2.70681 h 6.0141 v 18.79317 a 1.5876587,1.5876587 0 0 0 1.5875,1.5875 h 14.31438 a 1.5876587,1.5876587 0 0 0 1.58595,-1.5875 v -18.79317 h 6.01565 a 1.5876587,1.5876587 0 0 0 1.12344,-2.70681 l -14.75775,-14.79341 a 1.5876587,1.5876587 0 0 0 -1.125,-0.46664 z m -31.04926,59.60876 a 1.7450592,1.4444554 0 0 0 -1.74512,1.44436 v 3.36569 c 0,0.94036 0.30365,1.89851 1.11828,2.59622 a 1.7450592,1.4444554 0 0 0 0.005,0.004 c 0.81741,0.69527 1.98782,0.97358 3.11712,0.97358 1.12551,0 2.29624,-0.27877 3.11041,-0.97358 l 0.002,-0.002 c 0.81744,-0.6965 1.12499,-1.65657 1.12499,-2.59777 v -3.36569 a 1.7450592,1.4444554 0 0 0 -1.74511,-1.44436 h -0.88677 a 1.7450592,1.4444554 0 0 0 -1.60765,1.33067 1.7450592,1.4444554 0 0 0 -1.60611,-1.33067 z m 9.31054,0 a 1.7450592,1.4444554 0 0 0 -1.74511,1.44436 v 5.3914 a 1.7450592,1.4444554 0 0 0 1.74511,1.44281 h 0.88005 a 1.7450592,1.4444554 0 0 0 1.74563,-1.44281 v -0.79581 c 0.77738,-0.0709 1.54399,-0.23966 2.16834,-0.69505 0.79767,-0.5796 1.15497,-1.47804 1.15497,-2.2903 0,-0.80956 -0.36207,-1.70467 -1.15497,-2.28152 -0.79421,-0.58196 -1.815,-0.77308 -2.80603,-0.77308 z m 8.05687,0 a 1.7450592,1.4444554 0 0 0 -1.74511,1.44436 v 5.3914 a 1.7450592,1.4444554 0 0 0 1.74511,1.44281 h 1.80971 c 1.5001,0 2.88242,-0.24483 3.93309,-1.01648 1.05392,-0.77401 1.47692,-1.94378 1.47692,-3.12745 0,-1.17722 -0.42075,-2.34294 -1.46865,-3.11454 l -0.002,-0.002 c -1.05114,-0.77468 -2.43557,-1.01803 -3.93929,-1.01803 z m 11.07323,0 a 1.7450592,1.4444554 0 0 0 -1.63194,0.92915 l -2.48564,5.3914 a 1.7450592,1.4444554 0 0 0 1.62936,1.95802 h 0.92966 a 1.7450592,1.4444554 0 0 0 1.64434,-0.95963 l 0.18242,-0.42272 h 0.47025 l 0.18242,0.42272 a 1.7450592,1.4444554 0 0 0 1.64435,0.95963 h 0.91467 a 1.7450592,1.4444554 0 0 0 1.63142,-1.95802 l -2.4815,-5.3914 a 1.7450592,1.4444554 0 0 0 -1.63194,-0.92915 z m 5.50405,0 a 1.7450592,1.4444554 0 0 0 -1.74304,1.44436 v 0.6134 a 1.7450592,1.4444554 0 0 0 1.74304,1.44436 h 0.56896 v 3.33364 a 1.7450592,1.4444554 0 0 0 1.74305,1.44281 h 0.88677 a 1.7450592,1.4444554 0 0 0 1.74511,-1.44281 v -3.33364 h 0.56689 a 1.7450592,1.4444554 0 0 0 1.74511,-1.44436 v -0.6134 a 1.7450592,1.4444554 0 0 0 -1.74511,-1.44436 z m 9.03149,0 a 1.7450592,1.4444554 0 0 0 -1.74563,1.44436 v 5.3914 a 1.7450592,1.4444554 0 0 0 1.74563,1.44281 h 4.19665 a 1.7450592,1.4444554 0 0 0 1.74563,-1.44281 v -0.61495 a 1.7450592,1.4444554 0 0 0 -1.2883,-1.06608 1.7450592,1.4444554 0 0 0 1.07332,-0.88677 v -0.61443 a 1.7450592,1.4444554 0 0 0 -0.8971,-0.74104 1.7450592,1.4444554 0 0 0 1.0325,-0.85473 v -0.6134 a 1.7450592,1.4444554 0 0 0 -1.74512,-1.44436 z m 15.4864,0 a 1.7450592,1.4444554 0 0 0 -0.3452,0.0284 l -1.5565,0.25941 a 1.7450592,1.4444554 0 0 0 -1.39991,1.41594 v 0.66456 a 1.7450592,1.4444554 0 0 0 1.56528,1.30793 v 1.35392 a 1.7450592,1.4444554 0 0 0 -1.43867,1.19062 v 0.61495 a 1.7450592,1.4444554 0 0 0 1.74563,1.44281 h 3.75016 a 1.7450592,1.4444554 0 0 0 1.74563,-1.44281 v -0.61495 a 1.7450592,1.4444554 0 0 0 -1.44074,-1.19217 v -3.58428 a 1.7450592,1.4444554 0 0 0 -1.74305,-1.44436 z m -35.96628,1.51051 0.0109,0.007 c -0.002,-0.002 -0.007,-0.002 -0.009,-0.004 -10e-4,-9.1e-4 -8e-4,-0.003 -0.002,-0.004 z m -2.50321,2.06085 c 3.7e-4,-1.3e-4 0.074,0.0116 0.0708,0.009 a 1.7450592,1.4444554 0 0 0 0.009,0.007 c -0.0325,-0.0259 0.0966,0.0561 0.0966,0.54725 0,0.49747 -0.1321,0.58446 -0.10129,0.55966 a 1.7450592,1.4444554 0 0 0 -0.004,0.004 c 0.003,-0.003 -0.0705,0.009 -0.0708,0.009 z"
         inkscape:export-filename="up_update_1_normal.svg"
         inkscape:export-xdpi="200"
         inkscape:export-ydpi="200" /></g></g></svg>
