<?xml version="1.0" encoding="UTF-8" standalone="no"?>
<!-- Created with Inkscape (http://www.inkscape.org/) -->

<svg
   width="271.71289"
   height="316.55273"
   viewBox="0 0 71.8907 83.754578"
   version="1.1"
   id="svg8"
   inkscape:version="1.3 (0e150ed6c4, 2023-07-21)"
   sodipodi:docname="drawing.svg"
   xml:space="preserve"
   xmlns:inkscape="http://www.inkscape.org/namespaces/inkscape"
   xmlns:sodipodi="http://sodipodi.sourceforge.net/DTD/sodipodi-0.dtd"
   xmlns="http://www.w3.org/2000/svg"
   xmlns:svg="http://www.w3.org/2000/svg"
   xmlns:rdf="http://www.w3.org/1999/02/22-rdf-syntax-ns#"
   xmlns:cc="http://creativecommons.org/ns#"
   xmlns:dc="http://purl.org/dc/elements/1.1/"><defs
     id="defs2" /><sodipodi:namedview
     id="base"
     pagecolor="#ffffff"
     bordercolor="#666666"
     borderopacity="1.0"
     inkscape:pageopacity="0.0"
     inkscape:pageshadow="2"
     inkscape:zoom="0.48311558"
     inkscape:cx="2757.1042"
     inkscape:cy="1783.2172"
     inkscape:document-units="mm"
     inkscape:current-layer="g13"
     showgrid="false"
     units="px"
     inkscape:window-width="1916"
     inkscape:window-height="1037"
     inkscape:window-x="0"
     inkscape:window-y="0"
     inkscape:window-maximized="1"
     inkscape:showpageshadow="2"
     inkscape:pagecheckerboard="0"
     inkscape:deskcolor="#d1d1d1" /><metadata
     id="metadata5"><rdf:RDF><cc:Work
         rdf:about=""><dc:format>image/svg+xml</dc:format><dc:type
           rdf:resource="http://purl.org/dc/dcmitype/StillImage" /></cc:Work></rdf:RDF></metadata><g
     inkscape:groupmode="layer"
     id="layer2"
     inkscape:label="hud"
     style="display:inline"
     transform="translate(-645.08205,-388.50754)"><g
       id="g13"
       style="display:inline"
       inkscape:label="upgrades"
       transform="translate(0,18.417901)"><path
         id="path637"
         style="color:#000000;fill:#d5f6e5;fill-opacity:1;stroke-linecap:round;stroke-linejoin:round;-inkscape-stroke:none"
         d="m 649.68334,370.08965 c -2.52146,0 -4.60127,2.07826 -4.60127,4.59972 v 62.68765 c 0,2.52144 2.07981,4.60127 4.60127,4.60127 h 62.68765 c 2.52146,0 4.60178,-2.07983 4.60178,-4.60127 v -62.68765 c 0,-2.52146 -2.08032,-4.59972 -4.60178,-4.59972 z m 1.09968,75.37059 a 1.7450592,1.4444554 0 0 0 -1.74512,1.44436 v 3.36569 c 0,0.94036 0.30365,1.89851 1.11828,2.59622 a 1.7450592,1.4444554 0 0 0 0.005,0.004 c 0.81741,0.69527 1.98782,0.97359 3.11712,0.97359 1.12551,0 2.29624,-0.27878 3.11041,-0.97359 l 0.002,-0.002 c 0.81744,-0.6965 1.125,-1.65658 1.125,-2.59778 v -3.36568 a 1.7450592,1.4444554 0 0 0 -1.74511,-1.44436 h -0.88677 a 1.7450592,1.4444554 0 0 0 -1.60766,1.33067 1.7450592,1.4444554 0 0 0 -1.6061,-1.33067 z m 9.31054,0 a 1.7450592,1.4444554 0 0 0 -1.74511,1.44436 v 5.3914 a 1.7450592,1.4444554 0 0 0 1.74511,1.44281 h 0.88005 a 1.7450592,1.4444554 0 0 0 1.74563,-1.44281 v -0.79581 c 0.77738,-0.0709 1.54399,-0.23966 2.16834,-0.69505 0.79767,-0.5796 1.15497,-1.47804 1.15497,-2.2903 0,-0.80956 -0.36207,-1.70467 -1.15497,-2.28152 -0.79421,-0.58196 -1.815,-0.77308 -2.80603,-0.77308 z m 8.05687,0 a 1.7450592,1.4444554 0 0 0 -1.74511,1.44436 v 5.3914 a 1.7450592,1.4444554 0 0 0 1.74511,1.44281 h 1.80971 c 1.5001,0 2.88242,-0.24483 3.93309,-1.01648 1.05392,-0.77401 1.47692,-1.94379 1.47692,-3.12745 0,-1.17722 -0.42075,-2.34294 -1.46865,-3.11454 l -0.002,-0.002 c -1.05113,-0.77468 -2.43557,-1.01803 -3.93929,-1.01803 z m 11.07323,0 a 1.7450592,1.4444554 0 0 0 -1.63194,0.92915 l -2.48564,5.3914 a 1.7450592,1.4444554 0 0 0 1.62936,1.95802 h 0.92966 a 1.7450592,1.4444554 0 0 0 1.64434,-0.95963 l 0.18242,-0.42272 h 0.47025 l 0.18242,0.42272 a 1.7450592,1.4444554 0 0 0 1.64435,0.95963 h 0.91467 a 1.7450592,1.4444554 0 0 0 1.63142,-1.95802 l -2.4815,-5.3914 a 1.7450592,1.4444554 0 0 0 -1.63194,-0.92915 z m 5.50405,0 a 1.7450592,1.4444554 0 0 0 -1.74304,1.44436 v 0.6134 a 1.7450592,1.4444554 0 0 0 1.74304,1.44436 h 0.56896 v 3.33364 a 1.7450592,1.4444554 0 0 0 1.74305,1.44281 h 0.88677 a 1.7450592,1.4444554 0 0 0 1.74511,-1.44281 v -3.33364 h 0.56689 a 1.7450592,1.4444554 0 0 0 1.74511,-1.44436 v -0.6134 a 1.7450592,1.4444554 0 0 0 -1.74511,-1.44436 z m 9.03149,0 a 1.7450592,1.4444554 0 0 0 -1.74563,1.44436 v 5.3914 a 1.7450592,1.4444554 0 0 0 1.74563,1.44281 h 4.19665 a 1.7450592,1.4444554 0 0 0 1.74563,-1.44281 v -0.61495 a 1.7450592,1.4444554 0 0 0 -1.2883,-1.06608 1.7450592,1.4444554 0 0 0 1.07332,-0.88677 v -0.61443 a 1.7450592,1.4444554 0 0 0 -0.8971,-0.74104 1.7450592,1.4444554 0 0 0 1.0325,-0.85473 v -0.6134 a 1.7450592,1.4444554 0 0 0 -1.74512,-1.44436 z m 15.4864,0 a 1.7450592,1.4444554 0 0 0 -0.3452,0.0284 l -1.5565,0.25941 a 1.7450592,1.4444554 0 0 0 -1.39991,1.41594 v 0.66456 a 1.7450592,1.4444554 0 0 0 1.56528,1.30793 v 1.35392 a 1.7450592,1.4444554 0 0 0 -1.43867,1.19062 v 0.61495 a 1.7450592,1.4444554 0 0 0 1.74563,1.44281 h 3.75016 a 1.7450592,1.4444554 0 0 0 1.74563,-1.44281 v -0.61495 a 1.7450592,1.4444554 0 0 0 -1.44074,-1.19217 v -3.58428 a 1.7450592,1.4444554 0 0 0 -1.74305,-1.44436 z" /></g></g></svg>
