<?xml version="1.0" encoding="UTF-8" standalone="no"?>
<!-- Created with Inkscape (http://www.inkscape.org/) -->

<svg
   width="271.71289"
   height="316.55273"
   viewBox="0 0 71.8907 83.754578"
   version="1.1"
   id="svg8"
   inkscape:version="1.3 (0e150ed6c4, 2023-07-21)"
   sodipodi:docname="drawing.svg"
   xml:space="preserve"
   xmlns:inkscape="http://www.inkscape.org/namespaces/inkscape"
   xmlns:sodipodi="http://sodipodi.sourceforge.net/DTD/sodipodi-0.dtd"
   xmlns="http://www.w3.org/2000/svg"
   xmlns:svg="http://www.w3.org/2000/svg"
   xmlns:rdf="http://www.w3.org/1999/02/22-rdf-syntax-ns#"
   xmlns:cc="http://creativecommons.org/ns#"
   xmlns:dc="http://purl.org/dc/elements/1.1/"><defs
     id="defs2" /><sodipodi:namedview
     id="base"
     pagecolor="#ffffff"
     bordercolor="#666666"
     borderopacity="1.0"
     inkscape:pageopacity="0.0"
     inkscape:pageshadow="2"
     inkscape:zoom="0.48311558"
     inkscape:cx="2757.1042"
     inkscape:cy="1783.2172"
     inkscape:document-units="mm"
     inkscape:current-layer="g13"
     showgrid="false"
     units="px"
     inkscape:window-width="1916"
     inkscape:window-height="1037"
     inkscape:window-x="0"
     inkscape:window-y="0"
     inkscape:window-maximized="1"
     inkscape:showpageshadow="2"
     inkscape:pagecheckerboard="0"
     inkscape:deskcolor="#d1d1d1" /><metadata
     id="metadata5"><rdf:RDF><cc:Work
         rdf:about=""><dc:format>image/svg+xml</dc:format><dc:type
           rdf:resource="http://purl.org/dc/dcmitype/StillImage" /></cc:Work></rdf:RDF></metadata><g
     inkscape:groupmode="layer"
     id="layer2"
     inkscape:label="hud"
     style="display:inline"
     transform="translate(-738.8572,-388.50754)"><g
       id="g13"
       style="display:inline"
       inkscape:label="upgrades"
       transform="translate(0,18.417901)"><path
         id="path653"
         style="color:#000000;fill:#d5f6e5;fill-opacity:1;stroke-linecap:round;stroke-linejoin:round;-inkscape-stroke:none"
         d="m 743.45901,370.08965 c -2.52144,0 -4.60178,2.07826 -4.60178,4.59972 v 62.68765 c 0,2.52144 2.08034,4.60127 4.60178,4.60127 h 62.68765 c 2.52146,0 4.60127,-2.07983 4.60127,-4.60127 v -62.68765 c 0,-2.52146 -2.07981,-4.59972 -4.60127,-4.59972 z m 59.56174,75.27293 c -0.42112,0 -0.83213,0.049 -1.2454,0.1297 -0.41061,0.0802 -0.82312,0.19207 -1.24489,0.33228 a 1.7450592,1.4444554 0 0 0 -1.09502,1.33946 v 0.73742 a 1.7450592,1.4444554 0 0 0 2.24121,1.25677 c -0.16148,0.13802 -0.18166,0.1604 -0.41445,0.35502 -0.57875,0.48389 -1.03751,0.87068 -1.38027,1.16427 a 1.7450592,1.4444554 0 0 0 -0.48938,1.00355 v 0.61495 a 1.7450592,1.4444554 0 0 0 1.74511,1.44281 h 4.13463 a 1.7450592,1.4444554 0 0 0 1.74563,-1.44281 v -0.61495 a 1.7450592,1.4444554 0 0 0 -1.21749,-1.00717 c 0.0145,-0.0136 0.0462,-0.0395 0.0605,-0.0532 a 1.7450592,1.4444554 0 0 0 0.032,-0.032 c 0.32901,-0.33519 0.60087,-0.65575 0.80305,-1.05936 0.18867,-0.3736 0.28732,-0.78178 0.28732,-1.18339 0,-0.80949 -0.45766,-1.69179 -1.22576,-2.22622 -0.77004,-0.53578 -1.77123,-0.75706 -2.73679,-0.75706 z m -58.4631,0.0977 a 1.7450592,1.4444554 0 0 0 -1.74304,1.44436 v 3.36569 c 0,0.94037 0.30414,1.89851 1.11879,2.59622 a 1.7450592,1.4444554 0 0 0 0.004,0.004 c 0.8174,0.69527 1.98783,0.97359 3.11712,0.97359 1.12551,0 2.29417,-0.27878 3.10834,-0.97359 l 0.003,-0.002 c 0.81745,-0.6965 1.12448,-1.65658 1.12448,-2.59778 v -3.36568 a 1.7450592,1.4444554 0 0 0 -1.74512,-1.44436 h -0.8847 a 1.7450592,1.4444554 0 0 0 -1.60765,1.33067 1.7450592,1.4444554 0 0 0 -1.60817,-1.33067 z m 9.31055,0 a 1.7450592,1.4444554 0 0 0 -1.74512,1.44436 v 5.3914 a 1.7450592,1.4444554 0 0 0 1.74512,1.44281 h 0.88263 a 1.7450592,1.4444554 0 0 0 1.74305,-1.44281 v -0.79426 c 0.77633,-0.0706 1.54223,-0.24074 2.16627,-0.69454 4.5e-4,-3.2e-4 -4.6e-4,-0.002 0,-0.002 0.79832,-0.57958 1.1591,-1.47772 1.1591,-2.2903 0,-0.80955 -0.36413,-1.70518 -1.15703,-2.28203 -0.79422,-0.58196 -1.81294,-0.77257 -2.80396,-0.77257 z m 8.05687,0 a 1.7450592,1.4444554 0 0 0 -1.74305,1.44436 v 5.3914 a 1.7450592,1.4444554 0 0 0 1.74305,1.44281 h 1.81177 c 1.5001,0 2.88242,-0.24484 3.9331,-1.01648 1.05391,-0.77401 1.47691,-1.94379 1.47691,-3.12745 0,-1.17721 -0.42282,-2.34294 -1.47071,-3.11454 l -0.002,-0.002 c -1.05115,-0.77467 -2.43352,-1.01803 -3.93723,-1.01803 z m 11.07323,0 a 1.7450592,1.4444554 0 0 0 -1.62936,0.92915 l -2.48822,5.3914 a 1.7450592,1.4444554 0 0 0 1.63142,1.95802 h 0.92966 a 1.7450592,1.4444554 0 0 0 1.64435,-0.95963 l 0.18035,-0.42272 h 0.47232 l 0.18035,0.42272 a 1.7450592,1.4444554 0 0 0 1.64434,0.95963 h 0.91674 a 1.7450592,1.4444554 0 0 0 1.62936,-1.95802 l -2.4815,-5.3914 a 1.7450592,1.4444554 0 0 0 -1.63194,-0.92915 z m 5.50612,0 a 1.7450592,1.4444554 0 0 0 -1.74511,1.44436 v 0.6134 a 1.7450592,1.4444554 0 0 0 1.74511,1.44436 h 0.56689 v 3.33364 a 1.7450592,1.4444554 0 0 0 1.74511,1.44281 h 0.8847 a 1.7450592,1.4444554 0 0 0 1.74512,-1.44281 v -3.33364 h 0.56689 a 1.7450592,1.4444554 0 0 0 1.74511,-1.44436 v -0.6134 a 1.7450592,1.4444554 0 0 0 -1.74511,-1.44436 z m 9.02942,0 a 1.7450592,1.4444554 0 0 0 -1.74511,1.44436 v 5.3914 a 1.7450592,1.4444554 0 0 0 1.74511,1.44281 h 4.19665 a 1.7450592,1.4444554 0 0 0 1.74562,-1.44281 v -0.61495 a 1.7450592,1.4444554 0 0 0 -1.28622,-1.06401 1.7450592,1.4444554 0 0 0 1.07125,-0.88884 v -0.61443 a 1.7450592,1.4444554 0 0 0 -0.89503,-0.74104 1.7450592,1.4444554 0 0 0 1.03042,-0.85473 v -0.6134 a 1.7450592,1.4444554 0 0 0 -1.74304,-1.44436 z" /></g></g></svg>
