<?xml version="1.0" encoding="UTF-8" standalone="no"?>
<!-- Created with Inkscape (http://www.inkscape.org/) -->

<svg
   width="277.4541"
   height="316.55273"
   viewBox="0 0 73.409729 83.754578"
   version="1.1"
   id="svg8"
   inkscape:version="1.3 (0e150ed6c4, 2023-07-21)"
   sodipodi:docname="drawing.svg"
   xml:space="preserve"
   xmlns:inkscape="http://www.inkscape.org/namespaces/inkscape"
   xmlns:sodipodi="http://sodipodi.sourceforge.net/DTD/sodipodi-0.dtd"
   xmlns="http://www.w3.org/2000/svg"
   xmlns:svg="http://www.w3.org/2000/svg"
   xmlns:rdf="http://www.w3.org/1999/02/22-rdf-syntax-ns#"
   xmlns:cc="http://creativecommons.org/ns#"
   xmlns:dc="http://purl.org/dc/elements/1.1/"><defs
     id="defs2" /><sodipodi:namedview
     id="base"
     pagecolor="#ffffff"
     bordercolor="#666666"
     borderopacity="1.0"
     inkscape:pageopacity="0.0"
     inkscape:pageshadow="2"
     inkscape:zoom="0.3416143"
     inkscape:cx="1636.3484"
     inkscape:cy="1318.7387"
     inkscape:document-units="mm"
     inkscape:current-layer="g13"
     showgrid="false"
     units="px"
     inkscape:window-width="1916"
     inkscape:window-height="1037"
     inkscape:window-x="0"
     inkscape:window-y="0"
     inkscape:window-maximized="1"
     inkscape:showpageshadow="2"
     inkscape:pagecheckerboard="0"
     inkscape:deskcolor="#d1d1d1" /><metadata
     id="metadata5"><rdf:RDF><cc:Work
         rdf:about=""><dc:format>image/svg+xml</dc:format><dc:type
           rdf:resource="http://purl.org/dc/dcmitype/StillImage" /></cc:Work></rdf:RDF></metadata><g
     inkscape:groupmode="layer"
     id="layer2"
     inkscape:label="hud"
     style="display:inline"
     transform="translate(-369.67692,-84.724541)"><g
       id="g13"
       style="display:inline"
       inkscape:label="upgrades"
       transform="translate(0,18.417901)"><path
         id="path387"
         style="color:#000000;fill:#d5f6e5;fill-opacity:1;stroke-linecap:round;stroke-linejoin:round;-inkscape-stroke:none"
         d="m 375.1895,66.306643 c -2.52146,0 -4.60178,2.078264 -4.60178,4.59972 v 62.687127 c 0,2.52146 2.08032,4.60179 4.60178,4.60179 h 62.68765 c 2.52146,0 4.5992,-2.08033 4.5992,-4.60179 V 70.906363 c 0,-2.521456 -2.07774,-4.59972 -4.5992,-4.59972 z m 63.8266,75.272407 c -0.3634,0 -0.72927,0.0277 -1.10123,0.0765 a 1.7450592,1.4444554 0 0 0 -0.004,0 c -0.367,0.0486 -0.74119,0.11839 -1.12913,0.20774 a 1.7450592,1.4444554 0 0 0 -1.27744,1.39165 v 0.65009 a 1.7450592,1.4444554 0 0 0 1.16995,1.22783 1.7450592,1.4444554 0 0 0 -0.24029,0.1974 v 0.60048 a 1.7450592,1.4444554 0 0 0 0.56017,0.46406 1.7450592,1.4444554 0 0 0 -1.68517,1.25108 v 0.70332 a 1.7450592,1.4444554 0 0 0 1.16789,1.36478 c 0.38332,0.11078 0.76926,0.196 1.15497,0.25424 10e-4,2.3e-4 0.003,0.002 0.004,0.002 0.38437,0.0597 0.77116,0.0909 1.15703,0.0909 1.06569,0 2.12088,-0.1894 2.9714,-0.74982 0.84704,-0.55815 1.3224,-1.50209 1.3224,-2.36523 0,-0.49658 -0.2861,-0.99062 -0.61185,-1.44126 0.1975,-0.36051 0.4594,-0.71262 0.4594,-1.08365 0,-0.79014 -0.48904,-1.66217 -1.25832,-2.1575 -0.77054,-0.49831 -1.72692,-0.68419 -2.65978,-0.68419 z m -67.59484,0.0977 a 1.7450592,1.4444554 0 0 0 -1.62936,1.96009 l 2.48615,5.3914 a 1.7450592,1.4444554 0 0 0 1.63143,0.92914 h 0.99839 a 1.7450592,1.4444554 0 0 0 1.63142,-0.93121 l 2.4815,-5.39088 a 1.7450592,1.4444554 0 0 0 -1.63142,-1.95854 h -0.91468 a 1.7450592,1.4444554 0 0 0 -1.63349,0.93483 l -0.43356,0.95084 -0.4315,-0.95084 a 1.7450592,1.4444554 0 0 0 -1.63401,-0.93483 z m 9.58959,0 a 1.7450592,1.4444554 0 0 0 -1.74511,1.44487 v 5.3914 a 1.7450592,1.4444554 0 0 0 1.74511,1.44436 h 0.88212 a 1.7450592,1.4444554 0 0 0 1.74356,-1.44436 v -5.3914 a 1.7450592,1.4444554 0 0 0 -1.74356,-1.44487 z m 4.40283,0 a 1.7450592,1.4444554 0 0 0 -1.74511,1.44487 v 0.61289 a 1.7450592,1.4444554 0 0 0 1.74511,1.44487 h 0.56689 v 3.33364 a 1.7450592,1.4444554 0 0 0 1.74512,1.44436 h 0.8847 a 1.7450592,1.4444554 0 0 0 1.74511,-1.44436 v -3.33364 h 0.56689 a 1.7450592,1.4444554 0 0 0 1.74563,-1.44487 v -0.61289 a 1.7450592,1.4444554 0 0 0 -1.74563,-1.44487 z m 10.0149,0 a 1.7450592,1.4444554 0 0 0 -1.62936,0.92966 l -2.48615,5.39088 a 1.7450592,1.4444554 0 0 0 1.62935,1.96009 h 0.92966 a 1.7450592,1.4444554 0 0 0 1.64435,-0.96118 l 0.18035,-0.42323 h 0.47232 l 0.18035,0.42323 a 1.7450592,1.4444554 0 0 0 1.64434,0.96118 h 0.91674 a 1.7450592,1.4444554 0 0 0 1.63143,-1.96009 l -2.48357,-5.39088 a 1.7450592,1.4444554 0 0 0 -1.62936,-0.92966 z m 7.10344,0 a 1.7450592,1.4444554 0 0 0 -1.74511,1.44487 v 5.3914 a 1.7450592,1.4444554 0 0 0 1.74511,1.44436 h 4.05298 a 1.7450592,1.4444554 0 0 0 1.74356,-1.44436 v -0.61494 A 1.7450592,1.4444554 0 0 0 406.585,146.4532 h -1.4273 v -3.33158 a 1.7450592,1.4444554 0 0 0 -1.74563,-1.44487 z m 7.64708,0 a 1.7450592,1.4444554 0 0 0 -1.74563,1.44487 v 5.3914 a 1.7450592,1.4444554 0 0 0 1.74563,1.44436 h 0.88211 a 1.7450592,1.4444554 0 0 0 1.74305,-1.44436 v -5.3914 a 1.7450592,1.4444554 0 0 0 -1.74305,-1.44487 z m 4.40283,0 a 1.7450592,1.4444554 0 0 0 -1.74563,1.44487 v 0.61289 a 1.7450592,1.4444554 0 0 0 1.74563,1.44487 h 0.56689 v 3.33364 a 1.7450592,1.4444554 0 0 0 1.74511,1.44436 h 0.8847 a 1.7450592,1.4444554 0 0 0 1.74512,-1.44436 v -3.33364 h 0.56689 a 1.7450592,1.4444554 0 0 0 1.31361,-1.08779 l 1.87224,2.29598 v 2.12545 a 1.7450592,1.4444554 0 0 0 1.74511,1.44436 h 0.88419 a 1.7450592,1.4444554 0 0 0 1.74563,-1.44436 v -2.12545 l 2.00504,-2.45773 a 1.7450592,1.4444554 0 0 0 -1.44694,-2.25309 h -0.94671 a 1.7450592,1.4444554 0 0 0 -1.44901,0.64182 l -0.34778,0.42995 -0.3545,-0.43563 a 1.7450592,1.4444554 0 0 0 -1.44694,-0.63614 h -0.94671 a 1.7450592,1.4444554 0 0 0 -1.53273,0.9064 1.7450592,1.4444554 0 0 0 -1.0945,-0.9064 z" /></g></g></svg>
