<?xml version="1.0" encoding="UTF-8" standalone="no"?>
<!-- Created with Inkscape (http://www.inkscape.org/) -->

<svg
   width="277.03998"
   height="316.16016"
   viewBox="0 0 73.300158 83.650708"
   version="1.1"
   id="svg8"
   inkscape:version="1.3 (0e150ed6c4, 2023-07-21)"
   sodipodi:docname="drawing.svg"
   xml:space="preserve"
   xmlns:inkscape="http://www.inkscape.org/namespaces/inkscape"
   xmlns:sodipodi="http://sodipodi.sourceforge.net/DTD/sodipodi-0.dtd"
   xmlns="http://www.w3.org/2000/svg"
   xmlns:svg="http://www.w3.org/2000/svg"
   xmlns:rdf="http://www.w3.org/1999/02/22-rdf-syntax-ns#"
   xmlns:cc="http://creativecommons.org/ns#"
   xmlns:dc="http://purl.org/dc/elements/1.1/"><defs
     id="defs2" /><sodipodi:namedview
     id="base"
     pagecolor="#ffffff"
     bordercolor="#666666"
     borderopacity="1.0"
     inkscape:pageopacity="0.0"
     inkscape:pageshadow="2"
     inkscape:zoom="0.3416143"
     inkscape:cx="1636.3484"
     inkscape:cy="1318.7387"
     inkscape:document-units="mm"
     inkscape:current-layer="g13"
     showgrid="false"
     units="px"
     inkscape:window-width="1916"
     inkscape:window-height="1037"
     inkscape:window-x="0"
     inkscape:window-y="0"
     inkscape:window-maximized="1"
     inkscape:showpageshadow="2"
     inkscape:pagecheckerboard="0"
     inkscape:deskcolor="#d1d1d1" /><metadata
     id="metadata5"><rdf:RDF><cc:Work
         rdf:about=""><dc:format>image/svg+xml</dc:format><dc:type
           rdf:resource="http://purl.org/dc/dcmitype/StillImage" /></cc:Work></rdf:RDF></metadata><g
     inkscape:groupmode="layer"
     id="layer2"
     inkscape:label="hud"
     style="display:inline"
     transform="translate(-174.6847,-84.724541)"><g
       id="g13"
       style="display:inline"
       inkscape:label="upgrades"
       transform="translate(0,18.417901)"><path
         id="rect14"
         style="color:#000000;fill:#abedcc;stroke-linecap:round;stroke-linejoin:round;-inkscape-stroke:none"
         d="m 180.19727,66.306643 c -2.52146,0 -4.60179,2.078262 -4.60179,4.59972 v 62.687127 c 0,2.52146 2.08033,4.60179 4.60179,4.60179 h 62.68765 c 2.52145,0 4.5992,-2.08033 4.5992,-4.60179 V 70.906363 c 0,-2.521458 -2.07775,-4.59972 -4.5992,-4.59972 z m 0,3.173967 h 62.68765 c 0.81743,0 1.42575,0.608323 1.42575,1.425753 v 62.687127 c 0,0.81743 -0.60832,1.42782 -1.42575,1.42782 h -62.68765 c -0.81743,0 -1.42575,-0.61039 -1.42575,-1.42782 V 70.906363 c 0,-0.81743 0.60832,-1.425753 1.42575,-1.425753 z m 26.77718,23.099365 c -0.86997,0 -1.57045,0.700478 -1.57045,1.570447 v 4.42712 h -4.42764 c -0.86997,0 -1.57044,0.700476 -1.57044,1.570448 v 6.48436 c 0,0.86997 0.70047,1.57044 1.57044,1.57044 h 4.42764 v 4.42764 c 0,0.86998 0.70048,1.56993 1.57045,1.56993 h 6.48436 c 0.86996,0 1.57044,-0.69995 1.57044,-1.56993 v -4.42764 h 4.42712 c 0.86998,0 1.57045,-0.70047 1.57045,-1.57044 v -6.48436 c 0,-0.869972 -0.70047,-1.570448 -1.57045,-1.570448 h -4.42712 v -4.42712 c 0,-0.869969 -0.70048,-1.570447 -1.57044,-1.570447 z m -30.54543,49.096745 a 1.7450592,1.4444554 0 0 0 -1.62935,1.96009 l 2.48615,5.3914 a 1.7450592,1.4444554 0 0 0 1.63142,0.92914 h 0.99839 a 1.7450592,1.4444554 0 0 0 1.63143,-0.93121 l 2.4815,-5.39088 a 1.7450592,1.4444554 0 0 0 -1.63142,-1.95854 h -0.91468 a 1.7450592,1.4444554 0 0 0 -1.63349,0.93483 l -0.43356,0.95084 -0.4315,-0.95084 a 1.7450592,1.4444554 0 0 0 -1.63401,-0.93483 z m 9.5896,0 a 1.7450592,1.4444554 0 0 0 -1.74511,1.44487 v 5.3914 a 1.7450592,1.4444554 0 0 0 1.74511,1.44436 h 0.88263 a 1.7450592,1.4444554 0 0 0 1.74305,-1.44436 v -5.3914 a 1.7450592,1.4444554 0 0 0 -1.74305,-1.44487 z m 4.40076,0 a 1.7450592,1.4444554 0 0 0 -1.74304,1.44487 v 0.61289 a 1.7450592,1.4444554 0 0 0 1.74304,1.44487 h 0.56896 v 3.33364 a 1.7450592,1.4444554 0 0 0 1.74563,1.44436 h 0.88419 a 1.7450592,1.4444554 0 0 0 1.74563,-1.44436 v -3.33364 h 0.56637 a 1.7450592,1.4444554 0 0 0 1.74563,-1.44487 v -0.61289 a 1.7450592,1.4444554 0 0 0 -1.74563,-1.44487 z m 10.01696,0 a 1.7450592,1.4444554 0 0 0 -1.62935,0.92966 l -2.48616,5.39088 a 1.7450592,1.4444554 0 0 0 1.62936,1.96009 h 0.92966 a 1.7450592,1.4444554 0 0 0 1.64434,-0.96118 l 0.18036,-0.42323 h 0.47232 l 0.18035,0.42323 a 1.7450592,1.4444554 0 0 0 1.64434,0.96118 h 0.91674 a 1.7450592,1.4444554 0 0 0 1.63143,-1.96009 l -2.48357,-5.39088 a 1.7450592,1.4444554 0 0 0 -1.62936,-0.92966 z m 7.10345,0 a 1.7450592,1.4444554 0 0 0 -1.74512,1.44487 v 5.3914 a 1.7450592,1.4444554 0 0 0 1.74512,1.44436 h 4.0535 a 1.7450592,1.4444554 0 0 0 1.74304,-1.44436 v -0.61494 a 1.7450592,1.4444554 0 0 0 -1.74304,-1.44488 h -1.42782 v -3.33158 a 1.7450592,1.4444554 0 0 0 -1.74512,-1.44487 z m 7.64708,0 a 1.7450592,1.4444554 0 0 0 -1.74563,1.44487 v 5.3914 a 1.7450592,1.4444554 0 0 0 1.74563,1.44436 h 0.88211 a 1.7450592,1.4444554 0 0 0 1.74305,-1.44436 v -5.3914 a 1.7450592,1.4444554 0 0 0 -1.74305,-1.44487 z m 4.40283,0 a 1.7450592,1.4444554 0 0 0 -1.74512,1.44487 v 0.61289 a 1.7450592,1.4444554 0 0 0 1.74512,1.44487 h 0.56689 v 3.33364 a 1.7450592,1.4444554 0 0 0 1.74511,1.44436 h 0.8847 a 1.7450592,1.4444554 0 0 0 1.74511,-1.44436 v -3.33364 h 0.56689 a 1.7450592,1.4444554 0 0 0 1.31362,-1.08779 l 1.87224,2.29598 v 2.12545 a 1.7450592,1.4444554 0 0 0 1.74511,1.44436 h 0.8847 a 1.7450592,1.4444554 0 0 0 1.74511,-1.44436 v -2.12545 l 2.00505,-2.45773 a 1.7450592,1.4444554 0 0 0 -1.44694,-2.25309 h -0.94671 a 1.7450592,1.4444554 0 0 0 -1.44901,0.64182 l -0.34778,0.42995 -0.35657,-0.43563 a 1.7450592,1.4444554 0 0 0 -1.44436,-0.63614 h -0.94671 a 1.7450592,1.4444554 0 0 0 -1.53324,0.9064 1.7450592,1.4444554 0 0 0 -1.09451,-0.9064 z m 24.32926,0 a 1.7450592,1.4444554 0 0 0 -0.34571,0.0284 l -1.5565,0.25942 a 1.7450592,1.4444554 0 0 0 -1.3994,1.41645 v 0.66456 a 1.7450592,1.4444554 0 0 0 1.56477,1.30948 v 1.3503 a 1.7450592,1.4444554 0 0 0 -1.43816,1.1927 v 0.61494 a 1.7450592,1.4444554 0 0 0 1.74305,1.44436 h 3.75274 a 1.7450592,1.4444554 0 0 0 1.74511,-1.44436 v -0.61494 a 1.7450592,1.4444554 0 0 0 -1.44022,-1.1927 v -3.58376 a 1.7450592,1.4444554 0 0 0 -1.74563,-1.44487 z" /></g></g></svg>
