<?xml version="1.0" encoding="UTF-8" standalone="no"?>
<!-- Created with Inkscape (http://www.inkscape.org/) -->

<svg
   width="276.78027"
   height="316.16016"
   viewBox="0 0 73.231445 83.650708"
   version="1.1"
   id="svg8"
   inkscape:version="1.3 (0e150ed6c4, 2023-07-21)"
   sodipodi:docname="drawing.svg"
   xml:space="preserve"
   xmlns:inkscape="http://www.inkscape.org/namespaces/inkscape"
   xmlns:sodipodi="http://sodipodi.sourceforge.net/DTD/sodipodi-0.dtd"
   xmlns="http://www.w3.org/2000/svg"
   xmlns:svg="http://www.w3.org/2000/svg"
   xmlns:rdf="http://www.w3.org/1999/02/22-rdf-syntax-ns#"
   xmlns:cc="http://creativecommons.org/ns#"
   xmlns:dc="http://purl.org/dc/elements/1.1/"><defs
     id="defs2" /><sodipodi:namedview
     id="base"
     pagecolor="#ffffff"
     bordercolor="#666666"
     borderopacity="1.0"
     inkscape:pageopacity="0.0"
     inkscape:pageshadow="2"
     inkscape:zoom="0.3416143"
     inkscape:cx="1636.3484"
     inkscape:cy="1318.7387"
     inkscape:document-units="mm"
     inkscape:current-layer="g13"
     showgrid="false"
     units="px"
     inkscape:window-width="1916"
     inkscape:window-height="1037"
     inkscape:window-x="0"
     inkscape:window-y="0"
     inkscape:window-maximized="1"
     inkscape:showpageshadow="2"
     inkscape:pagecheckerboard="0"
     inkscape:deskcolor="#d1d1d1" /><metadata
     id="metadata5"><rdf:RDF><cc:Work
         rdf:about=""><dc:format>image/svg+xml</dc:format><dc:type
           rdf:resource="http://purl.org/dc/dcmitype/StillImage" /></cc:Work></rdf:RDF></metadata><g
     inkscape:groupmode="layer"
     id="layer2"
     inkscape:label="hud"
     style="display:inline"
     transform="translate(-271.25245,-84.724541)"><g
       id="g13"
       style="display:inline"
       inkscape:label="upgrades"
       transform="translate(0,18.417901)"><path
         id="path373"
         style="color:#000000;fill:#d5f6e5;fill-opacity:1;stroke-linecap:round;stroke-linejoin:round;-inkscape-stroke:none"
         d="m 276.76554,66.306643 c -2.52145,0 -4.60127,2.078266 -4.60127,4.59972 v 62.687127 c 0,2.52146 2.07982,4.60179 4.60127,4.60179 h 62.68764 c 2.52146,0 4.60127,-2.08033 4.60127,-4.60179 V 70.906363 c 0,-2.521454 -2.07981,-4.59972 -4.60127,-4.59972 z m 63.72117,75.272407 c -0.42112,0 -0.83215,0.049 -1.2454,0.12971 -0.41061,0.0801 -0.82314,0.19206 -1.24489,0.33228 a 1.7450592,1.4444554 0 0 0 -1.09502,1.33997 v 0.73742 a 1.7450592,1.4444554 0 0 0 2.24121,1.25626 c -0.16147,0.138 -0.18167,0.16091 -0.41445,0.35553 -0.57875,0.4839 -1.03752,0.87018 -1.38028,1.16375 a 1.7450592,1.4444554 0 0 0 -0.48937,1.00408 v 0.61494 a 1.7450592,1.4444554 0 0 0 1.74511,1.44436 h 4.13463 a 1.7450592,1.4444554 0 0 0 1.74563,-1.44436 v -0.61494 a 1.7450592,1.4444554 0 0 0 -1.21749,-1.00769 c 0.0145,-0.0136 0.0462,-0.0395 0.0605,-0.0532 a 1.7450592,1.4444554 0 0 0 0.032,-0.032 c 0.32901,-0.33518 0.60086,-0.65369 0.80305,-1.0573 0.18922,-0.37404 0.28732,-0.78325 0.28732,-1.18546 0,-0.80949 -0.45764,-1.69178 -1.22577,-2.22622 -0.77,-0.53577 -1.77123,-0.75706 -2.73678,-0.75706 z m -67.48787,0.0977 a 1.7450592,1.4444554 0 0 0 -1.63142,1.96009 l 2.48822,5.3914 a 1.7450592,1.4444554 0 0 0 1.62935,0.92914 h 1.00046 a 1.7450592,1.4444554 0 0 0 1.62936,-0.93121 l 2.4815,-5.39088 a 1.7450592,1.4444554 0 0 0 -1.62936,-1.95854 h -0.91674 a 1.7450592,1.4444554 0 0 0 -1.63142,0.93483 l -0.43357,0.95239 -0.43408,-0.95239 a 1.7450592,1.4444554 0 0 0 -1.63143,-0.93483 z m 9.5896,0 a 1.7450592,1.4444554 0 0 0 -1.74512,1.44487 v 5.3914 a 1.7450592,1.4444554 0 0 0 1.74512,1.44436 h 0.88005 a 1.7450592,1.4444554 0 0 0 1.74563,-1.44436 v -5.3914 a 1.7450592,1.4444554 0 0 0 -1.74563,-1.44487 z m 4.40076,0 a 1.7450592,1.4444554 0 0 0 -1.74511,1.44487 v 0.61289 a 1.7450592,1.4444554 0 0 0 1.74511,1.44487 h 0.56689 v 3.33364 a 1.7450592,1.4444554 0 0 0 1.74511,1.44436 h 0.88677 a 1.7450592,1.4444554 0 0 0 1.74305,-1.44436 v -3.33364 h 0.56896 a 1.7450592,1.4444554 0 0 0 1.74304,-1.44487 v -0.61289 a 1.7450592,1.4444554 0 0 0 -1.74304,-1.44487 z m 10.01696,0 a 1.7450592,1.4444554 0 0 0 -1.62936,0.92966 l -2.48822,5.39088 a 1.7450592,1.4444554 0 0 0 1.63143,1.96009 h 0.92759 a 1.7450592,1.4444554 0 0 0 1.64434,-0.96118 l 0.18242,-0.42323 h 0.47026 l 0.18241,0.42323 a 1.7450592,1.4444554 0 0 0 1.64435,0.96118 h 0.91674 a 1.7450592,1.4444554 0 0 0 1.62936,-1.96009 l -2.48151,-5.39088 a 1.7450592,1.4444554 0 0 0 -1.63142,-0.92966 z m 7.10138,0 a 1.7450592,1.4444554 0 0 0 -1.74512,1.44487 v 5.3914 a 1.7450592,1.4444554 0 0 0 1.74512,1.44436 h 4.05298 a 1.7450592,1.4444554 0 0 0 1.74563,-1.44436 v -0.61494 a 1.7450592,1.4444554 0 0 0 -1.74563,-1.44488 h -1.42524 v -3.33158 a 1.7450592,1.4444554 0 0 0 -1.74563,-1.44487 z m 7.64914,0 a 1.7450592,1.4444554 0 0 0 -1.74563,1.44487 v 5.3914 a 1.7450592,1.4444554 0 0 0 1.74563,1.44436 h 0.88005 a 1.7450592,1.4444554 0 0 0 1.74511,-1.44436 v -5.3914 a 1.7450592,1.4444554 0 0 0 -1.74511,-1.44487 z m 4.40077,0 a 1.7450592,1.4444554 0 0 0 -1.74563,1.44487 v 0.61289 a 1.7450592,1.4444554 0 0 0 1.74563,1.44487 h 0.56637 v 3.33364 a 1.7450592,1.4444554 0 0 0 1.74563,1.44436 h 0.88677 a 1.7450592,1.4444554 0 0 0 1.74304,-1.44436 v -3.33364 h 0.56896 a 1.7450592,1.4444554 0 0 0 1.31155,-1.08779 l 1.87172,2.29598 v 2.12545 a 1.7450592,1.4444554 0 0 0 1.74563,1.44436 h 0.88625 a 1.7450592,1.4444554 0 0 0 1.74356,-1.44436 v -2.12545 l 2.00505,-2.45773 a 1.7450592,1.4444554 0 0 0 -1.44487,-2.25309 h -0.94672 a 1.7450592,1.4444554 0 0 0 -1.45107,0.64182 l -0.34778,0.42995 -0.3545,-0.43563 a 1.7450592,1.4444554 0 0 0 -1.44694,-0.63614 h -0.94672 a 1.7450592,1.4444554 0 0 0 -1.53272,0.9064 1.7450592,1.4444554 0 0 0 -1.09244,-0.9064 z" /></g></g></svg>
