<?xml version="1.0" encoding="UTF-8" standalone="no"?>
<!-- Created with Inkscape (http://www.inkscape.org/) -->

<svg
   width="151.03343mm"
   height="156.47107mm"
   viewBox="0 0 151.03343 156.47107"
   version="1.1"
   id="svg1"
   inkscape:version="1.3 (0e150ed6c4, 2023-07-21)"
   sodipodi:docname="cuteplant_body_hit.svg"
   xml:space="preserve"
   xmlns:inkscape="http://www.inkscape.org/namespaces/inkscape"
   xmlns:sodipodi="http://sodipodi.sourceforge.net/DTD/sodipodi-0.dtd"
   xmlns="http://www.w3.org/2000/svg"
   xmlns:svg="http://www.w3.org/2000/svg"
   xmlns:rdf="http://www.w3.org/1999/02/22-rdf-syntax-ns#"
   xmlns:cc="http://creativecommons.org/ns#"
   xmlns:dc="http://purl.org/dc/elements/1.1/"><metadata
     id="metadata17"><rdf:RDF><cc:Work
         rdf:about=""><dc:format>image/svg+xml</dc:format><dc:type
           rdf:resource="http://purl.org/dc/dcmitype/StillImage" /></cc:Work></rdf:RDF></metadata><sodipodi:namedview
     id="namedview1"
     pagecolor="#ffffff"
     bordercolor="#000000"
     borderopacity="0.25"
     inkscape:showpageshadow="2"
     inkscape:pageopacity="0.0"
     inkscape:pagecheckerboard="0"
     inkscape:deskcolor="#d1d1d1"
     inkscape:document-units="mm"
     inkscape:zoom="0.93240906"
     inkscape:cx="549.11521"
     inkscape:cy="385.56039"
     inkscape:window-width="1916"
     inkscape:window-height="1037"
     inkscape:window-x="0"
     inkscape:window-y="0"
     inkscape:window-maximized="1"
     inkscape:current-layer="g15"
     showgrid="false" /><defs
     id="defs1" /><g
     inkscape:label="Calque 1"
     inkscape:groupmode="layer"
     id="layer1"
     transform="translate(-28.558826,-71.449256)"><g
       id="g15"
       transform="translate(6.7929067,-171.11672)"><circle
         style="fill:#dcdc43;fill-opacity:1;stroke:#000000;stroke-width:1.5875;stroke-linecap:round;stroke-linejoin:round;stroke-dasharray:none;stroke-opacity:1"
         id="path1"
         cx="97.282639"
         cy="323.52032"
         r="74.722969" /><path
         id="path11-6"
         style="fill:#1a1a1a;stroke:#000000;stroke-width:0.131489;stroke-dasharray:none;stroke-opacity:1"
         d="m 79.406164,271.77402 c -9.386357,0.58721 -23.06815,14.93492 -17.25166,22.32525 3.896226,4.95048 11.096135,-6.37754 17.25166,-7.71818 4.695155,-1.02258 12.588881,4.32628 14.415181,-0.11836 2.58927,-6.30151 -7.61574,-14.91408 -14.415181,-14.48871 z"
         sodipodi:nodetypes="aaaaa" /><path
         id="path6"
         style="fill:#e7e77e;fill-opacity:1;stroke:#000000;stroke-width:1.587;stroke-linecap:round;stroke-linejoin:round;stroke-dasharray:none;stroke-opacity:1"
         d="m 98.685772,320.10801 c -16.1467,-2.8e-4 -29.236344,15.68018 -29.236458,35.02319 -1.21e-4,19.34321 13.089592,10.05602 29.236458,10.05574 16.146658,-6e-5 29.236058,9.28723 29.235938,-10.05574 -1.1e-4,-19.34277 -13.08944,-35.02313 -29.235938,-35.02319 z"
         sodipodi:nodetypes="cscsc" /><path
         id="ellipse7"
         style="fill:#999900;fill-opacity:1;stroke:none;stroke-width:1.5875;stroke-linecap:round;stroke-linejoin:round;stroke-dasharray:none;stroke-opacity:1"
         d="m 98.685772,327.34788 c -12.794177,-8e-5 -23.16596,12.43894 -23.166028,27.78332 6.8e-5,15.34438 10.371851,4.56396 23.166028,4.56388 12.793978,-2.6e-4 23.165438,10.78026 23.165508,-4.56388 -7e-5,-15.34414 -10.37153,-27.78305 -23.165508,-27.78332 z"
         sodipodi:nodetypes="ccccc" /><path
         id="ellipse6"
         style="fill:#000000;fill-opacity:1;stroke:none;stroke-width:1.5875;stroke-linecap:round;stroke-linejoin:round;stroke-dasharray:none;stroke-opacity:1"
         d="m 98.685772,334.94328 c -9.277216,-2.3e-4 -16.797975,9.03829 -16.797941,20.18792 -2.9e-5,11.14962 7.423783,-0.66433 16.700993,-0.66456 9.277006,-1.1e-4 16.894406,11.81394 16.894376,0.66456 3e-5,-11.14939 -7.52041,-20.1878 -16.797428,-20.18792 z"
         sodipodi:nodetypes="ccccc" /><path
         style="fill:#c5e77e;fill-opacity:1;stroke:none;stroke-width:1.587;stroke-linecap:round;stroke-linejoin:round;stroke-dasharray:none;stroke-opacity:1"
         d="m 54.907689,372.98155 c 0,0 -0.723435,-14.13729 -2.595265,-20.90505 -2.101003,-7.59634 -7.225761,-14.09806 -9.558299,-21.62654 -2.677353,-8.6414 -4.985416,-26.67815 -4.985416,-26.67815 0,0 -7.280972,16.08547 -7.209536,24.64422 0.08005,9.59099 3.740486,19.17304 8.538903,27.47777 3.882147,6.71892 15.809613,17.08775 15.809613,17.08775 z"
         id="path12"
         sodipodi:nodetypes="caacaac" /><circle
         style="fill:#d0dc43;fill-opacity:1;stroke:none;stroke-width:1.587;stroke-linecap:round;stroke-linejoin:round;stroke-dasharray:none;stroke-opacity:1"
         id="path14"
         cx="141.08582"
         cy="325.72733"
         r="7.279778" /><circle
         style="fill:#d0dc43;fill-opacity:1;stroke:none;stroke-width:1.587;stroke-linecap:round;stroke-linejoin:round;stroke-dasharray:none;stroke-opacity:1"
         id="circle14"
         cx="58.732185"
         cy="325.72733"
         r="7.279778" /><path
         style="fill:#8bce06;fill-opacity:1;stroke:#000000;stroke-width:1.587;stroke-linecap:round;stroke-linejoin:round;stroke-dasharray:none;stroke-opacity:1"
         d="m 86.996749,248.33166 c 0,0 0.966805,-2.1471 1.92717,-2.68924 4.70601,-2.65664 10.99387,-2.85663 16.161921,-1.27691 4.80848,1.46982 9.46451,4.94145 11.80328,9.39252 1.13878,2.16728 1.76461,5.2274 0.50591,7.3273 -2.25466,3.76148 -7.67077,4.70473 -12.00277,5.38737 -6.682331,1.05301 -14.158851,0.88285 -20.173271,-2.21379 -3.42423,-1.76303 -7.36176,-4.77977 -7.69795,-8.61651 -0.185,-2.11124 1.6711,-4.10828 3.34679,-5.40582 1.69154,-1.30982 4.00706,-1.63172 6.12892,-1.90492 3.40404,-0.43828 10.28589,0.4657 10.28589,0.4657"
         id="path15"
         sodipodi:nodetypes="caaaaaaaaac" /><path
         id="path16"
         style="fill:#1a1a1a;stroke:#000000;stroke-width:0.131489;stroke-dasharray:none;stroke-opacity:1"
         d="m 116.93517,271.77402 c 9.38636,0.58721 23.06815,14.93492 17.25166,22.32525 -3.89623,4.95048 -11.09614,-6.37754 -17.25166,-7.71818 -4.69516,-1.02258 -12.58888,4.32628 -14.41518,-0.11836 -2.589271,-6.30151 7.61574,-14.91408 14.41518,-14.48871 z"
         sodipodi:nodetypes="aaaaa" /></g></g></svg>
