<?xml version="1.0" encoding="UTF-8" standalone="no"?>
<!-- Created with Inkscape (http://www.inkscape.org/) -->

<svg
   width="168.23969mm"
   height="156.47107mm"
   viewBox="0 0 168.23968 156.47107"
   version="1.1"
   id="svg1"
   inkscape:version="1.3 (0e150ed6c4, 2023-07-21)"
   sodipodi:docname="cuteplant_body_absorption.svg"
   xml:space="preserve"
   xmlns:inkscape="http://www.inkscape.org/namespaces/inkscape"
   xmlns:sodipodi="http://sodipodi.sourceforge.net/DTD/sodipodi-0.dtd"
   xmlns="http://www.w3.org/2000/svg"
   xmlns:svg="http://www.w3.org/2000/svg"
   xmlns:rdf="http://www.w3.org/1999/02/22-rdf-syntax-ns#"
   xmlns:cc="http://creativecommons.org/ns#"
   xmlns:dc="http://purl.org/dc/elements/1.1/"><metadata
     id="metadata17"><rdf:RDF><cc:Work
         rdf:about=""><dc:format>image/svg+xml</dc:format><dc:type
           rdf:resource="http://purl.org/dc/dcmitype/StillImage" /></cc:Work></rdf:RDF></metadata><sodipodi:namedview
     id="namedview1"
     pagecolor="#ffffff"
     bordercolor="#000000"
     borderopacity="0.25"
     inkscape:showpageshadow="2"
     inkscape:pageopacity="0.0"
     inkscape:pagecheckerboard="0"
     inkscape:deskcolor="#d1d1d1"
     inkscape:document-units="mm"
     inkscape:zoom="0.29716919"
     inkscape:cx="107.68276"
     inkscape:cy="1041.4942"
     inkscape:window-width="1916"
     inkscape:window-height="1037"
     inkscape:window-x="0"
     inkscape:window-y="0"
     inkscape:window-maximized="1"
     inkscape:current-layer="g15"
     showgrid="false" /><defs
     id="defs1" /><g
     inkscape:label="Calque 1"
     inkscape:groupmode="layer"
     id="layer1"
     transform="translate(-22.510336,-71.449256)"><g
       id="g15"
       transform="translate(6.7929067,-171.11672)"><circle
         style="fill:#abdc43;fill-opacity:1;stroke:#000000;stroke-width:1.5875;stroke-linecap:round;stroke-linejoin:round;stroke-dasharray:none;stroke-opacity:1"
         id="path1"
         cx="97.282639"
         cy="323.52032"
         r="74.722969" /><g
         id="g4"
         transform="translate(-29.057863,-0.03673317)"><path
           id="path11-6"
           style="fill:#1a1a1a;stroke:#000000;stroke-width:0.131489;stroke-dasharray:none;stroke-opacity:1"
           d="m 93.63846,270.45682 c -9.527705,2.3e-4 -17.251255,9.99581 -17.251144,22.32577 1.46e-4,16.26409 7.592142,9.67007 17.11969,9.6703 9.527754,1.4e-4 17.382954,8.32241 17.383114,-9.6703 1.1e-4,-12.33022 -7.72375,-22.32591 -17.25166,-22.32577 z"
           sodipodi:nodetypes="cscsc" /><path
           style="fill:#ffffff;fill-opacity:1;stroke:#ffffff;stroke-width:0.860702;stroke-linecap:round;stroke-linejoin:bevel;stroke-miterlimit:4;stroke-dasharray:none;stroke-dashoffset:0;stroke-opacity:1"
           id="path859-2"
           sodipodi:type="arc"
           sodipodi:cx="90.05278"
           sodipodi:cy="285.0643"
           sodipodi:rx="4.8599391"
           sodipodi:ry="6.7083015"
           sodipodi:start="0"
           sodipodi:end="6.2319075"
           d="m 94.912719,285.0643 a 4.8599391,6.7083015 0 0 1 -4.797639,6.70775 4.8599391,6.7083015 0 0 1 -4.920642,-6.53577 4.8599391,6.7083015 0 0 1 4.671483,-6.87532 4.8599391,6.7083015 0 0 1 5.04041,6.3595 l -4.853551,0.34384 z"
           sodipodi:arc-type="slice" /><path
           style="fill:#ffffff;fill-opacity:1;stroke:#ffffff;stroke-width:0.452983;stroke-linecap:round;stroke-linejoin:bevel;stroke-miterlimit:4;stroke-dasharray:none;stroke-dashoffset:0;stroke-opacity:1"
           id="path859-4-9"
           sodipodi:type="arc"
           sodipodi:cx="100.5106"
           sodipodi:cy="295.41705"
           sodipodi:rx="2.5577652"
           sodipodi:ry="3.530551"
           sodipodi:start="0"
           sodipodi:end="6.2319075"
           d="m 103.06836,295.41705 a 2.5577652,3.530551 0 0 1 -2.52497,3.53026 2.5577652,3.530551 0 0 1 -2.589717,-3.43975 2.5577652,3.530551 0 0 1 2.458577,-3.61845 2.5577652,3.530551 0 0 1 2.65275,3.34698 l -2.5544,0.18096 z"
           sodipodi:arc-type="slice" /></g><g
         id="g5"
         transform="translate(42.188561,0.40626602)"><path
           id="ellipse4"
           style="fill:#1a1a1a;stroke:#000000;stroke-width:0.131489;stroke-dasharray:none;stroke-opacity:1"
           d="m 93.638333,270.45721 c -9.527548,2.3e-4 -17.116851,9.99622 -17.251144,22.32525 -0.180873,16.60531 7.249445,9.32229 16.776993,9.32252 9.527748,1.4e-4 17.725788,10.31542 17.725808,-9.32252 2e-5,-12.33002 -7.72391,-22.32539 -17.251657,-22.32525 z"
           sodipodi:nodetypes="cscsc" /><path
           style="fill:#ffffff;fill-opacity:1;stroke:#ffffff;stroke-width:0.860702;stroke-linecap:round;stroke-linejoin:bevel;stroke-miterlimit:4;stroke-dasharray:none;stroke-dashoffset:0;stroke-opacity:1"
           id="path4"
           sodipodi:type="arc"
           sodipodi:cx="90.05278"
           sodipodi:cy="285.0643"
           sodipodi:rx="4.8599391"
           sodipodi:ry="6.7083015"
           sodipodi:start="0"
           sodipodi:end="6.2319075"
           d="m 94.912719,285.0643 a 4.8599391,6.7083015 0 0 1 -4.797639,6.70775 4.8599391,6.7083015 0 0 1 -4.920642,-6.53577 4.8599391,6.7083015 0 0 1 4.671483,-6.87532 4.8599391,6.7083015 0 0 1 5.04041,6.3595 l -4.853551,0.34384 z"
           sodipodi:arc-type="slice" /><path
           style="fill:#ffffff;fill-opacity:1;stroke:#ffffff;stroke-width:0.452983;stroke-linecap:round;stroke-linejoin:bevel;stroke-miterlimit:4;stroke-dasharray:none;stroke-dashoffset:0;stroke-opacity:1"
           id="path5"
           sodipodi:type="arc"
           sodipodi:cx="100.5106"
           sodipodi:cy="295.41705"
           sodipodi:rx="2.5577652"
           sodipodi:ry="3.530551"
           sodipodi:start="0"
           sodipodi:end="6.2319075"
           d="m 103.06836,295.41705 a 2.5577652,3.530551 0 0 1 -2.52497,3.53026 2.5577652,3.530551 0 0 1 -2.589717,-3.43975 2.5577652,3.530551 0 0 1 2.458577,-3.61845 2.5577652,3.530551 0 0 1 2.65275,3.34698 l -2.5544,0.18096 z"
           sodipodi:arc-type="slice" /></g><ellipse
         style="fill:#c5e77e;fill-opacity:1;stroke:#000000;stroke-width:1.587;stroke-linecap:round;stroke-linejoin:round;stroke-dasharray:none;stroke-opacity:1"
         id="path6"
         cy="355.13126"
         cx="98.685577"
         ry="35.023438"
         rx="38.244347" /><ellipse
         style="fill:#669900;fill-opacity:1;stroke:none;stroke-width:1.5875;stroke-linecap:round;stroke-linejoin:round;stroke-dasharray:none;stroke-opacity:1"
         id="ellipse7"
         cy="355.13126"
         cx="98.685577"
         rx="30.106424"
         ry="27.783468" /><ellipse
         style="fill:#000000;fill-opacity:1;stroke:none;stroke-width:1.5875;stroke-linecap:round;stroke-linejoin:round;stroke-dasharray:none;stroke-opacity:1"
         id="ellipse6"
         cy="355.13126"
         cx="98.685577"
         rx="22.375807"
         ry="20.187847" /><circle
         style="fill:#d0dc43;fill-opacity:1;stroke:none;stroke-width:1.587;stroke-linecap:round;stroke-linejoin:round;stroke-dasharray:none;stroke-opacity:1"
         id="path14"
         cx="141.08582"
         cy="325.72733"
         r="7.279778" /><circle
         style="fill:#d0dc43;fill-opacity:1;stroke:none;stroke-width:1.587;stroke-linecap:round;stroke-linejoin:round;stroke-dasharray:none;stroke-opacity:1"
         id="circle14"
         cx="58.732185"
         cy="325.72733"
         r="7.279778" /><path
         style="fill:#6cce06;fill-opacity:1;stroke:#000000;stroke-width:1.587;stroke-linecap:round;stroke-linejoin:round;stroke-dasharray:none;stroke-opacity:1"
         d="m 86.996749,248.33166 c 0,0 0.966805,-2.1471 1.92717,-2.68924 4.70601,-2.65664 10.99387,-2.85663 16.161921,-1.27691 4.80848,1.46982 9.46451,4.94145 11.80328,9.39252 1.13878,2.16728 1.76461,5.2274 0.50591,7.3273 -2.25466,3.76148 -7.67077,4.70473 -12.00277,5.38737 -6.682331,1.05301 -14.158851,0.88285 -20.173271,-2.21379 -3.42423,-1.76303 -7.36176,-4.77977 -7.69795,-8.61651 -0.185,-2.11124 1.6711,-4.10828 3.34679,-5.40582 1.69154,-1.30982 4.00706,-1.63172 6.12892,-1.90492 3.40404,-0.43828 10.28589,0.4657 10.28589,0.4657"
         id="path15"
         sodipodi:nodetypes="caaaaaaaaac" /><circle
         style="fill:#e6e77e;fill-opacity:1;stroke:none;stroke-width:1.587;stroke-linecap:round;stroke-linejoin:round"
         id="path7"
         cx="98.792847"
         cy="355.45898"
         r="14.656659" /><circle
         style="fill:#eeefa9;fill-opacity:1;stroke:none;stroke-width:1.587;stroke-linecap:round;stroke-linejoin:round"
         id="circle7"
         cx="98.792847"
         cy="355.45898"
         r="12.732412" /><circle
         style="fill:#f6f7d4;fill-opacity:1;stroke:none;stroke-width:1.587;stroke-linecap:round;stroke-linejoin:round"
         id="circle8"
         cx="98.792847"
         cy="355.45898"
         r="10.687361" /></g><path
       style="fill:#abdc43;fill-opacity:1;stroke:#000000;stroke-width:1.587;stroke-linecap:round;stroke-linejoin:round"
       d="m 49.377934,189.55578 c 0,0 -16.513844,-6.83279 -20.819108,-14.00295 -5.762462,-9.59703 -6.569864,-22.65576 -3.445946,-33.40518 1.913189,-6.5833 7.220959,-12.08279 12.746602,-16.14079 2.78258,-2.04351 9.676536,-3.69227 9.676536,-3.69227"
       id="path2"
       sodipodi:nodetypes="caaac" /><path
       style="fill:#abdc43;fill-opacity:1;stroke:#000000;stroke-width:1.587;stroke-linecap:round;stroke-linejoin:round"
       d="m 163.88242,189.55578 c 0,0 16.51384,-6.83279 20.81911,-14.00295 5.76246,-9.59703 6.56986,-22.65576 3.44594,-33.40518 -1.91319,-6.5833 -7.22096,-12.08279 -12.7466,-16.14079 -2.78258,-2.04351 -9.67654,-3.69227 -9.67654,-3.69227"
       id="path3"
       sodipodi:nodetypes="caaac" /></g></svg>
