<?xml version="1.0" encoding="UTF-8" standalone="no"?>
<!-- Created with Inkscape (http://www.inkscape.org/) -->

<svg
   width="49.601269mm"
   height="74.039017mm"
   viewBox="0 0 49.601267 74.039017"
   version="1.1"
   id="svg1"
   inkscape:version="1.3 (0e150ed6c4, 2023-07-21)"
   sodipodi:docname="cuteplant_leaf_body_pressed.svg"
   xml:space="preserve"
   xmlns:inkscape="http://www.inkscape.org/namespaces/inkscape"
   xmlns:sodipodi="http://sodipodi.sourceforge.net/DTD/sodipodi-0.dtd"
   xmlns="http://www.w3.org/2000/svg"
   xmlns:svg="http://www.w3.org/2000/svg"
   xmlns:rdf="http://www.w3.org/1999/02/22-rdf-syntax-ns#"
   xmlns:cc="http://creativecommons.org/ns#"
   xmlns:dc="http://purl.org/dc/elements/1.1/"><metadata
     id="metadata17"><rdf:RDF><cc:Work
         rdf:about=""><dc:format>image/svg+xml</dc:format><dc:type
           rdf:resource="http://purl.org/dc/dcmitype/StillImage" /></cc:Work></rdf:RDF></metadata><sodipodi:namedview
     id="namedview1"
     pagecolor="#ffffff"
     bordercolor="#000000"
     borderopacity="0.25"
     inkscape:showpageshadow="2"
     inkscape:pageopacity="0.0"
     inkscape:pagecheckerboard="0"
     inkscape:deskcolor="#d1d1d1"
     inkscape:document-units="mm"
     inkscape:zoom="1.0818816"
     inkscape:cx="109.99355"
     inkscape:cy="123.39613"
     inkscape:window-width="956"
     inkscape:window-height="1037"
     inkscape:window-x="960"
     inkscape:window-y="0"
     inkscape:window-maximized="1"
     inkscape:current-layer="layer1"
     showgrid="false" /><defs
     id="defs1" /><g
     inkscape:label="Calque 1"
     inkscape:groupmode="layer"
     id="layer1"
     transform="translate(-241.11056,-68.100207)"><path
       id="path2"
       style="fill:none;fill-opacity:1;stroke:#ffffff;stroke-width:5.82083;stroke-linecap:round;stroke-linejoin:round;stroke-dasharray:none;stroke-opacity:1"
       d="m 268.52812,71.01052 c -0.16944,0.003 -0.37823,0.0658 -0.64699,0.19999 h -5.2e-4 c -0.15357,0.0767 -0.33938,0.0128 -0.50022,0.0398 -2.26149,0.3799 0.25479,5.65313 -0.76637,7.70031 -1.13248,2.27037 -0.19091,5.13232 -0.9741,7.54476 -0.85464,2.63247 -3.30426,4.60816 -3.97701,7.29257 -0.17421,0.69515 -0.21571,1.65847 -0.20103,2.6138 -4.16258,0.5173 -8.16928,1.86343 -11.43186,4.14186 -1.99265,1.39161 -3.54266,0.99633 -4.12694,3.35084 -0.82032,3.30567 -2.63862,9.5041 -1.43859,12.69096 1.32429,3.51686 4.89117,4.90033 7.3642,7.32269 1.04367,1.02228 3.5726,1.64353 3.154,3.0432 -0.35498,1.18695 -2.46364,0.33949 -3.65236,0.68849 -1.66407,0.48856 -3.66812,0.65874 -4.8224,1.95313 -0.81556,0.91454 -0.98236,3.54242 -0.98236,3.54242 0,0 2.32493,-2.04098 3.77548,-2.31769 2.7552,-0.52558 5.72742,0.30877 8.2882,1.45323 1.32036,0.5901 2.06832,2.14123 3.40881,2.68406 2.73154,1.10613 6.93002,-1.3773 8.79459,0.90485 0.714,0.8739 -0.33191,3.36914 -0.33191,3.36914 0,0 2.11316,-0.49537 2.80566,-1.24937 1.27503,-1.38824 2.60023,-3.61156 1.85363,-5.34231 -0.2725,-0.6317 -1.80029,-0.1629 -1.88258,-0.84593 -0.1553,-1.28909 2.00822,-1.65047 3.07217,-2.39469 0.47241,-0.33044 0.90407,-1.04303 1.46657,-0.91674 0.8412,0.18886 1.18356,1.34151 1.39668,2.1769 0.17861,0.70012 -0.1535,2.16218 -0.1535,2.16218 0,0 2.88103,0.49198 3.56903,-0.49236 0.76132,-1.08922 -1.02269,-2.57906 -0.84535,-3.89609 0.0801,-0.59491 0.69668,-1.01178 0.83375,-1.59621 0.0975,-0.41565 -0.2353,-0.90819 -0.0264,-1.28054 0.89804,-1.60066 3.85878,-0.95379 4.75731,-2.77223 2.36162,-4.77942 1.70332,-15.33169 -0.52361,-20.17844 -1.76318,-3.837506 -6.38115,-3.47883 -10.3872,-4.84485 -0.98946,-0.3374 -2.0139,-0.62234 -3.06234,-0.85524 -0.80943,-1.785 -4.90138,-4.24139 -4.48759,-5.8322 0.31484,-1.21036 1.31052,-3.09083 1.7477,-4.26279 0.80377,-2.15469 -0.3377,-4.98071 -0.0625,-7.26312 0.24036,-1.99399 0.78282,-5.3756 -0.008,-7.22282 -0.33604,-0.78519 -0.48801,-1.31989 -0.99632,-1.31155 z"
       sodipodi:nodetypes="ccccssscsssaaaacaaaacaaaaaacaaaassscsssscc" /><path
       id="path70"
       style="fill:#b0ee07;fill-opacity:1;stroke:#000000;stroke-width:1.587;stroke-linecap:round;stroke-linejoin:round;stroke-opacity:1"
       d="m 268.52812,71.01052 c -0.16944,0.003 -0.37823,0.0658 -0.64699,0.19999 h -5.2e-4 c -0.15357,0.0767 -0.33938,0.0128 -0.50022,0.0398 -2.26149,0.3799 0.25479,5.65313 -0.76637,7.70031 -1.13248,2.27037 -0.19091,5.13232 -0.9741,7.54476 -0.85464,2.63247 -3.30426,4.60816 -3.97701,7.29257 -0.17421,0.69515 -0.21571,1.65847 -0.20103,2.6138 -4.16258,0.5173 -8.16928,1.86343 -11.43186,4.14186 -1.99265,1.39161 -3.54266,0.99633 -4.12694,3.35084 -0.82032,3.30567 -2.63862,9.5041 -1.43859,12.69096 1.32429,3.51686 4.89117,4.90033 7.3642,7.32269 1.04367,1.02228 3.5726,1.64353 3.154,3.0432 -0.35498,1.18695 -2.46364,0.33949 -3.65236,0.68849 -1.66407,0.48856 -3.66812,0.65874 -4.8224,1.95313 -0.81556,0.91454 -0.98236,3.54242 -0.98236,3.54242 0,0 2.32493,-2.04098 3.77548,-2.31769 2.7552,-0.52558 5.72742,0.30877 8.2882,1.45323 1.32036,0.5901 2.06832,2.14123 3.40881,2.68406 2.73154,1.10613 6.93002,-1.3773 8.79459,0.90485 0.714,0.8739 -0.33191,3.36914 -0.33191,3.36914 0,0 2.11316,-0.49537 2.80566,-1.24937 1.27503,-1.38824 2.60023,-3.61156 1.85363,-5.34231 -0.2725,-0.6317 -1.80029,-0.1629 -1.88258,-0.84593 -0.1553,-1.28909 2.00822,-1.65047 3.07217,-2.39469 0.47241,-0.33044 0.90407,-1.04303 1.46657,-0.91674 0.8412,0.18886 1.18356,1.34151 1.39668,2.1769 0.17861,0.70012 -0.1535,2.16218 -0.1535,2.16218 0,0 2.88103,0.49198 3.56903,-0.49236 0.76132,-1.08922 -1.02269,-2.57906 -0.84535,-3.89609 0.0801,-0.59491 0.69668,-1.01178 0.83375,-1.59621 0.0975,-0.41565 -0.2353,-0.90819 -0.0264,-1.28054 0.89804,-1.60066 3.85878,-0.95379 4.75731,-2.77223 2.36162,-4.77942 1.70332,-15.33169 -0.52361,-20.17844 -1.76318,-3.837506 -6.38115,-3.47883 -10.3872,-4.84485 -0.98946,-0.3374 -2.0139,-0.62234 -3.06234,-0.85524 -0.80943,-1.785 -4.90138,-4.24139 -4.48759,-5.8322 0.31484,-1.21036 1.31052,-3.09083 1.7477,-4.26279 0.80377,-2.15469 -0.3377,-4.98071 -0.0625,-7.26312 0.24036,-1.99399 0.78282,-5.3756 -0.008,-7.22282 -0.33604,-0.78519 -0.48801,-1.31989 -0.99632,-1.31155 z"
       sodipodi:nodetypes="ccccssscsssaaaacaaaacaaaaaacaaaassscsssscc" /><path
       style="fill:#d4f811;fill-opacity:1;stroke:none;stroke-width:1.587;stroke-linecap:round;stroke-linejoin:round;stroke-opacity:1"
       d="m 273.20187,123.21256 c 2.47134,2.03992 7.10352,-0.32138 9.21792,-2.72931 1.07834,-1.22804 0.71729,-3.20825 0.77255,-4.8416 0.073,-2.15904 0.73643,-4.74625 -0.58627,-6.45424 -0.81737,-1.05546 -2.54378,-1.8743 -3.7709,-1.34871 -1.27358,0.54549 -1.52577,2.42259 -1.6871,3.79864 -0.1429,1.21886 1.10342,2.46888 0.6756,3.6191 -0.62037,1.66789 -3.32263,1.76786 -4.17103,3.33213 -0.73832,1.36131 -1.6451,3.63816 -0.45077,4.62399 z"
       id="path72"
       sodipodi:nodetypes="aaaaaaaaa" /></g></svg>
