<?xml version="1.0" encoding="UTF-8" standalone="no"?>
<!-- Created with Inkscape (http://www.inkscape.org/) -->

<svg
   width="46.805519mm"
   height="80.224892mm"
   viewBox="0 0 46.805517 80.224892"
   version="1.1"
   id="svg1"
   inkscape:version="1.3 (0e150ed6c4, 2023-07-21)"
   sodipodi:docname="cuteplant_leaf_body_disabled.svg"
   xml:space="preserve"
   xmlns:inkscape="http://www.inkscape.org/namespaces/inkscape"
   xmlns:sodipodi="http://sodipodi.sourceforge.net/DTD/sodipodi-0.dtd"
   xmlns="http://www.w3.org/2000/svg"
   xmlns:svg="http://www.w3.org/2000/svg"
   xmlns:rdf="http://www.w3.org/1999/02/22-rdf-syntax-ns#"
   xmlns:cc="http://creativecommons.org/ns#"
   xmlns:dc="http://purl.org/dc/elements/1.1/"><metadata
     id="metadata17"><rdf:RDF><cc:Work
         rdf:about=""><dc:format>image/svg+xml</dc:format><dc:type
           rdf:resource="http://purl.org/dc/dcmitype/StillImage" /></cc:Work></rdf:RDF></metadata><sodipodi:namedview
     id="namedview1"
     pagecolor="#ffffff"
     bordercolor="#000000"
     borderopacity="0.25"
     inkscape:showpageshadow="2"
     inkscape:pageopacity="0.0"
     inkscape:pagecheckerboard="0"
     inkscape:deskcolor="#d1d1d1"
     inkscape:document-units="mm"
     inkscape:zoom="1.8856492"
     inkscape:cx="233.87171"
     inkscape:cy="191.18084"
     inkscape:window-width="1916"
     inkscape:window-height="1037"
     inkscape:window-x="0"
     inkscape:window-y="0"
     inkscape:window-maximized="1"
     inkscape:current-layer="layer1"
     showgrid="false" /><defs
     id="defs1" /><g
     inkscape:label="Calque 1"
     inkscape:groupmode="layer"
     id="layer1"
     transform="translate(-242.93218,-68.10042)"><path
       id="path70"
       style="fill:#88aa2a;fill-opacity:1;stroke:#000000;stroke-width:1.587;stroke-linecap:round;stroke-linejoin:round;stroke-opacity:1"
       d="m 268.52812,71.01052 c -0.16944,0.003 -0.37823,0.0658 -0.64699,0.19999 h -5.2e-4 c -0.15357,0.0767 -0.33938,0.0128 -0.50022,0.0398 -2.26149,0.3799 0.25479,5.65313 -0.76637,7.70031 -1.13248,2.27037 -0.19091,5.13232 -0.9741,7.54476 -0.85464,2.63247 -3.30426,4.60816 -3.97701,7.29257 -0.17421,0.69515 -0.21571,1.65847 -0.20103,2.6138 -4.16258,0.5173 -8.16928,1.86343 -11.43186,4.14186 -1.99265,1.39161 -2.64498,4.17068 -3.22926,6.52519 -0.82032,3.30567 -1.47391,7.02543 -0.27388,10.21229 1.32429,3.51686 5.44043,5.23929 7.66051,8.27133 0.31688,0.43277 0.74155,0.8652 0.7953,1.39888 0.0657,0.65255 -0.2764,1.30643 -0.61181,1.87003 -0.79173,1.33039 -2.42991,2.0265 -3.19106,3.37462 -0.60245,1.06704 -0.98236,3.54242 -0.98236,3.54242 0,0 2.43271,-1.70317 3.77548,-2.31769 1.15017,-0.52638 2.37175,-1.37573 3.61631,-1.1498 1.42297,0.25832 2.13893,1.99198 3.40881,2.68406 2.7749,1.51231 6.78197,0.797 8.96615,3.08096 1.77421,1.85526 2.17506,7.38766 2.17506,7.38766 0,0 -0.0426,-3.54254 0.29869,-5.26789 0.3658,-1.84908 2.10079,-3.47367 1.85363,-5.34231 -0.15972,-1.20751 -2.24321,-1.81878 -2.05414,-3.02204 0.20154,-1.28267 2.00822,-1.65047 3.07217,-2.39469 0.47241,-0.33044 0.91005,-1.06722 1.46657,-0.91674 0.64562,0.17457 0.79204,1.12232 0.93359,1.77597 0.23208,1.0717 -0.18893,3.28419 -0.18893,3.28419 0,0 1.50683,-0.90003 1.96164,-1.61437 0.48642,-0.76398 0.35216,-1.78591 0.67675,-2.63144 0.21513,-0.5604 0.69667,-1.01179 0.83375,-1.59621 0.0975,-0.41566 -0.19943,-0.89026 -0.0264,-1.28054 0.80107,-1.80631 3.57613,-2.0697 4.47466,-3.88814 2.36162,-4.77942 1.31174,-11.12023 -0.91519,-15.96698 -1.76318,-3.83751 -5.12311,-7.4381 -9.12916,-8.80412 -0.98946,-0.3374 -2.0139,-0.62234 -3.06234,-0.85524 -0.80943,-1.785 -4.90138,-4.24139 -4.48759,-5.8322 0.31484,-1.21036 1.31052,-3.09083 1.7477,-4.26279 0.80377,-2.15469 -0.3377,-4.98071 -0.0625,-7.26312 0.24036,-1.99399 0.78282,-5.3756 -0.008,-7.22282 -0.33604,-0.78519 -0.48801,-1.31989 -0.99632,-1.31155 z"
       sodipodi:nodetypes="ccccssscsssaaaacaaaacaaaaaacaaaassscssssc" /><path
       style="fill:#abc230;fill-opacity:1;stroke:none;stroke-width:1.587;stroke-linecap:round;stroke-linejoin:round;stroke-opacity:1"
       d="m 273.20187,123.21256 c 2.47134,2.03992 7.10352,-0.32138 9.21792,-2.72931 1.07834,-1.22804 0.71729,-3.20825 0.77255,-4.8416 0.073,-2.15904 0.73643,-4.74625 -0.58627,-6.45424 -0.81737,-1.05546 -2.54378,-1.8743 -3.7709,-1.34871 -1.27358,0.54549 -1.52577,2.42259 -1.6871,3.79864 -0.1429,1.21886 1.10342,2.46888 0.6756,3.6191 -0.62037,1.66789 -3.32263,1.76786 -4.17103,3.33213 -0.73832,1.36131 -1.6451,3.63816 -0.45077,4.62399 z"
       id="path72"
       sodipodi:nodetypes="aaaaaaaaa" /></g></svg>
