<?xml version="1.0" encoding="UTF-8" standalone="no"?>
<!-- Created with Inkscape (http://www.inkscape.org/) -->

<svg
   width="68.613525mm"
   height="66.718964mm"
   viewBox="0 0 68.613523 66.718964"
   version="1.1"
   id="svg1"
   inkscape:version="1.3 (0e150ed6c4, 2023-07-21)"
   sodipodi:docname="cuteplant_sun_hover.svg"
   xml:space="preserve"
   xmlns:inkscape="http://www.inkscape.org/namespaces/inkscape"
   xmlns:sodipodi="http://sodipodi.sourceforge.net/DTD/sodipodi-0.dtd"
   xmlns="http://www.w3.org/2000/svg"
   xmlns:svg="http://www.w3.org/2000/svg"
   xmlns:rdf="http://www.w3.org/1999/02/22-rdf-syntax-ns#"
   xmlns:cc="http://creativecommons.org/ns#"
   xmlns:dc="http://purl.org/dc/elements/1.1/"><metadata
     id="metadata17"><rdf:RDF><cc:Work
         rdf:about=""><dc:format>image/svg+xml</dc:format><dc:type
           rdf:resource="http://purl.org/dc/dcmitype/StillImage" /></cc:Work></rdf:RDF></metadata><sodipodi:namedview
     id="namedview1"
     pagecolor="#ffffff"
     bordercolor="#000000"
     borderopacity="0.25"
     inkscape:showpageshadow="2"
     inkscape:pageopacity="0.0"
     inkscape:pagecheckerboard="0"
     inkscape:deskcolor="#d1d1d1"
     inkscape:document-units="mm"
     inkscape:zoom="1.9060618"
     inkscape:cx="259.17313"
     inkscape:cy="143.48958"
     inkscape:window-width="1916"
     inkscape:window-height="1037"
     inkscape:window-x="0"
     inkscape:window-y="0"
     inkscape:window-maximized="1"
     inkscape:current-layer="layer1"
     showgrid="false" /><defs
     id="defs1" /><g
     inkscape:label="Calque 1"
     inkscape:groupmode="layer"
     id="layer1"
     transform="translate(-233.46032,-36.867977)"><path
       id="path80"
       style="fill:none;fill-opacity:1;stroke:#ffffff;stroke-width:5.82083;stroke-linecap:round;stroke-linejoin:round;stroke-dasharray:none;stroke-opacity:1"
       d="m 268.84718,39.778424 c -2.60427,-0.01462 -3.71496,3.944467 -4.36975,6.457487 -0.052,0.199506 -0.0968,0.403206 -0.13798,0.608748 -0.10861,-0.258216 -0.22146,-0.51055 -0.339,-0.750342 -1.17995,-2.407195 -3.47199,-5.992799 -6.06629,-5.293733 -2.51408,0.677454 -2.52687,4.787928 -2.48667,7.384045 0.0139,0.89414 0.14205,1.823734 0.38964,2.719214 -0.46219,-0.528275 -0.95853,-1.012204 -1.44953,-1.431954 -2.04008,-1.744057 -5.5698,-4.130611 -7.67395,-2.463932 -2.0391,1.615152 -0.41709,5.394578 0.65164,7.762316 0.24889,0.551418 0.55315,1.096596 0.90331,1.616439 -0.16901,-0.07366 -0.33689,-0.143844 -0.50282,-0.208773 -2.5016,-0.978922 -6.62248,-2.076869 -8.06049,0.186552 -1.39353,2.193448 1.38422,5.231221 3.17397,7.117395 0.41818,0.440709 0.8872,0.857309 1.39113,1.23455 -0.24849,0.0098 -0.49361,0.02301 -0.73071,0.04444 -2.67642,0.241921 -6.85382,1.10087 -7.12256,3.766695 -0.26043,2.583412 3.5882,4.05883 6.03581,4.945952 0.19435,0.07044 0.3934,0.134559 0.5948,0.19482 -0.26814,0.08343 -0.53078,0.17158 -0.78135,0.265617 -2.51513,0.943883 -6.31225,2.880738 -5.85908,5.521626 0.43916,2.559244 4.54293,2.959525 7.1391,3.164665 0.35321,0.02791 0.71406,0.03676 1.07746,0.02997 -1.87453,1.516149 -3.63173,3.565669 -2.84221,5.470984 0.9944,2.39971 5.08544,1.888377 7.6631,1.517737 0.27791,-0.03996 0.55829,-0.09137 0.83819,-0.153996 -0.91512,2.422325 -1.58618,5.59307 0.30748,6.904489 2.13893,1.481268 5.30151,-1.156182 7.26777,-2.858741 0.45931,-0.397714 0.89666,-0.846947 1.29605,-1.332735 -7.7e-4,0.247729 0.003,0.492785 0.0139,0.729671 0.12871,2.676184 0.81151,6.87338 3.47162,7.25434 2.57787,0.36917 4.22062,-3.401442 5.21364,-5.801715 0.079,-0.19088 0.1511,-0.387137 0.22014,-0.585494 0.0723,0.270977 0.14885,0.536751 0.23254,0.790649 0.83903,2.545334 2.61916,6.4096 5.28495,6.07043 2.58338,-0.32867 3.15882,-4.39906 3.47472,-6.976318 0.10884,-0.887968 0.10879,-1.826507 -0.014,-2.747635 0.38562,0.586599 0.81115,1.134029 1.24024,1.616955 1.78194,2.00556 4.95186,4.850048 7.26467,3.485575 1.94988,-1.150367 1.37904,-4.299587 0.71417,-6.73964 1.58037,1.09618 3.33436,1.767639 4.71289,0.884184 2.19074,-1.403983 0.95531,-5.325819 0.12919,-7.788155 -0.089,-0.265426 -0.18951,-0.530932 -0.30128,-0.794267 2.55406,0.465087 5.80269,0.556435 6.75877,-1.535307 1.0799,-2.36268 -2.0877,-4.99347 -4.11913,-6.6182 -0.47451,-0.379511 -0.99596,-0.72852 -1.54668,-1.033529 0.24457,-0.04348 0.48556,-0.09019 0.71727,-0.143661 2.6182,-0.604177 6.63875,-2.024087 6.53965,-4.701521 -0.096,-2.59466 -4.11075,-3.53234 -6.65696,-4.077788 -0.20215,-0.04331 -0.40823,-0.07936 -0.61598,-0.111621 0.2542,-0.11917 0.50259,-0.242197 0.73794,-0.369486 2.36221,-1.277587 5.85804,-3.713426 5.04724,-6.267835 -0.78574,-2.475436 -4.90606,-2.313037 -7.506,-2.162658 -0.3537,0.02046 -0.71222,0.06057 -1.07126,0.116788 1.64915,-1.757223 3.10921,-4.026482 2.06603,-5.806364 -1.3139,-2.241775 -5.29682,-1.178156 -7.79953,-0.45992 -0.26977,0.07742 -0.54009,0.166518 -0.80873,0.266651 0.57464,-2.524272 0.80456,-5.756806 -1.25109,-6.798035 -2.32184,-1.176065 -5.09332,1.867595 -6.80785,3.821989 -0.40046,0.456487 -0.77218,0.960995 -1.10123,1.496549 -0.0332,-0.245501 -0.0699,-0.487262 -0.11368,-0.720369 -0.49422,-2.633563 -1.74596,-6.698722 -4.43333,-6.713802 z" /><g
       id="g60"
       transform="matrix(0.44022109,0,0,0.43888559,166.15252,-81.866816)"
       style="stroke-width:2.27503"><g
         id="g24"
         transform="translate(0.63818348,-2.084615)"
         style="stroke-width:2.27503"><path
           style="fill:#fed800;fill-opacity:1;stroke:#000000;stroke-width:3.61048;stroke-linecap:round;stroke-linejoin:round;stroke-opacity:1"
           d="m 194.32955,324.39586 c -4.68606,-1.91406 -8.40851,-6.36822 -10.48573,-10.98427 -2.4277,-5.3949 -6.11266,-14.00589 -1.48068,-17.68602 4.77975,-3.79753 12.79817,1.64022 17.43238,5.61406 4.55785,3.90836 9.33533,10.23259 8.07212,16.10231 -0.75444,3.50561 -4.99121,5.52717 -8.35023,6.78235 -1.62077,0.60564 -3.58609,0.82583 -5.18786,0.17157 z"
           id="path23"
           sodipodi:nodetypes="aaaaaaa" /><path
           style="fill:none;fill-opacity:1;stroke:#000000;stroke-width:3.61048;stroke-linecap:round;stroke-linejoin:round;stroke-opacity:1"
           d="m 201.62554,320.89181 c 0,0 -2.0122,-5.10937 -3.63281,-7.28625 -1.22267,-1.64235 -4.48006,-4.20228 -4.48006,-4.20228"
           id="path24"
           sodipodi:nodetypes="cac" /></g><g
         id="g26"
         transform="rotate(23.342755,234.70695,350.84977)"
         style="stroke-width:2.27503"><path
           style="fill:#fed800;fill-opacity:1;stroke:#000000;stroke-width:3.61048;stroke-linecap:round;stroke-linejoin:round;stroke-opacity:1"
           d="m 194.32955,324.39586 c -4.68606,-1.91406 -8.40851,-6.36822 -10.48573,-10.98427 -2.4277,-5.3949 -6.11266,-14.00589 -1.48068,-17.68602 4.77975,-3.79753 12.79817,1.64022 17.43238,5.61406 4.55785,3.90836 9.33533,10.23259 8.07212,16.10231 -0.75444,3.50561 -4.99121,5.52717 -8.35023,6.78235 -1.62077,0.60564 -3.58609,0.82583 -5.18786,0.17157 z"
           id="path25"
           sodipodi:nodetypes="aaaaaaa" /><path
           style="fill:none;fill-opacity:1;stroke:#000000;stroke-width:3.61048;stroke-linecap:round;stroke-linejoin:round;stroke-opacity:1"
           d="m 201.62554,320.89181 c 0,0 -2.0122,-5.10937 -3.63281,-7.28625 -1.22267,-1.64235 -4.48006,-4.20228 -4.48006,-4.20228"
           id="path26"
           sodipodi:nodetypes="cac" /></g><g
         id="g28"
         transform="rotate(38.789854,234.17625,358.76004)"
         style="stroke-width:2.27503"><path
           style="fill:#fed800;fill-opacity:1;stroke:#000000;stroke-width:3.61048;stroke-linecap:round;stroke-linejoin:round;stroke-opacity:1"
           d="m 194.32955,324.39586 c -4.68606,-1.91406 -8.40851,-6.36822 -10.48573,-10.98427 -2.4277,-5.3949 -6.11266,-14.00589 -1.48068,-17.68602 4.77975,-3.79753 12.79817,1.64022 17.43238,5.61406 4.55785,3.90836 9.33533,10.23259 8.07212,16.10231 -0.75444,3.50561 -4.99121,5.52717 -8.35023,6.78235 -1.62077,0.60564 -3.58609,0.82583 -5.18786,0.17157 z"
           id="path27"
           sodipodi:nodetypes="aaaaaaa" /><path
           style="fill:none;fill-opacity:1;stroke:#000000;stroke-width:3.61048;stroke-linecap:round;stroke-linejoin:round;stroke-opacity:1"
           d="m 201.62554,320.89181 c 0,0 -2.0122,-5.10937 -3.63281,-7.28625 -1.22267,-1.64235 -4.48006,-4.20228 -4.48006,-4.20228"
           id="path28"
           sodipodi:nodetypes="cac" /></g><g
         id="g30"
         transform="rotate(65.400771,232.66699,350.54842)"
         style="stroke-width:2.27503"><path
           style="fill:#fed800;fill-opacity:1;stroke:#000000;stroke-width:3.61048;stroke-linecap:round;stroke-linejoin:round;stroke-opacity:1"
           d="m 194.32955,324.39586 c -4.68606,-1.91406 -8.40851,-6.36822 -10.48573,-10.98427 -2.4277,-5.3949 -6.11266,-14.00589 -1.48068,-17.68602 4.77975,-3.79753 12.79817,1.64022 17.43238,5.61406 4.55785,3.90836 9.33533,10.23259 8.07212,16.10231 -0.75444,3.50561 -4.99121,5.52717 -8.35023,6.78235 -1.62077,0.60564 -3.58609,0.82583 -5.18786,0.17157 z"
           id="path29"
           sodipodi:nodetypes="aaaaaaa" /><path
           style="fill:none;fill-opacity:1;stroke:#000000;stroke-width:3.61048;stroke-linecap:round;stroke-linejoin:round;stroke-opacity:1"
           d="m 201.62554,320.89181 c 0,0 -2.0122,-5.10937 -3.63281,-7.28625 -1.22267,-1.64235 -4.48006,-4.20228 -4.48006,-4.20228"
           id="path30"
           sodipodi:nodetypes="cac" /></g><g
         id="g32"
         transform="rotate(98.168846,232.21683,340.85368)"
         style="stroke-width:2.27503"><path
           style="fill:#fed800;fill-opacity:1;stroke:#000000;stroke-width:3.61048;stroke-linecap:round;stroke-linejoin:round;stroke-opacity:1"
           d="m 194.32955,324.39586 c -4.68606,-1.91406 -8.40851,-6.36822 -10.48573,-10.98427 -2.4277,-5.3949 -6.11266,-14.00589 -1.48068,-17.68602 4.77975,-3.79753 12.79817,1.64022 17.43238,5.61406 4.55785,3.90836 9.33533,10.23259 8.07212,16.10231 -0.75444,3.50561 -4.99121,5.52717 -8.35023,6.78235 -1.62077,0.60564 -3.58609,0.82583 -5.18786,0.17157 z"
           id="path31"
           sodipodi:nodetypes="aaaaaaa" /><path
           style="fill:none;fill-opacity:1;stroke:#000000;stroke-width:3.61048;stroke-linecap:round;stroke-linejoin:round;stroke-opacity:1"
           d="m 201.62554,320.89181 c 0,0 -2.0122,-5.10937 -3.63281,-7.28625 -1.22267,-1.64235 -4.48006,-4.20228 -4.48006,-4.20228"
           id="path32"
           sodipodi:nodetypes="cac" /></g><g
         id="g34"
         transform="rotate(110.90741,233.64852,345.83643)"
         style="stroke-width:2.27503"><path
           style="fill:#fed800;fill-opacity:1;stroke:#000000;stroke-width:3.61048;stroke-linecap:round;stroke-linejoin:round;stroke-opacity:1"
           d="m 194.32955,324.39586 c -4.68606,-1.91406 -8.40851,-6.36822 -10.48573,-10.98427 -2.4277,-5.3949 -6.11266,-14.00589 -1.48068,-17.68602 4.77975,-3.79753 12.79817,1.64022 17.43238,5.61406 4.55785,3.90836 9.33533,10.23259 8.07212,16.10231 -0.75444,3.50561 -4.99121,5.52717 -8.35023,6.78235 -1.62077,0.60564 -3.58609,0.82583 -5.18786,0.17157 z"
           id="path33"
           sodipodi:nodetypes="aaaaaaa" /><path
           style="fill:none;fill-opacity:1;stroke:#000000;stroke-width:3.61048;stroke-linecap:round;stroke-linejoin:round;stroke-opacity:1"
           d="m 201.62554,320.89181 c 0,0 -2.0122,-5.10937 -3.63281,-7.28625 -1.22267,-1.64235 -4.48006,-4.20228 -4.48006,-4.20228"
           id="path34"
           sodipodi:nodetypes="cac" /></g><g
         id="g36"
         transform="rotate(126.3545,230.93777,348.38437)"
         style="stroke-width:2.27503"><path
           style="fill:#fed800;fill-opacity:1;stroke:#000000;stroke-width:3.61048;stroke-linecap:round;stroke-linejoin:round;stroke-opacity:1"
           d="m 194.32955,324.39586 c -4.68606,-1.91406 -8.40851,-6.36822 -10.48573,-10.98427 -2.4277,-5.3949 -6.11266,-14.00589 -1.48068,-17.68602 4.77975,-3.79753 12.79817,1.64022 17.43238,5.61406 4.55785,3.90836 9.33533,10.23259 8.07212,16.10231 -0.75444,3.50561 -4.99121,5.52717 -8.35023,6.78235 -1.62077,0.60564 -3.58609,0.82583 -5.18786,0.17157 z"
           id="path35"
           sodipodi:nodetypes="aaaaaaa" /><path
           style="fill:none;fill-opacity:1;stroke:#000000;stroke-width:3.61048;stroke-linecap:round;stroke-linejoin:round;stroke-opacity:1"
           d="m 201.62554,320.89181 c 0,0 -2.0122,-5.10937 -3.63281,-7.28625 -1.22267,-1.64235 -4.48006,-4.20228 -4.48006,-4.20228"
           id="path36"
           sodipodi:nodetypes="cac" /></g><g
         id="g38"
         transform="rotate(152.96542,231.64355,346.30223)"
         style="stroke-width:2.27503"><path
           style="fill:#fed800;fill-opacity:1;stroke:#000000;stroke-width:3.61048;stroke-linecap:round;stroke-linejoin:round;stroke-opacity:1"
           d="m 194.32955,324.39586 c -4.68606,-1.91406 -8.40851,-6.36822 -10.48573,-10.98427 -2.4277,-5.3949 -6.11266,-14.00589 -1.48068,-17.68602 4.77975,-3.79753 12.79817,1.64022 17.43238,5.61406 4.55785,3.90836 9.33533,10.23259 8.07212,16.10231 -0.75444,3.50561 -4.99121,5.52717 -8.35023,6.78235 -1.62077,0.60564 -3.58609,0.82583 -5.18786,0.17157 z"
           id="path37"
           sodipodi:nodetypes="aaaaaaa" /><path
           style="fill:none;fill-opacity:1;stroke:#000000;stroke-width:3.61048;stroke-linecap:round;stroke-linejoin:round;stroke-opacity:1"
           d="m 201.62554,320.89181 c 0,0 -2.0122,-5.10937 -3.63281,-7.28625 -1.22267,-1.64235 -4.48006,-4.20228 -4.48006,-4.20228"
           id="path38"
           sodipodi:nodetypes="cac" /></g><g
         id="g40"
         transform="rotate(-174.2665,235.3746,341.33205)"
         style="stroke-width:2.27503"><path
           style="fill:#fed800;fill-opacity:1;stroke:#000000;stroke-width:3.61048;stroke-linecap:round;stroke-linejoin:round;stroke-opacity:1"
           d="m 194.32955,324.39586 c -4.68606,-1.91406 -8.40851,-6.36822 -10.48573,-10.98427 -2.4277,-5.3949 -6.11266,-14.00589 -1.48068,-17.68602 4.77975,-3.79753 12.79817,1.64022 17.43238,5.61406 4.55785,3.90836 9.33533,10.23259 8.07212,16.10231 -0.75444,3.50561 -4.99121,5.52717 -8.35023,6.78235 -1.62077,0.60564 -3.58609,0.82583 -5.18786,0.17157 z"
           id="path39"
           sodipodi:nodetypes="aaaaaaa" /><path
           style="fill:none;fill-opacity:1;stroke:#000000;stroke-width:3.61048;stroke-linecap:round;stroke-linejoin:round;stroke-opacity:1"
           d="m 201.62554,320.89181 c 0,0 -2.0122,-5.10937 -3.63281,-7.28625 -1.22267,-1.64235 -4.48006,-4.20228 -4.48006,-4.20228"
           id="path40"
           sodipodi:nodetypes="cac" /></g><g
         id="g43"
         transform="rotate(-172.14814,230.56147,347.48729)"
         style="stroke-width:2.27503"><path
           style="fill:#fed800;fill-opacity:1;stroke:#000000;stroke-width:3.61048;stroke-linecap:round;stroke-linejoin:round;stroke-opacity:1"
           d="m 194.32955,324.39586 c -4.68606,-1.91406 -8.40851,-6.36822 -10.48573,-10.98427 -2.4277,-5.3949 -6.11266,-14.00589 -1.48068,-17.68602 4.77975,-3.79753 12.79817,1.64022 17.43238,5.61406 4.55785,3.90836 9.33533,10.23259 8.07212,16.10231 -0.75444,3.50561 -4.99121,5.52717 -8.35023,6.78235 -1.62077,0.60564 -3.58609,0.82583 -5.18786,0.17157 z"
           id="path42"
           sodipodi:nodetypes="aaaaaaa" /><path
           style="fill:none;fill-opacity:1;stroke:#000000;stroke-width:3.61048;stroke-linecap:round;stroke-linejoin:round;stroke-opacity:1"
           d="m 201.62554,320.89181 c 0,0 -2.0122,-5.10937 -3.63281,-7.28625 -1.22267,-1.64235 -4.48006,-4.20228 -4.48006,-4.20228"
           id="path43"
           sodipodi:nodetypes="cac" /></g><g
         id="g45"
         transform="rotate(-148.80539,229.97971,347.19064)"
         style="stroke-width:2.27503"><path
           style="fill:#fed800;fill-opacity:1;stroke:#000000;stroke-width:3.61048;stroke-linecap:round;stroke-linejoin:round;stroke-opacity:1"
           d="m 194.32955,324.39586 c -4.68606,-1.91406 -8.40851,-6.36822 -10.48573,-10.98427 -2.4277,-5.3949 -6.11266,-14.00589 -1.48068,-17.68602 4.77975,-3.79753 12.79817,1.64022 17.43238,5.61406 4.55785,3.90836 9.33533,10.23259 8.07212,16.10231 -0.75444,3.50561 -4.99121,5.52717 -8.35023,6.78235 -1.62077,0.60564 -3.58609,0.82583 -5.18786,0.17157 z"
           id="path44"
           sodipodi:nodetypes="aaaaaaa" /><path
           style="fill:none;fill-opacity:1;stroke:#000000;stroke-width:3.61048;stroke-linecap:round;stroke-linejoin:round;stroke-opacity:1"
           d="m 201.62554,320.89181 c 0,0 -2.0122,-5.10937 -3.63281,-7.28625 -1.22267,-1.64235 -4.48006,-4.20228 -4.48006,-4.20228"
           id="path45"
           sodipodi:nodetypes="cac" /></g><g
         id="g47"
         transform="rotate(-133.35829,226.43723,347.3257)"
         style="stroke-width:2.27503"><path
           style="fill:#fed800;fill-opacity:1;stroke:#000000;stroke-width:3.61048;stroke-linecap:round;stroke-linejoin:round;stroke-opacity:1"
           d="m 194.32955,324.39586 c -4.68606,-1.91406 -8.40851,-6.36822 -10.48573,-10.98427 -2.4277,-5.3949 -6.11266,-14.00589 -1.48068,-17.68602 4.77975,-3.79753 12.79817,1.64022 17.43238,5.61406 4.55785,3.90836 9.33533,10.23259 8.07212,16.10231 -0.75444,3.50561 -4.99121,5.52717 -8.35023,6.78235 -1.62077,0.60564 -3.58609,0.82583 -5.18786,0.17157 z"
           id="path46"
           sodipodi:nodetypes="aaaaaaa" /><path
           style="fill:none;fill-opacity:1;stroke:#000000;stroke-width:3.61048;stroke-linecap:round;stroke-linejoin:round;stroke-opacity:1"
           d="m 201.62554,320.89181 c 0,0 -2.0122,-5.10937 -3.63281,-7.28625 -1.22267,-1.64235 -4.48006,-4.20228 -4.48006,-4.20228"
           id="path47"
           sodipodi:nodetypes="cac" /></g><g
         id="g49"
         transform="rotate(-106.74737,228.13194,347.43047)"
         style="stroke-width:2.27503"><path
           style="fill:#fed800;fill-opacity:1;stroke:#000000;stroke-width:3.61048;stroke-linecap:round;stroke-linejoin:round;stroke-opacity:1"
           d="m 194.32955,324.39586 c -4.68606,-1.91406 -8.40851,-6.36822 -10.48573,-10.98427 -2.4277,-5.3949 -6.11266,-14.00589 -1.48068,-17.68602 4.77975,-3.79753 12.79817,1.64022 17.43238,5.61406 4.55785,3.90836 9.33533,10.23259 8.07212,16.10231 -0.75444,3.50561 -4.99121,5.52717 -8.35023,6.78235 -1.62077,0.60564 -3.58609,0.82583 -5.18786,0.17157 z"
           id="path48"
           sodipodi:nodetypes="aaaaaaa" /><path
           style="fill:none;fill-opacity:1;stroke:#000000;stroke-width:3.61048;stroke-linecap:round;stroke-linejoin:round;stroke-opacity:1"
           d="m 201.62554,320.89181 c 0,0 -2.0122,-5.10937 -3.63281,-7.28625 -1.22267,-1.64235 -4.48006,-4.20228 -4.48006,-4.20228"
           id="path49"
           sodipodi:nodetypes="cac" /></g><g
         id="g51"
         transform="rotate(-73.979294,237.87676,348.53431)"
         style="stroke-width:2.27503"><path
           style="fill:#fed800;fill-opacity:1;stroke:#000000;stroke-width:3.61048;stroke-linecap:round;stroke-linejoin:round;stroke-opacity:1"
           d="m 194.32955,324.39586 c -4.68606,-1.91406 -8.40851,-6.36822 -10.48573,-10.98427 -2.4277,-5.3949 -6.11266,-14.00589 -1.48068,-17.68602 4.77975,-3.79753 12.79817,1.64022 17.43238,5.61406 4.55785,3.90836 9.33533,10.23259 8.07212,16.10231 -0.75444,3.50561 -4.99121,5.52717 -8.35023,6.78235 -1.62077,0.60564 -3.58609,0.82583 -5.18786,0.17157 z"
           id="path50"
           sodipodi:nodetypes="aaaaaaa" /><path
           style="fill:none;fill-opacity:1;stroke:#000000;stroke-width:3.61048;stroke-linecap:round;stroke-linejoin:round;stroke-opacity:1"
           d="m 201.62554,320.89181 c 0,0 -2.0122,-5.10937 -3.63281,-7.28625 -1.22267,-1.64235 -4.48006,-4.20228 -4.48006,-4.20228"
           id="path51"
           sodipodi:nodetypes="cac" /></g><g
         id="g53"
         transform="rotate(-61.24073,231.67067,350.88686)"
         style="stroke-width:2.27503"><path
           style="fill:#fed800;fill-opacity:1;stroke:#000000;stroke-width:3.61048;stroke-linecap:round;stroke-linejoin:round;stroke-opacity:1"
           d="m 194.32955,324.39586 c -4.68606,-1.91406 -8.40851,-6.36822 -10.48573,-10.98427 -2.4277,-5.3949 -6.11266,-14.00589 -1.48068,-17.68602 4.77975,-3.79753 12.79817,1.64022 17.43238,5.61406 4.55785,3.90836 9.33533,10.23259 8.07212,16.10231 -0.75444,3.50561 -4.99121,5.52717 -8.35023,6.78235 -1.62077,0.60564 -3.58609,0.82583 -5.18786,0.17157 z"
           id="path52"
           sodipodi:nodetypes="aaaaaaa" /><path
           style="fill:none;fill-opacity:1;stroke:#000000;stroke-width:3.61048;stroke-linecap:round;stroke-linejoin:round;stroke-opacity:1"
           d="m 201.62554,320.89181 c 0,0 -2.0122,-5.10937 -3.63281,-7.28625 -1.22267,-1.64235 -4.48006,-4.20228 -4.48006,-4.20228"
           id="path53"
           sodipodi:nodetypes="cac" /></g><g
         id="g55"
         transform="rotate(-45.79364,226.56657,346.13298)"
         style="stroke-width:2.27503"><path
           style="fill:#fed800;fill-opacity:1;stroke:#000000;stroke-width:3.61048;stroke-linecap:round;stroke-linejoin:round;stroke-opacity:1"
           d="m 194.32955,324.39586 c -4.68606,-1.91406 -8.40851,-6.36822 -10.48573,-10.98427 -2.4277,-5.3949 -6.11266,-14.00589 -1.48068,-17.68602 4.77975,-3.79753 12.79817,1.64022 17.43238,5.61406 4.55785,3.90836 9.33533,10.23259 8.07212,16.10231 -0.75444,3.50561 -4.99121,5.52717 -8.35023,6.78235 -1.62077,0.60564 -3.58609,0.82583 -5.18786,0.17157 z"
           id="path54"
           sodipodi:nodetypes="aaaaaaa" /><path
           style="fill:none;fill-opacity:1;stroke:#000000;stroke-width:3.61048;stroke-linecap:round;stroke-linejoin:round;stroke-opacity:1"
           d="m 201.62554,320.89181 c 0,0 -2.0122,-5.10937 -3.63281,-7.28625 -1.22267,-1.64235 -4.48006,-4.20228 -4.48006,-4.20228"
           id="path55"
           sodipodi:nodetypes="cac" /></g><g
         id="g57"
         transform="rotate(-19.18272,231.63438,350.55814)"
         style="stroke-width:2.27503"><path
           style="fill:#fed800;fill-opacity:1;stroke:#000000;stroke-width:3.61048;stroke-linecap:round;stroke-linejoin:round;stroke-opacity:1"
           d="m 194.32955,324.39586 c -4.68606,-1.91406 -8.40851,-6.36822 -10.48573,-10.98427 -2.4277,-5.3949 -6.11266,-14.00589 -1.48068,-17.68602 4.77975,-3.79753 12.79817,1.64022 17.43238,5.61406 4.55785,3.90836 9.33533,10.23259 8.07212,16.10231 -0.75444,3.50561 -4.99121,5.52717 -8.35023,6.78235 -1.62077,0.60564 -3.58609,0.82583 -5.18786,0.17157 z"
           id="path56"
           sodipodi:nodetypes="aaaaaaa" /><path
           style="fill:none;fill-opacity:1;stroke:#000000;stroke-width:3.61048;stroke-linecap:round;stroke-linejoin:round;stroke-opacity:1"
           d="m 201.62554,320.89181 c 0,0 -2.0122,-5.10937 -3.63281,-7.28625 -1.22267,-1.64235 -4.48006,-4.20228 -4.48006,-4.20228"
           id="path57"
           sodipodi:nodetypes="cac" /></g></g><path
       style="fill:#c87228;fill-opacity:1;stroke:#000000;stroke-width:1.587;stroke-linecap:round;stroke-linejoin:round;stroke-opacity:1"
       d="m 272.85929,87.30104 c -4.98649,1.02425 -10.36092,-0.29928 -15.13165,-2.07173 -2.93327,-1.0898 -5.94257,-2.64857 -7.87086,-5.107 -2.30552,-2.93936 -3.75007,-6.8468 -3.67527,-10.57742 0.0786,-3.91838 1.50483,-8.19387 4.30247,-10.9471 3.96701,-3.90403 10.09286,-5.41829 15.6477,-5.88048 5.69659,-0.47398 12.38824,-0.29511 16.82767,3.2952 3.34464,2.70493 4.69985,7.57638 5.05146,11.85574 0.33963,4.13354 -0.48382,8.74713 -2.945,12.09077 -2.81145,3.81949 -7.5523,6.38601 -12.20652,7.34202 z"
       id="path18"
       sodipodi:nodetypes="aaaaaaaaaa" /><path
       style="fill:#1a1a1a;fill-opacity:1;stroke:none;stroke-width:1.587;stroke-linecap:round;stroke-linejoin:round"
       d="m 259.79789,75.50442 c -0.66415,-0.50306 -0.87778,-1.44581 -1.07049,-2.25487 -0.65593,-2.75375 -1.80149,-6.14715 -0.20642,-8.48848 0.56593,-0.83071 1.89321,-1.39812 2.83511,-1.04231 1.45904,0.55116 1.85256,2.59783 2.21584,4.11063 0.42013,1.74956 0.41249,3.67833 -0.12538,5.39555 -0.31145,0.99436 -0.76489,2.19605 -1.7236,2.61029 -0.59745,0.25815 -1.40657,0.0619 -1.92506,-0.33081 z"
       id="path19"
       sodipodi:nodetypes="aaaaaaaa" /><path
       style="fill:#1a1a1a;fill-opacity:1;stroke:none;stroke-width:1.587;stroke-linecap:round;stroke-linejoin:round"
       d="m 277.02044,76.55073 c 1.36592,-0.41326 1.76313,-2.30837 2.19886,-3.66357 0.75808,-2.35779 1.11819,-4.98109 0.60413,-7.40344 -0.1803,-0.84965 -0.40032,-2.0916 -1.24868,-2.28871 -1.17669,-0.2734 -2.29189,1.08117 -2.96115,2.08405 -0.95143,1.42567 -0.95336,3.31071 -1.11468,5.01553 -0.16145,1.706 -0.78655,3.70435 0.15425,5.13844 0.47791,0.72849 1.53179,1.37048 2.36727,1.1177 z"
       id="path20"
       sodipodi:nodetypes="aaaaaaaa" /><path
       style="fill:#fdfdfd;fill-opacity:1;stroke:none;stroke-width:1.587;stroke-linecap:round;stroke-linejoin:round"
       d="m 261.36079,68.9009 c -0.29104,-0.38603 -0.10828,-0.9682 -0.26922,-1.42369 -0.19375,-0.5484 -0.92254,-0.96498 -0.82495,-1.53821 0.0779,-0.45748 0.56919,-1.0215 1.02778,-0.94226 0.82527,0.14259 1.03173,1.39361 1.16937,2.21729 0.11564,0.69197 0.30235,1.75918 -0.32357,2.07966 -0.25895,0.13259 -0.6045,-0.16079 -0.77941,-0.39279 z"
       id="path21"
       sodipodi:nodetypes="aaaaaaa" /><path
       style="fill:#fdfdfd;fill-opacity:1;stroke:none;stroke-width:1.587;stroke-linecap:round;stroke-linejoin:round"
       d="m 277.65932,69.10561 c -0.13285,-0.44404 0.22615,-0.90716 0.23357,-1.37048 0.009,-0.55782 -0.50759,-1.17476 -0.2282,-1.65813 0.22298,-0.38577 0.85357,-0.73007 1.23972,-0.50642 0.69493,0.40245 0.46258,1.59671 0.31115,2.38358 -0.12722,0.66106 -0.31589,1.68336 -0.9862,1.7638 -0.27732,0.0333 -0.49019,-0.3455 -0.57004,-0.61235 z"
       id="path22"
       sodipodi:nodetypes="aaaaaaa" /></g></svg>
