<?xml version="1.0" encoding="UTF-8" standalone="no"?>
<!-- Created with Inkscape (http://www.inkscape.org/) -->

<svg
   xmlns:dc="http://purl.org/dc/elements/1.1/"
   xmlns:cc="http://creativecommons.org/ns#"
   xmlns:rdf="http://www.w3.org/1999/02/22-rdf-syntax-ns#"
   xmlns:svg="http://www.w3.org/2000/svg"
   xmlns="http://www.w3.org/2000/svg"
   xmlns:sodipodi="http://sodipodi.sourceforge.net/DTD/sodipodi-0.dtd"
   xmlns:inkscape="http://www.inkscape.org/namespaces/inkscape"
   width="121.3622mm"
   height="110.12337mm"
   viewBox="0 0 121.3622 110.12337"
   version="1.1"
   id="svg1"
   inkscape:version="0.92.3 (2405546, 2018-03-11)"
   sodipodi:docname="furuboule_corps_normal.svg">
  <metadata
     id="metadata17">
    <rdf:RDF>
      <cc:Work
         rdf:about="">
        <dc:format>image/svg+xml</dc:format>
        <dc:type
           rdf:resource="http://purl.org/dc/dcmitype/StillImage" />
      </cc:Work>
    </rdf:RDF>
  </metadata>
  <sodipodi:namedview
     id="namedview1"
     pagecolor="#ffffff"
     bordercolor="#000000"
     borderopacity="0.25"
     inkscape:showpageshadow="2"
     inkscape:pageopacity="0.0"
     inkscape:pagecheckerboard="0"
     inkscape:deskcolor="#d1d1d1"
     inkscape:document-units="mm"
     inkscape:zoom="4.1373683"
     inkscape:cx="173.64124"
     inkscape:cy="311.97555"
     inkscape:window-width="1853"
     inkscape:window-height="1025"
     inkscape:window-x="67"
     inkscape:window-y="27"
     inkscape:window-maximized="1"
     inkscape:current-layer="layer1"
     showgrid="false" />
  <defs
     id="defs1" />
  <g
     inkscape:label="Calque 1"
     inkscape:groupmode="layer"
     id="layer1"
     transform="translate(-46.891238,-91.741459)">
    <ellipse
       style="fill:#d40000;stroke:#000000;stroke-width:1.51008;stroke-dasharray:none;stroke-opacity:1"
       id="path7"
       cx="107.66985"
       cy="152.60782"
       rx="58.005054"
       ry="48.501965"
       inkscape:label="path7" />
    <path
       style="fill:#d40000;stroke:#000000;stroke-width:1.50997708;stroke-dasharray:none;stroke-opacity:1;stroke-miterlimit:4;stroke-linecap:round"
       d="m 91.243328,109.14957 c 1.01874,0.19331 2.14387,0.0869 3.11465,-0.30384 1.39616,-0.56194 2.72312,-1.47816 4.04902,-2.19442 0.8095,-0.43729 1.678412,-0.71711 2.491712,-1.15911 1.1041,-0.60003 2.05185,-1.41544 3.11463,-2.08188 2.27336,-1.42553 4.74882,-2.41739 7.05244,-3.769909 0.95281,-0.55942 1.83232,-1.24404 2.80317,-1.77803 1.85903,-1.02253 3.84787,-1.72116 5.80658,-2.50952 1.0733,-0.43199 2.15562,-0.8897 3.21475,-1.36166 0.55897,-0.24909 4.57794,-2.525337 5.08353,-0.934043 0.41497,1.306073 -0.58958,2.981663 -0.93439,4.175023 -0.79789,2.76145 -2.15705,5.499149 -1.86878,8.473839 0.11746,1.21202 0.98308,3.10794 1.98001,3.87119 0.3321,0.25424 0.62959,0.4231 0.9344,0.73147"
       id="path8" />
    <path
       style="fill:#d40000;stroke:#000000;stroke-width:1.51007998;stroke-linecap:round;stroke-dasharray:none;stroke-opacity:1"
       d="m 59.971588,163.85765 c -2.16566,1.60339 -3.82041,3.21729 -4.76921,5.7938 -0.11865,0.32216 -0.33785,0.72035 -0.38522,1.0584 -0.0538,0.38416 0.0306,0.85925 0.0446,1.24814 0.0206,0.57905 -0.01,1.27561 0.37486,1.76731 0.22999,0.29427 0.62971,0.64799 0.96387,0.80409 0.46808,0.21866 2.20121,0.64676 2.02459,1.51522 -0.0929,0.45669 -0.44627,0.89045 -0.67824,1.26981 -0.31639,0.5174 -0.55033,1.09217 -0.87787,1.60223 -0.89809,1.39852 -1.34101,2.0223 -1.42269,3.80237 -5.407326,3.71394 16.915113,16.45334 10.36109,16.73143 -2.953646,-0.21204 -3.677066,-0.75264 -6.256496,-1.40353 -2.64882,-0.62249 -3.395324,-1.533 -5.339674,-3.4718 -0.75377,-0.75161 -1.44202,-1.39856 -1.95425,-2.3503 -2.56118,-4.75879 -2.73521,-10.53548 -3.36973,-15.79325 -0.32673,-2.70758 -0.67931,-5.42168 -0.91386,-8.13363 -0.30769,-3.55332 -9.6e-4,-7.24467 0.34945,-10.78302 0.12274,-1.23923 0.12143,-2.55212 0.37734,-3.77101 0.7436,-3.5417 0.326535,-5.31914 1.974725,-8.51557"
       id="path9"
       inkscape:connector-curvature="0"
       sodipodi:nodetypes="cccccsccccccccccccc" />
    <path
       style="fill:#d40000;stroke:#000000;stroke-width:1.51007998;stroke-linecap:round;stroke-dasharray:none;stroke-opacity:1"
       d="m 157.65666,164.36451 c 1.76449,1.53803 3.12375,3.10188 3.94995,5.64922 0.10331,0.31853 0.2886,0.71003 0.33579,1.04657 0.0536,0.38243 0,0.85992 0,1.24913 0,0.57949 0.0437,1.27497 -0.24742,1.77804 -0.17421,0.30109 -0.48146,0.66668 -0.74228,0.83276 -0.36534,0.23264 -1.7289,0.71257 -1.56408,1.57549 0.0867,0.45378 0.37949,0.87683 0.57438,1.24912 0.26582,0.50778 0.46781,1.07537 0.74228,1.57548 0.75254,1.3712 1.12179,1.98153 1.23712,3.75865 0.28419,4.37917 -1.05873,8.51209 -2.72167,12.23248 -2.2814,3.74952 -5.4963,0.41166 -5.03564,4.86916 -0.0438,0.61388 1.46685,-0.69839 2.88834,-1.31306 0.49692,-0.19053 0.98485,-0.2482 1.48455,-0.41638 2.08489,-0.70172 3.2127,-1.55955 4.70107,-3.5561 0.577,-0.77399 1.10495,-1.4414 1.48454,-2.40822 1.89801,-4.83424 1.87231,-10.61452 2.22684,-15.88986 0.18257,-2.71661 0.38539,-5.44053 0.49484,-8.15873 0.14342,-3.56157 -0.20466,-7.24269 -0.58321,-10.76954 -0.13259,-1.23521 -0.16878,-2.54776 -0.40648,-3.75865 -0.6907,-3.51842 -0.91948,-2.51648 -1.1363,-6.16873"
       id="path9-3"
       inkscape:connector-curvature="0"
       sodipodi:nodetypes="cccsccccsccccccsscccc" />
    <path
       style="fill:#ffffff;stroke:#000000;stroke-width:1.54967;stroke-dasharray:none;stroke-opacity:1"
       d="m 64.907428,169.88626 c 0,0 30.411,49.84515 88.522652,0.0255"
       id="path17" />
    <path
       style="fill:#000000;stroke:#000000;stroke-width:0.13070416;stroke-linecap:round;stroke-miterlimit:4;stroke-dasharray:none;stroke-opacity:1;paint-order:markers stroke fill"
       d="m 70.524528,171.80141 2.671155,5.36625 3.813198,-1.79267 3.801325,4.85319 5.454212,-1.95897 4.19939,4.87551 5.07155,-2.30311 4.942202,3.97613 5.96834,-3.00085 6.31499,3.69374 5.66041,-3.40413 8.31894,1.74169 4.19007,-4.08156 7.7736,-0.0126 1.65492,-4.07332 4.23,-0.0769 0.75811,-3.37559"
       id="path13"
       inkscape:connector-curvature="0"
       sodipodi:nodetypes="ccccccccccccccccc" />
    <ellipse
       style="fill:#ffffff;stroke:#000000;stroke-width:1.51008;stroke-dasharray:none;stroke-opacity:1"
       id="path10"
       cx="108.83357"
       cy="132.48175"
       rx="21.930927"
       ry="15.321185" />
    <ellipse
       style="fill:#1a1a1a;stroke:#000000;stroke-width:0.131489;stroke-dasharray:none;stroke-opacity:1"
       id="path11"
       cx="108.92308"
       cy="131.57516"
       rx="6.2659783"
       ry="5.7114468" />
    <ellipse
       style="fill:#ffaaaa;stroke:none;stroke-width:1.51013;stroke-dasharray:none;stroke-opacity:1"
       id="path18"
       cx="127.39909"
       cy="109.66475"
       rx="5.9876609"
       ry="3.1315203"
       transform="matrix(0.92818097,0.37212912,-0.38317582,0.92367543,0,0)"
       inkscape:transform-center-x="0.70610848"
       inkscape:transform-center-y="-0.69417349" />
    <ellipse
       style="fill:#ffaaaa;stroke:none;stroke-width:1.51013;stroke-dasharray:none;stroke-opacity:1"
       id="path18-6"
       cx="70.412849"
       cy="190.26433"
       rx="5.9878769"
       ry="3.1314044"
       transform="matrix(0.92930583,-0.36931107,0.3803019,0.9248624,0,0)"
       inkscape:transform-center-x="2.4962581"
       inkscape:transform-center-y="-0.034374486" />
    <path
       style="fill:#d40000;stroke:#000000;stroke-width:1.99165;stroke-linecap:round;stroke-dasharray:none;stroke-opacity:1"
       d="m 63.962568,169.30066 c 0,0 43.918342,21.00888 92.716542,-0.56781"
       id="path20" />
    <path
       style="fill:#ffffff;fill-opacity:1;stroke:#ffffff;stroke-width:0.86069983;stroke-linecap:round;stroke-linejoin:bevel;stroke-miterlimit:4;stroke-dasharray:none;stroke-dashoffset:0;stroke-opacity:1"
       id="path859"
       sodipodi:type="arc"
       sodipodi:cx="107.62068"
       sodipodi:cy="129.60066"
       sodipodi:rx="1.7651994"
       sodipodi:ry="1.7161661"
       sodipodi:start="0"
       sodipodi:end="6.2319075"
       d="m 109.38588,129.60066 a 1.7651994,1.7161661 0 0 1 -1.74257,1.71603 1.7651994,1.7161661 0 0 1 -1.78725,-1.67203 1.7651994,1.7161661 0 0 1 1.69675,-1.75889 1.7651994,1.7161661 0 0 1 1.83075,1.62693 l -1.76288,0.088 z" />
    <path
       style="fill:#ffffff;fill-opacity:1;stroke:#ffffff;stroke-width:0.45298272;stroke-linecap:round;stroke-linejoin:bevel;stroke-miterlimit:4;stroke-dasharray:none;stroke-dashoffset:0;stroke-opacity:1"
       id="path859-4"
       sodipodi:type="arc"
       sodipodi:cx="111.41911"
       sodipodi:cy="132.24918"
       sodipodi:rx="0.92901701"
       sodipodi:ry="0.903211"
       sodipodi:start="0"
       sodipodi:end="6.2319075"
       d="m 112.34813,132.24918 a 0.92901701,0.903211 0 0 1 -0.91711,0.90313 0.92901701,0.903211 0 0 1 -0.94062,-0.87998 0.92901701,0.903211 0 0 1 0.89299,-0.9257 0.92901701,0.903211 0 0 1 0.96352,0.85625 l -0.9278,0.0463 z" />
    <ellipse
       style="fill:#ffaaaa;fill-opacity:1;stroke:#ffaaaa;stroke-width:0.71881437;stroke-linecap:round;stroke-linejoin:bevel;stroke-miterlimit:4;stroke-dasharray:none;stroke-dashoffset:0;stroke-opacity:1"
       id="path891"
       cx="82.030052"
       cy="153.18816"
       rx="0.4053866"
       ry="0.43434277" />
    <ellipse
       style="fill:#ffaaaa;fill-opacity:1;stroke:#ffaaaa;stroke-width:0.71881437;stroke-linecap:round;stroke-linejoin:bevel;stroke-miterlimit:4;stroke-dasharray:none;stroke-dashoffset:0;stroke-opacity:1"
       id="path891-2"
       cx="130.99902"
       cy="153.48024"
       rx="0.4053866"
       ry="0.43434277" />
  </g>
</svg>
